G04*
G04 #@! TF.GenerationSoftware,Altium Limited,Altium Designer,24.0.1 (36)*
G04*
G04 Layer_Physical_Order=2*
G04 Layer_Color=16711680*
%FSLAX44Y44*%
%MOMM*%
G71*
G04*
G04 #@! TF.SameCoordinates,11300C1B-94DD-46D1-A2B6-7A041ABCAB01*
G04*
G04*
G04 #@! TF.FilePolarity,Positive*
G04*
G01*
G75*
%ADD10C,0.2540*%
%ADD11C,0.2000*%
G04:AMPARAMS|DCode=15|XSize=1mm|YSize=0.7mm|CornerRadius=0.175mm|HoleSize=0mm|Usage=FLASHONLY|Rotation=270.000|XOffset=0mm|YOffset=0mm|HoleType=Round|Shape=RoundedRectangle|*
%AMROUNDEDRECTD15*
21,1,1.0000,0.3500,0,0,270.0*
21,1,0.6500,0.7000,0,0,270.0*
1,1,0.3500,-0.1750,-0.3250*
1,1,0.3500,-0.1750,0.3250*
1,1,0.3500,0.1750,0.3250*
1,1,0.3500,0.1750,-0.3250*
%
%ADD15ROUNDEDRECTD15*%
G04:AMPARAMS|DCode=17|XSize=1mm|YSize=0.7mm|CornerRadius=0.175mm|HoleSize=0mm|Usage=FLASHONLY|Rotation=180.000|XOffset=0mm|YOffset=0mm|HoleType=Round|Shape=RoundedRectangle|*
%AMROUNDEDRECTD17*
21,1,1.0000,0.3500,0,0,180.0*
21,1,0.6500,0.7000,0,0,180.0*
1,1,0.3500,-0.3250,0.1750*
1,1,0.3500,0.3250,0.1750*
1,1,0.3500,0.3250,-0.1750*
1,1,0.3500,-0.3250,-0.1750*
%
%ADD17ROUNDEDRECTD17*%
G04:AMPARAMS|DCode=19|XSize=2.06mm|YSize=2.02mm|CornerRadius=0.2525mm|HoleSize=0mm|Usage=FLASHONLY|Rotation=270.000|XOffset=0mm|YOffset=0mm|HoleType=Round|Shape=RoundedRectangle|*
%AMROUNDEDRECTD19*
21,1,2.0600,1.5150,0,0,270.0*
21,1,1.5550,2.0200,0,0,270.0*
1,1,0.5050,-0.7575,-0.7775*
1,1,0.5050,-0.7575,0.7775*
1,1,0.5050,0.7575,0.7775*
1,1,0.5050,0.7575,-0.7775*
%
%ADD19ROUNDEDRECTD19*%
G04:AMPARAMS|DCode=31|XSize=0.81mm|YSize=0.9mm|CornerRadius=0.2025mm|HoleSize=0mm|Usage=FLASHONLY|Rotation=0.000|XOffset=0mm|YOffset=0mm|HoleType=Round|Shape=RoundedRectangle|*
%AMROUNDEDRECTD31*
21,1,0.8100,0.4950,0,0,0.0*
21,1,0.4050,0.9000,0,0,0.0*
1,1,0.4050,0.2025,-0.2475*
1,1,0.4050,-0.2025,-0.2475*
1,1,0.4050,-0.2025,0.2475*
1,1,0.4050,0.2025,0.2475*
%
%ADD31ROUNDEDRECTD31*%
%ADD56C,0.5080*%
%ADD57C,0.3810*%
%ADD58C,0.7620*%
%ADD59R,1.5000X1.5000*%
%ADD60C,1.5000*%
%ADD61C,0.9000*%
%ADD62C,0.4570*%
G04:AMPARAMS|DCode=63|XSize=0.25mm|YSize=0.6mm|CornerRadius=0.0525mm|HoleSize=0mm|Usage=FLASHONLY|Rotation=0.000|XOffset=0mm|YOffset=0mm|HoleType=Round|Shape=RoundedRectangle|*
%AMROUNDEDRECTD63*
21,1,0.2500,0.4950,0,0,0.0*
21,1,0.1450,0.6000,0,0,0.0*
1,1,0.1050,0.0725,-0.2475*
1,1,0.1050,-0.0725,-0.2475*
1,1,0.1050,-0.0725,0.2475*
1,1,0.1050,0.0725,0.2475*
%
%ADD63ROUNDEDRECTD63*%
G04:AMPARAMS|DCode=64|XSize=0.6mm|YSize=0.25mm|CornerRadius=0.0525mm|HoleSize=0mm|Usage=FLASHONLY|Rotation=0.000|XOffset=0mm|YOffset=0mm|HoleType=Round|Shape=RoundedRectangle|*
%AMROUNDEDRECTD64*
21,1,0.6000,0.1450,0,0,0.0*
21,1,0.4950,0.2500,0,0,0.0*
1,1,0.1050,0.2475,-0.0725*
1,1,0.1050,-0.2475,-0.0725*
1,1,0.1050,-0.2475,0.0725*
1,1,0.1050,0.2475,0.0725*
%
%ADD64ROUNDEDRECTD64*%
%ADD65R,1.0000X1.0000*%
G04:AMPARAMS|DCode=66|XSize=2.5mm|YSize=0.9mm|CornerRadius=0.225mm|HoleSize=0mm|Usage=FLASHONLY|Rotation=0.000|XOffset=0mm|YOffset=0mm|HoleType=Round|Shape=RoundedRectangle|*
%AMROUNDEDRECTD66*
21,1,2.5000,0.4500,0,0,0.0*
21,1,2.0500,0.9000,0,0,0.0*
1,1,0.4500,1.0250,-0.2250*
1,1,0.4500,-1.0250,-0.2250*
1,1,0.4500,-1.0250,0.2250*
1,1,0.4500,1.0250,0.2250*
%
%ADD66ROUNDEDRECTD66*%
G04:AMPARAMS|DCode=67|XSize=0.9mm|YSize=2.5mm|CornerRadius=0.225mm|HoleSize=0mm|Usage=FLASHONLY|Rotation=0.000|XOffset=0mm|YOffset=0mm|HoleType=Round|Shape=RoundedRectangle|*
%AMROUNDEDRECTD67*
21,1,0.9000,2.0500,0,0,0.0*
21,1,0.4500,2.5000,0,0,0.0*
1,1,0.4500,0.2250,-1.0250*
1,1,0.4500,-0.2250,-1.0250*
1,1,0.4500,-0.2250,1.0250*
1,1,0.4500,0.2250,1.0250*
%
%ADD67ROUNDEDRECTD67*%
G04:AMPARAMS|DCode=68|XSize=1.33mm|YSize=1.33mm|CornerRadius=0.3325mm|HoleSize=0mm|Usage=FLASHONLY|Rotation=0.000|XOffset=0mm|YOffset=0mm|HoleType=Round|Shape=RoundedRectangle|*
%AMROUNDEDRECTD68*
21,1,1.3300,0.6650,0,0,0.0*
21,1,0.6650,1.3300,0,0,0.0*
1,1,0.6650,0.3325,-0.3325*
1,1,0.6650,-0.3325,-0.3325*
1,1,0.6650,-0.3325,0.3325*
1,1,0.6650,0.3325,0.3325*
%
%ADD68ROUNDEDRECTD68*%
%ADD69R,0.6500X1.0000*%
%ADD70R,0.8000X0.8000*%
%ADD71R,1.4000X1.1500*%
G04:AMPARAMS|DCode=72|XSize=0.5mm|YSize=0.5mm|CornerRadius=0.125mm|HoleSize=0mm|Usage=FLASHONLY|Rotation=180.000|XOffset=0mm|YOffset=0mm|HoleType=Round|Shape=RoundedRectangle|*
%AMROUNDEDRECTD72*
21,1,0.5000,0.2500,0,0,180.0*
21,1,0.2500,0.5000,0,0,180.0*
1,1,0.2500,-0.1250,0.1250*
1,1,0.2500,0.1250,0.1250*
1,1,0.2500,0.1250,-0.1250*
1,1,0.2500,-0.1250,-0.1250*
%
%ADD72ROUNDEDRECTD72*%
G36*
X16724Y-342087D02*
X-97786D01*
X-98591Y-341105D01*
X-98420Y-340242D01*
X-98055Y-334677D01*
X-98420Y-329113D01*
X-99507Y-323643D01*
X-101300Y-318363D01*
X-103766Y-313361D01*
X-106864Y-308725D01*
X-110541Y-304532D01*
X-114734Y-300855D01*
X-119370Y-297757D01*
X-124372Y-295291D01*
X-129652Y-293498D01*
X-135121Y-292410D01*
X-140686Y-292046D01*
X-146251Y-292410D01*
X-151720Y-293498D01*
X-157000Y-295291D01*
X-162002Y-297757D01*
X-166638Y-300855D01*
X-170831Y-304532D01*
X-174508Y-308725D01*
X-177606Y-313361D01*
X-180072Y-318363D01*
X-181865Y-323643D01*
X-182953Y-329113D01*
X-183317Y-334677D01*
X-182953Y-340242D01*
X-182781Y-341105D01*
X-183587Y-342087D01*
X-258096D01*
Y-284677D01*
X-258293Y-283686D01*
X-258855Y-282846D01*
X-259695Y-282284D01*
X-260686Y-282087D01*
X-410686D01*
X-411677Y-282284D01*
X-412517Y-282846D01*
X-413079Y-283686D01*
X-413276Y-284677D01*
Y-342087D01*
X-447786D01*
X-448591Y-341105D01*
X-448419Y-340242D01*
X-448055Y-334677D01*
X-448419Y-329113D01*
X-449507Y-323643D01*
X-451300Y-318363D01*
X-453766Y-313361D01*
X-456864Y-308725D01*
X-460541Y-304532D01*
X-464734Y-300855D01*
X-469370Y-297757D01*
X-474372Y-295291D01*
X-479652Y-293498D01*
X-485122Y-292410D01*
X-490686Y-292046D01*
X-496251Y-292410D01*
X-501720Y-293498D01*
X-507000Y-295291D01*
X-512002Y-297757D01*
X-516638Y-300855D01*
X-520831Y-304532D01*
X-524508Y-308725D01*
X-527606Y-313361D01*
X-530072Y-318363D01*
X-531865Y-323643D01*
X-532953Y-329113D01*
X-533317Y-334677D01*
X-532953Y-340242D01*
X-532781Y-341105D01*
X-533587Y-342087D01*
X-578096D01*
Y-304677D01*
Y-294677D01*
X-578293Y-293686D01*
X-578855Y-292846D01*
X-588855Y-282846D01*
X-589695Y-282284D01*
X-590686Y-282087D01*
X-628096D01*
Y12733D01*
X-590686D01*
X-589695Y12930D01*
X-588855Y13492D01*
X-578855Y23492D01*
X-578293Y24332D01*
X-578096Y25323D01*
Y72733D01*
X-533587D01*
X-532781Y71751D01*
X-532953Y70887D01*
X-533317Y65323D01*
X-532953Y59759D01*
X-531865Y54289D01*
X-530072Y49009D01*
X-527606Y44007D01*
X-524508Y39371D01*
X-520831Y35178D01*
X-516638Y31501D01*
X-512002Y28403D01*
X-507000Y25937D01*
X-501720Y24144D01*
X-496251Y23056D01*
X-490686Y22692D01*
X-485122Y23056D01*
X-479652Y24144D01*
X-474372Y25937D01*
X-469370Y28403D01*
X-464734Y31501D01*
X-460541Y35178D01*
X-456864Y39371D01*
X-453766Y44007D01*
X-451300Y49009D01*
X-449507Y54289D01*
X-448419Y59759D01*
X-448055Y65323D01*
X-448419Y70887D01*
X-448532Y71453D01*
X-447726Y72435D01*
X-183646D01*
X-182840Y71453D01*
X-182953Y70887D01*
X-183317Y65323D01*
X-182953Y59759D01*
X-181865Y54289D01*
X-180072Y49009D01*
X-177606Y44007D01*
X-174508Y39371D01*
X-170831Y35178D01*
X-166638Y31501D01*
X-162002Y28403D01*
X-157000Y25937D01*
X-151720Y24144D01*
X-146251Y23056D01*
X-140686Y22692D01*
X-135121Y23056D01*
X-129652Y24144D01*
X-124372Y25937D01*
X-119370Y28403D01*
X-114734Y31501D01*
X-110541Y35178D01*
X-106864Y39371D01*
X-103766Y44007D01*
X-101300Y49009D01*
X-99507Y54289D01*
X-98420Y59759D01*
X-98055Y65323D01*
X-98420Y70887D01*
X-98591Y71751D01*
X-97786Y72733D01*
X16724D01*
Y-342087D01*
D02*
G37*
%LPC*%
G36*
X8770Y8770D02*
X-8770D01*
Y-8770D01*
X8770D01*
Y8770D01*
D02*
G37*
G36*
X1155Y-16630D02*
X-1155D01*
X-3385Y-17228D01*
X-5385Y-18382D01*
X-7018Y-20015D01*
X-8172Y-22015D01*
X-8770Y-24245D01*
Y-26555D01*
X-8172Y-28785D01*
X-7018Y-30785D01*
X-5385Y-32418D01*
X-3385Y-33572D01*
X-1155Y-34170D01*
X1155D01*
X3385Y-33572D01*
X5385Y-32418D01*
X7018Y-30785D01*
X8172Y-28785D01*
X8770Y-26555D01*
Y-24245D01*
X8172Y-22015D01*
X7018Y-20015D01*
X5385Y-18382D01*
X3385Y-17228D01*
X1155Y-16630D01*
D02*
G37*
G36*
Y-42030D02*
X-1155D01*
X-3385Y-42628D01*
X-5385Y-43782D01*
X-7018Y-45415D01*
X-8172Y-47415D01*
X-8770Y-49645D01*
Y-51955D01*
X-8172Y-54185D01*
X-7018Y-56185D01*
X-5385Y-57818D01*
X-3385Y-58972D01*
X-1155Y-59570D01*
X1155D01*
X3385Y-58972D01*
X5385Y-57818D01*
X7018Y-56185D01*
X8172Y-54185D01*
X8770Y-51955D01*
Y-49645D01*
X8172Y-47415D01*
X7018Y-45415D01*
X5385Y-43782D01*
X3385Y-42628D01*
X1155Y-42030D01*
D02*
G37*
G36*
X-491057Y-48064D02*
X-494557D01*
X-496131Y-48377D01*
X-497466Y-49269D01*
X-498358Y-50605D01*
X-498672Y-52179D01*
Y-58679D01*
X-498358Y-60254D01*
X-497466Y-61589D01*
X-496131Y-62481D01*
X-494557Y-62794D01*
X-491057D01*
X-489482Y-62481D01*
X-488147Y-61589D01*
X-487255Y-60254D01*
X-486941Y-58679D01*
Y-58079D01*
X-486728Y-58074D01*
X-486605Y-58019D01*
X-484569D01*
X-484447Y-58074D01*
X-484188Y-58080D01*
Y-61715D01*
X-471616D01*
Y-49143D01*
X-484188D01*
Y-52778D01*
X-484447Y-52785D01*
X-484569Y-52839D01*
X-486605D01*
X-486728Y-52785D01*
X-486941Y-52779D01*
Y-52179D01*
X-487255Y-50605D01*
X-488147Y-49269D01*
X-489482Y-48377D01*
X-491057Y-48064D01*
D02*
G37*
G36*
X-237580Y33319D02*
X-372374D01*
X-373365Y33122D01*
X-374205Y32560D01*
X-430551Y-23786D01*
X-431113Y-24626D01*
X-431310Y-25617D01*
Y-37506D01*
X-431364Y-37628D01*
X-431370Y-37842D01*
X-438970D01*
X-440740Y-38194D01*
X-442240Y-39197D01*
X-443243Y-40697D01*
X-443595Y-42467D01*
Y-46967D01*
X-443243Y-48737D01*
X-442240Y-50237D01*
X-441949Y-50432D01*
Y-51702D01*
X-442240Y-51897D01*
X-442797Y-52730D01*
X-444354Y-52969D01*
X-446897Y-50427D01*
Y-32621D01*
X-412089Y2187D01*
X-411960Y2238D01*
X-411793Y2401D01*
X-411663Y2520D01*
X-411508Y2648D01*
X-410752D01*
X-409360Y3224D01*
X-408295Y4289D01*
X-407719Y5681D01*
Y7187D01*
X-408295Y8578D01*
X-409360Y9643D01*
X-410752Y10220D01*
X-412258D01*
X-413649Y9643D01*
X-414714Y8578D01*
X-415291Y7187D01*
Y6435D01*
X-415554Y6128D01*
X-415700Y5978D01*
X-415751Y5849D01*
X-451318Y-29717D01*
X-451879Y-30557D01*
X-452076Y-31548D01*
Y-51499D01*
X-451879Y-52490D01*
X-451318Y-53330D01*
X-445400Y-59248D01*
X-444560Y-59810D01*
X-443852Y-59950D01*
X-443601Y-60061D01*
X-443516Y-60063D01*
X-443243Y-61437D01*
X-442240Y-62937D01*
X-441949Y-63132D01*
Y-64402D01*
X-442240Y-64597D01*
X-443243Y-66097D01*
X-443286Y-66312D01*
X-444664Y-66730D01*
X-448298Y-63095D01*
Y-60082D01*
X-448495Y-59090D01*
X-449057Y-58250D01*
X-453709Y-53598D01*
X-454549Y-53037D01*
X-455256Y-52896D01*
X-455507Y-52785D01*
X-455616Y-52782D01*
Y-49143D01*
X-468188D01*
Y-61715D01*
X-455616D01*
Y-60676D01*
X-454442Y-60190D01*
X-453478Y-61154D01*
Y-64168D01*
X-453281Y-65159D01*
X-452719Y-65999D01*
X-446749Y-71970D01*
X-445909Y-72531D01*
X-444918Y-72728D01*
X-443931D01*
X-443808Y-72783D01*
X-443511Y-72790D01*
X-443243Y-74137D01*
X-442240Y-75637D01*
X-441949Y-75832D01*
Y-77102D01*
X-442240Y-77297D01*
X-442985Y-78412D01*
X-444432Y-78761D01*
X-452949Y-70244D01*
X-453790Y-69682D01*
X-454781Y-69485D01*
X-455234D01*
X-455356Y-69431D01*
X-455616Y-69424D01*
Y-65789D01*
X-468188D01*
Y-78361D01*
X-455616D01*
Y-76562D01*
X-454442Y-76076D01*
X-445848Y-84670D01*
X-445008Y-85231D01*
X-444017Y-85428D01*
X-443931D01*
X-443808Y-85483D01*
X-443511Y-85490D01*
X-443243Y-86837D01*
X-442240Y-88337D01*
X-441949Y-88532D01*
Y-89802D01*
X-442240Y-89997D01*
X-443243Y-91497D01*
X-443519Y-92887D01*
X-443808Y-92894D01*
X-443931Y-92949D01*
X-444762D01*
X-450821Y-86889D01*
X-451661Y-86328D01*
X-452653Y-86131D01*
X-455234D01*
X-455356Y-86076D01*
X-455616Y-86069D01*
Y-82434D01*
X-468188D01*
Y-95006D01*
X-455616D01*
Y-91371D01*
X-455356Y-91364D01*
X-455234Y-91310D01*
X-453725D01*
X-447666Y-97370D01*
X-446826Y-97931D01*
X-445835Y-98128D01*
X-443931D01*
X-443808Y-98182D01*
X-443511Y-98190D01*
X-443243Y-99537D01*
X-442240Y-101037D01*
X-441949Y-101232D01*
Y-102502D01*
X-442240Y-102697D01*
X-443243Y-104197D01*
X-443519Y-105587D01*
X-443808Y-105594D01*
X-443931Y-105649D01*
X-446351D01*
X-448465Y-103535D01*
X-449305Y-102973D01*
X-450297Y-102776D01*
X-455234D01*
X-455356Y-102722D01*
X-455616Y-102715D01*
Y-99080D01*
X-468188D01*
Y-111652D01*
X-455616D01*
Y-108017D01*
X-455356Y-108010D01*
X-455234Y-107956D01*
X-451369D01*
X-449255Y-110070D01*
X-448415Y-110631D01*
X-447424Y-110828D01*
X-443931D01*
X-443808Y-110883D01*
X-443511Y-110890D01*
X-443243Y-112237D01*
X-442240Y-113737D01*
X-441949Y-113932D01*
Y-115202D01*
X-442240Y-115397D01*
X-443243Y-116897D01*
X-443519Y-118287D01*
X-443808Y-118294D01*
X-443931Y-118349D01*
X-449688D01*
X-450679Y-118546D01*
X-451519Y-119107D01*
X-451834Y-119422D01*
X-455234D01*
X-455356Y-119367D01*
X-455616Y-119360D01*
Y-115725D01*
X-468188D01*
Y-128297D01*
X-455616D01*
Y-124662D01*
X-455356Y-124656D01*
X-455234Y-124601D01*
X-450761D01*
X-449770Y-124404D01*
X-448930Y-123843D01*
X-448615Y-123528D01*
X-443931D01*
X-443808Y-123582D01*
X-443511Y-123590D01*
X-443243Y-124937D01*
X-442240Y-126437D01*
X-440740Y-127440D01*
X-438970Y-127792D01*
X-418470D01*
X-416700Y-127440D01*
X-415200Y-126437D01*
X-414197Y-124937D01*
X-413845Y-123167D01*
Y-118667D01*
X-414197Y-116897D01*
X-415200Y-115397D01*
X-415491Y-115202D01*
Y-113932D01*
X-415200Y-113737D01*
X-414197Y-112237D01*
X-413845Y-110467D01*
Y-105967D01*
X-414197Y-104197D01*
X-415200Y-102697D01*
X-415491Y-102502D01*
Y-101232D01*
X-415200Y-101037D01*
X-414197Y-99537D01*
X-413845Y-97767D01*
Y-93267D01*
X-414197Y-91497D01*
X-415200Y-89997D01*
X-415491Y-89802D01*
Y-88532D01*
X-415200Y-88337D01*
X-414197Y-86837D01*
X-413845Y-85067D01*
Y-80567D01*
X-414197Y-78797D01*
X-415200Y-77297D01*
X-415491Y-77102D01*
Y-75832D01*
X-415200Y-75637D01*
X-414197Y-74137D01*
X-413845Y-72367D01*
Y-67867D01*
X-414197Y-66097D01*
X-415200Y-64597D01*
X-415491Y-64402D01*
Y-63132D01*
X-415200Y-62937D01*
X-414197Y-61437D01*
X-413845Y-59667D01*
Y-55167D01*
X-414197Y-53397D01*
X-415200Y-51897D01*
X-415491Y-51702D01*
Y-50432D01*
X-415200Y-50237D01*
X-414197Y-48737D01*
X-413845Y-46967D01*
Y-42467D01*
X-414197Y-40697D01*
X-415200Y-39197D01*
X-416700Y-38194D01*
X-418470Y-37842D01*
X-426070D01*
X-426076Y-37628D01*
X-426130Y-37506D01*
Y-26690D01*
X-371301Y28139D01*
X-238653D01*
X-220141Y9628D01*
Y-38381D01*
X-220170Y-38425D01*
X-220148Y-38538D01*
X-220196Y-38644D01*
X-220210Y-39084D01*
X-220212Y-39102D01*
X-221126Y-40015D01*
X-221702Y-41406D01*
Y-42912D01*
X-221126Y-44304D01*
X-220694Y-44735D01*
X-220664Y-45160D01*
X-220662Y-45374D01*
X-220607Y-45502D01*
Y-53412D01*
X-220410Y-54404D01*
X-219848Y-55244D01*
X-214187Y-60906D01*
X-213347Y-61467D01*
X-212355Y-61664D01*
X-199812D01*
X-199689Y-61719D01*
X-199476Y-61724D01*
Y-62027D01*
X-199141Y-63709D01*
X-198188Y-65135D01*
X-197120Y-65849D01*
X-197065Y-66028D01*
Y-67081D01*
X-197120Y-67260D01*
X-198188Y-67974D01*
X-199141Y-69400D01*
X-199441Y-70907D01*
X-199690Y-70913D01*
X-199812Y-70968D01*
X-221375D01*
X-226889Y-65454D01*
X-226896Y-65412D01*
X-227004Y-65338D01*
X-227050Y-65216D01*
X-227094Y-65169D01*
X-226682Y-64173D01*
Y-62667D01*
X-227258Y-61276D01*
X-227790Y-60745D01*
X-227821Y-60341D01*
X-227824Y-60132D01*
X-227878Y-60004D01*
Y9901D01*
X-228075Y10892D01*
X-228637Y11732D01*
X-240829Y23924D01*
X-241669Y24486D01*
X-242660Y24683D01*
X-354848D01*
X-355839Y24486D01*
X-356679Y23924D01*
X-390001Y-9398D01*
X-390563Y-10238D01*
X-390760Y-11229D01*
Y-19507D01*
X-390814Y-19629D01*
X-390822Y-19922D01*
X-392190Y-20194D01*
X-393690Y-21197D01*
X-394693Y-22697D01*
X-395045Y-24467D01*
Y-44967D01*
X-394693Y-46737D01*
X-393690Y-48237D01*
X-392190Y-49240D01*
X-390420Y-49592D01*
X-385920D01*
X-384150Y-49240D01*
X-382650Y-48237D01*
X-382455Y-47946D01*
X-381185D01*
X-380990Y-48237D01*
X-379490Y-49240D01*
X-377720Y-49592D01*
X-373220D01*
X-371450Y-49240D01*
X-369950Y-48237D01*
X-369755Y-47946D01*
X-368485D01*
X-368290Y-48237D01*
X-366790Y-49240D01*
X-365020Y-49592D01*
X-360520D01*
X-358750Y-49240D01*
X-357250Y-48237D01*
X-357055Y-47946D01*
X-355785D01*
X-355590Y-48237D01*
X-354090Y-49240D01*
X-352320Y-49592D01*
X-347820D01*
X-346050Y-49240D01*
X-344550Y-48237D01*
X-343547Y-46737D01*
X-343195Y-44967D01*
Y-24467D01*
X-343547Y-22697D01*
X-344550Y-21197D01*
X-346050Y-20194D01*
X-347820Y-19842D01*
X-352320D01*
X-354090Y-20194D01*
X-355590Y-21197D01*
X-355785Y-21488D01*
X-357055D01*
X-357250Y-21197D01*
X-358750Y-20194D01*
X-360520Y-19842D01*
X-365020D01*
X-366790Y-20194D01*
X-368290Y-21197D01*
X-368485Y-21488D01*
X-369755D01*
X-369950Y-21197D01*
X-371450Y-20194D01*
X-373220Y-19842D01*
X-377720D01*
X-379490Y-20194D01*
X-380990Y-21197D01*
X-381185Y-21488D01*
X-382455D01*
X-382650Y-21197D01*
X-384150Y-20194D01*
X-385518Y-19922D01*
X-385526Y-19629D01*
X-385580Y-19507D01*
Y-12302D01*
X-353775Y19503D01*
X-243733D01*
X-233058Y8828D01*
Y-60004D01*
X-233113Y-60132D01*
X-233116Y-60364D01*
X-233123Y-60541D01*
X-233143Y-60740D01*
X-233678Y-61276D01*
X-234254Y-62667D01*
Y-64173D01*
X-233678Y-65565D01*
X-232897Y-66346D01*
X-232861Y-66528D01*
X-232299Y-67368D01*
X-231458Y-68209D01*
X-231377Y-68331D01*
X-231255Y-68412D01*
X-224279Y-75389D01*
X-223439Y-75950D01*
X-222448Y-76147D01*
X-199812D01*
X-199690Y-76202D01*
X-199441Y-76208D01*
X-199141Y-77714D01*
X-198188Y-79140D01*
X-197120Y-79855D01*
X-197065Y-80034D01*
Y-81087D01*
X-197120Y-81266D01*
X-198188Y-81980D01*
X-199141Y-83406D01*
X-199476Y-85088D01*
Y-85428D01*
X-199706Y-86611D01*
X-199824Y-86665D01*
X-224551D01*
X-237074Y-74142D01*
Y-12367D01*
X-237271Y-11376D01*
X-237833Y-10536D01*
X-251950Y3581D01*
X-252790Y4143D01*
X-253781Y4340D01*
X-303985D01*
X-304976Y4143D01*
X-305816Y3581D01*
X-306331Y3066D01*
X-306452Y3021D01*
X-306700Y2792D01*
X-306950Y2895D01*
X-308456D01*
X-309847Y2319D01*
X-310912Y1254D01*
X-311489Y-138D01*
Y-1644D01*
X-310912Y-3036D01*
X-309847Y-4101D01*
X-308456Y-4677D01*
X-306950D01*
X-305558Y-4101D01*
X-304493Y-3036D01*
X-304125Y-2146D01*
X-303571Y-1576D01*
X-303520Y-1448D01*
X-302912Y-840D01*
X-254854D01*
X-242254Y-13440D01*
Y-75215D01*
X-242057Y-76206D01*
X-241495Y-77046D01*
X-227455Y-91086D01*
X-226615Y-91648D01*
X-225624Y-91845D01*
X-199710D01*
X-199585Y-91899D01*
X-199154Y-91908D01*
X-199009Y-91918D01*
X-198188Y-93146D01*
X-196763Y-94099D01*
X-195708Y-94309D01*
X-195700Y-94646D01*
X-195645Y-94769D01*
Y-97156D01*
X-205633Y-107143D01*
X-271870D01*
X-272861Y-107340D01*
X-273701Y-107902D01*
X-280904Y-115105D01*
X-281466Y-115945D01*
X-281663Y-116936D01*
Y-127422D01*
X-281466Y-128413D01*
X-280904Y-129253D01*
X-274463Y-135694D01*
X-273623Y-136256D01*
X-272632Y-136453D01*
X-250784D01*
X-249065Y-138172D01*
X-249591Y-139442D01*
X-268970D01*
X-270740Y-139794D01*
X-272240Y-140797D01*
X-273243Y-142297D01*
X-273595Y-144067D01*
Y-148567D01*
X-273243Y-150337D01*
X-272240Y-151837D01*
X-271949Y-152032D01*
Y-153302D01*
X-272240Y-153497D01*
X-273243Y-154997D01*
X-273515Y-156365D01*
X-273808Y-156373D01*
X-273930Y-156427D01*
X-307791D01*
X-308782Y-156624D01*
X-309622Y-157186D01*
X-431839Y-279402D01*
X-434867D01*
X-435252Y-278132D01*
X-434882Y-277885D01*
X-311695Y-154697D01*
X-311133Y-153857D01*
X-310936Y-152866D01*
Y-85464D01*
X-274401Y-48929D01*
X-272910Y-49234D01*
X-272240Y-50237D01*
X-271949Y-50432D01*
Y-51702D01*
X-272240Y-51897D01*
X-273243Y-53397D01*
X-273595Y-55167D01*
Y-59667D01*
X-273243Y-61437D01*
X-272240Y-62937D01*
X-271949Y-63132D01*
Y-64402D01*
X-272240Y-64597D01*
X-273243Y-66097D01*
X-273515Y-67465D01*
X-273808Y-67473D01*
X-273930Y-67527D01*
X-279139D01*
X-280130Y-67724D01*
X-280970Y-68286D01*
X-305705Y-93021D01*
X-306267Y-93861D01*
X-306464Y-94852D01*
Y-125025D01*
X-306267Y-126016D01*
X-305705Y-126856D01*
X-288257Y-144304D01*
X-288205Y-144434D01*
X-287669Y-144982D01*
X-287269Y-145949D01*
X-286203Y-147014D01*
X-284812Y-147590D01*
X-283306D01*
X-281914Y-147014D01*
X-280849Y-145949D01*
X-280273Y-144557D01*
Y-143051D01*
X-280849Y-141660D01*
X-281914Y-140595D01*
X-283306Y-140018D01*
X-284812D01*
X-285032Y-140109D01*
X-285115Y-140039D01*
X-285264Y-139895D01*
X-285392Y-139845D01*
X-301284Y-123952D01*
Y-95925D01*
X-278066Y-72707D01*
X-273930D01*
X-273808Y-72761D01*
X-273515Y-72769D01*
X-273243Y-74137D01*
X-272240Y-75637D01*
X-271949Y-75832D01*
Y-77102D01*
X-272240Y-77297D01*
X-273243Y-78797D01*
X-273519Y-80187D01*
X-273808Y-80194D01*
X-273930Y-80249D01*
X-277801D01*
X-278792Y-80446D01*
X-279632Y-81007D01*
X-295545Y-96920D01*
X-296107Y-97761D01*
X-296304Y-98752D01*
Y-114191D01*
X-296359Y-114319D01*
X-296362Y-114551D01*
X-296369Y-114727D01*
X-296388Y-114927D01*
X-296924Y-115462D01*
X-297500Y-116854D01*
Y-118360D01*
X-296924Y-119752D01*
X-295859Y-120817D01*
X-294467Y-121393D01*
X-292961D01*
X-291569Y-120817D01*
X-290504Y-119752D01*
X-289928Y-118360D01*
Y-116854D01*
X-290504Y-115462D01*
X-291036Y-114931D01*
X-291067Y-114527D01*
X-291070Y-114319D01*
X-291124Y-114191D01*
Y-99824D01*
X-276728Y-85428D01*
X-273930D01*
X-273808Y-85483D01*
X-273511Y-85490D01*
X-273243Y-86837D01*
X-272240Y-88337D01*
X-271949Y-88532D01*
Y-89802D01*
X-272240Y-89997D01*
X-273243Y-91497D01*
X-273595Y-93267D01*
Y-97767D01*
X-273243Y-99537D01*
X-272240Y-101037D01*
X-270740Y-102040D01*
X-268970Y-102392D01*
X-248470D01*
X-246700Y-102040D01*
X-245200Y-101037D01*
X-244197Y-99537D01*
X-243845Y-97767D01*
Y-93267D01*
X-244197Y-91497D01*
X-245200Y-89997D01*
X-245491Y-89802D01*
Y-88532D01*
X-245200Y-88337D01*
X-244197Y-86837D01*
X-243845Y-85067D01*
Y-80567D01*
X-244197Y-78797D01*
X-245200Y-77297D01*
X-245491Y-77102D01*
Y-75832D01*
X-245200Y-75637D01*
X-244197Y-74137D01*
X-243845Y-72367D01*
Y-67867D01*
X-244197Y-66097D01*
X-245200Y-64597D01*
X-245491Y-64402D01*
Y-63132D01*
X-245200Y-62937D01*
X-244197Y-61437D01*
X-243845Y-59667D01*
Y-55167D01*
X-244197Y-53397D01*
X-245200Y-51897D01*
X-245491Y-51702D01*
Y-50432D01*
X-245200Y-50237D01*
X-244197Y-48737D01*
X-243845Y-46967D01*
Y-42467D01*
X-244197Y-40697D01*
X-245200Y-39197D01*
X-246700Y-38194D01*
X-248470Y-37842D01*
X-268970D01*
X-270740Y-38194D01*
X-272240Y-39197D01*
X-273243Y-40697D01*
X-273519Y-42087D01*
X-273808Y-42094D01*
X-273977Y-42169D01*
X-274864Y-42346D01*
X-275704Y-42907D01*
X-278558Y-45761D01*
X-279729Y-45136D01*
X-279695Y-44967D01*
Y-24467D01*
X-280047Y-22697D01*
X-281050Y-21197D01*
X-282550Y-20194D01*
X-284248Y-19856D01*
X-284254Y-19629D01*
X-284309Y-19506D01*
Y-18917D01*
X-284506Y-17926D01*
X-285067Y-17085D01*
X-293565Y-8588D01*
X-293617Y-8458D01*
X-294129Y-7935D01*
X-294579Y-6849D01*
X-295644Y-5784D01*
X-297035Y-5207D01*
X-298542D01*
X-299933Y-5784D01*
X-300998Y-6849D01*
X-301574Y-8240D01*
Y-9746D01*
X-300998Y-11138D01*
X-299933Y-12203D01*
X-298542Y-12779D01*
X-297035D01*
X-296865Y-12709D01*
X-296776Y-12784D01*
X-296626Y-12928D01*
X-296499Y-12979D01*
X-290580Y-18897D01*
X-290583Y-19291D01*
X-290883Y-20390D01*
X-292090Y-21197D01*
X-292285Y-21488D01*
X-293555D01*
X-293750Y-21197D01*
X-295250Y-20194D01*
X-297020Y-19842D01*
X-301520D01*
X-303290Y-20194D01*
X-304790Y-21197D01*
X-304985Y-21488D01*
X-306255D01*
X-306450Y-21197D01*
X-307950Y-20194D01*
X-309720Y-19842D01*
X-314220D01*
X-315990Y-20194D01*
X-317490Y-21197D01*
X-318493Y-22697D01*
X-318845Y-24467D01*
Y-44967D01*
X-318493Y-46737D01*
X-317490Y-48237D01*
X-315990Y-49240D01*
X-314220Y-49592D01*
X-309720D01*
X-307950Y-49240D01*
X-306450Y-48237D01*
X-306255Y-47946D01*
X-304985D01*
X-304790Y-48237D01*
X-303290Y-49240D01*
X-302719Y-49353D01*
X-302708Y-49802D01*
X-302654Y-49926D01*
Y-54558D01*
X-323739Y-75644D01*
X-324301Y-76484D01*
X-324498Y-77475D01*
Y-92855D01*
X-324553Y-92983D01*
X-324556Y-93215D01*
X-324563Y-93392D01*
X-324582Y-93591D01*
X-325118Y-94126D01*
X-325694Y-95518D01*
Y-97024D01*
X-325118Y-98416D01*
X-324053Y-99481D01*
X-322661Y-100057D01*
X-321155D01*
X-319764Y-99481D01*
X-318698Y-98416D01*
X-318122Y-97024D01*
Y-95518D01*
X-318698Y-94126D01*
X-319230Y-93595D01*
X-319261Y-93191D01*
X-319263Y-92983D01*
X-319318Y-92855D01*
Y-78548D01*
X-298233Y-57462D01*
X-297671Y-56622D01*
X-297474Y-55631D01*
Y-49927D01*
X-297420Y-49805D01*
X-297414Y-49592D01*
X-297020D01*
X-295250Y-49240D01*
X-293750Y-48237D01*
X-293555Y-47946D01*
X-292285D01*
X-292090Y-48237D01*
X-290590Y-49240D01*
X-288820Y-49592D01*
X-284320D01*
X-284151Y-49558D01*
X-283526Y-50729D01*
X-315357Y-82560D01*
X-315919Y-83401D01*
X-316116Y-84392D01*
Y-151793D01*
X-437786Y-273464D01*
X-477566D01*
Y-271315D01*
X-473708D01*
X-472221Y-271020D01*
X-470961Y-270178D01*
X-450717Y-249934D01*
X-447096D01*
X-445521Y-249621D01*
X-444186Y-248729D01*
X-443294Y-247394D01*
X-442981Y-245819D01*
Y-242319D01*
X-443294Y-240744D01*
X-443316Y-240712D01*
X-443311Y-240520D01*
X-442676Y-239384D01*
X-442400Y-239370D01*
X-442341Y-239342D01*
X-424561D01*
X-423074Y-239046D01*
X-421814Y-238204D01*
X-399648Y-216038D01*
X-398806Y-214778D01*
X-398511Y-213292D01*
Y-195778D01*
X-398806Y-194291D01*
X-399648Y-193031D01*
X-411009Y-181670D01*
X-412270Y-180828D01*
X-413756Y-180532D01*
X-414170D01*
X-414197Y-180397D01*
X-415200Y-178897D01*
X-416700Y-177894D01*
X-418470Y-177542D01*
X-438970D01*
X-440740Y-177894D01*
X-442240Y-178897D01*
X-443243Y-180397D01*
X-443595Y-182167D01*
Y-184934D01*
X-444865Y-185460D01*
X-446483Y-183842D01*
X-447323Y-183280D01*
X-448314Y-183083D01*
X-503630Y-183083D01*
X-504717Y-181999D01*
Y-50604D01*
X-504914Y-49613D01*
X-505475Y-48773D01*
X-506243Y-48005D01*
X-507083Y-47444D01*
X-508074Y-47246D01*
X-516095D01*
X-517086Y-47444D01*
X-517926Y-48005D01*
X-518761Y-48840D01*
X-519322Y-49680D01*
X-519520Y-50672D01*
X-519520Y-160315D01*
X-519872Y-160624D01*
X-520790Y-161126D01*
X-521499Y-160985D01*
X-544935D01*
X-545926Y-161182D01*
X-546766Y-161744D01*
X-548861Y-163839D01*
X-549423Y-164679D01*
X-549620Y-165670D01*
Y-195252D01*
X-549423Y-196243D01*
X-548861Y-197083D01*
X-547262Y-198683D01*
X-546421Y-199245D01*
X-545430Y-199442D01*
X-524829D01*
X-523838Y-199245D01*
X-522997Y-198683D01*
X-520694Y-196379D01*
X-519520Y-196865D01*
Y-198276D01*
X-519520Y-198276D01*
X-519520Y-198276D01*
X-519434Y-198708D01*
X-519323Y-199267D01*
X-519323Y-199267D01*
Y-199267D01*
X-519111Y-199585D01*
X-518762Y-200107D01*
X-518762Y-200107D01*
X-518761Y-200107D01*
X-517788Y-201081D01*
X-517408Y-201335D01*
X-516948Y-201642D01*
X-516948Y-201642D01*
X-516948Y-201642D01*
X-516584Y-201715D01*
X-515957Y-201839D01*
X-467437Y-201839D01*
X-461210D01*
X-458270Y-204780D01*
Y-211006D01*
X-458073Y-211998D01*
X-457511Y-212838D01*
X-456475Y-213874D01*
X-455634Y-214436D01*
X-454644Y-214633D01*
X-446012D01*
X-445020Y-214436D01*
X-444180Y-213874D01*
X-443261Y-212955D01*
X-442699Y-212115D01*
X-442502Y-211124D01*
Y-204325D01*
X-442388Y-204207D01*
X-417538D01*
X-416547Y-204010D01*
X-415707Y-203448D01*
X-414389Y-202130D01*
X-413827Y-201290D01*
X-413630Y-200299D01*
Y-193935D01*
X-413827Y-192944D01*
X-414389Y-192104D01*
X-415097Y-191396D01*
X-415200Y-189937D01*
X-415167Y-189888D01*
X-413903Y-189764D01*
X-406280Y-197387D01*
Y-211682D01*
X-426170Y-231572D01*
X-442341D01*
X-442400Y-231544D01*
X-442625Y-231532D01*
X-443270Y-230323D01*
X-443269Y-230210D01*
X-443040Y-229868D01*
X-442727Y-228293D01*
Y-224793D01*
X-443040Y-223218D01*
X-443932Y-221883D01*
X-445267Y-220991D01*
X-446842Y-220678D01*
X-453342D01*
X-454917Y-220991D01*
X-456252Y-221883D01*
X-457144Y-223218D01*
X-457457Y-224793D01*
Y-228293D01*
X-457144Y-229868D01*
X-456252Y-231203D01*
X-454917Y-232095D01*
X-453977Y-232282D01*
Y-235182D01*
X-453980Y-235187D01*
X-453977Y-235204D01*
Y-235710D01*
X-453980Y-235727D01*
X-453977Y-235732D01*
Y-238280D01*
X-455171Y-238517D01*
X-456506Y-239409D01*
X-457398Y-240744D01*
X-457711Y-242319D01*
Y-245819D01*
X-457691Y-245920D01*
X-475317Y-263546D01*
X-477566D01*
Y-259733D01*
X-488638D01*
Y-273464D01*
X-501387D01*
X-509645Y-265206D01*
X-510485Y-264644D01*
X-511476Y-264447D01*
X-528728D01*
X-528851Y-264393D01*
X-529110Y-264386D01*
Y-259751D01*
X-540182D01*
Y-272919D01*
X-541452Y-273445D01*
X-556328Y-258570D01*
Y-223478D01*
X-546432Y-213581D01*
X-546303Y-213530D01*
X-546135Y-213367D01*
X-546006Y-213248D01*
X-545851Y-213121D01*
X-545094D01*
X-543703Y-212544D01*
X-542638Y-211479D01*
X-542062Y-210088D01*
Y-208582D01*
X-542638Y-207190D01*
X-543703Y-206125D01*
X-545094Y-205549D01*
X-546601D01*
X-547992Y-206125D01*
X-549057Y-207190D01*
X-549633Y-208582D01*
Y-209333D01*
X-549897Y-209640D01*
X-550043Y-209790D01*
X-550094Y-209919D01*
X-560749Y-220574D01*
X-561310Y-221414D01*
X-561507Y-222405D01*
Y-259642D01*
X-561310Y-260633D01*
X-560749Y-261474D01*
X-538400Y-283823D01*
X-538326Y-283872D01*
X-538711Y-285142D01*
X-548026D01*
X-568285Y-264883D01*
Y-220266D01*
X-554017Y-205998D01*
X-553889Y-205947D01*
X-553721Y-205784D01*
X-553592Y-205665D01*
X-553437Y-205538D01*
X-552680D01*
X-551289Y-204961D01*
X-550224Y-203896D01*
X-549647Y-202505D01*
Y-200998D01*
X-550224Y-199607D01*
X-551289Y-198542D01*
X-552680Y-197966D01*
X-554186D01*
X-555578Y-198542D01*
X-556643Y-199607D01*
X-557219Y-200998D01*
Y-201750D01*
X-557482Y-202057D01*
X-557628Y-202207D01*
X-557680Y-202336D01*
X-572706Y-217362D01*
X-573267Y-218202D01*
X-573464Y-219193D01*
Y-265722D01*
X-574023Y-266108D01*
X-574693Y-266290D01*
X-594072Y-246911D01*
X-594072Y-148928D01*
X-592220Y-147077D01*
X-556282Y-147077D01*
X-548881Y-154456D01*
X-548881Y-154456D01*
X-548879Y-154459D01*
X-548465Y-154735D01*
X-548041Y-155018D01*
X-548039Y-155018D01*
X-548038Y-155019D01*
X-547545Y-155116D01*
X-547050Y-155215D01*
X-525266D01*
X-524275Y-155018D01*
X-523435Y-154456D01*
X-522228Y-153249D01*
X-521666Y-152409D01*
X-521469Y-151418D01*
X-521469Y-104987D01*
X-521666Y-103996D01*
X-522228Y-103156D01*
X-523729Y-101655D01*
X-524569Y-101094D01*
X-525560Y-100896D01*
X-570080Y-100897D01*
X-571071Y-101094D01*
X-571912Y-101655D01*
X-572807Y-102551D01*
X-573369Y-103391D01*
X-573566Y-104382D01*
Y-122143D01*
X-574186Y-122766D01*
X-606529Y-122943D01*
X-607018Y-123043D01*
X-607513Y-123143D01*
X-607515Y-123145D01*
X-607519Y-123145D01*
X-607937Y-123428D01*
X-608351Y-123706D01*
X-609371Y-124732D01*
X-609645Y-125144D01*
X-609922Y-125554D01*
X-609924Y-125564D01*
X-609930Y-125573D01*
X-610025Y-126058D01*
X-610124Y-126544D01*
X-610800Y-251510D01*
X-610798Y-251517D01*
X-610800Y-251524D01*
X-610702Y-252013D01*
X-610608Y-252502D01*
X-610604Y-252508D01*
X-610603Y-252515D01*
X-610325Y-252930D01*
X-610051Y-253345D01*
X-610045Y-253349D01*
X-610041Y-253355D01*
X-572492Y-290904D01*
Y-314804D01*
X-572295Y-315795D01*
X-571734Y-316636D01*
X-571734Y-316636D01*
X-570371Y-317998D01*
X-569531Y-318560D01*
X-568540Y-318757D01*
X-547488D01*
X-546497Y-318560D01*
X-546497Y-318560D01*
X-546497Y-318560D01*
X-546075Y-318278D01*
X-545657Y-317998D01*
X-544169Y-316511D01*
X-544169Y-316511D01*
X-544169Y-316510D01*
X-543890Y-316093D01*
X-543607Y-315670D01*
X-543607Y-315670D01*
X-543607Y-315670D01*
X-543410Y-314679D01*
X-543410Y-298645D01*
X-543607Y-297654D01*
X-544169Y-296814D01*
X-549433Y-291550D01*
X-549250Y-290880D01*
X-548865Y-290321D01*
X-425151D01*
X-424160Y-290124D01*
X-423320Y-289563D01*
X-308063Y-174307D01*
X-273930D01*
X-273808Y-174361D01*
X-273515Y-174369D01*
X-273243Y-175737D01*
X-272240Y-177237D01*
X-271949Y-177432D01*
Y-178702D01*
X-272240Y-178897D01*
X-273243Y-180397D01*
X-273595Y-182167D01*
Y-186667D01*
X-273243Y-188437D01*
X-272240Y-189937D01*
X-271949Y-190132D01*
Y-191402D01*
X-272240Y-191597D01*
X-273243Y-193097D01*
X-273519Y-194487D01*
X-273808Y-194494D01*
X-273930Y-194549D01*
X-275402D01*
X-276393Y-194746D01*
X-277234Y-195307D01*
X-288232Y-206306D01*
X-288794Y-207146D01*
X-288991Y-208137D01*
Y-254987D01*
X-288794Y-255978D01*
X-288232Y-256819D01*
X-274781Y-270270D01*
X-273941Y-270831D01*
X-272950Y-271028D01*
X-243015D01*
X-226030Y-288014D01*
X-225190Y-288575D01*
X-224199Y-288772D01*
X-53185D01*
X-52194Y-288575D01*
X-51354Y-288014D01*
X-22141Y-258801D01*
X-21580Y-257961D01*
X-21383Y-256970D01*
Y1640D01*
X-21580Y2631D01*
X-22141Y3471D01*
X-33768Y15097D01*
X-34608Y15659D01*
X-35599Y15856D01*
X-60225D01*
X-60751Y17126D01*
X-60066Y17811D01*
X-59489Y19203D01*
Y20709D01*
X-60066Y22101D01*
X-61131Y23166D01*
X-62522Y23742D01*
X-64028D01*
X-65353Y23193D01*
X-125883D01*
X-127122Y22947D01*
X-128172Y22245D01*
X-139305Y11112D01*
X-146554D01*
X-147879Y11661D01*
X-149385D01*
X-150777Y11085D01*
X-151842Y10020D01*
X-152418Y8628D01*
Y7122D01*
X-151842Y5730D01*
X-150777Y4665D01*
X-149385Y4089D01*
X-147879D01*
X-146554Y4638D01*
X-137964D01*
X-136725Y4884D01*
X-135675Y5586D01*
X-124788Y16473D01*
X-124109Y16375D01*
X-123793Y15292D01*
X-123787Y15046D01*
X-145641Y-6807D01*
X-171337D01*
X-172328Y-7004D01*
X-172445Y-7082D01*
X-185372D01*
X-186257Y-7259D01*
X-187008Y-7760D01*
X-189914Y-10667D01*
X-190054Y-10722D01*
X-190168Y-10832D01*
X-191031Y-10660D01*
X-195081D01*
X-196763Y-10995D01*
X-198188Y-11948D01*
X-199141Y-13374D01*
X-199476Y-15056D01*
Y-20006D01*
X-199141Y-21688D01*
X-198188Y-23114D01*
X-197120Y-23828D01*
X-197065Y-24007D01*
Y-25060D01*
X-197120Y-25239D01*
X-198188Y-25954D01*
X-199141Y-27380D01*
X-199476Y-29062D01*
Y-34012D01*
X-199141Y-35694D01*
X-198188Y-37120D01*
X-197117Y-37836D01*
X-197061Y-38021D01*
Y-39062D01*
X-197117Y-39247D01*
X-198188Y-39963D01*
X-199057Y-41262D01*
X-199442Y-41480D01*
X-200357Y-41758D01*
X-205580Y-36535D01*
Y12319D01*
X-205525Y12447D01*
X-205522Y12679D01*
X-205514Y12856D01*
X-205495Y13055D01*
X-204960Y13591D01*
X-204383Y14982D01*
Y16488D01*
X-204960Y17880D01*
X-206025Y18945D01*
X-207416Y19521D01*
X-208923D01*
X-210314Y18945D01*
X-211379Y17880D01*
X-211955Y16488D01*
Y14982D01*
X-211379Y13591D01*
X-210848Y13059D01*
X-210817Y12656D01*
X-210814Y12447D01*
X-210759Y12319D01*
Y-37608D01*
X-210562Y-38599D01*
X-210001Y-39439D01*
X-202063Y-47377D01*
X-201223Y-47938D01*
X-200232Y-48135D01*
X-199812D01*
X-199690Y-48190D01*
X-199441Y-48196D01*
X-199141Y-49703D01*
X-198188Y-51129D01*
X-197120Y-51843D01*
X-197065Y-52022D01*
Y-53075D01*
X-197120Y-53254D01*
X-198188Y-53969D01*
X-199141Y-55395D01*
X-199346Y-56421D01*
X-199689Y-56430D01*
X-199811Y-56485D01*
X-211283D01*
X-215427Y-52340D01*
Y-45678D01*
X-215375Y-45567D01*
X-215384Y-45540D01*
X-215373Y-45513D01*
X-215370Y-45294D01*
X-215347Y-44945D01*
X-214706Y-44304D01*
X-214130Y-42912D01*
Y-41406D01*
X-214706Y-40015D01*
X-214879Y-39842D01*
X-214905Y-39401D01*
X-214907Y-39180D01*
X-214962Y-39051D01*
Y10701D01*
X-215159Y11692D01*
X-215720Y12532D01*
X-235749Y32560D01*
X-236589Y33122D01*
X-237580Y33319D01*
D02*
G37*
G36*
X-491057Y-64710D02*
X-494557D01*
X-496131Y-65023D01*
X-497466Y-65915D01*
X-498358Y-67250D01*
X-498672Y-68825D01*
Y-75325D01*
X-498358Y-76900D01*
X-497466Y-78235D01*
X-496131Y-79127D01*
X-494557Y-79440D01*
X-491057D01*
X-489482Y-79127D01*
X-488147Y-78235D01*
X-487255Y-76900D01*
X-486941Y-75325D01*
Y-74725D01*
X-486728Y-74719D01*
X-486605Y-74665D01*
X-484569D01*
X-484447Y-74719D01*
X-484188Y-74726D01*
Y-78361D01*
X-471616D01*
Y-65789D01*
X-484188D01*
Y-69424D01*
X-484447Y-69431D01*
X-484569Y-69485D01*
X-486605D01*
X-486728Y-69431D01*
X-486941Y-69425D01*
Y-68825D01*
X-487255Y-67250D01*
X-488147Y-65915D01*
X-489482Y-65023D01*
X-491057Y-64710D01*
D02*
G37*
G36*
X1155Y-67430D02*
X-1155D01*
X-3385Y-68028D01*
X-5385Y-69182D01*
X-7018Y-70815D01*
X-8172Y-72815D01*
X-8770Y-75045D01*
Y-77355D01*
X-8172Y-79585D01*
X-7018Y-81585D01*
X-5385Y-83218D01*
X-3385Y-84372D01*
X-1155Y-84970D01*
X1155D01*
X3385Y-84372D01*
X5385Y-83218D01*
X7018Y-81585D01*
X8172Y-79585D01*
X8770Y-77355D01*
Y-75045D01*
X8172Y-72815D01*
X7018Y-70815D01*
X5385Y-69182D01*
X3385Y-68028D01*
X1155Y-67430D01*
D02*
G37*
G36*
X-491057Y-81355D02*
X-494557D01*
X-496131Y-81669D01*
X-497466Y-82561D01*
X-498358Y-83896D01*
X-498672Y-85470D01*
Y-91970D01*
X-498358Y-93545D01*
X-497466Y-94880D01*
X-496131Y-95772D01*
X-494557Y-96085D01*
X-491057D01*
X-489482Y-95772D01*
X-488147Y-94880D01*
X-487255Y-93545D01*
X-486941Y-91970D01*
Y-91370D01*
X-486728Y-91364D01*
X-486605Y-91310D01*
X-484569D01*
X-484447Y-91364D01*
X-484188Y-91371D01*
Y-95006D01*
X-471616D01*
Y-82434D01*
X-484188D01*
Y-86069D01*
X-484447Y-86076D01*
X-484569Y-86131D01*
X-486605D01*
X-486728Y-86076D01*
X-486941Y-86071D01*
Y-85470D01*
X-487255Y-83896D01*
X-488147Y-82561D01*
X-489482Y-81669D01*
X-491057Y-81355D01*
D02*
G37*
G36*
X1155Y-92830D02*
X-1155D01*
X-3385Y-93428D01*
X-5385Y-94582D01*
X-7018Y-96215D01*
X-8172Y-98215D01*
X-8770Y-100445D01*
Y-102755D01*
X-8172Y-104985D01*
X-7018Y-106985D01*
X-5385Y-108618D01*
X-3385Y-109772D01*
X-1155Y-110370D01*
X1155D01*
X3385Y-109772D01*
X5385Y-108618D01*
X7018Y-106985D01*
X8172Y-104985D01*
X8770Y-102755D01*
Y-100445D01*
X8172Y-98215D01*
X7018Y-96215D01*
X5385Y-94582D01*
X3385Y-93428D01*
X1155Y-92830D01*
D02*
G37*
G36*
X-491057Y-98001D02*
X-494557D01*
X-496131Y-98314D01*
X-497466Y-99206D01*
X-498358Y-100541D01*
X-498672Y-102116D01*
Y-108616D01*
X-498358Y-110191D01*
X-497466Y-111526D01*
X-496131Y-112418D01*
X-494557Y-112731D01*
X-491057D01*
X-489482Y-112418D01*
X-488147Y-111526D01*
X-487255Y-110191D01*
X-486941Y-108616D01*
Y-108016D01*
X-486728Y-108010D01*
X-486605Y-107956D01*
X-484569D01*
X-484447Y-108010D01*
X-484188Y-108017D01*
Y-111652D01*
X-471616D01*
Y-99080D01*
X-484188D01*
Y-102715D01*
X-484447Y-102722D01*
X-484569Y-102776D01*
X-486605D01*
X-486728Y-102722D01*
X-486941Y-102716D01*
Y-102116D01*
X-487255Y-100541D01*
X-488147Y-99206D01*
X-489482Y-98314D01*
X-491057Y-98001D01*
D02*
G37*
G36*
X-582657Y-106033D02*
X-584444D01*
X-586169Y-106495D01*
X-587717Y-107389D01*
X-588980Y-108652D01*
X-589874Y-110200D01*
X-590336Y-111926D01*
Y-113712D01*
X-589874Y-115438D01*
X-588980Y-116986D01*
X-587717Y-118249D01*
X-586169Y-119143D01*
X-584444Y-119605D01*
X-582657D01*
X-580931Y-119143D01*
X-579383Y-118249D01*
X-578120Y-116986D01*
X-577226Y-115438D01*
X-576764Y-113712D01*
Y-111926D01*
X-577226Y-110200D01*
X-578120Y-108652D01*
X-579383Y-107389D01*
X-580931Y-106495D01*
X-582657Y-106033D01*
D02*
G37*
G36*
X-491057Y-114646D02*
X-494557D01*
X-496131Y-114959D01*
X-497466Y-115852D01*
X-498358Y-117187D01*
X-498672Y-118761D01*
Y-125261D01*
X-498358Y-126836D01*
X-497466Y-128171D01*
X-496131Y-129063D01*
X-494557Y-129376D01*
X-491057D01*
X-489482Y-129063D01*
X-488147Y-128171D01*
X-487255Y-126836D01*
X-486941Y-125261D01*
Y-124661D01*
X-486728Y-124656D01*
X-486605Y-124601D01*
X-484569D01*
X-484447Y-124656D01*
X-484188Y-124662D01*
Y-128297D01*
X-471616D01*
Y-115725D01*
X-484188D01*
Y-119360D01*
X-484447Y-119367D01*
X-484569Y-119422D01*
X-486605D01*
X-486728Y-119367D01*
X-486941Y-119362D01*
Y-118761D01*
X-487255Y-117187D01*
X-488147Y-115852D01*
X-489482Y-114959D01*
X-491057Y-114646D01*
D02*
G37*
G36*
X1155Y-118230D02*
X-1155D01*
X-3385Y-118828D01*
X-5385Y-119982D01*
X-7018Y-121615D01*
X-8172Y-123615D01*
X-8770Y-125845D01*
Y-128155D01*
X-8172Y-130385D01*
X-7018Y-132385D01*
X-5385Y-134018D01*
X-3385Y-135172D01*
X-1155Y-135770D01*
X1155D01*
X3385Y-135172D01*
X5385Y-134018D01*
X7018Y-132385D01*
X8172Y-130385D01*
X8770Y-128155D01*
Y-125845D01*
X8172Y-123615D01*
X7018Y-121615D01*
X5385Y-119982D01*
X3385Y-118828D01*
X1155Y-118230D01*
D02*
G37*
G36*
X-312471Y13947D02*
X-313977D01*
X-315369Y13371D01*
X-316434Y12306D01*
X-316732Y11586D01*
X-333025Y-4707D01*
X-333727Y-5757D01*
X-333973Y-6996D01*
Y-51741D01*
X-360980Y-78748D01*
X-378454D01*
X-379693Y-78994D01*
X-380743Y-79696D01*
X-397272Y-96225D01*
X-397974Y-97275D01*
X-398220Y-98514D01*
Y-148537D01*
X-405484Y-155801D01*
X-414037D01*
X-414197Y-154997D01*
X-415200Y-153497D01*
X-416700Y-152494D01*
X-418470Y-152142D01*
X-438970D01*
X-440740Y-152494D01*
X-442240Y-153497D01*
X-443243Y-154997D01*
X-443595Y-156767D01*
Y-161267D01*
X-443243Y-163037D01*
X-442240Y-164537D01*
X-440740Y-165540D01*
X-438970Y-165892D01*
X-418470D01*
X-416700Y-165540D01*
X-415200Y-164537D01*
X-414197Y-163037D01*
X-414046Y-162276D01*
X-404143D01*
X-402904Y-162029D01*
X-401854Y-161327D01*
X-392694Y-152167D01*
X-391992Y-151117D01*
X-391746Y-149878D01*
Y-99855D01*
X-377113Y-85223D01*
X-359639D01*
X-358400Y-84976D01*
X-357350Y-84274D01*
X-328447Y-55371D01*
X-327745Y-54321D01*
X-327499Y-53082D01*
Y-8337D01*
X-312787Y6375D01*
X-312471D01*
X-311080Y6951D01*
X-310014Y8016D01*
X-309438Y9408D01*
Y10914D01*
X-310014Y12306D01*
X-311080Y13371D01*
X-312471Y13947D01*
D02*
G37*
G36*
X1155Y-143630D02*
X-1155D01*
X-3385Y-144228D01*
X-5385Y-145382D01*
X-7018Y-147015D01*
X-8172Y-149015D01*
X-8770Y-151245D01*
Y-153555D01*
X-8172Y-155785D01*
X-7018Y-157785D01*
X-5385Y-159418D01*
X-3385Y-160572D01*
X-1155Y-161170D01*
X1155D01*
X3385Y-160572D01*
X5385Y-159418D01*
X7018Y-157785D01*
X8172Y-155785D01*
X8770Y-153555D01*
Y-151245D01*
X8172Y-149015D01*
X7018Y-147015D01*
X5385Y-145382D01*
X3385Y-144228D01*
X1155Y-143630D01*
D02*
G37*
G36*
X-582657Y-150033D02*
X-584444D01*
X-586169Y-150495D01*
X-587717Y-151389D01*
X-588980Y-152652D01*
X-589874Y-154200D01*
X-590336Y-155926D01*
Y-157712D01*
X-589874Y-159438D01*
X-588980Y-160986D01*
X-587717Y-162249D01*
X-586169Y-163143D01*
X-584444Y-163605D01*
X-582657D01*
X-580931Y-163143D01*
X-579383Y-162249D01*
X-578120Y-160986D01*
X-577226Y-159438D01*
X-576764Y-157712D01*
Y-155926D01*
X-577226Y-154200D01*
X-578120Y-152652D01*
X-579383Y-151389D01*
X-580931Y-150495D01*
X-582657Y-150033D01*
D02*
G37*
G36*
X1155Y-169030D02*
X-1155D01*
X-3385Y-169628D01*
X-5385Y-170782D01*
X-7018Y-172415D01*
X-8172Y-174415D01*
X-8770Y-176645D01*
Y-178955D01*
X-8172Y-181185D01*
X-7018Y-183185D01*
X-5385Y-184818D01*
X-3385Y-185972D01*
X-1155Y-186570D01*
X1155D01*
X3385Y-185972D01*
X5385Y-184818D01*
X7018Y-183185D01*
X8172Y-181185D01*
X8770Y-178955D01*
Y-176645D01*
X8172Y-174415D01*
X7018Y-172415D01*
X5385Y-170782D01*
X3385Y-169628D01*
X1155Y-169030D01*
D02*
G37*
G36*
Y-194430D02*
X-1155D01*
X-3385Y-195028D01*
X-5385Y-196182D01*
X-7018Y-197815D01*
X-8172Y-199815D01*
X-8770Y-202045D01*
Y-204355D01*
X-8172Y-206585D01*
X-7018Y-208585D01*
X-5385Y-210218D01*
X-3385Y-211372D01*
X-1155Y-211970D01*
X1155D01*
X3385Y-211372D01*
X5385Y-210218D01*
X7018Y-208585D01*
X8172Y-206585D01*
X8770Y-204355D01*
Y-202045D01*
X8172Y-199815D01*
X7018Y-197815D01*
X5385Y-196182D01*
X3385Y-195028D01*
X1155Y-194430D01*
D02*
G37*
G36*
Y-219830D02*
X-1155D01*
X-3385Y-220428D01*
X-5385Y-221582D01*
X-7018Y-223215D01*
X-8172Y-225215D01*
X-8770Y-227445D01*
Y-229755D01*
X-8172Y-231985D01*
X-7018Y-233985D01*
X-5385Y-235618D01*
X-3385Y-236772D01*
X-1155Y-237370D01*
X1155D01*
X3385Y-236772D01*
X5385Y-235618D01*
X7018Y-233985D01*
X8172Y-231985D01*
X8770Y-229755D01*
Y-227445D01*
X8172Y-225215D01*
X7018Y-223215D01*
X5385Y-221582D01*
X3385Y-220428D01*
X1155Y-219830D01*
D02*
G37*
G36*
X-471518Y-205508D02*
X-473024D01*
X-474415Y-206084D01*
X-474947Y-206616D01*
X-475350Y-206647D01*
X-475559Y-206649D01*
X-475687Y-206704D01*
X-517473D01*
X-518464Y-206901D01*
X-519304Y-207463D01*
X-527117Y-215276D01*
X-527679Y-216116D01*
X-527876Y-217107D01*
Y-217344D01*
X-527930Y-217467D01*
X-527940Y-217858D01*
X-528611Y-217991D01*
X-529946Y-218883D01*
X-530838Y-220218D01*
X-531151Y-221793D01*
Y-228293D01*
X-530838Y-229868D01*
X-529946Y-231203D01*
X-528611Y-232095D01*
X-527036Y-232408D01*
X-523536D01*
X-522911Y-232284D01*
X-522286Y-233454D01*
X-523351Y-234519D01*
X-523472Y-234564D01*
X-523996Y-235051D01*
X-531292D01*
Y-249623D01*
X-520220D01*
Y-238808D01*
X-519752Y-238322D01*
X-519701Y-238195D01*
X-505042Y-223535D01*
X-504958Y-223512D01*
X-504917Y-223441D01*
X-504840Y-223411D01*
X-504686Y-223261D01*
X-504467Y-223071D01*
X-503358D01*
X-501967Y-222494D01*
X-500901Y-221429D01*
X-500325Y-220038D01*
Y-218929D01*
X-500134Y-218710D01*
X-499985Y-218556D01*
X-499955Y-218479D01*
X-499883Y-218438D01*
X-499861Y-218354D01*
X-498735Y-217228D01*
X-496461D01*
X-496075Y-218498D01*
X-496652Y-218883D01*
X-497544Y-220218D01*
X-497857Y-221793D01*
Y-228293D01*
X-497544Y-229868D01*
X-496652Y-231203D01*
X-495877Y-231721D01*
Y-235033D01*
X-497528D01*
Y-249605D01*
X-486456D01*
Y-235033D01*
X-488107D01*
Y-231721D01*
X-487332Y-231203D01*
X-486440Y-229868D01*
X-486127Y-228293D01*
Y-221793D01*
X-486440Y-220218D01*
X-487332Y-218883D01*
X-487909Y-218498D01*
X-487523Y-217228D01*
X-479609D01*
X-478597Y-218323D01*
X-478652Y-218883D01*
X-479544Y-220218D01*
X-479857Y-221793D01*
Y-228293D01*
X-479544Y-229868D01*
X-478652Y-231203D01*
X-477317Y-232095D01*
X-475742Y-232408D01*
X-472242D01*
X-470667Y-232095D01*
X-469332Y-231203D01*
X-468680Y-230226D01*
X-467410Y-230611D01*
Y-235025D01*
X-468676Y-235033D01*
Y-235033D01*
X-479748D01*
Y-249605D01*
X-468676D01*
Y-244316D01*
X-468429Y-244150D01*
X-462989Y-238710D01*
X-462427Y-237870D01*
X-462230Y-236879D01*
Y-216271D01*
X-462427Y-215280D01*
X-462989Y-214440D01*
X-467984Y-209445D01*
X-468036Y-209315D01*
X-468201Y-209147D01*
X-468466Y-208860D01*
X-468485Y-208838D01*
Y-208541D01*
X-469061Y-207149D01*
X-470126Y-206084D01*
X-471518Y-205508D01*
D02*
G37*
G36*
X-541536Y-217678D02*
X-545036D01*
X-546611Y-217991D01*
X-547946Y-218883D01*
X-548838Y-220218D01*
X-549151Y-221793D01*
Y-228293D01*
X-548838Y-229868D01*
X-547946Y-231203D01*
X-547421Y-231554D01*
Y-235051D01*
X-549072D01*
Y-249623D01*
X-538000D01*
Y-235051D01*
X-539651D01*
Y-231888D01*
X-538626Y-231203D01*
X-537734Y-229868D01*
X-537421Y-228293D01*
Y-221793D01*
X-537734Y-220218D01*
X-538626Y-218883D01*
X-539961Y-217991D01*
X-541536Y-217678D01*
D02*
G37*
%LPD*%
G36*
X-481841Y-57969D02*
X-481866Y-57728D01*
X-481944Y-57512D01*
X-482072Y-57322D01*
X-482252Y-57157D01*
X-482483Y-57017D01*
X-482766Y-56902D01*
X-483100Y-56814D01*
X-483486Y-56750D01*
X-483923Y-56712D01*
X-484411Y-56699D01*
Y-54159D01*
X-483923Y-54147D01*
X-483486Y-54109D01*
X-483100Y-54045D01*
X-482766Y-53956D01*
X-482483Y-53842D01*
X-482252Y-53702D01*
X-482072Y-53537D01*
X-481944Y-53347D01*
X-481866Y-53131D01*
X-481841Y-52889D01*
Y-57969D01*
D02*
G37*
G36*
X-489308Y-53131D02*
X-489231Y-53347D01*
X-489103Y-53537D01*
X-488923Y-53702D01*
X-488691Y-53842D01*
X-488409Y-53956D01*
X-488074Y-54045D01*
X-487689Y-54109D01*
X-487252Y-54147D01*
X-486763Y-54159D01*
Y-56699D01*
X-487252Y-56712D01*
X-487689Y-56750D01*
X-488074Y-56814D01*
X-488409Y-56902D01*
X-488691Y-57017D01*
X-488923Y-57157D01*
X-489103Y-57322D01*
X-489231Y-57512D01*
X-489308Y-57728D01*
X-489334Y-57969D01*
Y-52889D01*
X-489308Y-53131D01*
D02*
G37*
G36*
X-206632Y14029D02*
X-206688Y13934D01*
X-206738Y13820D01*
X-206781Y13686D01*
X-206817Y13532D01*
X-206847Y13358D01*
X-206886Y12951D01*
X-206896Y12718D01*
X-206899Y12465D01*
X-209439D01*
X-209443Y12718D01*
X-209492Y13358D01*
X-209522Y13532D01*
X-209558Y13686D01*
X-209601Y13820D01*
X-209650Y13934D01*
X-209706Y14029D01*
X-209769Y14103D01*
X-206570D01*
X-206632Y14029D01*
D02*
G37*
G36*
X-411527Y4149D02*
X-411624Y4140D01*
X-411731Y4113D01*
X-411847Y4067D01*
X-411972Y4003D01*
X-412106Y3920D01*
X-412250Y3818D01*
X-412566Y3558D01*
X-412738Y3400D01*
X-412919Y3223D01*
X-414715Y5019D01*
X-414539Y5200D01*
X-414121Y5688D01*
X-414019Y5832D01*
X-413935Y5967D01*
X-413871Y6092D01*
X-413825Y6207D01*
X-413798Y6314D01*
X-413789Y6411D01*
X-411527Y4149D01*
D02*
G37*
G36*
X-304557Y-618D02*
X-305541Y-1631D01*
X-306920Y1256D01*
X-306821Y1232D01*
X-306712Y1231D01*
X-306595Y1251D01*
X-306469Y1294D01*
X-306333Y1359D01*
X-306188Y1446D01*
X-306034Y1555D01*
X-305871Y1685D01*
X-305518Y2013D01*
X-304557Y-618D01*
D02*
G37*
G36*
X-109690Y-3297D02*
X-109716Y-3056D01*
X-109794Y-2842D01*
X-109923Y-2652D01*
X-110104Y-2488D01*
X-110336Y-2349D01*
X-110620Y-2235D01*
X-110956Y-2146D01*
X-111343Y-2083D01*
X-111782Y-2045D01*
X-112273Y-2033D01*
Y507D01*
X-111782Y520D01*
X-111343Y558D01*
X-110956Y621D01*
X-110620Y710D01*
X-110336Y823D01*
X-110104Y962D01*
X-109923Y1127D01*
X-109794Y1316D01*
X-109716Y1531D01*
X-109690Y1771D01*
Y-3297D01*
D02*
G37*
G36*
X-295585Y-8365D02*
X-295549Y-8415D01*
X-295495Y-8481D01*
X-295223Y-8783D01*
X-294600Y-9420D01*
X-295672Y-11939D01*
X-295853Y-11764D01*
X-296189Y-11479D01*
X-296344Y-11370D01*
X-296489Y-11282D01*
X-296626Y-11215D01*
X-296754Y-11171D01*
X-296872Y-11148D01*
X-296982Y-11146D01*
X-297083Y-11167D01*
X-295601Y-8332D01*
X-295585Y-8365D01*
D02*
G37*
G36*
X-114840Y-11067D02*
X-114896Y-11161D01*
X-114946Y-11276D01*
X-114988Y-11410D01*
X-115025Y-11564D01*
X-115054Y-11737D01*
X-115094Y-12145D01*
X-115104Y-12378D01*
X-115107Y-12631D01*
X-117647D01*
X-117650Y-12378D01*
X-117700Y-11737D01*
X-117730Y-11564D01*
X-117766Y-11410D01*
X-117809Y-11276D01*
X-117858Y-11161D01*
X-117914Y-11067D01*
X-117977Y-10992D01*
X-114778D01*
X-114840Y-11067D01*
D02*
G37*
G36*
X-187685Y-13125D02*
X-188065Y-13518D01*
X-188660Y-14225D01*
X-188876Y-14537D01*
X-189038Y-14823D01*
X-189145Y-15082D01*
X-189197Y-15315D01*
X-189195Y-15520D01*
X-189139Y-15699D01*
X-189027Y-15851D01*
X-191825Y-13053D01*
X-191674Y-13164D01*
X-191495Y-13220D01*
X-191289Y-13223D01*
X-191057Y-13170D01*
X-190798Y-13063D01*
X-190512Y-12902D01*
X-190199Y-12686D01*
X-189860Y-12415D01*
X-189493Y-12090D01*
X-189100Y-11711D01*
X-187685Y-13125D01*
D02*
G37*
G36*
X-386887Y-20163D02*
X-386850Y-20610D01*
X-386786Y-21004D01*
X-386698Y-21346D01*
X-386584Y-21635D01*
X-386445Y-21871D01*
X-386281Y-22055D01*
X-386091Y-22186D01*
X-385876Y-22265D01*
X-385636Y-22292D01*
X-390704D01*
X-390464Y-22265D01*
X-390249Y-22186D01*
X-390059Y-22055D01*
X-389895Y-21871D01*
X-389756Y-21635D01*
X-389642Y-21346D01*
X-389554Y-21004D01*
X-389491Y-20610D01*
X-389453Y-20163D01*
X-389440Y-19664D01*
X-386900D01*
X-386887Y-20163D01*
D02*
G37*
G36*
X-285616Y-20158D02*
X-285578Y-20599D01*
X-285514Y-20988D01*
X-285425Y-21324D01*
X-285311Y-21607D01*
X-285171Y-21838D01*
X-285006Y-22016D01*
X-284816Y-22141D01*
X-284600Y-22214D01*
X-284358Y-22234D01*
X-289433Y-22357D01*
X-289192Y-22324D01*
X-288977Y-22239D01*
X-288788Y-22102D01*
X-288624Y-21911D01*
X-288484Y-21668D01*
X-288371Y-21373D01*
X-288282Y-21024D01*
X-288219Y-20624D01*
X-288181Y-20170D01*
X-288168Y-19664D01*
X-285628D01*
X-285616Y-20158D01*
D02*
G37*
G36*
X-112309Y-3407D02*
X-112060Y-3413D01*
X-111760Y-4920D01*
X-110808Y-6346D01*
X-109382Y-7298D01*
X-107699Y-7633D01*
X-103649D01*
X-101967Y-7298D01*
X-100541Y-6346D01*
X-100361Y-6075D01*
X-98656Y-5810D01*
X-98414Y-6002D01*
Y-23404D01*
X-98656Y-23596D01*
X-100361Y-23331D01*
X-100541Y-23060D01*
X-101967Y-22107D01*
X-103649Y-21773D01*
X-107699D01*
X-108194Y-21871D01*
X-108220Y-21849D01*
X-108703Y-21382D01*
X-108831Y-21332D01*
X-113787Y-16376D01*
Y-12776D01*
X-113733Y-12649D01*
X-113730Y-12417D01*
X-113722Y-12240D01*
X-113703Y-12040D01*
X-113167Y-11505D01*
X-112591Y-10114D01*
Y-8608D01*
X-113167Y-7216D01*
X-114233Y-6151D01*
X-115624Y-5574D01*
X-117130D01*
X-118522Y-6151D01*
X-119587Y-7216D01*
X-120163Y-8608D01*
Y-10114D01*
X-119587Y-11505D01*
X-119056Y-12036D01*
X-119024Y-12440D01*
X-119022Y-12649D01*
X-118967Y-12776D01*
Y-17448D01*
X-118770Y-18440D01*
X-118208Y-19280D01*
X-112704Y-24783D01*
X-112832Y-25459D01*
X-112876Y-25534D01*
X-113314Y-26054D01*
X-130032D01*
X-131023Y-26251D01*
X-131863Y-26812D01*
X-135569Y-30518D01*
X-136131Y-31358D01*
X-136328Y-32349D01*
Y-33967D01*
X-136490Y-34075D01*
X-137111Y-35005D01*
X-137329Y-36102D01*
Y-41052D01*
X-137111Y-42149D01*
X-136490Y-43079D01*
X-135560Y-43700D01*
X-134463Y-43918D01*
X-133013D01*
X-131916Y-43700D01*
X-131343Y-43317D01*
X-131133Y-43314D01*
X-130232Y-43629D01*
X-129977Y-43815D01*
X-129861Y-44399D01*
X-129240Y-45329D01*
X-128310Y-45950D01*
X-127213Y-46168D01*
X-122263D01*
X-121166Y-45950D01*
X-120237Y-45329D01*
X-120128Y-45167D01*
X-112431D01*
X-112309Y-45221D01*
X-112060Y-45228D01*
X-111760Y-46736D01*
X-110808Y-48162D01*
X-109976Y-48717D01*
X-110361Y-49987D01*
X-120128D01*
X-120237Y-49825D01*
X-121166Y-49204D01*
X-122263Y-48986D01*
X-127213D01*
X-128310Y-49204D01*
X-129240Y-49825D01*
X-129861Y-50755D01*
X-130079Y-51852D01*
Y-53302D01*
X-129861Y-54399D01*
X-129408Y-55077D01*
X-129861Y-55755D01*
X-130079Y-56852D01*
Y-58302D01*
X-129861Y-59399D01*
X-129408Y-60077D01*
X-129861Y-60755D01*
X-130079Y-61852D01*
Y-63302D01*
X-129861Y-64399D01*
X-129408Y-65077D01*
X-129861Y-65755D01*
X-130079Y-66852D01*
Y-68302D01*
X-129861Y-69399D01*
X-129408Y-70077D01*
X-129861Y-70755D01*
X-130079Y-71852D01*
Y-73302D01*
X-129861Y-74399D01*
X-129408Y-75077D01*
X-129861Y-75755D01*
X-129977Y-76339D01*
X-130232Y-76525D01*
X-131133Y-76840D01*
X-131343Y-76837D01*
X-131916Y-76454D01*
X-133013Y-76236D01*
X-134463D01*
X-135560Y-76454D01*
X-136490Y-77075D01*
X-137111Y-78005D01*
X-137329Y-79102D01*
Y-84052D01*
X-137111Y-85149D01*
X-136490Y-86079D01*
X-135932Y-86451D01*
X-135876Y-86731D01*
X-135375Y-87482D01*
X-129277Y-93579D01*
X-129232Y-93707D01*
X-129206Y-93719D01*
X-129196Y-93746D01*
X-128739Y-94215D01*
X-128593Y-94382D01*
Y-96542D01*
X-128319Y-97922D01*
X-127537Y-99092D01*
X-126368Y-99873D01*
X-124988Y-100147D01*
X-122488D01*
X-122284Y-100107D01*
X-122200Y-100188D01*
X-122060Y-100244D01*
X-121289Y-101014D01*
Y-114784D01*
X-122689Y-116184D01*
X-122822Y-116233D01*
X-122935Y-116338D01*
X-138142D01*
Y-130418D01*
X-170593D01*
Y-126032D01*
X-170790Y-125041D01*
X-171352Y-124201D01*
X-172522Y-123031D01*
X-173362Y-122469D01*
X-174353Y-122272D01*
X-182335D01*
X-183326Y-122469D01*
X-184166Y-123031D01*
X-185037Y-123901D01*
X-185598Y-124741D01*
X-185795Y-125732D01*
X-186097Y-125773D01*
X-187065Y-125748D01*
X-187922Y-124466D01*
X-189348Y-123513D01*
X-190403Y-123303D01*
X-190411Y-122966D01*
X-190466Y-122843D01*
Y-118050D01*
X-159120Y-86704D01*
X-157946Y-87190D01*
Y-90091D01*
X-158000Y-90208D01*
X-158021Y-90735D01*
X-159156Y-91493D01*
X-159937Y-92662D01*
X-160212Y-94042D01*
Y-96542D01*
X-159937Y-97922D01*
X-159156Y-99091D01*
X-159576Y-100338D01*
X-160142D01*
Y-116410D01*
X-141571D01*
Y-100338D01*
X-148205D01*
X-148212Y-100078D01*
X-148267Y-99956D01*
Y-99792D01*
X-148464Y-98801D01*
X-149025Y-97961D01*
X-150015Y-96971D01*
X-150060Y-96849D01*
X-150501Y-96375D01*
Y-94042D01*
X-150776Y-92662D01*
X-151557Y-91493D01*
X-152696Y-90732D01*
X-152704Y-90638D01*
X-152712Y-90236D01*
X-152767Y-90111D01*
Y-86453D01*
X-151533Y-86074D01*
X-151490Y-86079D01*
X-150560Y-86700D01*
X-149463Y-86918D01*
X-148013D01*
X-146916Y-86700D01*
X-145986Y-86079D01*
X-145365Y-85149D01*
X-145147Y-84052D01*
Y-79102D01*
X-145365Y-78005D01*
X-145986Y-77075D01*
X-146916Y-76454D01*
X-148013Y-76236D01*
X-149463D01*
X-150560Y-76454D01*
X-151133Y-76837D01*
X-151343Y-76840D01*
X-152244Y-76525D01*
X-152499Y-76339D01*
X-152615Y-75755D01*
X-153068Y-75077D01*
X-152615Y-74399D01*
X-152397Y-73302D01*
Y-71852D01*
X-152615Y-70755D01*
X-153068Y-70077D01*
X-152615Y-69399D01*
X-152397Y-68302D01*
Y-66852D01*
X-152615Y-65755D01*
X-153068Y-65077D01*
X-152615Y-64399D01*
X-152397Y-63302D01*
Y-61852D01*
X-152615Y-60755D01*
X-153068Y-60077D01*
X-152615Y-59399D01*
X-152397Y-58302D01*
Y-56852D01*
X-152615Y-55755D01*
X-153068Y-55077D01*
X-152615Y-54399D01*
X-152397Y-53302D01*
Y-51852D01*
X-152615Y-50755D01*
X-153068Y-50077D01*
X-152615Y-49399D01*
X-152397Y-48302D01*
Y-46852D01*
X-152615Y-45755D01*
X-153068Y-45077D01*
X-152615Y-44399D01*
X-152499Y-43815D01*
X-152244Y-43629D01*
X-151343Y-43314D01*
X-151133Y-43317D01*
X-150560Y-43700D01*
X-149463Y-43918D01*
X-148013D01*
X-146916Y-43700D01*
X-145986Y-43079D01*
X-145365Y-42149D01*
X-145147Y-41052D01*
Y-36102D01*
X-145365Y-35005D01*
X-145986Y-34075D01*
X-146148Y-33967D01*
Y-25562D01*
X-123939Y-3352D01*
X-112431D01*
X-112309Y-3407D01*
D02*
G37*
G36*
X-177860Y-21206D02*
X-177784Y-21638D01*
X-177691Y-21916D01*
X-176667D01*
X-176899Y-21942D01*
X-177106Y-22021D01*
X-177288Y-22152D01*
X-177447Y-22335D01*
X-177465Y-22367D01*
X-177250Y-22629D01*
X-176971Y-22857D01*
X-176641Y-23035D01*
X-176260Y-23162D01*
X-175828Y-23238D01*
X-175345Y-23264D01*
Y-25804D01*
X-175828Y-25829D01*
X-176260Y-25905D01*
X-176641Y-26032D01*
X-176971Y-26210D01*
X-177250Y-26439D01*
X-177465Y-26701D01*
X-177447Y-26732D01*
X-177288Y-26916D01*
X-177106Y-27047D01*
X-176899Y-27125D01*
X-176667Y-27151D01*
X-177691D01*
X-177784Y-27429D01*
X-177860Y-27861D01*
X-177885Y-28344D01*
X-178680Y-27151D01*
X-181644D01*
X-181412Y-27125D01*
X-181205Y-27047D01*
X-181022Y-26916D01*
X-180864Y-26732D01*
X-180730Y-26497D01*
X-180620Y-26209D01*
X-180535Y-25869D01*
X-180474Y-25476D01*
X-180438Y-25031D01*
X-180425Y-24534D01*
X-180438Y-24037D01*
X-180474Y-23591D01*
X-180535Y-23199D01*
X-180620Y-22859D01*
X-180730Y-22571D01*
X-180864Y-22335D01*
X-181022Y-22152D01*
X-181205Y-22021D01*
X-181412Y-21942D01*
X-181644Y-21916D01*
X-178680D01*
X-177885Y-20724D01*
X-177860Y-21206D01*
D02*
G37*
G36*
X-109143Y-22869D02*
X-108218Y-23652D01*
X-107809Y-23938D01*
X-107435Y-24153D01*
X-107097Y-24297D01*
X-106794Y-24370D01*
X-106527Y-24372D01*
X-106295Y-24304D01*
X-106099Y-24165D01*
X-109690Y-27673D01*
Y-31177D01*
X-109716Y-30937D01*
X-109794Y-30722D01*
X-109923Y-30533D01*
X-110104Y-30368D01*
X-110336Y-30229D01*
X-110620Y-30115D01*
X-110956Y-30027D01*
X-111343Y-29964D01*
X-111782Y-29926D01*
X-112273Y-29913D01*
Y-27373D01*
X-111782Y-27361D01*
X-111343Y-27323D01*
X-110956Y-27260D01*
X-110620Y-27171D01*
X-110336Y-27057D01*
X-110104Y-26918D01*
X-109923Y-26754D01*
X-109794Y-26564D01*
X-109716Y-26349D01*
X-109715Y-26338D01*
X-109915Y-25989D01*
X-110200Y-25581D01*
X-110556Y-25136D01*
X-111483Y-24139D01*
X-109658Y-22371D01*
X-109143Y-22869D01*
D02*
G37*
G36*
X-86725Y2959D02*
Y-32620D01*
X-87750Y-33645D01*
X-95428D01*
X-95824Y-33249D01*
Y2551D01*
X-94638Y3737D01*
X-87502D01*
X-86725Y2959D01*
D02*
G37*
G36*
X-192050Y-32846D02*
X-192031Y-33069D01*
X-192001Y-33279D01*
X-191960Y-33477D01*
X-191906Y-33663D01*
X-191840Y-33836D01*
X-191762Y-33997D01*
X-191672Y-34145D01*
X-191570Y-34281D01*
X-191456Y-34405D01*
X-194655D01*
X-194541Y-34281D01*
X-194439Y-34145D01*
X-194349Y-33997D01*
X-194271Y-33836D01*
X-194205Y-33663D01*
X-194151Y-33477D01*
X-194109Y-33279D01*
X-194079Y-33069D01*
X-194062Y-32846D01*
X-194056Y-32611D01*
X-192055D01*
X-192050Y-32846D01*
D02*
G37*
G36*
X-427437Y-38152D02*
X-427399Y-38589D01*
X-427336Y-38975D01*
X-427247Y-39309D01*
X-427133Y-39592D01*
X-426993Y-39823D01*
X-426828Y-40003D01*
X-426637Y-40132D01*
X-426421Y-40209D01*
X-426180Y-40234D01*
X-431260D01*
X-431019Y-40209D01*
X-430803Y-40132D01*
X-430612Y-40003D01*
X-430447Y-39823D01*
X-430308Y-39592D01*
X-430193Y-39309D01*
X-430104Y-38975D01*
X-430041Y-38589D01*
X-430003Y-38152D01*
X-429990Y-37664D01*
X-427450D01*
X-427437Y-38152D01*
D02*
G37*
G36*
X-216282Y-39191D02*
X-216280Y-39448D01*
X-216230Y-40261D01*
X-216208Y-40412D01*
X-216181Y-40542D01*
X-216150Y-40650D01*
X-216116Y-40737D01*
X-216077Y-40803D01*
X-219235Y-40293D01*
X-219156Y-40225D01*
X-219086Y-40136D01*
X-219024Y-40026D01*
X-218970Y-39897D01*
X-218925Y-39747D01*
X-218888Y-39576D01*
X-218859Y-39385D01*
X-218838Y-39174D01*
X-218822Y-38691D01*
X-216282Y-39191D01*
D02*
G37*
G36*
X-109691Y-45111D02*
X-109716Y-44871D01*
X-109794Y-44656D01*
X-109923Y-44466D01*
X-110104Y-44302D01*
X-110336Y-44163D01*
X-110620Y-44049D01*
X-110956Y-43961D01*
X-111343Y-43898D01*
X-111782Y-43860D01*
X-112273Y-43847D01*
Y-41307D01*
X-111782Y-41294D01*
X-111343Y-41256D01*
X-110956Y-41193D01*
X-110620Y-41105D01*
X-110336Y-40991D01*
X-110103Y-40852D01*
X-109923Y-40688D01*
X-109793Y-40498D01*
X-109716Y-40283D01*
X-109690Y-40043D01*
X-109691Y-45111D01*
D02*
G37*
G36*
X-216390Y-43861D02*
X-216458Y-43934D01*
X-216519Y-44028D01*
X-216572Y-44142D01*
X-216619Y-44275D01*
X-216658Y-44429D01*
X-216690Y-44602D01*
X-216715Y-44795D01*
X-216744Y-45241D01*
X-216747Y-45494D01*
X-219287Y-45358D01*
X-219290Y-45104D01*
X-219335Y-44462D01*
X-219362Y-44289D01*
X-219395Y-44135D01*
X-219434Y-44001D01*
X-219479Y-43887D01*
X-219529Y-43793D01*
X-219586Y-43719D01*
X-216390Y-43861D01*
D02*
G37*
G36*
X-271141Y-47272D02*
X-271168Y-47032D01*
X-271247Y-46817D01*
X-271379Y-46628D01*
X-271563Y-46463D01*
X-271800Y-46324D01*
X-272090Y-46211D01*
X-272432Y-46122D01*
X-272826Y-46059D01*
X-273273Y-46021D01*
X-273773Y-46008D01*
Y-43468D01*
X-273274Y-43456D01*
X-272828Y-43418D01*
X-272434Y-43355D01*
X-272093Y-43266D01*
X-271805Y-43152D01*
X-271568Y-43013D01*
X-271385Y-42849D01*
X-271254Y-42659D01*
X-271176Y-42444D01*
X-271150Y-42204D01*
X-271141Y-47272D01*
D02*
G37*
G36*
X-197071Y-48080D02*
X-197097Y-47840D01*
X-197174Y-47625D01*
X-197304Y-47435D01*
X-197484Y-47271D01*
X-197717Y-47132D01*
X-198001Y-47018D01*
X-198337Y-46929D01*
X-198724Y-46866D01*
X-199163Y-46828D01*
X-199654Y-46816D01*
Y-44276D01*
X-199163Y-44263D01*
X-198724Y-44225D01*
X-198337Y-44162D01*
X-198001Y-44074D01*
X-197717Y-43960D01*
X-197484Y-43821D01*
X-197304Y-43656D01*
X-197174Y-43467D01*
X-197097Y-43252D01*
X-197071Y-43012D01*
Y-48080D01*
D02*
G37*
G36*
X-175106Y-43890D02*
X-175038Y-44068D01*
X-174922Y-44224D01*
X-174759Y-44360D01*
X-174548Y-44475D01*
X-174290Y-44569D01*
X-173984Y-44642D01*
X-173631Y-44694D01*
X-173231Y-44725D01*
X-172783Y-44736D01*
Y-47276D01*
X-173237Y-47286D01*
X-173644Y-47317D01*
X-174003Y-47369D01*
X-174315Y-47442D01*
X-174579Y-47535D01*
X-174795Y-47649D01*
X-174964Y-47784D01*
X-175086Y-47940D01*
X-175160Y-48116D01*
X-175186Y-48313D01*
X-175127Y-43692D01*
X-175106Y-43890D01*
D02*
G37*
G36*
X-297524Y-47200D02*
X-297765Y-47211D01*
X-297981Y-47277D01*
X-298172Y-47398D01*
X-298337Y-47573D01*
X-298477Y-47803D01*
X-298591Y-48087D01*
X-298680Y-48426D01*
X-298743Y-48819D01*
X-298781Y-49268D01*
X-298794Y-49770D01*
X-301334D01*
X-301347Y-49236D01*
X-301384Y-48757D01*
X-301447Y-48332D01*
X-301535Y-47962D01*
X-301647Y-47646D01*
X-301785Y-47385D01*
X-301948Y-47179D01*
X-302136Y-47027D01*
X-302349Y-46929D01*
X-302587Y-46887D01*
X-297524Y-47200D01*
D02*
G37*
G36*
X-69394Y-53893D02*
X-69805Y-54281D01*
X-70480Y-55026D01*
X-70744Y-55382D01*
X-70960Y-55729D01*
X-71128Y-56065D01*
X-71246Y-56391D01*
X-71316Y-56707D01*
X-71337Y-57012D01*
X-71309Y-57307D01*
X-72359Y-51447D01*
X-72284Y-51702D01*
X-72163Y-51882D01*
X-71996Y-51987D01*
X-71784Y-52017D01*
X-71526Y-51971D01*
X-71223Y-51851D01*
X-70874Y-51655D01*
X-70480Y-51383D01*
X-70040Y-51037D01*
X-69554Y-50615D01*
X-69394Y-53893D01*
D02*
G37*
G36*
X-457938Y-53250D02*
X-457866Y-53441D01*
X-457745Y-53610D01*
X-457575Y-53755D01*
X-457357Y-53879D01*
X-457091Y-53980D01*
X-456776Y-54058D01*
X-456412Y-54114D01*
X-456001Y-54148D01*
X-455540Y-54159D01*
Y-56699D01*
X-456001Y-56711D01*
X-456412Y-56744D01*
X-456776Y-56800D01*
X-457091Y-56879D01*
X-457357Y-56980D01*
X-457575Y-57103D01*
X-457745Y-57249D01*
X-457866Y-57417D01*
X-457938Y-57608D01*
X-457963Y-57821D01*
Y-53037D01*
X-457938Y-53250D01*
D02*
G37*
G36*
X-78255Y-58819D02*
X-78281Y-58577D01*
X-78358Y-58361D01*
X-78486Y-58171D01*
X-78666Y-58006D01*
X-78897Y-57866D01*
X-79180Y-57752D01*
X-79514Y-57663D01*
X-79900Y-57599D01*
X-80337Y-57561D01*
X-80825Y-57549D01*
Y-55009D01*
X-80337Y-54996D01*
X-79900Y-54958D01*
X-79514Y-54894D01*
X-79180Y-54805D01*
X-78897Y-54691D01*
X-78666Y-54551D01*
X-78486Y-54386D01*
X-78358Y-54196D01*
X-78281Y-53980D01*
X-78255Y-53739D01*
Y-58819D01*
D02*
G37*
G36*
X-441186Y-59747D02*
X-441210Y-59545D01*
X-441281Y-59365D01*
X-441401Y-59206D01*
X-441567Y-59068D01*
X-441782Y-58952D01*
X-442044Y-58857D01*
X-442354Y-58782D01*
X-442711Y-58729D01*
X-443116Y-58698D01*
X-443569Y-58687D01*
Y-56147D01*
X-443116Y-56136D01*
X-442711Y-56105D01*
X-442354Y-56052D01*
X-442044Y-55977D01*
X-441782Y-55882D01*
X-441567Y-55766D01*
X-441401Y-55628D01*
X-441281Y-55469D01*
X-441210Y-55289D01*
X-441186Y-55087D01*
Y-59747D01*
D02*
G37*
G36*
X-197084Y-61614D02*
X-197104Y-61373D01*
X-197178Y-61157D01*
X-197304Y-60967D01*
X-197482Y-60802D01*
X-197713Y-60662D01*
X-197996Y-60548D01*
X-198332Y-60459D01*
X-198720Y-60395D01*
X-199161Y-60357D01*
X-199654Y-60344D01*
Y-57804D01*
X-199150Y-57792D01*
X-198699Y-57754D01*
X-198300Y-57691D01*
X-197953Y-57602D01*
X-197659Y-57488D01*
X-197418Y-57349D01*
X-197229Y-57185D01*
X-197092Y-56995D01*
X-197008Y-56781D01*
X-196976Y-56540D01*
X-197084Y-61614D01*
D02*
G37*
G36*
X-229195Y-60403D02*
X-229145Y-61044D01*
X-229116Y-61217D01*
X-229079Y-61371D01*
X-229037Y-61505D01*
X-228987Y-61620D01*
X-228931Y-61714D01*
X-228869Y-61789D01*
X-232068D01*
X-232005Y-61714D01*
X-231949Y-61620D01*
X-231900Y-61505D01*
X-231857Y-61371D01*
X-231820Y-61217D01*
X-231791Y-61044D01*
X-231751Y-60636D01*
X-231741Y-60403D01*
X-231738Y-60150D01*
X-229198D01*
X-229195Y-60403D01*
D02*
G37*
G36*
X-175114Y-57258D02*
X-175036Y-57473D01*
X-174907Y-57662D01*
X-174726Y-57826D01*
X-174494Y-57966D01*
X-174210Y-58079D01*
X-173874Y-58168D01*
X-173487Y-58231D01*
X-173048Y-58269D01*
X-172557Y-58282D01*
Y-60822D01*
X-173048Y-60834D01*
X-173487Y-60872D01*
X-173874Y-60935D01*
X-174210Y-61024D01*
X-174494Y-61138D01*
X-174726Y-61277D01*
X-174907Y-61441D01*
X-175036Y-61631D01*
X-175114Y-61845D01*
X-175140Y-62086D01*
Y-57017D01*
X-175114Y-57258D01*
D02*
G37*
G36*
X-228793Y-64996D02*
X-228806Y-65071D01*
X-228795Y-65160D01*
X-228760Y-65262D01*
X-228702Y-65378D01*
X-228619Y-65507D01*
X-228513Y-65649D01*
X-228383Y-65805D01*
X-228051Y-66158D01*
X-230234Y-67567D01*
X-231736Y-65321D01*
X-228757Y-64934D01*
X-228793Y-64996D01*
D02*
G37*
G36*
X-86522Y-72778D02*
X-85681Y-73339D01*
X-84690Y-73536D01*
X-80005D01*
X-79882Y-73591D01*
X-79634Y-73597D01*
X-79334Y-75104D01*
X-78381Y-76530D01*
X-77166Y-77342D01*
X-77052Y-78018D01*
Y-78059D01*
X-77166Y-78735D01*
X-78381Y-79548D01*
X-79334Y-80974D01*
X-79668Y-82656D01*
Y-87606D01*
X-79334Y-89288D01*
X-78381Y-90714D01*
X-77166Y-91526D01*
X-77052Y-92202D01*
Y-92243D01*
X-77166Y-92920D01*
X-78381Y-93732D01*
X-79334Y-95157D01*
X-79668Y-96840D01*
Y-101790D01*
X-79647Y-101899D01*
X-80021Y-102331D01*
X-80572Y-102899D01*
X-80590Y-102944D01*
X-80633Y-102966D01*
X-80667Y-103071D01*
X-84234Y-106638D01*
X-96497D01*
X-97176Y-105368D01*
X-96678Y-104623D01*
X-96365Y-103049D01*
Y-96549D01*
X-96678Y-94974D01*
X-97570Y-93639D01*
X-98394Y-93088D01*
X-98509Y-93004D01*
X-98758Y-92185D01*
X-98753Y-92058D01*
X-98634Y-91517D01*
X-97570Y-90806D01*
X-96678Y-89471D01*
X-96365Y-87897D01*
Y-81397D01*
X-96678Y-79822D01*
X-97570Y-78487D01*
X-98097Y-78135D01*
Y-75488D01*
X-98196Y-74992D01*
Y-74735D01*
X-98294Y-74498D01*
X-98393Y-74002D01*
X-98674Y-73581D01*
X-98772Y-73344D01*
X-98954Y-73162D01*
X-99235Y-72741D01*
X-99655Y-72460D01*
X-99837Y-72279D01*
X-100075Y-72180D01*
X-100495Y-71899D01*
X-100991Y-71801D01*
X-101229Y-71702D01*
X-101486D01*
X-101982Y-71604D01*
X-102478Y-71702D01*
X-102735D01*
X-102972Y-71801D01*
X-103468Y-71899D01*
X-103889Y-72180D01*
X-104126Y-72279D01*
X-104308Y-72460D01*
X-104474Y-72571D01*
X-104869Y-72601D01*
X-105080Y-72603D01*
X-105209Y-72657D01*
X-107982D01*
X-113652Y-66988D01*
X-113166Y-65814D01*
X-111626D01*
X-109874Y-67566D01*
X-109612Y-67741D01*
X-108867Y-68487D01*
X-107475Y-69063D01*
X-105969D01*
X-104578Y-68487D01*
X-103512Y-67422D01*
X-102936Y-66030D01*
Y-64524D01*
X-103512Y-63132D01*
X-104578Y-62067D01*
X-105565Y-61659D01*
X-105700Y-61437D01*
X-104988Y-60167D01*
X-99133D01*
X-86522Y-72778D01*
D02*
G37*
G36*
X-172818Y-69016D02*
X-173396Y-69611D01*
X-174320Y-70677D01*
X-174666Y-71147D01*
X-174936Y-71575D01*
X-175128Y-71962D01*
X-175243Y-72307D01*
X-175282Y-72610D01*
X-175243Y-72871D01*
X-175127Y-73091D01*
X-178239Y-69079D01*
X-178065Y-69241D01*
X-177853Y-69329D01*
X-177602Y-69343D01*
X-177312Y-69283D01*
X-176984Y-69148D01*
X-176617Y-68940D01*
X-176211Y-68658D01*
X-175766Y-68302D01*
X-174761Y-67367D01*
X-172818Y-69016D01*
D02*
G37*
G36*
X-271145Y-72651D02*
X-271172Y-72411D01*
X-271251Y-72196D01*
X-271382Y-72006D01*
X-271566Y-71842D01*
X-271802Y-71703D01*
X-272091Y-71589D01*
X-272433Y-71501D01*
X-272827Y-71438D01*
X-273274Y-71400D01*
X-273773Y-71387D01*
Y-68847D01*
X-273274Y-68834D01*
X-272827Y-68796D01*
X-272433Y-68733D01*
X-272091Y-68645D01*
X-271802Y-68531D01*
X-271566Y-68392D01*
X-271382Y-68228D01*
X-271251Y-68038D01*
X-271172Y-67823D01*
X-271145Y-67583D01*
Y-72651D01*
D02*
G37*
G36*
X-441141Y-72672D02*
X-441168Y-72432D01*
X-441247Y-72217D01*
X-441379Y-72028D01*
X-441563Y-71863D01*
X-441800Y-71724D01*
X-442090Y-71611D01*
X-442432Y-71522D01*
X-442826Y-71459D01*
X-443273Y-71421D01*
X-443773Y-71408D01*
Y-68868D01*
X-443274Y-68856D01*
X-442828Y-68818D01*
X-442434Y-68755D01*
X-442093Y-68666D01*
X-441805Y-68552D01*
X-441568Y-68413D01*
X-441385Y-68249D01*
X-441254Y-68059D01*
X-441176Y-67844D01*
X-441150Y-67604D01*
X-441141Y-72672D01*
D02*
G37*
G36*
X-77264Y-73481D02*
X-77290Y-73240D01*
X-77367Y-73026D01*
X-77496Y-72836D01*
X-77677Y-72672D01*
X-77909Y-72533D01*
X-78194Y-72419D01*
X-78529Y-72330D01*
X-78917Y-72267D01*
X-79356Y-72229D01*
X-79847Y-72217D01*
Y-69677D01*
X-79356Y-69664D01*
X-78917Y-69626D01*
X-78529Y-69563D01*
X-78194Y-69474D01*
X-77909Y-69361D01*
X-77677Y-69222D01*
X-77496Y-69057D01*
X-77367Y-68868D01*
X-77290Y-68653D01*
X-77264Y-68413D01*
Y-73481D01*
D02*
G37*
G36*
X-457937Y-69776D02*
X-457860Y-69992D01*
X-457731Y-70182D01*
X-457551Y-70348D01*
X-457320Y-70487D01*
X-457037Y-70602D01*
X-456703Y-70690D01*
X-456318Y-70754D01*
X-455881Y-70792D01*
X-455392Y-70805D01*
Y-73345D01*
X-455881Y-73358D01*
X-456318Y-73396D01*
X-456703Y-73459D01*
X-457037Y-73548D01*
X-457320Y-73662D01*
X-457551Y-73802D01*
X-457731Y-73967D01*
X-457860Y-74158D01*
X-457937Y-74373D01*
X-457963Y-74615D01*
Y-69535D01*
X-457937Y-69776D01*
D02*
G37*
G36*
X-197071Y-76091D02*
X-197097Y-75851D01*
X-197174Y-75636D01*
X-197304Y-75447D01*
X-197484Y-75283D01*
X-197717Y-75143D01*
X-198001Y-75030D01*
X-198337Y-74941D01*
X-198724Y-74878D01*
X-199163Y-74840D01*
X-199654Y-74827D01*
Y-72287D01*
X-199163Y-72275D01*
X-198724Y-72237D01*
X-198337Y-72174D01*
X-198001Y-72085D01*
X-197717Y-71971D01*
X-197484Y-71832D01*
X-197304Y-71668D01*
X-197174Y-71478D01*
X-197097Y-71263D01*
X-197071Y-71023D01*
Y-76091D01*
D02*
G37*
G36*
X-103773Y-76907D02*
X-103845Y-76833D01*
X-103937Y-76767D01*
X-104048Y-76708D01*
X-104180Y-76658D01*
X-104332Y-76615D01*
X-104504Y-76580D01*
X-104696Y-76552D01*
X-105141Y-76521D01*
X-105393Y-76517D01*
X-105067Y-73977D01*
X-104812Y-73975D01*
X-103996Y-73914D01*
X-103843Y-73887D01*
X-103711Y-73854D01*
X-103599Y-73816D01*
X-103507Y-73773D01*
X-103436Y-73726D01*
X-103773Y-76907D01*
D02*
G37*
G36*
X-70954Y-75350D02*
X-71169Y-75430D01*
X-71359Y-75563D01*
X-71523Y-75750D01*
X-71662Y-75991D01*
X-71776Y-76285D01*
X-71864Y-76632D01*
X-71927Y-77033D01*
X-71965Y-77487D01*
X-71978Y-77995D01*
X-74518D01*
X-74531Y-77487D01*
X-74569Y-77033D01*
X-74632Y-76632D01*
X-74720Y-76285D01*
X-74834Y-75991D01*
X-74973Y-75750D01*
X-75137Y-75563D01*
X-75327Y-75430D01*
X-75542Y-75350D01*
X-75782Y-75323D01*
X-70714D01*
X-70954Y-75350D01*
D02*
G37*
G36*
X-71965Y-78590D02*
X-71927Y-79044D01*
X-71864Y-79445D01*
X-71776Y-79792D01*
X-71662Y-80086D01*
X-71523Y-80327D01*
X-71359Y-80514D01*
X-71169Y-80647D01*
X-70954Y-80728D01*
X-70714Y-80754D01*
X-75782D01*
X-75542Y-80728D01*
X-75327Y-80647D01*
X-75137Y-80514D01*
X-74973Y-80327D01*
X-74834Y-80086D01*
X-74720Y-79792D01*
X-74632Y-79445D01*
X-74569Y-79044D01*
X-74531Y-78590D01*
X-74518Y-78082D01*
X-71978D01*
X-71965Y-78590D01*
D02*
G37*
G36*
X-46134Y-51992D02*
X-46134Y-72346D01*
X-51829Y-78041D01*
X-62266D01*
X-63257Y-78238D01*
X-64097Y-78799D01*
X-65229Y-79931D01*
X-65791Y-80772D01*
X-65849Y-81065D01*
X-67144D01*
X-67162Y-80974D01*
X-68115Y-79548D01*
X-69330Y-78735D01*
X-69444Y-78059D01*
Y-78018D01*
X-69330Y-77342D01*
X-68115Y-76530D01*
X-67162Y-75104D01*
X-66828Y-73422D01*
Y-68472D01*
X-67162Y-66790D01*
X-68115Y-65364D01*
X-69541Y-64411D01*
X-70502Y-64220D01*
X-70770Y-62871D01*
X-70122Y-62438D01*
X-69230Y-61103D01*
X-68917Y-59529D01*
Y-55348D01*
X-68822Y-55244D01*
X-68450Y-54893D01*
X-68427Y-54841D01*
X-68376Y-54817D01*
X-68341Y-54721D01*
X-62897Y-49803D01*
X-62773Y-49764D01*
X-62773Y-49763D01*
X-62772Y-49763D01*
X-62606Y-49624D01*
X-48502D01*
X-46134Y-51992D01*
D02*
G37*
G36*
X-122449Y-78808D02*
X-122663Y-78886D01*
X-122851Y-79016D01*
X-123015Y-79197D01*
X-123153Y-79431D01*
X-123267Y-79716D01*
X-123355Y-80054D01*
X-123418Y-80443D01*
X-123455Y-80884D01*
X-123468Y-81377D01*
X-126008D01*
X-126021Y-80884D01*
X-126058Y-80443D01*
X-126121Y-80054D01*
X-126209Y-79716D01*
X-126323Y-79431D01*
X-126461Y-79197D01*
X-126625Y-79016D01*
X-126813Y-78886D01*
X-127027Y-78808D01*
X-127266Y-78782D01*
X-122210D01*
X-122449Y-78808D01*
D02*
G37*
G36*
X-156928Y-78807D02*
X-157169Y-78825D01*
X-157385Y-78896D01*
X-157576Y-79020D01*
X-157741Y-79197D01*
X-157881Y-79427D01*
X-157995Y-79711D01*
X-158084Y-80048D01*
X-158147Y-80438D01*
X-158185Y-80881D01*
X-158198Y-81377D01*
X-160738Y-80867D01*
X-160737Y-80440D01*
X-160619Y-78691D01*
X-160592Y-78681D01*
X-156928Y-78807D01*
D02*
G37*
G36*
X-172818Y-83022D02*
X-173396Y-83617D01*
X-174320Y-84683D01*
X-174666Y-85153D01*
X-174936Y-85581D01*
X-175128Y-85968D01*
X-175243Y-86312D01*
X-175282Y-86615D01*
X-175243Y-86877D01*
X-175127Y-87097D01*
X-178239Y-83085D01*
X-178065Y-83247D01*
X-177853Y-83335D01*
X-177602Y-83349D01*
X-177312Y-83288D01*
X-176984Y-83154D01*
X-176617Y-82946D01*
X-176211Y-82664D01*
X-175766Y-82307D01*
X-174761Y-81373D01*
X-172818Y-83022D01*
D02*
G37*
G36*
X-149866Y-84292D02*
X-149895Y-84092D01*
X-149972Y-83914D01*
X-150097Y-83756D01*
X-150271Y-83620D01*
X-150493Y-83504D01*
X-150764Y-83410D01*
X-151083Y-83336D01*
X-151450Y-83284D01*
X-151866Y-83252D01*
X-152330Y-83242D01*
Y-80702D01*
X-151877Y-80691D01*
X-151472Y-80659D01*
X-151116Y-80606D01*
X-150807Y-80532D01*
X-150547Y-80436D01*
X-150335Y-80319D01*
X-150171Y-80181D01*
X-150055Y-80022D01*
X-149987Y-79842D01*
X-149968Y-79640D01*
X-149866Y-84292D01*
D02*
G37*
G36*
X-271141Y-85372D02*
X-271168Y-85132D01*
X-271247Y-84917D01*
X-271379Y-84728D01*
X-271563Y-84563D01*
X-271800Y-84424D01*
X-272090Y-84311D01*
X-272432Y-84222D01*
X-272826Y-84159D01*
X-273273Y-84121D01*
X-273773Y-84108D01*
Y-81568D01*
X-273274Y-81556D01*
X-272828Y-81518D01*
X-272434Y-81454D01*
X-272093Y-81366D01*
X-271805Y-81252D01*
X-271568Y-81113D01*
X-271385Y-80949D01*
X-271254Y-80759D01*
X-271176Y-80544D01*
X-271150Y-80304D01*
X-271141Y-85372D01*
D02*
G37*
G36*
X-441141D02*
X-441168Y-85132D01*
X-441247Y-84917D01*
X-441379Y-84728D01*
X-441563Y-84563D01*
X-441800Y-84424D01*
X-442090Y-84311D01*
X-442432Y-84222D01*
X-442826Y-84159D01*
X-443273Y-84121D01*
X-443773Y-84108D01*
Y-81568D01*
X-443274Y-81556D01*
X-442828Y-81518D01*
X-442434Y-81454D01*
X-442093Y-81366D01*
X-441805Y-81252D01*
X-441568Y-81113D01*
X-441385Y-80949D01*
X-441254Y-80759D01*
X-441176Y-80544D01*
X-441150Y-80304D01*
X-441141Y-85372D01*
D02*
G37*
G36*
X-132654Y-84452D02*
X-132672Y-84501D01*
X-132687Y-84576D01*
X-132701Y-84677D01*
X-132722Y-84960D01*
X-132738Y-85845D01*
X-134738D01*
X-134739Y-85584D01*
X-134804Y-84501D01*
X-134822Y-84452D01*
X-134841Y-84431D01*
X-132635D01*
X-132654Y-84452D01*
D02*
G37*
G36*
X-457937Y-86422D02*
X-457860Y-86637D01*
X-457731Y-86828D01*
X-457551Y-86993D01*
X-457320Y-87133D01*
X-457037Y-87247D01*
X-456703Y-87336D01*
X-456318Y-87400D01*
X-455881Y-87438D01*
X-455392Y-87450D01*
Y-89990D01*
X-455881Y-90003D01*
X-456318Y-90041D01*
X-456703Y-90105D01*
X-457037Y-90194D01*
X-457320Y-90308D01*
X-457551Y-90448D01*
X-457731Y-90613D01*
X-457860Y-90803D01*
X-457937Y-91019D01*
X-457963Y-91260D01*
Y-86180D01*
X-457937Y-86422D01*
D02*
G37*
G36*
X-196518Y-91476D02*
X-196663Y-91295D01*
X-196843Y-91134D01*
X-197059Y-90991D01*
X-197310Y-90867D01*
X-197596Y-90763D01*
X-197917Y-90677D01*
X-198274Y-90611D01*
X-198667Y-90563D01*
X-199094Y-90534D01*
X-199557Y-90525D01*
X-199654Y-87985D01*
X-199139Y-87972D01*
X-198680Y-87934D01*
X-198280Y-87871D01*
X-197937Y-87782D01*
X-197651Y-87667D01*
X-197423Y-87528D01*
X-197252Y-87363D01*
X-197138Y-87172D01*
X-197082Y-86956D01*
X-197084Y-86715D01*
X-196518Y-91476D01*
D02*
G37*
G36*
X-154078Y-90710D02*
X-154009Y-91501D01*
X-153949Y-91843D01*
X-153872Y-92151D01*
X-153777Y-92423D01*
X-153665Y-92661D01*
X-153537Y-92863D01*
X-153391Y-93031D01*
X-153227Y-93163D01*
X-157486D01*
X-157322Y-93031D01*
X-157176Y-92863D01*
X-157048Y-92661D01*
X-156936Y-92423D01*
X-156841Y-92151D01*
X-156764Y-91843D01*
X-156704Y-91501D01*
X-156661Y-91123D01*
X-156627Y-90263D01*
X-154087D01*
X-154078Y-90710D01*
D02*
G37*
G36*
X-190762Y-91966D02*
X-190977Y-92046D01*
X-191166Y-92180D01*
X-191330Y-92367D01*
X-191469Y-92607D01*
X-191583Y-92901D01*
X-191672Y-93249D01*
X-191735Y-93650D01*
X-191773Y-94104D01*
X-191786Y-94612D01*
X-194326D01*
X-194338Y-94104D01*
X-194376Y-93650D01*
X-194439Y-93249D01*
X-194528Y-92901D01*
X-194641Y-92607D01*
X-194781Y-92367D01*
X-194945Y-92180D01*
X-195135Y-92046D01*
X-195349Y-91966D01*
X-195590Y-91939D01*
X-190521D01*
X-190762Y-91966D01*
D02*
G37*
G36*
X-320635Y-93254D02*
X-320585Y-93894D01*
X-320556Y-94068D01*
X-320519Y-94222D01*
X-320477Y-94356D01*
X-320427Y-94470D01*
X-320371Y-94565D01*
X-320309Y-94639D01*
X-323508D01*
X-323445Y-94565D01*
X-323389Y-94470D01*
X-323340Y-94356D01*
X-323297Y-94222D01*
X-323260Y-94068D01*
X-323231Y-93894D01*
X-323191Y-93487D01*
X-323181Y-93254D01*
X-323178Y-93000D01*
X-320638D01*
X-320635Y-93254D01*
D02*
G37*
G36*
X-126296Y-91860D02*
X-125544Y-92500D01*
X-125218Y-92730D01*
X-124925Y-92898D01*
X-124665Y-93006D01*
X-124438Y-93053D01*
X-124244Y-93039D01*
X-124084Y-92965D01*
X-123956Y-92829D01*
X-126201Y-96180D01*
X-126121Y-95997D01*
X-126104Y-95779D01*
X-126149Y-95527D01*
X-126256Y-95240D01*
X-126426Y-94918D01*
X-126658Y-94561D01*
X-126952Y-94170D01*
X-127729Y-93283D01*
X-128210Y-92788D01*
X-126721Y-91448D01*
X-126296Y-91860D01*
D02*
G37*
G36*
X-441141Y-98072D02*
X-441168Y-97832D01*
X-441247Y-97617D01*
X-441379Y-97428D01*
X-441563Y-97263D01*
X-441800Y-97124D01*
X-442090Y-97011D01*
X-442432Y-96922D01*
X-442826Y-96859D01*
X-443273Y-96821D01*
X-443773Y-96808D01*
Y-94268D01*
X-443274Y-94256D01*
X-442828Y-94218D01*
X-442434Y-94155D01*
X-442093Y-94066D01*
X-441805Y-93952D01*
X-441568Y-93813D01*
X-441385Y-93649D01*
X-441254Y-93459D01*
X-441176Y-93244D01*
X-441150Y-93004D01*
X-441141Y-98072D01*
D02*
G37*
G36*
X-105429Y-93546D02*
X-104487Y-94346D01*
X-104074Y-94636D01*
X-103699Y-94852D01*
X-103363Y-94994D01*
X-103065Y-95063D01*
X-102805Y-95057D01*
X-102584Y-94979D01*
X-102401Y-94826D01*
X-105703Y-98647D01*
X-105574Y-98441D01*
X-105514Y-98201D01*
X-105523Y-97926D01*
X-105602Y-97618D01*
X-105750Y-97276D01*
X-105968Y-96899D01*
X-106254Y-96489D01*
X-106610Y-96045D01*
X-107529Y-95055D01*
X-105957Y-93035D01*
X-105429Y-93546D01*
D02*
G37*
G36*
X-121385Y-95110D02*
X-121439Y-95292D01*
X-121436Y-95502D01*
X-121376Y-95742D01*
X-121260Y-96010D01*
X-121087Y-96307D01*
X-120858Y-96634D01*
X-120572Y-96989D01*
X-119830Y-97786D01*
X-121245Y-99200D01*
X-121657Y-98801D01*
X-122396Y-98172D01*
X-122723Y-97943D01*
X-123020Y-97770D01*
X-123288Y-97654D01*
X-123528Y-97595D01*
X-123738Y-97591D01*
X-123920Y-97645D01*
X-124073Y-97755D01*
X-121275Y-94957D01*
X-121385Y-95110D01*
D02*
G37*
G36*
X-153034Y-94388D02*
X-153103Y-94620D01*
X-153100Y-94888D01*
X-153025Y-95192D01*
X-152878Y-95533D01*
X-152660Y-95910D01*
X-152369Y-96324D01*
X-152007Y-96775D01*
X-151067Y-97786D01*
X-152863Y-99582D01*
X-153387Y-99076D01*
X-154324Y-98279D01*
X-154738Y-97989D01*
X-155116Y-97770D01*
X-155457Y-97624D01*
X-155761Y-97549D01*
X-156029Y-97546D01*
X-156260Y-97614D01*
X-156455Y-97755D01*
X-152893Y-94193D01*
X-153034Y-94388D01*
D02*
G37*
G36*
X-149574Y-100597D02*
X-149536Y-101029D01*
X-149472Y-101410D01*
X-149383Y-101740D01*
X-149269Y-102020D01*
X-149129Y-102248D01*
X-148964Y-102426D01*
X-148774Y-102553D01*
X-148558Y-102629D01*
X-148316Y-102655D01*
X-153397D01*
X-153155Y-102629D01*
X-152939Y-102553D01*
X-152749Y-102426D01*
X-152584Y-102248D01*
X-152444Y-102020D01*
X-152330Y-101740D01*
X-152241Y-101410D01*
X-152177Y-101029D01*
X-152139Y-100597D01*
X-152127Y-100115D01*
X-149586D01*
X-149574Y-100597D01*
D02*
G37*
G36*
X-74165Y-103793D02*
X-74338Y-103631D01*
X-74550Y-103543D01*
X-74802Y-103529D01*
X-75091Y-103589D01*
X-75420Y-103724D01*
X-75787Y-103932D01*
X-76193Y-104214D01*
X-76637Y-104571D01*
X-77643Y-105505D01*
X-79585Y-103856D01*
X-79008Y-103261D01*
X-78084Y-102195D01*
X-77737Y-101725D01*
X-77468Y-101297D01*
X-77275Y-100910D01*
X-77160Y-100565D01*
X-77122Y-100262D01*
X-77161Y-100001D01*
X-77276Y-99781D01*
X-74165Y-103793D01*
D02*
G37*
G36*
X-67536Y-105381D02*
X-67176Y-105682D01*
X-66244Y-107077D01*
X-64564Y-108200D01*
X-63760Y-108359D01*
X-63691Y-108528D01*
X-63888Y-109519D01*
Y-117469D01*
X-63691Y-118460D01*
X-63129Y-119300D01*
X-62104Y-120325D01*
X-61264Y-120886D01*
X-60273Y-121083D01*
X-51728D01*
X-51064Y-121748D01*
Y-149170D01*
X-51530Y-149635D01*
X-60778D01*
X-61395Y-148711D01*
Y-147205D01*
X-61971Y-145814D01*
X-63036Y-144749D01*
X-64428Y-144172D01*
X-65541D01*
X-65598Y-144136D01*
X-65697Y-144061D01*
X-65806Y-143968D01*
X-65949Y-143832D01*
X-66086Y-143780D01*
X-71918Y-137948D01*
Y-129697D01*
X-72094Y-128811D01*
X-72596Y-128060D01*
X-81173Y-119483D01*
X-81924Y-118981D01*
X-82810Y-118805D01*
X-98014D01*
X-100371Y-116448D01*
X-100423Y-116311D01*
X-100559Y-116168D01*
X-100652Y-116059D01*
X-100727Y-115959D01*
X-100763Y-115903D01*
Y-114790D01*
X-101340Y-113398D01*
X-101650Y-113087D01*
X-101124Y-111817D01*
X-83161D01*
X-82170Y-111620D01*
X-81330Y-111059D01*
X-76828Y-106557D01*
X-76707Y-106512D01*
X-76164Y-106008D01*
X-75273Y-106185D01*
X-71223D01*
X-69541Y-105850D01*
X-68685Y-105279D01*
X-67536Y-105381D01*
D02*
G37*
G36*
X-457937Y-103067D02*
X-457860Y-103283D01*
X-457731Y-103474D01*
X-457551Y-103639D01*
X-457320Y-103778D01*
X-457037Y-103893D01*
X-456703Y-103982D01*
X-456318Y-104045D01*
X-455881Y-104083D01*
X-455392Y-104096D01*
Y-106636D01*
X-455881Y-106649D01*
X-456318Y-106687D01*
X-456703Y-106750D01*
X-457037Y-106839D01*
X-457320Y-106953D01*
X-457551Y-107093D01*
X-457731Y-107258D01*
X-457860Y-107449D01*
X-457937Y-107664D01*
X-457963Y-107906D01*
Y-102826D01*
X-457937Y-103067D01*
D02*
G37*
G36*
X-441141Y-110772D02*
X-441168Y-110532D01*
X-441247Y-110317D01*
X-441379Y-110128D01*
X-441563Y-109963D01*
X-441800Y-109824D01*
X-442090Y-109711D01*
X-442432Y-109622D01*
X-442826Y-109559D01*
X-443273Y-109521D01*
X-443773Y-109508D01*
Y-106968D01*
X-443274Y-106956D01*
X-442828Y-106918D01*
X-442434Y-106854D01*
X-442093Y-106766D01*
X-441805Y-106652D01*
X-441568Y-106513D01*
X-441385Y-106349D01*
X-441254Y-106159D01*
X-441176Y-105944D01*
X-441150Y-105704D01*
X-441141Y-110772D01*
D02*
G37*
G36*
X-292441Y-114590D02*
X-292391Y-115230D01*
X-292362Y-115404D01*
X-292325Y-115558D01*
X-292283Y-115692D01*
X-292233Y-115806D01*
X-292177Y-115901D01*
X-292115Y-115975D01*
X-295314D01*
X-295251Y-115901D01*
X-295195Y-115806D01*
X-295145Y-115692D01*
X-295103Y-115558D01*
X-295066Y-115404D01*
X-295037Y-115230D01*
X-294997Y-114823D01*
X-294987Y-114590D01*
X-294984Y-114336D01*
X-292444D01*
X-292441Y-114590D01*
D02*
G37*
G36*
X-102257Y-115734D02*
X-102233Y-115902D01*
X-102192Y-116070D01*
X-102133Y-116239D01*
X-102057Y-116408D01*
X-101964Y-116578D01*
X-101854Y-116747D01*
X-101726Y-116917D01*
X-101582Y-117087D01*
X-101420Y-117258D01*
X-102834Y-118672D01*
X-103004Y-118510D01*
X-103175Y-118365D01*
X-103344Y-118238D01*
X-103514Y-118128D01*
X-103684Y-118034D01*
X-103853Y-117959D01*
X-104021Y-117900D01*
X-104190Y-117859D01*
X-104358Y-117835D01*
X-104526Y-117828D01*
X-102264Y-115566D01*
X-102257Y-115734D01*
D02*
G37*
G36*
X-120473Y-118655D02*
X-120869Y-119065D01*
X-121491Y-119800D01*
X-121717Y-120125D01*
X-121887Y-120422D01*
X-122000Y-120691D01*
X-122057Y-120932D01*
Y-121144D01*
X-122000Y-121327D01*
X-121887Y-121483D01*
X-124715Y-118655D01*
X-124560Y-118768D01*
X-124376Y-118824D01*
X-124164D01*
X-123923Y-118768D01*
X-123655Y-118655D01*
X-123358Y-118485D01*
X-123033Y-118259D01*
X-122679Y-117976D01*
X-121887Y-117240D01*
X-120473Y-118655D01*
D02*
G37*
G36*
X-246264Y-118644D02*
X-246186Y-118859D01*
X-246055Y-119049D01*
X-245872Y-119213D01*
X-245636Y-119352D01*
X-245347Y-119466D01*
X-245006Y-119555D01*
X-244612Y-119618D01*
X-244166Y-119656D01*
X-243667Y-119668D01*
Y-122208D01*
X-244167Y-122221D01*
X-244614Y-122259D01*
X-245008Y-122322D01*
X-245350Y-122411D01*
X-245640Y-122524D01*
X-245877Y-122663D01*
X-246061Y-122828D01*
X-246193Y-123017D01*
X-246272Y-123232D01*
X-246299Y-123472D01*
X-246290Y-118404D01*
X-246264Y-118644D01*
D02*
G37*
G36*
X-441141Y-123472D02*
X-441168Y-123232D01*
X-441247Y-123017D01*
X-441379Y-122828D01*
X-441563Y-122663D01*
X-441800Y-122524D01*
X-442090Y-122411D01*
X-442432Y-122322D01*
X-442826Y-122259D01*
X-443273Y-122221D01*
X-443773Y-122208D01*
Y-119668D01*
X-443274Y-119656D01*
X-442828Y-119618D01*
X-442434Y-119555D01*
X-442093Y-119466D01*
X-441805Y-119352D01*
X-441568Y-119213D01*
X-441385Y-119049D01*
X-441254Y-118859D01*
X-441176Y-118644D01*
X-441150Y-118404D01*
X-441141Y-123472D01*
D02*
G37*
G36*
X-457937Y-119713D02*
X-457860Y-119929D01*
X-457731Y-120119D01*
X-457551Y-120284D01*
X-457320Y-120424D01*
X-457037Y-120538D01*
X-456703Y-120627D01*
X-456318Y-120690D01*
X-455881Y-120729D01*
X-455392Y-120741D01*
Y-123281D01*
X-455881Y-123294D01*
X-456318Y-123332D01*
X-456703Y-123396D01*
X-457037Y-123484D01*
X-457320Y-123599D01*
X-457551Y-123738D01*
X-457731Y-123904D01*
X-457860Y-124094D01*
X-457937Y-124310D01*
X-457963Y-124551D01*
Y-119471D01*
X-457937Y-119713D01*
D02*
G37*
G36*
X-191773Y-123508D02*
X-191735Y-123962D01*
X-191672Y-124363D01*
X-191583Y-124710D01*
X-191469Y-125004D01*
X-191330Y-125245D01*
X-191166Y-125432D01*
X-190977Y-125566D01*
X-190762Y-125646D01*
X-190521Y-125672D01*
X-195590D01*
X-195349Y-125646D01*
X-195135Y-125566D01*
X-194945Y-125432D01*
X-194781Y-125245D01*
X-194641Y-125004D01*
X-194528Y-124710D01*
X-194439Y-124363D01*
X-194376Y-123962D01*
X-194338Y-123508D01*
X-194326Y-123000D01*
X-191786D01*
X-191773Y-123508D01*
D02*
G37*
G36*
X-101528Y-132676D02*
X-101710Y-132860D01*
X-102237Y-133452D01*
X-101163Y-134527D01*
X-101360Y-134389D01*
X-101601Y-134329D01*
X-101884Y-134348D01*
X-102209Y-134444D01*
X-102578Y-134618D01*
X-102988Y-134869D01*
X-103442Y-135199D01*
X-103938Y-135607D01*
X-105057Y-136656D01*
X-105496Y-136216D01*
X-107612Y-135618D01*
X-107437Y-135437D01*
X-107154Y-135102D01*
X-107046Y-134949D01*
X-106961Y-134806D01*
X-106898Y-134672D01*
X-106858Y-134547D01*
X-106840Y-134432D01*
X-106844Y-134326D01*
X-106871Y-134230D01*
X-106426Y-134419D01*
X-106290Y-134278D01*
X-105397Y-133244D01*
X-105067Y-132791D01*
X-104815Y-132380D01*
X-104641Y-132012D01*
X-104545Y-131686D01*
X-104527Y-131403D01*
X-104587Y-131163D01*
X-104724Y-130965D01*
X-103649Y-132040D01*
X-104199Y-131135D01*
X-104096Y-131150D01*
X-103984Y-131143D01*
X-103863Y-131116D01*
X-103734Y-131067D01*
X-103596Y-130998D01*
X-103450Y-130907D01*
X-103294Y-130795D01*
X-103131Y-130662D01*
X-102777Y-130333D01*
X-101528Y-132676D01*
D02*
G37*
G36*
X-215977Y-130489D02*
X-216033Y-130584D01*
X-216083Y-130698D01*
X-216126Y-130832D01*
X-216162Y-130986D01*
X-216191Y-131160D01*
X-216231Y-131567D01*
X-216241Y-131800D01*
X-216244Y-132053D01*
X-218784D01*
X-218787Y-131800D01*
X-218837Y-131160D01*
X-218866Y-130986D01*
X-218903Y-130832D01*
X-218946Y-130698D01*
X-218995Y-130584D01*
X-219051Y-130489D01*
X-219114Y-130415D01*
X-215915D01*
X-215977Y-130489D01*
D02*
G37*
G36*
X-112258Y-120447D02*
X-111294Y-121411D01*
Y-133603D01*
X-123106Y-145415D01*
X-171673D01*
X-174812Y-148554D01*
X-182022D01*
X-183206Y-147371D01*
Y-125732D01*
X-182335Y-124862D01*
X-174353D01*
X-173183Y-126032D01*
Y-132539D01*
X-172714Y-133007D01*
X-120692D01*
X-120051Y-132410D01*
X-119570D01*
X-119422Y-131825D01*
X-119422Y-131202D01*
X-119422Y-121400D01*
X-118469Y-120447D01*
X-112258Y-120447D01*
D02*
G37*
G36*
X-228931Y-131505D02*
X-228987Y-131600D01*
X-229037Y-131714D01*
X-229079Y-131848D01*
X-229116Y-132002D01*
X-229145Y-132176D01*
X-229185Y-132583D01*
X-229195Y-132816D01*
X-229198Y-133069D01*
X-231738D01*
X-231741Y-132816D01*
X-231791Y-132176D01*
X-231820Y-132002D01*
X-231857Y-131848D01*
X-231900Y-131714D01*
X-231949Y-131600D01*
X-232005Y-131505D01*
X-232068Y-131431D01*
X-228869D01*
X-228931Y-131505D01*
D02*
G37*
G36*
X-93371Y-134486D02*
Y-151846D01*
X-94641Y-152372D01*
X-95188Y-151825D01*
X-96580Y-151249D01*
X-98086D01*
X-98185Y-151290D01*
X-98671Y-151193D01*
X-102721D01*
X-104403Y-151528D01*
X-105829Y-152480D01*
X-106782Y-153906D01*
X-106988Y-154943D01*
X-107329Y-154951D01*
X-107452Y-155006D01*
X-129995D01*
X-130986Y-155203D01*
X-131826Y-155765D01*
X-135569Y-159508D01*
X-136131Y-160348D01*
X-136328Y-161339D01*
Y-165205D01*
X-136490Y-165313D01*
X-137111Y-166243D01*
X-137451Y-167315D01*
X-137488D01*
Y-167315D01*
Y-175315D01*
X-130738D01*
X-130712Y-175316D01*
X-130686Y-175318D01*
X-130660Y-175321D01*
X-130634Y-175326D01*
X-130609Y-175332D01*
X-130584Y-175340D01*
X-130559Y-175348D01*
X-130535Y-175358D01*
X-130511Y-175369D01*
X-130488Y-175382D01*
X-130466Y-175396D01*
X-130444Y-175410D01*
X-130423Y-175426D01*
X-130403Y-175443D01*
X-130385Y-175461D01*
X-130366Y-175480D01*
X-130350Y-175500D01*
X-130341Y-175511D01*
X-130238Y-175614D01*
Y-175814D01*
X-130238Y-175815D01*
Y-206815D01*
X-130238Y-206816D01*
Y-207022D01*
X-130375Y-207159D01*
X-130385Y-207169D01*
X-130394Y-207178D01*
X-130404Y-207187D01*
X-130405Y-207188D01*
X-130423Y-207204D01*
X-130444Y-207220D01*
X-130466Y-207234D01*
X-130488Y-207248D01*
X-130511Y-207260D01*
X-130535Y-207272D01*
X-130559Y-207282D01*
X-130584Y-207290D01*
X-130609Y-207298D01*
X-130630Y-207303D01*
X-130653Y-207315D01*
X-130737D01*
X-130738Y-207315D01*
X-137488D01*
Y-215315D01*
X-137488Y-215316D01*
Y-216010D01*
X-137329Y-216169D01*
X-136608Y-217140D01*
X-136490Y-217317D01*
X-136122Y-217562D01*
X-136111Y-217781D01*
X-136053Y-217904D01*
Y-218520D01*
X-135876Y-219406D01*
X-135375Y-220157D01*
X-130692Y-224839D01*
X-130642Y-224973D01*
X-130543Y-225079D01*
X-130583Y-225280D01*
Y-227780D01*
X-130309Y-229160D01*
X-129527Y-230329D01*
X-128358Y-231111D01*
X-126978Y-231385D01*
X-124478D01*
X-124274Y-231345D01*
X-124190Y-231426D01*
X-124050Y-231481D01*
X-120863Y-234669D01*
Y-246339D01*
X-120942Y-247576D01*
X-139514D01*
Y-263648D01*
X-140595Y-264105D01*
X-183174D01*
X-186297Y-260982D01*
Y-232949D01*
X-185027Y-232563D01*
X-184289Y-233669D01*
X-182863Y-234622D01*
X-181180Y-234956D01*
X-177131D01*
X-175448Y-234622D01*
X-174022Y-233669D01*
X-173070Y-232243D01*
X-172766Y-230715D01*
X-172751Y-230715D01*
X-172500Y-230604D01*
X-171792Y-230463D01*
X-170952Y-229902D01*
X-164714Y-223664D01*
X-164153Y-222824D01*
X-163956Y-221832D01*
Y-214857D01*
X-161290Y-212192D01*
X-160213Y-212406D01*
X-157789D01*
X-157303Y-213579D01*
X-158559Y-214836D01*
X-159121Y-215676D01*
X-159318Y-216667D01*
Y-221329D01*
X-159372Y-221446D01*
X-159393Y-221973D01*
X-160527Y-222731D01*
X-161309Y-223900D01*
X-161583Y-225280D01*
Y-227780D01*
X-161309Y-229160D01*
X-160527Y-230329D01*
X-160947Y-231576D01*
X-161514D01*
Y-247648D01*
X-142942D01*
Y-231576D01*
X-149577D01*
X-149584Y-231317D01*
X-149638Y-231194D01*
Y-231030D01*
X-149835Y-230039D01*
X-150397Y-229199D01*
X-151387Y-228209D01*
X-151432Y-228087D01*
X-151873Y-227613D01*
Y-225280D01*
X-152147Y-223900D01*
X-152929Y-222731D01*
X-154068Y-221970D01*
X-154076Y-221876D01*
X-154084Y-221474D01*
X-154138Y-221349D01*
Y-217740D01*
X-153221Y-216822D01*
X-151662Y-217059D01*
X-151490Y-217317D01*
X-150560Y-217938D01*
X-149463Y-218156D01*
X-148013D01*
X-146916Y-217938D01*
X-145986Y-217317D01*
X-145365Y-216387D01*
X-145147Y-215290D01*
X-144988Y-215131D01*
Y-207315D01*
X-151966D01*
X-152217Y-207065D01*
Y-206960D01*
X-152221Y-206944D01*
X-152227Y-206919D01*
X-152232Y-206893D01*
X-152235Y-206867D01*
X-152237Y-206841D01*
X-152238Y-206815D01*
Y-175815D01*
X-152237Y-175789D01*
X-152235Y-175763D01*
X-152232Y-175737D01*
X-152227Y-175711D01*
X-152221Y-175686D01*
X-152217Y-175670D01*
Y-175627D01*
X-152189Y-175600D01*
X-152184Y-175588D01*
X-152171Y-175565D01*
X-152157Y-175543D01*
X-152143Y-175521D01*
X-152127Y-175500D01*
X-152110Y-175480D01*
X-152092Y-175461D01*
X-152073Y-175443D01*
X-152053Y-175426D01*
X-152032Y-175410D01*
X-152010Y-175396D01*
X-151988Y-175382D01*
X-151965Y-175369D01*
X-151953Y-175364D01*
X-151904Y-175315D01*
X-144988D01*
Y-167499D01*
X-145147Y-167340D01*
X-145365Y-166243D01*
X-145986Y-165313D01*
X-146148Y-165205D01*
Y-157369D01*
X-141681Y-152902D01*
X-120510D01*
X-119518Y-152705D01*
X-118678Y-152143D01*
X-104240Y-137705D01*
X-104117Y-137659D01*
X-103221Y-136820D01*
X-102721Y-136919D01*
X-98671D01*
X-96989Y-136585D01*
X-95563Y-135632D01*
X-94641Y-134251D01*
X-94545Y-134232D01*
X-93371Y-134486D01*
D02*
G37*
G36*
X-286037Y-141059D02*
X-285702Y-141343D01*
X-285548Y-141453D01*
X-285403Y-141540D01*
X-285266Y-141605D01*
X-285140Y-141649D01*
X-285022Y-141670D01*
X-284913Y-141670D01*
X-284813Y-141647D01*
X-286231Y-144515D01*
X-286245Y-144491D01*
X-286278Y-144449D01*
X-286401Y-144312D01*
X-287223Y-143473D01*
X-286219Y-140884D01*
X-286037Y-141059D01*
D02*
G37*
G36*
X-66726Y-144991D02*
X-66555Y-145136D01*
X-66385Y-145263D01*
X-66216Y-145373D01*
X-66046Y-145466D01*
X-65877Y-145542D01*
X-65708Y-145601D01*
X-65540Y-145642D01*
X-65372Y-145667D01*
X-65204Y-145673D01*
X-67466Y-147935D01*
X-67473Y-147767D01*
X-67497Y-147599D01*
X-67538Y-147431D01*
X-67597Y-147262D01*
X-67673Y-147093D01*
X-67766Y-146923D01*
X-67876Y-146754D01*
X-68003Y-146584D01*
X-68148Y-146414D01*
X-68310Y-146243D01*
X-66896Y-144829D01*
X-66726Y-144991D01*
D02*
G37*
G36*
X-189153Y-144834D02*
X-189209Y-145077D01*
X-189198Y-145354D01*
X-189118Y-145663D01*
X-188969Y-146006D01*
X-188752Y-146382D01*
X-188467Y-146791D01*
X-188113Y-147233D01*
X-187201Y-148216D01*
X-188746Y-150262D01*
X-189267Y-149759D01*
X-190194Y-148973D01*
X-190601Y-148690D01*
X-190970Y-148481D01*
X-191300Y-148344D01*
X-191592Y-148281D01*
X-191847Y-148292D01*
X-192063Y-148375D01*
X-192242Y-148532D01*
X-189027Y-144623D01*
X-189153Y-144834D01*
D02*
G37*
G36*
X-246379Y-147432D02*
X-246450Y-147661D01*
X-246451Y-147925D01*
X-246381Y-148224D01*
X-246242Y-148558D01*
X-246032Y-148927D01*
X-245751Y-149331D01*
X-245401Y-149770D01*
X-244489Y-150752D01*
X-246285Y-152549D01*
X-246793Y-152057D01*
X-247706Y-151286D01*
X-248110Y-151005D01*
X-248479Y-150795D01*
X-248813Y-150656D01*
X-249112Y-150586D01*
X-249376Y-150587D01*
X-249605Y-150658D01*
X-249799Y-150800D01*
X-246238Y-147238D01*
X-246379Y-147432D01*
D02*
G37*
G36*
X-524059Y-104987D02*
X-524059Y-151418D01*
X-525266Y-152625D01*
X-547050D01*
X-555211Y-144487D01*
X-593293Y-144487D01*
X-596661Y-147856D01*
X-596661Y-247984D01*
X-546000Y-298645D01*
X-546000Y-314679D01*
X-547488Y-316167D01*
X-568540D01*
X-569903Y-314804D01*
Y-289831D01*
X-608210Y-251524D01*
X-607535Y-126558D01*
X-606515Y-125533D01*
X-573103Y-125350D01*
X-570976Y-123211D01*
Y-104382D01*
X-570080Y-103486D01*
X-525560Y-103486D01*
X-524059Y-104987D01*
D02*
G37*
G36*
X-98145Y-157170D02*
X-98243Y-157146D01*
X-98350Y-157143D01*
X-98467Y-157163D01*
X-98593Y-157205D01*
X-98728Y-157269D01*
X-98873Y-157356D01*
X-99026Y-157464D01*
X-99189Y-157595D01*
X-99543Y-157923D01*
X-100457Y-155245D01*
X-99484Y-154265D01*
X-98145Y-157170D01*
D02*
G37*
G36*
X-183028Y-152371D02*
X-182100Y-153157D01*
X-181694Y-153440D01*
X-181327Y-153648D01*
X-180999Y-153782D01*
X-180709Y-153842D01*
X-180458Y-153829D01*
X-180246Y-153741D01*
X-180072Y-153579D01*
X-183184Y-157591D01*
X-183063Y-157376D01*
X-183010Y-157129D01*
X-183024Y-156850D01*
X-183106Y-156538D01*
X-183255Y-156195D01*
X-183471Y-155820D01*
X-183755Y-155413D01*
X-184106Y-154973D01*
X-185010Y-153998D01*
X-183550Y-151866D01*
X-183028Y-152371D01*
D02*
G37*
G36*
X-104724Y-160136D02*
X-104745Y-159894D01*
X-104819Y-159678D01*
X-104944Y-159488D01*
X-105123Y-159323D01*
X-105354Y-159183D01*
X-105637Y-159069D01*
X-105973Y-158980D01*
X-106361Y-158917D01*
X-106802Y-158878D01*
X-107295Y-158866D01*
Y-156326D01*
X-106791Y-156313D01*
X-106340Y-156275D01*
X-105941Y-156212D01*
X-105595Y-156123D01*
X-105301Y-156010D01*
X-105059Y-155871D01*
X-104871Y-155706D01*
X-104734Y-155517D01*
X-104650Y-155302D01*
X-104619Y-155062D01*
X-104724Y-160136D01*
D02*
G37*
G36*
X-197071Y-160591D02*
X-197097Y-160351D01*
X-197175Y-160136D01*
X-197304Y-159946D01*
X-197484Y-159782D01*
X-197717Y-159643D01*
X-198001Y-159529D01*
X-198337Y-159441D01*
X-198724Y-159378D01*
X-199163Y-159340D01*
X-199654Y-159327D01*
Y-156787D01*
X-199163Y-156774D01*
X-198724Y-156736D01*
X-198337Y-156673D01*
X-198001Y-156585D01*
X-197717Y-156471D01*
X-197484Y-156332D01*
X-197304Y-156168D01*
X-197174Y-155978D01*
X-197097Y-155763D01*
X-197071Y-155523D01*
Y-160591D01*
D02*
G37*
G36*
X-271145Y-161551D02*
X-271172Y-161311D01*
X-271251Y-161096D01*
X-271382Y-160906D01*
X-271566Y-160742D01*
X-271802Y-160603D01*
X-272091Y-160489D01*
X-272433Y-160401D01*
X-272827Y-160338D01*
X-273274Y-160300D01*
X-273773Y-160287D01*
Y-157747D01*
X-273274Y-157734D01*
X-272827Y-157696D01*
X-272433Y-157633D01*
X-272091Y-157545D01*
X-271802Y-157431D01*
X-271566Y-157292D01*
X-271382Y-157128D01*
X-271251Y-156938D01*
X-271172Y-156723D01*
X-271145Y-156483D01*
Y-161551D01*
D02*
G37*
G36*
X-175248Y-158738D02*
X-175301Y-158985D01*
X-175287Y-159264D01*
X-175205Y-159576D01*
X-175056Y-159919D01*
X-174840Y-160294D01*
X-174556Y-160701D01*
X-174205Y-161141D01*
X-173301Y-162116D01*
X-174761Y-164248D01*
X-175283Y-163743D01*
X-176211Y-162957D01*
X-176617Y-162674D01*
X-176984Y-162466D01*
X-177312Y-162332D01*
X-177602Y-162272D01*
X-177853Y-162285D01*
X-178065Y-162373D01*
X-178239Y-162535D01*
X-175127Y-158524D01*
X-175248Y-158738D01*
D02*
G37*
G36*
X-81678Y-125847D02*
Y-163544D01*
X-82703Y-164569D01*
X-89825Y-164569D01*
X-90781Y-163613D01*
Y-125232D01*
X-90403Y-124855D01*
X-82670Y-124855D01*
X-81678Y-125847D01*
D02*
G37*
G36*
X-76547Y-130655D02*
Y-138906D01*
X-76371Y-139792D01*
X-75869Y-140543D01*
X-69359Y-147053D01*
X-69307Y-147190D01*
X-69171Y-147333D01*
X-69078Y-147442D01*
X-69003Y-147542D01*
X-68967Y-147598D01*
Y-148711D01*
X-68390Y-150103D01*
X-67325Y-151168D01*
X-66452Y-151530D01*
X-65854Y-152702D01*
X-65828Y-153014D01*
X-65988Y-153817D01*
Y-168577D01*
X-66229Y-168770D01*
X-67934Y-168504D01*
X-68115Y-168234D01*
X-69541Y-167281D01*
X-71223Y-166946D01*
X-75273D01*
X-76955Y-167281D01*
X-78381Y-168234D01*
X-78651Y-168637D01*
X-80855D01*
X-81623Y-167462D01*
X-81496Y-166818D01*
X-80872Y-166400D01*
X-79847Y-165375D01*
X-79285Y-164535D01*
X-79088Y-163544D01*
Y-129774D01*
X-77915Y-129288D01*
X-76547Y-130655D01*
D02*
G37*
G36*
X-197866Y-165315D02*
X-197829Y-165373D01*
X-197774Y-165446D01*
X-197609Y-165641D01*
X-197183Y-166090D01*
X-196894Y-166369D01*
X-195966Y-167155D01*
X-195560Y-167438D01*
X-195193Y-167647D01*
X-194863Y-167782D01*
X-194572Y-167843D01*
X-194320Y-167831D01*
X-194106Y-167745D01*
X-193930Y-167585D01*
X-197084Y-171555D01*
X-196961Y-171342D01*
X-196907Y-171096D01*
X-196920Y-170818D01*
X-197001Y-170508D01*
X-197150Y-170165D01*
X-197366Y-169789D01*
X-197650Y-169382D01*
X-198002Y-168941D01*
X-198414Y-168498D01*
X-198536Y-168394D01*
X-198690Y-168284D01*
X-198836Y-168195D01*
X-198974Y-168127D01*
X-199102Y-168081D01*
X-199222Y-168057D01*
X-199332Y-168053D01*
X-199434Y-168072D01*
X-197885Y-165273D01*
X-197866Y-165315D01*
D02*
G37*
G36*
X-271145Y-174251D02*
X-271172Y-174011D01*
X-271251Y-173796D01*
X-271382Y-173606D01*
X-271566Y-173442D01*
X-271802Y-173303D01*
X-272091Y-173189D01*
X-272433Y-173101D01*
X-272827Y-173038D01*
X-273274Y-173000D01*
X-273773Y-172987D01*
Y-170447D01*
X-273274Y-170434D01*
X-272827Y-170396D01*
X-272433Y-170333D01*
X-272091Y-170245D01*
X-271802Y-170131D01*
X-271566Y-169992D01*
X-271382Y-169828D01*
X-271251Y-169638D01*
X-271172Y-169423D01*
X-271145Y-169183D01*
Y-174251D01*
D02*
G37*
G36*
X-175248Y-172744D02*
X-175301Y-172991D01*
X-175287Y-173270D01*
X-175205Y-173581D01*
X-175056Y-173925D01*
X-174840Y-174300D01*
X-174556Y-174707D01*
X-174205Y-175146D01*
X-173301Y-176121D01*
X-174761Y-178253D01*
X-175283Y-177749D01*
X-176211Y-176962D01*
X-176617Y-176680D01*
X-176984Y-176472D01*
X-177312Y-176338D01*
X-177602Y-176277D01*
X-177853Y-176291D01*
X-178065Y-176379D01*
X-178239Y-176541D01*
X-175127Y-172529D01*
X-175248Y-172744D01*
D02*
G37*
G36*
X-235371Y-178856D02*
X-235368Y-179110D01*
X-235326Y-179752D01*
X-235301Y-179926D01*
X-235269Y-180080D01*
X-235233Y-180214D01*
X-235190Y-180327D01*
X-235142Y-180420D01*
X-235089Y-180494D01*
X-238281Y-180281D01*
X-238210Y-180208D01*
X-238148Y-180115D01*
X-238092Y-180002D01*
X-238044Y-179869D01*
X-238004Y-179716D01*
X-237970Y-179543D01*
X-237944Y-179350D01*
X-237915Y-178905D01*
X-237911Y-178652D01*
X-235371Y-178856D01*
D02*
G37*
G36*
X-69394Y-184602D02*
X-69801Y-184987D01*
X-70471Y-185727D01*
X-70734Y-186082D01*
X-70950Y-186429D01*
X-71117Y-186765D01*
X-71237Y-187092D01*
X-71309Y-187410D01*
X-71333Y-187718D01*
X-71309Y-188016D01*
X-72273Y-182079D01*
X-72202Y-182338D01*
X-72086Y-182522D01*
X-71924Y-182631D01*
X-71716Y-182665D01*
X-71463Y-182624D01*
X-71165Y-182507D01*
X-70821Y-182315D01*
X-70431Y-182048D01*
X-69996Y-181707D01*
X-69516Y-181289D01*
X-69394Y-184602D01*
D02*
G37*
G36*
X-246217Y-182410D02*
X-246144Y-182625D01*
X-246018Y-182815D01*
X-245840Y-182979D01*
X-245609Y-183118D01*
X-245326Y-183232D01*
X-244990Y-183320D01*
X-244601Y-183383D01*
X-244161Y-183421D01*
X-243667Y-183434D01*
Y-185974D01*
X-244172Y-185986D01*
X-244624Y-186024D01*
X-245024Y-186088D01*
X-245372Y-186176D01*
X-245666Y-186290D01*
X-245909Y-186429D01*
X-246098Y-186593D01*
X-246235Y-186783D01*
X-246320Y-186998D01*
X-246352Y-187238D01*
X-246238Y-182170D01*
X-246217Y-182410D01*
D02*
G37*
G36*
X-175104Y-184006D02*
X-175034Y-184184D01*
X-174916Y-184340D01*
X-174752Y-184476D01*
X-174541Y-184591D01*
X-174284Y-184685D01*
X-173979Y-184758D01*
X-173627Y-184810D01*
X-173229Y-184841D01*
X-172783Y-184852D01*
Y-187392D01*
X-173229Y-187402D01*
X-173627Y-187433D01*
X-173979Y-187486D01*
X-174284Y-187559D01*
X-174541Y-187653D01*
X-174752Y-187767D01*
X-174916Y-187903D01*
X-175034Y-188060D01*
X-175104Y-188237D01*
X-175127Y-188435D01*
Y-183808D01*
X-175104Y-184006D01*
D02*
G37*
G36*
X-197071Y-188603D02*
X-197097Y-188363D01*
X-197174Y-188148D01*
X-197304Y-187958D01*
X-197484Y-187794D01*
X-197717Y-187655D01*
X-198001Y-187541D01*
X-198337Y-187452D01*
X-198724Y-187389D01*
X-199163Y-187351D01*
X-199654Y-187339D01*
Y-184799D01*
X-199163Y-184786D01*
X-198724Y-184748D01*
X-198337Y-184685D01*
X-198001Y-184596D01*
X-197717Y-184483D01*
X-197484Y-184344D01*
X-197304Y-184179D01*
X-197174Y-183990D01*
X-197097Y-183775D01*
X-197071Y-183535D01*
Y-188603D01*
D02*
G37*
G36*
X-78255Y-190057D02*
X-78281Y-189815D01*
X-78358Y-189599D01*
X-78486Y-189409D01*
X-78666Y-189244D01*
X-78897Y-189104D01*
X-79180Y-188990D01*
X-79514Y-188901D01*
X-79900Y-188837D01*
X-80337Y-188799D01*
X-80825Y-188787D01*
Y-186247D01*
X-80337Y-186234D01*
X-79900Y-186196D01*
X-79514Y-186132D01*
X-79180Y-186043D01*
X-78897Y-185929D01*
X-78666Y-185789D01*
X-78486Y-185624D01*
X-78358Y-185434D01*
X-78281Y-185218D01*
X-78255Y-184977D01*
Y-190057D01*
D02*
G37*
G36*
X-520652Y-164423D02*
Y-192675D01*
X-524829Y-196852D01*
X-545430D01*
X-547030Y-195252D01*
Y-165670D01*
X-544935Y-163575D01*
X-521499D01*
X-520652Y-164423D01*
D02*
G37*
G36*
X-271141Y-199672D02*
X-271168Y-199432D01*
X-271247Y-199217D01*
X-271379Y-199028D01*
X-271563Y-198863D01*
X-271800Y-198724D01*
X-272090Y-198611D01*
X-272432Y-198522D01*
X-272826Y-198459D01*
X-273273Y-198421D01*
X-273773Y-198408D01*
Y-195868D01*
X-273274Y-195856D01*
X-272828Y-195818D01*
X-272434Y-195755D01*
X-272093Y-195666D01*
X-271805Y-195552D01*
X-271568Y-195413D01*
X-271385Y-195249D01*
X-271254Y-195059D01*
X-271176Y-194844D01*
X-271150Y-194604D01*
X-271141Y-199672D01*
D02*
G37*
G36*
X-226875Y-198393D02*
X-226387Y-198811D01*
X-226243Y-198913D01*
X-226109Y-198996D01*
X-225984Y-199061D01*
X-225868Y-199107D01*
X-225762Y-199134D01*
X-225665Y-199142D01*
X-227927Y-201404D01*
X-227935Y-201307D01*
X-227962Y-201201D01*
X-228008Y-201085D01*
X-228073Y-200960D01*
X-228156Y-200826D01*
X-228258Y-200682D01*
X-228518Y-200366D01*
X-228676Y-200194D01*
X-228853Y-200012D01*
X-227057Y-198216D01*
X-226875Y-198393D01*
D02*
G37*
G36*
X-175114Y-197781D02*
X-175036Y-197995D01*
X-174907Y-198185D01*
X-174726Y-198349D01*
X-174494Y-198489D01*
X-174210Y-198602D01*
X-173874Y-198691D01*
X-173487Y-198754D01*
X-173048Y-198792D01*
X-172557Y-198804D01*
Y-201345D01*
X-173048Y-201357D01*
X-173487Y-201395D01*
X-173874Y-201458D01*
X-174210Y-201547D01*
X-174494Y-201660D01*
X-174726Y-201800D01*
X-174907Y-201964D01*
X-175036Y-202153D01*
X-175114Y-202368D01*
X-175140Y-202609D01*
Y-197540D01*
X-175114Y-197781D01*
D02*
G37*
G36*
X-197071Y-202609D02*
X-197097Y-202368D01*
X-197174Y-202153D01*
X-197304Y-201964D01*
X-197484Y-201800D01*
X-197717Y-201660D01*
X-198001Y-201547D01*
X-198337Y-201458D01*
X-198724Y-201395D01*
X-199163Y-201357D01*
X-199654Y-201345D01*
Y-198804D01*
X-199163Y-198792D01*
X-198724Y-198754D01*
X-198337Y-198691D01*
X-198001Y-198602D01*
X-197717Y-198489D01*
X-197484Y-198349D01*
X-197304Y-198185D01*
X-197174Y-197995D01*
X-197097Y-197781D01*
X-197071Y-197540D01*
Y-202609D01*
D02*
G37*
G36*
X-229889Y-200843D02*
X-229837Y-200972D01*
X-229674Y-201139D01*
X-229555Y-201268D01*
X-229428Y-201423D01*
Y-202180D01*
X-228852Y-203572D01*
X-227787Y-204637D01*
X-226395Y-205213D01*
X-224889D01*
X-223498Y-204637D01*
X-222432Y-203572D01*
X-221856Y-202180D01*
Y-200674D01*
X-222122Y-200031D01*
X-221046Y-199312D01*
X-204446Y-215912D01*
X-203606Y-216473D01*
X-202615Y-216670D01*
X-199812D01*
X-199690Y-216724D01*
X-199441Y-216731D01*
X-199141Y-218237D01*
X-198358Y-219409D01*
X-198659Y-220317D01*
X-198921Y-220679D01*
X-231904Y-220679D01*
X-232895Y-220877D01*
X-233735Y-221438D01*
X-234685Y-222387D01*
X-235246Y-223228D01*
X-235443Y-224219D01*
Y-240099D01*
X-236713Y-240743D01*
X-237031Y-240531D01*
X-238022Y-240333D01*
X-275515D01*
X-276506Y-240531D01*
X-276506Y-240531D01*
X-276506Y-240531D01*
X-276928Y-240813D01*
X-277346Y-241092D01*
X-277346Y-241092D01*
X-277346Y-241092D01*
X-277801Y-241547D01*
X-278081Y-241965D01*
X-278363Y-242387D01*
X-278363Y-242387D01*
X-278363Y-242388D01*
X-278453Y-242841D01*
X-278560Y-243378D01*
Y-255985D01*
X-278363Y-256977D01*
X-277801Y-257817D01*
X-277064Y-258554D01*
X-276224Y-259115D01*
X-275233Y-259312D01*
X-238161D01*
X-237170Y-259115D01*
X-236330Y-258554D01*
X-235196Y-258637D01*
X-234863Y-258804D01*
X-211824Y-281843D01*
X-211813Y-283378D01*
X-211972Y-283593D01*
X-223126D01*
X-240112Y-266607D01*
X-240952Y-266046D01*
X-241943Y-265849D01*
X-271877D01*
X-283811Y-253915D01*
Y-209210D01*
X-274737Y-200135D01*
X-273373Y-200484D01*
X-273243Y-201137D01*
X-272240Y-202637D01*
X-270740Y-203640D01*
X-268970Y-203992D01*
X-248470D01*
X-246700Y-203640D01*
X-245200Y-202637D01*
X-244197Y-201137D01*
X-243845Y-199367D01*
Y-194867D01*
X-244197Y-193097D01*
X-245200Y-191597D01*
X-245491Y-191402D01*
Y-190132D01*
X-245200Y-189937D01*
X-244197Y-188437D01*
X-244180Y-188348D01*
X-242801Y-187930D01*
X-229889Y-200843D01*
D02*
G37*
G36*
X-77264Y-204719D02*
X-77290Y-204478D01*
X-77367Y-204264D01*
X-77496Y-204074D01*
X-77677Y-203910D01*
X-77909Y-203771D01*
X-78194Y-203657D01*
X-78529Y-203568D01*
X-78917Y-203505D01*
X-79356Y-203467D01*
X-79847Y-203455D01*
Y-200915D01*
X-79356Y-200902D01*
X-78917Y-200864D01*
X-78529Y-200801D01*
X-78194Y-200712D01*
X-77909Y-200599D01*
X-77677Y-200459D01*
X-77496Y-200295D01*
X-77367Y-200106D01*
X-77290Y-199891D01*
X-77264Y-199651D01*
Y-204719D01*
D02*
G37*
G36*
X-553456Y-204036D02*
X-553553Y-204045D01*
X-553659Y-204072D01*
X-553775Y-204118D01*
X-553900Y-204182D01*
X-554035Y-204266D01*
X-554179Y-204368D01*
X-554494Y-204627D01*
X-554666Y-204785D01*
X-554848Y-204962D01*
X-556644Y-203166D01*
X-556467Y-202985D01*
X-556049Y-202497D01*
X-555947Y-202353D01*
X-555864Y-202218D01*
X-555799Y-202093D01*
X-555754Y-201978D01*
X-555727Y-201871D01*
X-555718Y-201774D01*
X-553456Y-204036D01*
D02*
G37*
G36*
X-70954Y-206588D02*
X-71169Y-206668D01*
X-71359Y-206801D01*
X-71523Y-206988D01*
X-71662Y-207229D01*
X-71776Y-207523D01*
X-71864Y-207870D01*
X-71927Y-208271D01*
X-71965Y-208725D01*
X-71978Y-209233D01*
X-74518D01*
X-74531Y-208725D01*
X-74569Y-208271D01*
X-74632Y-207870D01*
X-74720Y-207523D01*
X-74834Y-207229D01*
X-74973Y-206988D01*
X-75137Y-206801D01*
X-75327Y-206668D01*
X-75542Y-206588D01*
X-75782Y-206561D01*
X-70714D01*
X-70954Y-206588D01*
D02*
G37*
G36*
X-62212Y-180906D02*
X-50272Y-180906D01*
X-48431Y-182748D01*
X-48431Y-209279D01*
X-62312Y-209279D01*
X-63303Y-209476D01*
X-64144Y-210037D01*
X-65229Y-211123D01*
X-65791Y-211963D01*
X-65854Y-212280D01*
X-67149D01*
X-67162Y-212211D01*
X-68115Y-210786D01*
X-69330Y-209974D01*
X-69444Y-209297D01*
Y-209256D01*
X-69330Y-208580D01*
X-68115Y-207768D01*
X-67162Y-206342D01*
X-66828Y-204660D01*
Y-199710D01*
X-67162Y-198027D01*
X-68115Y-196602D01*
X-69541Y-195649D01*
X-71223Y-195314D01*
X-72031D01*
X-72156Y-194044D01*
X-71457Y-193905D01*
X-70122Y-193013D01*
X-69230Y-191678D01*
X-68917Y-190103D01*
Y-186059D01*
X-68818Y-185949D01*
X-68450Y-185602D01*
X-68430Y-185558D01*
X-68387Y-185538D01*
X-68349Y-185437D01*
X-63497Y-181054D01*
X-63488Y-181054D01*
X-63457Y-181018D01*
X-63346Y-180918D01*
X-63222Y-180879D01*
X-63055Y-180739D01*
X-62212Y-180906D01*
D02*
G37*
G36*
X-173301Y-211668D02*
X-173717Y-212102D01*
X-174395Y-212921D01*
X-174655Y-213305D01*
X-174864Y-213672D01*
X-175021Y-214023D01*
X-175125Y-214357D01*
X-175178Y-214675D01*
X-175179Y-214976D01*
X-175127Y-215260D01*
X-176688Y-209691D01*
X-176589Y-209928D01*
X-176447Y-210088D01*
X-176263Y-210170D01*
X-176036Y-210173D01*
X-175766Y-210098D01*
X-175454Y-209945D01*
X-175098Y-209714D01*
X-174700Y-209404D01*
X-174260Y-209017D01*
X-173776Y-208551D01*
X-173301Y-211668D01*
D02*
G37*
G36*
X-39308Y5784D02*
X-38317Y4793D01*
Y-215961D01*
X-43225Y-220869D01*
X-62228Y-220869D01*
X-63398Y-219698D01*
Y-212954D01*
X-62312Y-211869D01*
X-46986Y-211869D01*
X-45841Y-210723D01*
X-45841Y-181676D01*
X-49200Y-178317D01*
X-62115Y-178317D01*
X-62166Y-178343D01*
X-62587Y-178605D01*
X-63050Y-178939D01*
X-64106Y-179826D01*
X-65292Y-177474D01*
X-64801Y-177014D01*
X-64020Y-176174D01*
X-63729Y-175793D01*
X-63505Y-175439D01*
X-63398Y-175218D01*
Y-153817D01*
X-61806Y-152225D01*
X-50457D01*
X-48475Y-150243D01*
Y-120675D01*
X-50656Y-118494D01*
X-60273D01*
X-61298Y-117469D01*
Y-109519D01*
X-59005Y-107226D01*
X-46399D01*
X-45841Y-106668D01*
X-45841Y-91065D01*
X-47275Y-89631D01*
X-62878D01*
X-63398Y-89110D01*
X-63398Y-81763D01*
X-62266Y-80631D01*
X-50757D01*
X-43545Y-73419D01*
X-43545Y-50919D01*
X-47430Y-47034D01*
X-59986D01*
X-59965Y-47057D01*
X-59994Y-47034D01*
X-61354D01*
X-61699Y-47212D01*
X-62129Y-47482D01*
X-62598Y-47821D01*
X-63656Y-48710D01*
X-65290Y-46763D01*
X-64774Y-46280D01*
X-63959Y-45409D01*
X-63659Y-45021D01*
X-63432Y-44664D01*
X-63398Y-44594D01*
Y-38318D01*
X-63159Y-38079D01*
X-49552D01*
X-49200Y-37727D01*
Y-13746D01*
X-50478Y-12468D01*
X-78644D01*
X-78969Y-12143D01*
Y4768D01*
X-77953Y5784D01*
X-39308Y5784D01*
D02*
G37*
G36*
X-71965Y-209828D02*
X-71927Y-210282D01*
X-71864Y-210683D01*
X-71776Y-211030D01*
X-71662Y-211324D01*
X-71523Y-211565D01*
X-71359Y-211752D01*
X-71169Y-211886D01*
X-70954Y-211966D01*
X-70714Y-211992D01*
X-75782D01*
X-75542Y-211966D01*
X-75327Y-211886D01*
X-75137Y-211752D01*
X-74973Y-211565D01*
X-74834Y-211324D01*
X-74720Y-211030D01*
X-74632Y-210683D01*
X-74569Y-210282D01*
X-74531Y-209828D01*
X-74518Y-209320D01*
X-71978D01*
X-71965Y-209828D01*
D02*
G37*
G36*
X-507307Y-50604D02*
Y-183073D01*
X-504700Y-185673D01*
X-448314Y-185673D01*
X-441370Y-192617D01*
X-417538D01*
X-416220Y-193935D01*
Y-200299D01*
X-417538Y-201617D01*
X-443488D01*
X-445092Y-203279D01*
Y-211124D01*
X-446012Y-212043D01*
X-454644D01*
X-455680Y-211006D01*
Y-203707D01*
X-460137Y-199249D01*
X-467437D01*
X-515957Y-199250D01*
X-516930Y-198276D01*
X-516930Y-50672D01*
X-516095Y-49836D01*
X-508074D01*
X-507307Y-50604D01*
D02*
G37*
G36*
X-545870Y-211619D02*
X-545967Y-211628D01*
X-546074Y-211655D01*
X-546189Y-211701D01*
X-546315Y-211765D01*
X-546449Y-211849D01*
X-546593Y-211951D01*
X-546909Y-212211D01*
X-547081Y-212369D01*
X-547262Y-212545D01*
X-549058Y-210749D01*
X-548881Y-210568D01*
X-548463Y-210080D01*
X-548362Y-209936D01*
X-548278Y-209802D01*
X-548214Y-209676D01*
X-548168Y-209561D01*
X-548141Y-209454D01*
X-548132Y-209357D01*
X-545870Y-211619D01*
D02*
G37*
G36*
X-149943Y-215343D02*
X-149969Y-215104D01*
X-150047Y-214890D01*
X-150177Y-214702D01*
X-150358Y-214538D01*
X-150592Y-214400D01*
X-150878Y-214286D01*
X-151215Y-214198D01*
X-151604Y-214135D01*
X-152045Y-214098D01*
X-152538Y-214085D01*
Y-211545D01*
X-152045Y-211532D01*
X-151604Y-211495D01*
X-151215Y-211432D01*
X-150878Y-211344D01*
X-150592Y-211230D01*
X-150358Y-211092D01*
X-150177Y-210928D01*
X-150047Y-210740D01*
X-149969Y-210526D01*
X-149943Y-210287D01*
Y-215343D01*
D02*
G37*
G36*
X-197071Y-216614D02*
X-197097Y-216374D01*
X-197174Y-216159D01*
X-197304Y-215970D01*
X-197484Y-215805D01*
X-197717Y-215666D01*
X-198001Y-215553D01*
X-198337Y-215464D01*
X-198724Y-215401D01*
X-199163Y-215363D01*
X-199654Y-215350D01*
Y-212810D01*
X-199163Y-212798D01*
X-198724Y-212760D01*
X-198337Y-212696D01*
X-198001Y-212608D01*
X-197717Y-212494D01*
X-197484Y-212355D01*
X-197304Y-212191D01*
X-197174Y-212001D01*
X-197097Y-211786D01*
X-197071Y-211546D01*
Y-216614D01*
D02*
G37*
G36*
X-132654Y-215697D02*
X-132672Y-215764D01*
X-132687Y-215870D01*
X-132701Y-216016D01*
X-132734Y-216990D01*
X-132738Y-217711D01*
X-134738D01*
X-134841Y-215669D01*
X-132635D01*
X-132654Y-215697D01*
D02*
G37*
G36*
X-26562Y567D02*
Y-255897D01*
X-54258Y-283593D01*
X-68526D01*
X-68684Y-283378D01*
X-68674Y-281844D01*
X-67775Y-280944D01*
X-67213Y-280104D01*
X-67016Y-279113D01*
Y-234748D01*
X-67097Y-234345D01*
X-67147Y-233936D01*
X-67194Y-233852D01*
X-67213Y-233757D01*
X-67241Y-233716D01*
Y-227767D01*
X-67554Y-226192D01*
X-68446Y-224857D01*
X-69456Y-224182D01*
X-69504Y-223465D01*
X-69453Y-222975D01*
X-69399Y-222809D01*
X-68115Y-221952D01*
X-67162Y-220526D01*
X-67140Y-220415D01*
X-65845D01*
X-65791Y-220689D01*
X-65229Y-221529D01*
X-64059Y-222700D01*
X-63218Y-223261D01*
X-62228Y-223458D01*
X-43225Y-223458D01*
X-42234Y-223261D01*
X-41393Y-222700D01*
X-36486Y-217792D01*
X-35924Y-216952D01*
X-35727Y-215961D01*
Y4793D01*
X-35924Y5785D01*
X-36486Y6625D01*
X-37477Y7616D01*
X-38317Y8177D01*
X-39308Y8374D01*
X-77953Y8374D01*
X-78944Y8177D01*
X-79784Y7616D01*
X-80801Y6600D01*
X-81362Y5759D01*
X-81559Y4768D01*
Y-12143D01*
X-81362Y-13134D01*
X-81010Y-13661D01*
X-80801Y-13974D01*
X-80476Y-14299D01*
X-80162Y-14508D01*
X-79636Y-14860D01*
X-78644Y-15057D01*
X-51789D01*
Y-35489D01*
X-63159D01*
X-63159Y-35489D01*
X-63159Y-35489D01*
X-63697Y-35596D01*
X-64150Y-35686D01*
X-64150Y-35686D01*
X-64150Y-35686D01*
X-64572Y-35968D01*
X-64990Y-36247D01*
X-64990Y-36247D01*
X-64990Y-36247D01*
X-65229Y-36487D01*
X-65509Y-36905D01*
X-65791Y-37327D01*
X-65791Y-37327D01*
X-65791Y-37327D01*
X-65949Y-38125D01*
X-66684Y-38304D01*
X-67248Y-38293D01*
X-68115Y-36996D01*
X-69541Y-36043D01*
X-71223Y-35708D01*
X-75273D01*
X-76955Y-36043D01*
X-78381Y-36996D01*
X-78651Y-37399D01*
X-85571D01*
X-86396Y-36139D01*
X-86274Y-35714D01*
X-85918Y-35476D01*
X-84893Y-34451D01*
X-84332Y-33611D01*
X-84135Y-32620D01*
Y2959D01*
X-84332Y3950D01*
X-84893Y4791D01*
X-85671Y5569D01*
X-86511Y6130D01*
X-87502Y6327D01*
X-94638D01*
X-95629Y6130D01*
X-96469Y5569D01*
X-97656Y4382D01*
X-98217Y3542D01*
X-98270Y3276D01*
X-99565D01*
X-99589Y3394D01*
X-100541Y4820D01*
X-101967Y5773D01*
X-103649Y6108D01*
X-104770D01*
X-105016Y6701D01*
X-106081Y7765D01*
X-107472Y8342D01*
X-108979D01*
X-110370Y7765D01*
X-111435Y6701D01*
X-112011Y5309D01*
Y3803D01*
X-111787Y3261D01*
X-112060Y1888D01*
X-112309Y1882D01*
X-112431Y1827D01*
X-125012D01*
X-126003Y1630D01*
X-126843Y1069D01*
X-150569Y-22658D01*
X-151131Y-23498D01*
X-151328Y-24489D01*
Y-33967D01*
X-151490Y-34075D01*
X-152111Y-35005D01*
X-152329Y-36102D01*
Y-39021D01*
X-152434Y-39114D01*
X-153599Y-39583D01*
X-154166Y-39204D01*
X-155263Y-38986D01*
X-160213D01*
X-161310Y-39204D01*
X-162130Y-39752D01*
X-162661Y-39626D01*
X-163400Y-39276D01*
Y-29085D01*
X-163597Y-28094D01*
X-164159Y-27254D01*
X-168710Y-22703D01*
X-169550Y-22141D01*
X-170541Y-21944D01*
X-171830D01*
X-172868Y-20674D01*
X-172735Y-20006D01*
Y-15056D01*
X-173070Y-13374D01*
X-173332Y-12981D01*
X-173188Y-12712D01*
X-172328Y-11790D01*
X-171337Y-11987D01*
X-144568D01*
X-143577Y-11790D01*
X-142737Y-11228D01*
X-120832Y10676D01*
X-36672D01*
X-26562Y567D01*
D02*
G37*
G36*
X-155449Y-221948D02*
X-155381Y-222739D01*
X-155321Y-223081D01*
X-155243Y-223389D01*
X-155149Y-223661D01*
X-155037Y-223899D01*
X-154908Y-224101D01*
X-154762Y-224268D01*
X-154599Y-224401D01*
X-158857D01*
X-158694Y-224268D01*
X-158548Y-224101D01*
X-158419Y-223899D01*
X-158307Y-223661D01*
X-158213Y-223389D01*
X-158135Y-223081D01*
X-158075Y-222739D01*
X-158032Y-222361D01*
X-157998Y-221501D01*
X-155458D01*
X-155449Y-221948D01*
D02*
G37*
G36*
X-127809Y-223022D02*
X-127070Y-223650D01*
X-126743Y-223879D01*
X-126446Y-224052D01*
X-126178Y-224168D01*
X-125938Y-224228D01*
X-125728Y-224231D01*
X-125546Y-224177D01*
X-125393Y-224067D01*
X-128191Y-226865D01*
X-128081Y-226712D01*
X-128027Y-226531D01*
X-128031Y-226320D01*
X-128090Y-226080D01*
X-128206Y-225812D01*
X-128379Y-225515D01*
X-128608Y-225189D01*
X-128894Y-224834D01*
X-129636Y-224037D01*
X-128222Y-222623D01*
X-127809Y-223022D01*
D02*
G37*
G36*
X-105414Y-224761D02*
X-104473Y-225561D01*
X-104059Y-225851D01*
X-103684Y-226067D01*
X-103348Y-226210D01*
X-103049Y-226278D01*
X-102789Y-226274D01*
X-102567Y-226196D01*
X-102383Y-226044D01*
X-105703Y-229848D01*
X-105573Y-229642D01*
X-105513Y-229402D01*
X-105522Y-229128D01*
X-105600Y-228820D01*
X-105748Y-228478D01*
X-105965Y-228102D01*
X-106252Y-227691D01*
X-106608Y-227247D01*
X-107529Y-226255D01*
X-105942Y-224250D01*
X-105414Y-224761D01*
D02*
G37*
G36*
X-175104Y-225955D02*
X-175034Y-226132D01*
X-174916Y-226289D01*
X-174752Y-226425D01*
X-174541Y-226539D01*
X-174284Y-226633D01*
X-173979Y-226706D01*
X-173627Y-226759D01*
X-173229Y-226790D01*
X-172783Y-226800D01*
Y-229340D01*
X-173229Y-229351D01*
X-173627Y-229382D01*
X-173979Y-229434D01*
X-174284Y-229507D01*
X-174541Y-229601D01*
X-174752Y-229716D01*
X-174916Y-229852D01*
X-175034Y-230008D01*
X-175104Y-230186D01*
X-175127Y-230384D01*
Y-225757D01*
X-175104Y-225955D01*
D02*
G37*
G36*
X-123375Y-226348D02*
X-123429Y-226530D01*
X-123426Y-226740D01*
X-123366Y-226980D01*
X-123250Y-227248D01*
X-123077Y-227545D01*
X-122848Y-227872D01*
X-122562Y-228227D01*
X-121820Y-229023D01*
X-123235Y-230438D01*
X-123647Y-230039D01*
X-124387Y-229410D01*
X-124713Y-229181D01*
X-125010Y-229008D01*
X-125278Y-228892D01*
X-125518Y-228832D01*
X-125729Y-228829D01*
X-125910Y-228883D01*
X-126063Y-228993D01*
X-123265Y-226195D01*
X-123375Y-226348D01*
D02*
G37*
G36*
X-154406Y-225626D02*
X-154474Y-225858D01*
X-154472Y-226126D01*
X-154397Y-226430D01*
X-154250Y-226771D01*
X-154031Y-227148D01*
X-153741Y-227562D01*
X-153379Y-228013D01*
X-152439Y-229023D01*
X-154235Y-230820D01*
X-154758Y-230314D01*
X-155696Y-229517D01*
X-156110Y-229227D01*
X-156487Y-229008D01*
X-156828Y-228862D01*
X-157133Y-228787D01*
X-157401Y-228784D01*
X-157632Y-228852D01*
X-157827Y-228993D01*
X-154265Y-225431D01*
X-154406Y-225626D01*
D02*
G37*
G36*
X-150945Y-231835D02*
X-150907Y-232267D01*
X-150844Y-232648D01*
X-150755Y-232978D01*
X-150641Y-233258D01*
X-150501Y-233486D01*
X-150336Y-233664D01*
X-150145Y-233791D01*
X-149929Y-233867D01*
X-149688Y-233893D01*
X-154768D01*
X-154527Y-233867D01*
X-154311Y-233791D01*
X-154120Y-233664D01*
X-153955Y-233486D01*
X-153816Y-233258D01*
X-153701Y-232978D01*
X-153612Y-232648D01*
X-153549Y-232267D01*
X-153511Y-231835D01*
X-153498Y-231353D01*
X-150958D01*
X-150945Y-231835D01*
D02*
G37*
G36*
X-109348Y-205306D02*
X-109385Y-205491D01*
X-109089Y-206978D01*
X-108247Y-208238D01*
X-106987Y-209080D01*
X-105500Y-209376D01*
X-96574D01*
X-91095Y-214855D01*
Y-219135D01*
X-90782Y-220709D01*
X-89890Y-222044D01*
X-88555Y-222936D01*
X-86980Y-223250D01*
X-85107D01*
X-78971Y-229386D01*
Y-233716D01*
X-78999Y-233757D01*
X-79018Y-233852D01*
X-79065Y-233936D01*
X-79116Y-234345D01*
X-79196Y-234748D01*
Y-238572D01*
X-89959D01*
X-90950Y-238770D01*
X-91790Y-239331D01*
X-92681Y-240222D01*
X-93243Y-241063D01*
X-93323Y-241466D01*
X-94536Y-241503D01*
X-94622Y-241487D01*
X-95563Y-240079D01*
X-96989Y-239126D01*
X-97924Y-238940D01*
X-98192Y-237592D01*
X-97570Y-237176D01*
X-96678Y-235841D01*
X-96365Y-234267D01*
Y-227767D01*
X-96678Y-226192D01*
X-97570Y-224857D01*
X-98905Y-223965D01*
X-100480Y-223652D01*
X-103980D01*
X-104480Y-223751D01*
X-104490Y-223742D01*
X-104987Y-223262D01*
X-105054Y-223236D01*
X-105089Y-223172D01*
X-105179Y-223147D01*
X-108567Y-219760D01*
Y-211359D01*
X-108764Y-210368D01*
X-109325Y-209528D01*
X-116178Y-202675D01*
X-115652Y-201405D01*
X-113249D01*
X-109348Y-205306D01*
D02*
G37*
G36*
X-447501Y-228802D02*
X-447349Y-229666D01*
X-447095Y-230428D01*
X-446739Y-231088D01*
X-446282Y-231647D01*
X-445723Y-232104D01*
X-445063Y-232460D01*
X-444301Y-232714D01*
X-443437Y-232866D01*
X-442472Y-232917D01*
Y-237997D01*
X-443437Y-238048D01*
X-444301Y-238200D01*
X-445063Y-238454D01*
X-445723Y-238810D01*
X-446282Y-239267D01*
X-446739Y-239826D01*
X-447095Y-240486D01*
X-447349Y-241248D01*
X-447501Y-242112D01*
X-447552Y-243077D01*
X-452632Y-235457D01*
X-447552Y-227837D01*
X-447501Y-228802D01*
D02*
G37*
G36*
X-104569Y-239976D02*
X-103641Y-240763D01*
X-103235Y-241045D01*
X-102868Y-241253D01*
X-102539Y-241387D01*
X-102249Y-241448D01*
X-101998Y-241434D01*
X-101786Y-241346D01*
X-101613Y-241184D01*
X-104724Y-245196D01*
X-104608Y-244976D01*
X-104570Y-244715D01*
X-104608Y-244411D01*
X-104723Y-244067D01*
X-104916Y-243680D01*
X-105185Y-243252D01*
X-105532Y-242782D01*
X-105955Y-242270D01*
X-107033Y-241121D01*
X-105091Y-239472D01*
X-104569Y-239976D01*
D02*
G37*
G36*
X-237838Y-243107D02*
Y-256399D01*
X-238161Y-256723D01*
X-275233D01*
X-275970Y-255985D01*
Y-243378D01*
X-275515Y-242923D01*
X-238022D01*
X-237838Y-243107D01*
D02*
G37*
G36*
X-123276Y-254372D02*
X-123236Y-254423D01*
X-123170Y-254467D01*
X-123077Y-254506D01*
X-122957Y-254538D01*
X-122811Y-254565D01*
X-122639Y-254585D01*
X-122214Y-254609D01*
X-121962Y-254612D01*
Y-256612D01*
X-122214Y-256615D01*
X-122811Y-256660D01*
X-122957Y-256686D01*
X-123077Y-256719D01*
X-123170Y-256757D01*
X-123236Y-256802D01*
X-123276Y-256852D01*
X-123289Y-256908D01*
Y-254316D01*
X-123276Y-254372D01*
D02*
G37*
G36*
X-531431Y-264738D02*
X-531354Y-264954D01*
X-531226Y-265145D01*
X-531046Y-265310D01*
X-530814Y-265450D01*
X-530532Y-265564D01*
X-530197Y-265653D01*
X-529812Y-265716D01*
X-529375Y-265754D01*
X-528886Y-265767D01*
Y-268307D01*
X-529375Y-268320D01*
X-529812Y-268358D01*
X-530197Y-268421D01*
X-530532Y-268510D01*
X-530814Y-268624D01*
X-531046Y-268764D01*
X-531226Y-268929D01*
X-531354Y-269120D01*
X-531431Y-269336D01*
X-531457Y-269577D01*
Y-264497D01*
X-531431Y-264738D01*
D02*
G37*
G36*
X-190212Y-223269D02*
X-188887Y-224594D01*
Y-262055D01*
X-184246Y-266695D01*
X-91478Y-266695D01*
X-90850Y-266067D01*
Y-242054D01*
X-89959Y-241162D01*
X-77171D01*
X-76606Y-240597D01*
Y-234748D01*
X-75336Y-234109D01*
X-74593Y-234606D01*
X-73106Y-234901D01*
X-71620Y-234606D01*
X-70876Y-234109D01*
X-69606Y-234748D01*
Y-279113D01*
X-70505Y-280012D01*
X-209992D01*
X-233186Y-256819D01*
X-233186Y-247723D01*
X-232853Y-247390D01*
Y-224219D01*
X-231904Y-223269D01*
X-190212Y-223269D01*
D02*
G37*
%LPC*%
G36*
X-109690Y-26387D02*
Y-27668D01*
X-109560Y-27492D01*
X-109488Y-27264D01*
X-109488Y-26999D01*
X-109559Y-26699D01*
X-109690Y-26387D01*
D02*
G37*
G36*
X-228764Y-249377D02*
X-229755Y-249574D01*
X-230596Y-250136D01*
X-230851Y-250391D01*
X-231413Y-251232D01*
X-231610Y-252223D01*
X-231413Y-253214D01*
X-230851Y-254054D01*
X-230011Y-254615D01*
X-229020Y-254812D01*
X-228029Y-254615D01*
X-227189Y-254054D01*
X-226933Y-253798D01*
X-226372Y-252958D01*
X-226175Y-251967D01*
X-226372Y-250976D01*
X-226933Y-250136D01*
X-227773Y-249574D01*
X-228764Y-249377D01*
D02*
G37*
%LPD*%
G36*
X-481841Y-74615D02*
X-481866Y-74373D01*
X-481944Y-74158D01*
X-482072Y-73967D01*
X-482252Y-73802D01*
X-482483Y-73662D01*
X-482766Y-73548D01*
X-483100Y-73459D01*
X-483486Y-73396D01*
X-483923Y-73358D01*
X-484411Y-73345D01*
Y-70805D01*
X-483923Y-70792D01*
X-483486Y-70754D01*
X-483100Y-70690D01*
X-482766Y-70602D01*
X-482483Y-70487D01*
X-482252Y-70348D01*
X-482072Y-70182D01*
X-481944Y-69992D01*
X-481866Y-69776D01*
X-481841Y-69535D01*
Y-74615D01*
D02*
G37*
G36*
X-489308Y-69776D02*
X-489231Y-69992D01*
X-489103Y-70182D01*
X-488923Y-70348D01*
X-488691Y-70487D01*
X-488409Y-70602D01*
X-488074Y-70690D01*
X-487689Y-70754D01*
X-487252Y-70792D01*
X-486763Y-70805D01*
Y-73345D01*
X-487252Y-73358D01*
X-487689Y-73396D01*
X-488074Y-73459D01*
X-488409Y-73548D01*
X-488691Y-73662D01*
X-488923Y-73802D01*
X-489103Y-73967D01*
X-489231Y-74158D01*
X-489308Y-74373D01*
X-489334Y-74615D01*
Y-69535D01*
X-489308Y-69776D01*
D02*
G37*
G36*
X-481841Y-91260D02*
X-481866Y-91019D01*
X-481944Y-90803D01*
X-482072Y-90613D01*
X-482252Y-90448D01*
X-482483Y-90308D01*
X-482766Y-90194D01*
X-483100Y-90105D01*
X-483486Y-90041D01*
X-483923Y-90003D01*
X-484411Y-89990D01*
Y-87450D01*
X-483923Y-87438D01*
X-483486Y-87400D01*
X-483100Y-87336D01*
X-482766Y-87247D01*
X-482483Y-87133D01*
X-482252Y-86993D01*
X-482072Y-86828D01*
X-481944Y-86637D01*
X-481866Y-86422D01*
X-481841Y-86180D01*
Y-91260D01*
D02*
G37*
G36*
X-489308Y-86422D02*
X-489231Y-86637D01*
X-489103Y-86828D01*
X-488923Y-86993D01*
X-488691Y-87133D01*
X-488409Y-87247D01*
X-488074Y-87336D01*
X-487689Y-87400D01*
X-487252Y-87438D01*
X-486763Y-87450D01*
Y-89990D01*
X-487252Y-90003D01*
X-487689Y-90041D01*
X-488074Y-90105D01*
X-488409Y-90194D01*
X-488691Y-90308D01*
X-488923Y-90448D01*
X-489103Y-90613D01*
X-489231Y-90803D01*
X-489308Y-91019D01*
X-489334Y-91260D01*
Y-86180D01*
X-489308Y-86422D01*
D02*
G37*
G36*
X-481841Y-107906D02*
X-481866Y-107664D01*
X-481944Y-107449D01*
X-482072Y-107258D01*
X-482252Y-107093D01*
X-482483Y-106953D01*
X-482766Y-106839D01*
X-483100Y-106750D01*
X-483486Y-106687D01*
X-483923Y-106649D01*
X-484411Y-106636D01*
Y-104096D01*
X-483923Y-104083D01*
X-483486Y-104045D01*
X-483100Y-103982D01*
X-482766Y-103893D01*
X-482483Y-103778D01*
X-482252Y-103639D01*
X-482072Y-103474D01*
X-481944Y-103283D01*
X-481866Y-103067D01*
X-481841Y-102826D01*
Y-107906D01*
D02*
G37*
G36*
X-489308Y-103067D02*
X-489231Y-103283D01*
X-489103Y-103474D01*
X-488923Y-103639D01*
X-488691Y-103778D01*
X-488409Y-103893D01*
X-488074Y-103982D01*
X-487689Y-104045D01*
X-487252Y-104083D01*
X-486763Y-104096D01*
Y-106636D01*
X-487252Y-106649D01*
X-487689Y-106687D01*
X-488074Y-106750D01*
X-488409Y-106839D01*
X-488691Y-106953D01*
X-488923Y-107093D01*
X-489103Y-107258D01*
X-489231Y-107449D01*
X-489308Y-107664D01*
X-489334Y-107906D01*
Y-102826D01*
X-489308Y-103067D01*
D02*
G37*
G36*
X-481841Y-124551D02*
X-481866Y-124310D01*
X-481944Y-124094D01*
X-482072Y-123904D01*
X-482252Y-123738D01*
X-482483Y-123599D01*
X-482766Y-123484D01*
X-483100Y-123396D01*
X-483486Y-123332D01*
X-483923Y-123294D01*
X-484411Y-123281D01*
Y-120741D01*
X-483923Y-120729D01*
X-483486Y-120690D01*
X-483100Y-120627D01*
X-482766Y-120538D01*
X-482483Y-120424D01*
X-482252Y-120284D01*
X-482072Y-120119D01*
X-481944Y-119929D01*
X-481866Y-119713D01*
X-481841Y-119471D01*
Y-124551D01*
D02*
G37*
G36*
X-489308Y-119713D02*
X-489231Y-119929D01*
X-489103Y-120119D01*
X-488923Y-120284D01*
X-488691Y-120424D01*
X-488409Y-120538D01*
X-488074Y-120627D01*
X-487689Y-120690D01*
X-487252Y-120729D01*
X-486763Y-120741D01*
Y-123281D01*
X-487252Y-123294D01*
X-487689Y-123332D01*
X-488074Y-123396D01*
X-488409Y-123484D01*
X-488691Y-123599D01*
X-488923Y-123738D01*
X-489103Y-123904D01*
X-489231Y-124094D01*
X-489308Y-124310D01*
X-489334Y-124551D01*
Y-119471D01*
X-489308Y-119713D01*
D02*
G37*
G36*
X-473903Y-210893D02*
X-473977Y-210831D01*
X-474072Y-210775D01*
X-474186Y-210725D01*
X-474320Y-210683D01*
X-474474Y-210646D01*
X-474648Y-210617D01*
X-475055Y-210577D01*
X-475288Y-210567D01*
X-475541Y-210564D01*
Y-208024D01*
X-475288Y-208021D01*
X-474648Y-207971D01*
X-474474Y-207942D01*
X-474320Y-207905D01*
X-474186Y-207862D01*
X-474072Y-207813D01*
X-473977Y-207757D01*
X-473903Y-207694D01*
Y-210893D01*
D02*
G37*
G36*
X-469989Y-209058D02*
X-469952Y-209147D01*
X-469897Y-209247D01*
X-469825Y-209359D01*
X-469735Y-209483D01*
X-469501Y-209766D01*
X-469196Y-210096D01*
X-469016Y-210278D01*
X-470488Y-212399D01*
X-470669Y-212223D01*
X-471006Y-211933D01*
X-471161Y-211818D01*
X-471308Y-211723D01*
X-471446Y-211649D01*
X-471576Y-211594D01*
X-471697Y-211560D01*
X-471809Y-211545D01*
X-471913Y-211551D01*
X-470007Y-208982D01*
X-469989Y-209058D01*
D02*
G37*
G36*
X-500972Y-217599D02*
X-501148Y-217780D01*
X-501440Y-218116D01*
X-501556Y-218271D01*
X-501653Y-218418D01*
X-501730Y-218556D01*
X-501787Y-218685D01*
X-501825Y-218805D01*
X-501843Y-218917D01*
X-501842Y-219020D01*
X-504331Y-217010D01*
X-504247Y-216994D01*
X-504152Y-216959D01*
X-504046Y-216907D01*
X-503929Y-216836D01*
X-503801Y-216747D01*
X-503513Y-216516D01*
X-503182Y-216213D01*
X-503000Y-216035D01*
X-500972Y-217599D01*
D02*
G37*
G36*
X-472720Y-218873D02*
X-472658Y-219834D01*
X-472635Y-219937D01*
X-472608Y-220011D01*
X-472578Y-220056D01*
X-472544Y-220070D01*
X-475440D01*
X-475406Y-220056D01*
X-475376Y-220011D01*
X-475349Y-219937D01*
X-475326Y-219834D01*
X-475307Y-219701D01*
X-475278Y-219346D01*
X-475262Y-218592D01*
X-472722D01*
X-472720Y-218873D01*
D02*
G37*
G36*
X-524003Y-218028D02*
X-523966Y-218500D01*
X-523903Y-218917D01*
X-523816Y-219278D01*
X-523703Y-219584D01*
X-523565Y-219834D01*
X-523402Y-220028D01*
X-523214Y-220167D01*
X-523001Y-220250D01*
X-522763Y-220278D01*
X-527809D01*
X-527571Y-220250D01*
X-527358Y-220167D01*
X-527170Y-220028D01*
X-527007Y-219834D01*
X-526869Y-219584D01*
X-526757Y-219278D01*
X-526669Y-218917D01*
X-526606Y-218500D01*
X-526569Y-218028D01*
X-526556Y-217500D01*
X-524016D01*
X-524003Y-218028D01*
D02*
G37*
G36*
X-504376Y-221554D02*
X-504479Y-221553D01*
X-504591Y-221571D01*
X-504711Y-221608D01*
X-504841Y-221666D01*
X-504978Y-221743D01*
X-505125Y-221840D01*
X-505280Y-221956D01*
X-505616Y-222248D01*
X-505797Y-222424D01*
X-507361Y-220396D01*
X-507183Y-220214D01*
X-506880Y-219883D01*
X-506648Y-219594D01*
X-506560Y-219467D01*
X-506489Y-219350D01*
X-506437Y-219244D01*
X-506402Y-219149D01*
X-506386Y-219065D01*
X-504376Y-221554D01*
D02*
G37*
G36*
X-520741Y-237367D02*
X-521243Y-237888D01*
X-522034Y-238822D01*
X-522321Y-239235D01*
X-522537Y-239613D01*
X-522680Y-239954D01*
X-522752Y-240259D01*
Y-240529D01*
X-522680Y-240762D01*
X-522537Y-240960D01*
X-526129Y-237367D01*
X-525931Y-237511D01*
X-525698Y-237583D01*
X-525428D01*
X-525123Y-237511D01*
X-524782Y-237367D01*
X-524404Y-237152D01*
X-523991Y-236865D01*
X-523542Y-236505D01*
X-522537Y-235571D01*
X-520741Y-237367D01*
D02*
G37*
D10*
X-130591Y-178815D02*
X-124738D01*
X-236641Y-181864D02*
Y-160396D01*
X-236793Y-182016D02*
X-236641Y-181864D01*
X-250720Y-146317D02*
X-236641Y-160396D01*
X-549098Y-287732D02*
X-425151D01*
X-570875Y-265955D02*
Y-219193D01*
Y-265955D02*
X-549098Y-287732D01*
X-113172Y-103031D02*
X-106975Y-109228D01*
X-83161D01*
X-76478Y-102545D01*
X-113172Y-103031D02*
Y-95693D01*
X-124738Y-84127D02*
X-113172Y-95693D01*
X-124738Y-84127D02*
Y-77577D01*
X-109055Y-75247D02*
X-102223D01*
X-116725Y-67577D02*
X-109055Y-75247D01*
X-124738Y-67577D02*
X-116725D01*
X-102223Y-75247D02*
X-101982Y-75488D01*
X-73032Y-55468D02*
X-61373Y-44937D01*
X-74782Y-56279D02*
X-73032Y-55468D01*
X-61373Y-44937D02*
X-59348Y-42579D01*
X-144568Y-9397D02*
X-121905Y13266D01*
X-35599D02*
X-23973Y1640D01*
X-121905Y13266D02*
X-35599D01*
X-425151Y-287732D02*
X-309136Y-171717D01*
X-511476Y-267037D02*
X-502460Y-276053D01*
X-436713D02*
X-313526Y-152866D01*
X-502460Y-276053D02*
X-436713D01*
X-536568Y-281992D02*
X-430766D01*
X-558918Y-259642D02*
X-536568Y-281992D01*
X-430766D02*
X-307791Y-159017D01*
X-570875Y-219193D02*
X-553433Y-201752D01*
X-474212Y-242319D02*
X-470260D01*
X-464820Y-236879D01*
Y-216271D01*
X-471695Y-209396D02*
X-464820Y-216271D01*
X-517473Y-209294D02*
X-472271D01*
X-525286Y-217107D02*
X-517473Y-209294D01*
X-525286Y-225043D02*
Y-217107D01*
X-558918Y-222405D02*
X-545848Y-209335D01*
X-558918Y-259642D02*
Y-222405D01*
X-285095Y-143804D02*
X-284059D01*
X-303874Y-125025D02*
X-285095Y-143804D01*
X-303874Y-125025D02*
Y-94852D01*
X-258720Y-146317D02*
X-250720D01*
X-499807Y-214638D02*
X-477946D01*
X-525756Y-240587D02*
X-499807Y-214638D01*
X-525756Y-242337D02*
Y-240587D01*
X-212659Y-120938D02*
X-205753Y-127844D01*
Y-152000D02*
X-199697Y-158057D01*
X-205753Y-152000D02*
Y-127844D01*
X-110288Y-90500D02*
Y-80989D01*
X-118680Y-72597D02*
X-110288Y-80989D01*
Y-90500D02*
X-102230Y-98558D01*
Y-99799D02*
Y-98558D01*
X-150857Y-108374D02*
Y-99792D01*
X-152228Y-239612D02*
Y-231030D01*
X-156728Y-226530D02*
X-152228Y-231030D01*
X-156728Y-226530D02*
Y-216667D01*
X-103926Y-242432D02*
X-103885D01*
X-100696Y-245662D02*
Y-245621D01*
X-111058Y-235300D02*
X-103926Y-242432D01*
X-103885D02*
X-100696Y-245621D01*
X-111058Y-235300D02*
Y-230194D01*
X-121308Y-208815D02*
X-116585Y-213538D01*
Y-224667D02*
X-111058Y-230194D01*
X-116585Y-224667D02*
Y-213538D01*
X-102230Y-231017D02*
Y-229759D01*
X-111156Y-220832D02*
Y-211359D01*
Y-220832D02*
X-102230Y-229759D01*
X-217916Y-42159D02*
X-217552Y-41795D01*
X-218017Y-42261D02*
X-217916Y-42159D01*
X-230468Y-63420D02*
Y9901D01*
Y-65537D02*
Y-63420D01*
X-23973Y-256970D02*
Y1640D01*
X-53185Y-286182D02*
X-23973Y-256970D01*
X-224199Y-286182D02*
X-53185D01*
X-241943Y-268438D02*
X-224199Y-286182D01*
X-103997Y-133349D02*
X-100696Y-130049D01*
X-120510Y-150312D02*
X-104155Y-133957D01*
X-104763Y-133349D02*
X-103997D01*
X-105674Y-28643D02*
Y-28151D01*
X-107088Y-28643D02*
X-105674D01*
X-130032D02*
X-107088D01*
X-116377Y-17448D02*
Y-9360D01*
Y-17448D02*
X-105674Y-28151D01*
X-133738Y-38577D02*
Y-32349D01*
X-130032Y-28643D01*
X-125012Y-763D02*
X-105674D01*
X-148738Y-24489D02*
X-125012Y-763D01*
X-148738Y-38577D02*
Y-24489D01*
X-171337Y-9397D02*
X-144568D01*
X-142754Y-150312D02*
X-120510D01*
X-225624Y-89255D02*
X-194747D01*
X-193055Y-87563D01*
X-239664Y-75215D02*
X-225624Y-89255D01*
X-193055Y-98228D02*
Y-87563D01*
X-98451Y-155035D02*
X-97332D01*
X-100968Y-157551D02*
X-98451Y-155035D01*
X-297789Y-8993D02*
X-296822D01*
X-286898Y-18917D01*
X-129995Y-157596D02*
X-100968D01*
X-133738Y-161339D02*
X-129995Y-157596D01*
X-133738Y-169815D02*
Y-161339D01*
X-449487Y-31548D02*
X-411505Y6434D01*
X-449487Y-51499D02*
Y-31548D01*
X-155357Y-95292D02*
X-150857Y-99792D01*
X-155357Y-95292D02*
Y-84998D01*
X-124738Y-183815D02*
X-90428D01*
X-86726Y-187517D01*
X-253781Y1750D02*
X-239664Y-12367D01*
X-303985Y1750D02*
X-253781D01*
X-239664Y-75215D02*
Y-12367D01*
X-306626Y-891D02*
X-303985Y1750D01*
X-307703Y-891D02*
X-306626D01*
X-286898Y-34432D02*
Y-18917D01*
Y-34432D02*
X-286592Y-34738D01*
X-218017Y-53412D02*
X-212355Y-59074D01*
X-218017Y-53412D02*
Y-42261D01*
X-212355Y-59074D02*
X-193533D01*
X-217552Y-41795D02*
Y10701D01*
X-237580Y30729D02*
X-217552Y10701D01*
X-179156Y-24534D02*
X-170541D01*
X-179156D02*
Y-17531D01*
Y-31537D02*
Y-24534D01*
X-170541D02*
X-165990Y-29085D01*
Y-43256D02*
Y-29085D01*
Y-43256D02*
X-161668Y-47577D01*
X-208169Y-37608D02*
Y15735D01*
Y-37608D02*
X-200232Y-45546D01*
X-94715Y-188815D02*
X-81346Y-202185D01*
X-73248D01*
X-124738Y-188815D02*
X-94715D01*
X-148738Y-156297D02*
X-142754Y-150312D01*
X-148738Y-169815D02*
Y-156297D01*
X-112176Y-198815D02*
X-105500Y-205491D01*
X-124738Y-198815D02*
X-112176D01*
X-443569Y-57417D02*
X-428720D01*
X-449487Y-51499D02*
X-443569Y-57417D01*
X-229585Y-187110D02*
X-202615Y-214080D01*
X-249711Y-133863D02*
X-229585Y-153989D01*
Y-187110D02*
Y-153989D01*
X-230468Y-141820D02*
Y-129799D01*
X-223564Y-179375D02*
Y-148723D01*
X-230468Y-141820D02*
X-223564Y-148723D01*
X-200232Y-45546D02*
X-193055D01*
X-372374Y30729D02*
X-237580D01*
X-428720Y-25617D02*
X-372374Y30729D01*
X-354848Y22093D02*
X-242660D01*
X-388170Y-11229D02*
X-354848Y22093D01*
X-242660D02*
X-230468Y9901D01*
Y-65537D02*
X-222448Y-73557D01*
X-193055D01*
X-223564Y-179375D02*
X-202865Y-200075D01*
X-193055D01*
X-300064Y-55631D02*
Y-35510D01*
X-299292Y-34738D01*
X-321908Y-77475D02*
X-300064Y-55631D01*
X-321908Y-96271D02*
Y-77475D01*
X-242365Y-184704D02*
X-225642Y-201427D01*
X-258433Y-184704D02*
X-242365D01*
X-193055Y-172063D02*
Y-172021D01*
X-200087Y-165882D02*
X-199195D01*
X-193055Y-172021D01*
X-217514Y-170035D02*
Y-128783D01*
Y-170035D02*
X-201481Y-186069D01*
X-202615Y-214080D02*
X-193055D01*
X-258720Y-184417D02*
X-258433Y-184704D01*
X-201481Y-186069D02*
X-193055D01*
X-258742Y-120938D02*
X-212659D01*
X-272632Y-133863D02*
X-249711D01*
X-159468Y-83390D02*
Y-77597D01*
X-193055Y-116977D02*
X-159468Y-83390D01*
Y-77597D02*
X-159448Y-77577D01*
X-313526Y-84392D02*
X-273873Y-44738D01*
X-313526Y-152866D02*
Y-84392D01*
X-258742Y-44739D02*
X-258720Y-44717D01*
X-273873Y-44738D02*
X-258742D01*
X-279139Y-70117D02*
X-258720D01*
X-303874Y-94852D02*
X-279139Y-70117D01*
X-293714Y-117607D02*
Y-98752D01*
X-277801Y-82838D02*
X-258742D01*
X-293714Y-98752D02*
X-277801Y-82838D01*
X-193533Y-59074D02*
X-193055Y-59552D01*
X-286401Y-254987D02*
X-272950Y-268438D01*
X-286401Y-254987D02*
Y-208137D01*
X-272950Y-268438D02*
X-241943D01*
X-159448Y-77577D02*
X-157738D01*
X-169321Y-77729D02*
Y-73556D01*
X-163342Y-67577D02*
X-157738D01*
X-169321Y-73556D02*
X-163342Y-67577D01*
X-179156Y-73557D02*
Y-73516D01*
X-175967Y-70327D02*
X-175926D01*
X-168175Y-62577D02*
X-157738D01*
X-179156Y-73516D02*
X-175967Y-70327D01*
X-175926D02*
X-168175Y-62577D01*
X-179156Y-87522D02*
X-175967Y-84333D01*
X-175926D01*
X-169321Y-77729D01*
X-179156Y-87563D02*
Y-87522D01*
X-199697Y-158057D02*
X-193055D01*
X-193055Y-158057D01*
X-172783Y-228070D02*
X-166546Y-221832D01*
Y-213784D02*
X-161576Y-208815D01*
X-166546Y-221832D02*
Y-213784D01*
X-179156Y-228086D02*
X-179140Y-228070D01*
X-172783D01*
X-179156Y-200075D02*
X-172474D01*
X-166214Y-193815D02*
X-157738D01*
X-172474Y-200075D02*
X-166214Y-193815D01*
X-179156Y-186069D02*
X-179102Y-186122D01*
X-172783D02*
X-170110Y-188795D01*
X-159468D01*
X-179102Y-186122D02*
X-172783D01*
X-179156Y-172063D02*
X-167403Y-183815D01*
X-157738D01*
X-166714Y-175519D02*
Y-170498D01*
Y-175519D02*
X-163418Y-178815D01*
X-157738D01*
X-179156Y-158057D02*
X-166714Y-170498D01*
X-193055Y-144157D02*
X-179156Y-158057D01*
X-193055Y-144157D02*
Y-144054D01*
X-204560Y-109733D02*
X-193055Y-98228D01*
X-271870Y-109733D02*
X-204560D01*
X-161668Y-47577D02*
X-157738D01*
X-179156Y-45546D02*
X-178696Y-46006D01*
X-172783D01*
X-166212Y-52577D01*
X-157738D01*
X-193055Y-130049D02*
Y-116977D01*
X-307791Y-159017D02*
X-258720D01*
X-309136Y-171717D02*
X-258720D01*
X-279073Y-127422D02*
Y-116936D01*
X-271870Y-109733D01*
X-279073Y-127422D02*
X-272632Y-133863D01*
X-286401Y-208137D02*
X-275402Y-197138D01*
X-258742D01*
X-155357Y-84998D02*
X-152330Y-81972D01*
X-148758D02*
X-148738Y-81952D01*
X-152330Y-81972D02*
X-148758D01*
X-148738Y-81952D02*
Y-81577D01*
X-444918Y-70138D02*
X-428742D01*
X-455540Y-55429D02*
X-450888Y-60082D01*
X-461902Y-55429D02*
X-455540D01*
X-450888Y-64168D02*
Y-60082D01*
Y-64168D02*
X-444918Y-70138D01*
X-444017Y-82838D02*
X-428742D01*
X-454781Y-72075D02*
X-444017Y-82838D01*
X-461902Y-72075D02*
X-454781D01*
X-445835Y-95538D02*
X-428742D01*
X-452653Y-88720D02*
X-445835Y-95538D01*
X-461902Y-88720D02*
X-452653D01*
X-461902Y-105366D02*
X-450297D01*
X-447424Y-108238D01*
X-428742D01*
X-450761Y-122011D02*
X-449688Y-120938D01*
X-428742D01*
X-461902Y-122011D02*
X-450761D01*
X-492807Y-55429D02*
X-477902D01*
X-492807Y-72075D02*
X-477902D01*
X-492807Y-88720D02*
X-477902D01*
X-492807Y-105366D02*
X-477902D01*
X-492807Y-122011D02*
X-477902D01*
X-473992Y-225043D02*
Y-218592D01*
X-477946Y-214638D02*
X-473992Y-218592D01*
X-534646Y-267037D02*
X-511476D01*
X-73248Y-99356D02*
Y-99315D01*
X-76478Y-102545D02*
X-76437D01*
X-73248Y-99356D01*
X-161576Y-208815D02*
X-157738D01*
X-179156Y-214080D02*
X-177509D01*
X-162244Y-198815D02*
X-157738D01*
X-177509Y-214080D02*
X-162244Y-198815D01*
X-156728Y-216667D02*
X-152876Y-212815D01*
X-86726Y-187517D02*
X-74782D01*
X-74529Y-187530D02*
X-73032Y-186177D01*
X-61373Y-175646D01*
X-59348Y-173817D01*
X-73248Y-216369D02*
Y-202185D01*
X-124738Y-208815D02*
X-121308D01*
X-98060Y-57577D02*
X-84690Y-70947D01*
X-73248D01*
Y-85131D02*
Y-70947D01*
X-124738Y-203815D02*
X-118700D01*
X-111156Y-211359D01*
X-90428Y-52577D02*
X-86726Y-56279D01*
X-74782D01*
X-124738Y-57577D02*
X-98060D01*
X-229020Y-252223D02*
X-228764Y-251967D01*
X-124738Y-52577D02*
X-90428D01*
X-124718Y-72597D02*
X-118680D01*
X-124738Y-72577D02*
X-124718Y-72597D01*
X-124738Y-42577D02*
X-105674D01*
X-169240Y-57577D02*
X-157738D01*
X-179156Y-59552D02*
X-171215D01*
X-169240Y-57577D01*
X-152876Y-212815D02*
X-148738D01*
X-388170Y-34717D02*
Y-11229D01*
X-428720Y-44717D02*
Y-25617D01*
D11*
X-107734Y1297D02*
X-105674Y-763D01*
X-108225Y4556D02*
X-107734Y4064D01*
Y1297D02*
Y4064D01*
X-141389Y-189613D02*
X-139536D01*
X-137238Y-185462D02*
X-130591Y-178815D01*
X-139536Y-189613D02*
X-137238Y-187315D01*
Y-185462D01*
X-121962Y-255612D02*
X-118548Y-252198D01*
X-125728Y-226530D02*
X-118548Y-233710D01*
Y-252198D02*
Y-233710D01*
X-74233Y-138906D02*
X-65181Y-147958D01*
X-74233Y-138906D02*
Y-129697D01*
X-98972Y-121119D02*
X-82810D01*
X-74233Y-129697D01*
X-104549Y-115543D02*
X-98972Y-121119D01*
X-147756Y-48519D02*
X-146814Y-47577D01*
X-124738D01*
X-148451Y-48519D02*
X-147756D01*
X-193055Y-36037D02*
Y-31537D01*
X-133738Y-85845D02*
X-125637Y-93947D01*
X-133738Y-85845D02*
Y-81577D01*
X-125637Y-93947D02*
X-125084D01*
X-123738Y-95292D01*
X-127606Y-124374D02*
X-118975Y-115742D01*
X-123738Y-95292D02*
X-118975Y-100056D01*
Y-115742D02*
Y-100056D01*
X-128856Y-124374D02*
X-127606D01*
X-130228Y-255612D02*
X-121962D01*
X-133738Y-218520D02*
Y-212815D01*
Y-218520D02*
X-125728Y-226530D01*
X-193055Y-17081D02*
X-185372Y-9397D01*
X-171337D01*
X-193055Y-17531D02*
Y-17081D01*
D15*
X-57782Y-56279D02*
D03*
X-74782D02*
D03*
X-491992Y-225043D02*
D03*
X-473992D02*
D03*
X-525286D02*
D03*
X-543286D02*
D03*
X-510807Y-55429D02*
D03*
X-492807D02*
D03*
X-510807Y-88720D02*
D03*
X-492807D02*
D03*
X-510807Y-105366D02*
D03*
X-492807D02*
D03*
Y-72075D02*
D03*
X-510807D02*
D03*
Y-122011D02*
D03*
X-492807D02*
D03*
X-73106Y-231017D02*
D03*
X-56106D02*
D03*
X-102230Y-84647D02*
D03*
X-85230D02*
D03*
X-102230Y-99799D02*
D03*
X-85230D02*
D03*
X-57798Y-113494D02*
D03*
X-74798D02*
D03*
X-90225Y-14703D02*
D03*
X-107225D02*
D03*
X-85230Y-215885D02*
D03*
X-102230D02*
D03*
Y-231017D02*
D03*
X-85230D02*
D03*
X-74782Y-186853D02*
D03*
X-57782D02*
D03*
X-57798Y-157733D02*
D03*
X-74798D02*
D03*
X-85246Y-144056D02*
D03*
X-102246D02*
D03*
D17*
X-499470Y-174625D02*
D03*
Y-191625D02*
D03*
X-483010Y-174625D02*
D03*
Y-191625D02*
D03*
X-466551Y-174625D02*
D03*
Y-191625D02*
D03*
X-450092D02*
D03*
Y-174625D02*
D03*
Y-208543D02*
D03*
Y-226543D02*
D03*
X-450346Y-244069D02*
D03*
Y-261069D02*
D03*
D19*
X-535097Y-184825D02*
D03*
Y-142325D02*
D03*
D31*
X-59348Y-42579D02*
D03*
X-73248D02*
D03*
X-105674D02*
D03*
X-91775D02*
D03*
X-179156Y-73557D02*
D03*
X-193055D02*
D03*
X-179156Y-59552D02*
D03*
X-193055D02*
D03*
X-179156Y-17531D02*
D03*
X-193055D02*
D03*
X-91775Y-28643D02*
D03*
X-105674D02*
D03*
Y-763D02*
D03*
X-91775D02*
D03*
X-59348Y-70947D02*
D03*
X-73248D02*
D03*
Y-99315D02*
D03*
X-59348D02*
D03*
X-179156Y-87563D02*
D03*
X-193055D02*
D03*
X-179156Y-45546D02*
D03*
X-193055D02*
D03*
Y-130049D02*
D03*
X-179156D02*
D03*
Y-31537D02*
D03*
X-193055D02*
D03*
X-100696Y-245662D02*
D03*
X-86796D02*
D03*
X-73248Y-173817D02*
D03*
X-59348D02*
D03*
X-100696D02*
D03*
X-86796D02*
D03*
Y-158063D02*
D03*
X-100696D02*
D03*
X-179156Y-158057D02*
D03*
X-193055D02*
D03*
X-179156Y-214080D02*
D03*
X-193055D02*
D03*
X-179156Y-200075D02*
D03*
X-193055D02*
D03*
X-179156Y-186069D02*
D03*
X-193055D02*
D03*
X-179156Y-172063D02*
D03*
X-193055D02*
D03*
X-100696Y-130049D02*
D03*
X-86796D02*
D03*
X-59348Y-202185D02*
D03*
X-73248D02*
D03*
X-179156Y-228086D02*
D03*
X-193055D02*
D03*
Y-144054D02*
D03*
X-179156D02*
D03*
X-59348Y-85131D02*
D03*
X-73248D02*
D03*
X-242920Y-252223D02*
D03*
X-229020D02*
D03*
X-59348Y-216369D02*
D03*
X-73248D02*
D03*
D56*
X-101982Y-84683D02*
Y-75488D01*
X-102088Y-84789D02*
X-101982Y-84683D01*
X-452806Y-246482D02*
X-450177Y-243853D01*
X-483190Y-267431D02*
X-473708D01*
X-450092Y-243815D02*
Y-235457D01*
X-452806Y-246529D02*
Y-246482D01*
X-473708Y-267431D02*
X-452806Y-246529D01*
X-102088Y-89647D02*
Y-84789D01*
X-85738Y-215885D02*
Y-214644D01*
X-88228Y-212155D02*
X-85738Y-214644D01*
X-94965Y-205491D02*
X-88301Y-212155D01*
X-105500Y-205491D02*
X-94965D01*
X-88301Y-212155D02*
X-88228D01*
X-85738Y-217125D02*
X-83248Y-219615D01*
X-83248D02*
X-73106Y-229757D01*
X-83248Y-219615D02*
X-83248D01*
X-73106Y-231017D02*
Y-229757D01*
X-413756Y-184417D02*
X-402395Y-195778D01*
X-424561Y-235457D02*
X-402395Y-213292D01*
Y-195778D01*
X-450092Y-235457D02*
Y-226543D01*
Y-235457D02*
X-424561D01*
X-428720Y-184417D02*
X-413756D01*
X-491992Y-242319D02*
Y-225043D01*
X-543536Y-242337D02*
Y-225293D01*
D57*
X-124738Y-173815D02*
X-124737Y-173816D01*
X-100696D01*
X-148632Y7875D02*
X-137964D01*
X-125883Y19956D02*
X-63275D01*
X-137964Y7875D02*
X-125883Y19956D01*
X-313579Y10161D02*
X-313224D01*
X-330736Y-6996D02*
X-313579Y10161D01*
X-110285Y-62577D02*
X-107585Y-65277D01*
X-124738Y-62577D02*
X-110285D01*
X-107585Y-65277D02*
X-106722D01*
X-394983Y-98514D02*
X-378454Y-81985D01*
X-404143Y-159038D02*
X-394983Y-149878D01*
Y-98514D01*
X-359639Y-81985D02*
X-330736Y-53082D01*
X-378454Y-81985D02*
X-359639D01*
X-330736Y-53082D02*
Y-6996D01*
X-428742Y-159038D02*
X-404143D01*
X-103856Y-193815D02*
X-101431Y-196241D01*
X-100567D01*
X-124738Y-193815D02*
X-103856D01*
D58*
X-62582Y-102999D02*
X-59294Y-99710D01*
Y-99708D01*
X-62582Y-103414D02*
Y-102999D01*
X-59294Y-99708D02*
X-59108Y-99894D01*
X-52416D01*
X-91775Y-42579D02*
X-73248D01*
X-86796Y-173817D02*
X-73248D01*
D59*
X0Y0D02*
D03*
D60*
Y-25400D02*
D03*
Y-50800D02*
D03*
Y-76200D02*
D03*
Y-101600D02*
D03*
Y-127000D02*
D03*
Y-152400D02*
D03*
Y-177800D02*
D03*
Y-203200D02*
D03*
Y-228600D02*
D03*
Y-254000D02*
D03*
Y-279400D02*
D03*
D61*
X-583550Y-112819D02*
D03*
Y-156819D02*
D03*
D62*
X-108225Y4556D02*
D03*
X-88860Y-87531D02*
D03*
X-88115Y-97179D02*
D03*
X-31491Y-95131D02*
D03*
X-31576Y-110629D02*
D03*
X2697Y67546D02*
D03*
X-3654Y54846D02*
D03*
X2697Y42146D02*
D03*
X-3654Y-300754D02*
D03*
X2697Y-313454D02*
D03*
X-3654Y-326154D02*
D03*
X-10003Y67546D02*
D03*
X-16353Y54846D02*
D03*
X-10003Y42146D02*
D03*
Y16746D02*
D03*
X-16353Y4046D02*
D03*
Y-21354D02*
D03*
X-10003Y-34054D02*
D03*
X-16353Y-46754D02*
D03*
Y-97554D02*
D03*
X-10003Y-110254D02*
D03*
Y-135654D02*
D03*
Y-161054D02*
D03*
Y-186454D02*
D03*
X-16353Y-199154D02*
D03*
X-10003Y-211854D02*
D03*
X-16353Y-224554D02*
D03*
X-10003Y-237254D02*
D03*
X-16353Y-249954D02*
D03*
X-10003Y-262654D02*
D03*
X-16353Y-275354D02*
D03*
X-10003Y-288054D02*
D03*
X-16353Y-300754D02*
D03*
X-10003Y-313454D02*
D03*
X-16353Y-326154D02*
D03*
X-22703Y67546D02*
D03*
X-29053Y54846D02*
D03*
X-22703Y42146D02*
D03*
X-29053Y-275354D02*
D03*
X-22703Y-288054D02*
D03*
X-29053Y-300754D02*
D03*
X-22703Y-313454D02*
D03*
X-29053Y-326154D02*
D03*
X-35403Y67546D02*
D03*
X-41754Y54846D02*
D03*
X-35403Y42146D02*
D03*
Y-288054D02*
D03*
X-41754Y-300754D02*
D03*
X-35403Y-313454D02*
D03*
X-41754Y-326154D02*
D03*
X-48103Y67546D02*
D03*
X-54454Y54846D02*
D03*
X-48103Y42146D02*
D03*
Y-237254D02*
D03*
X-54454Y-249954D02*
D03*
Y-275354D02*
D03*
Y-300754D02*
D03*
X-48103Y-313454D02*
D03*
X-54454Y-326154D02*
D03*
X-60803Y67546D02*
D03*
X-67154Y54846D02*
D03*
X-60803Y42146D02*
D03*
X-67154Y-21354D02*
D03*
Y-300754D02*
D03*
X-60803Y-313454D02*
D03*
X-67154Y-326154D02*
D03*
X-73503Y67546D02*
D03*
X-79854Y54846D02*
D03*
X-73503Y42146D02*
D03*
X-79854Y-300754D02*
D03*
X-73503Y-313454D02*
D03*
X-79854Y-326154D02*
D03*
X-86203Y67546D02*
D03*
X-92554Y54846D02*
D03*
X-86203Y42146D02*
D03*
X-92554Y-300754D02*
D03*
X-86203Y-313454D02*
D03*
X-92554Y-326154D02*
D03*
X-98904Y42146D02*
D03*
X-105253Y-300754D02*
D03*
X-98904Y-313454D02*
D03*
X-149704Y16746D02*
D03*
X-168754Y29446D02*
D03*
X-162404Y16746D02*
D03*
X-181453Y4046D02*
D03*
Y-300754D02*
D03*
X-187803Y67546D02*
D03*
X-194153Y54846D02*
D03*
X-187803Y42146D02*
D03*
Y16746D02*
D03*
X-194153Y4046D02*
D03*
Y-300754D02*
D03*
X-187803Y-313454D02*
D03*
X-194153Y-326154D02*
D03*
X-200504Y67546D02*
D03*
X-206854Y54846D02*
D03*
X-200504Y42146D02*
D03*
Y16746D02*
D03*
X-206854Y-300754D02*
D03*
X-200504Y-313454D02*
D03*
X-206854Y-326154D02*
D03*
X-213204Y67546D02*
D03*
X-219554Y54846D02*
D03*
X-213204Y42146D02*
D03*
X-219554Y-300754D02*
D03*
X-213204Y-313454D02*
D03*
X-219554Y-326154D02*
D03*
X-225903Y67546D02*
D03*
X-232253Y54846D02*
D03*
X-225903Y42146D02*
D03*
X-232253Y-300754D02*
D03*
X-225903Y-313454D02*
D03*
X-232253Y-326154D02*
D03*
X-238603Y67546D02*
D03*
X-244953Y54846D02*
D03*
X-238603Y42146D02*
D03*
X-244953Y4046D02*
D03*
X-238603Y-84854D02*
D03*
Y-262654D02*
D03*
X-244953Y-275354D02*
D03*
X-238603Y-288054D02*
D03*
X-244953Y-300754D02*
D03*
X-238603Y-313454D02*
D03*
X-244953Y-326154D02*
D03*
X-251304Y67546D02*
D03*
X-257654Y54846D02*
D03*
X-251304Y42146D02*
D03*
Y-288054D02*
D03*
Y-313454D02*
D03*
X-264004Y67546D02*
D03*
X-270354Y54846D02*
D03*
X-264004Y42146D02*
D03*
X-270354Y-275354D02*
D03*
X-276703Y67546D02*
D03*
X-283053Y54846D02*
D03*
X-276703Y42146D02*
D03*
Y-59454D02*
D03*
Y-186454D02*
D03*
X-289403Y67546D02*
D03*
X-295753Y54846D02*
D03*
X-289403Y42146D02*
D03*
X-302104Y67546D02*
D03*
X-308454Y54846D02*
D03*
X-302104Y42146D02*
D03*
X-314804Y67546D02*
D03*
X-321153Y54846D02*
D03*
X-314804Y42146D02*
D03*
Y-8654D02*
D03*
X-321153Y-21354D02*
D03*
Y-46754D02*
D03*
Y-275354D02*
D03*
X-327504Y67546D02*
D03*
X-333853Y54846D02*
D03*
X-327504Y42146D02*
D03*
X-333853Y-97554D02*
D03*
X-327504Y-262654D02*
D03*
X-333853Y-275354D02*
D03*
X-340204Y67546D02*
D03*
X-346553Y54846D02*
D03*
X-340204Y42146D02*
D03*
Y-8654D02*
D03*
Y-34054D02*
D03*
X-346553Y-97554D02*
D03*
Y-275354D02*
D03*
X-352904Y67546D02*
D03*
X-359254Y54846D02*
D03*
X-352904Y42146D02*
D03*
X-359254Y-275354D02*
D03*
X-365603Y67546D02*
D03*
X-371954Y54846D02*
D03*
X-365603Y42146D02*
D03*
X-371954Y-97554D02*
D03*
Y-275354D02*
D03*
X-378303Y67546D02*
D03*
X-384654Y54846D02*
D03*
X-378303Y42146D02*
D03*
X-384654Y29446D02*
D03*
Y-275354D02*
D03*
X-391003Y67546D02*
D03*
X-397354Y54846D02*
D03*
X-391003Y42146D02*
D03*
X-397354Y29446D02*
D03*
Y-173754D02*
D03*
Y-275354D02*
D03*
X-403703Y67546D02*
D03*
X-410053Y54846D02*
D03*
X-403703Y42146D02*
D03*
X-410053Y29446D02*
D03*
X-403703Y16746D02*
D03*
X-410053Y-46754D02*
D03*
Y-72154D02*
D03*
Y-97554D02*
D03*
Y-122954D02*
D03*
Y-148354D02*
D03*
X-416404Y67546D02*
D03*
X-422753Y54846D02*
D03*
X-416404Y42146D02*
D03*
X-422753Y29446D02*
D03*
X-416404Y16746D02*
D03*
X-422753Y4046D02*
D03*
X-416404Y-135654D02*
D03*
X-422753Y-148354D02*
D03*
Y-300754D02*
D03*
Y-326154D02*
D03*
X-429104Y67546D02*
D03*
X-435453Y54846D02*
D03*
X-429104Y42146D02*
D03*
X-435453Y29446D02*
D03*
X-429104Y16746D02*
D03*
X-435453Y4046D02*
D03*
X-429104Y-135654D02*
D03*
X-435453Y-300754D02*
D03*
X-429104Y-313454D02*
D03*
X-435453Y-326154D02*
D03*
X-441804Y67546D02*
D03*
Y42146D02*
D03*
X-448153Y29446D02*
D03*
X-441804Y16746D02*
D03*
X-448153Y4046D02*
D03*
Y-300754D02*
D03*
X-441804Y-313454D02*
D03*
X-460854Y29446D02*
D03*
X-454504Y16746D02*
D03*
X-460854Y4046D02*
D03*
Y-300754D02*
D03*
X-467203Y16746D02*
D03*
X-473554Y4046D02*
D03*
X-479903Y16746D02*
D03*
X-492603D02*
D03*
Y-135654D02*
D03*
X-505303Y16746D02*
D03*
X-524353Y29446D02*
D03*
X-518004Y16746D02*
D03*
X-524353Y4046D02*
D03*
Y-21354D02*
D03*
Y-46754D02*
D03*
Y-72154D02*
D03*
Y-97554D02*
D03*
Y-300754D02*
D03*
X-537053Y54846D02*
D03*
X-530704Y42146D02*
D03*
X-537053Y29446D02*
D03*
X-530704Y16746D02*
D03*
X-537053Y4046D02*
D03*
X-530704Y-8654D02*
D03*
X-537053Y-21354D02*
D03*
X-530704Y-34054D02*
D03*
X-537053Y-46754D02*
D03*
X-530704Y-59454D02*
D03*
X-537053Y-72154D02*
D03*
X-530704Y-84854D02*
D03*
X-537053Y-97554D02*
D03*
X-530704Y-313454D02*
D03*
X-537053Y-326154D02*
D03*
X-543404Y67546D02*
D03*
X-549753Y54846D02*
D03*
X-543404Y42146D02*
D03*
X-549753Y29446D02*
D03*
X-543404Y16746D02*
D03*
X-549753Y4046D02*
D03*
X-543404Y-8654D02*
D03*
X-549753Y-21354D02*
D03*
X-543404Y-34054D02*
D03*
X-549753Y-46754D02*
D03*
X-543404Y-59454D02*
D03*
X-549753Y-72154D02*
D03*
Y-326154D02*
D03*
X-556104Y67546D02*
D03*
X-562453Y54846D02*
D03*
X-556104Y42146D02*
D03*
X-562453Y29446D02*
D03*
X-556104Y16746D02*
D03*
X-562453Y4046D02*
D03*
X-556104Y-8654D02*
D03*
X-562453Y-21354D02*
D03*
X-556104Y-34054D02*
D03*
X-562453Y-46754D02*
D03*
X-556104Y-59454D02*
D03*
X-562453Y-72154D02*
D03*
Y-199154D02*
D03*
Y-326154D02*
D03*
X-568803Y67546D02*
D03*
Y42146D02*
D03*
Y16746D02*
D03*
X-575154Y4046D02*
D03*
X-568803Y-8654D02*
D03*
X-575154Y-21354D02*
D03*
X-568803Y-34054D02*
D03*
X-575154Y-46754D02*
D03*
X-568803Y-59454D02*
D03*
X-575154Y-72154D02*
D03*
Y-97554D02*
D03*
X-568803Y-161054D02*
D03*
X-575154Y-173754D02*
D03*
Y-199154D02*
D03*
X-587854Y4046D02*
D03*
X-581503Y-8654D02*
D03*
X-587854Y-21354D02*
D03*
X-581503Y-34054D02*
D03*
X-587854Y-46754D02*
D03*
X-581503Y-59454D02*
D03*
X-587854Y-72154D02*
D03*
X-581503Y-84854D02*
D03*
X-587854Y-97554D02*
D03*
X-581503Y-186454D02*
D03*
X-600554Y4046D02*
D03*
X-594203Y-8654D02*
D03*
X-600554Y-21354D02*
D03*
X-594203Y-34054D02*
D03*
X-600554Y-46754D02*
D03*
X-594203Y-59454D02*
D03*
X-600554Y-72154D02*
D03*
X-594203Y-84854D02*
D03*
Y-110254D02*
D03*
X-600554Y-275354D02*
D03*
X-613254Y4046D02*
D03*
X-606903Y-8654D02*
D03*
X-613254Y-21354D02*
D03*
X-606903Y-34054D02*
D03*
X-613254Y-46754D02*
D03*
X-606903Y-59454D02*
D03*
X-613254Y-72154D02*
D03*
X-606903Y-110254D02*
D03*
X-613254Y-122954D02*
D03*
Y-148354D02*
D03*
Y-224554D02*
D03*
Y-249954D02*
D03*
X-606903Y-262654D02*
D03*
X-613254Y-275354D02*
D03*
X-619604Y-8654D02*
D03*
Y-34054D02*
D03*
Y-59454D02*
D03*
Y-110254D02*
D03*
Y-135654D02*
D03*
Y-161054D02*
D03*
Y-211854D02*
D03*
Y-237254D02*
D03*
Y-262654D02*
D03*
X-94205Y-223361D02*
D03*
X-88730Y-231936D02*
D03*
X-104583Y-212869D02*
D03*
X-136884Y-182621D02*
D03*
X-124519Y-244068D02*
D03*
X-138336Y-243941D02*
D03*
X-126389Y-110560D02*
D03*
X-135768Y-110443D02*
D03*
X-162351Y-116444D02*
D03*
X-162509Y-125182D02*
D03*
X-105746Y-144161D02*
D03*
X-71298Y-157946D02*
D03*
X-236793Y-182016D02*
D03*
X-481779Y-236270D02*
D03*
X-72115Y-110140D02*
D03*
X-83203Y-78154D02*
D03*
X-174628Y-239060D02*
D03*
X-163188Y-254925D02*
D03*
X-163452Y-241305D02*
D03*
X-65181Y-147958D02*
D03*
X-91798Y-73903D02*
D03*
X-62582Y-103414D02*
D03*
X-48149Y-53733D02*
D03*
X-101982Y-75488D02*
D03*
X-141558Y-75171D02*
D03*
X-69542Y-9198D02*
D03*
X-193055Y-36037D02*
D03*
X-564913Y-250602D02*
D03*
X-472271Y-209294D02*
D03*
X-52416Y-99894D02*
D03*
X-545848Y-209335D02*
D03*
X-553433Y-201752D02*
D03*
X-552816Y-240184D02*
D03*
X-514304Y-238372D02*
D03*
X-552937Y-255921D02*
D03*
X-616615Y-195095D02*
D03*
X-102088Y-89647D02*
D03*
X-610569Y-268872D02*
D03*
X-582510Y-240445D02*
D03*
X-284059Y-143804D02*
D03*
X-499396Y-194999D02*
D03*
X-551198Y-301389D02*
D03*
X-556643Y-310117D02*
D03*
X-563209Y-301309D02*
D03*
X-104549Y-115543D02*
D03*
X-141332Y-230140D02*
D03*
X-247251Y-209691D02*
D03*
X-331231Y-227959D02*
D03*
X-377532Y-190357D02*
D03*
X-289700Y-189301D02*
D03*
X-280599Y-179910D02*
D03*
X-498607Y-133471D02*
D03*
X-499085Y-143836D02*
D03*
X-499392Y-156211D02*
D03*
X-500973Y-97200D02*
D03*
X-556633Y-159403D02*
D03*
X-504111Y-219285D02*
D03*
X-104763Y-133349D02*
D03*
X-97578Y-143673D02*
D03*
X-72261Y-2902D02*
D03*
X-116377Y-9360D02*
D03*
X-148632Y7875D02*
D03*
X-72919Y-237695D02*
D03*
X-87028Y-251741D02*
D03*
X-141389Y-189613D02*
D03*
X-206716Y-81312D02*
D03*
X-97332Y-155035D02*
D03*
X-472565Y-254653D02*
D03*
X-489642Y-254342D02*
D03*
X-297789Y-8993D02*
D03*
X-74591Y-149770D02*
D03*
X-313224Y10161D02*
D03*
X-63275Y19956D02*
D03*
X-411505Y6434D02*
D03*
X-106722Y-65277D02*
D03*
X-124712Y-141861D02*
D03*
X-141195Y-206810D02*
D03*
X-148451Y-48519D02*
D03*
Y-59695D02*
D03*
X-230468Y-63420D02*
D03*
X-148451Y-70871D02*
D03*
X-75957Y3388D02*
D03*
X-307703Y-891D02*
D03*
X-217916Y-42159D02*
D03*
X-453484Y-114045D02*
D03*
X-208169Y15735D02*
D03*
X-100567Y-196241D02*
D03*
X-115178Y-125779D02*
D03*
X-118774Y-136358D02*
D03*
X-60418Y-198116D02*
D03*
X-74777Y-251722D02*
D03*
X-53744Y-186945D02*
D03*
X-51573Y-206488D02*
D03*
X-52606Y-231017D02*
D03*
X-230468Y-129799D02*
D03*
X-225642Y-201427D02*
D03*
X-321908Y-96271D02*
D03*
X-200087Y-165882D02*
D03*
X-217514Y-128783D02*
D03*
X-293714Y-117607D02*
D03*
X-539585Y-191819D02*
D03*
X-272350Y-247703D02*
D03*
X-256768D02*
D03*
X-241360D02*
D03*
X-532203Y-128498D02*
D03*
X-567934Y-110633D02*
D03*
X-532203D02*
D03*
X-538917Y-169760D02*
D03*
X-550068Y-110633D02*
D03*
X-524892Y-170243D02*
D03*
X-525144Y-192096D02*
D03*
X-511799Y-192581D02*
D03*
X-457493Y-192087D02*
D03*
X-472901D02*
D03*
X-488483D02*
D03*
D63*
X-148738Y-212815D02*
D03*
X-133738D02*
D03*
X-148738Y-169815D02*
D03*
X-133738D02*
D03*
Y-38577D02*
D03*
X-148738D02*
D03*
X-133738Y-81577D02*
D03*
X-148738D02*
D03*
D64*
X-157738Y-193815D02*
D03*
Y-188815D02*
D03*
Y-183815D02*
D03*
Y-178815D02*
D03*
Y-173815D02*
D03*
Y-198815D02*
D03*
Y-203815D02*
D03*
Y-208815D02*
D03*
X-124738Y-193815D02*
D03*
Y-188815D02*
D03*
Y-183815D02*
D03*
Y-178815D02*
D03*
Y-173815D02*
D03*
Y-198815D02*
D03*
Y-203815D02*
D03*
Y-208815D02*
D03*
Y-77577D02*
D03*
Y-72577D02*
D03*
Y-67577D02*
D03*
Y-42577D02*
D03*
Y-47577D02*
D03*
Y-52577D02*
D03*
Y-57577D02*
D03*
Y-62577D02*
D03*
X-157738Y-77577D02*
D03*
Y-72577D02*
D03*
Y-67577D02*
D03*
Y-42577D02*
D03*
Y-47577D02*
D03*
Y-52577D02*
D03*
Y-57577D02*
D03*
Y-62577D02*
D03*
D65*
X-141238Y-191315D02*
D03*
Y-60077D02*
D03*
D66*
X-428720Y-209817D02*
D03*
Y-197117D02*
D03*
Y-184417D02*
D03*
Y-159017D02*
D03*
Y-120917D02*
D03*
Y-108217D02*
D03*
Y-95517D02*
D03*
Y-82817D02*
D03*
Y-70117D02*
D03*
Y-57417D02*
D03*
Y-44717D02*
D03*
X-258720D02*
D03*
Y-57417D02*
D03*
Y-70117D02*
D03*
Y-82817D02*
D03*
Y-95517D02*
D03*
Y-120917D02*
D03*
Y-146317D02*
D03*
Y-159017D02*
D03*
Y-171717D02*
D03*
Y-184417D02*
D03*
Y-197117D02*
D03*
Y-209817D02*
D03*
D67*
X-400870Y-34717D02*
D03*
X-388170D02*
D03*
X-375470D02*
D03*
X-362770D02*
D03*
X-350070D02*
D03*
X-311970D02*
D03*
X-299270D02*
D03*
X-286570D02*
D03*
D68*
X-372070Y-153167D02*
D03*
X-353720D02*
D03*
X-335370D02*
D03*
X-372070Y-134817D02*
D03*
X-353720D02*
D03*
X-335370D02*
D03*
X-372070Y-116467D02*
D03*
X-353720Y-116217D02*
D03*
X-335370Y-116467D02*
D03*
D69*
X-491992Y-242319D02*
D03*
X-474212D02*
D03*
X-483102Y-267019D02*
D03*
X-543536Y-242337D02*
D03*
X-525756D02*
D03*
X-534646Y-267037D02*
D03*
D70*
X-477902Y-55429D02*
D03*
X-461902D02*
D03*
X-477902Y-72075D02*
D03*
X-461902D02*
D03*
X-477902Y-88720D02*
D03*
X-461902D02*
D03*
X-477902Y-105366D02*
D03*
X-461902D02*
D03*
X-477902Y-122011D02*
D03*
X-461902D02*
D03*
D71*
X-128856Y-124374D02*
D03*
X-150857D02*
D03*
Y-108374D02*
D03*
X-128856D02*
D03*
X-130228Y-255612D02*
D03*
X-152228D02*
D03*
Y-239612D02*
D03*
X-130228D02*
D03*
D72*
X-123738Y-95292D02*
D03*
X-133738D02*
D03*
X-155357Y-95292D02*
D03*
X-145357D02*
D03*
X-125728Y-226530D02*
D03*
X-135728D02*
D03*
X-156728D02*
D03*
X-146728D02*
D03*
M02*
