G04*
G04 #@! TF.GenerationSoftware,Altium Limited,Altium Designer,24.0.1 (36)*
G04*
G04 Layer_Color=8421504*
%FSLAX44Y44*%
%MOMM*%
G71*
G04*
G04 #@! TF.SameCoordinates,E4E742BE-E936-4CAC-BADB-82586D2B27CE*
G04*
G04*
G04 #@! TF.FilePolarity,Positive*
G04*
G01*
G75*
G04:AMPARAMS|DCode=12|XSize=1mm|YSize=0.7mm|CornerRadius=0.175mm|HoleSize=0mm|Usage=FLASHONLY|Rotation=270.000|XOffset=0mm|YOffset=0mm|HoleType=Round|Shape=RoundedRectangle|*
%AMROUNDEDRECTD12*
21,1,1.0000,0.3500,0,0,270.0*
21,1,0.6500,0.7000,0,0,270.0*
1,1,0.3500,-0.1750,-0.3250*
1,1,0.3500,-0.1750,0.3250*
1,1,0.3500,0.1750,0.3250*
1,1,0.3500,0.1750,-0.3250*
%
%ADD12ROUNDEDRECTD12*%
%ADD13R,1.2000X1.6500*%
G04:AMPARAMS|DCode=14|XSize=1mm|YSize=0.7mm|CornerRadius=0.175mm|HoleSize=0mm|Usage=FLASHONLY|Rotation=180.000|XOffset=0mm|YOffset=0mm|HoleType=Round|Shape=RoundedRectangle|*
%AMROUNDEDRECTD14*
21,1,1.0000,0.3500,0,0,180.0*
21,1,0.6500,0.7000,0,0,180.0*
1,1,0.3500,-0.3250,0.1750*
1,1,0.3500,0.3250,0.1750*
1,1,0.3500,0.3250,-0.1750*
1,1,0.3500,-0.3250,-0.1750*
%
%ADD14ROUNDEDRECTD14*%
G04:AMPARAMS|DCode=15|XSize=0.8mm|YSize=1.2mm|CornerRadius=0.16mm|HoleSize=0mm|Usage=FLASHONLY|Rotation=90.000|XOffset=0mm|YOffset=0mm|HoleType=Round|Shape=RoundedRectangle|*
%AMROUNDEDRECTD15*
21,1,0.8000,0.8800,0,0,90.0*
21,1,0.4800,1.2000,0,0,90.0*
1,1,0.3200,0.4400,0.2400*
1,1,0.3200,0.4400,-0.2400*
1,1,0.3200,-0.4400,-0.2400*
1,1,0.3200,-0.4400,0.2400*
%
%ADD15ROUNDEDRECTD15*%
G04:AMPARAMS|DCode=16|XSize=2.06mm|YSize=2.02mm|CornerRadius=0.2525mm|HoleSize=0mm|Usage=FLASHONLY|Rotation=270.000|XOffset=0mm|YOffset=0mm|HoleType=Round|Shape=RoundedRectangle|*
%AMROUNDEDRECTD16*
21,1,2.0600,1.5150,0,0,270.0*
21,1,1.5550,2.0200,0,0,270.0*
1,1,0.5050,-0.7575,-0.7775*
1,1,0.5050,-0.7575,0.7775*
1,1,0.5050,0.7575,0.7775*
1,1,0.5050,0.7575,-0.7775*
%
%ADD16ROUNDEDRECTD16*%
G04:AMPARAMS|DCode=17|XSize=2.06mm|YSize=2.02mm|CornerRadius=0.2525mm|HoleSize=0mm|Usage=FLASHONLY|Rotation=0.000|XOffset=0mm|YOffset=0mm|HoleType=Round|Shape=RoundedRectangle|*
%AMROUNDEDRECTD17*
21,1,2.0600,1.5150,0,0,0.0*
21,1,1.5550,2.0200,0,0,0.0*
1,1,0.5050,0.7775,-0.7575*
1,1,0.5050,-0.7775,-0.7575*
1,1,0.5050,-0.7775,0.7575*
1,1,0.5050,0.7775,0.7575*
%
%ADD17ROUNDEDRECTD17*%
%ADD18R,2.7000X1.0000*%
%ADD19O,1.2000X0.3000*%
%ADD20R,2.7000X3.3000*%
%ADD21O,0.3000X1.2000*%
%ADD22R,3.1300X3.1300*%
%ADD23R,4.0000X5.5000*%
%ADD24R,2.0000X4.1000*%
%ADD25R,3.0000X1.0200*%
%ADD26R,7.5000X8.3300*%
%ADD27R,3.0000X1.2350*%
G04:AMPARAMS|DCode=28|XSize=0.81mm|YSize=0.9mm|CornerRadius=0.2025mm|HoleSize=0mm|Usage=FLASHONLY|Rotation=0.000|XOffset=0mm|YOffset=0mm|HoleType=Round|Shape=RoundedRectangle|*
%AMROUNDEDRECTD28*
21,1,0.8100,0.4950,0,0,0.0*
21,1,0.4050,0.9000,0,0,0.0*
1,1,0.4050,0.2025,-0.2475*
1,1,0.4050,-0.2025,-0.2475*
1,1,0.4050,-0.2025,0.2475*
1,1,0.4050,0.2025,0.2475*
%
%ADD28ROUNDEDRECTD28*%
G36*
X-75003Y357840D02*
X-80003D01*
Y363590D01*
X-75003D01*
Y357840D01*
D02*
G37*
G36*
Y347090D02*
X-80003D01*
Y352840D01*
X-75003D01*
Y347090D01*
D02*
G37*
G36*
X-47003Y357840D02*
X-52003D01*
Y363590D01*
X-47003D01*
Y357840D01*
D02*
G37*
G36*
Y347090D02*
X-52003D01*
Y352840D01*
X-47003D01*
Y347090D01*
D02*
G37*
D12*
X-133508Y180220D02*
D03*
X-151508D02*
D03*
X-558630Y57119D02*
D03*
X-575630D02*
D03*
X-575626Y72841D02*
D03*
X-558626D02*
D03*
X-575630Y88578D02*
D03*
X-558630D02*
D03*
X-209700Y259088D02*
D03*
X-226700D02*
D03*
X-209200Y242018D02*
D03*
X-227200D02*
D03*
Y224193D02*
D03*
X-209200D02*
D03*
Y206369D02*
D03*
X-227200D02*
D03*
Y188544D02*
D03*
X-209200D02*
D03*
Y170720D02*
D03*
X-227200D02*
D03*
X-133698Y162056D02*
D03*
X-150698D02*
D03*
X-151508Y72676D02*
D03*
X-133508D02*
D03*
X-227200Y72676D02*
D03*
X-209200D02*
D03*
X-189354Y146558D02*
D03*
X-171354D02*
D03*
X-209200Y146050D02*
D03*
X-227200D02*
D03*
Y128422D02*
D03*
X-209200D02*
D03*
X-227200Y110795D02*
D03*
X-209200D02*
D03*
X-227200Y93167D02*
D03*
X-209200D02*
D03*
X-134008Y260668D02*
D03*
X-151008D02*
D03*
X-56378Y296588D02*
D03*
X-74378Y310753D02*
D03*
X-57378D02*
D03*
X-74378Y324919D02*
D03*
X-56378D02*
D03*
X-452514Y104054D02*
D03*
X-435514D02*
D03*
X-74378Y296588D02*
D03*
X-453514Y88646D02*
D03*
X-435514D02*
D03*
X-575630Y104308D02*
D03*
X-558630D02*
D03*
X-469298Y231156D02*
D03*
X-486298D02*
D03*
X-533524Y230886D02*
D03*
X-515524D02*
D03*
X-74378Y339084D02*
D03*
X-56378D02*
D03*
D13*
X-80776Y355340D02*
D03*
X-46486D02*
D03*
D14*
X-151182Y243518D02*
D03*
Y225518D02*
D03*
Y148058D02*
D03*
Y130058D02*
D03*
X-297702Y107948D02*
D03*
X-280430Y75948D02*
D03*
Y107948D02*
D03*
X-297702Y75948D02*
D03*
X-262904Y125948D02*
D03*
Y107948D02*
D03*
X-297702Y124948D02*
D03*
X-280430Y92948D02*
D03*
Y124948D02*
D03*
X-297702Y92948D02*
D03*
D15*
X-194132Y92676D02*
D03*
Y73676D02*
D03*
X-170132Y83176D02*
D03*
X-194132Y129150D02*
D03*
Y110150D02*
D03*
X-170132Y119650D02*
D03*
X-194132Y190720D02*
D03*
Y171720D02*
D03*
X-170132Y181220D02*
D03*
X-194132Y227162D02*
D03*
Y208162D02*
D03*
X-170132Y217662D02*
D03*
D16*
X-194065Y286930D02*
D03*
X-107970Y329430D02*
D03*
Y286930D02*
D03*
X-151018Y329430D02*
D03*
Y286930D02*
D03*
X-194065Y329430D02*
D03*
D17*
X-291184Y174680D02*
D03*
X-333684D02*
D03*
D18*
X-323574Y77448D02*
D03*
Y123448D02*
D03*
Y100448D02*
D03*
D19*
X-523284Y103644D02*
D03*
Y113644D02*
D03*
Y108644D02*
D03*
Y98644D02*
D03*
Y93644D02*
D03*
Y88644D02*
D03*
Y83644D02*
D03*
X-471284D02*
D03*
Y88644D02*
D03*
Y93644D02*
D03*
Y103644D02*
D03*
Y108644D02*
D03*
Y113644D02*
D03*
D20*
X-382574Y100448D02*
D03*
D21*
X-512284Y72644D02*
D03*
X-507284D02*
D03*
X-502284D02*
D03*
X-497284D02*
D03*
X-492284D02*
D03*
X-487284D02*
D03*
X-482284D02*
D03*
Y124644D02*
D03*
X-487284D02*
D03*
X-492284D02*
D03*
X-497284D02*
D03*
X-502284D02*
D03*
X-507284D02*
D03*
X-512284D02*
D03*
D22*
X-497284Y98644D02*
D03*
D23*
X-486074Y192080D02*
D03*
X-376074D02*
D03*
D24*
X-295710Y331780D02*
D03*
Y244780D02*
D03*
D25*
X-383310Y264760D02*
D03*
Y281760D02*
D03*
Y298760D02*
D03*
Y315760D02*
D03*
Y332760D02*
D03*
D26*
X-500060Y298760D02*
D03*
D27*
X-522460Y346585D02*
D03*
Y250935D02*
D03*
D28*
X-117316Y354933D02*
D03*
X-103416D02*
D03*
M02*
