G04*
G04 #@! TF.GenerationSoftware,Altium Limited,Altium Designer,24.0.1 (36)*
G04*
G04 Layer_Physical_Order=1*
G04 Layer_Color=255*
%FSLAX44Y44*%
%MOMM*%
G71*
G04*
G04 #@! TF.SameCoordinates,E4FC931E-1C7A-40CD-B5D5-C7D3481EEB9B*
G04*
G04*
G04 #@! TF.FilePolarity,Positive*
G04*
G01*
G75*
%ADD10C,0.2000*%
%ADD11C,0.2540*%
G04:AMPARAMS|DCode=14|XSize=1mm|YSize=0.7mm|CornerRadius=0.175mm|HoleSize=0mm|Usage=FLASHONLY|Rotation=270.000|XOffset=0mm|YOffset=0mm|HoleType=Round|Shape=RoundedRectangle|*
%AMROUNDEDRECTD14*
21,1,1.0000,0.3500,0,0,270.0*
21,1,0.6500,0.7000,0,0,270.0*
1,1,0.3500,-0.1750,-0.3250*
1,1,0.3500,-0.1750,0.3250*
1,1,0.3500,0.1750,0.3250*
1,1,0.3500,0.1750,-0.3250*
%
%ADD14ROUNDEDRECTD14*%
G04:AMPARAMS|DCode=15|XSize=1.64mm|YSize=2.23mm|CornerRadius=0.41mm|HoleSize=0mm|Usage=FLASHONLY|Rotation=90.000|XOffset=0mm|YOffset=0mm|HoleType=Round|Shape=RoundedRectangle|*
%AMROUNDEDRECTD15*
21,1,1.6400,1.4100,0,0,90.0*
21,1,0.8200,2.2300,0,0,90.0*
1,1,0.8200,0.7050,0.4100*
1,1,0.8200,0.7050,-0.4100*
1,1,0.8200,-0.7050,-0.4100*
1,1,0.8200,-0.7050,0.4100*
%
%ADD15ROUNDEDRECTD15*%
%ADD16R,2.5000X2.0000*%
%ADD17R,2.3000X0.4000*%
%ADD18R,1.2000X1.6500*%
G04:AMPARAMS|DCode=19|XSize=1mm|YSize=0.7mm|CornerRadius=0.175mm|HoleSize=0mm|Usage=FLASHONLY|Rotation=180.000|XOffset=0mm|YOffset=0mm|HoleType=Round|Shape=RoundedRectangle|*
%AMROUNDEDRECTD19*
21,1,1.0000,0.3500,0,0,180.0*
21,1,0.6500,0.7000,0,0,180.0*
1,1,0.3500,-0.3250,0.1750*
1,1,0.3500,0.3250,0.1750*
1,1,0.3500,0.3250,-0.1750*
1,1,0.3500,-0.3250,-0.1750*
%
%ADD19ROUNDEDRECTD19*%
G04:AMPARAMS|DCode=20|XSize=0.8mm|YSize=1.2mm|CornerRadius=0.16mm|HoleSize=0mm|Usage=FLASHONLY|Rotation=90.000|XOffset=0mm|YOffset=0mm|HoleType=Round|Shape=RoundedRectangle|*
%AMROUNDEDRECTD20*
21,1,0.8000,0.8800,0,0,90.0*
21,1,0.4800,1.2000,0,0,90.0*
1,1,0.3200,0.4400,0.2400*
1,1,0.3200,0.4400,-0.2400*
1,1,0.3200,-0.4400,-0.2400*
1,1,0.3200,-0.4400,0.2400*
%
%ADD20ROUNDEDRECTD20*%
G04:AMPARAMS|DCode=21|XSize=2.06mm|YSize=2.02mm|CornerRadius=0.2525mm|HoleSize=0mm|Usage=FLASHONLY|Rotation=270.000|XOffset=0mm|YOffset=0mm|HoleType=Round|Shape=RoundedRectangle|*
%AMROUNDEDRECTD21*
21,1,2.0600,1.5150,0,0,270.0*
21,1,1.5550,2.0200,0,0,270.0*
1,1,0.5050,-0.7575,-0.7775*
1,1,0.5050,-0.7575,0.7775*
1,1,0.5050,0.7575,0.7775*
1,1,0.5050,0.7575,-0.7775*
%
%ADD21ROUNDEDRECTD21*%
G04:AMPARAMS|DCode=22|XSize=2.06mm|YSize=2.02mm|CornerRadius=0.2525mm|HoleSize=0mm|Usage=FLASHONLY|Rotation=0.000|XOffset=0mm|YOffset=0mm|HoleType=Round|Shape=RoundedRectangle|*
%AMROUNDEDRECTD22*
21,1,2.0600,1.5150,0,0,0.0*
21,1,1.5550,2.0200,0,0,0.0*
1,1,0.5050,0.7775,-0.7575*
1,1,0.5050,-0.7775,-0.7575*
1,1,0.5050,-0.7775,0.7575*
1,1,0.5050,0.7775,0.7575*
%
%ADD22ROUNDEDRECTD22*%
%ADD23R,2.7000X1.0000*%
%ADD24O,1.2000X0.3000*%
%ADD25R,2.7000X3.3000*%
%ADD26O,0.3000X1.2000*%
%ADD27R,3.1300X3.1300*%
%ADD28R,4.0000X5.5000*%
%ADD29R,2.0000X4.1000*%
%ADD30R,3.0000X1.0200*%
%ADD31R,7.5000X8.3300*%
%ADD32R,3.0000X1.2350*%
G04:AMPARAMS|DCode=33|XSize=0.81mm|YSize=0.9mm|CornerRadius=0.2025mm|HoleSize=0mm|Usage=FLASHONLY|Rotation=0.000|XOffset=0mm|YOffset=0mm|HoleType=Round|Shape=RoundedRectangle|*
%AMROUNDEDRECTD33*
21,1,0.8100,0.4950,0,0,0.0*
21,1,0.4050,0.9000,0,0,0.0*
1,1,0.4050,0.2025,-0.2475*
1,1,0.4050,-0.2025,-0.2475*
1,1,0.4050,-0.2025,0.2475*
1,1,0.4050,0.2025,0.2475*
%
%ADD33ROUNDEDRECTD33*%
%ADD57C,0.2032*%
%ADD58C,0.5080*%
%ADD59C,0.3810*%
%ADD60C,0.7620*%
%ADD61R,1.5000X1.5000*%
%ADD62C,1.5000*%
%ADD63C,0.9000*%
%ADD64C,0.4570*%
G36*
X106949Y-327384D02*
X-7561D01*
X-8367Y-326403D01*
X-8195Y-325538D01*
X-7830Y-319974D01*
X-8195Y-314410D01*
X-9283Y-308940D01*
X-11075Y-303660D01*
X-13542Y-298658D01*
X-16640Y-294022D01*
X-20317Y-289829D01*
X-24509Y-286152D01*
X-29146Y-283054D01*
X-34147Y-280588D01*
X-39428Y-278795D01*
X-44897Y-277708D01*
X-50462Y-277343D01*
X-56026Y-277708D01*
X-61495Y-278795D01*
X-66776Y-280588D01*
X-71777Y-283054D01*
X-76414Y-286152D01*
X-80606Y-289829D01*
X-84283Y-294022D01*
X-87381Y-298658D01*
X-89848Y-303660D01*
X-91640Y-308940D01*
X-92728Y-314410D01*
X-93093Y-319974D01*
X-92728Y-325538D01*
X-92556Y-326403D01*
X-93362Y-327384D01*
X-167872D01*
Y-269974D01*
X-168069Y-268983D01*
X-168630Y-268143D01*
X-169471Y-267581D01*
X-170462Y-267384D01*
X-320462D01*
X-321453Y-267581D01*
X-322293Y-268143D01*
X-322854Y-268983D01*
X-323051Y-269974D01*
Y-327384D01*
X-357561D01*
X-358367Y-326403D01*
X-358195Y-325538D01*
X-357830Y-319974D01*
X-358195Y-314410D01*
X-359283Y-308940D01*
X-361075Y-303660D01*
X-363542Y-298658D01*
X-366640Y-294022D01*
X-370317Y-289829D01*
X-374509Y-286152D01*
X-379146Y-283054D01*
X-384147Y-280588D01*
X-389428Y-278795D01*
X-394897Y-277708D01*
X-400462Y-277343D01*
X-406026Y-277708D01*
X-411495Y-278795D01*
X-416776Y-280588D01*
X-421777Y-283054D01*
X-426414Y-286152D01*
X-430606Y-289829D01*
X-434283Y-294022D01*
X-437381Y-298658D01*
X-439848Y-303660D01*
X-441640Y-308940D01*
X-442728Y-314410D01*
X-443093Y-319974D01*
X-442728Y-325538D01*
X-442556Y-326403D01*
X-443362Y-327384D01*
X-487872D01*
Y-289974D01*
Y-279974D01*
X-488069Y-278983D01*
X-488630Y-278143D01*
X-498630Y-268143D01*
X-499470Y-267581D01*
X-500462Y-267384D01*
X-537872D01*
Y27436D01*
X-500462D01*
X-499470Y27633D01*
X-498630Y28195D01*
X-488630Y38195D01*
X-488069Y39035D01*
X-487872Y40026D01*
Y87436D01*
X-443362D01*
X-442556Y86454D01*
X-442728Y85590D01*
X-443093Y80026D01*
X-442728Y74461D01*
X-441640Y68992D01*
X-439848Y63712D01*
X-437381Y58710D01*
X-434283Y54074D01*
X-430606Y49881D01*
X-426414Y46204D01*
X-421777Y43106D01*
X-416776Y40640D01*
X-411495Y38847D01*
X-406026Y37759D01*
X-400462Y37395D01*
X-394897Y37759D01*
X-389428Y38847D01*
X-384147Y40640D01*
X-379146Y43106D01*
X-374509Y46204D01*
X-370317Y49881D01*
X-366640Y54074D01*
X-363542Y58710D01*
X-361075Y63712D01*
X-359283Y68992D01*
X-358195Y74461D01*
X-357830Y80026D01*
X-358195Y85590D01*
X-358307Y86156D01*
X-357502Y87138D01*
X-93421D01*
X-92616Y86156D01*
X-92728Y85590D01*
X-93093Y80026D01*
X-92728Y74461D01*
X-91640Y68992D01*
X-89848Y63712D01*
X-87381Y58710D01*
X-84283Y54074D01*
X-80606Y49881D01*
X-76414Y46204D01*
X-71777Y43106D01*
X-66776Y40640D01*
X-61495Y38847D01*
X-56026Y37759D01*
X-50462Y37395D01*
X-44897Y37759D01*
X-39428Y38847D01*
X-34147Y40640D01*
X-29146Y43106D01*
X-24509Y46204D01*
X-20317Y49881D01*
X-16640Y54074D01*
X-13542Y58710D01*
X-11075Y63712D01*
X-9283Y68992D01*
X-8195Y74461D01*
X-7830Y80026D01*
X-8195Y85590D01*
X-8367Y86454D01*
X-7561Y87436D01*
X106949D01*
Y-327384D01*
D02*
G37*
%LPC*%
G36*
X-91174Y41563D02*
X-209538D01*
X-210776Y41317D01*
X-211827Y40615D01*
X-223819Y28622D01*
X-225144Y28074D01*
X-226209Y27009D01*
X-226786Y25617D01*
Y24111D01*
X-226209Y22719D01*
X-225144Y21654D01*
X-223753Y21078D01*
X-222246D01*
X-220855Y21654D01*
X-219790Y22719D01*
X-219241Y24044D01*
X-208197Y35089D01*
X-119929D01*
X-119677Y33819D01*
X-120090Y33648D01*
X-120621Y33117D01*
X-121025Y33085D01*
X-121233Y33083D01*
X-121361Y33028D01*
X-199395D01*
X-200386Y32831D01*
X-201226Y32269D01*
X-209395Y24100D01*
X-209957Y23260D01*
X-210154Y22269D01*
Y9126D01*
X-210208Y8998D01*
X-210212Y8766D01*
X-210219Y8589D01*
X-210238Y8389D01*
X-210774Y7854D01*
X-211350Y6463D01*
Y4957D01*
X-210774Y3565D01*
X-209709Y2500D01*
X-208317Y1924D01*
X-206811D01*
X-205419Y2500D01*
X-204354Y3565D01*
X-203778Y4957D01*
Y6463D01*
X-204354Y7854D01*
X-204886Y8385D01*
X-204917Y8789D01*
X-204919Y8998D01*
X-204974Y9126D01*
Y21196D01*
X-198322Y27848D01*
X-121361D01*
X-121233Y27794D01*
X-121001Y27791D01*
X-120824Y27783D01*
X-120625Y27764D01*
X-120090Y27229D01*
X-118698Y26652D01*
X-117192D01*
X-115800Y27229D01*
X-114735Y28293D01*
X-114159Y29685D01*
Y31191D01*
X-114735Y32583D01*
X-115800Y33648D01*
X-116213Y33819D01*
X-115961Y35089D01*
X-92514D01*
X-77715Y20289D01*
X-76664Y19587D01*
X-75426Y19341D01*
X-60486D01*
X-59161Y18792D01*
X-57655D01*
X-56263Y19368D01*
X-55198Y20433D01*
X-54622Y21825D01*
Y23331D01*
X-55198Y24723D01*
X-56263Y25788D01*
X-57655Y26364D01*
X-59161D01*
X-60486Y25815D01*
X-74085D01*
X-88884Y40615D01*
X-89935Y41317D01*
X-91174Y41563D01*
D02*
G37*
G36*
X-320527Y24922D02*
X-322033D01*
X-323425Y24346D01*
X-324490Y23281D01*
X-325066Y21890D01*
Y20383D01*
X-324490Y18992D01*
X-323425Y17927D01*
X-322033Y17350D01*
X-321282D01*
X-320975Y17087D01*
X-320825Y16941D01*
X-320696Y16890D01*
X-315787Y11981D01*
X-314947Y11419D01*
X-313956Y11222D01*
X-220894D01*
X-220767Y11168D01*
X-220534Y11164D01*
X-220358Y11157D01*
X-220158Y11138D01*
X-219623Y10602D01*
X-218231Y10026D01*
X-216725D01*
X-215333Y10602D01*
X-214268Y11667D01*
X-213692Y13059D01*
Y14565D01*
X-214268Y15957D01*
X-215333Y17022D01*
X-216725Y17598D01*
X-218231D01*
X-219623Y17022D01*
X-220154Y16490D01*
X-220558Y16459D01*
X-220767Y16457D01*
X-220894Y16402D01*
X-312883D01*
X-317034Y20552D01*
X-317085Y20681D01*
X-317248Y20849D01*
X-317367Y20978D01*
X-317494Y21133D01*
Y21890D01*
X-318071Y23281D01*
X-319136Y24346D01*
X-320527Y24922D01*
D02*
G37*
G36*
X85949Y52493D02*
X-7624D01*
X-8510Y52317D01*
X-9261Y51816D01*
X-27789Y33287D01*
X-28291Y32536D01*
X-28467Y31650D01*
Y13447D01*
X-28986Y13126D01*
X-29737Y12968D01*
X-30888Y14119D01*
X-31728Y14680D01*
X-32719Y14877D01*
X-160760D01*
X-170020Y24137D01*
X-170025Y24141D01*
X-170028Y24145D01*
X-170445Y24422D01*
X-170860Y24699D01*
X-170866Y24700D01*
X-170871Y24703D01*
X-171361Y24798D01*
X-171851Y24896D01*
X-171857Y24895D01*
X-171863Y24896D01*
X-196178Y24787D01*
X-196673D01*
X-197651Y24592D01*
X-198458D01*
Y24059D01*
X-198504Y24028D01*
X-200495Y22037D01*
X-201056Y21197D01*
X-201253Y20206D01*
X-201253Y-7423D01*
X-251564Y-57734D01*
X-286028D01*
X-286707Y-56464D01*
X-286539Y-56212D01*
X-258522D01*
X-257530Y-56015D01*
X-256910Y-55600D01*
X-256486D01*
Y-55147D01*
X-256129Y-54613D01*
X-255932Y-53622D01*
Y-42661D01*
X-256129Y-41670D01*
X-256486Y-41136D01*
Y-40828D01*
X-256693D01*
X-257530Y-40268D01*
X-258522Y-40071D01*
X-307837Y-40071D01*
X-308828Y-40268D01*
X-309668Y-40830D01*
X-313046Y-44208D01*
X-313608Y-45048D01*
X-313805Y-46039D01*
Y-143228D01*
X-313608Y-144219D01*
X-313046Y-145059D01*
X-288860Y-169245D01*
X-288020Y-169807D01*
X-287029Y-170004D01*
X-209246D01*
X-208255Y-169807D01*
X-207414Y-169245D01*
X-206853Y-168405D01*
X-206656Y-167414D01*
Y-148008D01*
X-206853Y-147017D01*
X-207414Y-146177D01*
X-244250Y-109342D01*
Y-108108D01*
X-245832D01*
X-246736Y-107928D01*
X-288845D01*
X-291492Y-105281D01*
Y-73690D01*
X-291058Y-72600D01*
X-289614D01*
X-289002Y-72722D01*
X-278772D01*
Y-78633D01*
X-278525Y-79872D01*
X-277823Y-80922D01*
X-264941Y-93805D01*
X-263890Y-94507D01*
X-262652Y-94753D01*
X-252722D01*
X-206404Y-141072D01*
X-205354Y-141773D01*
X-204115Y-142020D01*
X-163845D01*
X-132896Y-172968D01*
X-131846Y-173670D01*
X-130607Y-173916D01*
X-113284D01*
X-105527Y-181673D01*
Y-187174D01*
X-105213Y-188749D01*
X-104321Y-190084D01*
X-102986Y-190976D01*
X-101412Y-191289D01*
X-76869D01*
X-75156Y-189576D01*
X-74264Y-188241D01*
X-73951Y-186666D01*
Y-180166D01*
X-74264Y-178591D01*
X-75156Y-177256D01*
X-76491Y-176364D01*
X-78066Y-176051D01*
X-81566D01*
X-83140Y-176364D01*
X-84475Y-177256D01*
X-85367Y-178591D01*
X-85681Y-180166D01*
Y-180179D01*
X-93895D01*
X-94110Y-179099D01*
X-95002Y-177764D01*
X-96337Y-176872D01*
X-97912Y-176559D01*
X-101412D01*
X-101473Y-176571D01*
X-111797Y-166247D01*
X-111797Y-158467D01*
X-102130Y-148801D01*
X-81737D01*
X-77392Y-144456D01*
X-76533Y-143170D01*
X-76231Y-141654D01*
Y-136854D01*
X-76533Y-135338D01*
X-77392Y-134052D01*
X-78677Y-133194D01*
X-80194Y-132892D01*
X-88994D01*
X-93797Y-128089D01*
Y-119201D01*
X-91460Y-116865D01*
X-91460Y-116865D01*
X-91460Y-116865D01*
X-90267Y-116807D01*
X-78844D01*
X-73404Y-122247D01*
Y-138274D01*
X-73227Y-139166D01*
X-72722Y-139922D01*
X-68314Y-144330D01*
X-68654Y-144838D01*
X-68956Y-146354D01*
Y-151154D01*
X-68654Y-152670D01*
X-67795Y-153956D01*
X-66510Y-154815D01*
X-64994Y-155116D01*
X-56194D01*
X-54677Y-154815D01*
X-53392Y-153956D01*
X-52533Y-152670D01*
X-52231Y-151154D01*
Y-146354D01*
X-52533Y-144838D01*
X-53392Y-143552D01*
X-54677Y-142694D01*
X-56194Y-142392D01*
X-63572D01*
X-63643Y-142324D01*
X-63691Y-142305D01*
X-63715Y-142260D01*
X-63826Y-142225D01*
X-68743Y-137309D01*
Y-121282D01*
X-68920Y-120390D01*
X-69426Y-119634D01*
X-76231Y-112829D01*
X-76987Y-112323D01*
X-77879Y-112146D01*
X-93612D01*
X-94290Y-110876D01*
X-94110Y-110606D01*
X-93797Y-109031D01*
X-92615Y-107978D01*
X-91795Y-108014D01*
X-90510Y-108873D01*
X-88994Y-109174D01*
X-80194D01*
X-78677Y-108873D01*
X-77392Y-108014D01*
X-76533Y-106728D01*
X-76231Y-105212D01*
Y-100412D01*
X-76533Y-98896D01*
X-77392Y-97610D01*
X-78484Y-96881D01*
X-78427Y-96046D01*
X-78273Y-95611D01*
X-75685D01*
X-74694Y-95414D01*
X-73854Y-94852D01*
X-73293Y-94012D01*
X-73096Y-93021D01*
Y-83501D01*
X-73293Y-82510D01*
X-73854Y-81670D01*
X-75290Y-80234D01*
X-75292Y-80232D01*
X-75294Y-80231D01*
X-75712Y-79952D01*
X-76130Y-79672D01*
X-76133Y-79672D01*
X-76135Y-79671D01*
X-76629Y-79573D01*
X-77122Y-79475D01*
X-77124Y-79476D01*
X-77126Y-79475D01*
X-92869Y-79504D01*
X-93768Y-78607D01*
Y-67362D01*
X-93965Y-66371D01*
X-94527Y-65531D01*
X-110207Y-49851D01*
Y-16168D01*
X-108371Y-14332D01*
X-22195D01*
X-21203Y-14135D01*
X-20363Y-13573D01*
X-11364Y-4574D01*
X-10803Y-3734D01*
X-10606Y-2743D01*
Y6350D01*
X-7717Y9239D01*
X-7599Y9190D01*
Y9190D01*
X-5952Y10838D01*
X11093D01*
X12361Y9571D01*
X12361Y3000D01*
X12558Y2009D01*
X13119Y1169D01*
X14119Y169D01*
X14959Y-393D01*
X15950Y-590D01*
X24509Y-590D01*
X25501Y-393D01*
X26341Y169D01*
X26942Y770D01*
X26942Y770D01*
X27503Y1610D01*
X27700Y2601D01*
Y14190D01*
X27976Y14526D01*
X38500D01*
X44833Y8193D01*
Y-37768D01*
X45030Y-38759D01*
X45591Y-39599D01*
X46677Y-40685D01*
X47517Y-41246D01*
X48508Y-41443D01*
X57683Y-41443D01*
X58674Y-41246D01*
X58674Y-41246D01*
X58674Y-41246D01*
X59096Y-40964D01*
X59514Y-40685D01*
X59771Y-40428D01*
X59771Y-40428D01*
X60106Y-39926D01*
X60332Y-39588D01*
X60332Y-39588D01*
X60332Y-39588D01*
X60529Y-38597D01*
X60529Y11806D01*
X60332Y12797D01*
X59771Y13637D01*
X56746Y16661D01*
X56657Y16721D01*
X56597Y16810D01*
X34014Y39394D01*
X34540Y40664D01*
X75780D01*
X87910Y28534D01*
Y23473D01*
X81454D01*
Y5933D01*
X98995D01*
Y23473D01*
X92539D01*
Y29492D01*
X92363Y30378D01*
X91861Y31129D01*
X78375Y44615D01*
X77624Y45117D01*
X76739Y45293D01*
X-2966D01*
X-3852Y45117D01*
X-4603Y44615D01*
X-19459Y29759D01*
X-19961Y29008D01*
X-20137Y28122D01*
Y22472D01*
X-20146Y22468D01*
X-21211Y21403D01*
X-21787Y20012D01*
Y18506D01*
X-21211Y17114D01*
X-20146Y16049D01*
X-18754Y15473D01*
X-18647D01*
X-18121Y14203D01*
X-21281Y11042D01*
X-21843Y10202D01*
X-22040Y9211D01*
X-22155Y9030D01*
X-22273Y8899D01*
X-23310Y8494D01*
X-23778Y8803D01*
X-23838Y8937D01*
Y30692D01*
X-6665Y47864D01*
X84991D01*
X100976Y31879D01*
Y3328D01*
X94570Y-3079D01*
X93610Y-2525D01*
X91379Y-1927D01*
X89070D01*
X86839Y-2525D01*
X84840Y-3679D01*
X83207Y-5312D01*
X82052Y-7312D01*
X81454Y-9542D01*
Y-11852D01*
X82052Y-14082D01*
X83207Y-16082D01*
X84840Y-17715D01*
X86839Y-18869D01*
X89070Y-19467D01*
X91379D01*
X93610Y-18869D01*
X95609Y-17715D01*
X97242Y-16082D01*
X98397Y-14082D01*
X98995Y-11852D01*
Y-9542D01*
X98397Y-7312D01*
X97843Y-6352D01*
X104927Y732D01*
X105429Y1483D01*
X105605Y2369D01*
Y32838D01*
X105429Y33724D01*
X104927Y34475D01*
X87586Y51816D01*
X86835Y52317D01*
X85949Y52493D01*
D02*
G37*
G36*
X-257751Y-4804D02*
X-343818D01*
X-344809Y-5001D01*
X-345649Y-5563D01*
X-346741Y-6654D01*
X-347302Y-7495D01*
X-347499Y-8486D01*
Y-77194D01*
X-382982D01*
X-383973Y-77391D01*
X-384813Y-77953D01*
X-394722Y-87862D01*
X-410258D01*
X-411249Y-88059D01*
X-412090Y-88621D01*
X-413007Y-89538D01*
X-413568Y-90378D01*
X-413765Y-91369D01*
Y-111765D01*
X-413568Y-112756D01*
X-413007Y-113596D01*
X-411968Y-114635D01*
X-411127Y-115197D01*
X-410136Y-115394D01*
X-399287Y-115394D01*
Y-146404D01*
X-451039D01*
X-452030Y-146601D01*
X-452871Y-147163D01*
X-454284Y-148576D01*
X-454845Y-149416D01*
X-455042Y-150407D01*
Y-179501D01*
X-454845Y-180492D01*
X-454284Y-181332D01*
X-452855Y-182761D01*
X-452214Y-183189D01*
X-452284Y-184066D01*
X-452426Y-184459D01*
X-459793D01*
X-459920Y-184404D01*
X-460153Y-184401D01*
X-460329Y-184394D01*
X-460529Y-184374D01*
X-461064Y-183839D01*
X-462456Y-183263D01*
X-463962D01*
X-465353Y-183839D01*
X-466418Y-184904D01*
X-466995Y-186296D01*
Y-187802D01*
X-466418Y-189193D01*
X-465353Y-190258D01*
X-463962Y-190835D01*
X-462456D01*
X-461064Y-190258D01*
X-460533Y-189727D01*
X-460129Y-189696D01*
X-459920Y-189693D01*
X-459793Y-189638D01*
X-456527D01*
X-456376Y-190846D01*
X-457768Y-191422D01*
X-458833Y-192487D01*
X-459409Y-193879D01*
Y-195385D01*
X-458833Y-196776D01*
X-457768Y-197841D01*
X-456376Y-198418D01*
X-454870D01*
X-453478Y-197841D01*
X-453008Y-197371D01*
X-452591Y-197341D01*
X-452378Y-197338D01*
X-452251Y-197283D01*
X-427754D01*
X-421988Y-203050D01*
Y-215736D01*
X-422106Y-216330D01*
X-421988Y-216924D01*
Y-220736D01*
X-422106Y-221330D01*
X-421988Y-221924D01*
Y-223047D01*
X-420042Y-224992D01*
X-419240D01*
X-418246Y-225190D01*
X-409246D01*
X-408251Y-224992D01*
X-405347D01*
X-403396Y-223041D01*
Y-215757D01*
X-403319Y-215680D01*
X-372209D01*
X-372209Y-225708D01*
X-369212Y-228705D01*
X-368975Y-229060D01*
X-368620Y-229297D01*
X-367804Y-230113D01*
X-366633D01*
X-366246Y-230190D01*
X-357246D01*
X-356858Y-230113D01*
X-353273D01*
X-346476Y-223316D01*
X-346539Y-223252D01*
Y-219786D01*
X-345515Y-218762D01*
X-336059D01*
X-333882Y-220938D01*
Y-243986D01*
X-333685Y-244977D01*
X-333124Y-245817D01*
X-331084Y-247857D01*
X-330243Y-248419D01*
X-329253Y-248616D01*
X-328114D01*
X-327726Y-248693D01*
X-324226D01*
X-323837Y-248616D01*
X-254838D01*
X-253846Y-248419D01*
X-253006Y-247857D01*
X-249321Y-244172D01*
X-148291D01*
X-147675Y-244049D01*
X-147300Y-243975D01*
X-147300Y-243975D01*
X-147300Y-243975D01*
X-146826Y-243658D01*
X-146460Y-243414D01*
X-146201Y-243154D01*
X-146200Y-243154D01*
X-146200Y-243154D01*
X-145900Y-242704D01*
X-145639Y-242314D01*
X-145639Y-242314D01*
X-145639Y-242314D01*
X-145535Y-241792D01*
X-145442Y-241323D01*
X-145442Y-241323D01*
X-145442Y-241322D01*
Y-219752D01*
X-145639Y-218761D01*
X-146200Y-217921D01*
X-147550Y-216571D01*
X-148390Y-216010D01*
X-149381Y-215813D01*
X-157579D01*
X-158570Y-216010D01*
X-159410Y-216571D01*
X-160795Y-217956D01*
X-161356Y-218796D01*
X-161553Y-219787D01*
Y-220156D01*
X-168198Y-226800D01*
X-194793D01*
X-198250Y-223344D01*
Y-222240D01*
X-199598D01*
X-199700Y-222171D01*
X-200692Y-221974D01*
X-242747D01*
X-255959Y-208763D01*
X-256799Y-208201D01*
X-257790Y-208004D01*
X-312567Y-208004D01*
X-351075Y-169496D01*
X-350570Y-168226D01*
X-348728D01*
X-311968Y-204986D01*
X-311128Y-205547D01*
X-310137Y-205744D01*
X-240618D01*
X-232413Y-213949D01*
X-231573Y-214511D01*
X-230582Y-214708D01*
X-165304Y-214708D01*
X-164312Y-214511D01*
X-163472Y-213949D01*
X-162964Y-213441D01*
X-162403Y-212601D01*
X-162206Y-211610D01*
X-162206Y-199208D01*
X-162403Y-198217D01*
X-162964Y-197376D01*
X-164024Y-196317D01*
X-164864Y-195755D01*
X-165855Y-195558D01*
X-191647D01*
X-203332Y-183635D01*
X-203343Y-183628D01*
X-203350Y-183617D01*
X-203760Y-183343D01*
X-204166Y-183065D01*
X-204179Y-183063D01*
X-204191Y-183055D01*
X-204673Y-182959D01*
X-205155Y-182858D01*
X-205168Y-182861D01*
X-205182Y-182858D01*
X-289443Y-182858D01*
X-353055Y-119247D01*
Y-111483D01*
X-353252Y-110492D01*
X-353814Y-109651D01*
X-354250Y-109216D01*
Y-108108D01*
X-355583D01*
X-355742Y-108001D01*
X-356734Y-107804D01*
X-366422D01*
X-366422Y-91179D01*
X-333927D01*
X-332936Y-90982D01*
X-332096Y-90421D01*
X-330925Y-89250D01*
X-330364Y-88410D01*
X-330167Y-87419D01*
X-330167Y-23783D01*
X-329321Y-22938D01*
X-258058Y-22938D01*
X-257067Y-22741D01*
X-256227Y-22179D01*
X-255166Y-21119D01*
X-254605Y-20279D01*
X-254408Y-19288D01*
Y-8147D01*
X-254605Y-7156D01*
X-255166Y-6316D01*
X-255919Y-5563D01*
X-256759Y-5001D01*
X-257751Y-4804D01*
D02*
G37*
G36*
X-79046Y-17449D02*
X-102831D01*
X-103327Y-17548D01*
X-103584D01*
X-103822Y-17646D01*
X-104318Y-17745D01*
X-104738Y-18026D01*
X-104976Y-18124D01*
X-105157Y-18306D01*
X-105578Y-18587D01*
X-105859Y-19007D01*
X-106041Y-19189D01*
X-106139Y-19427D01*
X-106420Y-19847D01*
X-106519Y-20343D01*
X-106617Y-20581D01*
Y-20838D01*
X-106716Y-21334D01*
X-106617Y-21830D01*
Y-22087D01*
X-106519Y-22324D01*
X-106420Y-22820D01*
X-106139Y-23241D01*
X-106041Y-23478D01*
X-105859Y-23660D01*
X-105578Y-24081D01*
X-105157Y-24362D01*
X-104976Y-24543D01*
X-104738Y-24642D01*
X-104318Y-24923D01*
X-103822Y-25021D01*
X-103584Y-25120D01*
X-103327D01*
X-102831Y-25218D01*
X-80655D01*
X-70691Y-35182D01*
Y-65225D01*
X-70395Y-66711D01*
X-69553Y-67972D01*
X-57456Y-80069D01*
X-58265Y-81056D01*
X-58491Y-80905D01*
X-60066Y-80592D01*
X-63566D01*
X-65140Y-80905D01*
X-66475Y-81797D01*
X-67367Y-83132D01*
X-67681Y-84707D01*
Y-91207D01*
X-67367Y-92781D01*
X-66475Y-94116D01*
X-65140Y-95008D01*
X-64469Y-95142D01*
X-64460Y-95532D01*
X-64405Y-95655D01*
Y-98722D01*
X-64208Y-99713D01*
X-63647Y-100553D01*
X-63183Y-101017D01*
Y-105614D01*
X-63238Y-105736D01*
X-63243Y-105950D01*
X-64994D01*
X-66510Y-106251D01*
X-67795Y-107110D01*
X-68654Y-108396D01*
X-68956Y-109912D01*
Y-114712D01*
X-68654Y-116228D01*
X-67795Y-117514D01*
X-66510Y-118373D01*
X-64994Y-118674D01*
X-56194D01*
X-54677Y-118373D01*
X-53392Y-117514D01*
X-52533Y-116228D01*
X-52231Y-114712D01*
Y-109912D01*
X-52533Y-108396D01*
X-53392Y-107110D01*
X-54677Y-106251D01*
X-56194Y-105950D01*
X-57156Y-104988D01*
Y-94116D01*
X-57155Y-94116D01*
X-55469Y-92429D01*
X-27192D01*
X-18593Y-101028D01*
X-18576Y-101070D01*
X-18649Y-101465D01*
X-18793Y-101839D01*
X-19181Y-102340D01*
X-27628D01*
X-28619Y-102537D01*
X-29459Y-103099D01*
X-33087Y-106727D01*
X-34087Y-106290D01*
X-34279Y-106122D01*
Y-102706D01*
X-34592Y-101132D01*
X-35484Y-99797D01*
X-36819Y-98905D01*
X-38394Y-98591D01*
X-44894D01*
X-46468Y-98905D01*
X-47803Y-99797D01*
X-48695Y-101132D01*
X-49009Y-102706D01*
Y-106206D01*
X-48695Y-107781D01*
X-47803Y-109116D01*
X-46468Y-110008D01*
X-44894Y-110322D01*
X-44619D01*
X-44614Y-110535D01*
X-44559Y-110658D01*
Y-142055D01*
X-44614Y-142178D01*
X-44623Y-142569D01*
X-45294Y-142702D01*
X-46629Y-143594D01*
X-47521Y-144929D01*
X-47835Y-146504D01*
Y-151859D01*
X-47854Y-151883D01*
X-48260Y-152305D01*
X-48309Y-152431D01*
X-48350Y-152472D01*
X-48440Y-152537D01*
X-48444Y-152566D01*
X-63242Y-167364D01*
X-94225D01*
X-94804Y-166725D01*
X-95002Y-165414D01*
X-94110Y-164079D01*
X-93797Y-162504D01*
Y-156004D01*
X-94110Y-154429D01*
X-95002Y-153094D01*
X-96337Y-152202D01*
X-97912Y-151889D01*
X-101412D01*
X-102986Y-152202D01*
X-104321Y-153094D01*
X-105213Y-154429D01*
X-105527Y-156004D01*
Y-161907D01*
X-105527Y-163177D01*
X-105527Y-163177D01*
Y-164559D01*
X-98301Y-171785D01*
X-97461Y-172347D01*
X-96470Y-172544D01*
X-62169D01*
X-61178Y-172347D01*
X-60338Y-171785D01*
X-47194Y-158642D01*
X-47194Y-158642D01*
Y-158642D01*
X-45750Y-157197D01*
X-45623Y-157147D01*
X-45594Y-157119D01*
X-35040D01*
X-32322Y-154401D01*
Y-145435D01*
X-31460Y-144573D01*
X-22806D01*
X-22718Y-144486D01*
X-22506Y-144627D01*
X-22325Y-144808D01*
X-22089Y-144905D01*
X-21877Y-145047D01*
X-21763Y-145070D01*
X-21177Y-145461D01*
X-20785Y-146048D01*
X-20762Y-146162D01*
X-20621Y-146374D01*
X-20523Y-146610D01*
X-20343Y-146790D01*
X-20201Y-147002D01*
X-17567Y-149636D01*
X-8828Y-158375D01*
X-7988Y-158937D01*
X-6997Y-159134D01*
X7374D01*
X9361Y-161121D01*
Y-213797D01*
X-2629Y-225787D01*
X-3190Y-226627D01*
X-3387Y-227618D01*
Y-239429D01*
X-3190Y-240420D01*
X-2629Y-241260D01*
X-1183Y-242706D01*
X-342Y-243267D01*
X649Y-243465D01*
X20031D01*
X21022Y-243267D01*
X21862Y-242706D01*
X21862Y-242706D01*
X23640Y-240928D01*
X23640Y-240928D01*
X24201Y-240088D01*
X24398Y-239097D01*
Y-223046D01*
X24398Y-175830D01*
Y-151534D01*
X24201Y-150543D01*
X23640Y-149703D01*
X21994Y-148057D01*
X21994Y-148057D01*
X21154Y-147495D01*
X20162Y-147298D01*
X-3061D01*
X-5467Y-144893D01*
X-5219Y-143647D01*
X-4963Y-143541D01*
X-3898Y-142476D01*
X-3322Y-141085D01*
Y-140333D01*
X-3059Y-140026D01*
X-2913Y-139876D01*
X-2861Y-139747D01*
X9787Y-127099D01*
X58464D01*
X59454Y-126902D01*
X60295Y-126340D01*
X71748Y-114887D01*
X81839D01*
X82052Y-115682D01*
X83207Y-117682D01*
X84840Y-119315D01*
X86839Y-120469D01*
X89070Y-121067D01*
X91379D01*
X93610Y-120469D01*
X95609Y-119315D01*
X97242Y-117682D01*
X98397Y-115682D01*
X98995Y-113452D01*
Y-111143D01*
X98397Y-108912D01*
X97242Y-106912D01*
X95609Y-105279D01*
X93610Y-104125D01*
X91379Y-103527D01*
X89070D01*
X86839Y-104125D01*
X84840Y-105279D01*
X83207Y-106912D01*
X82052Y-108912D01*
X81839Y-109707D01*
X70675D01*
X69684Y-109904D01*
X68844Y-110466D01*
X57391Y-121919D01*
X8715D01*
X7723Y-122116D01*
X6883Y-122678D01*
X-6524Y-136085D01*
X-6653Y-136136D01*
X-6820Y-136299D01*
X-6949Y-136418D01*
X-7104Y-136545D01*
X-7861D01*
X-9253Y-137122D01*
X-10318Y-138187D01*
X-10424Y-138442D01*
X-11669Y-138690D01*
X-19290Y-131069D01*
X-19290Y-120387D01*
X-18020Y-120135D01*
X-17748Y-120791D01*
X-16683Y-121856D01*
X-15292Y-122432D01*
X-13785D01*
X-12394Y-121856D01*
X-11329Y-120791D01*
X-10752Y-119400D01*
Y-118950D01*
X49288D01*
X50279Y-118753D01*
X51120Y-118191D01*
X79824Y-89487D01*
X81839D01*
X82052Y-90282D01*
X83207Y-92282D01*
X84840Y-93915D01*
X86839Y-95069D01*
X89070Y-95667D01*
X91379D01*
X93610Y-95069D01*
X95609Y-93915D01*
X97242Y-92282D01*
X98397Y-90282D01*
X98995Y-88052D01*
Y-85743D01*
X98397Y-83512D01*
X97242Y-81512D01*
X95609Y-79879D01*
X93610Y-78725D01*
X91379Y-78127D01*
X89070D01*
X86839Y-78725D01*
X84840Y-79879D01*
X83207Y-81512D01*
X82052Y-83512D01*
X81839Y-84307D01*
X78751D01*
X77760Y-84504D01*
X76920Y-85066D01*
X48216Y-113770D01*
X41651D01*
X41526Y-112500D01*
X41868Y-112432D01*
X42708Y-111871D01*
X44173Y-110406D01*
X44734Y-109566D01*
X44931Y-108575D01*
X44931Y-82950D01*
X44734Y-81959D01*
X44173Y-81119D01*
X42251Y-79197D01*
X42251Y-79197D01*
X41411Y-78636D01*
X40420Y-78439D01*
X24374D01*
X23383Y-78636D01*
X22543Y-79197D01*
X21572Y-80168D01*
X21295Y-80583D01*
X21012Y-81005D01*
X21012Y-81007D01*
X21011Y-81008D01*
X20914Y-81499D01*
X20814Y-81996D01*
X20795Y-99749D01*
X19969Y-100575D01*
X6285D01*
X5406Y-99695D01*
Y-90329D01*
X5209Y-89338D01*
X4648Y-88498D01*
X-4407Y-79443D01*
Y-59670D01*
X-4604Y-58679D01*
X-5165Y-57839D01*
X-5800Y-57204D01*
X-5274Y-55934D01*
X9116D01*
X27368Y-74186D01*
X28208Y-74747D01*
X29200Y-74944D01*
X99879D01*
X100870Y-74747D01*
X101710Y-74186D01*
X102331Y-73566D01*
X102331Y-73565D01*
X102331Y-73565D01*
X103350Y-72547D01*
Y-47247D01*
Y-27701D01*
X103152Y-26710D01*
X102591Y-25870D01*
X101881Y-25160D01*
X101462Y-24880D01*
X101048Y-24601D01*
X101044Y-24601D01*
X101041Y-24598D01*
X100549Y-24501D01*
X100057Y-24401D01*
X86888Y-24362D01*
X86884Y-24363D01*
X86880Y-24362D01*
X86391Y-24460D01*
X85896Y-24557D01*
X85893Y-24559D01*
X85889Y-24559D01*
X85473Y-24837D01*
X85055Y-25115D01*
X85052Y-25119D01*
X85049Y-25121D01*
X67113Y-43057D01*
X41720D01*
X41210Y-42547D01*
Y-40583D01*
X41013Y-39592D01*
X40879Y-39267D01*
Y-38792D01*
X41013Y-38468D01*
X41210Y-37476D01*
Y-29492D01*
X41013Y-28501D01*
X40452Y-27661D01*
X39757Y-26966D01*
X38917Y-26405D01*
X37926Y-26208D01*
X37850D01*
X36910Y-26021D01*
X33410D01*
X32471Y-26208D01*
X30330D01*
X22891Y-18769D01*
X22051Y-18207D01*
X21060Y-18010D01*
X-48911D01*
X-49902Y-18207D01*
X-50742Y-18769D01*
X-53410Y-21437D01*
X-53972Y-22277D01*
X-54169Y-23268D01*
Y-51865D01*
X-53972Y-52856D01*
X-53410Y-53696D01*
X-51931Y-55175D01*
X-51091Y-55737D01*
X-50100Y-55934D01*
X-32858D01*
X-31867Y-55737D01*
X-31027Y-55175D01*
X-30919Y-55067D01*
X-29649Y-55593D01*
Y-63924D01*
X-30021Y-64482D01*
X-30335Y-66056D01*
Y-72556D01*
X-30201Y-73227D01*
X-31188Y-74497D01*
X-52041D01*
X-62922Y-63616D01*
Y-33573D01*
X-63217Y-32087D01*
X-64060Y-30826D01*
X-76299Y-18587D01*
X-77559Y-17745D01*
X-79046Y-17449D01*
D02*
G37*
G36*
X-434799Y-88755D02*
X-483590D01*
X-483590Y-88755D01*
X-483591Y-88755D01*
X-484045Y-88846D01*
X-484581Y-88952D01*
X-484581Y-88952D01*
X-484581Y-88952D01*
X-484952Y-89199D01*
X-485421Y-89514D01*
X-485421Y-89514D01*
X-485422Y-89514D01*
X-485529Y-89621D01*
X-485529Y-89621D01*
X-485529Y-89621D01*
X-485786Y-90006D01*
X-486090Y-90461D01*
X-486091Y-90462D01*
X-486091Y-90462D01*
X-486197Y-90998D01*
X-486288Y-91452D01*
Y-94194D01*
X-487558Y-94535D01*
X-487895Y-93949D01*
X-489159Y-92686D01*
X-490706Y-91792D01*
X-492432Y-91330D01*
X-494219D01*
X-495945Y-91792D01*
X-497492Y-92686D01*
X-498756Y-93949D01*
X-499649Y-95497D01*
X-500112Y-97223D01*
Y-99009D01*
X-499649Y-100735D01*
X-498756Y-102283D01*
X-497492Y-103546D01*
X-495945Y-104440D01*
X-494219Y-104902D01*
X-492432D01*
X-490706Y-104440D01*
X-489159Y-103546D01*
X-487895Y-102283D01*
X-487558Y-101698D01*
X-486288Y-102038D01*
Y-105963D01*
X-486177Y-106517D01*
X-486091Y-106953D01*
X-486091Y-106954D01*
X-486090Y-106954D01*
X-485787Y-107408D01*
X-485529Y-107794D01*
X-485376Y-107947D01*
X-485376Y-107947D01*
X-485376Y-107947D01*
X-484990Y-108205D01*
X-484536Y-108509D01*
X-484536Y-108509D01*
X-484535Y-108509D01*
X-484070Y-108601D01*
X-483545Y-108706D01*
X-483545Y-108706D01*
X-483544Y-108706D01*
X-482112D01*
Y-111558D01*
X-494393D01*
X-495384Y-111755D01*
X-496225Y-112316D01*
X-507227Y-123319D01*
X-507788Y-124159D01*
X-507985Y-125150D01*
Y-196110D01*
X-507788Y-197101D01*
X-507227Y-197941D01*
X-500510Y-204658D01*
X-500510Y-204658D01*
X-497591Y-207577D01*
X-497591Y-207577D01*
X-496438Y-208730D01*
X-495598Y-209291D01*
X-494607Y-209489D01*
X-447184D01*
X-444647Y-212025D01*
Y-218016D01*
X-445479Y-218461D01*
X-445918Y-218585D01*
X-447341Y-218301D01*
X-450841D01*
X-452416Y-218615D01*
X-453751Y-219507D01*
X-454643Y-220842D01*
X-454956Y-222416D01*
Y-228916D01*
X-454643Y-230491D01*
X-454271Y-231048D01*
Y-236014D01*
X-454643Y-236571D01*
X-454956Y-238146D01*
Y-244646D01*
X-454643Y-246221D01*
X-453751Y-247556D01*
X-452537Y-248367D01*
X-452497Y-248844D01*
X-452671Y-249688D01*
X-452892Y-249732D01*
X-453733Y-250294D01*
X-454409Y-250970D01*
X-454970Y-251810D01*
X-455167Y-252801D01*
Y-275770D01*
X-459787Y-280390D01*
X-475304D01*
X-476295Y-280587D01*
X-477135Y-281148D01*
X-478499Y-282511D01*
X-479060Y-283352D01*
X-479257Y-284343D01*
X-479257Y-299565D01*
X-479155Y-300081D01*
X-479060Y-300556D01*
X-479060Y-300556D01*
X-479060Y-300556D01*
X-478778Y-300978D01*
X-478499Y-301396D01*
X-477566Y-302329D01*
X-477566Y-302329D01*
X-477566Y-302329D01*
X-477148Y-302608D01*
X-476726Y-302890D01*
X-476726Y-302890D01*
X-476726Y-302890D01*
X-476252Y-302985D01*
X-475735Y-303088D01*
X-475735Y-303088D01*
X-475735Y-303088D01*
X-446520Y-303088D01*
X-445529Y-302890D01*
X-444689Y-302329D01*
X-443760Y-301400D01*
X-443199Y-300560D01*
X-443002Y-299569D01*
X-443002Y-270682D01*
X-438239Y-265920D01*
X-402399D01*
X-402314Y-265903D01*
X-402228Y-265914D01*
X-401821Y-265805D01*
X-401408Y-265723D01*
X-401336Y-265675D01*
X-401201Y-265664D01*
X-400101Y-265907D01*
X-399787Y-266104D01*
X-399784Y-266107D01*
X-399577Y-266417D01*
X-394809Y-271185D01*
X-393969Y-271747D01*
X-392977Y-271944D01*
X-354521D01*
X-353530Y-271747D01*
X-352690Y-271185D01*
X-342144Y-260640D01*
X-341583Y-259800D01*
X-341386Y-258809D01*
Y-249027D01*
X-341331Y-248904D01*
X-341322Y-248513D01*
X-340651Y-248380D01*
X-339316Y-247488D01*
X-338424Y-246153D01*
X-338111Y-244578D01*
Y-238078D01*
X-338424Y-236503D01*
X-339316Y-235168D01*
X-340651Y-234276D01*
X-342226Y-233963D01*
X-345726D01*
X-347300Y-234276D01*
X-348635Y-235168D01*
X-349527Y-236503D01*
X-349841Y-238078D01*
Y-244578D01*
X-349527Y-246153D01*
X-348635Y-247488D01*
X-347300Y-248380D01*
X-346629Y-248513D01*
X-346620Y-248904D01*
X-346565Y-249027D01*
Y-257736D01*
X-355593Y-266765D01*
X-371637D01*
X-371762Y-265494D01*
X-371268Y-265396D01*
X-370016Y-264560D01*
X-369179Y-263307D01*
X-368885Y-261830D01*
Y-252830D01*
X-369179Y-251353D01*
X-369764Y-250478D01*
X-369413Y-249662D01*
X-368597Y-249312D01*
X-367723Y-249896D01*
X-366246Y-250190D01*
X-357246D01*
X-355768Y-249896D01*
X-354516Y-249060D01*
X-353679Y-247807D01*
X-353385Y-246330D01*
X-353679Y-244853D01*
X-354363Y-243830D01*
X-353679Y-242807D01*
X-353385Y-241330D01*
X-353679Y-239853D01*
X-354363Y-238830D01*
X-353679Y-237807D01*
X-353385Y-236330D01*
X-353679Y-234853D01*
X-354516Y-233601D01*
X-355768Y-232764D01*
X-357246Y-232470D01*
X-366246D01*
X-367723Y-232764D01*
X-368975Y-233601D01*
X-369812Y-234853D01*
X-372096Y-237136D01*
Y-246914D01*
X-372267Y-247085D01*
X-403501D01*
Y-231615D01*
X-407746Y-227371D01*
Y-227371D01*
X-409016Y-227516D01*
X-409246Y-227470D01*
X-418246D01*
X-419723Y-227764D01*
X-420975Y-228601D01*
X-421366Y-229185D01*
X-421685Y-229211D01*
X-422080Y-229217D01*
X-422206Y-229272D01*
X-423872D01*
X-435531Y-217613D01*
Y-209322D01*
X-435728Y-208331D01*
X-436289Y-207490D01*
X-442649Y-201131D01*
X-442649Y-201131D01*
X-443489Y-200569D01*
X-444481Y-200372D01*
X-491903D01*
X-498869Y-193406D01*
Y-147966D01*
X-497599Y-147440D01*
X-497492Y-147546D01*
X-495945Y-148440D01*
X-494219Y-148902D01*
X-492432D01*
X-490706Y-148440D01*
X-489159Y-147546D01*
X-487895Y-146283D01*
X-487002Y-144735D01*
X-486540Y-143009D01*
Y-141223D01*
X-487002Y-139497D01*
X-487895Y-137949D01*
X-489159Y-136686D01*
X-490706Y-135793D01*
X-492432Y-135330D01*
X-494219D01*
X-495945Y-135793D01*
X-497492Y-136686D01*
X-497599Y-136792D01*
X-498869Y-136266D01*
Y-127853D01*
X-491690Y-120674D01*
X-482112D01*
Y-124402D01*
X-454540D01*
X-451145Y-121008D01*
X-445147D01*
X-445147Y-121008D01*
X-445129Y-120964D01*
X-435110D01*
X-434119Y-120767D01*
X-433279Y-120205D01*
X-432465Y-119391D01*
X-431904Y-118551D01*
X-431707Y-117560D01*
Y-91847D01*
X-431904Y-90856D01*
X-432465Y-90016D01*
X-432967Y-89514D01*
X-433808Y-88952D01*
X-434799Y-88755D01*
D02*
G37*
G36*
X91379Y-128927D02*
X89070D01*
X86839Y-129525D01*
X84840Y-130679D01*
X83207Y-132312D01*
X82052Y-134312D01*
X81765Y-135383D01*
X71584D01*
X67820Y-131619D01*
X67069Y-131117D01*
X66184Y-130941D01*
X28639D01*
X28504Y-130881D01*
X28307Y-130876D01*
X28164Y-130865D01*
X28041Y-130847D01*
X27976Y-130833D01*
X27188Y-130046D01*
X25797Y-129469D01*
X24291D01*
X22899Y-130046D01*
X21834Y-131111D01*
X21258Y-132502D01*
Y-134008D01*
X21834Y-135400D01*
X22899Y-136465D01*
X24291Y-137041D01*
X25797D01*
X27188Y-136465D01*
X27976Y-135677D01*
X28041Y-135664D01*
X28164Y-135646D01*
X28307Y-135635D01*
X28504Y-135630D01*
X28639Y-135570D01*
X65225D01*
X68989Y-139334D01*
X69740Y-139835D01*
X70625Y-140012D01*
X81765D01*
X82052Y-141082D01*
X83207Y-143082D01*
X84840Y-144715D01*
X86839Y-145869D01*
X89070Y-146467D01*
X91379D01*
X93610Y-145869D01*
X95609Y-144715D01*
X97242Y-143082D01*
X98397Y-141082D01*
X98995Y-138852D01*
Y-136543D01*
X98397Y-134312D01*
X97242Y-132312D01*
X95609Y-130679D01*
X93610Y-129525D01*
X91379Y-128927D01*
D02*
G37*
G36*
Y-154327D02*
X89070D01*
X86839Y-154925D01*
X84840Y-156079D01*
X83207Y-157712D01*
X82052Y-159712D01*
X81765Y-160783D01*
X62039D01*
X61154Y-160959D01*
X60403Y-161460D01*
X48522Y-173342D01*
X48020Y-174093D01*
X47844Y-174978D01*
Y-231880D01*
X34102Y-245621D01*
X-4669D01*
X-19593Y-230697D01*
Y-200558D01*
X-19769Y-199672D01*
X-20271Y-198921D01*
X-34195Y-184998D01*
X-34206Y-184939D01*
X-34302Y-184874D01*
X-34343Y-184766D01*
X-34470Y-184629D01*
X-34279Y-183666D01*
Y-180166D01*
X-34592Y-178591D01*
X-35484Y-177256D01*
X-36819Y-176364D01*
X-38394Y-176051D01*
X-44894D01*
X-46468Y-176364D01*
X-47803Y-177256D01*
X-48695Y-178591D01*
X-48839Y-179312D01*
X-49220Y-179321D01*
X-49343Y-179376D01*
X-55616D01*
X-55739Y-179321D01*
X-56120Y-179312D01*
X-56264Y-178591D01*
X-57156Y-177256D01*
X-58491Y-176364D01*
X-60066Y-176051D01*
X-63566D01*
X-65140Y-176364D01*
X-66475Y-177256D01*
X-67367Y-178591D01*
X-67681Y-180166D01*
Y-186666D01*
X-67367Y-188241D01*
X-66475Y-189576D01*
X-65140Y-190468D01*
X-64469Y-190601D01*
X-64460Y-190992D01*
X-64405Y-191115D01*
Y-195718D01*
X-64208Y-196709D01*
X-63647Y-197549D01*
X-62167Y-199029D01*
Y-203626D01*
X-62222Y-203748D01*
X-62227Y-203962D01*
X-64994D01*
X-66510Y-204263D01*
X-67795Y-205122D01*
X-68654Y-206408D01*
X-68956Y-207924D01*
Y-212724D01*
X-68654Y-214240D01*
X-67795Y-215526D01*
X-66510Y-216385D01*
X-64994Y-216686D01*
X-56194D01*
X-54677Y-216385D01*
X-53392Y-215526D01*
X-52533Y-214240D01*
X-52231Y-212724D01*
Y-207924D01*
X-52533Y-206408D01*
X-53392Y-205122D01*
X-54677Y-204263D01*
X-56194Y-203962D01*
X-56928D01*
X-56933Y-203748D01*
X-56988Y-203626D01*
Y-197956D01*
X-56995Y-197919D01*
X-57156Y-196715D01*
X-57156Y-196715D01*
Y-189576D01*
X-55361Y-187781D01*
X-38394D01*
X-38104Y-187723D01*
X-38001Y-187823D01*
X-37861Y-187878D01*
X-24222Y-201516D01*
Y-231656D01*
X-24046Y-232542D01*
X-23544Y-233293D01*
X-7265Y-249572D01*
X-6514Y-250074D01*
X-5628Y-250250D01*
X35061D01*
X35946Y-250074D01*
X36697Y-249572D01*
X51795Y-234475D01*
X52297Y-233724D01*
X52473Y-232838D01*
Y-175937D01*
X62998Y-165411D01*
X81765D01*
X82052Y-166482D01*
X83207Y-168482D01*
X84840Y-170115D01*
X86839Y-171269D01*
X89070Y-171867D01*
X91379D01*
X93610Y-171269D01*
X95609Y-170115D01*
X97242Y-168482D01*
X98397Y-166482D01*
X98995Y-164252D01*
Y-161943D01*
X98397Y-159712D01*
X97242Y-157712D01*
X95609Y-156079D01*
X93610Y-154925D01*
X91379Y-154327D01*
D02*
G37*
G36*
X-22410Y-160553D02*
X-25910D01*
X-27484Y-160866D01*
X-28819Y-161758D01*
X-29711Y-163093D01*
X-30025Y-164668D01*
Y-171168D01*
X-29711Y-172743D01*
X-28819Y-174078D01*
X-27484Y-174970D01*
X-25910Y-175283D01*
X-24120D01*
X-14202Y-185200D01*
X-14202Y-185200D01*
X-12522Y-186323D01*
X-10540Y-186717D01*
X-10540Y-186717D01*
X-10343D01*
X-8361Y-186323D01*
X-6680Y-185200D01*
X-5558Y-183520D01*
X-5163Y-181538D01*
X-5558Y-179556D01*
X-6680Y-177875D01*
X-7274Y-177479D01*
X-18295Y-166458D01*
Y-164668D01*
X-18608Y-163093D01*
X-19500Y-161758D01*
X-20835Y-160866D01*
X-22410Y-160553D01*
D02*
G37*
G36*
X91379Y-179727D02*
X89070D01*
X86839Y-180325D01*
X84840Y-181479D01*
X83207Y-183112D01*
X82052Y-185112D01*
X81454Y-187342D01*
Y-189652D01*
X82052Y-191882D01*
X83207Y-193882D01*
X84840Y-195515D01*
X86839Y-196669D01*
X89070Y-197267D01*
X91379D01*
X93610Y-196669D01*
X95609Y-195515D01*
X97242Y-193882D01*
X98397Y-191882D01*
X98995Y-189652D01*
Y-187342D01*
X98397Y-185112D01*
X97242Y-183112D01*
X95609Y-181479D01*
X93610Y-180325D01*
X91379Y-179727D01*
D02*
G37*
G36*
Y-205127D02*
X89070D01*
X86839Y-205725D01*
X84840Y-206879D01*
X83207Y-208512D01*
X82052Y-210512D01*
X81454Y-212743D01*
Y-215052D01*
X82052Y-217282D01*
X83207Y-219282D01*
X84840Y-220915D01*
X86839Y-222069D01*
X89070Y-222667D01*
X91379D01*
X93610Y-222069D01*
X95609Y-220915D01*
X97242Y-219282D01*
X98397Y-217282D01*
X98995Y-215052D01*
Y-212743D01*
X98397Y-210512D01*
X97242Y-208512D01*
X95609Y-206879D01*
X93610Y-205725D01*
X91379Y-205127D01*
D02*
G37*
G36*
X-115912Y-176559D02*
X-121094D01*
X-122255Y-177720D01*
X-122321Y-177764D01*
X-122366Y-177831D01*
X-127473Y-182938D01*
X-136171D01*
X-137562Y-183514D01*
X-138627Y-184579D01*
X-139204Y-185971D01*
Y-187477D01*
X-138627Y-188869D01*
X-137562Y-189934D01*
X-136171Y-190510D01*
X-135419D01*
X-135112Y-190773D01*
X-134962Y-190919D01*
X-134833Y-190971D01*
X-132165Y-193639D01*
Y-213394D01*
X-131968Y-214385D01*
X-131407Y-215225D01*
X-123527Y-223105D01*
Y-233557D01*
Y-240057D01*
X-123213Y-241632D01*
X-122321Y-242967D01*
X-120986Y-243859D01*
X-119412Y-244172D01*
X-115912D01*
X-114337Y-243859D01*
X-113002Y-242967D01*
X-112110Y-241632D01*
X-111797Y-240057D01*
Y-239161D01*
X-111735Y-239149D01*
X-110894Y-238587D01*
X-107789Y-235483D01*
X-107228Y-234642D01*
X-107031Y-233651D01*
Y-228611D01*
X-104965Y-226544D01*
X-97912D01*
X-96337Y-226231D01*
X-95002Y-225339D01*
X-94110Y-224004D01*
X-93797Y-222429D01*
Y-215929D01*
X-94110Y-214354D01*
X-94495Y-213778D01*
X-93816Y-212508D01*
X-79646D01*
X-62924Y-229230D01*
Y-240436D01*
X-64994D01*
X-66510Y-240737D01*
X-67795Y-241596D01*
X-68654Y-242882D01*
X-68956Y-244398D01*
Y-249198D01*
X-68654Y-250714D01*
X-67795Y-252000D01*
X-66510Y-252859D01*
X-64994Y-253160D01*
X-56194D01*
X-54677Y-252859D01*
X-53392Y-252000D01*
X-52533Y-250714D01*
X-52231Y-249198D01*
Y-244398D01*
X-52533Y-242882D01*
X-53392Y-241596D01*
X-54677Y-240737D01*
X-56194Y-240436D01*
X-58263D01*
Y-228264D01*
X-58440Y-227372D01*
X-58945Y-226616D01*
X-77033Y-208529D01*
X-77789Y-208024D01*
X-78090Y-207964D01*
X-78294Y-206628D01*
X-77392Y-206026D01*
X-76533Y-204740D01*
X-76231Y-203224D01*
Y-198424D01*
X-76533Y-196908D01*
X-77392Y-195622D01*
X-78677Y-194764D01*
X-80194Y-194462D01*
X-88994D01*
X-89269Y-194187D01*
X-101412D01*
X-102986Y-194500D01*
X-104321Y-195392D01*
X-105213Y-196727D01*
X-105527Y-198302D01*
Y-204802D01*
X-105213Y-206376D01*
X-105080Y-206576D01*
X-105759Y-207846D01*
X-109173D01*
X-111665Y-205355D01*
X-111714Y-205223D01*
X-111851Y-205075D01*
X-111797Y-204802D01*
Y-199106D01*
X-111797Y-197836D01*
X-111797Y-197836D01*
Y-180674D01*
X-112110Y-179099D01*
X-113002Y-177764D01*
X-114337Y-176872D01*
X-115912Y-176559D01*
D02*
G37*
G36*
X-38394Y-194051D02*
X-44894D01*
X-46468Y-194364D01*
X-47803Y-195256D01*
X-48695Y-196591D01*
X-49009Y-198166D01*
Y-201666D01*
X-48695Y-203241D01*
X-47803Y-204576D01*
X-46468Y-205468D01*
X-44894Y-205781D01*
X-44293D01*
X-44288Y-205995D01*
X-44233Y-206117D01*
Y-249599D01*
X-44288Y-249722D01*
X-44296Y-250048D01*
X-45294Y-250246D01*
X-46629Y-251138D01*
X-47521Y-252473D01*
X-47835Y-254048D01*
Y-254648D01*
X-48049Y-254654D01*
X-48171Y-254708D01*
X-67635D01*
X-76438Y-245906D01*
Y-240736D01*
X-76231Y-239698D01*
Y-234898D01*
X-76438Y-233860D01*
Y-233050D01*
X-80047Y-229442D01*
X-101412D01*
X-102986Y-229755D01*
X-104321Y-230647D01*
X-105213Y-231982D01*
X-105527Y-233557D01*
Y-240057D01*
Y-254048D01*
Y-260548D01*
X-105213Y-262123D01*
X-104321Y-263458D01*
X-102986Y-264350D01*
X-101412Y-264663D01*
X-97912D01*
X-96337Y-264350D01*
X-95002Y-263458D01*
X-94110Y-262123D01*
X-93797Y-260548D01*
Y-254048D01*
X-94110Y-252473D01*
X-95002Y-251138D01*
X-95098Y-251074D01*
X-95242Y-249770D01*
X-94366Y-248823D01*
X-80846D01*
X-70539Y-259129D01*
X-69699Y-259691D01*
X-68708Y-259888D01*
X-48171D01*
X-48049Y-259942D01*
X-47835Y-259948D01*
Y-260548D01*
X-47521Y-262123D01*
X-46629Y-263458D01*
X-45294Y-264350D01*
X-43720Y-264663D01*
X-40220D01*
X-38645Y-264350D01*
X-37310Y-263458D01*
X-36418Y-262123D01*
X-36105Y-260548D01*
Y-254048D01*
X-36418Y-252473D01*
X-37310Y-251138D01*
X-38645Y-250246D01*
X-38989Y-250178D01*
X-38999Y-249724D01*
X-39054Y-249600D01*
Y-206117D01*
X-38999Y-205995D01*
X-38994Y-205781D01*
X-38394D01*
X-36819Y-205468D01*
X-35484Y-204576D01*
X-34592Y-203241D01*
X-34279Y-201666D01*
Y-198166D01*
X-34592Y-196591D01*
X-35484Y-195256D01*
X-36819Y-194364D01*
X-38394Y-194051D01*
D02*
G37*
G36*
X-145815Y-163527D02*
X-147322D01*
X-148713Y-164103D01*
X-149778Y-165168D01*
X-150354Y-166560D01*
Y-168066D01*
X-149778Y-169457D01*
X-149247Y-169989D01*
X-149216Y-170392D01*
X-149213Y-170601D01*
X-149158Y-170729D01*
Y-191067D01*
X-148961Y-192058D01*
X-148400Y-192899D01*
X-141563Y-199735D01*
Y-243528D01*
X-141366Y-244519D01*
X-140805Y-245359D01*
X-127035Y-259129D01*
X-126195Y-259691D01*
X-125204Y-259888D01*
X-123863D01*
X-123741Y-259942D01*
X-123527Y-259948D01*
Y-260548D01*
X-123213Y-262123D01*
X-122321Y-263458D01*
X-120986Y-264350D01*
X-119412Y-264663D01*
X-115912D01*
X-114337Y-264350D01*
X-113002Y-263458D01*
X-112110Y-262123D01*
X-111797Y-260548D01*
Y-254048D01*
X-112110Y-252473D01*
X-113002Y-251138D01*
X-114337Y-250246D01*
X-115912Y-249933D01*
X-119412D01*
X-120986Y-250246D01*
X-122321Y-251138D01*
X-123213Y-252473D01*
X-123439Y-253605D01*
X-124495Y-254045D01*
X-124795Y-254044D01*
X-136384Y-242455D01*
Y-198662D01*
X-136581Y-197671D01*
X-137142Y-196831D01*
X-143979Y-189995D01*
Y-170729D01*
X-143924Y-170601D01*
X-143921Y-170369D01*
X-143913Y-170192D01*
X-143894Y-169993D01*
X-143359Y-169457D01*
X-142782Y-168066D01*
Y-166560D01*
X-143359Y-165168D01*
X-144424Y-164103D01*
X-145815Y-163527D01*
D02*
G37*
%LPD*%
G36*
X-119577Y28839D02*
X-119651Y28901D01*
X-119746Y28957D01*
X-119860Y29007D01*
X-119994Y29049D01*
X-120148Y29086D01*
X-120322Y29115D01*
X-120729Y29155D01*
X-120962Y29165D01*
X-121215Y29168D01*
Y31708D01*
X-120962Y31711D01*
X-120322Y31761D01*
X-120148Y31790D01*
X-119994Y31827D01*
X-119860Y31869D01*
X-119746Y31919D01*
X-119651Y31975D01*
X-119577Y32038D01*
Y28839D01*
D02*
G37*
G36*
X-206291Y8727D02*
X-206241Y8086D01*
X-206212Y7913D01*
X-206175Y7759D01*
X-206133Y7625D01*
X-206083Y7510D01*
X-206027Y7416D01*
X-205965Y7341D01*
X-209163D01*
X-209101Y7416D01*
X-209045Y7510D01*
X-208995Y7625D01*
X-208953Y7759D01*
X-208916Y7913D01*
X-208887Y8086D01*
X-208847Y8494D01*
X-208837Y8727D01*
X-208834Y8980D01*
X-206294D01*
X-206291Y8727D01*
D02*
G37*
G36*
X-318987Y21017D02*
X-318960Y20910D01*
X-318914Y20795D01*
X-318849Y20670D01*
X-318766Y20535D01*
X-318664Y20391D01*
X-318404Y20075D01*
X-318246Y19903D01*
X-318069Y19722D01*
X-319866Y17926D01*
X-320047Y18103D01*
X-320535Y18521D01*
X-320679Y18622D01*
X-320813Y18706D01*
X-320938Y18770D01*
X-321054Y18816D01*
X-321160Y18843D01*
X-321257Y18852D01*
X-318995Y21114D01*
X-318987Y21017D01*
D02*
G37*
G36*
X-219110Y12213D02*
X-219184Y12275D01*
X-219279Y12331D01*
X-219393Y12381D01*
X-219527Y12423D01*
X-219681Y12460D01*
X-219855Y12489D01*
X-220262Y12529D01*
X-220495Y12539D01*
X-220749Y12542D01*
Y15082D01*
X-220495Y15085D01*
X-219855Y15135D01*
X-219681Y15164D01*
X-219527Y15201D01*
X-219393Y15244D01*
X-219279Y15293D01*
X-219184Y15349D01*
X-219110Y15411D01*
Y12213D01*
D02*
G37*
G36*
X-25147Y8533D02*
X-25129Y8310D01*
X-25099Y8100D01*
X-25057Y7902D01*
X-25003Y7717D01*
X-24937Y7543D01*
X-24859Y7383D01*
X-24769Y7234D01*
X-24667Y7098D01*
X-24553Y6974D01*
X-27752D01*
X-27638Y7098D01*
X-27536Y7234D01*
X-27446Y7383D01*
X-27368Y7543D01*
X-27302Y7717D01*
X-27248Y7902D01*
X-27207Y8100D01*
X-27177Y8310D01*
X-27159Y8533D01*
X-27153Y8768D01*
X-25153D01*
X-25147Y8533D01*
D02*
G37*
G36*
X19268Y29214D02*
Y14852D01*
X19677Y14444D01*
X24856D01*
X25110Y14190D01*
Y2601D01*
X24509Y2000D01*
X15950Y2000D01*
X14950Y3000D01*
X14950Y11904D01*
X13426Y13428D01*
X2525D01*
X1503Y14450D01*
X1503Y29561D01*
X2134Y30192D01*
X18291Y30192D01*
X19268Y29214D01*
D02*
G37*
G36*
X-3798Y28981D02*
Y16821D01*
X-13196Y7423D01*
Y-2743D01*
X-22195Y-11742D01*
X-109444D01*
X-112797Y-15095D01*
Y-50924D01*
X-96358Y-67362D01*
Y-81002D01*
X-96358Y-81683D01*
X-95941Y-82099D01*
X-95260Y-82098D01*
X-77122Y-82065D01*
X-75685Y-83501D01*
Y-93021D01*
X-105077D01*
X-107411Y-90687D01*
X-107411Y-67289D01*
X-121220Y-53479D01*
X-121028Y-20378D01*
X-122710Y-18694D01*
X-185056D01*
X-236494Y-70132D01*
X-272297D01*
Y-65214D01*
X-272544Y-63975D01*
X-273245Y-62925D01*
X-274296Y-62223D01*
X-275534Y-61977D01*
X-276773Y-62223D01*
X-277823Y-62925D01*
X-278525Y-63975D01*
X-278772Y-65214D01*
Y-70132D01*
X-289002D01*
Y-60323D01*
X-250491D01*
X-198664Y-8496D01*
X-198664Y20206D01*
X-196673Y22197D01*
X-196172D01*
X-171851Y22306D01*
X-161833Y12287D01*
X-32719D01*
X-31379Y10947D01*
Y643D01*
X-30677Y-60D01*
X-20018D01*
X-19450Y509D01*
X-19450Y9211D01*
X-12180Y16482D01*
Y28941D01*
X-11619Y29502D01*
X-4318D01*
X-3798Y28981D01*
D02*
G37*
G36*
X-126005Y-29014D02*
X-126050Y-29106D01*
X-126090Y-29219D01*
X-126125Y-29352D01*
X-126154Y-29505D01*
X-126197Y-29873D01*
X-126210Y-30087D01*
X-126221Y-30576D01*
X-128760Y-30847D01*
X-128764Y-30594D01*
X-128795Y-30150D01*
X-128821Y-29957D01*
X-128856Y-29785D01*
X-128898Y-29632D01*
X-128947Y-29500D01*
X-129004Y-29388D01*
X-129069Y-29295D01*
X-129141Y-29223D01*
X-125955Y-28941D01*
X-126005Y-29014D01*
D02*
G37*
G36*
X54766Y14979D02*
Y14830D01*
X54915D01*
X57940Y11806D01*
X57939Y-38597D01*
X57683Y-38853D01*
X48508Y-38853D01*
X47422Y-37768D01*
Y9266D01*
X39572Y17116D01*
X22762D01*
Y38590D01*
X31155D01*
X54766Y14979D01*
D02*
G37*
G36*
X-230147Y-83274D02*
X-230203Y-83369D01*
X-230252Y-83483D01*
X-230295Y-83617D01*
X-230331Y-83771D01*
X-230361Y-83945D01*
X-230400Y-84352D01*
X-230410Y-84585D01*
X-230414Y-84839D01*
X-232954D01*
X-232957Y-84585D01*
X-233006Y-83945D01*
X-233036Y-83771D01*
X-233072Y-83617D01*
X-233115Y-83483D01*
X-233165Y-83369D01*
X-233221Y-83274D01*
X-233283Y-83200D01*
X-230084D01*
X-230147Y-83274D01*
D02*
G37*
G36*
X-115828Y-92895D02*
X-115999Y-92958D01*
X-116151Y-93064D01*
X-116282Y-93212D01*
X-116393Y-93403D01*
X-116484Y-93636D01*
X-116555Y-93911D01*
X-116605Y-94229D01*
X-116636Y-94589D01*
X-116646Y-94992D01*
X-118678D01*
X-118688Y-94589D01*
X-118718Y-94229D01*
X-118769Y-93911D01*
X-118839Y-93636D01*
X-118930Y-93403D01*
X-119041Y-93212D01*
X-119172Y-93064D01*
X-119324Y-92958D01*
X-119496Y-92895D01*
X-119688Y-92874D01*
X-115635D01*
X-115828Y-92895D01*
D02*
G37*
G36*
X-116636Y-99148D02*
X-116605Y-99508D01*
X-116555Y-99826D01*
X-116484Y-100101D01*
X-116393Y-100334D01*
X-116282Y-100525D01*
X-116151Y-100673D01*
X-115999Y-100779D01*
X-115828Y-100843D01*
X-115635Y-100864D01*
X-119688D01*
X-119496Y-100843D01*
X-119324Y-100779D01*
X-119172Y-100673D01*
X-119041Y-100525D01*
X-118930Y-100334D01*
X-118839Y-100101D01*
X-118769Y-99826D01*
X-118718Y-99508D01*
X-118688Y-99148D01*
X-118678Y-98746D01*
X-116646D01*
X-116636Y-99148D01*
D02*
G37*
G36*
X-96174Y-104359D02*
X-96129Y-104391D01*
X-96055Y-104419D01*
X-95951Y-104444D01*
X-95817Y-104464D01*
X-95460Y-104494D01*
X-94701Y-104511D01*
Y-107051D01*
X-94984Y-107053D01*
X-95951Y-107118D01*
X-96055Y-107142D01*
X-96129Y-107171D01*
X-96174Y-107202D01*
X-96189Y-107238D01*
Y-104324D01*
X-96174Y-104359D01*
D02*
G37*
G36*
X-114170Y-104860D02*
X-114114Y-105002D01*
X-114019Y-105128D01*
X-113887Y-105237D01*
X-113718Y-105329D01*
X-113510Y-105405D01*
X-113265Y-105463D01*
X-112983Y-105505D01*
X-112662Y-105530D01*
X-112304Y-105539D01*
Y-107571D01*
X-112662Y-107579D01*
X-112983Y-107604D01*
X-113265Y-107646D01*
X-113510Y-107705D01*
X-113718Y-107780D01*
X-113887Y-107873D01*
X-114019Y-107982D01*
X-114114Y-108107D01*
X-114170Y-108250D01*
X-114189Y-108409D01*
Y-104700D01*
X-114170Y-104860D01*
D02*
G37*
G36*
X-126217Y-110942D02*
X-126186Y-111387D01*
X-126160Y-111579D01*
X-126125Y-111751D01*
X-126083Y-111904D01*
X-126034Y-112037D01*
X-125977Y-112149D01*
X-125912Y-112241D01*
X-125840Y-112314D01*
X-129026Y-112595D01*
X-128976Y-112523D01*
X-128931Y-112430D01*
X-128891Y-112317D01*
X-128856Y-112184D01*
X-128827Y-112031D01*
X-128784Y-111664D01*
X-128771Y-111449D01*
X-128760Y-110960D01*
X-126221Y-110690D01*
X-126217Y-110942D01*
D02*
G37*
G36*
X-98747Y-128578D02*
X-98857Y-128586D01*
X-98955Y-128635D01*
X-99041Y-128723D01*
X-99116Y-128851D01*
X-99180Y-129018D01*
X-99232Y-129226D01*
X-99272Y-129474D01*
X-99301Y-129761D01*
X-99324Y-130456D01*
X-101864D01*
X-101870Y-130039D01*
X-101954Y-129045D01*
X-102004Y-128799D01*
X-102066Y-128596D01*
X-102139Y-128435D01*
X-102223Y-128318D01*
X-102318Y-128242D01*
X-102424Y-128210D01*
X-98747Y-128578D01*
D02*
G37*
G36*
X-192128Y-127564D02*
X-192034Y-127620D01*
X-191919Y-127670D01*
X-191785Y-127713D01*
X-191631Y-127749D01*
X-191458Y-127779D01*
X-191050Y-127818D01*
X-190817Y-127828D01*
X-190564Y-127831D01*
Y-130371D01*
X-190817Y-130375D01*
X-191458Y-130424D01*
X-191631Y-130454D01*
X-191785Y-130490D01*
X-191919Y-130533D01*
X-192034Y-130582D01*
X-192128Y-130638D01*
X-192203Y-130701D01*
Y-127502D01*
X-192128Y-127564D01*
D02*
G37*
G36*
X-138647Y-21855D02*
X-138647Y-21855D01*
X-133325Y-27177D01*
X-130159Y-30343D01*
X-130138Y-30652D01*
X-130135Y-30868D01*
X-130109Y-30929D01*
X-130127Y-30993D01*
X-130080Y-31079D01*
Y-110807D01*
X-130135Y-110931D01*
X-130145Y-111392D01*
X-130154Y-111542D01*
X-130161Y-111597D01*
X-130499Y-111935D01*
X-131076Y-113327D01*
Y-114833D01*
X-130499Y-116225D01*
X-129434Y-117290D01*
X-128043Y-117866D01*
X-126537D01*
X-125145Y-117290D01*
X-124080Y-116225D01*
X-123504Y-114833D01*
Y-113327D01*
X-124080Y-111935D01*
X-124822Y-111194D01*
X-124843Y-110885D01*
X-124846Y-110669D01*
X-124872Y-110608D01*
X-124854Y-110544D01*
X-124901Y-110457D01*
Y-54515D01*
X-123631Y-54394D01*
X-123619Y-54456D01*
X-123614Y-54463D01*
X-123613Y-54470D01*
X-123336Y-54884D01*
X-123062Y-55300D01*
X-123056Y-55304D01*
X-123052Y-55310D01*
X-110001Y-68361D01*
Y-77470D01*
X-113122Y-80591D01*
X-119412D01*
X-120986Y-80905D01*
X-122321Y-81797D01*
X-123213Y-83132D01*
X-123527Y-84706D01*
Y-91206D01*
Y-102531D01*
Y-109031D01*
X-123213Y-110606D01*
X-122321Y-111941D01*
X-120986Y-112833D01*
X-119412Y-113146D01*
X-115912D01*
X-115389Y-113042D01*
X-107780Y-120651D01*
Y-132697D01*
X-109147Y-134065D01*
X-140409D01*
X-141342Y-133252D01*
Y-133252D01*
X-142229Y-132458D01*
X-156738Y-117948D01*
X-157578Y-117387D01*
X-158569Y-117190D01*
X-205099D01*
X-229094Y-93195D01*
Y-84984D01*
X-229039Y-84857D01*
X-229036Y-84624D01*
X-229028Y-84448D01*
X-229009Y-84248D01*
X-228474Y-83713D01*
X-227898Y-82321D01*
Y-80815D01*
X-228474Y-79423D01*
X-229539Y-78358D01*
X-230931Y-77782D01*
X-232437D01*
X-233828Y-78358D01*
X-234893Y-79423D01*
X-235470Y-80815D01*
Y-82321D01*
X-234893Y-83713D01*
X-234362Y-84244D01*
X-234331Y-84648D01*
X-234328Y-84857D01*
X-234273Y-84984D01*
Y-94268D01*
X-234076Y-95259D01*
X-233515Y-96099D01*
X-208003Y-121611D01*
X-207163Y-122172D01*
X-206172Y-122369D01*
X-159642D01*
X-129256Y-152755D01*
X-128416Y-153317D01*
X-127425Y-153514D01*
X-124013D01*
X-123284Y-154784D01*
X-123527Y-156004D01*
Y-156604D01*
X-123741Y-156610D01*
X-123863Y-156664D01*
X-127972D01*
X-157366Y-127270D01*
X-158207Y-126709D01*
X-159198Y-126512D01*
X-190418D01*
X-190546Y-126457D01*
X-190778Y-126454D01*
X-190955Y-126446D01*
X-191155Y-126427D01*
X-191690Y-125892D01*
X-193081Y-125315D01*
X-194587D01*
X-195979Y-125892D01*
X-197044Y-126957D01*
X-197620Y-128348D01*
Y-129854D01*
X-197044Y-131246D01*
X-195979Y-132311D01*
X-194587Y-132887D01*
X-193081D01*
X-191690Y-132311D01*
X-191159Y-131780D01*
X-190755Y-131749D01*
X-190546Y-131746D01*
X-190418Y-131691D01*
X-160270D01*
X-130876Y-161085D01*
X-130036Y-161647D01*
X-129045Y-161844D01*
X-123863D01*
X-123741Y-161898D01*
X-123527Y-161904D01*
Y-162504D01*
X-123213Y-164079D01*
X-122321Y-165414D01*
X-121187Y-166172D01*
X-121258Y-167055D01*
X-121398Y-167442D01*
X-129266D01*
X-160215Y-136494D01*
X-161265Y-135792D01*
X-162504Y-135545D01*
X-202774D01*
X-249092Y-89227D01*
X-250142Y-88525D01*
X-251381Y-88279D01*
X-261311D01*
X-272297Y-77292D01*
Y-72722D01*
X-236494D01*
X-235503Y-72525D01*
X-234663Y-71963D01*
X-183983Y-21284D01*
X-139693D01*
X-138647Y-21855D01*
D02*
G37*
G36*
X-90563Y-141032D02*
X-90582Y-140935D01*
X-90636Y-140849D01*
X-90726Y-140773D01*
X-90853Y-140707D01*
X-91015Y-140651D01*
X-91214Y-140605D01*
X-91449Y-140570D01*
X-91721Y-140544D01*
X-92372Y-140524D01*
Y-137984D01*
X-92028Y-137979D01*
X-91449Y-137938D01*
X-91214Y-137903D01*
X-91015Y-137857D01*
X-90853Y-137801D01*
X-90726Y-137735D01*
X-90636Y-137659D01*
X-90582Y-137573D01*
X-90563Y-137476D01*
Y-141032D01*
D02*
G37*
G36*
X-96173Y-139883D02*
X-96123Y-139941D01*
X-96041Y-139993D01*
X-95926Y-140037D01*
X-95778Y-140074D01*
X-95598Y-140105D01*
X-95384Y-140129D01*
X-94859Y-140156D01*
X-94547Y-140160D01*
Y-142700D01*
X-94859Y-142703D01*
X-95598Y-142754D01*
X-95778Y-142785D01*
X-95926Y-142823D01*
X-96041Y-142867D01*
X-96123Y-142918D01*
X-96173Y-142976D01*
X-96189Y-143041D01*
Y-139818D01*
X-96173Y-139883D01*
D02*
G37*
G36*
X-114163Y-139228D02*
X-114087Y-139440D01*
X-113960Y-139627D01*
X-113782Y-139788D01*
X-113553Y-139925D01*
X-113273Y-140037D01*
X-112942Y-140124D01*
X-112561Y-140186D01*
X-112128Y-140224D01*
X-111645Y-140236D01*
Y-142776D01*
X-112128Y-142788D01*
X-112561Y-142826D01*
X-112942Y-142888D01*
X-113273Y-142975D01*
X-113553Y-143087D01*
X-113782Y-143224D01*
X-113960Y-143385D01*
X-114087Y-143572D01*
X-114163Y-143784D01*
X-114189Y-144020D01*
Y-138992D01*
X-114163Y-139228D01*
D02*
G37*
G36*
X-64258Y-143639D02*
X-63618Y-144166D01*
X-63315Y-144371D01*
X-63022Y-144537D01*
X-62740Y-144664D01*
X-62469Y-144753D01*
X-62208Y-144802D01*
X-61959Y-144813D01*
X-61720Y-144784D01*
X-66443Y-145754D01*
X-66240Y-145689D01*
X-66100Y-145589D01*
X-66021Y-145455D01*
X-66006Y-145287D01*
X-66052Y-145085D01*
X-66162Y-144849D01*
X-66334Y-144578D01*
X-66568Y-144273D01*
X-66865Y-143934D01*
X-67224Y-143560D01*
X-64594Y-143317D01*
X-64258Y-143639D01*
D02*
G37*
G36*
X-111663Y-152586D02*
X-111734Y-152512D01*
X-111826Y-152445D01*
X-111937Y-152386D01*
X-112069Y-152335D01*
X-112221Y-152292D01*
X-112392Y-152257D01*
X-112584Y-152229D01*
X-113029Y-152198D01*
X-113281Y-152194D01*
X-112935Y-149654D01*
X-112680Y-149652D01*
X-111865Y-149593D01*
X-111712Y-149565D01*
X-111580Y-149533D01*
X-111468Y-149496D01*
X-111377Y-149454D01*
X-111306Y-149408D01*
X-111663Y-152586D01*
D02*
G37*
G36*
X-121134Y-161794D02*
X-121160Y-161553D01*
X-121237Y-161337D01*
X-121366Y-161146D01*
X-121546Y-160981D01*
X-121777Y-160842D01*
X-122060Y-160727D01*
X-122394Y-160638D01*
X-122779Y-160575D01*
X-123216Y-160537D01*
X-123705Y-160524D01*
Y-157984D01*
X-123216Y-157971D01*
X-122779Y-157933D01*
X-122394Y-157870D01*
X-122060Y-157781D01*
X-121777Y-157667D01*
X-121546Y-157527D01*
X-121366Y-157362D01*
X-121237Y-157171D01*
X-121160Y-156955D01*
X-121134Y-156714D01*
Y-161794D01*
D02*
G37*
G36*
X-258522Y-53622D02*
X-288494D01*
X-294082Y-59210D01*
Y-106354D01*
X-289918Y-110518D01*
X-246736D01*
X-209246Y-148008D01*
Y-167414D01*
X-287029D01*
X-311215Y-143228D01*
Y-46039D01*
X-307837Y-42661D01*
X-258522Y-42661D01*
Y-53622D01*
D02*
G37*
%LPC*%
G36*
X-139490Y-44931D02*
X-140997D01*
X-142388Y-45508D01*
X-143453Y-46573D01*
X-144030Y-47964D01*
Y-49471D01*
X-143453Y-50862D01*
X-142922Y-51393D01*
X-142891Y-51797D01*
X-142888Y-52006D01*
X-142833Y-52133D01*
Y-111680D01*
X-142888Y-111807D01*
X-142891Y-112040D01*
X-142899Y-112217D01*
X-142918Y-112416D01*
X-143453Y-112951D01*
X-144030Y-114343D01*
Y-115849D01*
X-143453Y-117241D01*
X-142388Y-118306D01*
X-140997Y-118882D01*
X-139490D01*
X-138099Y-118306D01*
X-137034Y-117241D01*
X-136458Y-115849D01*
Y-114343D01*
X-137034Y-112951D01*
X-137565Y-112420D01*
X-137596Y-112016D01*
X-137599Y-111807D01*
X-137654Y-111680D01*
Y-52133D01*
X-137599Y-52006D01*
X-137596Y-51774D01*
X-137589Y-51597D01*
X-137569Y-51397D01*
X-137034Y-50862D01*
X-136458Y-49471D01*
Y-47964D01*
X-137034Y-46573D01*
X-138099Y-45508D01*
X-139490Y-44931D01*
D02*
G37*
G36*
X-202736Y-99118D02*
X-204243D01*
X-205634Y-99694D01*
X-206699Y-100759D01*
X-207276Y-102151D01*
Y-103657D01*
X-206699Y-105049D01*
X-205634Y-106114D01*
X-204243Y-106690D01*
X-203293D01*
X-203019Y-106921D01*
X-202873Y-107063D01*
X-202832Y-107079D01*
X-202812Y-107118D01*
X-202705Y-107154D01*
X-195979Y-113879D01*
X-195139Y-114441D01*
X-194148Y-114638D01*
X-155985D01*
X-145186Y-125436D01*
X-144346Y-125998D01*
X-143355Y-126195D01*
X-128556D01*
X-127290Y-126202D01*
X-123198Y-130294D01*
X-122522Y-130970D01*
X-122165Y-130970D01*
X-122165Y-130970D01*
X-121255Y-130970D01*
X-115912D01*
X-114337Y-130657D01*
X-113002Y-129765D01*
X-112110Y-128430D01*
X-111797Y-126855D01*
Y-120355D01*
X-112110Y-118780D01*
X-113002Y-117445D01*
X-114337Y-116553D01*
X-115912Y-116240D01*
X-119412D01*
X-120986Y-116553D01*
X-122321Y-117445D01*
X-123213Y-118780D01*
X-123527Y-120355D01*
Y-121016D01*
X-142282D01*
X-153081Y-110217D01*
X-153921Y-109655D01*
X-154912Y-109458D01*
X-193075D01*
X-199209Y-103325D01*
X-199257Y-103199D01*
X-199566Y-102876D01*
X-199704Y-102712D01*
Y-102151D01*
X-200280Y-100759D01*
X-201345Y-99694D01*
X-202736Y-99118D01*
D02*
G37*
%LPD*%
G36*
X-138707Y-50424D02*
X-138763Y-50518D01*
X-138812Y-50632D01*
X-138855Y-50766D01*
X-138891Y-50920D01*
X-138921Y-51094D01*
X-138960Y-51501D01*
X-138970Y-51735D01*
X-138974Y-51988D01*
X-141514D01*
X-141517Y-51735D01*
X-141566Y-51094D01*
X-141596Y-50920D01*
X-141632Y-50766D01*
X-141675Y-50632D01*
X-141725Y-50518D01*
X-141781Y-50424D01*
X-141843Y-50349D01*
X-138644D01*
X-138707Y-50424D01*
D02*
G37*
G36*
X-138970Y-112079D02*
X-138921Y-112719D01*
X-138891Y-112893D01*
X-138855Y-113047D01*
X-138812Y-113181D01*
X-138763Y-113295D01*
X-138707Y-113390D01*
X-138644Y-113464D01*
X-141843D01*
X-141781Y-113390D01*
X-141725Y-113295D01*
X-141675Y-113181D01*
X-141632Y-113047D01*
X-141596Y-112893D01*
X-141566Y-112719D01*
X-141527Y-112312D01*
X-141517Y-112079D01*
X-141514Y-111826D01*
X-138974D01*
X-138970Y-112079D01*
D02*
G37*
G36*
X-201194Y-102877D02*
X-201162Y-102978D01*
X-201112Y-103089D01*
X-201044Y-103210D01*
X-200958Y-103341D01*
X-200853Y-103482D01*
X-200589Y-103795D01*
X-200252Y-104148D01*
X-201915Y-106077D01*
X-202096Y-105901D01*
X-202586Y-105488D01*
X-202732Y-105389D01*
X-202869Y-105310D01*
X-202997Y-105249D01*
X-203116Y-105208D01*
X-203226Y-105186D01*
X-203327Y-105183D01*
X-201208Y-102787D01*
X-201194Y-102877D01*
D02*
G37*
G36*
X-256998Y-8147D02*
Y-19288D01*
X-258058Y-20348D01*
X-330394Y-20348D01*
X-332756Y-22711D01*
X-332756Y-87419D01*
X-333927Y-88590D01*
X-368505D01*
X-369012Y-89096D01*
X-369012Y-109456D01*
X-369012Y-109592D01*
X-368209Y-110394D01*
X-368074Y-110394D01*
X-356734D01*
X-355645Y-111483D01*
Y-120319D01*
X-290516Y-185448D01*
X-205182Y-185448D01*
X-192736Y-198148D01*
X-165855D01*
X-164796Y-199208D01*
X-164796Y-211610D01*
X-165304Y-212118D01*
X-230582Y-212118D01*
X-239545Y-203155D01*
X-310137D01*
X-347655Y-165636D01*
X-429373D01*
X-431296Y-167559D01*
Y-178984D01*
X-433242Y-180930D01*
X-451024D01*
X-452453Y-179501D01*
Y-150407D01*
X-451039Y-148994D01*
X-397845D01*
X-396698Y-147847D01*
Y-113738D01*
X-397632Y-112804D01*
X-410136Y-112804D01*
X-411176Y-111765D01*
Y-91369D01*
X-410258Y-90452D01*
X-393650D01*
X-382982Y-79784D01*
X-345773D01*
X-344909Y-78921D01*
Y-8486D01*
X-343818Y-7394D01*
X-257751D01*
X-256998Y-8147D01*
D02*
G37*
G36*
X-461502Y-185512D02*
X-461408Y-185568D01*
X-461294Y-185617D01*
X-461160Y-185660D01*
X-461006Y-185696D01*
X-460832Y-185726D01*
X-460425Y-185765D01*
X-460191Y-185775D01*
X-459938Y-185779D01*
Y-188319D01*
X-460191Y-188322D01*
X-460832Y-188371D01*
X-461006Y-188401D01*
X-461160Y-188437D01*
X-461294Y-188480D01*
X-461408Y-188529D01*
X-461502Y-188585D01*
X-461577Y-188648D01*
Y-185449D01*
X-461502Y-185512D01*
D02*
G37*
G36*
X-453874Y-193143D02*
X-453780Y-193202D01*
X-453666Y-193254D01*
X-453532Y-193299D01*
X-453378Y-193337D01*
X-453205Y-193368D01*
X-453012Y-193392D01*
X-452565Y-193420D01*
X-452313Y-193424D01*
X-452395Y-195964D01*
X-452649Y-195967D01*
X-453290Y-196013D01*
X-453464Y-196041D01*
X-453618Y-196076D01*
X-453752Y-196116D01*
X-453867Y-196163D01*
X-453961Y-196216D01*
X-454035Y-196275D01*
X-453948Y-193077D01*
X-453874Y-193143D01*
D02*
G37*
G36*
X-380942Y-196591D02*
X-381026Y-196651D01*
X-381102Y-196732D01*
X-381169Y-196835D01*
X-381227Y-196959D01*
X-381276Y-197104D01*
X-381316Y-197271D01*
X-381348Y-197458D01*
X-381370Y-197668D01*
X-381384Y-198048D01*
X-381361Y-200257D01*
X-384130D01*
X-384091Y-200174D01*
X-384057Y-200046D01*
X-384027Y-199874D01*
X-384000Y-199657D01*
X-383946Y-198737D01*
X-383928Y-197414D01*
X-383300Y-197479D01*
X-383928Y-197259D01*
X-383929Y-196999D01*
X-384006Y-195781D01*
X-384024Y-195735D01*
X-380942Y-196591D01*
D02*
G37*
G36*
X-386562Y-197900D02*
X-386434Y-200046D01*
X-386400Y-200174D01*
X-386361Y-200257D01*
X-389130D01*
X-389125Y-200224D01*
X-389120Y-200141D01*
X-389104Y-197677D01*
X-386564Y-197414D01*
X-386562Y-197900D01*
D02*
G37*
G36*
X-412180Y-203045D02*
X-412086Y-203101D01*
X-411972Y-203150D01*
X-411838Y-203193D01*
X-411684Y-203230D01*
X-411510Y-203259D01*
X-411103Y-203299D01*
X-410869Y-203309D01*
X-410616Y-203312D01*
Y-205852D01*
X-410869Y-205855D01*
X-411510Y-205905D01*
X-411684Y-205934D01*
X-411838Y-205970D01*
X-411972Y-206013D01*
X-412086Y-206063D01*
X-412180Y-206119D01*
X-412255Y-206181D01*
Y-202982D01*
X-412180Y-203045D01*
D02*
G37*
G36*
X-404213Y-207122D02*
X-404239Y-206881D01*
X-404316Y-206665D01*
X-404445Y-206474D01*
X-404625Y-206309D01*
X-404856Y-206169D01*
X-405139Y-206055D01*
X-405473Y-205966D01*
X-405858Y-205903D01*
X-406296Y-205865D01*
X-406784Y-205852D01*
Y-203312D01*
X-406296Y-203299D01*
X-405858Y-203261D01*
X-405473Y-203198D01*
X-405139Y-203109D01*
X-404856Y-202994D01*
X-404625Y-202855D01*
X-404445Y-202690D01*
X-404316Y-202499D01*
X-404239Y-202283D01*
X-404213Y-202042D01*
Y-207122D01*
D02*
G37*
G36*
X-313640Y-210594D02*
X-257790Y-210594D01*
X-243820Y-224564D01*
X-200692D01*
X-195865Y-229390D01*
X-167125D01*
X-158964Y-221229D01*
Y-219787D01*
X-157579Y-218402D01*
X-149381D01*
X-148032Y-219752D01*
Y-241322D01*
X-148291Y-241582D01*
X-250394D01*
X-254838Y-246026D01*
X-329253D01*
X-331293Y-243986D01*
Y-219865D01*
X-364744Y-186413D01*
X-366399Y-184777D01*
X-394994D01*
X-395175Y-184656D01*
X-396166Y-184459D01*
X-426289D01*
X-427840Y-182908D01*
Y-172497D01*
X-426313Y-170970D01*
X-353264Y-170970D01*
X-313640Y-210594D01*
D02*
G37*
G36*
X29257Y-28798D02*
X37926D01*
X38620Y-29492D01*
Y-37476D01*
X38289Y-38277D01*
Y-39783D01*
X38620Y-40583D01*
Y-43620D01*
X40648Y-45647D01*
X68185D01*
X86880Y-26952D01*
X100049Y-26991D01*
X100760Y-27701D01*
Y-47247D01*
X96621Y-51385D01*
X35094Y-51385D01*
X12265Y-28556D01*
X-25312D01*
X-31379Y-34623D01*
Y-51865D01*
X-32858Y-53344D01*
X-50100D01*
X-51579Y-51865D01*
Y-23268D01*
X-48911Y-20600D01*
X21060D01*
X29257Y-28798D01*
D02*
G37*
G36*
X32386Y-54913D02*
X100499D01*
Y-71734D01*
X99879Y-72354D01*
X29200D01*
X10189Y-53344D01*
X-7047D01*
X-8532Y-51859D01*
Y-34223D01*
X-7053Y-32744D01*
X10217D01*
X32386Y-54913D01*
D02*
G37*
G36*
X-36699Y-84651D02*
X-36637Y-84820D01*
X-36533Y-84969D01*
X-36387Y-85099D01*
X-36200Y-85208D01*
X-35971Y-85297D01*
X-35701Y-85367D01*
X-35389Y-85417D01*
X-35036Y-85447D01*
X-34640Y-85456D01*
Y-87456D01*
X-35036Y-87466D01*
X-35389Y-87496D01*
X-35701Y-87546D01*
X-35971Y-87615D01*
X-36200Y-87705D01*
X-36387Y-87814D01*
X-36533Y-87943D01*
X-36637Y-88093D01*
X-36699Y-88262D01*
X-36720Y-88450D01*
Y-84462D01*
X-36699Y-84651D01*
D02*
G37*
G36*
X-46408Y-88980D02*
X-46436Y-88741D01*
X-46519Y-88528D01*
X-46659Y-88340D01*
X-46853Y-88177D01*
X-47103Y-88040D01*
X-47409Y-87927D01*
X-47770Y-87839D01*
X-48186Y-87777D01*
X-48659Y-87739D01*
X-49187Y-87726D01*
Y-85186D01*
X-48659Y-85174D01*
X-48186Y-85136D01*
X-47770Y-85074D01*
X-47409Y-84986D01*
X-47103Y-84873D01*
X-46853Y-84735D01*
X-46659Y-84572D01*
X-46519Y-84384D01*
X-46436Y-84171D01*
X-46408Y-83933D01*
Y-88980D01*
D02*
G37*
G36*
X-58514Y-84171D02*
X-58423Y-84384D01*
X-58279Y-84572D01*
X-58081Y-84735D01*
X-57830Y-84873D01*
X-57526Y-84986D01*
X-57168Y-85074D01*
X-56756Y-85136D01*
X-56291Y-85174D01*
X-55772Y-85186D01*
Y-87726D01*
X-56270Y-87739D01*
X-56714Y-87777D01*
X-57105Y-87841D01*
X-57442Y-87930D01*
X-57726Y-88044D01*
X-57957Y-88184D01*
X-58133Y-88349D01*
X-58257Y-88539D01*
X-58327Y-88755D01*
X-58343Y-88996D01*
X-58551Y-83933D01*
X-58514Y-84171D01*
D02*
G37*
G36*
X-59531Y-92749D02*
X-59744Y-92832D01*
X-59932Y-92971D01*
X-60094Y-93166D01*
X-60232Y-93416D01*
X-60345Y-93722D01*
X-60433Y-94083D01*
X-60496Y-94499D01*
X-60533Y-94972D01*
X-60546Y-95500D01*
X-63086D01*
X-63098Y-94972D01*
X-63136Y-94499D01*
X-63198Y-94083D01*
X-63286Y-93722D01*
X-63399Y-93416D01*
X-63537Y-93166D01*
X-63700Y-92971D01*
X-63888Y-92832D01*
X-64101Y-92749D01*
X-64339Y-92721D01*
X-59292D01*
X-59531Y-92749D01*
D02*
G37*
G36*
X-16616Y-98307D02*
X-16446Y-98447D01*
X-16278Y-98563D01*
X-16113Y-98656D01*
X-15950Y-98726D01*
X-15791Y-98772D01*
X-15635Y-98794D01*
X-15481Y-98794D01*
X-15330Y-98770D01*
X-15182Y-98722D01*
X-16459Y-101655D01*
X-16509Y-101538D01*
X-16573Y-101415D01*
X-16649Y-101285D01*
X-16842Y-101008D01*
X-16958Y-100860D01*
X-17385Y-100380D01*
X-17554Y-100208D01*
X-16790Y-98143D01*
X-16616Y-98307D01*
D02*
G37*
G36*
X-59311Y-106260D02*
X-59273Y-106697D01*
X-59209Y-107083D01*
X-59120Y-107417D01*
X-59006Y-107700D01*
X-58866Y-107931D01*
X-58701Y-108111D01*
X-58511Y-108239D01*
X-58295Y-108316D01*
X-58054Y-108342D01*
X-63134D01*
X-62892Y-108316D01*
X-62676Y-108239D01*
X-62486Y-108111D01*
X-62321Y-107931D01*
X-62181Y-107700D01*
X-62067Y-107417D01*
X-61978Y-107083D01*
X-61914Y-106697D01*
X-61876Y-106260D01*
X-61864Y-105772D01*
X-59324D01*
X-59311Y-106260D01*
D02*
G37*
G36*
X-6997Y-59670D02*
Y-80516D01*
X1103Y-88615D01*
X2817Y-90329D01*
Y-100768D01*
X5213Y-103164D01*
X21042D01*
X23383Y-100823D01*
X23404Y-81999D01*
X24374Y-81028D01*
X40420D01*
X42341Y-82950D01*
X42341Y-108575D01*
X40877Y-110040D01*
X-16275Y-110040D01*
X-21880Y-115644D01*
X-21880Y-132142D01*
X-4134Y-149888D01*
X20162D01*
X21808Y-151534D01*
Y-175830D01*
X21808Y-223046D01*
Y-239097D01*
X20031Y-240875D01*
X649D01*
X-798Y-239429D01*
Y-227618D01*
X11950Y-214870D01*
Y-160048D01*
X8446Y-156544D01*
X-6997D01*
X-15736Y-147805D01*
X-18370Y-145171D01*
X-18418Y-144929D01*
X-19310Y-143594D01*
X-20645Y-142702D01*
X-20886Y-142654D01*
X-24314Y-139226D01*
X-37728D01*
X-38482Y-138472D01*
X-38482Y-115785D01*
X-27628Y-104930D01*
X-11165D01*
X-4814Y-98578D01*
Y-91976D01*
X-16752Y-80038D01*
Y-58698D01*
X-16379Y-58325D01*
X-8341D01*
X-6997Y-59670D01*
D02*
G37*
G36*
X-39671Y-107955D02*
X-39887Y-108032D01*
X-40077Y-108160D01*
X-40242Y-108340D01*
X-40382Y-108572D01*
X-40496Y-108855D01*
X-40585Y-109189D01*
X-40649Y-109574D01*
X-40687Y-110011D01*
X-40700Y-110500D01*
X-43240D01*
X-43252Y-110011D01*
X-43290Y-109574D01*
X-43354Y-109189D01*
X-43443Y-108855D01*
X-43557Y-108572D01*
X-43697Y-108340D01*
X-43862Y-108160D01*
X-44052Y-108032D01*
X-44268Y-107955D01*
X-44510Y-107929D01*
X-39430D01*
X-39671Y-107955D01*
D02*
G37*
G36*
X-11299Y-117419D02*
X-12269Y-118378D01*
X-13969Y-116434D01*
X-13950Y-116426D01*
X-13912Y-116399D01*
X-13856Y-116353D01*
X-13577Y-116096D01*
X-12949Y-115478D01*
X-11299Y-117419D01*
D02*
G37*
G36*
X-3897Y-138917D02*
X-4074Y-139098D01*
X-4492Y-139586D01*
X-4594Y-139730D01*
X-4677Y-139865D01*
X-4742Y-139990D01*
X-4788Y-140105D01*
X-4815Y-140212D01*
X-4823Y-140309D01*
X-7085Y-138047D01*
X-6988Y-138038D01*
X-6882Y-138011D01*
X-6766Y-137965D01*
X-6641Y-137901D01*
X-6507Y-137817D01*
X-6363Y-137716D01*
X-6047Y-137456D01*
X-5875Y-137298D01*
X-5694Y-137121D01*
X-3897Y-138917D01*
D02*
G37*
G36*
X-40687Y-142739D02*
X-40649Y-143211D01*
X-40587Y-143628D01*
X-40499Y-143989D01*
X-40386Y-144295D01*
X-40248Y-144545D01*
X-40086Y-144739D01*
X-39898Y-144878D01*
X-39685Y-144962D01*
X-39446Y-144989D01*
X-44493D01*
X-44255Y-144962D01*
X-44042Y-144878D01*
X-43854Y-144739D01*
X-43691Y-144545D01*
X-43553Y-144295D01*
X-43440Y-143989D01*
X-43352Y-143628D01*
X-43290Y-143211D01*
X-43252Y-142739D01*
X-43240Y-142211D01*
X-40700D01*
X-40687Y-142739D01*
D02*
G37*
G36*
X-43381Y-154727D02*
X-43505Y-154515D01*
X-43672Y-154383D01*
X-43883Y-154329D01*
X-44138Y-154354D01*
X-44436Y-154457D01*
X-44777Y-154640D01*
X-45162Y-154901D01*
X-45590Y-155241D01*
X-46062Y-155661D01*
X-46578Y-156158D01*
X-47269Y-153257D01*
X-46830Y-152801D01*
X-46123Y-151952D01*
X-45855Y-151560D01*
X-45643Y-151191D01*
X-45489Y-150842D01*
X-45392Y-150515D01*
X-45352Y-150210D01*
X-45369Y-149927D01*
X-45442Y-149665D01*
X-43381Y-154727D01*
D02*
G37*
G36*
X-97405Y-164069D02*
X-97612Y-164151D01*
X-97795Y-164287D01*
X-97953Y-164478D01*
X-98087Y-164722D01*
X-98197Y-165021D01*
X-98282Y-165375D01*
X-98343Y-165783D01*
X-98379Y-166245D01*
X-98392Y-166762D01*
X-100932D01*
X-100944Y-166245D01*
X-100980Y-165783D01*
X-101041Y-165375D01*
X-101126Y-165021D01*
X-101236Y-164722D01*
X-101370Y-164478D01*
X-101528Y-164287D01*
X-101711Y-164151D01*
X-101918Y-164069D01*
X-102149Y-164042D01*
X-97174D01*
X-97405Y-164069D01*
D02*
G37*
G36*
X-434296Y-91847D02*
Y-117560D01*
X-435110Y-118374D01*
X-447861D01*
X-448158Y-118077D01*
X-448158Y-106502D01*
X-448544Y-106116D01*
X-483544D01*
X-483698Y-105963D01*
Y-91452D01*
X-483590Y-91345D01*
X-434799D01*
X-434296Y-91847D01*
D02*
G37*
G36*
X-418819Y-232714D02*
X-418740Y-232794D01*
X-418754Y-232864D01*
X-418859Y-232927D01*
X-419057Y-232981D01*
X-419347Y-233027D01*
X-419729Y-233065D01*
X-421427Y-233127D01*
X-422178Y-233132D01*
X-422060Y-230592D01*
X-421618Y-230585D01*
X-420449Y-230488D01*
X-420112Y-230430D01*
X-419801Y-230359D01*
X-419516Y-230275D01*
X-419258Y-230178D01*
X-419025Y-230068D01*
X-418819Y-229946D01*
Y-232714D01*
D02*
G37*
G36*
X-421427Y-234533D02*
X-419057Y-234679D01*
X-418859Y-234733D01*
X-418754Y-234796D01*
X-418740Y-234867D01*
X-418819Y-234946D01*
Y-237714D01*
X-419025Y-237592D01*
X-419258Y-237482D01*
X-419516Y-237385D01*
X-419801Y-237301D01*
X-420112Y-237230D01*
X-420449Y-237172D01*
X-421202Y-237094D01*
X-421618Y-237075D01*
X-422060Y-237069D01*
X-422178Y-234529D01*
X-421427Y-234533D01*
D02*
G37*
G36*
X-418819Y-242714D02*
X-418858Y-242705D01*
X-418947Y-242697D01*
X-419508Y-242678D01*
X-421432Y-242666D01*
X-421628Y-240126D01*
X-421143Y-240124D01*
X-418895Y-239980D01*
X-418819Y-239946D01*
Y-242714D01*
D02*
G37*
G36*
X-446057Y-238971D02*
X-445619Y-239204D01*
Y-238856D01*
X-445593Y-239097D01*
X-445544Y-239235D01*
X-445033Y-239427D01*
X-444351Y-239613D01*
X-443555Y-239769D01*
X-442647Y-239898D01*
X-440490Y-240069D01*
X-437879Y-240126D01*
Y-242666D01*
X-439241Y-242680D01*
X-443555Y-243022D01*
X-444351Y-243179D01*
X-445033Y-243364D01*
X-445544Y-243557D01*
X-445593Y-243694D01*
X-445619Y-243936D01*
Y-243587D01*
X-446057Y-243821D01*
X-446399Y-244092D01*
Y-238700D01*
X-446057Y-238971D01*
D02*
G37*
G36*
X-341691Y-246121D02*
X-341904Y-246204D01*
X-342092Y-246343D01*
X-342254Y-246537D01*
X-342392Y-246787D01*
X-342505Y-247093D01*
X-342593Y-247454D01*
X-342655Y-247871D01*
X-342693Y-248343D01*
X-342706Y-248871D01*
X-345246D01*
X-345258Y-248343D01*
X-345296Y-247871D01*
X-345358Y-247454D01*
X-345446Y-247093D01*
X-345559Y-246787D01*
X-345697Y-246537D01*
X-345860Y-246343D01*
X-346048Y-246204D01*
X-346261Y-246121D01*
X-346499Y-246093D01*
X-341452D01*
X-341691Y-246121D01*
D02*
G37*
G36*
X-418246Y-245190D02*
X-409246D01*
X-408761Y-245094D01*
X-407746Y-245983D01*
Y-247202D01*
X-403618Y-251330D01*
X-402399D01*
X-401509Y-252345D01*
X-401606Y-252830D01*
Y-261830D01*
X-401509Y-262315D01*
X-402399Y-263330D01*
X-439312D01*
X-445591Y-269610D01*
X-445591Y-299569D01*
X-446520Y-300498D01*
X-475735Y-300498D01*
X-476667Y-299565D01*
X-476667Y-284343D01*
X-475304Y-282980D01*
X-458714D01*
X-452578Y-276843D01*
Y-252801D01*
X-451901Y-252125D01*
X-426799D01*
X-419595Y-244922D01*
X-418246Y-245190D01*
D02*
G37*
G36*
X26799Y-131770D02*
X26935Y-131872D01*
X27084Y-131962D01*
X27245Y-132039D01*
X27418Y-132106D01*
X27603Y-132159D01*
X27801Y-132201D01*
X28012Y-132231D01*
X28234Y-132249D01*
X28469Y-132255D01*
Y-134255D01*
X28234Y-134261D01*
X28012Y-134279D01*
X27801Y-134309D01*
X27603Y-134351D01*
X27418Y-134405D01*
X27245Y-134471D01*
X27084Y-134549D01*
X26935Y-134639D01*
X26799Y-134741D01*
X26676Y-134855D01*
Y-131656D01*
X26799Y-131770D01*
D02*
G37*
G36*
X-46375Y-184489D02*
X-46406Y-184251D01*
X-46493Y-184038D01*
X-46635Y-183850D01*
X-46833Y-183687D01*
X-47086Y-183549D01*
X-47395Y-183436D01*
X-47760Y-183349D01*
X-48180Y-183286D01*
X-48656Y-183248D01*
X-49187Y-183236D01*
Y-180696D01*
X-48662Y-180683D01*
X-48193Y-180646D01*
X-47780Y-180583D01*
X-47422Y-180495D01*
X-47120Y-180382D01*
X-46873Y-180245D01*
X-46682Y-180082D01*
X-46546Y-179894D01*
X-46466Y-179681D01*
X-46442Y-179443D01*
X-46375Y-184489D01*
D02*
G37*
G36*
X-58482Y-179681D02*
X-58394Y-179894D01*
X-58252Y-180082D01*
X-58058Y-180245D01*
X-57810Y-180382D01*
X-57509Y-180495D01*
X-57154Y-180583D01*
X-56747Y-180646D01*
X-56286Y-180683D01*
X-55772Y-180696D01*
Y-183236D01*
X-56269Y-183249D01*
X-56712Y-183287D01*
X-57102Y-183350D01*
X-57439Y-183439D01*
X-57722Y-183553D01*
X-57953Y-183693D01*
X-58130Y-183858D01*
X-58254Y-184049D01*
X-58325Y-184265D01*
X-58343Y-184506D01*
X-58517Y-179443D01*
X-58482Y-179681D01*
D02*
G37*
G36*
X-36800Y-183130D02*
X-36872Y-183294D01*
X-36885Y-183489D01*
X-36840Y-183713D01*
X-36737Y-183969D01*
X-36576Y-184254D01*
X-36356Y-184571D01*
X-36079Y-184917D01*
X-35350Y-185702D01*
X-37046Y-186833D01*
X-37441Y-186453D01*
X-38156Y-185848D01*
X-38476Y-185625D01*
X-38772Y-185454D01*
X-39042Y-185336D01*
X-39287Y-185270D01*
X-39508Y-185257D01*
X-39704Y-185297D01*
X-39875Y-185389D01*
X-36671Y-182997D01*
X-36800Y-183130D01*
D02*
G37*
G36*
X-59531Y-188209D02*
X-59744Y-188292D01*
X-59932Y-188431D01*
X-60094Y-188625D01*
X-60232Y-188875D01*
X-60345Y-189181D01*
X-60433Y-189542D01*
X-60496Y-189959D01*
X-60533Y-190431D01*
X-60546Y-190959D01*
X-63086D01*
X-63098Y-190431D01*
X-63136Y-189959D01*
X-63198Y-189542D01*
X-63286Y-189181D01*
X-63399Y-188875D01*
X-63537Y-188625D01*
X-63700Y-188431D01*
X-63888Y-188292D01*
X-64101Y-188209D01*
X-64339Y-188181D01*
X-59292D01*
X-59531Y-188209D01*
D02*
G37*
G36*
X-58295Y-204272D02*
X-58257Y-204709D01*
X-58193Y-205095D01*
X-58104Y-205429D01*
X-57990Y-205712D01*
X-57850Y-205943D01*
X-57685Y-206123D01*
X-57495Y-206251D01*
X-57279Y-206329D01*
X-57038Y-206354D01*
X-62118D01*
X-61876Y-206329D01*
X-61660Y-206251D01*
X-61470Y-206123D01*
X-61305Y-205943D01*
X-61165Y-205712D01*
X-61051Y-205429D01*
X-60962Y-205095D01*
X-60898Y-204709D01*
X-60860Y-204272D01*
X-60848Y-203784D01*
X-58308D01*
X-58295Y-204272D01*
D02*
G37*
G36*
X-133124Y-186844D02*
X-133097Y-186950D01*
X-133051Y-187066D01*
X-132987Y-187191D01*
X-132904Y-187325D01*
X-132802Y-187469D01*
X-132542Y-187785D01*
X-132384Y-187957D01*
X-132207Y-188139D01*
X-134003Y-189935D01*
X-134184Y-189758D01*
X-134672Y-189340D01*
X-134816Y-189238D01*
X-134951Y-189155D01*
X-135076Y-189090D01*
X-135191Y-189044D01*
X-135298Y-189017D01*
X-135395Y-189009D01*
X-133133Y-186747D01*
X-133124Y-186844D01*
D02*
G37*
G36*
X-115828Y-188862D02*
X-115999Y-188926D01*
X-116151Y-189032D01*
X-116282Y-189180D01*
X-116393Y-189371D01*
X-116484Y-189604D01*
X-116555Y-189879D01*
X-116605Y-190197D01*
X-116636Y-190557D01*
X-116646Y-190959D01*
X-118678D01*
X-118688Y-190557D01*
X-118718Y-190197D01*
X-118769Y-189879D01*
X-118839Y-189604D01*
X-118930Y-189371D01*
X-119041Y-189180D01*
X-119172Y-189032D01*
X-119324Y-188926D01*
X-119496Y-188862D01*
X-119688Y-188841D01*
X-115635D01*
X-115828Y-188862D01*
D02*
G37*
G36*
X-116636Y-194919D02*
X-116605Y-195279D01*
X-116555Y-195597D01*
X-116484Y-195872D01*
X-116393Y-196105D01*
X-116282Y-196296D01*
X-116151Y-196444D01*
X-115999Y-196550D01*
X-115828Y-196613D01*
X-115635Y-196634D01*
X-119688D01*
X-119496Y-196613D01*
X-119324Y-196550D01*
X-119172Y-196444D01*
X-119041Y-196296D01*
X-118930Y-196105D01*
X-118839Y-195872D01*
X-118769Y-195597D01*
X-118718Y-195279D01*
X-118688Y-194919D01*
X-118678Y-194517D01*
X-116646D01*
X-116636Y-194919D01*
D02*
G37*
G36*
X-90563Y-202500D02*
X-90580Y-202423D01*
X-90632Y-202354D01*
X-90717Y-202293D01*
X-90836Y-202240D01*
X-90990Y-202195D01*
X-91178Y-202159D01*
X-91399Y-202131D01*
X-91945Y-202098D01*
X-92269Y-202094D01*
Y-199554D01*
X-91945Y-199550D01*
X-91178Y-199489D01*
X-90990Y-199453D01*
X-90836Y-199408D01*
X-90717Y-199355D01*
X-90632Y-199294D01*
X-90580Y-199226D01*
X-90563Y-199148D01*
Y-202500D01*
D02*
G37*
G36*
X-96167Y-199583D02*
X-96102Y-199730D01*
X-95994Y-199859D01*
X-95843Y-199971D01*
X-95648Y-200066D01*
X-95410Y-200144D01*
X-95129Y-200204D01*
X-94805Y-200247D01*
X-94437Y-200273D01*
X-94026Y-200282D01*
Y-202822D01*
X-94437Y-202830D01*
X-95129Y-202899D01*
X-95410Y-202960D01*
X-95648Y-203037D01*
X-95843Y-203132D01*
X-95994Y-203244D01*
X-96102Y-203374D01*
X-96167Y-203520D01*
X-96189Y-203684D01*
Y-199419D01*
X-96167Y-199583D01*
D02*
G37*
G36*
X-114283Y-203457D02*
X-114324Y-203655D01*
X-114311Y-203879D01*
X-114244Y-204128D01*
X-114124Y-204403D01*
X-113951Y-204703D01*
X-113724Y-205029D01*
X-113443Y-205380D01*
X-112722Y-206158D01*
X-113879Y-207873D01*
X-114294Y-207473D01*
X-115031Y-206849D01*
X-115352Y-206625D01*
X-115644Y-206461D01*
X-115904Y-206355D01*
X-116133Y-206309D01*
X-116331Y-206322D01*
X-116498Y-206394D01*
X-116635Y-206524D01*
X-114189Y-203284D01*
X-114283Y-203457D01*
D02*
G37*
G36*
X-103134Y-220815D02*
X-103151Y-220746D01*
X-103201Y-220683D01*
X-103284Y-220629D01*
X-103401Y-220581D01*
X-103551Y-220541D01*
X-103734Y-220508D01*
X-103951Y-220482D01*
X-104484Y-220453D01*
X-104801Y-220449D01*
Y-217909D01*
X-104484Y-217906D01*
X-103734Y-217851D01*
X-103551Y-217818D01*
X-103401Y-217778D01*
X-103284Y-217730D01*
X-103201Y-217675D01*
X-103151Y-217613D01*
X-103134Y-217543D01*
Y-220815D01*
D02*
G37*
G36*
X-121134Y-221719D02*
X-121160Y-221478D01*
X-121237Y-221262D01*
X-121366Y-221072D01*
X-121546Y-220907D01*
X-121777Y-220767D01*
X-122060Y-220653D01*
X-122394Y-220564D01*
X-122779Y-220500D01*
X-123216Y-220462D01*
X-123705Y-220449D01*
Y-217909D01*
X-123216Y-217897D01*
X-122779Y-217859D01*
X-122394Y-217795D01*
X-122060Y-217706D01*
X-121777Y-217592D01*
X-121546Y-217452D01*
X-121366Y-217287D01*
X-121237Y-217097D01*
X-121160Y-216881D01*
X-121134Y-216639D01*
Y-221719D01*
D02*
G37*
G36*
X-114174Y-235354D02*
X-114130Y-235382D01*
X-114057Y-235406D01*
X-113955Y-235427D01*
X-113823Y-235445D01*
X-113472Y-235471D01*
X-112726Y-235486D01*
Y-238026D01*
X-113004Y-238028D01*
X-113955Y-238085D01*
X-114057Y-238106D01*
X-114130Y-238130D01*
X-114174Y-238158D01*
X-114189Y-238189D01*
Y-235323D01*
X-114174Y-235354D01*
D02*
G37*
G36*
X-39345Y-203414D02*
X-39561Y-203492D01*
X-39751Y-203620D01*
X-39916Y-203800D01*
X-40056Y-204031D01*
X-40170Y-204314D01*
X-40259Y-204648D01*
X-40323Y-205034D01*
X-40361Y-205471D01*
X-40374Y-205959D01*
X-42914D01*
X-42926Y-205471D01*
X-42964Y-205034D01*
X-43028Y-204648D01*
X-43117Y-204314D01*
X-43231Y-204031D01*
X-43371Y-203800D01*
X-43536Y-203620D01*
X-43726Y-203492D01*
X-43942Y-203414D01*
X-44184Y-203389D01*
X-39104D01*
X-39345Y-203414D01*
D02*
G37*
G36*
X-90563Y-239347D02*
X-90583Y-239105D01*
X-90656Y-238890D01*
X-90781Y-238699D01*
X-90959Y-238534D01*
X-91190Y-238394D01*
X-91473Y-238280D01*
X-91809Y-238191D01*
X-92198Y-238128D01*
X-92640Y-238090D01*
X-93134Y-238077D01*
Y-235537D01*
X-92627Y-235524D01*
X-92172Y-235487D01*
X-91770Y-235424D01*
X-91421Y-235336D01*
X-91125Y-235224D01*
X-90881Y-235086D01*
X-90690Y-234923D01*
X-90552Y-234735D01*
X-90467Y-234522D01*
X-90434Y-234284D01*
X-90563Y-239347D01*
D02*
G37*
G36*
X-96163Y-234508D02*
X-96086Y-234724D01*
X-95957Y-234914D01*
X-95778Y-235080D01*
X-95546Y-235219D01*
X-95264Y-235334D01*
X-94929Y-235422D01*
X-94544Y-235486D01*
X-94107Y-235524D01*
X-93618Y-235537D01*
Y-238077D01*
X-94107Y-238090D01*
X-94544Y-238128D01*
X-94929Y-238191D01*
X-95264Y-238280D01*
X-95546Y-238394D01*
X-95778Y-238534D01*
X-95957Y-238699D01*
X-96086Y-238890D01*
X-96163Y-239105D01*
X-96189Y-239347D01*
Y-234267D01*
X-96163Y-234508D01*
D02*
G37*
G36*
X-98380Y-250383D02*
X-98347Y-250818D01*
X-98291Y-251201D01*
X-98212Y-251533D01*
X-98111Y-251814D01*
X-97988Y-252045D01*
X-97842Y-252223D01*
X-97674Y-252351D01*
X-97483Y-252428D01*
X-97270Y-252453D01*
X-102053D01*
X-101840Y-252428D01*
X-101649Y-252351D01*
X-101481Y-252223D01*
X-101335Y-252045D01*
X-101212Y-251814D01*
X-101111Y-251533D01*
X-101032Y-251201D01*
X-100976Y-250818D01*
X-100943Y-250383D01*
X-100932Y-249898D01*
X-98392D01*
X-98380Y-250383D01*
D02*
G37*
G36*
X-40361Y-250309D02*
X-40324Y-250807D01*
X-40261Y-251248D01*
X-40173Y-251633D01*
X-40060Y-251961D01*
X-39922Y-252232D01*
X-39760Y-252447D01*
X-39572Y-252605D01*
X-39359Y-252706D01*
X-39121Y-252751D01*
X-44178Y-252417D01*
X-43938Y-252405D01*
X-43723Y-252337D01*
X-43533Y-252213D01*
X-43369Y-252031D01*
X-43230Y-251793D01*
X-43116Y-251499D01*
X-43027Y-251148D01*
X-42964Y-250740D01*
X-42926Y-250276D01*
X-42914Y-249755D01*
X-40374D01*
X-40361Y-250309D01*
D02*
G37*
G36*
X-45442Y-259838D02*
X-45468Y-259597D01*
X-45545Y-259381D01*
X-45674Y-259190D01*
X-45854Y-259025D01*
X-46085Y-258886D01*
X-46368Y-258771D01*
X-46702Y-258682D01*
X-47087Y-258619D01*
X-47524Y-258581D01*
X-48013Y-258568D01*
Y-256028D01*
X-47524Y-256015D01*
X-47087Y-255977D01*
X-46702Y-255914D01*
X-46368Y-255825D01*
X-46085Y-255711D01*
X-45854Y-255571D01*
X-45674Y-255406D01*
X-45545Y-255215D01*
X-45468Y-254999D01*
X-45442Y-254758D01*
Y-259838D01*
D02*
G37*
G36*
X-145031Y-169019D02*
X-145087Y-169114D01*
X-145137Y-169228D01*
X-145180Y-169362D01*
X-145216Y-169516D01*
X-145246Y-169690D01*
X-145285Y-170097D01*
X-145295Y-170330D01*
X-145298Y-170583D01*
X-147838D01*
X-147842Y-170330D01*
X-147891Y-169690D01*
X-147921Y-169516D01*
X-147957Y-169362D01*
X-148000Y-169228D01*
X-148049Y-169114D01*
X-148105Y-169019D01*
X-148168Y-168945D01*
X-144969D01*
X-145031Y-169019D01*
D02*
G37*
G36*
X-121134Y-259838D02*
X-121160Y-259597D01*
X-121237Y-259381D01*
X-121366Y-259190D01*
X-121546Y-259025D01*
X-121777Y-258885D01*
X-122060Y-258771D01*
X-122394Y-258682D01*
X-122779Y-258619D01*
X-123216Y-258581D01*
X-123705Y-258568D01*
Y-256028D01*
X-123216Y-256015D01*
X-122779Y-255977D01*
X-122394Y-255914D01*
X-122060Y-255825D01*
X-121777Y-255711D01*
X-121546Y-255571D01*
X-121366Y-255406D01*
X-121237Y-255215D01*
X-121160Y-254999D01*
X-121134Y-254758D01*
Y-259838D01*
D02*
G37*
D10*
X103290Y2369D02*
Y32838D01*
X90225Y-10697D02*
X103290Y2369D01*
X90225Y14703D02*
Y29492D01*
X76739Y42978D02*
X90225Y29492D01*
X-18001Y19259D02*
X-17822Y19438D01*
Y28122D01*
X35061Y-247936D02*
X50158Y-232838D01*
X-5628Y-247936D02*
X35061D01*
X-21908Y-231656D02*
X-5628Y-247936D01*
X-21908Y-231656D02*
Y-200558D01*
X25044Y-133255D02*
X66184D01*
X70625Y-137697D01*
X-17822Y28122D02*
X-2966Y42978D01*
X85949Y50179D02*
X103290Y32838D01*
X-29891Y-86456D02*
X-15508Y-100840D01*
X-14325D01*
X-41644Y-86456D02*
X-29891D01*
X50158Y-174978D02*
X62039Y-163097D01*
X50158Y-232838D02*
Y-174978D01*
X62039Y-163097D02*
X90225D01*
X70625Y-137697D02*
X90225D01*
X-40550Y-181916D02*
X-21908Y-200558D01*
X-26153Y5342D02*
Y31650D01*
X-7624Y50179D01*
X-41644Y-181916D02*
X-40550D01*
X-7624Y50179D02*
X85949D01*
X-2966Y42978D02*
X76739D01*
D11*
X-84594Y-237298D02*
G03*
X-85779Y-236807I-1186J-1186D01*
G01*
X-92269Y-200824D02*
G03*
X-93168Y-201196I0J-1270D01*
G01*
X-94026Y-201552D02*
G03*
X-93168Y-201196I0J1214D01*
G01*
X-59578Y-210324D02*
Y-197956D01*
X-505396Y-196110D02*
Y-125150D01*
X-494393Y-114148D02*
X-479857D01*
X-492762Y-118084D02*
X-479857D01*
X-501459Y-194479D02*
Y-126781D01*
X-442058Y-220316D02*
Y-210952D01*
X-446111Y-206899D02*
X-442058Y-210952D01*
X-426576Y-235798D02*
X-418902D01*
X-426576D02*
X-426576Y-235799D01*
X-418370Y-236330D02*
X-413746D01*
X-418902Y-235798D02*
X-418370Y-236330D01*
X-498679Y-202827D02*
X-495760Y-205746D01*
X-498679Y-202827D02*
Y-202827D01*
X-495760Y-205746D02*
X-495760D01*
X-494607Y-206899D01*
X-477826Y-112116D02*
X-468326D01*
X-479857Y-114148D02*
X-477826Y-112116D01*
X-442058Y-220316D02*
X-426576Y-235798D01*
X-494607Y-206899D02*
X-446111D01*
X-505396Y-196110D02*
X-498679Y-202827D01*
X-438121Y-218686D02*
X-424945Y-231861D01*
X-438121Y-218686D02*
Y-209322D01*
X-444481Y-202962D02*
Y-202962D01*
Y-202962D02*
X-438121Y-209322D01*
X-424945Y-231861D02*
X-418902D01*
X-418370Y-231330D01*
X-413746D01*
X-479857Y-118084D02*
X-477826Y-120116D01*
X-468326D01*
X-492976Y-202962D02*
X-444481D01*
X-501459Y-194479D02*
X-492976Y-202962D01*
X-501459Y-126781D02*
X-492762Y-118084D01*
X-505396Y-125150D02*
X-494393Y-114148D01*
X-194148Y-112048D02*
X-154912D01*
X-143355Y-123605D02*
X-117662D01*
X-154912Y-112048D02*
X-143355Y-123605D01*
X-14538Y-118646D02*
X-14322D01*
X-12035Y-116360D02*
X49288D01*
X-14322Y-118646D02*
X-12035Y-116360D01*
X-95997Y-246233D02*
X-79773D01*
X-68708Y-257298D02*
X-41970D01*
X-79773Y-246233D02*
X-68708Y-257298D01*
X-112726Y-236756D02*
X-109621Y-233651D01*
Y-223999D02*
X-104801Y-219179D01*
X-109621Y-233651D02*
Y-223999D01*
X-146568Y-191067D02*
X-138974Y-198662D01*
X-146568Y-191067D02*
Y-167313D01*
X-41970Y-104782D02*
X-41644Y-104457D01*
X-41970Y-149754D02*
Y-104782D01*
X-117662Y-141430D02*
X-117585Y-141506D01*
X-100594Y-130456D02*
Y-124538D01*
X-117585Y-141506D02*
X-111645D01*
X-100594Y-130456D01*
Y-124538D02*
X-99662Y-123605D01*
X-207564Y22269D02*
X-199395Y30438D01*
X-207564Y5866D02*
Y22269D01*
X-382658Y-195752D02*
X-382046Y-195140D01*
Y-194591D01*
X-382658Y-205242D02*
Y-195752D01*
X-382746Y-205330D02*
X-382658Y-205242D01*
X-455623Y-194632D02*
X-455561Y-194694D01*
X-397104D01*
X-463209Y-187049D02*
X-396166D01*
X-387834Y-195381D01*
X-62169Y-169954D02*
X-41970Y-149754D01*
X-96470Y-169954D02*
X-62169D01*
X-159198Y-129101D02*
X-129045Y-159254D01*
X-193834Y-129101D02*
X-159198D01*
X-127425Y-150924D02*
X-110118D01*
X-206172Y-119780D02*
X-158569D01*
X-127425Y-150924D01*
X-231684Y-94268D02*
X-206172Y-119780D01*
X-129045Y-159254D02*
X-117662D01*
X-127691Y-27456D02*
X-127491Y-27657D01*
Y-113879D02*
Y-27657D01*
Y-113879D02*
X-127290Y-114080D01*
X70675Y-112297D02*
X90225D01*
X58464Y-124509D02*
X70675Y-112297D01*
X78751Y-86897D02*
X90225D01*
X49288Y-116360D02*
X78751Y-86897D01*
X8715Y-124509D02*
X58464D01*
X-91733Y-102812D02*
X-84594D01*
X-99662Y-105781D02*
X-94701D01*
X-91733Y-102812D01*
X-402958Y-204582D02*
X-402746Y-204794D01*
Y-205330D02*
Y-204794D01*
X-413887Y-204582D02*
X-402958D01*
X-41644Y-256972D02*
Y-199916D01*
X-41970Y-257298D02*
X-41644Y-256972D01*
X-61816Y-195718D02*
Y-183416D01*
Y-195718D02*
X-59578Y-197956D01*
X-61816Y-183416D02*
X-60365Y-181966D01*
X-41693D01*
X-41644Y-181916D01*
X-61816Y-87956D02*
X-60316Y-86456D01*
X-41644D01*
X-61816Y-98722D02*
Y-87956D01*
X-7108Y-140331D02*
X8715Y-124509D01*
X-397746Y-264586D02*
X-392977Y-269354D01*
X-354521D02*
X-343976Y-258809D01*
X-392977Y-269354D02*
X-354521D01*
X-397746Y-264586D02*
Y-257330D01*
X-199395Y30438D02*
X-117945D01*
X-321280Y21137D02*
X-313956Y13812D01*
X-217478D01*
X-140244Y-115096D02*
Y-48717D01*
X-138974Y-243528D02*
Y-198662D01*
Y-243528D02*
X-125204Y-257298D01*
X-129576Y-213394D02*
X-123790Y-219179D01*
X-135418Y-186724D02*
X-129576Y-192566D01*
Y-213394D02*
Y-192566D01*
X-123790Y-219179D02*
X-117662D01*
X-231684Y-94268D02*
Y-81568D01*
X-110118Y-150924D02*
X-109863Y-151179D01*
X-117662Y-219179D02*
X-117662Y-219179D01*
X-203292Y-102904D02*
X-194148Y-112048D01*
X-203490Y-102904D02*
X-203292D01*
X-99662Y-249898D02*
X-95997Y-246233D01*
X-99662Y-257298D02*
Y-249898D01*
X-343976Y-258809D02*
Y-241328D01*
X-397104Y-194694D02*
X-392834Y-198964D01*
X-387834Y-205242D02*
Y-195381D01*
Y-205242D02*
X-387746Y-205330D01*
X-449091Y-241396D02*
X-413811D01*
X-392834Y-205242D02*
X-392746Y-205330D01*
X-392834Y-205242D02*
Y-198964D01*
X-99662Y-236807D02*
X-85779D01*
X-92269Y-200824D02*
X-84594D01*
X-99662Y-201552D02*
X-94026D01*
X-99662Y-141430D02*
X-94547D01*
X-92372Y-139254D02*
X-84594D01*
X-94547Y-141430D02*
X-92372Y-139254D01*
X-61816Y-98722D02*
X-60594Y-99944D01*
Y-112312D02*
Y-99944D01*
X-104801Y-219179D02*
X-99662D01*
X-117611Y-236756D02*
X-112726D01*
X-117662Y-236807D02*
X-117611Y-236756D01*
X-125204Y-257298D02*
X-117662D01*
X-99662Y-166762D02*
Y-159254D01*
Y-166762D02*
X-96470Y-169954D01*
D14*
X32691Y-191118D02*
D03*
X15691D02*
D03*
X-61816Y-87957D02*
D03*
X-79816D02*
D03*
X-23970Y-149754D02*
D03*
X-41970D02*
D03*
X-449091Y-272854D02*
D03*
X-466091D02*
D03*
X-466088Y-257133D02*
D03*
X-449088D02*
D03*
X-466091Y-241396D02*
D03*
X-449091D02*
D03*
X-100162Y-70886D02*
D03*
X-117162D02*
D03*
X-99662Y-87956D02*
D03*
X-117662D02*
D03*
Y-105781D02*
D03*
X-99662D02*
D03*
Y-123605D02*
D03*
X-117662D02*
D03*
Y-141430D02*
D03*
X-99662D02*
D03*
Y-159254D02*
D03*
X-117662D02*
D03*
X-24160Y-167918D02*
D03*
X-41160D02*
D03*
X-41970Y-257298D02*
D03*
X-23970D02*
D03*
X-117662Y-257298D02*
D03*
X-99662D02*
D03*
X-79816Y-183416D02*
D03*
X-61816D02*
D03*
X-99662Y-183924D02*
D03*
X-117662D02*
D03*
Y-201552D02*
D03*
X-99662D02*
D03*
X-117662Y-219179D02*
D03*
X-99662D02*
D03*
X-117662Y-236807D02*
D03*
X-99662D02*
D03*
X-24470Y-69306D02*
D03*
X-41470D02*
D03*
X53160Y-33386D02*
D03*
X35160Y-19221D02*
D03*
X52160D02*
D03*
X35160Y-5055D02*
D03*
X53160D02*
D03*
X-342976Y-225921D02*
D03*
X-325976D02*
D03*
X35160Y-33386D02*
D03*
X-343976Y-241328D02*
D03*
X-325976D02*
D03*
X-466091Y-225667D02*
D03*
X-449091D02*
D03*
X-359760Y-98818D02*
D03*
X-376760D02*
D03*
X-423986Y-99088D02*
D03*
X-405986D02*
D03*
X35160Y9110D02*
D03*
X53160D02*
D03*
D15*
X-417526Y-157194D02*
D03*
Y-126394D02*
D03*
D16*
X-468326Y-75616D02*
D03*
X-523326D02*
D03*
Y-164616D02*
D03*
X-468326D02*
D03*
D17*
Y-136116D02*
D03*
Y-128116D02*
D03*
Y-120116D02*
D03*
Y-112116D02*
D03*
Y-104116D02*
D03*
D18*
X28762Y25366D02*
D03*
X63052D02*
D03*
D19*
X-41644Y-86456D02*
D03*
Y-104457D02*
D03*
Y-181916D02*
D03*
Y-199916D02*
D03*
X-188164Y-222026D02*
D03*
X-170892Y-254026D02*
D03*
Y-222026D02*
D03*
X-188164Y-254026D02*
D03*
X-153366Y-204026D02*
D03*
Y-222026D02*
D03*
X-188164Y-205026D02*
D03*
X-170892Y-237026D02*
D03*
Y-205026D02*
D03*
X-188164Y-237026D02*
D03*
D20*
X-84594Y-237298D02*
D03*
Y-256298D02*
D03*
X-60594Y-246798D02*
D03*
X-84594Y-200824D02*
D03*
Y-219824D02*
D03*
X-60594Y-210324D02*
D03*
X-84594Y-139254D02*
D03*
Y-158254D02*
D03*
X-60594Y-148754D02*
D03*
X-84594Y-102812D02*
D03*
Y-121812D02*
D03*
X-60594Y-112312D02*
D03*
D21*
X-84526Y-43044D02*
D03*
X1568Y-544D02*
D03*
Y-43044D02*
D03*
X-41479Y-544D02*
D03*
Y-43044D02*
D03*
X-84526Y-544D02*
D03*
D22*
X-181646Y-155294D02*
D03*
X-224146D02*
D03*
D23*
X-214036Y-252526D02*
D03*
Y-206526D02*
D03*
Y-229526D02*
D03*
D24*
X-413746Y-226330D02*
D03*
Y-216330D02*
D03*
Y-221330D02*
D03*
Y-231330D02*
D03*
Y-236330D02*
D03*
Y-241330D02*
D03*
Y-246330D02*
D03*
X-361746D02*
D03*
Y-241330D02*
D03*
Y-236330D02*
D03*
Y-226330D02*
D03*
Y-221330D02*
D03*
Y-216330D02*
D03*
D25*
X-273036Y-229526D02*
D03*
D26*
X-402746Y-257330D02*
D03*
X-397746D02*
D03*
X-392746D02*
D03*
X-387746D02*
D03*
X-382746D02*
D03*
X-377746D02*
D03*
X-372746D02*
D03*
Y-205330D02*
D03*
X-377746D02*
D03*
X-382746D02*
D03*
X-387746D02*
D03*
X-392746D02*
D03*
X-397746D02*
D03*
X-402746D02*
D03*
D27*
X-387746Y-231330D02*
D03*
D28*
X-376536Y-137894D02*
D03*
X-266536D02*
D03*
D29*
X-186172Y1806D02*
D03*
Y-85194D02*
D03*
D30*
X-273772Y-65214D02*
D03*
Y-48214D02*
D03*
Y-31214D02*
D03*
Y-14214D02*
D03*
Y2786D02*
D03*
D31*
X-390522Y-31214D02*
D03*
D32*
X-412922Y16611D02*
D03*
Y-79039D02*
D03*
D33*
X-7778Y24959D02*
D03*
X6122D02*
D03*
D57*
X-60594Y-246798D02*
Y-228264D01*
X-110139Y-210177D02*
X-78681D01*
X-60594Y-228264D01*
X-117662Y-107392D02*
Y-105781D01*
X-116888Y-106555D01*
X-112304D02*
X-104382Y-114477D01*
X-77879D01*
X-117662Y-105781D02*
Y-87956D01*
X-116888Y-106555D02*
X-112304D01*
X-71074Y-138274D02*
Y-121282D01*
X-77879Y-114477D02*
X-71074Y-121282D01*
Y-138274D02*
X-60594Y-148754D01*
X-117662Y-202654D02*
X-110139Y-210177D01*
X-117662Y-201552D02*
Y-185027D01*
Y-202654D02*
Y-201552D01*
D58*
X-79046Y-21334D02*
X-66806Y-33573D01*
Y-65225D02*
X-53650Y-78381D01*
X-66806Y-65225D02*
Y-33573D01*
X-102831Y-21334D02*
X-79046D01*
X-53650Y-78381D02*
X-23971D01*
D59*
X-23814Y-78538D02*
X-15458D01*
X-209538Y38326D02*
X-91174D01*
X-223000Y24864D02*
X-209538Y38326D01*
X-15458Y-78538D02*
X-11863Y-74944D01*
X-275534Y-78633D02*
Y-65214D01*
Y-78633D02*
X-262652Y-91516D01*
X-204115Y-138783D02*
X-162504D01*
X-251381Y-91516D02*
X-204115Y-138783D01*
X-262652Y-91516D02*
X-251381D01*
X-162504Y-138783D02*
X-130607Y-170679D01*
X-99206Y-183416D02*
X-79816D01*
X-111943Y-170679D02*
X-99206Y-183416D01*
X-130607Y-170679D02*
X-111943D01*
X-75426Y22578D02*
X-58408D01*
X-91174Y38326D02*
X-75426Y22578D01*
D60*
X-24470Y-69306D02*
Y-55038D01*
X-20006Y-50574D01*
X-16498D01*
X-24160Y-167918D02*
X-10540Y-181538D01*
X-10343D01*
X-449091Y-241396D02*
Y-225667D01*
D61*
X90225Y14703D02*
D03*
D62*
Y-10697D02*
D03*
Y-36097D02*
D03*
Y-61497D02*
D03*
Y-86897D02*
D03*
Y-112297D02*
D03*
Y-137697D02*
D03*
Y-163097D02*
D03*
Y-188497D02*
D03*
Y-213897D02*
D03*
Y-239297D02*
D03*
Y-264697D02*
D03*
D63*
X-493326Y-98116D02*
D03*
Y-142116D02*
D03*
D64*
X-18001Y19259D02*
D03*
X1364Y-72828D02*
D03*
X2109Y-82476D02*
D03*
X58733Y-80428D02*
D03*
X58649Y-95926D02*
D03*
X92921Y82249D02*
D03*
X86571Y69549D02*
D03*
X92921Y56849D02*
D03*
X86571Y-286051D02*
D03*
X92921Y-298751D02*
D03*
X86571Y-311451D02*
D03*
X80221Y82249D02*
D03*
X73871Y69549D02*
D03*
X80221Y56849D02*
D03*
Y31449D02*
D03*
X73871Y18749D02*
D03*
Y-6651D02*
D03*
X80221Y-19351D02*
D03*
X73871Y-32051D02*
D03*
Y-82851D02*
D03*
X80221Y-95551D02*
D03*
Y-120951D02*
D03*
Y-146351D02*
D03*
Y-171751D02*
D03*
X73871Y-184451D02*
D03*
X80221Y-197151D02*
D03*
X73871Y-209851D02*
D03*
X80221Y-222551D02*
D03*
X73871Y-235251D02*
D03*
X80221Y-247951D02*
D03*
X73871Y-260651D02*
D03*
X80221Y-273351D02*
D03*
X73871Y-286051D02*
D03*
X80221Y-298751D02*
D03*
X73871Y-311451D02*
D03*
X67521Y82249D02*
D03*
X61171Y69549D02*
D03*
X67521Y56849D02*
D03*
X61171Y-260651D02*
D03*
X67521Y-273351D02*
D03*
X61171Y-286051D02*
D03*
X67521Y-298751D02*
D03*
X61171Y-311451D02*
D03*
X54821Y82249D02*
D03*
X48471Y69549D02*
D03*
X54821Y56849D02*
D03*
Y-273351D02*
D03*
X48471Y-286051D02*
D03*
X54821Y-298751D02*
D03*
X48471Y-311451D02*
D03*
X42121Y82249D02*
D03*
X35771Y69549D02*
D03*
X42121Y56849D02*
D03*
Y-222551D02*
D03*
X35771Y-235251D02*
D03*
Y-260651D02*
D03*
Y-286051D02*
D03*
X42121Y-298751D02*
D03*
X35771Y-311451D02*
D03*
X29421Y82249D02*
D03*
X23071Y69549D02*
D03*
X29421Y56849D02*
D03*
X23071Y-6651D02*
D03*
Y-286051D02*
D03*
X29421Y-298751D02*
D03*
X23071Y-311451D02*
D03*
X16721Y82249D02*
D03*
X10371Y69549D02*
D03*
X16721Y56849D02*
D03*
X10371Y-286051D02*
D03*
X16721Y-298751D02*
D03*
X10371Y-311451D02*
D03*
X4021Y82249D02*
D03*
X-2329Y69549D02*
D03*
X4021Y56849D02*
D03*
X-2329Y-286051D02*
D03*
X4021Y-298751D02*
D03*
X-2329Y-311451D02*
D03*
X-8679Y56849D02*
D03*
X-15029Y-286051D02*
D03*
X-8679Y-298751D02*
D03*
X-59479Y31449D02*
D03*
X-78529Y44149D02*
D03*
X-72179Y31449D02*
D03*
X-91229Y18749D02*
D03*
Y-286051D02*
D03*
X-97579Y82249D02*
D03*
X-103929Y69549D02*
D03*
X-97579Y56849D02*
D03*
Y31449D02*
D03*
X-103929Y18749D02*
D03*
Y-286051D02*
D03*
X-97579Y-298751D02*
D03*
X-103929Y-311451D02*
D03*
X-110279Y82249D02*
D03*
X-116629Y69549D02*
D03*
X-110279Y56849D02*
D03*
Y31449D02*
D03*
X-116629Y-286051D02*
D03*
X-110279Y-298751D02*
D03*
X-116629Y-311451D02*
D03*
X-122979Y82249D02*
D03*
X-129329Y69549D02*
D03*
X-122979Y56849D02*
D03*
X-129329Y-286051D02*
D03*
X-122979Y-298751D02*
D03*
X-129329Y-311451D02*
D03*
X-135679Y82249D02*
D03*
X-142029Y69549D02*
D03*
X-135679Y56849D02*
D03*
X-142029Y-286051D02*
D03*
X-135679Y-298751D02*
D03*
X-142029Y-311451D02*
D03*
X-148379Y82249D02*
D03*
X-154729Y69549D02*
D03*
X-148379Y56849D02*
D03*
X-154729Y18749D02*
D03*
X-148379Y-70151D02*
D03*
Y-247951D02*
D03*
X-154729Y-260651D02*
D03*
X-148379Y-273351D02*
D03*
X-154729Y-286051D02*
D03*
X-148379Y-298751D02*
D03*
X-154729Y-311451D02*
D03*
X-161079Y82249D02*
D03*
X-167429Y69549D02*
D03*
X-161079Y56849D02*
D03*
Y-273351D02*
D03*
Y-298751D02*
D03*
X-173779Y82249D02*
D03*
X-180129Y69549D02*
D03*
X-173779Y56849D02*
D03*
X-180129Y-260651D02*
D03*
X-186479Y82249D02*
D03*
X-192829Y69549D02*
D03*
X-186479Y56849D02*
D03*
Y-44751D02*
D03*
Y-171751D02*
D03*
X-199179Y82249D02*
D03*
X-205529Y69549D02*
D03*
X-199179Y56849D02*
D03*
X-211879Y82249D02*
D03*
X-218229Y69549D02*
D03*
X-211879Y56849D02*
D03*
X-224579Y82249D02*
D03*
X-230929Y69549D02*
D03*
X-224579Y56849D02*
D03*
Y6049D02*
D03*
X-230929Y-6651D02*
D03*
Y-32051D02*
D03*
Y-260651D02*
D03*
X-237279Y82249D02*
D03*
X-243629Y69549D02*
D03*
X-237279Y56849D02*
D03*
X-243629Y-82851D02*
D03*
X-237279Y-247951D02*
D03*
X-243629Y-260651D02*
D03*
X-249979Y82249D02*
D03*
X-256329Y69549D02*
D03*
X-249979Y56849D02*
D03*
Y6049D02*
D03*
Y-19351D02*
D03*
X-256329Y-82851D02*
D03*
Y-260651D02*
D03*
X-262679Y82249D02*
D03*
X-269029Y69549D02*
D03*
X-262679Y56849D02*
D03*
X-269029Y-260651D02*
D03*
X-275379Y82249D02*
D03*
X-281729Y69549D02*
D03*
X-275379Y56849D02*
D03*
X-281729Y-82851D02*
D03*
Y-260651D02*
D03*
X-288079Y82249D02*
D03*
X-294429Y69549D02*
D03*
X-288079Y56849D02*
D03*
X-294429Y44149D02*
D03*
Y-260651D02*
D03*
X-300779Y82249D02*
D03*
X-307129Y69549D02*
D03*
X-300779Y56849D02*
D03*
X-307129Y44149D02*
D03*
Y-159051D02*
D03*
Y-260651D02*
D03*
X-313479Y82249D02*
D03*
X-319829Y69549D02*
D03*
X-313479Y56849D02*
D03*
X-319829Y44149D02*
D03*
X-313479Y31449D02*
D03*
X-319829Y-32051D02*
D03*
Y-57451D02*
D03*
Y-82851D02*
D03*
Y-108251D02*
D03*
Y-133651D02*
D03*
X-326179Y82249D02*
D03*
X-332529Y69549D02*
D03*
X-326179Y56849D02*
D03*
X-332529Y44149D02*
D03*
X-326179Y31449D02*
D03*
X-332529Y18749D02*
D03*
X-326179Y-120951D02*
D03*
X-332529Y-133651D02*
D03*
Y-286051D02*
D03*
Y-311451D02*
D03*
X-338879Y82249D02*
D03*
X-345229Y69549D02*
D03*
X-338879Y56849D02*
D03*
X-345229Y44149D02*
D03*
X-338879Y31449D02*
D03*
X-345229Y18749D02*
D03*
X-338879Y-120951D02*
D03*
X-345229Y-286051D02*
D03*
X-338879Y-298751D02*
D03*
X-345229Y-311451D02*
D03*
X-351579Y82249D02*
D03*
Y56849D02*
D03*
X-357929Y44149D02*
D03*
X-351579Y31449D02*
D03*
X-357929Y18749D02*
D03*
Y-286051D02*
D03*
X-351579Y-298751D02*
D03*
X-370629Y44149D02*
D03*
X-364279Y31449D02*
D03*
X-370629Y18749D02*
D03*
Y-286051D02*
D03*
X-376979Y31449D02*
D03*
X-383329Y18749D02*
D03*
X-389679Y31449D02*
D03*
X-402379D02*
D03*
Y-120951D02*
D03*
X-415079Y31449D02*
D03*
X-434129Y44149D02*
D03*
X-427779Y31449D02*
D03*
X-434129Y18749D02*
D03*
Y-6651D02*
D03*
Y-32051D02*
D03*
Y-57451D02*
D03*
Y-82851D02*
D03*
Y-286051D02*
D03*
X-446829Y69549D02*
D03*
X-440479Y56849D02*
D03*
X-446829Y44149D02*
D03*
X-440479Y31449D02*
D03*
X-446829Y18749D02*
D03*
X-440479Y6049D02*
D03*
X-446829Y-6651D02*
D03*
X-440479Y-19351D02*
D03*
X-446829Y-32051D02*
D03*
X-440479Y-44751D02*
D03*
X-446829Y-57451D02*
D03*
X-440479Y-70151D02*
D03*
X-446829Y-82851D02*
D03*
X-440479Y-298751D02*
D03*
X-446829Y-311451D02*
D03*
X-453179Y82249D02*
D03*
X-459529Y69549D02*
D03*
X-453179Y56849D02*
D03*
X-459529Y44149D02*
D03*
X-453179Y31449D02*
D03*
X-459529Y18749D02*
D03*
X-453179Y6049D02*
D03*
X-459529Y-6651D02*
D03*
X-453179Y-19351D02*
D03*
X-459529Y-32051D02*
D03*
X-453179Y-44751D02*
D03*
X-459529Y-57451D02*
D03*
Y-311451D02*
D03*
X-465879Y82249D02*
D03*
X-472229Y69549D02*
D03*
X-465879Y56849D02*
D03*
X-472229Y44149D02*
D03*
X-465879Y31449D02*
D03*
X-472229Y18749D02*
D03*
X-465879Y6049D02*
D03*
X-472229Y-6651D02*
D03*
X-465879Y-19351D02*
D03*
X-472229Y-32051D02*
D03*
X-465879Y-44751D02*
D03*
X-472229Y-57451D02*
D03*
Y-184451D02*
D03*
Y-311451D02*
D03*
X-478579Y82249D02*
D03*
Y56849D02*
D03*
Y31449D02*
D03*
X-484929Y18749D02*
D03*
X-478579Y6049D02*
D03*
X-484929Y-6651D02*
D03*
X-478579Y-19351D02*
D03*
X-484929Y-32051D02*
D03*
X-478579Y-44751D02*
D03*
X-484929Y-57451D02*
D03*
Y-82851D02*
D03*
X-478579Y-146351D02*
D03*
X-484929Y-159051D02*
D03*
Y-184451D02*
D03*
X-497629Y18749D02*
D03*
X-491279Y6049D02*
D03*
X-497629Y-6651D02*
D03*
X-491279Y-19351D02*
D03*
X-497629Y-32051D02*
D03*
X-491279Y-44751D02*
D03*
X-497629Y-57451D02*
D03*
X-491279Y-70151D02*
D03*
X-497629Y-82851D02*
D03*
X-491279Y-171751D02*
D03*
X-510329Y18749D02*
D03*
X-503979Y6049D02*
D03*
X-510329Y-6651D02*
D03*
X-503979Y-19351D02*
D03*
X-510329Y-32051D02*
D03*
X-503979Y-44751D02*
D03*
X-510329Y-57451D02*
D03*
X-503979Y-70151D02*
D03*
Y-95551D02*
D03*
X-510329Y-260651D02*
D03*
X-523029Y18749D02*
D03*
X-516679Y6049D02*
D03*
X-523029Y-6651D02*
D03*
X-516679Y-19351D02*
D03*
X-523029Y-32051D02*
D03*
X-516679Y-44751D02*
D03*
X-523029Y-57451D02*
D03*
X-516679Y-95551D02*
D03*
X-523029Y-108251D02*
D03*
Y-133651D02*
D03*
Y-209851D02*
D03*
Y-235251D02*
D03*
X-516679Y-247951D02*
D03*
X-523029Y-260651D02*
D03*
X-529379Y6049D02*
D03*
Y-19351D02*
D03*
Y-44751D02*
D03*
Y-95551D02*
D03*
Y-120951D02*
D03*
Y-146351D02*
D03*
Y-197151D02*
D03*
Y-222551D02*
D03*
Y-247951D02*
D03*
X-3981Y-208658D02*
D03*
X1494Y-217233D02*
D03*
X-14358Y-198166D02*
D03*
X-46660Y-167918D02*
D03*
X-34295Y-229365D02*
D03*
X-48111Y-229238D02*
D03*
X-36165Y-95857D02*
D03*
X-45544Y-95740D02*
D03*
X-72126Y-101741D02*
D03*
X-72285Y-110479D02*
D03*
X-15522Y-129458D02*
D03*
X18926Y-143243D02*
D03*
X-146568Y-167313D02*
D03*
X-391555Y-221567D02*
D03*
X18110Y-95437D02*
D03*
X7021Y-63451D02*
D03*
X-84404Y-224357D02*
D03*
X-72964Y-240222D02*
D03*
X-73227Y-226602D02*
D03*
X25044Y-133255D02*
D03*
X-1573Y-59200D02*
D03*
X27643Y-88711D02*
D03*
X42075Y-39030D02*
D03*
X-11757Y-60785D02*
D03*
X-51333Y-60469D02*
D03*
X20682Y5505D02*
D03*
X-102831Y-21334D02*
D03*
X-474689Y-235899D02*
D03*
X-382046Y-194591D02*
D03*
X37809Y-85191D02*
D03*
X-455623Y-194632D02*
D03*
X-463209Y-187049D02*
D03*
X-462591Y-225481D02*
D03*
X-424079Y-223669D02*
D03*
X-462712Y-241219D02*
D03*
X-526390Y-180392D02*
D03*
X-11863Y-74944D02*
D03*
X-520344Y-254169D02*
D03*
X-492285Y-225742D02*
D03*
X-193834Y-129101D02*
D03*
X-409172Y-180296D02*
D03*
X-460974Y-286686D02*
D03*
X-466419Y-295414D02*
D03*
X-472985Y-286606D02*
D03*
X-14325Y-100840D02*
D03*
X-51108Y-215437D02*
D03*
X-157027Y-194988D02*
D03*
X-241006Y-213256D02*
D03*
X-287308Y-175654D02*
D03*
X-199476Y-174598D02*
D03*
X-190375Y-165207D02*
D03*
X-408382Y-118769D02*
D03*
X-408860Y-129133D02*
D03*
X-409168Y-141508D02*
D03*
X-410749Y-82497D02*
D03*
X-466409Y-144700D02*
D03*
X-413887Y-204582D02*
D03*
X-14538Y-118646D02*
D03*
X-7354Y-128970D02*
D03*
X17963Y11801D02*
D03*
X-26153Y5342D02*
D03*
X-58408Y22578D02*
D03*
X17306Y-222992D02*
D03*
X3196Y-237038D02*
D03*
X-51165Y-174910D02*
D03*
X-116492Y-66609D02*
D03*
X-7108Y-140331D02*
D03*
X-382341Y-239950D02*
D03*
X-399418Y-239639D02*
D03*
X-207564Y5710D02*
D03*
X15634Y-135068D02*
D03*
X-223000Y24864D02*
D03*
X26949Y34659D02*
D03*
X-321280Y21137D02*
D03*
X-16498Y-50574D02*
D03*
X-34488Y-127158D02*
D03*
X-50970Y-192106D02*
D03*
X-58227Y-33816D02*
D03*
Y-44992D02*
D03*
X-140244Y-48717D02*
D03*
X-58227Y-56168D02*
D03*
X14268Y18091D02*
D03*
X-217478Y13812D02*
D03*
X-127691Y-27456D02*
D03*
X-363260Y-99342D02*
D03*
X-117945Y30438D02*
D03*
X-10343Y-181538D02*
D03*
X-24954Y-111076D02*
D03*
X-28549Y-121655D02*
D03*
X29807Y-183413D02*
D03*
X15447Y-237019D02*
D03*
X36480Y-172241D02*
D03*
X38652Y-191785D02*
D03*
X37618Y-216314D02*
D03*
X-140244Y-115096D02*
D03*
X-135418Y-186724D02*
D03*
X-231684Y-81568D02*
D03*
X-109863Y-151179D02*
D03*
X-127290Y-114080D02*
D03*
X-203490Y-102904D02*
D03*
X-449361Y-177116D02*
D03*
X-182125Y-233000D02*
D03*
X-166544D02*
D03*
X-151135D02*
D03*
X-441979Y-113795D02*
D03*
X-477709Y-95930D02*
D03*
X-441979D02*
D03*
X-448693Y-155057D02*
D03*
X-459844Y-95930D02*
D03*
X-434668Y-155540D02*
D03*
X-434919Y-177393D02*
D03*
X-421574Y-177878D02*
D03*
X-367269Y-177384D02*
D03*
X-382677D02*
D03*
X-398259D02*
D03*
M02*
