G04*
G04 #@! TF.GenerationSoftware,Altium Limited,Altium Designer,24.0.1 (36)*
G04*
G04 Layer_Color=32896*
%FSLAX44Y44*%
%MOMM*%
G71*
G04*
G04 #@! TF.SameCoordinates,E4FC931E-1C7A-40CD-B5D5-C7D3481EEB9B*
G04*
G04*
G04 #@! TF.FilePolarity,Positive*
G04*
G01*
G75*
%ADD11C,0.2540*%
%ADD13C,0.1524*%
G36*
X-407386Y-35231D02*
X-407287Y-35726D01*
X-407386Y-36222D01*
X-407667Y-36642D01*
X-408087Y-36923D01*
X-408575Y-37020D01*
X-408488Y-36363D01*
X-408058Y-35325D01*
X-407665Y-34813D01*
X-407386Y-35231D01*
D02*
G37*
G36*
X-408087Y-44530D02*
X-407667Y-44811D01*
X-407386Y-45231D01*
X-407287Y-45726D01*
X-407386Y-46222D01*
X-407665Y-46640D01*
X-408058Y-46128D01*
X-408488Y-45090D01*
X-408575Y-44433D01*
X-408087Y-44530D01*
D02*
G37*
G36*
X-365161Y-34267D02*
Y-47242D01*
X-378193D01*
Y-47185D01*
X-365218D01*
Y-34267D01*
X-378193D01*
Y-34210D01*
X-365161D01*
Y-34267D01*
D02*
G37*
G36*
X-381161D02*
X-394136D01*
Y-47185D01*
X-381161D01*
Y-47242D01*
X-394193D01*
Y-34267D01*
Y-34210D01*
X-381161D01*
Y-34267D01*
D02*
G37*
G36*
X-407386Y-51876D02*
X-407287Y-52372D01*
X-407386Y-52867D01*
X-407667Y-53288D01*
X-408087Y-53568D01*
X-408575Y-53665D01*
X-408488Y-53008D01*
X-408058Y-51971D01*
X-407665Y-51458D01*
X-407386Y-51876D01*
D02*
G37*
G36*
X-408087Y-61175D02*
X-407667Y-61456D01*
X-407386Y-61876D01*
X-407287Y-62372D01*
X-407386Y-62867D01*
X-407665Y-63286D01*
X-408058Y-62773D01*
X-408488Y-61736D01*
X-408575Y-61078D01*
X-408087Y-61175D01*
D02*
G37*
G36*
X-365161Y-50913D02*
Y-63888D01*
X-378193D01*
Y-63831D01*
X-365218D01*
Y-50913D01*
X-378193D01*
Y-50856D01*
X-365161D01*
Y-50913D01*
D02*
G37*
G36*
X-381161D02*
X-394136D01*
Y-63831D01*
X-381161D01*
Y-63888D01*
X-394193D01*
Y-63831D01*
Y-50913D01*
Y-50856D01*
X-381161D01*
Y-50913D01*
D02*
G37*
G36*
X-407386Y-68522D02*
X-407287Y-69017D01*
X-407386Y-69513D01*
X-407667Y-69933D01*
X-408087Y-70214D01*
X-408575Y-70311D01*
X-408488Y-69654D01*
X-408058Y-68616D01*
X-407665Y-68104D01*
X-407386Y-68522D01*
D02*
G37*
G36*
X-408087Y-77821D02*
X-407667Y-78102D01*
X-407386Y-78522D01*
X-407287Y-79017D01*
X-407386Y-79513D01*
X-407665Y-79931D01*
X-408058Y-79419D01*
X-408488Y-78381D01*
X-408575Y-77724D01*
X-408087Y-77821D01*
D02*
G37*
G36*
X-365161Y-67559D02*
Y-80533D01*
X-378193D01*
Y-80476D01*
X-365218D01*
Y-67559D01*
X-378193D01*
Y-67501D01*
X-365161D01*
Y-67559D01*
D02*
G37*
G36*
X-381161D02*
X-394136D01*
Y-80476D01*
X-381161D01*
Y-80533D01*
X-394193D01*
Y-80476D01*
Y-67559D01*
Y-67501D01*
X-381161D01*
Y-67559D01*
D02*
G37*
G36*
X-30364Y-85129D02*
X-30480Y-85176D01*
X-30274Y-85039D01*
X-30069Y-84902D01*
X-30069Y-84902D01*
X-30069Y-84902D01*
X-30364Y-85129D01*
D02*
G37*
G36*
X-68166Y-85176D02*
X-68281Y-85129D01*
X-68576Y-84902D01*
X-68166Y-85176D01*
D02*
G37*
G36*
X-46958Y-84902D02*
X-46663Y-85129D01*
X-46547Y-85177D01*
X-46233Y-85387D01*
X-46140Y-85405D01*
X-48148D01*
Y-86754D01*
X-51116D01*
Y-85405D01*
X-51690D01*
X-51684Y-85376D01*
X-51161Y-84594D01*
X-51158Y-84589D01*
X-47427D01*
X-46958Y-84902D01*
D02*
G37*
G36*
X-407386Y-85167D02*
X-407287Y-85663D01*
X-407386Y-86158D01*
X-407667Y-86579D01*
X-408087Y-86859D01*
X-408575Y-86956D01*
X-408488Y-86299D01*
X-408058Y-85261D01*
X-407665Y-84749D01*
X-407386Y-85167D01*
D02*
G37*
G36*
X-408087Y-94467D02*
X-407667Y-94747D01*
X-407386Y-95167D01*
X-407287Y-95663D01*
X-407386Y-96158D01*
X-407665Y-96577D01*
X-408058Y-96064D01*
X-408488Y-95027D01*
X-408575Y-94369D01*
X-408087Y-94467D01*
D02*
G37*
G36*
X-381161Y-84204D02*
X-394136D01*
Y-97122D01*
X-381161D01*
Y-97179D01*
X-394193D01*
Y-97122D01*
Y-84204D01*
Y-84147D01*
X-381161D01*
Y-84204D01*
D02*
G37*
G36*
X-365161D02*
Y-97020D01*
X-364772Y-96721D01*
X-364136Y-96458D01*
Y-97663D01*
X-364295Y-98046D01*
X-364677Y-98204D01*
X-366035D01*
X-365880Y-97829D01*
X-365399Y-97202D01*
X-365368Y-97179D01*
X-378193D01*
Y-97122D01*
X-365218D01*
Y-84204D01*
X-378193D01*
Y-84147D01*
X-365161D01*
Y-84204D01*
D02*
G37*
G36*
X-364295Y-99926D02*
X-364136Y-100308D01*
Y-102226D01*
X-364772Y-101962D01*
X-365161Y-101664D01*
Y-113824D01*
X-378193D01*
Y-113767D01*
X-365218D01*
Y-100850D01*
X-378193D01*
Y-100792D01*
X-365906D01*
X-366182Y-100125D01*
X-366230Y-99767D01*
X-364677D01*
X-364295Y-99926D01*
D02*
G37*
G36*
X-407386Y-101813D02*
X-407287Y-102308D01*
X-407386Y-102804D01*
X-407667Y-103224D01*
X-408087Y-103505D01*
X-408575Y-103602D01*
X-408488Y-102945D01*
X-408058Y-101907D01*
X-407665Y-101395D01*
X-407386Y-101813D01*
D02*
G37*
G36*
X-408087Y-111112D02*
X-407667Y-111393D01*
X-407386Y-111813D01*
X-407287Y-112308D01*
X-407386Y-112804D01*
X-407665Y-113222D01*
X-408058Y-112710D01*
X-408488Y-111672D01*
X-408575Y-111015D01*
X-408087Y-111112D01*
D02*
G37*
G36*
X-381161Y-100850D02*
X-394136D01*
Y-113767D01*
X-381161D01*
Y-113824D01*
X-394193D01*
Y-113767D01*
Y-100850D01*
Y-100792D01*
X-381161D01*
Y-100850D01*
D02*
G37*
G36*
X-29198Y-116499D02*
X-29197Y-117122D01*
X-29346Y-117707D01*
X-29826D01*
X-30073Y-117937D01*
X-29116D01*
Y-116516D01*
X-29054Y-116491D01*
X-28963Y-116453D01*
X-28577Y-116376D01*
X-28557Y-116374D01*
X-28550Y-116373D01*
Y-117671D01*
X-28867Y-118437D01*
X-29632Y-118754D01*
X-31030D01*
X-30972Y-118463D01*
X-30907Y-118305D01*
X-30468D01*
X-30073Y-117937D01*
X-29826Y-117707D01*
X-29994Y-117863D01*
X-29836Y-117717D01*
X-29198Y-117122D01*
X-29198Y-111460D01*
X-29198Y-116499D01*
D02*
G37*
G36*
X-426705Y-171774D02*
X-426706Y-171774D01*
X-426706Y-122126D01*
X-426705Y-122126D01*
Y-171774D01*
D02*
G37*
G36*
X-324463Y-192864D02*
Y-197364D01*
X-324592Y-198343D01*
X-324624Y-198419D01*
X-325208Y-197657D01*
X-325636Y-196623D01*
X-325782Y-195514D01*
X-325636Y-194405D01*
X-325208Y-193371D01*
X-324527Y-192483D01*
X-324515Y-192474D01*
X-324463Y-192864D01*
D02*
G37*
G36*
X-388571Y-204844D02*
X-388473Y-205340D01*
X-388571Y-205836D01*
X-388852Y-206256D01*
X-389272Y-206536D01*
X-389760Y-206633D01*
X-389674Y-205976D01*
X-389244Y-204939D01*
X-388851Y-204426D01*
X-388571Y-204844D01*
D02*
G37*
G36*
X-396291Y-204939D02*
X-395861Y-205976D01*
X-395775Y-206633D01*
X-396263Y-206536D01*
X-396683Y-206256D01*
X-396964Y-205836D01*
X-397062Y-205340D01*
X-396964Y-204844D01*
X-396684Y-204426D01*
X-396291Y-204939D01*
D02*
G37*
G36*
X-439865Y-204844D02*
X-439767Y-205340D01*
X-439865Y-205836D01*
X-440146Y-206256D01*
X-440566Y-206536D01*
X-441054Y-206633D01*
X-440968Y-205976D01*
X-440538Y-204939D01*
X-440145Y-204426D01*
X-439865Y-204844D01*
D02*
G37*
G36*
X-447585Y-204939D02*
X-447155Y-205976D01*
X-447069Y-206633D01*
X-447557Y-206536D01*
X-447977Y-206256D01*
X-448258Y-205836D01*
X-448357Y-205340D01*
X-448258Y-204844D01*
X-447978Y-204426D01*
X-447585Y-204939D01*
D02*
G37*
G36*
X-389272Y-214144D02*
X-388852Y-214424D01*
X-388571Y-214844D01*
X-388473Y-215340D01*
X-388571Y-215836D01*
X-388851Y-216254D01*
X-389244Y-215741D01*
X-389674Y-214704D01*
X-389760Y-214047D01*
X-389272Y-214144D01*
D02*
G37*
G36*
X-395861Y-214704D02*
X-396291Y-215741D01*
X-396684Y-216254D01*
X-396964Y-215836D01*
X-397062Y-215340D01*
X-396964Y-214844D01*
X-396683Y-214424D01*
X-396263Y-214144D01*
X-395775Y-214047D01*
X-395861Y-214704D01*
D02*
G37*
G36*
X-440566Y-214144D02*
X-440146Y-214424D01*
X-439865Y-214844D01*
X-439767Y-215340D01*
X-439865Y-215836D01*
X-440145Y-216254D01*
X-440538Y-215741D01*
X-440968Y-214704D01*
X-441054Y-214047D01*
X-440566Y-214144D01*
D02*
G37*
G36*
X-447155Y-214704D02*
X-447585Y-215741D01*
X-447978Y-216254D01*
X-448258Y-215836D01*
X-448357Y-215340D01*
X-448258Y-214844D01*
X-447977Y-214424D01*
X-447557Y-214144D01*
X-447069Y-214047D01*
X-447155Y-214704D01*
D02*
G37*
G36*
X-59538Y-216415D02*
X-59653Y-216367D01*
X-59666Y-216357D01*
Y-216329D01*
X-59538Y-216415D01*
D02*
G37*
G36*
X-69538D02*
X-69653Y-216367D01*
X-69948Y-216140D01*
X-69538Y-216415D01*
D02*
G37*
G36*
X-407033Y-224101D02*
X-406839Y-225076D01*
X-407033Y-226052D01*
X-407534Y-226801D01*
Y-223351D01*
X-407033Y-224101D01*
D02*
G37*
G36*
X-458577Y-224119D02*
X-458383Y-225094D01*
X-458577Y-226070D01*
X-459078Y-226819D01*
Y-223369D01*
X-458577Y-224119D01*
D02*
G37*
G36*
X-461078Y-222861D02*
X-460452Y-223342D01*
X-459971Y-223968D01*
X-459804Y-224372D01*
Y-226591D01*
X-459971Y-226994D01*
X-460385Y-227534D01*
X-460932Y-227643D01*
X-461907Y-227449D01*
X-462734Y-226896D01*
X-463287Y-226070D01*
X-463480Y-225094D01*
X-463287Y-224119D01*
X-462734Y-223292D01*
X-461907Y-222739D01*
X-461546Y-222667D01*
X-461078Y-222861D01*
D02*
G37*
G36*
X-459804Y-239880D02*
X-459963Y-239673D01*
Y-237334D01*
X-459804Y-236951D01*
X-459804Y-236951D01*
Y-239880D01*
D02*
G37*
G36*
Y-240401D02*
Y-242036D01*
X-459963Y-242420D01*
Y-240017D01*
X-459804Y-240401D01*
D02*
G37*
G36*
X-164220Y28325D02*
X-164333Y28311D01*
X-164446D01*
X-164587Y28283D01*
X-164883Y28240D01*
X-165221Y28156D01*
X-165602Y28057D01*
X-165996Y27916D01*
X-166010D01*
X-166024Y27902D01*
X-166095Y27874D01*
X-166208Y27846D01*
X-166335Y27803D01*
X-166462Y27747D01*
X-166588Y27719D01*
X-166701Y27690D01*
X-166786Y27676D01*
X-166828D01*
X-166913Y27690D01*
X-167025Y27747D01*
X-167096Y27775D01*
X-167152Y27831D01*
X-167166Y27846D01*
X-167181Y27860D01*
X-167209Y27902D01*
X-167237Y27958D01*
X-167279Y28029D01*
X-167307Y28113D01*
X-167336Y28212D01*
X-167364Y28339D01*
X-164135D01*
X-164220Y28325D01*
D02*
G37*
G36*
X-159004Y23532D02*
X-159018Y23631D01*
Y23743D01*
X-159046Y23884D01*
X-159061Y24025D01*
X-159089Y24194D01*
X-159173Y24575D01*
X-159286Y24998D01*
X-159455Y25435D01*
X-159568Y25646D01*
X-159681Y25872D01*
X-159695Y25886D01*
X-159709Y25928D01*
X-159751Y25985D01*
X-159808Y26069D01*
X-159878Y26168D01*
X-159963Y26281D01*
X-160047Y26408D01*
X-160160Y26535D01*
X-160428Y26831D01*
X-160738Y27127D01*
X-161105Y27423D01*
X-161514Y27690D01*
X-161528Y27705D01*
X-161570Y27719D01*
X-161626Y27747D01*
X-161711Y27789D01*
X-161824Y27846D01*
X-161950Y27902D01*
X-162092Y27958D01*
X-162261Y28015D01*
X-162430Y28071D01*
X-162627Y28128D01*
X-163036Y28240D01*
X-163487Y28311D01*
X-163727Y28339D01*
X-159004D01*
Y23532D01*
D02*
G37*
G36*
X-257218Y27831D02*
X-257162D01*
X-257007Y27775D01*
X-256936Y27733D01*
X-256866Y27676D01*
X-256852Y27662D01*
X-256823Y27634D01*
X-256781Y27564D01*
X-256725Y27479D01*
X-256668Y27366D01*
X-256612Y27225D01*
X-256570Y27056D01*
X-256527Y26845D01*
Y26831D01*
Y26816D01*
X-256513Y26774D01*
Y26704D01*
Y26605D01*
X-256499Y26478D01*
Y26309D01*
X-256485Y26112D01*
X-256471Y25858D01*
Y25576D01*
X-256457Y25238D01*
Y24857D01*
Y24631D01*
Y24406D01*
X-256443Y24166D01*
Y23912D01*
Y23631D01*
Y23349D01*
Y23038D01*
Y22714D01*
Y22686D01*
Y22630D01*
Y22531D01*
Y22404D01*
Y22249D01*
X-256457Y22066D01*
Y21868D01*
Y21671D01*
X-256471Y21234D01*
X-256499Y20811D01*
X-256513Y20600D01*
X-256527Y20416D01*
X-256541Y20261D01*
X-256570Y20120D01*
Y20106D01*
X-256584Y20050D01*
X-256612Y19965D01*
X-256640Y19867D01*
X-256725Y19655D01*
X-256781Y19556D01*
X-256852Y19486D01*
X-256866D01*
X-256894Y19458D01*
X-256936Y19444D01*
X-256992Y19416D01*
X-257063Y19387D01*
X-257148Y19359D01*
X-257246Y19345D01*
X-257359Y19331D01*
X-257415D01*
X-257472Y19345D01*
X-257556Y19359D01*
X-257627Y19387D01*
X-257711Y19416D01*
X-257796Y19472D01*
X-257866Y19542D01*
X-257881Y19556D01*
X-257909Y19613D01*
X-257965Y19698D01*
X-258008Y19824D01*
X-258064Y19979D01*
X-258120Y20191D01*
X-258162Y20416D01*
X-258191Y20698D01*
X-258219Y23588D01*
Y23616D01*
Y23687D01*
Y23814D01*
Y23969D01*
Y24152D01*
Y24364D01*
Y24589D01*
Y24829D01*
Y25308D01*
X-258205Y25548D01*
Y25759D01*
Y25957D01*
Y26140D01*
X-258191Y26267D01*
Y26365D01*
Y26379D01*
Y26408D01*
X-258177Y26450D01*
Y26520D01*
X-258162Y26676D01*
X-258120Y26873D01*
X-258078Y27084D01*
X-258022Y27282D01*
X-257951Y27479D01*
X-257909Y27550D01*
X-257866Y27620D01*
X-257852Y27634D01*
X-257838Y27662D01*
X-257796Y27690D01*
X-257740Y27733D01*
X-257655Y27775D01*
X-257570Y27817D01*
X-257444Y27831D01*
X-257317Y27846D01*
X-257274D01*
X-257218Y27831D01*
D02*
G37*
G36*
X-167632Y25181D02*
X-167364D01*
Y25195D01*
X-167350Y25238D01*
X-167336Y25294D01*
X-167307Y25393D01*
X-167265Y25491D01*
X-167223Y25604D01*
X-167110Y25886D01*
X-166969Y26196D01*
X-166772Y26506D01*
X-166546Y26816D01*
X-166264Y27084D01*
X-166250Y27098D01*
X-166222Y27113D01*
X-166180Y27141D01*
X-166123Y27183D01*
X-166053Y27239D01*
X-165954Y27296D01*
X-165743Y27423D01*
X-165461Y27535D01*
X-165165Y27648D01*
X-164812Y27719D01*
X-164629Y27747D01*
X-164361D01*
X-164305Y27733D01*
X-164220D01*
X-164135Y27719D01*
X-163924Y27690D01*
X-163684Y27620D01*
X-163417Y27535D01*
X-163149Y27423D01*
X-162881Y27253D01*
X-162867D01*
X-162853Y27225D01*
X-162768Y27169D01*
X-162641Y27056D01*
X-162486Y26901D01*
X-162317Y26718D01*
X-162148Y26492D01*
X-161979Y26239D01*
X-161838Y25957D01*
Y25942D01*
X-161824Y25914D01*
X-161795Y25858D01*
X-161781Y25773D01*
X-161739Y25689D01*
X-161711Y25576D01*
X-161669Y25435D01*
X-161640Y25294D01*
X-161598Y25139D01*
X-161556Y24956D01*
X-161499Y24575D01*
X-161443Y24152D01*
X-161429Y23701D01*
Y23687D01*
Y23645D01*
Y23588D01*
Y23490D01*
X-161443Y23391D01*
Y23264D01*
X-161457Y23123D01*
X-161471Y22968D01*
X-161499Y22616D01*
X-161556Y22249D01*
X-161626Y21854D01*
X-161725Y21474D01*
Y21460D01*
X-161739Y21431D01*
X-161753Y21375D01*
X-161781Y21305D01*
X-161824Y21220D01*
X-161852Y21135D01*
X-161965Y20910D01*
X-162092Y20656D01*
X-162261Y20416D01*
X-162458Y20163D01*
X-162684Y19951D01*
X-162698D01*
X-162712Y19923D01*
X-162754Y19909D01*
X-162810Y19867D01*
X-162951Y19796D01*
X-163149Y19698D01*
X-163388Y19599D01*
X-163684Y19528D01*
X-164023Y19472D01*
X-164389Y19444D01*
X-164530D01*
X-164615Y19458D01*
X-164699D01*
X-164911Y19486D01*
X-165151Y19528D01*
X-165418Y19599D01*
X-165686Y19683D01*
X-165954Y19810D01*
X-165968D01*
X-165982Y19824D01*
X-166024Y19853D01*
X-166081Y19881D01*
X-166222Y19979D01*
X-166419Y20120D01*
X-166645Y20290D01*
X-166898Y20515D01*
X-167181Y20783D01*
X-167477Y21107D01*
Y20332D01*
X-167462Y20318D01*
X-167448Y20304D01*
X-167406Y20261D01*
X-167350Y20205D01*
X-167195Y20064D01*
X-166983Y19881D01*
X-166744Y19698D01*
X-166476Y19500D01*
X-166180Y19317D01*
X-165870Y19162D01*
X-165855D01*
X-165827Y19148D01*
X-165785Y19134D01*
X-165728Y19105D01*
X-165644Y19077D01*
X-165559Y19049D01*
X-165447Y19021D01*
X-165320Y18993D01*
X-165038Y18922D01*
X-164713Y18866D01*
X-164347Y18823D01*
X-163938Y18809D01*
X-163797D01*
X-163699Y18823D01*
X-163572D01*
X-163417Y18838D01*
X-163247Y18852D01*
X-163078Y18880D01*
X-162669Y18950D01*
X-162232Y19049D01*
X-161795Y19190D01*
X-161358Y19387D01*
X-161344Y19402D01*
X-161316Y19416D01*
X-161246Y19444D01*
X-161175Y19500D01*
X-161077Y19556D01*
X-160964Y19627D01*
X-160724Y19810D01*
X-160442Y20050D01*
X-160146Y20346D01*
X-159864Y20684D01*
X-159610Y21065D01*
Y21079D01*
X-159582Y21121D01*
X-159554Y21178D01*
X-159512Y21262D01*
X-159469Y21361D01*
X-159413Y21474D01*
X-159371Y21615D01*
X-159314Y21770D01*
X-159258Y21939D01*
X-159202Y22122D01*
X-159103Y22517D01*
X-159032Y22954D01*
X-159018Y23180D01*
X-159004Y23405D01*
Y18809D01*
Y16061D01*
X-204904D01*
Y16920D01*
X-212037D01*
Y16061D01*
X-260291D01*
Y18838D01*
Y23349D01*
X-260277Y23222D01*
Y23081D01*
X-260263Y22926D01*
X-260249Y22742D01*
X-260193Y22348D01*
X-260122Y21925D01*
X-260023Y21474D01*
X-259897Y21023D01*
Y21009D01*
X-259882Y20994D01*
X-259854Y20910D01*
X-259798Y20769D01*
X-259741Y20600D01*
X-259643Y20416D01*
X-259544Y20219D01*
X-259417Y20022D01*
X-259276Y19839D01*
X-259262Y19824D01*
X-259206Y19768D01*
X-259135Y19683D01*
X-259022Y19571D01*
X-258896Y19458D01*
X-258741Y19331D01*
X-258585Y19218D01*
X-258402Y19105D01*
X-258374Y19091D01*
X-258318Y19063D01*
X-258219Y19021D01*
X-258092Y18979D01*
X-257937Y18922D01*
X-257754Y18880D01*
X-257556Y18852D01*
X-257345Y18838D01*
X-257232D01*
X-257105Y18852D01*
X-256950Y18880D01*
X-256767Y18922D01*
X-256556Y18979D01*
X-256358Y19049D01*
X-256147Y19162D01*
X-256119Y19176D01*
X-256062Y19218D01*
X-255963Y19303D01*
X-255837Y19416D01*
X-255696Y19542D01*
X-255541Y19712D01*
X-255371Y19895D01*
X-255216Y20120D01*
X-255202Y20149D01*
X-255174Y20205D01*
X-255118Y20304D01*
X-255047Y20445D01*
X-254963Y20628D01*
X-254878Y20839D01*
X-254779Y21079D01*
X-254695Y21347D01*
Y21361D01*
X-254681Y21389D01*
X-254667Y21446D01*
X-254652Y21530D01*
X-254624Y21615D01*
X-254610Y21727D01*
X-254582Y21854D01*
X-254554Y21995D01*
X-254497Y22305D01*
X-254455Y22672D01*
X-254427Y23053D01*
X-254413Y23461D01*
Y23715D01*
X-254427Y23842D01*
X-254441Y23997D01*
Y24166D01*
X-254469Y24364D01*
X-254483Y24561D01*
X-254511Y24772D01*
X-254582Y25238D01*
X-254681Y25703D01*
X-254821Y26182D01*
Y26196D01*
X-254836Y26224D01*
X-254864Y26281D01*
X-254892Y26351D01*
X-254920Y26436D01*
X-254963Y26535D01*
X-255075Y26760D01*
X-255216Y27014D01*
X-255399Y27282D01*
X-255611Y27535D01*
X-255851Y27761D01*
X-255865D01*
X-255879Y27789D01*
X-255921Y27817D01*
X-255977Y27846D01*
X-256119Y27930D01*
X-256302Y28043D01*
X-256527Y28142D01*
X-256781Y28226D01*
X-257049Y28283D01*
X-257345Y28311D01*
X-257430D01*
X-257486Y28297D01*
X-257627Y28283D01*
X-257824Y28240D01*
X-258050Y28184D01*
X-258304Y28085D01*
X-258557Y27944D01*
X-258825Y27761D01*
X-258839D01*
X-258853Y27733D01*
X-258938Y27662D01*
X-259065Y27550D01*
X-259206Y27380D01*
X-259375Y27169D01*
X-259544Y26929D01*
X-259699Y26633D01*
X-259840Y26309D01*
Y26295D01*
X-259854Y26253D01*
X-259882Y26182D01*
X-259911Y26083D01*
X-259939Y25971D01*
X-259981Y25830D01*
X-260023Y25675D01*
X-260066Y25491D01*
X-260108Y25308D01*
X-260150Y25097D01*
X-260193Y24871D01*
X-260221Y24631D01*
X-260277Y24124D01*
X-260291Y23574D01*
Y28311D01*
Y28339D01*
X-167632D01*
Y25181D01*
D02*
G37*
G36*
X-159345Y36431D02*
Y38451D01*
X-159369Y38545D01*
X-159392Y38757D01*
X-159463Y39062D01*
X-159604Y39391D01*
X-159768Y39744D01*
X-160027Y40120D01*
X-160168Y40284D01*
X-160356Y40472D01*
X-160379Y40496D01*
X-160403Y40519D01*
X-160473Y40566D01*
X-160567Y40660D01*
X-160708Y40754D01*
X-160873Y40872D01*
X-161061Y40989D01*
X-161319Y41153D01*
X-161577Y41318D01*
X-161906Y41529D01*
X-162282Y41741D01*
X-162705Y41952D01*
X-163152Y42211D01*
X-163668Y42469D01*
X-164232Y42751D01*
X-164867Y43033D01*
Y44090D01*
Y44114D01*
Y44137D01*
Y44278D01*
Y44490D01*
X-164843Y44725D01*
Y44960D01*
X-164820Y45218D01*
X-164773Y45430D01*
X-164726Y45571D01*
Y45594D01*
X-164702Y45617D01*
X-164632Y45758D01*
X-164467Y45923D01*
X-164373Y46017D01*
X-164232Y46111D01*
X-164209D01*
X-164162Y46158D01*
X-164091Y46181D01*
X-163997Y46228D01*
X-163739Y46299D01*
X-163433Y46346D01*
X-163316D01*
X-163175Y46322D01*
X-163011Y46299D01*
X-162611Y46205D01*
X-162423Y46134D01*
X-162235Y46017D01*
X-162212D01*
X-162188Y45970D01*
X-162094Y45876D01*
X-161977Y45735D01*
X-161953Y45641D01*
X-161930Y45547D01*
Y45500D01*
X-161977Y45382D01*
X-162071Y45195D01*
X-162141Y45077D01*
X-162259Y44960D01*
X-162282Y44936D01*
X-162329Y44889D01*
X-162400Y44795D01*
X-162470Y44678D01*
X-162611Y44372D01*
X-162658Y44208D01*
X-162682Y44043D01*
Y44020D01*
Y43949D01*
X-162658Y43855D01*
X-162635Y43714D01*
X-162588Y43573D01*
X-162494Y43409D01*
X-162400Y43245D01*
X-162259Y43103D01*
X-162235Y43080D01*
X-162188Y43057D01*
X-162094Y42986D01*
X-161977Y42916D01*
X-161836Y42845D01*
X-161648Y42798D01*
X-161437Y42751D01*
X-161201Y42728D01*
X-161084D01*
X-160943Y42751D01*
X-160802Y42775D01*
X-160614Y42822D01*
X-160403Y42916D01*
X-160215Y43010D01*
X-160027Y43151D01*
X-160003Y43174D01*
X-159956Y43221D01*
X-159886Y43315D01*
X-159792Y43432D01*
X-159698Y43573D01*
X-159627Y43738D01*
X-159580Y43926D01*
X-159557Y44137D01*
Y44184D01*
Y44278D01*
X-159580Y44419D01*
X-159627Y44631D01*
X-159721Y44866D01*
X-159815Y45124D01*
X-159980Y45382D01*
X-160191Y45665D01*
X-160215Y45688D01*
X-160309Y45782D01*
X-160450Y45923D01*
X-160661Y46087D01*
X-160896Y46252D01*
X-161201Y46440D01*
X-161554Y46628D01*
X-161953Y46792D01*
X-161977D01*
X-162000Y46816D01*
X-162071Y46839D01*
X-162165Y46863D01*
X-162376Y46910D01*
X-162682Y47004D01*
X-163034Y47074D01*
X-163457Y47121D01*
X-163880Y47168D01*
X-164350Y47192D01*
X-169401D01*
X-164585D01*
X-164867Y47168D01*
X-165196Y47121D01*
X-165572Y47027D01*
X-165971Y46933D01*
X-166347Y46769D01*
X-166699Y46557D01*
X-166746Y46534D01*
X-166840Y46440D01*
X-166981Y46322D01*
X-167169Y46158D01*
X-167357Y45946D01*
X-167545Y45711D01*
X-167710Y45453D01*
X-167827Y45171D01*
Y45148D01*
X-167851Y45077D01*
X-167874Y44936D01*
X-167921Y44725D01*
X-167945Y44443D01*
Y44278D01*
X-167968Y44067D01*
Y43855D01*
X-167992Y43597D01*
Y43338D01*
Y43033D01*
Y38968D01*
Y38945D01*
Y38851D01*
Y38733D01*
Y38593D01*
X-168015Y38287D01*
Y38170D01*
X-168039Y38076D01*
Y38052D01*
X-168085Y37982D01*
X-168132Y37888D01*
X-168203Y37794D01*
X-168227D01*
X-168274Y37770D01*
X-168368Y37747D01*
X-168461Y37723D01*
X-168508D01*
X-168649Y37770D01*
X-168720Y37817D01*
X-168837Y37888D01*
X-168931Y37982D01*
X-169049Y38123D01*
X-169401Y37864D01*
X-169378Y37817D01*
X-169307Y37723D01*
X-169190Y37582D01*
X-169049Y37394D01*
X-168861Y37206D01*
X-168673Y36995D01*
X-168461Y36807D01*
X-168227Y36642D01*
X-168203Y36619D01*
X-168132Y36595D01*
X-167992Y36525D01*
X-167827Y36478D01*
X-167639Y36407D01*
X-167404Y36337D01*
X-167146Y36313D01*
X-166864Y36290D01*
X-164068D01*
X-166723D01*
X-166558Y36313D01*
X-166347Y36337D01*
X-166136Y36384D01*
X-165900Y36454D01*
X-165666Y36548D01*
X-165454Y36689D01*
X-165431Y36713D01*
X-165384Y36760D01*
X-165290Y36877D01*
X-165196Y37018D01*
X-165102Y37183D01*
X-165008Y37418D01*
X-164914Y37676D01*
X-164867Y37982D01*
X-164843Y37958D01*
X-164773Y37911D01*
X-164679Y37817D01*
X-164538Y37723D01*
X-164373Y37582D01*
X-164185Y37441D01*
X-163950Y37300D01*
X-163715Y37136D01*
X-163175Y36830D01*
X-162588Y36548D01*
X-162306Y36454D01*
X-162000Y36360D01*
X-161695Y36313D01*
X-161413Y36290D01*
X-161272D01*
X-161108Y36313D01*
X-160896Y36360D01*
X-160661Y36431D01*
X-160403Y36525D01*
X-160168Y36666D01*
X-159933Y36854D01*
X-159909Y36877D01*
X-159839Y36971D01*
X-159745Y37089D01*
X-159651Y37253D01*
X-159533Y37465D01*
X-159439Y37723D01*
X-159369Y38005D01*
X-159345Y38334D01*
Y36290D01*
D01*
Y31521D01*
X-202036D01*
Y32108D01*
Y31920D01*
X-202153D01*
X-202271Y31943D01*
X-202412Y31990D01*
X-202600Y32037D01*
X-202764Y32108D01*
X-202929Y32202D01*
X-203070Y32319D01*
Y32343D01*
X-203117Y32366D01*
X-203140Y32460D01*
X-203187Y32578D01*
X-203234Y32766D01*
X-203258Y33001D01*
X-203305Y33283D01*
Y33658D01*
Y44701D01*
Y44725D01*
Y44748D01*
Y44889D01*
X-203281Y45077D01*
Y45289D01*
X-203234Y45524D01*
X-203187Y45758D01*
X-203117Y45970D01*
X-203023Y46111D01*
X-202999Y46134D01*
X-202976Y46158D01*
X-202905Y46228D01*
X-202811Y46275D01*
X-202670Y46346D01*
X-202506Y46416D01*
X-202294Y46463D01*
X-202036Y46487D01*
Y36525D01*
Y47192D01*
Y46886D01*
X-206429D01*
Y45500D01*
X-206453Y45547D01*
X-206523Y45641D01*
X-206641Y45782D01*
X-206782Y45946D01*
X-206946Y46134D01*
X-207134Y46322D01*
X-207322Y46510D01*
X-207534Y46651D01*
X-207581Y46675D01*
X-207675Y46745D01*
X-207839Y46816D01*
X-208074Y46933D01*
X-208333Y47027D01*
X-208638Y47098D01*
X-208967Y47168D01*
X-209319Y47192D01*
X-209507D01*
X-209742Y47145D01*
X-210024Y47098D01*
X-210330Y47004D01*
X-210682Y46886D01*
X-211058Y46698D01*
X-211410Y46463D01*
X-211457Y46440D01*
X-211575Y46322D01*
X-211739Y46158D01*
X-211951Y45946D01*
X-212186Y45641D01*
X-212421Y45312D01*
X-212656Y44913D01*
X-212867Y44443D01*
Y44419D01*
X-212890Y44396D01*
X-212914Y44325D01*
X-212938Y44231D01*
X-212985Y44114D01*
X-213032Y43973D01*
X-213125Y43620D01*
X-213196Y43221D01*
X-213290Y42751D01*
X-213337Y42234D01*
X-213360Y41694D01*
Y31521D01*
X-235117D01*
Y31943D01*
Y31920D01*
X-235234D01*
X-235352Y31943D01*
X-235493Y31990D01*
X-235681Y32037D01*
X-235845Y32108D01*
X-236010Y32202D01*
X-236151Y32319D01*
Y32343D01*
X-236197Y32366D01*
X-236221Y32460D01*
X-236268Y32578D01*
X-236315Y32766D01*
X-236339Y33001D01*
X-236385Y33283D01*
Y33658D01*
Y44701D01*
Y44725D01*
Y44748D01*
Y44889D01*
X-236362Y45077D01*
Y45289D01*
X-236315Y45524D01*
X-236268Y45758D01*
X-236197Y45970D01*
X-236104Y46111D01*
X-236080Y46134D01*
X-236057Y46158D01*
X-235986Y46228D01*
X-235892Y46275D01*
X-235751Y46346D01*
X-235587Y46416D01*
X-235375Y46463D01*
X-235117Y46487D01*
Y41976D01*
Y47192D01*
Y46886D01*
X-239510D01*
Y45500D01*
X-239534Y45547D01*
X-239604Y45641D01*
X-239722Y45782D01*
X-239863Y45946D01*
X-240027Y46134D01*
X-240215Y46322D01*
X-240403Y46510D01*
X-240615Y46651D01*
X-240662Y46675D01*
X-240756Y46745D01*
X-240920Y46816D01*
X-241155Y46933D01*
X-241413Y47027D01*
X-241719Y47098D01*
X-242048Y47168D01*
X-242400Y47192D01*
X-242588D01*
X-242823Y47145D01*
X-243105Y47098D01*
X-243410Y47004D01*
X-243763Y46886D01*
X-244139Y46698D01*
X-244491Y46463D01*
X-244538Y46440D01*
X-244656Y46322D01*
X-244820Y46158D01*
X-245032Y45946D01*
X-245267Y45641D01*
X-245502Y45312D01*
X-245737Y44913D01*
X-245948Y44443D01*
Y44419D01*
X-245972Y44396D01*
X-245995Y44325D01*
X-246019Y44231D01*
X-246065Y44114D01*
X-246112Y43973D01*
X-246206Y43620D01*
X-246277Y43221D01*
X-246371Y42751D01*
X-246418Y42234D01*
X-246441Y41694D01*
Y41435D01*
X-246418Y41294D01*
Y41130D01*
X-246371Y40754D01*
X-246324Y40308D01*
X-246230Y39814D01*
X-246089Y39297D01*
X-245924Y38804D01*
Y38780D01*
X-245901Y38757D01*
X-245877Y38686D01*
X-245830Y38592D01*
X-245713Y38358D01*
X-245549Y38052D01*
X-245337Y37747D01*
X-245079Y37418D01*
X-244797Y37089D01*
X-244444Y36807D01*
X-244397Y36783D01*
X-244280Y36713D01*
X-244068Y36595D01*
X-243810Y36478D01*
X-243505Y36337D01*
X-243129Y36243D01*
X-242729Y36149D01*
X-242283Y36126D01*
X-242142D01*
X-241977Y36149D01*
X-241766Y36172D01*
X-241507Y36219D01*
X-241249Y36290D01*
X-240967Y36384D01*
X-240685Y36501D01*
X-240662Y36525D01*
X-240591Y36548D01*
X-240474Y36619D01*
X-240333Y36736D01*
X-240145Y36877D01*
X-239957Y37042D01*
X-239745Y37253D01*
X-239510Y37488D01*
Y33588D01*
Y33565D01*
Y33470D01*
Y33330D01*
X-239534Y33165D01*
X-239557Y32789D01*
X-239581Y32625D01*
X-239628Y32507D01*
Y32484D01*
X-239651Y32460D01*
X-239722Y32343D01*
X-239839Y32202D01*
X-240004Y32061D01*
X-240027D01*
X-240051Y32037D01*
X-240145Y32014D01*
X-240239Y31990D01*
X-240403Y31967D01*
X-240591Y31943D01*
X-240803Y31920D01*
X-241084D01*
Y31520D01*
X-246441D01*
Y31521D01*
X-265026D01*
Y36431D01*
X-259364D01*
Y44936D01*
Y36830D01*
X-259481D01*
X-259599Y36854D01*
X-259739Y36877D01*
X-259928Y36924D01*
X-260092Y36995D01*
X-260256Y37089D01*
X-260397Y37230D01*
Y37253D01*
X-260444Y37277D01*
X-260468Y37371D01*
X-260515Y37488D01*
X-260562Y37676D01*
X-260585Y37911D01*
X-260632Y38217D01*
Y38592D01*
Y49447D01*
Y49471D01*
Y49494D01*
Y49612D01*
X-260609Y49799D01*
Y50034D01*
X-260562Y50269D01*
X-260515Y50481D01*
X-260444Y50692D01*
X-260350Y50833D01*
X-260327Y50857D01*
X-260303Y50880D01*
X-260233Y50951D01*
X-260139Y50998D01*
X-259998Y51068D01*
X-259834Y51139D01*
X-259622Y51186D01*
X-259364Y51209D01*
Y51609D01*
X-263757D01*
Y38592D01*
Y38545D01*
Y38405D01*
X-263781Y38217D01*
Y38005D01*
X-263804Y37747D01*
X-263851Y37512D01*
X-263922Y37324D01*
X-263992Y37159D01*
X-264016Y37136D01*
X-264039Y37112D01*
X-264110Y37065D01*
X-264227Y36995D01*
X-264368Y36948D01*
X-264533Y36901D01*
X-264767Y36854D01*
X-265026Y36830D01*
Y51609D01*
X-264789D01*
X-265026D01*
Y51609D01*
X-159345D01*
Y36431D01*
D02*
G37*
G36*
X-164796Y42234D02*
X-164726Y42211D01*
X-164632Y42140D01*
X-164397Y41976D01*
X-164091Y41764D01*
X-163762Y41529D01*
X-163410Y41224D01*
X-163105Y40918D01*
X-162823Y40589D01*
X-162799Y40566D01*
X-162752Y40496D01*
X-162682Y40355D01*
X-162611Y40214D01*
X-162541Y40026D01*
X-162470Y39814D01*
X-162423Y39603D01*
X-162400Y39368D01*
Y39344D01*
Y39274D01*
X-162423Y39180D01*
X-162447Y39062D01*
X-162494Y38921D01*
X-162541Y38757D01*
X-162635Y38616D01*
X-162752Y38451D01*
X-162776D01*
X-162799Y38405D01*
X-162870Y38358D01*
X-162964Y38310D01*
X-163081Y38263D01*
X-163199Y38217D01*
X-163363Y38193D01*
X-163551Y38170D01*
X-163645D01*
X-163762Y38193D01*
X-163927Y38240D01*
X-164115Y38334D01*
X-164350Y38428D01*
X-164585Y38593D01*
X-164867Y38804D01*
Y42281D01*
X-164843D01*
X-164796Y42234D01*
D02*
G37*
G36*
X-208097Y45805D02*
X-207886Y45735D01*
X-207628Y45617D01*
X-207487Y45547D01*
X-207346Y45430D01*
X-207181Y45289D01*
X-207017Y45148D01*
X-206876Y44936D01*
X-206711Y44725D01*
X-206570Y44466D01*
X-206429Y44184D01*
Y38616D01*
X-206453Y38593D01*
X-206476Y38569D01*
X-206523Y38498D01*
X-206594Y38405D01*
X-206782Y38193D01*
X-207040Y37958D01*
X-207369Y37700D01*
X-207698Y37488D01*
X-207886Y37394D01*
X-208097Y37324D01*
X-208286Y37300D01*
X-208497Y37277D01*
X-208591D01*
X-208708Y37300D01*
X-208849Y37347D01*
X-209014Y37441D01*
X-209178Y37535D01*
X-209343Y37700D01*
X-209507Y37911D01*
X-209531Y37958D01*
X-209554Y38005D01*
X-209601Y38099D01*
X-209648Y38193D01*
X-209695Y38334D01*
X-209742Y38498D01*
X-209813Y38710D01*
X-209860Y38921D01*
X-209907Y39180D01*
X-209954Y39462D01*
X-210001Y39791D01*
X-210048Y40167D01*
X-210071Y40542D01*
X-210095Y40989D01*
Y41459D01*
Y41482D01*
Y41576D01*
Y41717D01*
Y41905D01*
X-210071Y42117D01*
Y42375D01*
X-210048Y42634D01*
X-210024Y42939D01*
X-209930Y43550D01*
X-209813Y44161D01*
X-209742Y44443D01*
X-209648Y44725D01*
X-209554Y44960D01*
X-209437Y45171D01*
X-209413Y45195D01*
X-209366Y45265D01*
X-209272Y45382D01*
X-209131Y45500D01*
X-208967Y45617D01*
X-208779Y45735D01*
X-208544Y45805D01*
X-208286Y45829D01*
X-208239D01*
X-208097Y45805D01*
D02*
G37*
G36*
X-241178Y45805D02*
X-240967Y45735D01*
X-240709Y45617D01*
X-240568Y45547D01*
X-240427Y45430D01*
X-240262Y45289D01*
X-240098Y45148D01*
X-239957Y44936D01*
X-239792Y44725D01*
X-239651Y44466D01*
X-239510Y44184D01*
Y38616D01*
X-239534Y38592D01*
X-239557Y38569D01*
X-239604Y38498D01*
X-239675Y38405D01*
X-239863Y38193D01*
X-240121Y37958D01*
X-240450Y37700D01*
X-240779Y37488D01*
X-240967Y37394D01*
X-241178Y37324D01*
X-241366Y37300D01*
X-241578Y37277D01*
X-241672D01*
X-241789Y37300D01*
X-241930Y37347D01*
X-242095Y37441D01*
X-242259Y37535D01*
X-242424Y37700D01*
X-242588Y37911D01*
X-242612Y37958D01*
X-242635Y38005D01*
X-242682Y38099D01*
X-242729Y38193D01*
X-242776Y38334D01*
X-242823Y38498D01*
X-242894Y38710D01*
X-242941Y38921D01*
X-242988Y39180D01*
X-243035Y39462D01*
X-243082Y39791D01*
X-243129Y40167D01*
X-243152Y40542D01*
X-243176Y40989D01*
Y41459D01*
Y41482D01*
Y41576D01*
Y41717D01*
Y41905D01*
X-243152Y42117D01*
Y42375D01*
X-243129Y42634D01*
X-243105Y42939D01*
X-243011Y43550D01*
X-242894Y44161D01*
X-242823Y44443D01*
X-242729Y44725D01*
X-242635Y44960D01*
X-242518Y45171D01*
X-242494Y45195D01*
X-242447Y45265D01*
X-242353Y45382D01*
X-242212Y45500D01*
X-242048Y45617D01*
X-241860Y45735D01*
X-241625Y45805D01*
X-241366Y45829D01*
X-241320D01*
X-241178Y45805D01*
D02*
G37*
G36*
X-213337Y41294D02*
Y41130D01*
X-213290Y40754D01*
X-213243Y40308D01*
X-213149Y39814D01*
X-213008Y39297D01*
X-212843Y38804D01*
Y38780D01*
X-212820Y38757D01*
X-212796Y38686D01*
X-212750Y38593D01*
X-212632Y38358D01*
X-212468Y38052D01*
X-212256Y37747D01*
X-211998Y37418D01*
X-211716Y37089D01*
X-211363Y36807D01*
X-211316Y36783D01*
X-211199Y36713D01*
X-210987Y36595D01*
X-210729Y36478D01*
X-210424Y36337D01*
X-210048Y36243D01*
X-209648Y36149D01*
X-209202Y36126D01*
X-209061D01*
X-208896Y36149D01*
X-208685Y36172D01*
X-208426Y36219D01*
X-208168Y36290D01*
X-207886Y36384D01*
X-207604Y36501D01*
X-207581Y36525D01*
X-207510Y36548D01*
X-207393Y36619D01*
X-207252Y36736D01*
X-207064Y36877D01*
X-206876Y37042D01*
X-206664Y37253D01*
X-206429Y37488D01*
Y33588D01*
Y33565D01*
Y33470D01*
Y33330D01*
X-206453Y33165D01*
X-206476Y32789D01*
X-206500Y32625D01*
X-206547Y32507D01*
Y32484D01*
X-206570Y32460D01*
X-206641Y32343D01*
X-206758Y32202D01*
X-206923Y32061D01*
X-206946D01*
X-206970Y32037D01*
X-207064Y32014D01*
X-207158Y31990D01*
X-207322Y31967D01*
X-207510Y31943D01*
X-207722Y31920D01*
X-208004D01*
Y31521D01*
X-213360D01*
Y41435D01*
X-213337Y41294D01*
D02*
G37*
%LPC*%
G36*
X-191343Y28311D02*
X-191639D01*
X-191780Y28297D01*
X-191949Y28268D01*
X-192132Y28226D01*
X-192344Y28170D01*
X-192569Y28099D01*
X-192781Y27987D01*
X-192809Y27972D01*
X-192879Y27930D01*
X-192978Y27860D01*
X-193105Y27761D01*
X-193260Y27634D01*
X-193401Y27479D01*
X-193556Y27296D01*
X-193683Y27098D01*
X-193697Y27070D01*
X-193739Y27000D01*
X-193782Y26901D01*
X-193852Y26760D01*
X-193908Y26591D01*
X-193951Y26422D01*
X-193993Y26239D01*
X-194007Y26055D01*
Y26041D01*
Y26013D01*
Y25971D01*
X-193993Y25900D01*
Y25816D01*
X-193979Y25717D01*
X-193951Y25491D01*
X-193880Y25209D01*
X-193796Y24913D01*
X-193669Y24575D01*
X-193500Y24237D01*
X-193486Y24223D01*
X-193471Y24180D01*
X-193429Y24110D01*
X-193359Y24011D01*
X-193274Y23884D01*
X-193161Y23729D01*
X-193034Y23546D01*
X-192879Y23335D01*
X-192696Y23109D01*
X-192485Y22855D01*
X-192245Y22559D01*
X-191963Y22263D01*
X-191667Y21925D01*
X-191329Y21572D01*
X-190948Y21192D01*
X-190539Y20783D01*
X-192752D01*
X-192893Y20797D01*
X-193063D01*
X-193204Y20811D01*
X-193344Y20825D01*
X-193443Y20839D01*
X-193457D01*
X-193486Y20854D01*
X-193570Y20882D01*
X-193697Y20952D01*
X-193810Y21037D01*
Y21051D01*
X-193838Y21065D01*
X-193866Y21107D01*
X-193908Y21178D01*
X-193965Y21262D01*
X-194021Y21361D01*
X-194092Y21502D01*
X-194176Y21657D01*
X-194430D01*
X-193908Y19021D01*
X-188566D01*
Y19162D01*
X-188580Y19176D01*
X-188594Y19190D01*
X-188622Y19232D01*
X-188678Y19289D01*
X-188791Y19444D01*
X-188960Y19641D01*
X-189158Y19867D01*
X-189369Y20149D01*
X-189609Y20445D01*
X-189863Y20755D01*
X-190384Y21417D01*
X-190624Y21742D01*
X-190863Y22066D01*
X-191089Y22362D01*
X-191272Y22644D01*
X-191441Y22898D01*
X-191554Y23109D01*
Y23123D01*
X-191582Y23151D01*
X-191597Y23208D01*
X-191639Y23278D01*
X-191681Y23377D01*
X-191723Y23475D01*
X-191766Y23602D01*
X-191822Y23743D01*
X-191907Y24039D01*
X-191991Y24364D01*
X-192048Y24716D01*
X-192076Y25083D01*
Y25097D01*
Y25111D01*
Y25195D01*
X-192048Y25336D01*
X-192019Y25491D01*
X-191963Y25675D01*
X-191893Y25872D01*
X-191780Y26069D01*
X-191639Y26253D01*
X-191625Y26267D01*
X-191554Y26323D01*
X-191470Y26408D01*
X-191343Y26492D01*
X-191188Y26577D01*
X-191004Y26661D01*
X-190793Y26718D01*
X-190567Y26732D01*
X-190469D01*
X-190398Y26718D01*
X-190314Y26704D01*
X-190215Y26676D01*
X-189989Y26605D01*
X-189863Y26549D01*
X-189722Y26478D01*
X-189595Y26394D01*
X-189468Y26295D01*
X-189327Y26168D01*
X-189200Y26027D01*
X-189087Y25872D01*
X-188974Y25689D01*
X-188721Y25773D01*
Y25787D01*
X-188735Y25830D01*
X-188763Y25900D01*
X-188791Y25985D01*
X-188834Y26098D01*
X-188876Y26210D01*
X-189003Y26506D01*
X-189158Y26816D01*
X-189341Y27127D01*
X-189566Y27437D01*
X-189693Y27564D01*
X-189820Y27690D01*
X-189834Y27705D01*
X-189848Y27719D01*
X-189891Y27747D01*
X-189947Y27789D01*
X-190018Y27831D01*
X-190102Y27888D01*
X-190314Y28001D01*
X-190553Y28113D01*
X-190849Y28212D01*
X-191174Y28283D01*
X-191343Y28311D01*
D02*
G37*
G36*
X-246716D02*
X-247012D01*
X-247153Y28297D01*
X-247322Y28268D01*
X-247505Y28226D01*
X-247717Y28170D01*
X-247942Y28099D01*
X-248154Y27987D01*
X-248182Y27972D01*
X-248252Y27930D01*
X-248351Y27860D01*
X-248478Y27761D01*
X-248633Y27634D01*
X-248774Y27479D01*
X-248929Y27296D01*
X-249056Y27098D01*
X-249070Y27070D01*
X-249112Y27000D01*
X-249154Y26901D01*
X-249225Y26760D01*
X-249281Y26591D01*
X-249324Y26422D01*
X-249366Y26239D01*
X-249380Y26055D01*
Y26041D01*
Y26013D01*
Y25971D01*
X-249366Y25900D01*
Y25816D01*
X-249352Y25717D01*
X-249324Y25491D01*
X-249253Y25209D01*
X-249169Y24913D01*
X-249042Y24575D01*
X-248873Y24237D01*
X-248859Y24223D01*
X-248844Y24180D01*
X-248802Y24110D01*
X-248732Y24011D01*
X-248647Y23884D01*
X-248534Y23729D01*
X-248407Y23546D01*
X-248252Y23335D01*
X-248069Y23109D01*
X-247858Y22855D01*
X-247618Y22559D01*
X-247336Y22263D01*
X-247040Y21925D01*
X-246702Y21572D01*
X-246321Y21192D01*
X-245912Y20783D01*
X-248125D01*
X-248266Y20797D01*
X-248436D01*
X-248577Y20811D01*
X-248717Y20825D01*
X-248816Y20839D01*
X-248830D01*
X-248859Y20854D01*
X-248943Y20882D01*
X-249070Y20952D01*
X-249183Y21037D01*
Y21051D01*
X-249211Y21065D01*
X-249239Y21107D01*
X-249281Y21178D01*
X-249338Y21262D01*
X-249394Y21361D01*
X-249465Y21502D01*
X-249549Y21657D01*
X-249803D01*
X-249281Y19021D01*
X-243939D01*
Y19162D01*
X-243953Y19176D01*
X-243967Y19190D01*
X-243995Y19232D01*
X-244051Y19289D01*
X-244164Y19444D01*
X-244333Y19641D01*
X-244531Y19867D01*
X-244742Y20149D01*
X-244982Y20445D01*
X-245236Y20755D01*
X-245757Y21417D01*
X-245997Y21742D01*
X-246236Y22066D01*
X-246462Y22362D01*
X-246645Y22644D01*
X-246814Y22898D01*
X-246927Y23109D01*
Y23123D01*
X-246955Y23151D01*
X-246970Y23208D01*
X-247012Y23278D01*
X-247054Y23377D01*
X-247096Y23475D01*
X-247139Y23602D01*
X-247195Y23743D01*
X-247280Y24039D01*
X-247364Y24364D01*
X-247421Y24716D01*
X-247449Y25083D01*
Y25097D01*
Y25111D01*
Y25195D01*
X-247421Y25336D01*
X-247392Y25491D01*
X-247336Y25675D01*
X-247265Y25872D01*
X-247153Y26069D01*
X-247012Y26253D01*
X-246998Y26267D01*
X-246927Y26323D01*
X-246843Y26408D01*
X-246716Y26492D01*
X-246561Y26577D01*
X-246377Y26661D01*
X-246166Y26718D01*
X-245940Y26732D01*
X-245842D01*
X-245771Y26718D01*
X-245687Y26704D01*
X-245588Y26676D01*
X-245362Y26605D01*
X-245236Y26549D01*
X-245095Y26478D01*
X-244968Y26394D01*
X-244841Y26295D01*
X-244700Y26168D01*
X-244573Y26027D01*
X-244460Y25872D01*
X-244347Y25689D01*
X-244094Y25773D01*
Y25787D01*
X-244108Y25830D01*
X-244136Y25900D01*
X-244164Y25985D01*
X-244207Y26098D01*
X-244249Y26210D01*
X-244376Y26506D01*
X-244531Y26816D01*
X-244714Y27127D01*
X-244939Y27437D01*
X-245066Y27564D01*
X-245193Y27690D01*
X-245207Y27705D01*
X-245222Y27719D01*
X-245264Y27747D01*
X-245320Y27789D01*
X-245391Y27831D01*
X-245475Y27888D01*
X-245687Y28001D01*
X-245926Y28113D01*
X-246222Y28212D01*
X-246547Y28283D01*
X-246716Y28311D01*
D02*
G37*
G36*
X-195403Y28128D02*
X-199914D01*
Y27888D01*
X-199561D01*
X-199477Y27874D01*
X-199308Y27831D01*
X-199223Y27803D01*
X-199153Y27761D01*
X-199124Y27733D01*
X-199082Y27676D01*
X-199026Y27578D01*
X-199011Y27507D01*
X-198997Y27437D01*
Y27409D01*
Y27352D01*
X-199011Y27268D01*
X-199040Y27183D01*
X-199505Y26478D01*
X-200647Y24787D01*
X-201591Y25942D01*
X-201605Y25957D01*
X-201619Y25985D01*
X-201662Y26027D01*
X-201704Y26083D01*
X-201817Y26253D01*
X-201958Y26436D01*
X-202099Y26647D01*
X-202211Y26859D01*
X-202296Y27056D01*
X-202310Y27141D01*
X-202324Y27211D01*
Y27225D01*
Y27239D01*
X-202310Y27324D01*
X-202282Y27437D01*
X-202211Y27550D01*
Y27564D01*
X-202197Y27578D01*
X-202141Y27634D01*
X-202042Y27719D01*
X-201915Y27789D01*
X-201901D01*
X-201887Y27803D01*
X-201831Y27817D01*
X-201775Y27846D01*
X-201690Y27860D01*
X-201591Y27874D01*
X-201464Y27888D01*
X-201323D01*
Y28128D01*
X-204664D01*
Y27888D01*
X-204594D01*
X-204523Y27874D01*
X-204439D01*
X-204227Y27831D01*
X-204129Y27803D01*
X-204030Y27775D01*
X-204016D01*
X-203988Y27761D01*
X-203946Y27733D01*
X-203875Y27705D01*
X-203706Y27592D01*
X-203607Y27521D01*
X-203508Y27437D01*
X-203494Y27423D01*
X-203466Y27394D01*
X-203424Y27338D01*
X-203339Y27253D01*
X-203227Y27127D01*
X-203071Y26943D01*
X-202987Y26845D01*
X-202888Y26718D01*
X-202775Y26591D01*
X-202649Y26436D01*
X-200929Y24364D01*
X-203438Y20642D01*
X-203452Y20628D01*
X-203466Y20600D01*
X-203494Y20557D01*
X-203537Y20487D01*
X-203649Y20332D01*
X-203776Y20149D01*
X-203931Y19951D01*
X-204072Y19754D01*
X-204213Y19599D01*
X-204270Y19528D01*
X-204326Y19486D01*
X-204340Y19472D01*
X-204368Y19458D01*
X-204425Y19416D01*
X-204509Y19387D01*
X-204594Y19345D01*
X-204707Y19303D01*
X-204834Y19275D01*
X-204960Y19260D01*
Y19021D01*
X-200506D01*
Y19260D01*
X-200590D01*
X-200689Y19275D01*
X-200788Y19289D01*
X-200915Y19317D01*
X-201027Y19345D01*
X-201126Y19373D01*
X-201196Y19416D01*
X-201211D01*
X-201225Y19444D01*
X-201281Y19500D01*
X-201323Y19599D01*
X-201352Y19655D01*
Y19712D01*
Y19740D01*
Y19782D01*
X-201323Y19853D01*
X-201295Y19923D01*
Y19937D01*
X-201281Y19965D01*
X-201253Y20022D01*
X-201211Y20092D01*
X-201140Y20205D01*
X-201070Y20332D01*
X-200957Y20501D01*
X-200830Y20684D01*
X-199505Y22644D01*
X-198109Y20952D01*
Y20938D01*
X-198081Y20924D01*
X-198053Y20882D01*
X-198011Y20825D01*
X-197912Y20698D01*
X-197799Y20529D01*
X-197686Y20360D01*
X-197588Y20177D01*
X-197517Y20022D01*
X-197503Y19951D01*
X-197489Y19895D01*
Y19881D01*
Y19867D01*
X-197503Y19782D01*
X-197560Y19669D01*
X-197588Y19613D01*
X-197644Y19542D01*
X-197658D01*
X-197672Y19514D01*
X-197715Y19486D01*
X-197771Y19444D01*
X-197841Y19402D01*
X-197912Y19359D01*
X-198123Y19289D01*
X-198152D01*
X-198194Y19275D01*
X-198321D01*
X-198433Y19260D01*
X-198701D01*
Y19021D01*
X-195205D01*
Y19260D01*
X-195233D01*
X-195304Y19275D01*
X-195417Y19303D01*
X-195558Y19331D01*
X-195699Y19373D01*
X-195854Y19430D01*
X-196009Y19500D01*
X-196150Y19585D01*
X-196178Y19599D01*
X-196234Y19655D01*
X-196333Y19740D01*
X-196474Y19867D01*
X-196657Y20036D01*
X-196869Y20261D01*
X-196996Y20388D01*
X-197122Y20529D01*
X-197264Y20698D01*
X-197404Y20868D01*
X-199209Y23067D01*
X-196897Y26478D01*
Y26492D01*
X-196869Y26520D01*
X-196841Y26563D01*
X-196812Y26619D01*
X-196714Y26746D01*
X-196601Y26915D01*
X-196488Y27084D01*
X-196375Y27239D01*
X-196291Y27352D01*
X-196263Y27394D01*
X-196248Y27423D01*
X-196234Y27437D01*
X-196220Y27465D01*
X-196136Y27550D01*
X-196023Y27648D01*
X-195882Y27733D01*
X-195868D01*
X-195854Y27747D01*
X-195812Y27761D01*
X-195755Y27789D01*
X-195685Y27817D01*
X-195614Y27846D01*
X-195403Y27888D01*
Y28128D01*
D02*
G37*
G36*
X-212220D02*
X-219903D01*
Y25520D01*
X-219621D01*
Y25534D01*
Y25562D01*
X-219607Y25604D01*
Y25675D01*
X-219565Y25830D01*
X-219523Y26027D01*
X-219452Y26253D01*
X-219368Y26478D01*
X-219269Y26690D01*
X-219128Y26873D01*
X-219114Y26887D01*
X-219057Y26943D01*
X-218973Y27028D01*
X-218846Y27127D01*
X-218691Y27225D01*
X-218494Y27324D01*
X-218268Y27423D01*
X-218014Y27493D01*
X-218000D01*
X-217930Y27507D01*
X-217831Y27535D01*
X-217676Y27550D01*
X-217479Y27578D01*
X-217366D01*
X-217225Y27592D01*
X-217070D01*
X-216915Y27606D01*
X-215688D01*
Y23856D01*
X-216055D01*
X-216168Y23870D01*
X-216294Y23884D01*
X-216450Y23898D01*
X-216619Y23927D01*
X-216774Y23969D01*
X-216929Y24025D01*
X-216943Y24039D01*
X-216999Y24068D01*
X-217070Y24110D01*
X-217154Y24166D01*
X-217253Y24251D01*
X-217366Y24364D01*
X-217479Y24490D01*
X-217577Y24631D01*
X-217591Y24646D01*
X-217620Y24716D01*
X-217662Y24815D01*
X-217718Y24942D01*
X-217775Y25111D01*
X-217845Y25322D01*
X-217887Y25548D01*
X-217930Y25816D01*
X-218169D01*
Y21248D01*
X-217930D01*
Y21262D01*
Y21305D01*
X-217916Y21375D01*
X-217901Y21460D01*
X-217873Y21558D01*
X-217859Y21671D01*
X-217789Y21939D01*
X-217690Y22221D01*
X-217577Y22503D01*
X-217493Y22630D01*
X-217422Y22757D01*
X-217323Y22855D01*
X-217225Y22940D01*
X-217197Y22954D01*
X-217126Y23010D01*
X-217013Y23081D01*
X-216858Y23151D01*
X-216661Y23236D01*
X-216450Y23292D01*
X-216210Y23349D01*
X-215956Y23363D01*
X-215688D01*
Y20571D01*
Y20557D01*
Y20543D01*
Y20459D01*
Y20346D01*
X-215702Y20191D01*
Y20050D01*
X-215716Y19895D01*
X-215731Y19768D01*
X-215759Y19683D01*
Y19669D01*
X-215773Y19655D01*
X-215829Y19585D01*
X-215914Y19486D01*
X-215984Y19444D01*
X-216055Y19387D01*
X-216069D01*
X-216097Y19373D01*
X-216154Y19345D01*
X-216210Y19331D01*
X-216308Y19303D01*
X-216407Y19275D01*
X-216520Y19260D01*
X-216971D01*
Y19021D01*
X-212220D01*
Y19260D01*
X-212587D01*
X-212657Y19275D01*
X-212742D01*
X-212953Y19317D01*
X-213052Y19359D01*
X-213151Y19402D01*
X-213165D01*
X-213179Y19416D01*
X-213249Y19472D01*
X-213348Y19571D01*
X-213419Y19712D01*
Y19726D01*
X-213433Y19754D01*
X-213447Y19796D01*
X-213461Y19881D01*
X-213475Y19993D01*
X-213489Y20149D01*
X-213503Y20332D01*
Y20571D01*
Y26577D01*
Y26591D01*
Y26605D01*
Y26690D01*
Y26802D01*
X-213489Y26943D01*
Y27084D01*
X-213475Y27225D01*
X-213447Y27352D01*
X-213419Y27437D01*
Y27451D01*
X-213405Y27465D01*
X-213362Y27550D01*
X-213264Y27648D01*
X-213207Y27705D01*
X-213123Y27747D01*
X-213109D01*
X-213080Y27775D01*
X-213038Y27789D01*
X-212967Y27817D01*
X-212883Y27846D01*
X-212770Y27860D01*
X-212657Y27888D01*
X-212220D01*
Y28128D01*
D02*
G37*
G36*
X-178486D02*
X-181714D01*
X-186197Y22475D01*
Y26394D01*
Y26408D01*
Y26436D01*
Y26478D01*
Y26520D01*
X-186183Y26661D01*
X-186169Y26845D01*
X-186141Y27028D01*
X-186099Y27211D01*
X-186042Y27380D01*
X-185958Y27507D01*
X-185944Y27521D01*
X-185901Y27564D01*
X-185817Y27634D01*
X-185704Y27705D01*
X-185549Y27761D01*
X-185366Y27831D01*
X-185154Y27874D01*
X-184886Y27888D01*
Y28128D01*
X-187889D01*
Y27888D01*
X-187861D01*
X-187790Y27874D01*
X-187692Y27860D01*
X-187565Y27831D01*
X-187311Y27761D01*
X-187184Y27719D01*
X-187099Y27676D01*
X-187085D01*
X-187071Y27648D01*
X-186987Y27592D01*
X-186888Y27465D01*
X-186832Y27394D01*
X-186789Y27296D01*
Y27282D01*
X-186775Y27253D01*
X-186761Y27183D01*
X-186747Y27084D01*
X-186719Y26957D01*
X-186705Y26802D01*
X-186691Y26619D01*
Y26394D01*
Y18809D01*
X-186451D01*
X-180333Y26394D01*
Y20600D01*
Y20586D01*
Y20571D01*
Y20529D01*
Y20473D01*
X-180347Y20332D01*
X-180375Y20177D01*
X-180418Y19993D01*
X-180488Y19810D01*
X-180573Y19655D01*
X-180685Y19528D01*
X-180700Y19514D01*
X-180742Y19486D01*
X-180826Y19444D01*
X-180925Y19402D01*
X-181038Y19345D01*
X-181179Y19303D01*
X-181334Y19275D01*
X-181503Y19260D01*
X-181729D01*
Y19021D01*
X-178500D01*
Y19260D01*
X-178627D01*
X-178754Y19275D01*
X-178909Y19303D01*
X-179078Y19331D01*
X-179262Y19387D01*
X-179417Y19458D01*
X-179544Y19556D01*
X-179558Y19571D01*
X-179586Y19613D01*
X-179642Y19698D01*
X-179699Y19810D01*
X-179741Y19951D01*
X-179797Y20134D01*
X-179825Y20346D01*
X-179840Y20600D01*
Y27028D01*
X-179642Y27268D01*
X-179628Y27282D01*
X-179600Y27324D01*
X-179544Y27394D01*
X-179473Y27465D01*
X-179304Y27620D01*
X-179205Y27690D01*
X-179121Y27747D01*
X-179107D01*
X-179078Y27761D01*
X-179036Y27789D01*
X-178966Y27817D01*
X-178867Y27831D01*
X-178768Y27860D01*
X-178641Y27874D01*
X-178486Y27888D01*
Y28128D01*
D02*
G37*
G36*
X-233789D02*
X-238145D01*
Y27888D01*
X-237905D01*
X-237806Y27874D01*
X-237680D01*
X-237412Y27817D01*
X-237299Y27789D01*
X-237200Y27733D01*
X-237172Y27719D01*
X-237130Y27662D01*
X-237073Y27564D01*
X-237059Y27507D01*
X-237045Y27437D01*
Y27409D01*
Y27352D01*
X-237059Y27253D01*
X-237087Y27141D01*
Y27127D01*
X-237102Y27098D01*
X-237116Y27056D01*
X-237158Y26971D01*
X-237200Y26859D01*
X-237271Y26704D01*
X-237355Y26506D01*
X-237454Y26267D01*
X-239399Y21727D01*
X-241190Y25759D01*
Y25773D01*
X-241204Y25787D01*
X-241246Y25872D01*
X-241303Y25999D01*
X-241373Y26154D01*
X-241444Y26323D01*
X-241500Y26492D01*
X-241556Y26633D01*
X-241599Y26746D01*
Y26760D01*
X-241613Y26788D01*
X-241627Y26831D01*
X-241641Y26901D01*
X-241655Y27028D01*
X-241669Y27169D01*
Y27183D01*
Y27211D01*
X-241655Y27296D01*
X-241627Y27409D01*
X-241556Y27535D01*
Y27550D01*
X-241542Y27564D01*
X-241486Y27620D01*
X-241387Y27690D01*
X-241246Y27761D01*
X-241232D01*
X-241190Y27775D01*
X-241133Y27803D01*
X-241049Y27831D01*
X-240936Y27846D01*
X-240809Y27874D01*
X-240654Y27888D01*
X-240485D01*
Y28128D01*
X-243459D01*
Y27888D01*
X-243431D01*
X-243375Y27874D01*
X-243276Y27831D01*
X-243163Y27789D01*
X-243022Y27719D01*
X-242881Y27620D01*
X-242726Y27507D01*
X-242571Y27352D01*
X-242557Y27338D01*
X-242515Y27282D01*
X-242458Y27183D01*
X-242416Y27113D01*
X-242360Y27028D01*
X-242303Y26929D01*
X-242247Y26816D01*
X-242176Y26690D01*
X-242106Y26535D01*
X-242022Y26379D01*
X-241937Y26182D01*
X-241838Y25985D01*
X-241740Y25759D01*
X-238610Y18809D01*
X-238370D01*
X-235269Y26041D01*
Y26055D01*
X-235241Y26098D01*
X-235213Y26168D01*
X-235184Y26253D01*
X-235128Y26351D01*
X-235086Y26478D01*
X-234959Y26732D01*
X-234832Y27000D01*
X-234705Y27253D01*
X-234649Y27366D01*
X-234592Y27465D01*
X-234550Y27535D01*
X-234508Y27592D01*
X-234494Y27606D01*
X-234466Y27634D01*
X-234423Y27662D01*
X-234353Y27719D01*
X-234254Y27761D01*
X-234127Y27817D01*
X-233972Y27860D01*
X-233789Y27888D01*
Y28128D01*
D02*
G37*
G36*
X-173327Y28311D02*
X-173454D01*
X-176724Y20839D01*
Y20825D01*
X-176738Y20797D01*
X-176766Y20741D01*
X-176809Y20670D01*
X-176837Y20586D01*
X-176893Y20487D01*
X-176992Y20275D01*
X-177119Y20036D01*
X-177246Y19824D01*
X-177373Y19641D01*
X-177443Y19556D01*
X-177500Y19500D01*
X-177514Y19486D01*
X-177542Y19472D01*
X-177598Y19430D01*
X-177669Y19387D01*
X-177753Y19345D01*
X-177866Y19317D01*
X-177993Y19275D01*
X-178148Y19260D01*
Y19021D01*
X-173736D01*
Y19260D01*
X-174003D01*
X-174102Y19275D01*
X-174215D01*
X-174454Y19317D01*
X-174567Y19359D01*
X-174666Y19402D01*
X-174680D01*
X-174694Y19430D01*
X-174751Y19486D01*
X-174793Y19585D01*
X-174821Y19641D01*
Y19712D01*
Y19740D01*
Y19796D01*
X-174807Y19867D01*
X-174779Y19965D01*
Y19979D01*
X-174765Y20008D01*
X-174751Y20050D01*
X-174722Y20120D01*
X-174680Y20205D01*
X-174638Y20318D01*
X-174567Y20473D01*
X-174074Y21615D01*
X-170888D01*
X-170493Y20727D01*
X-170479Y20712D01*
X-170465Y20656D01*
X-170437Y20571D01*
X-170409Y20459D01*
X-170338Y20219D01*
X-170324Y20092D01*
X-170310Y19979D01*
Y19965D01*
Y19923D01*
X-170324Y19853D01*
X-170352Y19768D01*
X-170380Y19669D01*
X-170437Y19585D01*
X-170522Y19486D01*
X-170620Y19416D01*
X-170634D01*
X-170662Y19402D01*
X-170719Y19373D01*
X-170803Y19359D01*
X-170916Y19331D01*
X-171071Y19303D01*
X-171269Y19275D01*
X-171508Y19260D01*
Y19021D01*
X-168477D01*
Y19260D01*
X-168506D01*
X-168562Y19275D01*
X-168647Y19303D01*
X-168759Y19331D01*
X-168886Y19387D01*
X-169027Y19458D01*
X-169154Y19542D01*
X-169281Y19655D01*
X-169295Y19669D01*
X-169337Y19726D01*
X-169408Y19824D01*
X-169506Y19951D01*
X-169619Y20149D01*
X-169676Y20261D01*
X-169746Y20388D01*
X-169831Y20529D01*
X-169901Y20684D01*
X-169986Y20854D01*
X-170070Y21037D01*
X-173327Y28311D01*
D02*
G37*
G36*
X-220495Y28128D02*
X-224823D01*
X-224964Y28113D01*
X-225119Y28099D01*
X-225302Y28085D01*
X-225500Y28071D01*
X-225909Y28015D01*
X-226346Y27944D01*
X-226783Y27831D01*
X-226980Y27761D01*
X-227177Y27676D01*
X-227191D01*
X-227234Y27648D01*
X-227290Y27620D01*
X-227375Y27578D01*
X-227488Y27521D01*
X-227600Y27451D01*
X-227868Y27268D01*
X-228164Y27028D01*
X-228474Y26746D01*
X-228770Y26408D01*
X-228897Y26224D01*
X-229024Y26027D01*
X-229038Y26013D01*
X-229052Y25971D01*
X-229080Y25914D01*
X-229123Y25830D01*
X-229165Y25731D01*
X-229221Y25604D01*
X-229278Y25463D01*
X-229348Y25308D01*
X-229405Y25125D01*
X-229461Y24942D01*
X-229560Y24519D01*
X-229630Y24053D01*
X-229658Y23800D01*
Y23377D01*
X-229644Y23292D01*
Y23194D01*
X-229616Y22954D01*
X-229588Y22686D01*
X-229531Y22390D01*
X-229447Y22080D01*
X-229348Y21770D01*
Y21756D01*
X-229334Y21742D01*
X-229320Y21699D01*
X-229292Y21643D01*
X-229221Y21488D01*
X-229137Y21305D01*
X-229010Y21093D01*
X-228883Y20868D01*
X-228728Y20642D01*
X-228545Y20431D01*
X-228517Y20402D01*
X-228460Y20346D01*
X-228361Y20247D01*
X-228221Y20134D01*
X-228051Y19993D01*
X-227854Y19853D01*
X-227642Y19712D01*
X-227403Y19585D01*
X-227375Y19571D01*
X-227290Y19528D01*
X-227149Y19472D01*
X-226966Y19402D01*
X-226740Y19331D01*
X-226487Y19246D01*
X-226176Y19162D01*
X-225852Y19091D01*
X-225838D01*
X-225782Y19077D01*
X-225683Y19063D01*
X-225542D01*
X-225359Y19049D01*
X-225133Y19035D01*
X-224865Y19021D01*
X-220495D01*
Y19260D01*
X-220932D01*
X-221017Y19275D01*
X-221214Y19303D01*
X-221313Y19331D01*
X-221398Y19373D01*
X-221412D01*
X-221426Y19402D01*
X-221510Y19458D01*
X-221623Y19571D01*
X-221708Y19712D01*
Y19726D01*
X-221722Y19740D01*
X-221736Y19796D01*
X-221750Y19867D01*
Y19979D01*
X-221764Y20134D01*
X-221778Y20332D01*
Y20571D01*
Y26577D01*
Y26591D01*
Y26605D01*
Y26690D01*
Y26802D01*
X-221764Y26943D01*
Y27084D01*
X-221750Y27225D01*
X-221722Y27352D01*
X-221694Y27437D01*
Y27451D01*
X-221679Y27465D01*
X-221637Y27550D01*
X-221539Y27648D01*
X-221482Y27705D01*
X-221398Y27747D01*
X-221383D01*
X-221355Y27775D01*
X-221313Y27789D01*
X-221243Y27817D01*
X-221158Y27846D01*
X-221045Y27860D01*
X-220932Y27888D01*
X-220495D01*
Y28128D01*
D02*
G37*
G36*
X-252199Y21079D02*
X-252284D01*
X-252369Y21065D01*
X-252467Y21037D01*
X-252594Y20994D01*
X-252735Y20938D01*
X-252862Y20854D01*
X-252989Y20741D01*
X-253003Y20727D01*
X-253045Y20684D01*
X-253102Y20614D01*
X-253158Y20515D01*
X-253214Y20402D01*
X-253271Y20275D01*
X-253313Y20120D01*
X-253327Y19951D01*
Y19881D01*
X-253313Y19782D01*
X-253285Y19683D01*
X-253243Y19556D01*
X-253186Y19416D01*
X-253102Y19289D01*
X-252989Y19162D01*
X-252975Y19148D01*
X-252932Y19105D01*
X-252862Y19063D01*
X-252763Y19007D01*
X-252651Y18936D01*
X-252524Y18894D01*
X-252369Y18852D01*
X-252199Y18838D01*
X-252129D01*
X-252030Y18852D01*
X-251932Y18880D01*
X-251805Y18922D01*
X-251664Y18979D01*
X-251537Y19049D01*
X-251410Y19162D01*
X-251396Y19176D01*
X-251354Y19218D01*
X-251311Y19289D01*
X-251255Y19387D01*
X-251185Y19500D01*
X-251142Y19627D01*
X-251100Y19782D01*
X-251086Y19951D01*
Y20036D01*
X-251100Y20120D01*
X-251128Y20219D01*
X-251170Y20346D01*
X-251227Y20487D01*
X-251297Y20614D01*
X-251410Y20741D01*
X-251424Y20755D01*
X-251467Y20797D01*
X-251537Y20854D01*
X-251636Y20910D01*
X-251748Y20966D01*
X-251875Y21023D01*
X-252030Y21065D01*
X-252199Y21079D01*
D02*
G37*
%LPD*%
G36*
X-171114Y22108D02*
X-173862D01*
X-172509Y25209D01*
X-171114Y22108D01*
D02*
G37*
G36*
X-223963Y20515D02*
Y20487D01*
Y20431D01*
Y20332D01*
Y20219D01*
X-223977Y20092D01*
Y19979D01*
X-223991Y19881D01*
X-224006Y19810D01*
X-224020Y19796D01*
X-224048Y19740D01*
X-224104Y19683D01*
X-224189Y19627D01*
X-224203D01*
X-224217Y19613D01*
X-224259Y19599D01*
X-224330Y19585D01*
X-224400Y19556D01*
X-224485Y19542D01*
X-224598Y19528D01*
X-224823D01*
X-224894Y19542D01*
X-224992Y19556D01*
X-225105Y19571D01*
X-225345Y19627D01*
X-225627Y19712D01*
X-225909Y19853D01*
X-226050Y19937D01*
X-226176Y20036D01*
X-226303Y20163D01*
X-226416Y20290D01*
X-226430Y20304D01*
X-226458Y20332D01*
X-226487Y20402D01*
X-226543Y20487D01*
X-226599Y20600D01*
X-226670Y20727D01*
X-226754Y20896D01*
X-226825Y21079D01*
X-226895Y21291D01*
X-226980Y21530D01*
X-227050Y21784D01*
X-227107Y22080D01*
X-227163Y22390D01*
X-227206Y22742D01*
X-227220Y23109D01*
X-227234Y23504D01*
Y23518D01*
Y23588D01*
Y23673D01*
X-227220Y23800D01*
Y23941D01*
X-227206Y24110D01*
X-227191Y24307D01*
X-227163Y24505D01*
X-227107Y24956D01*
X-227008Y25421D01*
X-226867Y25872D01*
X-226783Y26098D01*
X-226684Y26295D01*
Y26309D01*
X-226670Y26337D01*
X-226642Y26379D01*
X-226599Y26422D01*
X-226515Y26563D01*
X-226374Y26746D01*
X-226219Y26929D01*
X-226021Y27113D01*
X-225810Y27282D01*
X-225556Y27409D01*
X-225528Y27423D01*
X-225457Y27437D01*
X-225345Y27479D01*
X-225175Y27521D01*
X-224964Y27550D01*
X-224682Y27592D01*
X-224527Y27606D01*
X-224358D01*
X-224161Y27620D01*
X-223963D01*
Y20515D01*
D02*
G37*
%LPC*%
G36*
X-182934Y50739D02*
X-189912D01*
D01*
X-187422D01*
Y46886D01*
X-189912D01*
D01*
D01*
Y45782D01*
X-187422D01*
Y39321D01*
Y39274D01*
Y39180D01*
Y39015D01*
Y38851D01*
X-187445Y38451D01*
X-187469Y38287D01*
X-187492Y38146D01*
X-187516Y38099D01*
X-187563Y38005D01*
X-187657Y37864D01*
X-187798Y37723D01*
X-187845Y37700D01*
X-187915Y37653D01*
X-188056Y37606D01*
X-188174Y37582D01*
X-188197D01*
X-188291Y37606D01*
X-188456Y37653D01*
X-188620Y37723D01*
X-188832Y37864D01*
X-189067Y38052D01*
X-189325Y38334D01*
X-189443Y38498D01*
X-189560Y38686D01*
X-189912Y38428D01*
Y38405D01*
X-189865Y38334D01*
X-189818Y38240D01*
X-189748Y38099D01*
X-189631Y37935D01*
X-189513Y37747D01*
X-189372Y37559D01*
X-189207Y37371D01*
X-188996Y37159D01*
X-188785Y36971D01*
X-188550Y36783D01*
X-188268Y36619D01*
X-187986Y36478D01*
X-187657Y36384D01*
X-187328Y36313D01*
X-186952Y36290D01*
X-186788D01*
X-186600Y36313D01*
X-186365Y36360D01*
X-186106Y36431D01*
X-185824Y36525D01*
X-185542Y36642D01*
X-185260Y36830D01*
X-185237Y36854D01*
X-185143Y36924D01*
X-185025Y37042D01*
X-184908Y37206D01*
X-184743Y37394D01*
X-184603Y37606D01*
X-184485Y37817D01*
X-184391Y38076D01*
Y38099D01*
X-184368Y38170D01*
Y38287D01*
X-184344Y38475D01*
X-184321Y38733D01*
Y38898D01*
Y39086D01*
X-184297Y39321D01*
Y39556D01*
Y39814D01*
Y40120D01*
Y45782D01*
X-182934D01*
Y37653D01*
Y46181D01*
Y46158D01*
X-182958Y46181D01*
X-183005Y46205D01*
X-183075Y46252D01*
X-183169Y46322D01*
X-183428Y46534D01*
X-183757Y46792D01*
X-184133Y47121D01*
X-184532Y47474D01*
X-184932Y47873D01*
X-185307Y48272D01*
X-185331Y48296D01*
X-185354Y48319D01*
X-185472Y48460D01*
X-185660Y48695D01*
X-185895Y49001D01*
X-186177Y49353D01*
X-186459Y49776D01*
X-186764Y50246D01*
X-187046Y50739D01*
X-182934D01*
D01*
D02*
G37*
G36*
X-253466Y47192D02*
X-258518D01*
X-253701D01*
X-253983Y47168D01*
X-254312Y47121D01*
X-254688Y47027D01*
X-255088Y46933D01*
X-255463Y46769D01*
X-255816Y46557D01*
X-255863Y46534D01*
X-255957Y46440D01*
X-256098Y46322D01*
X-256286Y46158D01*
X-256474Y45946D01*
X-256662Y45711D01*
X-256826Y45453D01*
X-256944Y45171D01*
Y45148D01*
X-256967Y45077D01*
X-256991Y44936D01*
X-257038Y44725D01*
X-257061Y44443D01*
Y44278D01*
X-257085Y44067D01*
Y43855D01*
X-257108Y43597D01*
Y43338D01*
Y43033D01*
Y38968D01*
Y38945D01*
Y38851D01*
Y38733D01*
Y38592D01*
X-257132Y38287D01*
Y38170D01*
X-257155Y38075D01*
Y38052D01*
X-257202Y37982D01*
X-257249Y37888D01*
X-257320Y37794D01*
X-257343D01*
X-257390Y37770D01*
X-257484Y37747D01*
X-257578Y37723D01*
X-257625D01*
X-257766Y37770D01*
X-257836Y37817D01*
X-257954Y37888D01*
X-258048Y37982D01*
X-258165Y38122D01*
X-258518Y37864D01*
X-258494Y37817D01*
X-258424Y37723D01*
X-258306Y37582D01*
X-258165Y37394D01*
X-257977Y37206D01*
X-257789Y36995D01*
X-257578Y36807D01*
X-257343Y36642D01*
X-257320Y36619D01*
X-257249Y36595D01*
X-257108Y36525D01*
X-256944Y36478D01*
X-256756Y36407D01*
X-256521Y36337D01*
X-256262Y36313D01*
X-255980Y36290D01*
X-253184D01*
X-255839D01*
X-255675Y36313D01*
X-255463Y36337D01*
X-255252Y36384D01*
X-255017Y36454D01*
X-254782Y36548D01*
X-254571Y36689D01*
X-254547Y36713D01*
X-254500Y36760D01*
X-254406Y36877D01*
X-254312Y37018D01*
X-254218Y37183D01*
X-254124Y37418D01*
X-254030Y37676D01*
X-253983Y37982D01*
X-253960Y37958D01*
X-253889Y37911D01*
X-253795Y37817D01*
X-253654Y37723D01*
X-253490Y37582D01*
X-253302Y37441D01*
X-253067Y37300D01*
X-252832Y37136D01*
X-252292Y36830D01*
X-251704Y36548D01*
X-251422Y36454D01*
X-251117Y36360D01*
X-250811Y36313D01*
X-250529Y36290D01*
X-250389D01*
X-250224Y36313D01*
X-250013Y36360D01*
X-249778Y36431D01*
X-249519Y36525D01*
X-249284Y36666D01*
X-249049Y36854D01*
X-249026Y36877D01*
X-248955Y36971D01*
X-248861Y37089D01*
X-248767Y37253D01*
X-248650Y37465D01*
X-248556Y37723D01*
X-248485Y38005D01*
X-248462Y38334D01*
Y36360D01*
Y38451D01*
X-248485Y38545D01*
X-248509Y38757D01*
X-248579Y39062D01*
X-248720Y39391D01*
X-248885Y39744D01*
X-249143Y40120D01*
X-249284Y40284D01*
X-249472Y40472D01*
X-249496Y40496D01*
X-249519Y40519D01*
X-249590Y40566D01*
X-249684Y40660D01*
X-249825Y40754D01*
X-249989Y40871D01*
X-250177Y40989D01*
X-250436Y41153D01*
X-250694Y41318D01*
X-251023Y41529D01*
X-251399Y41741D01*
X-251822Y41952D01*
X-252268Y42211D01*
X-252785Y42469D01*
X-253349Y42751D01*
X-253983Y43033D01*
Y44090D01*
Y44114D01*
Y44137D01*
Y44278D01*
Y44490D01*
X-253960Y44725D01*
Y44960D01*
X-253936Y45218D01*
X-253889Y45430D01*
X-253842Y45570D01*
Y45594D01*
X-253819Y45617D01*
X-253748Y45758D01*
X-253584Y45923D01*
X-253490Y46017D01*
X-253349Y46111D01*
X-253325D01*
X-253278Y46158D01*
X-253208Y46181D01*
X-253114Y46228D01*
X-252855Y46299D01*
X-252550Y46346D01*
X-252433D01*
X-252292Y46322D01*
X-252127Y46299D01*
X-251728Y46205D01*
X-251540Y46134D01*
X-251352Y46017D01*
X-251328D01*
X-251305Y45970D01*
X-251211Y45876D01*
X-251093Y45735D01*
X-251070Y45641D01*
X-251046Y45547D01*
Y45500D01*
X-251093Y45382D01*
X-251187Y45195D01*
X-251258Y45077D01*
X-251375Y44960D01*
X-251399Y44936D01*
X-251446Y44889D01*
X-251516Y44795D01*
X-251587Y44678D01*
X-251728Y44372D01*
X-251775Y44208D01*
X-251798Y44043D01*
Y44020D01*
Y43949D01*
X-251775Y43855D01*
X-251751Y43714D01*
X-251704Y43573D01*
X-251610Y43409D01*
X-251516Y43244D01*
X-251375Y43103D01*
X-251352Y43080D01*
X-251305Y43057D01*
X-251211Y42986D01*
X-251093Y42916D01*
X-250952Y42845D01*
X-250764Y42798D01*
X-250553Y42751D01*
X-250318Y42727D01*
X-250201D01*
X-250060Y42751D01*
X-249919Y42775D01*
X-249731Y42821D01*
X-249519Y42916D01*
X-249331Y43010D01*
X-249143Y43151D01*
X-249120Y43174D01*
X-249073Y43221D01*
X-249002Y43315D01*
X-248908Y43432D01*
X-248814Y43573D01*
X-248744Y43738D01*
X-248697Y43926D01*
X-248673Y44137D01*
Y44184D01*
Y44278D01*
X-248697Y44419D01*
X-248744Y44631D01*
X-248838Y44866D01*
X-248932Y45124D01*
X-249096Y45382D01*
X-249308Y45664D01*
X-249331Y45688D01*
X-249425Y45782D01*
X-249566Y45923D01*
X-249778Y46087D01*
X-250013Y46252D01*
X-250318Y46440D01*
X-250671Y46628D01*
X-251070Y46792D01*
X-251093D01*
X-251117Y46816D01*
X-251187Y46839D01*
X-251281Y46863D01*
X-251493Y46910D01*
X-251798Y47004D01*
X-252151Y47074D01*
X-252574Y47121D01*
X-252997Y47168D01*
X-253466Y47192D01*
D02*
G37*
G36*
X-225413Y47192D02*
X-230300D01*
X-230394Y47168D01*
X-230535Y47145D01*
X-230700Y47121D01*
X-231076Y47027D01*
X-231499Y46863D01*
X-231968Y46628D01*
X-232203Y46487D01*
X-232438Y46322D01*
X-232650Y46111D01*
X-232885Y45876D01*
X-232908Y45852D01*
X-232932Y45805D01*
X-233002Y45735D01*
X-233073Y45641D01*
X-233167Y45500D01*
X-233261Y45335D01*
X-233378Y45148D01*
X-233496Y44913D01*
X-233590Y44654D01*
X-233707Y44372D01*
X-233825Y44067D01*
X-233918Y43714D01*
X-234013Y43338D01*
X-234083Y42939D01*
X-234130Y42516D01*
X-234153Y42046D01*
X-228421Y42046D01*
Y42023D01*
Y41952D01*
X-228444Y41835D01*
Y41694D01*
X-228468Y41529D01*
X-228515Y41318D01*
X-228585Y40848D01*
X-228726Y40308D01*
X-228938Y39767D01*
X-229196Y39227D01*
X-229525Y38733D01*
X-229548Y38686D01*
X-229666Y38593D01*
X-229830Y38451D01*
X-230042Y38287D01*
X-230300Y38099D01*
X-230629Y37958D01*
X-230982Y37864D01*
X-231381Y37817D01*
X-231499D01*
X-231616Y37841D01*
X-231780Y37864D01*
X-231968Y37911D01*
X-232156Y37958D01*
X-232368Y38052D01*
X-232579Y38170D01*
X-232603Y38193D01*
X-232673Y38240D01*
X-232791Y38334D01*
X-232932Y38475D01*
X-233120Y38663D01*
X-233308Y38898D01*
X-233519Y39180D01*
X-233754Y39532D01*
X-234153Y39297D01*
Y36126D01*
Y39274D01*
X-234107Y39227D01*
X-234060Y39133D01*
X-234013Y39015D01*
X-233918Y38874D01*
X-233825Y38710D01*
X-233590Y38334D01*
X-233308Y37935D01*
X-232979Y37535D01*
X-232626Y37136D01*
X-232438Y36971D01*
X-232250Y36830D01*
X-232203Y36807D01*
X-232062Y36713D01*
X-231851Y36619D01*
X-231569Y36478D01*
X-231217Y36360D01*
X-230817Y36243D01*
X-230371Y36149D01*
X-229877Y36126D01*
X-229783D01*
X-229666Y36149D01*
X-229501D01*
X-229314Y36172D01*
X-229079Y36219D01*
X-228820Y36267D01*
X-228562Y36360D01*
X-228280Y36454D01*
X-227998Y36572D01*
X-227692Y36713D01*
X-227410Y36877D01*
X-227129Y37089D01*
X-226847Y37324D01*
X-226588Y37606D01*
X-226353Y37911D01*
Y37935D01*
X-226306Y37982D01*
X-226259Y38052D01*
X-226212Y38170D01*
X-226142Y38310D01*
X-226048Y38475D01*
X-225977Y38663D01*
X-225883Y38898D01*
X-225789Y39133D01*
X-225719Y39415D01*
X-225554Y40026D01*
X-225460Y40707D01*
X-225413Y41482D01*
Y37864D01*
Y41741D01*
X-225437Y41905D01*
X-225460Y42140D01*
X-225484Y42399D01*
X-225531Y42681D01*
X-225601Y42986D01*
X-225766Y43644D01*
X-225883Y43996D01*
X-226001Y44349D01*
X-226165Y44678D01*
X-226353Y45007D01*
X-226565Y45335D01*
X-226823Y45641D01*
X-226847Y45665D01*
X-226894Y45711D01*
X-226964Y45782D01*
X-227082Y45876D01*
X-227199Y45993D01*
X-227363Y46134D01*
X-227551Y46275D01*
X-227763Y46416D01*
X-228256Y46698D01*
X-228820Y46957D01*
X-229126Y47051D01*
X-229454Y47121D01*
X-229783Y47168D01*
X-230136Y47192D01*
X-225413D01*
D02*
G37*
G36*
X-190993D02*
X-196068D01*
X-196327Y47145D01*
X-196656Y47098D01*
X-197055Y47027D01*
X-197478Y46886D01*
X-197924Y46722D01*
X-198371Y46487D01*
X-198394D01*
X-198418Y46463D01*
X-198559Y46346D01*
X-198770Y46205D01*
X-199028Y45970D01*
X-199334Y45688D01*
X-199616Y45335D01*
X-199898Y44936D01*
X-200156Y44466D01*
Y44443D01*
X-200180Y44419D01*
X-200203Y44349D01*
X-200250Y44231D01*
X-200297Y44114D01*
X-200344Y43973D01*
X-200462Y43620D01*
X-200579Y43221D01*
X-200673Y42728D01*
X-200744Y42211D01*
X-200767Y41647D01*
Y36126D01*
Y41435D01*
X-200744Y41271D01*
Y41083D01*
X-200720Y40872D01*
X-200673Y40613D01*
X-200626Y40355D01*
X-200485Y39767D01*
X-200297Y39133D01*
X-200015Y38522D01*
X-199827Y38217D01*
X-199639Y37935D01*
X-199616Y37911D01*
X-199569Y37864D01*
X-199498Y37770D01*
X-199381Y37653D01*
X-199240Y37512D01*
X-199075Y37371D01*
X-198888Y37206D01*
X-198652Y37042D01*
X-198394Y36854D01*
X-198112Y36689D01*
X-197807Y36548D01*
X-197478Y36407D01*
X-197125Y36290D01*
X-196726Y36196D01*
X-196327Y36149D01*
X-195880Y36126D01*
X-195645D01*
X-195504Y36149D01*
X-195293Y36172D01*
X-195081Y36219D01*
X-194823Y36267D01*
X-194541Y36337D01*
X-194259Y36407D01*
X-193953Y36525D01*
X-193672Y36666D01*
X-193366Y36830D01*
X-193061Y37018D01*
X-192779Y37230D01*
X-192520Y37488D01*
X-192262Y37770D01*
X-192238Y37794D01*
X-192215Y37841D01*
X-192144Y37935D01*
X-192074Y38052D01*
X-191980Y38217D01*
X-191863Y38405D01*
X-191745Y38616D01*
X-191628Y38874D01*
X-191510Y39133D01*
X-191393Y39438D01*
X-191181Y40073D01*
X-191040Y40801D01*
X-191017Y41200D01*
X-190993Y41600D01*
Y36877D01*
Y41600D01*
Y41811D01*
X-191017Y41976D01*
X-191040Y42164D01*
X-191064Y42399D01*
X-191111Y42657D01*
X-191158Y42916D01*
X-191299Y43526D01*
X-191534Y44184D01*
X-191698Y44513D01*
X-191863Y44866D01*
X-192050Y45171D01*
X-192285Y45500D01*
X-192309Y45524D01*
X-192356Y45571D01*
X-192426Y45665D01*
X-192520Y45758D01*
X-192661Y45899D01*
X-192802Y46040D01*
X-192990Y46181D01*
X-193225Y46346D01*
X-193460Y46510D01*
X-193719Y46651D01*
X-194000Y46792D01*
X-194329Y46933D01*
X-194658Y47027D01*
X-195034Y47121D01*
X-195434Y47168D01*
X-195833Y47192D01*
X-190993D01*
D02*
G37*
G36*
X-161413Y36290D02*
X-164068D01*
X-161413D01*
D01*
D02*
G37*
G36*
X-250529Y36290D02*
D01*
X-253184D01*
X-250529D01*
D02*
G37*
G36*
X-215240Y47192D02*
X-220127D01*
X-220221Y47168D01*
X-220362Y47145D01*
X-220526Y47121D01*
X-220902Y47027D01*
X-221325Y46863D01*
X-221795Y46628D01*
X-222030Y46487D01*
X-222265Y46322D01*
X-222477Y46111D01*
X-222711Y45876D01*
X-222735Y45852D01*
X-222758Y45805D01*
X-222829Y45735D01*
X-222899Y45641D01*
X-222993Y45500D01*
X-223087Y45335D01*
X-223205Y45148D01*
X-223322Y44913D01*
X-223416Y44654D01*
X-223534Y44372D01*
X-223651Y44067D01*
X-223745Y43714D01*
X-223839Y43338D01*
X-223910Y42939D01*
X-223957Y42516D01*
X-223980Y42046D01*
X-218247D01*
Y42023D01*
Y41952D01*
X-218271Y41835D01*
Y41694D01*
X-218294Y41529D01*
X-218341Y41318D01*
X-218412Y40848D01*
X-218553Y40308D01*
X-218764Y39767D01*
X-219023Y39227D01*
X-219352Y38733D01*
X-219375Y38686D01*
X-219493Y38593D01*
X-219657Y38451D01*
X-219869Y38287D01*
X-220127Y38099D01*
X-220456Y37958D01*
X-220808Y37864D01*
X-221208Y37817D01*
X-221325D01*
X-221443Y37841D01*
X-221607Y37864D01*
X-221795Y37911D01*
X-221983Y37958D01*
X-222194Y38052D01*
X-222406Y38170D01*
X-222430Y38193D01*
X-222500Y38240D01*
X-222617Y38334D01*
X-222758Y38475D01*
X-222946Y38663D01*
X-223134Y38898D01*
X-223346Y39180D01*
X-223581Y39532D01*
X-223980Y39297D01*
Y36126D01*
Y39274D01*
X-223933Y39227D01*
X-223886Y39133D01*
X-223839Y39015D01*
X-223745Y38874D01*
X-223651Y38710D01*
X-223416Y38334D01*
X-223134Y37935D01*
X-222805Y37535D01*
X-222453Y37136D01*
X-222265Y36971D01*
X-222077Y36830D01*
X-222030Y36807D01*
X-221889Y36713D01*
X-221678Y36619D01*
X-221396Y36478D01*
X-221043Y36360D01*
X-220644Y36243D01*
X-220198Y36149D01*
X-219704Y36126D01*
X-219610D01*
X-219493Y36149D01*
X-219328D01*
X-219140Y36172D01*
X-218905Y36219D01*
X-218647Y36267D01*
X-218388Y36360D01*
X-218106Y36454D01*
X-217824Y36572D01*
X-217519Y36713D01*
X-217237Y36877D01*
X-216955Y37089D01*
X-216673Y37324D01*
X-216415Y37606D01*
X-216180Y37911D01*
Y37935D01*
X-216133Y37982D01*
X-216086Y38052D01*
X-216039Y38170D01*
X-215968Y38310D01*
X-215874Y38475D01*
X-215804Y38663D01*
X-215710Y38898D01*
X-215616Y39133D01*
X-215545Y39415D01*
X-215381Y40026D01*
X-215287Y40707D01*
X-215240Y41482D01*
Y36267D01*
Y41741D01*
X-215264Y41905D01*
X-215287Y42140D01*
X-215310Y42399D01*
X-215357Y42681D01*
X-215428Y42986D01*
X-215592Y43644D01*
X-215710Y43996D01*
X-215827Y44349D01*
X-215992Y44678D01*
X-216180Y45007D01*
X-216391Y45335D01*
X-216650Y45641D01*
X-216673Y45665D01*
X-216720Y45711D01*
X-216791Y45782D01*
X-216908Y45876D01*
X-217026Y45993D01*
X-217190Y46134D01*
X-217378Y46275D01*
X-217589Y46416D01*
X-218083Y46698D01*
X-218647Y46957D01*
X-218952Y47051D01*
X-219281Y47121D01*
X-219610Y47168D01*
X-219963Y47192D01*
X-215240D01*
D02*
G37*
G36*
X-170482Y46886D02*
X-181760D01*
X-180632D01*
Y38710D01*
Y38686D01*
Y38663D01*
Y38522D01*
X-180655Y38310D01*
Y38052D01*
X-180679Y37794D01*
X-180726Y37559D01*
X-180773Y37347D01*
X-180843Y37183D01*
X-180867D01*
X-180890Y37136D01*
X-180961Y37089D01*
X-181055Y37042D01*
X-181172Y36971D01*
X-181337Y36924D01*
X-181525Y36877D01*
X-181760Y36830D01*
Y36126D01*
Y36431D01*
X-177507D01*
Y37817D01*
X-177484Y37770D01*
X-177390Y37676D01*
X-177225Y37512D01*
X-177037Y37324D01*
X-176802Y37112D01*
X-176567Y36901D01*
X-176285Y36689D01*
X-176003Y36525D01*
X-175980Y36501D01*
X-175862Y36454D01*
X-175721Y36407D01*
X-175510Y36337D01*
X-175275Y36243D01*
X-174993Y36196D01*
X-174664Y36149D01*
X-174335Y36126D01*
X-170482D01*
X-174194D01*
X-174006Y36149D01*
X-173795Y36196D01*
X-173560Y36267D01*
X-173278Y36360D01*
X-173020Y36478D01*
X-172738Y36666D01*
X-172714Y36689D01*
X-172620Y36760D01*
X-172503Y36877D01*
X-172362Y37018D01*
X-172221Y37206D01*
X-172056Y37418D01*
X-171939Y37653D01*
X-171821Y37911D01*
Y37958D01*
X-171798Y38052D01*
X-171751Y38240D01*
X-171727Y38498D01*
X-171680Y38851D01*
X-171633Y39297D01*
Y39532D01*
X-171610Y39814D01*
Y40120D01*
Y40449D01*
Y44607D01*
Y44631D01*
Y44654D01*
Y44795D01*
Y45007D01*
X-171586Y45241D01*
X-171563Y45500D01*
X-171516Y45735D01*
X-171445Y45946D01*
X-171375Y46087D01*
Y46111D01*
X-171328Y46134D01*
X-171281Y46181D01*
X-171187Y46252D01*
X-171069Y46322D01*
X-170905Y46393D01*
X-170717Y46440D01*
X-170482Y46487D01*
Y46886D01*
D02*
G37*
%LPD*%
G36*
X-253913Y42234D02*
X-253842Y42211D01*
X-253748Y42140D01*
X-253513Y41976D01*
X-253208Y41764D01*
X-252879Y41529D01*
X-252527Y41224D01*
X-252221Y40918D01*
X-251939Y40589D01*
X-251916Y40566D01*
X-251869Y40496D01*
X-251798Y40355D01*
X-251728Y40214D01*
X-251657Y40026D01*
X-251587Y39814D01*
X-251540Y39603D01*
X-251516Y39368D01*
Y39344D01*
Y39274D01*
X-251540Y39180D01*
X-251563Y39062D01*
X-251610Y38921D01*
X-251657Y38757D01*
X-251751Y38616D01*
X-251869Y38451D01*
X-251892D01*
X-251916Y38405D01*
X-251986Y38358D01*
X-252080Y38310D01*
X-252198Y38263D01*
X-252315Y38217D01*
X-252480Y38193D01*
X-252668Y38170D01*
X-252761D01*
X-252879Y38193D01*
X-253043Y38240D01*
X-253231Y38334D01*
X-253466Y38428D01*
X-253701Y38592D01*
X-253983Y38804D01*
Y42281D01*
X-253960D01*
X-253913Y42234D01*
D02*
G37*
G36*
X-229760Y46440D02*
X-229642Y46393D01*
X-229478Y46322D01*
X-229314Y46205D01*
X-229149Y46064D01*
X-229008Y45876D01*
X-228985Y45829D01*
X-228914Y45688D01*
X-228797Y45476D01*
X-228703Y45171D01*
X-228585Y44772D01*
X-228468Y44302D01*
X-228397Y43761D01*
X-228374Y43151D01*
Y42775D01*
X-231405D01*
Y42798D01*
Y42845D01*
Y42939D01*
Y43057D01*
Y43221D01*
Y43385D01*
X-231381Y43761D01*
X-231358Y44161D01*
X-231311Y44560D01*
X-231264Y44936D01*
X-231240Y45077D01*
X-231193Y45218D01*
Y45241D01*
X-231170Y45335D01*
X-231123Y45453D01*
X-231052Y45594D01*
X-230864Y45946D01*
X-230723Y46111D01*
X-230582Y46252D01*
X-230535Y46275D01*
X-230418Y46369D01*
X-230230Y46440D01*
X-229971Y46463D01*
X-229877D01*
X-229760Y46440D01*
D02*
G37*
G36*
X-195669Y46393D02*
X-195551Y46369D01*
X-195387Y46299D01*
X-195222Y46228D01*
X-195058Y46111D01*
X-194893Y45970D01*
X-194870Y45946D01*
X-194823Y45876D01*
X-194752Y45758D01*
X-194682Y45594D01*
X-194588Y45382D01*
X-194517Y45077D01*
X-194423Y44725D01*
X-194376Y44278D01*
Y44255D01*
Y44231D01*
Y44137D01*
X-194353Y44043D01*
Y43926D01*
X-194329Y43761D01*
Y43573D01*
Y43362D01*
X-194306Y43127D01*
Y42868D01*
X-194282Y42563D01*
Y42258D01*
X-194259Y41929D01*
Y41553D01*
Y41177D01*
Y40754D01*
Y40731D01*
Y40707D01*
Y40637D01*
Y40542D01*
Y40331D01*
X-194282Y40026D01*
Y39673D01*
X-194329Y39297D01*
X-194400Y38522D01*
Y38498D01*
X-194423Y38381D01*
X-194470Y38240D01*
X-194517Y38076D01*
X-194658Y37676D01*
X-194776Y37465D01*
X-194917Y37300D01*
X-194940Y37277D01*
X-194987Y37230D01*
X-195081Y37183D01*
X-195199Y37112D01*
X-195340Y37018D01*
X-195504Y36971D01*
X-195669Y36924D01*
X-195857Y36901D01*
X-195951D01*
X-196021Y36924D01*
X-196139D01*
X-196420Y37018D01*
X-196562Y37065D01*
X-196679Y37159D01*
X-196702Y37183D01*
X-196749Y37230D01*
X-196820Y37324D01*
X-196914Y37441D01*
X-197008Y37606D01*
X-197125Y37794D01*
X-197196Y38005D01*
X-197266Y38240D01*
Y38263D01*
Y38287D01*
X-197290Y38358D01*
X-197313Y38451D01*
Y38593D01*
X-197337Y38733D01*
X-197360Y38945D01*
X-197384Y39180D01*
X-197407Y39438D01*
X-197431Y39744D01*
X-197454Y40096D01*
Y40496D01*
X-197478Y40918D01*
X-197501Y41412D01*
Y41929D01*
Y42516D01*
Y42540D01*
Y42610D01*
Y42704D01*
Y42822D01*
Y42986D01*
Y43151D01*
X-197478Y43550D01*
X-197454Y43996D01*
X-197407Y44419D01*
X-197337Y44819D01*
X-197313Y44983D01*
X-197266Y45124D01*
Y45148D01*
X-197219Y45241D01*
X-197172Y45382D01*
X-197102Y45524D01*
X-196914Y45876D01*
X-196796Y46040D01*
X-196656Y46181D01*
X-196632D01*
X-196609Y46228D01*
X-196538Y46252D01*
X-196444Y46299D01*
X-196209Y46369D01*
X-195880Y46416D01*
X-195786D01*
X-195669Y46393D01*
D02*
G37*
G36*
X-219587Y46440D02*
X-219469Y46393D01*
X-219305Y46322D01*
X-219140Y46205D01*
X-218976Y46064D01*
X-218835Y45876D01*
X-218811Y45829D01*
X-218741Y45688D01*
X-218623Y45476D01*
X-218529Y45171D01*
X-218412Y44772D01*
X-218294Y44302D01*
X-218224Y43761D01*
X-218200Y43151D01*
Y42775D01*
X-221231D01*
Y42798D01*
Y42845D01*
Y42939D01*
Y43057D01*
Y43221D01*
Y43385D01*
X-221208Y43761D01*
X-221184Y44161D01*
X-221137Y44560D01*
X-221090Y44936D01*
X-221067Y45077D01*
X-221020Y45218D01*
Y45241D01*
X-220996Y45335D01*
X-220949Y45453D01*
X-220879Y45594D01*
X-220691Y45946D01*
X-220550Y46111D01*
X-220409Y46252D01*
X-220362Y46275D01*
X-220244Y46369D01*
X-220056Y46440D01*
X-219798Y46463D01*
X-219704D01*
X-219587Y46440D01*
D02*
G37*
G36*
X-174735Y39744D02*
Y39720D01*
Y39697D01*
Y39556D01*
Y39368D01*
X-174758Y39133D01*
Y38898D01*
X-174782Y38663D01*
X-174805Y38451D01*
X-174829Y38287D01*
Y38263D01*
X-174852Y38240D01*
X-174923Y38123D01*
X-175017Y37958D01*
X-175158Y37817D01*
X-175205Y37794D01*
X-175322Y37747D01*
X-175487Y37676D01*
X-175698Y37653D01*
X-175768D01*
X-175839Y37676D01*
X-175933D01*
X-176168Y37747D01*
X-176426Y37864D01*
X-176450Y37888D01*
X-176497Y37911D01*
X-176591Y38005D01*
X-176732Y38123D01*
X-176896Y38263D01*
X-177061Y38475D01*
X-177272Y38710D01*
X-177507Y39015D01*
Y44607D01*
Y44631D01*
Y44654D01*
Y44795D01*
Y45007D01*
X-177484Y45241D01*
X-177460Y45500D01*
X-177413Y45735D01*
X-177343Y45946D01*
X-177272Y46087D01*
Y46111D01*
X-177225Y46134D01*
X-177178Y46181D01*
X-177084Y46252D01*
X-176967Y46322D01*
X-176802Y46393D01*
X-176614Y46440D01*
X-176379Y46487D01*
Y46886D01*
X-174735D01*
Y39744D01*
D02*
G37*
D11*
X-354868Y-205840D02*
Y-199840D01*
X-364868Y-205840D02*
Y-199840D01*
D13*
X19645Y2314D02*
X20787Y3456D01*
X23073D01*
X24215Y2314D01*
Y-2257D01*
X23073Y-3399D01*
X20787D01*
X19645Y-2257D01*
X12789Y-3399D02*
X17359D01*
X12789Y1171D01*
Y2314D01*
X13931Y3456D01*
X16217D01*
X17359Y2314D01*
X5933Y3456D02*
X10503D01*
Y28D01*
X8218Y1171D01*
X7076D01*
X5933Y28D01*
Y-2257D01*
X7076Y-3399D01*
X9361D01*
X10503Y-2257D01*
X52123Y-38813D02*
X53265Y-37670D01*
X55551D01*
X56693Y-38813D01*
Y-43383D01*
X55551Y-44526D01*
X53265D01*
X52123Y-43383D01*
X45267Y-44526D02*
X49837D01*
X45267Y-39955D01*
Y-38813D01*
X46410Y-37670D01*
X48695D01*
X49837Y-38813D01*
X42982D02*
X41839Y-37670D01*
X39554D01*
X38411Y-38813D01*
Y-39955D01*
X39554Y-41098D01*
X40696D01*
X39554D01*
X38411Y-42241D01*
Y-43383D01*
X39554Y-44526D01*
X41839D01*
X42982Y-43383D01*
X22357Y-68118D02*
X23499Y-66975D01*
X25785D01*
X26927Y-68118D01*
Y-72688D01*
X25785Y-73831D01*
X23499D01*
X22357Y-72688D01*
X15501Y-73831D02*
X20071D01*
X15501Y-69261D01*
Y-68118D01*
X16644Y-66975D01*
X18929D01*
X20071Y-68118D01*
X13216Y-73831D02*
X10930D01*
X12073D01*
Y-66975D01*
X13216Y-68118D01*
X1534Y-94318D02*
X2677Y-93175D01*
X4962D01*
X6105Y-94318D01*
Y-98888D01*
X4962Y-100031D01*
X2677D01*
X1534Y-98888D01*
X-5321Y-100031D02*
X-751D01*
X-5321Y-95461D01*
Y-94318D01*
X-4179Y-93175D01*
X-1894D01*
X-751Y-94318D01*
X-12177Y-100031D02*
X-7607D01*
X-12177Y-95461D01*
Y-94318D01*
X-11035Y-93175D01*
X-8749D01*
X-7607Y-94318D01*
X51795Y-96529D02*
X52938Y-95386D01*
X55223D01*
X56366Y-96529D01*
Y-101099D01*
X55223Y-102242D01*
X52938D01*
X51795Y-101099D01*
X44939Y-102242D02*
X49510D01*
X44939Y-97671D01*
Y-96529D01*
X46082Y-95386D01*
X48367D01*
X49510Y-96529D01*
X39226Y-102242D02*
Y-95386D01*
X42654Y-98814D01*
X38084D01*
X25260Y-126245D02*
X26402Y-125102D01*
X28688D01*
X29830Y-126245D01*
Y-130815D01*
X28688Y-131958D01*
X26402D01*
X25260Y-130815D01*
X22975Y-126245D02*
X21832Y-125102D01*
X19547D01*
X18404Y-126245D01*
Y-127387D01*
X19547Y-128530D01*
X20689D01*
X19547D01*
X18404Y-129672D01*
Y-130815D01*
X19547Y-131958D01*
X21832D01*
X22975Y-130815D01*
X16119Y-126245D02*
X14976Y-125102D01*
X12691D01*
X11548Y-126245D01*
Y-127387D01*
X12691Y-128530D01*
X13833D01*
X12691D01*
X11548Y-129672D01*
Y-130815D01*
X12691Y-131958D01*
X14976D01*
X16119Y-130815D01*
X52672Y-140238D02*
X53815Y-139095D01*
X56100D01*
X57243Y-140238D01*
Y-144809D01*
X56100Y-145951D01*
X53815D01*
X52672Y-144809D01*
X50387Y-140238D02*
X49244Y-139095D01*
X46959D01*
X45816Y-140238D01*
Y-141381D01*
X46959Y-142523D01*
X48102D01*
X46959D01*
X45816Y-143666D01*
Y-144809D01*
X46959Y-145951D01*
X49244D01*
X50387Y-144809D01*
X38961Y-145951D02*
X43531D01*
X38961Y-141381D01*
Y-140238D01*
X40103Y-139095D01*
X42389D01*
X43531Y-140238D01*
X53095Y-170733D02*
X54238Y-169590D01*
X56523D01*
X57666Y-170733D01*
Y-175303D01*
X56523Y-176446D01*
X54238D01*
X53095Y-175303D01*
X50810Y-170733D02*
X49667Y-169590D01*
X47382D01*
X46239Y-170733D01*
Y-171875D01*
X47382Y-173018D01*
X48524D01*
X47382D01*
X46239Y-174160D01*
Y-175303D01*
X47382Y-176446D01*
X49667D01*
X50810Y-175303D01*
X43954Y-176446D02*
X41669D01*
X42811D01*
Y-169590D01*
X43954Y-170733D01*
X58157Y-204206D02*
Y-197350D01*
X54729D01*
X53586Y-198493D01*
Y-200778D01*
X54729Y-201921D01*
X58157D01*
X55871D02*
X53586Y-204206D01*
X46730Y-197350D02*
X51301D01*
Y-200778D01*
X49015Y-199635D01*
X47873D01*
X46730Y-200778D01*
Y-203063D01*
X47873Y-204206D01*
X50158D01*
X51301Y-203063D01*
X44445Y-204206D02*
X42160D01*
X43302D01*
Y-197350D01*
X44445Y-198493D01*
X-30770Y-203044D02*
X-31913Y-204186D01*
X-34198D01*
X-35341Y-203044D01*
Y-198473D01*
X-34198Y-197330D01*
X-31913D01*
X-30770Y-198473D01*
X-23914Y-197330D02*
X-28485D01*
X-23914Y-201901D01*
Y-203044D01*
X-25057Y-204186D01*
X-27342D01*
X-28485Y-203044D01*
X-21629Y-198473D02*
X-20487Y-197330D01*
X-18201D01*
X-17059Y-198473D01*
Y-203044D01*
X-18201Y-204186D01*
X-20487D01*
X-21629Y-203044D01*
Y-201901D01*
X-20487Y-200758D01*
X-17059D01*
X23251Y-214452D02*
X24394Y-213309D01*
X26679D01*
X27822Y-214452D01*
Y-219022D01*
X26679Y-220165D01*
X24394D01*
X23251Y-219022D01*
X20966Y-214452D02*
X19823Y-213309D01*
X17538D01*
X16395Y-214452D01*
Y-215594D01*
X17538Y-216737D01*
X18680D01*
X17538D01*
X16395Y-217880D01*
Y-219022D01*
X17538Y-220165D01*
X19823D01*
X20966Y-219022D01*
X14110Y-214452D02*
X12967Y-213309D01*
X10682D01*
X9539Y-214452D01*
Y-219022D01*
X10682Y-220165D01*
X12967D01*
X14110Y-219022D01*
Y-214452D01*
X54729Y-213922D02*
X55871Y-212779D01*
X58157D01*
X59299Y-213922D01*
Y-218492D01*
X58157Y-219635D01*
X55871D01*
X54729Y-218492D01*
X47873Y-219635D02*
X52443D01*
X47873Y-215064D01*
Y-213922D01*
X49015Y-212779D01*
X51301D01*
X52443Y-213922D01*
X45588D02*
X44445Y-212779D01*
X42160D01*
X41017Y-213922D01*
Y-218492D01*
X42160Y-219635D01*
X44445D01*
X45588Y-218492D01*
Y-213922D01*
X-367818Y-197837D02*
X-374674D01*
Y-201264D01*
X-373531Y-202407D01*
X-371246D01*
X-370103Y-201264D01*
Y-197837D01*
Y-200122D02*
X-367818Y-202407D01*
X-373531Y-204692D02*
X-374674Y-205835D01*
Y-208120D01*
X-373531Y-209263D01*
X-372388D01*
X-371246Y-208120D01*
Y-206978D01*
Y-208120D01*
X-370103Y-209263D01*
X-368960D01*
X-367818Y-208120D01*
Y-205835D01*
X-368960Y-204692D01*
X68695Y-63910D02*
X73266D01*
X68746Y-35836D02*
X73317D01*
X71032Y-33551D02*
Y-38121D01*
X66109Y-265583D02*
X64966Y-266726D01*
X62681D01*
X61538Y-265583D01*
Y-261013D01*
X62681Y-259870D01*
X64966D01*
X66109Y-261013D01*
Y-263298D01*
X63823D01*
X68394Y-259870D02*
Y-266726D01*
X72965Y-259870D01*
Y-266726D01*
X75250D02*
Y-259870D01*
X78678D01*
X79820Y-261013D01*
Y-265583D01*
X78678Y-266726D01*
X75250D01*
X66109Y-241453D02*
X64966Y-242596D01*
X62681D01*
X61538Y-241453D01*
Y-236883D01*
X62681Y-235740D01*
X64966D01*
X66109Y-236883D01*
Y-239168D01*
X63823D01*
X68394Y-235740D02*
Y-242596D01*
X72965Y-235740D01*
Y-242596D01*
X75250D02*
Y-235740D01*
X78678D01*
X79820Y-236883D01*
Y-241453D01*
X78678Y-242596D01*
X75250D01*
X79820Y-161320D02*
Y-168176D01*
Y-165891D01*
X75250Y-161320D01*
X78678Y-164748D01*
X75250Y-168176D01*
X72965Y-161320D02*
Y-168176D01*
X68394D01*
X61538D02*
X66109D01*
X61538Y-163605D01*
Y-162463D01*
X62681Y-161320D01*
X64966D01*
X66109Y-162463D01*
X79820Y-135920D02*
Y-142776D01*
Y-140491D01*
X75250Y-135920D01*
X78678Y-139348D01*
X75250Y-142776D01*
X72965Y-135920D02*
Y-142776D01*
X68394D01*
X66109D02*
X63824D01*
X64966D01*
Y-135920D01*
X66109Y-137063D01*
X79820Y-109250D02*
Y-116106D01*
Y-112678D01*
X75250D01*
Y-109250D01*
Y-116106D01*
X68394D02*
X72965D01*
X68394Y-111536D01*
Y-110393D01*
X69537Y-109250D01*
X71822D01*
X72965Y-110393D01*
X79820Y-84866D02*
Y-91722D01*
X75250D01*
X68394D02*
X72965D01*
X68394Y-87151D01*
Y-86009D01*
X69537Y-84866D01*
X71822D01*
X72965Y-86009D01*
X79820Y-69372D02*
Y-76228D01*
X76392D01*
X75250Y-75085D01*
Y-73943D01*
X76392Y-72800D01*
X79820D01*
X76392D01*
X75250Y-71658D01*
Y-70515D01*
X76392Y-69372D01*
X79820D01*
X72965Y-76228D02*
Y-71658D01*
X70679Y-69372D01*
X68394Y-71658D01*
Y-76228D01*
Y-72800D01*
X72965D01*
X66109Y-69372D02*
X61538D01*
X63824D01*
Y-76228D01*
X79820Y-43464D02*
Y-50320D01*
X76392D01*
X75250Y-49177D01*
Y-48035D01*
X76392Y-46892D01*
X79820D01*
X76392D01*
X75250Y-45750D01*
Y-44607D01*
X76392Y-43464D01*
X79820D01*
X72965Y-50320D02*
Y-45750D01*
X70679Y-43464D01*
X68394Y-45750D01*
Y-50320D01*
Y-46892D01*
X72965D01*
X66109Y-43464D02*
X61538D01*
X63824D01*
Y-50320D01*
X79820Y13694D02*
Y6838D01*
X75250D01*
X72965D02*
X70679D01*
X71822D01*
Y13694D01*
X72965Y12551D01*
X79820Y-4624D02*
Y-11480D01*
Y-8052D01*
X75250D01*
Y-4624D01*
Y-11480D01*
X72965D02*
X70679D01*
X71822D01*
Y-4624D01*
X72965Y-5767D01*
X-374456Y-250430D02*
X-379027D01*
X-376742D01*
Y-257285D01*
X-385883D02*
X-381312D01*
X-385883Y-252715D01*
Y-251572D01*
X-384740Y-250430D01*
X-382455D01*
X-381312Y-251572D01*
X-450972Y-249957D02*
X-455542D01*
X-453257D01*
Y-256813D01*
X-457828D02*
X-460113D01*
X-458970D01*
Y-249957D01*
X-457828Y-251099D01*
X-383693Y-202392D02*
Y-195536D01*
X-387120D01*
X-388263Y-196679D01*
Y-198964D01*
X-387120Y-200107D01*
X-383693D01*
X-385978D02*
X-388263Y-202392D01*
X-395119D02*
X-390548D01*
X-395119Y-197821D01*
Y-196679D01*
X-393976Y-195536D01*
X-391691D01*
X-390548Y-196679D01*
X-400832Y-202392D02*
Y-195536D01*
X-397404Y-198964D01*
X-401975D01*
X-434921Y-201068D02*
Y-194212D01*
X-438348D01*
X-439491Y-195355D01*
Y-197640D01*
X-438348Y-198783D01*
X-434921D01*
X-437206D02*
X-439491Y-201068D01*
X-446347D02*
X-441776D01*
X-446347Y-196497D01*
Y-195355D01*
X-445204Y-194212D01*
X-442919D01*
X-441776Y-195355D01*
X-448632D02*
X-449775Y-194212D01*
X-452060D01*
X-453203Y-195355D01*
Y-196497D01*
X-452060Y-197640D01*
X-450917D01*
X-452060D01*
X-453203Y-198783D01*
Y-199925D01*
X-452060Y-201068D01*
X-449775D01*
X-448632Y-199925D01*
X-481193Y-144680D02*
Y-137824D01*
X-477766D01*
X-476623Y-138967D01*
Y-143537D01*
X-477766Y-144680D01*
X-481193D01*
X-474338Y-137824D02*
X-472052D01*
X-473195D01*
Y-144680D01*
X-474338Y-143537D01*
X-411277Y-145093D02*
X-412419Y-143951D01*
Y-141665D01*
X-411277Y-140523D01*
X-406706D01*
X-405563Y-141665D01*
Y-143951D01*
X-406706Y-145093D01*
X-405563Y-147379D02*
Y-149664D01*
Y-148521D01*
X-412419D01*
X-411277Y-147379D01*
X-394733Y-145093D02*
X-395875Y-143951D01*
Y-141665D01*
X-394733Y-140523D01*
X-390162D01*
X-389019Y-141665D01*
Y-143951D01*
X-390162Y-145093D01*
X-389019Y-151949D02*
Y-147379D01*
X-393590Y-151949D01*
X-394733D01*
X-395875Y-150807D01*
Y-148521D01*
X-394733Y-147379D01*
X-378189Y-145093D02*
X-379331Y-143951D01*
Y-141665D01*
X-378189Y-140523D01*
X-373618D01*
X-372476Y-141665D01*
Y-143951D01*
X-373618Y-145093D01*
X-378189Y-147379D02*
X-379331Y-148521D01*
Y-150807D01*
X-378189Y-151949D01*
X-377046D01*
X-375903Y-150807D01*
Y-149664D01*
Y-150807D01*
X-374761Y-151949D01*
X-373618D01*
X-372476Y-150807D01*
Y-148521D01*
X-373618Y-147379D01*
X-361645Y-145093D02*
X-362787Y-143951D01*
Y-141665D01*
X-361645Y-140523D01*
X-357074D01*
X-355932Y-141665D01*
Y-143951D01*
X-357074Y-145093D01*
X-355932Y-150807D02*
X-362787D01*
X-359360Y-147379D01*
Y-151949D01*
X-428146Y-43678D02*
Y-36823D01*
X-431574D01*
X-432716Y-37965D01*
Y-40251D01*
X-431574Y-41393D01*
X-428146D01*
X-430431D02*
X-432716Y-43678D01*
X-435002Y-42536D02*
X-436144Y-43678D01*
X-438430D01*
X-439572Y-42536D01*
Y-37965D01*
X-438430Y-36823D01*
X-436144D01*
X-435002Y-37965D01*
Y-39108D01*
X-436144Y-40251D01*
X-439572D01*
X-428832Y-76947D02*
Y-70091D01*
X-432260D01*
X-433402Y-71233D01*
Y-73519D01*
X-432260Y-74661D01*
X-428832D01*
X-431117D02*
X-433402Y-76947D01*
X-435688D02*
X-437973D01*
X-436830D01*
Y-70091D01*
X-435688Y-71233D01*
X-428724Y-94534D02*
Y-87678D01*
X-432152D01*
X-433295Y-88821D01*
Y-91106D01*
X-432152Y-92248D01*
X-428724D01*
X-431010D02*
X-433295Y-94534D01*
X-435580D02*
X-437865D01*
X-436723D01*
Y-87678D01*
X-435580Y-88821D01*
X-445864Y-87678D02*
X-443579Y-88821D01*
X-441293Y-91106D01*
Y-93391D01*
X-442436Y-94534D01*
X-444721D01*
X-445864Y-93391D01*
Y-92248D01*
X-444721Y-91106D01*
X-441293D01*
X-428329Y-59947D02*
Y-53091D01*
X-431757D01*
X-432900Y-54234D01*
Y-56519D01*
X-431757Y-57661D01*
X-428329D01*
X-430615D02*
X-432900Y-59947D01*
X-435185Y-53091D02*
X-439756D01*
Y-54234D01*
X-435185Y-58804D01*
Y-59947D01*
X-428295Y-110604D02*
Y-103748D01*
X-431723D01*
X-432866Y-104891D01*
Y-107176D01*
X-431723Y-108319D01*
X-428295D01*
X-430580D02*
X-432866Y-110604D01*
X-435151D02*
X-437436D01*
X-436293D01*
Y-103748D01*
X-435151Y-104891D01*
X-445435Y-110604D02*
X-440864D01*
X-445435Y-106033D01*
Y-104891D01*
X-444292Y-103748D01*
X-442007D01*
X-440864Y-104891D01*
X-353033Y-37261D02*
Y-44117D01*
X-357604D01*
X-359889Y-38404D02*
X-361032Y-37261D01*
X-363317D01*
X-364460Y-38404D01*
Y-39546D01*
X-363317Y-40689D01*
X-362175D01*
X-363317D01*
X-364460Y-41832D01*
Y-42974D01*
X-363317Y-44117D01*
X-361032D01*
X-359889Y-42974D01*
X-353737Y-53536D02*
Y-60392D01*
X-358308D01*
X-365164D02*
X-360593D01*
X-365164Y-55821D01*
Y-54679D01*
X-364021Y-53536D01*
X-361736D01*
X-360593Y-54679D01*
X-353979Y-69436D02*
Y-76292D01*
X-358549D01*
X-360834D02*
X-363120D01*
X-361977D01*
Y-69436D01*
X-360834Y-70579D01*
X-353418Y-87322D02*
Y-94178D01*
X-357989D01*
X-364844Y-87322D02*
X-360274D01*
Y-90750D01*
X-362559Y-89607D01*
X-363702D01*
X-364844Y-90750D01*
Y-93035D01*
X-363702Y-94178D01*
X-361416D01*
X-360274Y-93035D01*
X-353953Y-104089D02*
Y-110945D01*
X-358523D01*
X-364236D02*
Y-104089D01*
X-360808Y-107517D01*
X-365379D01*
X-151796Y-121002D02*
Y-115289D01*
X-150653Y-114146D01*
X-148368D01*
X-147226Y-115289D01*
Y-121002D01*
X-144940Y-114146D02*
X-142655D01*
X-143798D01*
Y-121002D01*
X-144940Y-119859D01*
X-114339Y-240952D02*
Y-234096D01*
X-117766D01*
X-118909Y-235239D01*
Y-237524D01*
X-117766Y-238667D01*
X-114339D01*
X-116624D02*
X-118909Y-240952D01*
X-124622D02*
Y-234096D01*
X-121194Y-237524D01*
X-125765D01*
X-132621Y-240952D02*
X-128050D01*
X-132621Y-236381D01*
Y-235239D01*
X-131478Y-234096D01*
X-129193D01*
X-128050Y-235239D01*
X55516Y-73931D02*
Y-67075D01*
X52088D01*
X50946Y-68217D01*
Y-70503D01*
X52088Y-71645D01*
X55516D01*
X53231D02*
X50946Y-73931D01*
X48660Y-68217D02*
X47518Y-67075D01*
X45232D01*
X44090Y-68217D01*
Y-69360D01*
X45232Y-70503D01*
X46375D01*
X45232D01*
X44090Y-71645D01*
Y-72788D01*
X45232Y-73931D01*
X47518D01*
X48660Y-72788D01*
X37234Y-67075D02*
X41804D01*
Y-70503D01*
X39519Y-69360D01*
X38377D01*
X37234Y-70503D01*
Y-72788D01*
X38377Y-73931D01*
X40662D01*
X41804Y-72788D01*
X-74298Y-191584D02*
Y-197297D01*
X-75441Y-198440D01*
X-77726D01*
X-78868Y-197297D01*
Y-191584D01*
X-85724D02*
X-83439Y-192727D01*
X-81154Y-195012D01*
Y-197297D01*
X-82296Y-198440D01*
X-84582D01*
X-85724Y-197297D01*
Y-196154D01*
X-84582Y-195012D01*
X-81154D01*
X-30284Y-252682D02*
X-34855Y-259538D01*
Y-252682D02*
X-30284Y-259538D01*
X-41711D02*
X-37140D01*
X-41711Y-254968D01*
Y-253825D01*
X-40568Y-252682D01*
X-38283D01*
X-37140Y-253825D01*
X-33690Y-118477D02*
X-38261Y-125332D01*
Y-118477D02*
X-33690Y-125332D01*
X-40546D02*
X-42831D01*
X-41689D01*
Y-118477D01*
X-40546Y-119619D01*
X-57623Y-11360D02*
Y-17074D01*
X-58765Y-18216D01*
X-61051D01*
X-62193Y-17074D01*
Y-11360D01*
X-69049D02*
X-64479D01*
Y-14788D01*
X-66764Y-13646D01*
X-67906D01*
X-69049Y-14788D01*
Y-17074D01*
X-67906Y-18216D01*
X-65621D01*
X-64479Y-17074D01*
X-109572Y-132214D02*
Y-125359D01*
X-113000D01*
X-114143Y-126501D01*
Y-128786D01*
X-113000Y-129929D01*
X-109572D01*
X-111857D02*
X-114143Y-132214D01*
X-120998Y-125359D02*
X-118713Y-126501D01*
X-116428Y-128786D01*
Y-131072D01*
X-117571Y-132214D01*
X-119856D01*
X-120998Y-131072D01*
Y-129929D01*
X-119856Y-128786D01*
X-116428D01*
X-123284Y-126501D02*
X-124426Y-125359D01*
X-126712D01*
X-127854Y-126501D01*
Y-131072D01*
X-126712Y-132214D01*
X-124426D01*
X-123284Y-131072D01*
Y-126501D01*
X-109572Y-216288D02*
Y-209433D01*
X-113000D01*
X-114143Y-210575D01*
Y-212861D01*
X-113000Y-214003D01*
X-109572D01*
X-111857D02*
X-114143Y-216288D01*
X-120998Y-209433D02*
X-116428D01*
Y-212861D01*
X-118713Y-211718D01*
X-119856D01*
X-120998Y-212861D01*
Y-215146D01*
X-119856Y-216288D01*
X-117571D01*
X-116428Y-215146D01*
X-123284D02*
X-124426Y-216288D01*
X-126712D01*
X-127854Y-215146D01*
Y-210575D01*
X-126712Y-209433D01*
X-124426D01*
X-123284Y-210575D01*
Y-211718D01*
X-124426Y-212861D01*
X-127854D01*
X57248Y-190176D02*
Y-183320D01*
X53820D01*
X52677Y-184463D01*
Y-186748D01*
X53820Y-187891D01*
X57248D01*
X54962D02*
X52677Y-190176D01*
X45821Y-183320D02*
X50392D01*
Y-186748D01*
X48106Y-185606D01*
X46964D01*
X45821Y-186748D01*
Y-189034D01*
X46964Y-190176D01*
X49249D01*
X50392Y-189034D01*
X43536Y-184463D02*
X42393Y-183320D01*
X40108D01*
X38965Y-184463D01*
Y-185606D01*
X40108Y-186748D01*
X38965Y-187891D01*
Y-189034D01*
X40108Y-190176D01*
X42393D01*
X43536Y-189034D01*
Y-187891D01*
X42393Y-186748D01*
X43536Y-185606D01*
Y-184463D01*
X42393Y-186748D02*
X40108D01*
X29114Y-119058D02*
Y-112202D01*
X25687D01*
X24544Y-113345D01*
Y-115630D01*
X25687Y-116773D01*
X29114D01*
X26829D02*
X24544Y-119058D01*
X17688Y-112202D02*
X22259D01*
Y-115630D01*
X19973Y-114488D01*
X18831D01*
X17688Y-115630D01*
Y-117915D01*
X18831Y-119058D01*
X21116D01*
X22259Y-117915D01*
X15403Y-112202D02*
X10832D01*
Y-113345D01*
X15403Y-117915D01*
Y-119058D01*
X-109572Y-160154D02*
Y-153299D01*
X-113000D01*
X-114143Y-154441D01*
Y-156727D01*
X-113000Y-157869D01*
X-109572D01*
X-111857D02*
X-114143Y-160154D01*
X-120998Y-153299D02*
X-116428D01*
Y-156727D01*
X-118713Y-155584D01*
X-119856D01*
X-120998Y-156727D01*
Y-159012D01*
X-119856Y-160154D01*
X-117571D01*
X-116428Y-159012D01*
X-127854Y-153299D02*
X-125569Y-154441D01*
X-123284Y-156727D01*
Y-159012D01*
X-124426Y-160154D01*
X-126712D01*
X-127854Y-159012D01*
Y-157869D01*
X-126712Y-156727D01*
X-123284D01*
X-109572Y-174124D02*
Y-167269D01*
X-113000D01*
X-114143Y-168411D01*
Y-170697D01*
X-113000Y-171839D01*
X-109572D01*
X-111857D02*
X-114143Y-174124D01*
X-120998Y-167269D02*
X-116428D01*
Y-170697D01*
X-118713Y-169554D01*
X-119856D01*
X-120998Y-170697D01*
Y-172982D01*
X-119856Y-174124D01*
X-117571D01*
X-116428Y-172982D01*
X-127854Y-167269D02*
X-123284D01*
Y-170697D01*
X-125569Y-169554D01*
X-126712D01*
X-127854Y-170697D01*
Y-172982D01*
X-126712Y-174124D01*
X-124426D01*
X-123284Y-172982D01*
X-109572Y-188348D02*
Y-181493D01*
X-113000D01*
X-114143Y-182635D01*
Y-184921D01*
X-113000Y-186063D01*
X-109572D01*
X-111857D02*
X-114143Y-188348D01*
X-120998Y-181493D02*
X-116428D01*
Y-184921D01*
X-118713Y-183778D01*
X-119856D01*
X-120998Y-184921D01*
Y-187206D01*
X-119856Y-188348D01*
X-117571D01*
X-116428Y-187206D01*
X-126712Y-188348D02*
Y-181493D01*
X-123284Y-184921D01*
X-127854D01*
X-109572Y-202318D02*
Y-195463D01*
X-113000D01*
X-114143Y-196605D01*
Y-198890D01*
X-113000Y-200033D01*
X-109572D01*
X-111857D02*
X-114143Y-202318D01*
X-120998Y-195463D02*
X-116428D01*
Y-198890D01*
X-118713Y-197748D01*
X-119856D01*
X-120998Y-198890D01*
Y-201176D01*
X-119856Y-202318D01*
X-117571D01*
X-116428Y-201176D01*
X-123284Y-196605D02*
X-124426Y-195463D01*
X-126712D01*
X-127854Y-196605D01*
Y-197748D01*
X-126712Y-198890D01*
X-125569D01*
X-126712D01*
X-127854Y-200033D01*
Y-201176D01*
X-126712Y-202318D01*
X-124426D01*
X-123284Y-201176D01*
X-109572Y-146184D02*
Y-139329D01*
X-113000D01*
X-114143Y-140471D01*
Y-142757D01*
X-113000Y-143899D01*
X-109572D01*
X-111857D02*
X-114143Y-146184D01*
X-120998Y-139329D02*
X-116428D01*
Y-142757D01*
X-118713Y-141614D01*
X-119856D01*
X-120998Y-142757D01*
Y-145042D01*
X-119856Y-146184D01*
X-117571D01*
X-116428Y-145042D01*
X-127854Y-146184D02*
X-123284D01*
X-127854Y-141614D01*
Y-140471D01*
X-126712Y-139329D01*
X-124426D01*
X-123284Y-140471D01*
X-17341Y-146858D02*
Y-140003D01*
X-20768D01*
X-21911Y-141145D01*
Y-143431D01*
X-20768Y-144573D01*
X-17341D01*
X-19626D02*
X-21911Y-146858D01*
X-28767Y-140003D02*
X-24196D01*
Y-143431D01*
X-26481Y-142288D01*
X-27624D01*
X-28767Y-143431D01*
Y-145716D01*
X-27624Y-146858D01*
X-25339D01*
X-24196Y-145716D01*
X-31052Y-141145D02*
X-32195Y-140003D01*
X-34480D01*
X-35623Y-141145D01*
Y-145716D01*
X-34480Y-146858D01*
X-32195D01*
X-31052Y-145716D01*
Y-141145D01*
X5475Y-173465D02*
Y-166610D01*
X2047D01*
X904Y-167752D01*
Y-170038D01*
X2047Y-171180D01*
X5475D01*
X3190D02*
X904Y-173465D01*
X-4809D02*
Y-166610D01*
X-1381Y-170038D01*
X-5951D01*
X-8237Y-172323D02*
X-9379Y-173465D01*
X-11665D01*
X-12807Y-172323D01*
Y-167752D01*
X-11665Y-166610D01*
X-9379D01*
X-8237Y-167752D01*
Y-168895D01*
X-9379Y-170038D01*
X-12807D01*
X57673Y-160628D02*
Y-153772D01*
X54245D01*
X53102Y-154915D01*
Y-157200D01*
X54245Y-158343D01*
X57673D01*
X55388D02*
X53102Y-160628D01*
X47389D02*
Y-153772D01*
X50817Y-157200D01*
X46247D01*
X43961Y-154915D02*
X42819Y-153772D01*
X40533D01*
X39391Y-154915D01*
Y-156057D01*
X40533Y-157200D01*
X39391Y-158343D01*
Y-159485D01*
X40533Y-160628D01*
X42819D01*
X43961Y-159485D01*
Y-158343D01*
X42819Y-157200D01*
X43961Y-156057D01*
Y-154915D01*
X42819Y-157200D02*
X40533D01*
X4859Y-245148D02*
Y-238292D01*
X1431D01*
X288Y-239435D01*
Y-241720D01*
X1431Y-242862D01*
X4859D01*
X2573D02*
X288Y-245148D01*
X-5425D02*
Y-238292D01*
X-1997Y-241720D01*
X-6568D01*
X-8853Y-238292D02*
X-13424D01*
Y-239435D01*
X-8853Y-244005D01*
Y-245148D01*
X-109628Y-19718D02*
Y-12862D01*
X-113056D01*
X-114198Y-14005D01*
Y-16290D01*
X-113056Y-17433D01*
X-109628D01*
X-111913D02*
X-114198Y-19718D01*
X-119911D02*
Y-12862D01*
X-116484Y-16290D01*
X-121054D01*
X-127910Y-12862D02*
X-125625Y-14005D01*
X-123339Y-16290D01*
Y-18575D01*
X-124482Y-19718D01*
X-126767D01*
X-127910Y-18575D01*
Y-17433D01*
X-126767Y-16290D01*
X-123339D01*
X-109492Y-118244D02*
Y-111389D01*
X-112920D01*
X-114062Y-112531D01*
Y-114817D01*
X-112920Y-115959D01*
X-109492D01*
X-111777D02*
X-114062Y-118244D01*
X-119775D02*
Y-111389D01*
X-116347Y-114817D01*
X-120918D01*
X-127774Y-111389D02*
X-123203D01*
Y-114817D01*
X-125488Y-113674D01*
X-126631D01*
X-127774Y-114817D01*
Y-117102D01*
X-126631Y-118244D01*
X-124346D01*
X-123203Y-117102D01*
X-109628Y-33942D02*
Y-27086D01*
X-113056D01*
X-114198Y-28229D01*
Y-30514D01*
X-113056Y-31657D01*
X-109628D01*
X-111913D02*
X-114198Y-33942D01*
X-119911D02*
Y-27086D01*
X-116484Y-30514D01*
X-121054D01*
X-123339Y-28229D02*
X-124482Y-27086D01*
X-126767D01*
X-127910Y-28229D01*
Y-32799D01*
X-126767Y-33942D01*
X-124482D01*
X-123339Y-32799D01*
Y-28229D01*
X-109628Y-75344D02*
Y-68488D01*
X-113056D01*
X-114198Y-69631D01*
Y-71916D01*
X-113056Y-73059D01*
X-109628D01*
X-111913D02*
X-114198Y-75344D01*
X-116484Y-69631D02*
X-117626Y-68488D01*
X-119911D01*
X-121054Y-69631D01*
Y-70773D01*
X-119911Y-71916D01*
X-118769D01*
X-119911D01*
X-121054Y-73059D01*
Y-74201D01*
X-119911Y-75344D01*
X-117626D01*
X-116484Y-74201D01*
X-123339Y-68488D02*
X-127910D01*
Y-69631D01*
X-123339Y-74201D01*
Y-75344D01*
X-77659Y-214367D02*
X-78802Y-213225D01*
Y-210939D01*
X-77659Y-209797D01*
X-73089D01*
X-71946Y-210939D01*
Y-213225D01*
X-73089Y-214367D01*
X-77659Y-216653D02*
X-78802Y-217795D01*
Y-220080D01*
X-77659Y-221223D01*
X-76516D01*
X-75374Y-220080D01*
Y-218938D01*
Y-220080D01*
X-74231Y-221223D01*
X-73089D01*
X-71946Y-220080D01*
Y-217795D01*
X-73089Y-216653D01*
X-78802Y-228079D02*
Y-223508D01*
X-75374D01*
X-76516Y-225794D01*
Y-226936D01*
X-75374Y-228079D01*
X-73089D01*
X-71946Y-226936D01*
Y-224651D01*
X-73089Y-223508D01*
X-28803Y-213928D02*
X-29945Y-212786D01*
Y-210500D01*
X-28803Y-209358D01*
X-24232D01*
X-23090Y-210500D01*
Y-212786D01*
X-24232Y-213928D01*
X-28803Y-216213D02*
X-29945Y-217356D01*
Y-219641D01*
X-28803Y-220784D01*
X-27660D01*
X-26518Y-219641D01*
Y-218499D01*
Y-219641D01*
X-25375Y-220784D01*
X-24232D01*
X-23090Y-219641D01*
Y-217356D01*
X-24232Y-216213D01*
X-23090Y-226497D02*
X-29945D01*
X-26518Y-223069D01*
Y-227640D01*
X-71781Y-82398D02*
X-70639Y-83541D01*
Y-85826D01*
X-71781Y-86969D01*
X-76352D01*
X-77494Y-85826D01*
Y-83541D01*
X-76352Y-82398D01*
X-77494Y-75543D02*
Y-80113D01*
X-72924Y-75543D01*
X-71781D01*
X-70639Y-76685D01*
Y-78970D01*
X-71781Y-80113D01*
X-70639Y-73257D02*
Y-68687D01*
X-71781D01*
X-76352Y-73257D01*
X-77494D01*
X-22634Y-82702D02*
X-21491Y-83844D01*
Y-86130D01*
X-22634Y-87272D01*
X-27204D01*
X-28347Y-86130D01*
Y-83844D01*
X-27204Y-82702D01*
X-28347Y-75846D02*
Y-80417D01*
X-23776Y-75846D01*
X-22634D01*
X-21491Y-76989D01*
Y-79274D01*
X-22634Y-80417D01*
X-21491Y-68990D02*
X-22634Y-71276D01*
X-24919Y-73561D01*
X-27204D01*
X-28347Y-72418D01*
Y-70133D01*
X-27204Y-68990D01*
X-26061D01*
X-24919Y-70133D01*
Y-73561D01*
X55841Y-87536D02*
Y-80680D01*
X52414D01*
X51271Y-81823D01*
Y-84108D01*
X52414Y-85251D01*
X55841D01*
X53556D02*
X51271Y-87536D01*
X48986Y-81823D02*
X47843Y-80680D01*
X45558D01*
X44415Y-81823D01*
Y-82965D01*
X45558Y-84108D01*
X46700D01*
X45558D01*
X44415Y-85251D01*
Y-86393D01*
X45558Y-87536D01*
X47843D01*
X48986Y-86393D01*
X42130Y-87536D02*
X39845D01*
X40987D01*
Y-80680D01*
X42130Y-81823D01*
X55466Y-60013D02*
Y-53157D01*
X52038D01*
X50896Y-54300D01*
Y-56585D01*
X52038Y-57727D01*
X55466D01*
X53181D02*
X50896Y-60013D01*
X45183D02*
Y-53157D01*
X48611Y-56585D01*
X44040D01*
X38327Y-60013D02*
Y-53157D01*
X41755Y-56585D01*
X37184D01*
X23585Y11130D02*
Y17985D01*
X20157D01*
X19014Y16843D01*
Y14557D01*
X20157Y13415D01*
X23585D01*
X21300D02*
X19014Y11130D01*
X13301D02*
Y17985D01*
X16729Y14557D01*
X12158D01*
X9873Y16843D02*
X8730Y17985D01*
X6445D01*
X5303Y16843D01*
Y15700D01*
X6445Y14557D01*
X7588D01*
X6445D01*
X5303Y13415D01*
Y12272D01*
X6445Y11130D01*
X8730D01*
X9873Y12272D01*
X23239Y-16824D02*
Y-9968D01*
X19811D01*
X18668Y-11111D01*
Y-13396D01*
X19811Y-14539D01*
X23239D01*
X20953D02*
X18668Y-16824D01*
X16383Y-11111D02*
X15240Y-9968D01*
X12955D01*
X11812Y-11111D01*
Y-12254D01*
X12955Y-13396D01*
X14097D01*
X12955D01*
X11812Y-14539D01*
Y-15682D01*
X12955Y-16824D01*
X15240D01*
X16383Y-15682D01*
X6099Y-16824D02*
Y-9968D01*
X9527Y-13396D01*
X4956D01*
X-109628Y-6510D02*
Y346D01*
X-113056D01*
X-114198Y-797D01*
Y-3082D01*
X-113056Y-4225D01*
X-109628D01*
X-111913D02*
X-114198Y-6510D01*
X-119911D02*
Y346D01*
X-116484Y-3082D01*
X-121054D01*
X-123339Y-6510D02*
X-125625D01*
X-124482D01*
Y346D01*
X-123339Y-797D01*
X-109628Y-47406D02*
Y-40550D01*
X-113056D01*
X-114198Y-41693D01*
Y-43978D01*
X-113056Y-45121D01*
X-109628D01*
X-111913D02*
X-114198Y-47406D01*
X-116484Y-41693D02*
X-117626Y-40550D01*
X-119911D01*
X-121054Y-41693D01*
Y-42835D01*
X-119911Y-43978D01*
X-118769D01*
X-119911D01*
X-121054Y-45121D01*
Y-46263D01*
X-119911Y-47406D01*
X-117626D01*
X-116484Y-46263D01*
X-123339D02*
X-124482Y-47406D01*
X-126767D01*
X-127910Y-46263D01*
Y-41693D01*
X-126767Y-40550D01*
X-124482D01*
X-123339Y-41693D01*
Y-42835D01*
X-124482Y-43978D01*
X-127910D01*
X-109628Y-61628D02*
Y-54772D01*
X-113056D01*
X-114198Y-55915D01*
Y-58200D01*
X-113056Y-59343D01*
X-109628D01*
X-111913D02*
X-114198Y-61628D01*
X-116484Y-55915D02*
X-117626Y-54772D01*
X-119911D01*
X-121054Y-55915D01*
Y-57057D01*
X-119911Y-58200D01*
X-118769D01*
X-119911D01*
X-121054Y-59343D01*
Y-60485D01*
X-119911Y-61628D01*
X-117626D01*
X-116484Y-60485D01*
X-123339Y-55915D02*
X-124482Y-54772D01*
X-126767D01*
X-127910Y-55915D01*
Y-57057D01*
X-126767Y-58200D01*
X-127910Y-59343D01*
Y-60485D01*
X-126767Y-61628D01*
X-124482D01*
X-123339Y-60485D01*
Y-59343D01*
X-124482Y-58200D01*
X-123339Y-57057D01*
Y-55915D01*
X-124482Y-58200D02*
X-126767D01*
X159Y-41302D02*
Y-34446D01*
X-3269D01*
X-4411Y-35589D01*
Y-37874D01*
X-3269Y-39017D01*
X159D01*
X-2126D02*
X-4411Y-41302D01*
X-6697Y-35589D02*
X-7839Y-34446D01*
X-10124D01*
X-11267Y-35589D01*
Y-36731D01*
X-10124Y-37874D01*
X-8982D01*
X-10124D01*
X-11267Y-39017D01*
Y-40159D01*
X-10124Y-41302D01*
X-7839D01*
X-6697Y-40159D01*
X-13552Y-35589D02*
X-14695Y-34446D01*
X-16980D01*
X-18123Y-35589D01*
Y-36731D01*
X-16980Y-37874D01*
X-15838D01*
X-16980D01*
X-18123Y-39017D01*
Y-40159D01*
X-16980Y-41302D01*
X-14695D01*
X-13552Y-40159D01*
X56823Y-31077D02*
Y-24221D01*
X53395D01*
X52252Y-25364D01*
Y-27649D01*
X53395Y-28792D01*
X56823D01*
X54537D02*
X52252Y-31077D01*
X49967Y-25364D02*
X48824Y-24221D01*
X46539D01*
X45396Y-25364D01*
Y-26507D01*
X46539Y-27649D01*
X47681D01*
X46539D01*
X45396Y-28792D01*
Y-29934D01*
X46539Y-31077D01*
X48824D01*
X49967Y-29934D01*
X38540Y-31077D02*
X43111D01*
X38540Y-26507D01*
Y-25364D01*
X39683Y-24221D01*
X41968D01*
X43111Y-25364D01*
X-372975Y-237498D02*
X-374118Y-236355D01*
Y-234070D01*
X-372975Y-232928D01*
X-368405D01*
X-367262Y-234070D01*
Y-236355D01*
X-368405Y-237498D01*
X-374118Y-244354D02*
Y-239783D01*
X-370690D01*
X-371833Y-242069D01*
Y-243211D01*
X-370690Y-244354D01*
X-368405D01*
X-367262Y-243211D01*
Y-240926D01*
X-368405Y-239783D01*
M02*
