G04*
G04 #@! TF.GenerationSoftware,Altium Limited,Altium Designer,24.0.1 (36)*
G04*
G04 Layer_Physical_Order=1*
G04 Layer_Color=255*
%FSLAX44Y44*%
%MOMM*%
G71*
G04*
G04 #@! TF.SameCoordinates,E4E742BE-E936-4CAC-BADB-82586D2B27CE*
G04*
G04*
G04 #@! TF.FilePolarity,Positive*
G04*
G01*
G75*
%ADD10C,0.2000*%
G04:AMPARAMS|DCode=12|XSize=1mm|YSize=0.7mm|CornerRadius=0.175mm|HoleSize=0mm|Usage=FLASHONLY|Rotation=270.000|XOffset=0mm|YOffset=0mm|HoleType=Round|Shape=RoundedRectangle|*
%AMROUNDEDRECTD12*
21,1,1.0000,0.3500,0,0,270.0*
21,1,0.6500,0.7000,0,0,270.0*
1,1,0.3500,-0.1750,-0.3250*
1,1,0.3500,-0.1750,0.3250*
1,1,0.3500,0.1750,0.3250*
1,1,0.3500,0.1750,-0.3250*
%
%ADD12ROUNDEDRECTD12*%
%ADD13R,1.2000X1.6500*%
G04:AMPARAMS|DCode=14|XSize=1mm|YSize=0.7mm|CornerRadius=0.175mm|HoleSize=0mm|Usage=FLASHONLY|Rotation=180.000|XOffset=0mm|YOffset=0mm|HoleType=Round|Shape=RoundedRectangle|*
%AMROUNDEDRECTD14*
21,1,1.0000,0.3500,0,0,180.0*
21,1,0.6500,0.7000,0,0,180.0*
1,1,0.3500,-0.3250,0.1750*
1,1,0.3500,0.3250,0.1750*
1,1,0.3500,0.3250,-0.1750*
1,1,0.3500,-0.3250,-0.1750*
%
%ADD14ROUNDEDRECTD14*%
G04:AMPARAMS|DCode=15|XSize=0.8mm|YSize=1.2mm|CornerRadius=0.16mm|HoleSize=0mm|Usage=FLASHONLY|Rotation=90.000|XOffset=0mm|YOffset=0mm|HoleType=Round|Shape=RoundedRectangle|*
%AMROUNDEDRECTD15*
21,1,0.8000,0.8800,0,0,90.0*
21,1,0.4800,1.2000,0,0,90.0*
1,1,0.3200,0.4400,0.2400*
1,1,0.3200,0.4400,-0.2400*
1,1,0.3200,-0.4400,-0.2400*
1,1,0.3200,-0.4400,0.2400*
%
%ADD15ROUNDEDRECTD15*%
G04:AMPARAMS|DCode=16|XSize=2.06mm|YSize=2.02mm|CornerRadius=0.2525mm|HoleSize=0mm|Usage=FLASHONLY|Rotation=270.000|XOffset=0mm|YOffset=0mm|HoleType=Round|Shape=RoundedRectangle|*
%AMROUNDEDRECTD16*
21,1,2.0600,1.5150,0,0,270.0*
21,1,1.5550,2.0200,0,0,270.0*
1,1,0.5050,-0.7575,-0.7775*
1,1,0.5050,-0.7575,0.7775*
1,1,0.5050,0.7575,0.7775*
1,1,0.5050,0.7575,-0.7775*
%
%ADD16ROUNDEDRECTD16*%
G04:AMPARAMS|DCode=17|XSize=2.06mm|YSize=2.02mm|CornerRadius=0.2525mm|HoleSize=0mm|Usage=FLASHONLY|Rotation=0.000|XOffset=0mm|YOffset=0mm|HoleType=Round|Shape=RoundedRectangle|*
%AMROUNDEDRECTD17*
21,1,2.0600,1.5150,0,0,0.0*
21,1,1.5550,2.0200,0,0,0.0*
1,1,0.5050,0.7775,-0.7575*
1,1,0.5050,-0.7775,-0.7575*
1,1,0.5050,-0.7775,0.7575*
1,1,0.5050,0.7775,0.7575*
%
%ADD17ROUNDEDRECTD17*%
%ADD18R,2.7000X1.0000*%
%ADD19O,1.2000X0.3000*%
%ADD20R,2.7000X3.3000*%
%ADD21O,0.3000X1.2000*%
%ADD22R,3.1300X3.1300*%
%ADD23R,4.0000X5.5000*%
%ADD24R,2.0000X4.1000*%
%ADD25R,3.0000X1.0200*%
%ADD26R,7.5000X8.3300*%
%ADD27R,3.0000X1.2350*%
G04:AMPARAMS|DCode=28|XSize=0.81mm|YSize=0.9mm|CornerRadius=0.2025mm|HoleSize=0mm|Usage=FLASHONLY|Rotation=0.000|XOffset=0mm|YOffset=0mm|HoleType=Round|Shape=RoundedRectangle|*
%AMROUNDEDRECTD28*
21,1,0.8100,0.4950,0,0,0.0*
21,1,0.4050,0.9000,0,0,0.0*
1,1,0.4050,0.2025,-0.2475*
1,1,0.4050,-0.2025,-0.2475*
1,1,0.4050,-0.2025,0.2475*
1,1,0.4050,0.2025,0.2475*
%
%ADD28ROUNDEDRECTD28*%
%ADD46C,0.2540*%
%ADD47R,2.5000X2.0000*%
%ADD48R,2.3000X0.4000*%
G04:AMPARAMS|DCode=49|XSize=1.64mm|YSize=2.23mm|CornerRadius=0.41mm|HoleSize=0mm|Usage=FLASHONLY|Rotation=90.000|XOffset=0mm|YOffset=0mm|HoleType=Round|Shape=RoundedRectangle|*
%AMROUNDEDRECTD49*
21,1,1.6400,1.4100,0,0,90.0*
21,1,0.8200,2.2300,0,0,90.0*
1,1,0.8200,0.7050,0.4100*
1,1,0.8200,0.7050,-0.4100*
1,1,0.8200,-0.7050,-0.4100*
1,1,0.8200,-0.7050,0.4100*
%
%ADD49ROUNDEDRECTD49*%
%ADD50C,0.2032*%
%ADD51C,0.5080*%
%ADD52C,0.3810*%
%ADD53C,0.7620*%
%ADD54C,1.5000*%
%ADD55R,1.5000X1.5000*%
%ADD56C,0.9000*%
%ADD57C,0.4570*%
G36*
X-2590Y2590D02*
X-117100D01*
X-117905Y3571D01*
X-117733Y4435D01*
X-117369Y10000D01*
X-117733Y15565D01*
X-118821Y21034D01*
X-120614Y26314D01*
X-123080Y31316D01*
X-126178Y35952D01*
X-129855Y40145D01*
X-134048Y43822D01*
X-138684Y46920D01*
X-143686Y49386D01*
X-148966Y51179D01*
X-154436Y52267D01*
X-160000Y52631D01*
X-165564Y52267D01*
X-171034Y51179D01*
X-176314Y49386D01*
X-181316Y46920D01*
X-185952Y43822D01*
X-190145Y40145D01*
X-193822Y35952D01*
X-196920Y31316D01*
X-199386Y26314D01*
X-201179Y21034D01*
X-202267Y15565D01*
X-202631Y10000D01*
X-202267Y4435D01*
X-202095Y3571D01*
X-202900Y2590D01*
X-277410D01*
Y60000D01*
X-277607Y60991D01*
X-278169Y61831D01*
X-279009Y62393D01*
X-280000Y62590D01*
X-430000D01*
X-430991Y62393D01*
X-431831Y61831D01*
X-432393Y60991D01*
X-432590Y60000D01*
Y2590D01*
X-467100D01*
X-467905Y3571D01*
X-467733Y4435D01*
X-467369Y10000D01*
X-467733Y15565D01*
X-468821Y21034D01*
X-470614Y26314D01*
X-473080Y31316D01*
X-476178Y35952D01*
X-479855Y40145D01*
X-484048Y43822D01*
X-488684Y46920D01*
X-493686Y49386D01*
X-498966Y51179D01*
X-504436Y52267D01*
X-510000Y52631D01*
X-515564Y52267D01*
X-521034Y51179D01*
X-526314Y49386D01*
X-531316Y46920D01*
X-535952Y43822D01*
X-540145Y40145D01*
X-543822Y35952D01*
X-546920Y31316D01*
X-549386Y26314D01*
X-551179Y21034D01*
X-552267Y15565D01*
X-552631Y10000D01*
X-552267Y4435D01*
X-552095Y3571D01*
X-552900Y2590D01*
X-597410D01*
Y40000D01*
Y50000D01*
X-597607Y50991D01*
X-598169Y51831D01*
X-608169Y61831D01*
X-609009Y62393D01*
X-610000Y62590D01*
X-647410D01*
Y357410D01*
X-610000D01*
X-609009Y357607D01*
X-608169Y358169D01*
X-598169Y368169D01*
X-597607Y369009D01*
X-597410Y370000D01*
Y417410D01*
X-552900D01*
X-552095Y416428D01*
X-552267Y415564D01*
X-552631Y410000D01*
X-552267Y404436D01*
X-551179Y398966D01*
X-549386Y393686D01*
X-546920Y388684D01*
X-543822Y384048D01*
X-540145Y379855D01*
X-535952Y376178D01*
X-531316Y373080D01*
X-526314Y370614D01*
X-521034Y368821D01*
X-515564Y367733D01*
X-510000Y367369D01*
X-504436Y367733D01*
X-498966Y368821D01*
X-493686Y370614D01*
X-488684Y373080D01*
X-484048Y376178D01*
X-479855Y379855D01*
X-476178Y384048D01*
X-473080Y388684D01*
X-470614Y393686D01*
X-468821Y398966D01*
X-467733Y404436D01*
X-467369Y410000D01*
X-467733Y415564D01*
X-467846Y416130D01*
X-467040Y417112D01*
X-202960D01*
X-202154Y416130D01*
X-202267Y415564D01*
X-202631Y410000D01*
X-202267Y404436D01*
X-201179Y398966D01*
X-199386Y393686D01*
X-196920Y388684D01*
X-193822Y384048D01*
X-190145Y379855D01*
X-185952Y376178D01*
X-181316Y373080D01*
X-176314Y370614D01*
X-171034Y368821D01*
X-165564Y367733D01*
X-160000Y367369D01*
X-154436Y367733D01*
X-148966Y368821D01*
X-143686Y370614D01*
X-138684Y373080D01*
X-134048Y376178D01*
X-129855Y379855D01*
X-126178Y384048D01*
X-123080Y388684D01*
X-120614Y393686D01*
X-118821Y398966D01*
X-117733Y404436D01*
X-117369Y410000D01*
X-117733Y415564D01*
X-117905Y416428D01*
X-117100Y417410D01*
X-2590D01*
Y2590D01*
D02*
G37*
%LPC*%
G36*
X-200712Y371537D02*
X-319076D01*
X-320315Y371291D01*
X-321365Y370589D01*
X-333358Y358596D01*
X-334683Y358048D01*
X-335748Y356983D01*
X-336324Y355591D01*
Y354085D01*
X-335748Y352693D01*
X-334683Y351628D01*
X-333291Y351052D01*
X-331785D01*
X-330393Y351628D01*
X-329328Y352693D01*
X-328780Y354018D01*
X-317735Y365063D01*
X-229468D01*
X-229215Y363793D01*
X-229628Y363622D01*
X-230159Y363091D01*
X-230563Y363059D01*
X-230772Y363057D01*
X-230899Y363002D01*
X-308934D01*
X-309925Y362805D01*
X-310765Y362243D01*
X-318934Y354075D01*
X-319495Y353234D01*
X-319692Y352243D01*
Y339100D01*
X-319747Y338972D01*
X-319750Y338740D01*
X-319757Y338563D01*
X-319777Y338363D01*
X-320312Y337828D01*
X-320888Y336437D01*
Y334931D01*
X-320312Y333539D01*
X-319247Y332474D01*
X-317855Y331898D01*
X-316349D01*
X-314958Y332474D01*
X-313893Y333539D01*
X-313316Y334931D01*
Y336437D01*
X-313893Y337828D01*
X-314424Y338359D01*
X-314455Y338763D01*
X-314458Y338972D01*
X-314513Y339100D01*
Y351171D01*
X-307861Y357822D01*
X-230899D01*
X-230772Y357768D01*
X-230539Y357765D01*
X-230363Y357757D01*
X-230163Y357738D01*
X-229628Y357202D01*
X-228236Y356626D01*
X-226730D01*
X-225339Y357202D01*
X-224274Y358268D01*
X-223697Y359659D01*
Y361165D01*
X-224274Y362557D01*
X-225339Y363622D01*
X-225752Y363793D01*
X-225499Y365063D01*
X-202053D01*
X-187253Y350263D01*
X-186203Y349561D01*
X-184964Y349315D01*
X-170024D01*
X-168699Y348766D01*
X-167193D01*
X-165801Y349342D01*
X-164736Y350407D01*
X-164160Y351799D01*
Y353305D01*
X-164736Y354697D01*
X-165801Y355762D01*
X-167193Y356338D01*
X-168699D01*
X-170024Y355789D01*
X-183623D01*
X-198423Y370589D01*
X-199473Y371291D01*
X-200712Y371537D01*
D02*
G37*
G36*
X-430065Y354897D02*
X-431572D01*
X-432963Y354320D01*
X-434028Y353255D01*
X-434605Y351864D01*
Y350358D01*
X-434028Y348966D01*
X-432963Y347901D01*
X-431572Y347325D01*
X-430820D01*
X-430513Y347061D01*
X-430363Y346915D01*
X-430234Y346864D01*
X-425325Y341955D01*
X-424485Y341393D01*
X-423494Y341196D01*
X-330433D01*
X-330305Y341142D01*
X-330073Y341138D01*
X-329896Y341131D01*
X-329696Y341112D01*
X-329161Y340576D01*
X-327770Y340000D01*
X-326264D01*
X-324872Y340576D01*
X-323807Y341642D01*
X-323231Y343033D01*
Y344539D01*
X-323807Y345931D01*
X-324872Y346996D01*
X-326264Y347572D01*
X-327770D01*
X-329161Y346996D01*
X-329692Y346465D01*
X-330096Y346433D01*
X-330305Y346431D01*
X-330433Y346376D01*
X-422421D01*
X-426572Y350526D01*
X-426623Y350655D01*
X-426786Y350823D01*
X-426905Y350952D01*
X-427033Y351107D01*
Y351864D01*
X-427609Y353255D01*
X-428674Y354320D01*
X-430065Y354897D01*
D02*
G37*
G36*
X-23589Y382467D02*
X-117162D01*
X-118048Y382291D01*
X-118799Y381790D01*
X-137328Y363261D01*
X-137829Y362510D01*
X-138006Y361624D01*
Y343421D01*
X-138524Y343100D01*
X-139276Y342942D01*
X-140426Y344093D01*
X-141267Y344654D01*
X-142258Y344851D01*
X-270298D01*
X-279558Y354111D01*
X-279563Y354114D01*
X-279566Y354119D01*
X-279984Y354395D01*
X-280398Y354673D01*
X-280404Y354674D01*
X-280409Y354677D01*
X-280900Y354772D01*
X-281390Y354870D01*
X-281395Y354869D01*
X-281401Y354870D01*
X-305716Y354761D01*
X-306211D01*
X-307190Y354566D01*
X-307996D01*
Y354033D01*
X-308043Y354002D01*
X-310033Y352011D01*
X-310595Y351171D01*
X-310792Y350180D01*
X-310792Y322551D01*
X-361102Y272240D01*
X-395567D01*
X-396246Y273510D01*
X-396077Y273762D01*
X-368060D01*
X-367069Y273959D01*
X-366448Y274374D01*
X-366024D01*
Y274827D01*
X-365667Y275361D01*
X-365470Y276352D01*
Y287313D01*
X-365667Y288304D01*
X-366024Y288838D01*
Y289146D01*
X-366231D01*
X-367069Y289706D01*
X-368060Y289903D01*
X-417375Y289903D01*
X-418366Y289706D01*
X-419207Y289144D01*
X-422584Y285766D01*
X-423146Y284926D01*
X-423343Y283935D01*
Y186746D01*
X-423146Y185755D01*
X-422584Y184915D01*
X-398399Y160729D01*
X-397559Y160167D01*
X-396567Y159970D01*
X-318784D01*
X-317793Y160167D01*
X-316953Y160729D01*
X-316391Y161569D01*
X-316194Y162560D01*
Y181966D01*
X-316391Y182957D01*
X-316953Y183797D01*
X-353788Y220632D01*
Y221866D01*
X-355370D01*
X-356274Y222046D01*
X-398383D01*
X-401030Y224693D01*
Y256284D01*
X-400596Y257374D01*
X-399152D01*
X-398540Y257252D01*
X-388310D01*
Y251341D01*
X-388064Y250102D01*
X-387362Y249052D01*
X-374479Y236169D01*
X-373429Y235467D01*
X-372190Y235221D01*
X-362261D01*
X-315942Y188902D01*
X-314892Y188201D01*
X-313653Y187954D01*
X-273383D01*
X-242435Y157006D01*
X-241384Y156304D01*
X-240145Y156058D01*
X-222822D01*
X-215065Y148301D01*
Y142800D01*
X-214752Y141225D01*
X-213860Y139890D01*
X-212525Y138998D01*
X-210950Y138685D01*
X-186408D01*
X-184694Y140398D01*
X-183802Y141733D01*
X-183489Y143308D01*
Y149808D01*
X-183802Y151383D01*
X-184694Y152718D01*
X-186029Y153610D01*
X-187604Y153923D01*
X-191104D01*
X-192679Y153610D01*
X-194014Y152718D01*
X-194906Y151383D01*
X-195219Y149808D01*
Y149795D01*
X-203433D01*
X-203648Y150875D01*
X-204540Y152210D01*
X-205875Y153102D01*
X-207450Y153415D01*
X-210950D01*
X-211011Y153403D01*
X-221335Y163727D01*
X-221335Y171507D01*
X-211668Y181173D01*
X-191275D01*
X-186930Y185518D01*
X-186071Y186804D01*
X-185770Y188320D01*
Y193120D01*
X-186071Y194636D01*
X-186930Y195922D01*
X-188216Y196780D01*
X-189732Y197082D01*
X-198532D01*
X-203335Y201885D01*
Y210773D01*
X-200998Y213109D01*
X-200998Y213109D01*
X-200998Y213109D01*
X-199805Y213167D01*
X-188382D01*
X-182943Y207727D01*
Y191700D01*
X-182765Y190808D01*
X-182260Y190052D01*
X-177853Y185645D01*
X-178193Y185136D01*
X-178494Y183620D01*
Y178820D01*
X-178193Y177304D01*
X-177334Y176018D01*
X-176048Y175159D01*
X-174532Y174858D01*
X-165732D01*
X-164216Y175159D01*
X-162930Y176018D01*
X-162071Y177304D01*
X-161770Y178820D01*
Y183620D01*
X-162071Y185136D01*
X-162930Y186422D01*
X-164216Y187281D01*
X-165732Y187582D01*
X-173111D01*
X-173181Y187650D01*
X-173230Y187668D01*
X-173254Y187715D01*
X-173365Y187749D01*
X-178281Y192666D01*
Y208692D01*
X-178459Y209584D01*
X-178964Y210340D01*
X-185769Y217145D01*
X-186525Y217651D01*
X-187417Y217828D01*
X-203150D01*
X-203829Y219098D01*
X-203648Y219368D01*
X-203335Y220943D01*
X-202153Y221996D01*
X-201334Y221960D01*
X-200048Y221101D01*
X-198532Y220800D01*
X-189732D01*
X-188216Y221101D01*
X-186930Y221960D01*
X-186071Y223246D01*
X-185770Y224762D01*
Y229562D01*
X-186071Y231078D01*
X-186930Y232364D01*
X-188022Y233093D01*
X-187965Y233928D01*
X-187811Y234363D01*
X-185224D01*
X-184233Y234560D01*
X-183393Y235122D01*
X-182831Y235962D01*
X-182634Y236953D01*
Y246473D01*
X-182831Y247464D01*
X-183393Y248304D01*
X-184829Y249740D01*
X-184831Y249741D01*
X-184832Y249743D01*
X-185250Y250022D01*
X-185669Y250302D01*
X-185671Y250302D01*
X-185673Y250303D01*
X-186168Y250401D01*
X-186660Y250499D01*
X-186662Y250498D01*
X-186665Y250499D01*
X-202408Y250470D01*
X-203307Y251367D01*
Y262612D01*
X-203504Y263603D01*
X-204065Y264443D01*
X-219745Y280123D01*
Y313806D01*
X-217909Y315642D01*
X-131733D01*
X-130742Y315840D01*
X-129902Y316401D01*
X-120903Y325400D01*
X-120341Y326240D01*
X-120144Y327231D01*
Y336324D01*
X-117255Y339213D01*
X-117138Y339164D01*
Y339164D01*
X-115490Y340812D01*
X-98445D01*
X-97178Y339545D01*
X-97178Y332974D01*
X-96981Y331983D01*
X-96419Y331143D01*
X-95420Y330143D01*
X-94579Y329581D01*
X-93588Y329384D01*
X-85029Y329384D01*
X-84038Y329581D01*
X-83198Y330143D01*
X-82597Y330744D01*
X-82597Y330744D01*
X-82035Y331584D01*
X-81838Y332575D01*
Y344164D01*
X-81562Y344500D01*
X-71039D01*
X-64706Y338167D01*
Y292206D01*
X-64509Y291215D01*
X-63947Y290375D01*
X-62862Y289289D01*
X-62021Y288728D01*
X-61030Y288531D01*
X-51856Y288531D01*
X-50865Y288728D01*
X-50865Y288728D01*
X-50865Y288728D01*
X-50442Y289010D01*
X-50024Y289289D01*
X-49768Y289546D01*
X-49768Y289546D01*
X-49432Y290048D01*
X-49206Y290386D01*
X-49206Y290386D01*
X-49206Y290386D01*
X-49009Y291377D01*
X-49009Y341780D01*
X-49206Y342771D01*
X-49768Y343611D01*
X-52792Y346635D01*
X-52881Y346695D01*
X-52941Y346784D01*
X-75525Y369368D01*
X-74998Y370638D01*
X-33759D01*
X-19088Y355968D01*
Y353447D01*
X-28084D01*
Y335907D01*
X-10544D01*
Y353447D01*
X-14460D01*
Y356926D01*
X-14636Y357812D01*
X-15137Y358563D01*
X-31163Y374589D01*
X-31914Y375091D01*
X-32800Y375267D01*
X-112505D01*
X-113391Y375091D01*
X-114141Y374589D01*
X-128997Y359733D01*
X-129499Y358982D01*
X-129675Y358097D01*
Y352446D01*
X-129684Y352443D01*
X-130749Y351377D01*
X-131325Y349986D01*
Y348480D01*
X-130749Y347088D01*
X-129684Y346023D01*
X-128293Y345447D01*
X-128186D01*
X-127660Y344177D01*
X-130820Y341017D01*
X-131381Y340176D01*
X-131578Y339185D01*
X-131694Y339004D01*
X-131812Y338873D01*
X-132848Y338468D01*
X-133317Y338777D01*
X-133377Y338911D01*
Y360666D01*
X-116204Y377839D01*
X-24548D01*
X-8562Y361853D01*
Y330762D01*
X-13479Y325845D01*
X-13929Y326295D01*
X-15929Y327449D01*
X-18159Y328047D01*
X-20468D01*
X-22699Y327449D01*
X-24699Y326295D01*
X-26332Y324662D01*
X-27486Y322662D01*
X-28084Y320432D01*
Y318122D01*
X-27486Y315892D01*
X-26332Y313892D01*
X-24699Y312259D01*
X-22699Y311105D01*
X-20468Y310507D01*
X-18159D01*
X-15929Y311105D01*
X-13929Y312259D01*
X-12296Y313892D01*
X-11142Y315892D01*
X-10544Y318122D01*
Y320432D01*
X-10925Y321853D01*
X-4611Y328166D01*
X-4110Y328917D01*
X-3934Y329803D01*
Y362812D01*
X-4110Y363698D01*
X-4611Y364449D01*
X-21952Y381790D01*
X-22703Y382291D01*
X-23589Y382467D01*
D02*
G37*
G36*
X-367289Y325170D02*
X-453356D01*
X-454347Y324973D01*
X-455187Y324411D01*
X-456279Y323320D01*
X-456841Y322479D01*
X-457038Y321488D01*
Y252780D01*
X-492520D01*
X-493511Y252583D01*
X-494351Y252021D01*
X-504261Y242112D01*
X-519797D01*
X-520788Y241915D01*
X-521628Y241353D01*
X-522545Y240436D01*
X-523107Y239596D01*
X-523304Y238605D01*
Y218209D01*
X-523107Y217218D01*
X-522545Y216378D01*
X-521506Y215339D01*
X-520666Y214777D01*
X-519675Y214580D01*
X-508826Y214580D01*
Y183570D01*
X-560578D01*
X-561569Y183373D01*
X-562409Y182811D01*
X-563822Y181398D01*
X-564384Y180558D01*
X-564581Y179567D01*
Y150473D01*
X-564384Y149482D01*
X-563822Y148642D01*
X-562393Y147213D01*
X-561753Y146785D01*
X-561822Y145908D01*
X-561964Y145515D01*
X-569331D01*
X-569459Y145570D01*
X-569691Y145573D01*
X-569868Y145581D01*
X-570067Y145600D01*
X-570602Y146135D01*
X-571994Y146711D01*
X-573500D01*
X-574892Y146135D01*
X-575957Y145070D01*
X-576533Y143679D01*
Y142172D01*
X-575957Y140781D01*
X-574892Y139716D01*
X-573500Y139139D01*
X-571994D01*
X-570602Y139716D01*
X-570071Y140247D01*
X-569668Y140278D01*
X-569459Y140281D01*
X-569331Y140336D01*
X-566066D01*
X-565914Y139128D01*
X-567306Y138552D01*
X-568371Y137487D01*
X-568947Y136096D01*
Y134589D01*
X-568371Y133198D01*
X-567306Y132133D01*
X-565914Y131556D01*
X-564408D01*
X-563017Y132133D01*
X-562547Y132603D01*
X-562129Y132633D01*
X-561917Y132636D01*
X-561789Y132691D01*
X-537293D01*
X-531526Y126924D01*
Y114238D01*
X-531644Y113644D01*
X-531526Y113050D01*
Y109238D01*
X-531644Y108644D01*
X-531526Y108050D01*
Y106927D01*
X-529581Y104982D01*
X-528779D01*
X-527784Y104784D01*
X-518784D01*
X-517789Y104982D01*
X-514885D01*
X-512934Y106933D01*
Y114217D01*
X-512857Y114294D01*
X-481747D01*
X-481747Y104266D01*
X-478751Y101269D01*
X-478513Y100914D01*
X-478159Y100677D01*
X-477342Y99861D01*
X-476172D01*
X-475784Y99784D01*
X-466784D01*
X-466396Y99861D01*
X-462812D01*
X-456014Y106658D01*
X-456078Y106722D01*
Y110188D01*
X-455053Y111213D01*
X-445597D01*
X-443421Y109036D01*
Y85988D01*
X-443224Y84997D01*
X-442662Y84157D01*
X-440622Y82117D01*
X-439782Y81555D01*
X-438791Y81358D01*
X-437653D01*
X-437264Y81281D01*
X-433764D01*
X-433375Y81358D01*
X-364376D01*
X-363385Y81555D01*
X-362545Y82117D01*
X-358859Y85802D01*
X-257830D01*
X-257214Y85925D01*
X-256839Y85999D01*
X-256839Y85999D01*
X-256838Y85999D01*
X-256364Y86316D01*
X-255998Y86561D01*
X-255739Y86820D01*
X-255739Y86820D01*
X-255739Y86820D01*
X-255438Y87270D01*
X-255177Y87660D01*
X-255177Y87660D01*
X-255177Y87661D01*
X-255074Y88182D01*
X-254980Y88651D01*
X-254980Y88651D01*
X-254980Y88652D01*
Y110222D01*
X-255177Y111213D01*
X-255739Y112053D01*
X-257088Y113403D01*
X-257929Y113964D01*
X-258920Y114161D01*
X-267117D01*
X-268108Y113964D01*
X-268948Y113403D01*
X-270333Y112018D01*
X-270895Y111178D01*
X-271092Y110187D01*
Y109818D01*
X-277736Y103174D01*
X-304331D01*
X-307788Y106630D01*
Y107734D01*
X-309136D01*
X-309239Y107803D01*
X-310230Y108000D01*
X-352286D01*
X-365497Y121211D01*
X-366337Y121773D01*
X-367328Y121970D01*
X-422105Y121970D01*
X-460614Y160478D01*
X-460109Y161748D01*
X-458267D01*
X-421507Y124988D01*
X-420666Y124427D01*
X-419675Y124230D01*
X-350156D01*
X-341951Y116025D01*
X-341111Y115463D01*
X-340120Y115266D01*
X-274842Y115266D01*
X-273851Y115463D01*
X-273011Y116025D01*
X-272503Y116533D01*
X-271941Y117373D01*
X-271744Y118364D01*
X-271744Y130766D01*
X-271941Y131757D01*
X-272503Y132598D01*
X-273562Y133657D01*
X-274403Y134219D01*
X-275394Y134416D01*
X-301186D01*
X-312870Y146339D01*
X-312881Y146346D01*
X-312889Y146357D01*
X-313298Y146631D01*
X-313705Y146909D01*
X-313718Y146911D01*
X-313729Y146919D01*
X-314212Y147015D01*
X-314694Y147116D01*
X-314707Y147113D01*
X-314720Y147116D01*
X-398982Y147116D01*
X-462593Y210727D01*
Y218491D01*
X-462791Y219482D01*
X-463352Y220322D01*
X-463788Y220758D01*
Y221866D01*
X-465121D01*
X-465281Y221973D01*
X-466272Y222170D01*
X-475960D01*
X-475960Y238795D01*
X-443465D01*
X-442474Y238992D01*
X-441634Y239553D01*
X-440464Y240724D01*
X-439902Y241564D01*
X-439705Y242555D01*
X-439705Y306191D01*
X-438859Y307036D01*
X-367597Y307036D01*
X-366605Y307233D01*
X-365765Y307795D01*
X-364705Y308855D01*
X-364143Y309695D01*
X-363946Y310686D01*
Y321827D01*
X-364143Y322818D01*
X-364705Y323658D01*
X-365458Y324411D01*
X-366298Y324973D01*
X-367289Y325170D01*
D02*
G37*
G36*
X-188584Y312525D02*
X-212369D01*
X-212865Y312426D01*
X-213123D01*
X-213360Y312328D01*
X-213856Y312229D01*
X-214276Y311948D01*
X-214514Y311850D01*
X-214696Y311668D01*
X-215116Y311387D01*
X-215397Y310967D01*
X-215579Y310785D01*
X-215677Y310547D01*
X-215958Y310127D01*
X-216057Y309631D01*
X-216155Y309393D01*
Y309136D01*
X-216254Y308640D01*
X-216155Y308144D01*
Y307887D01*
X-216057Y307650D01*
X-215958Y307154D01*
X-215677Y306733D01*
X-215579Y306496D01*
X-215397Y306314D01*
X-215116Y305893D01*
X-214696Y305613D01*
X-214514Y305431D01*
X-214276Y305332D01*
X-213856Y305051D01*
X-213360Y304953D01*
X-213123Y304854D01*
X-212865D01*
X-212369Y304756D01*
X-190193D01*
X-180229Y294792D01*
Y264749D01*
X-179934Y263263D01*
X-179092Y262002D01*
X-166995Y249906D01*
X-167805Y248919D01*
X-168029Y249069D01*
X-169604Y249383D01*
X-173104D01*
X-174679Y249069D01*
X-176014Y248177D01*
X-176906Y246842D01*
X-177219Y245268D01*
Y238768D01*
X-176906Y237193D01*
X-176014Y235858D01*
X-174679Y234966D01*
X-174007Y234832D01*
X-173998Y234442D01*
X-173944Y234319D01*
Y231252D01*
X-173747Y230261D01*
X-173185Y229421D01*
X-172722Y228957D01*
Y224360D01*
X-172776Y224238D01*
X-172782Y224024D01*
X-174532D01*
X-176048Y223722D01*
X-177334Y222864D01*
X-178193Y221578D01*
X-178494Y220062D01*
Y215262D01*
X-178193Y213746D01*
X-177334Y212460D01*
X-176048Y211602D01*
X-174532Y211300D01*
X-165732D01*
X-164216Y211602D01*
X-162930Y212460D01*
X-162071Y213746D01*
X-161770Y215262D01*
Y220062D01*
X-162071Y221578D01*
X-162930Y222864D01*
X-164216Y223722D01*
X-165732Y224024D01*
X-166694Y224986D01*
Y235858D01*
X-165007Y237545D01*
X-136730D01*
X-128132Y228946D01*
X-128114Y228904D01*
X-128188Y228509D01*
X-128332Y228135D01*
X-128720Y227634D01*
X-137166D01*
X-138157Y227437D01*
X-138997Y226875D01*
X-142626Y223247D01*
X-143625Y223684D01*
X-143817Y223852D01*
Y227268D01*
X-144130Y228842D01*
X-145022Y230177D01*
X-146357Y231069D01*
X-147932Y231383D01*
X-154432D01*
X-156007Y231069D01*
X-157342Y230177D01*
X-158234Y228842D01*
X-158547Y227268D01*
Y223768D01*
X-158234Y222193D01*
X-157342Y220858D01*
X-156007Y219966D01*
X-154432Y219653D01*
X-154158D01*
X-154152Y219439D01*
X-154098Y219316D01*
Y187919D01*
X-154152Y187796D01*
X-154162Y187405D01*
X-154833Y187272D01*
X-156168Y186380D01*
X-157060Y185045D01*
X-157373Y183470D01*
Y178115D01*
X-157393Y178091D01*
X-157798Y177670D01*
X-157848Y177543D01*
X-157888Y177502D01*
X-157978Y177437D01*
X-157983Y177408D01*
X-172781Y162610D01*
X-203764D01*
X-204343Y163249D01*
X-204540Y164560D01*
X-203648Y165895D01*
X-203335Y167470D01*
Y173970D01*
X-203648Y175545D01*
X-204540Y176880D01*
X-205875Y177772D01*
X-207450Y178085D01*
X-210950D01*
X-212525Y177772D01*
X-213860Y176880D01*
X-214752Y175545D01*
X-215065Y173970D01*
Y168067D01*
X-215065Y166797D01*
X-215065Y166797D01*
Y165415D01*
X-207839Y158189D01*
X-206999Y157627D01*
X-206008Y157430D01*
X-171708D01*
X-170717Y157627D01*
X-169877Y158189D01*
X-156733Y171332D01*
X-156733Y171332D01*
Y171332D01*
X-155288Y172777D01*
X-155161Y172827D01*
X-155132Y172855D01*
X-144578D01*
X-141860Y175573D01*
Y184539D01*
X-140998Y185401D01*
X-132344D01*
X-132256Y185489D01*
X-132044Y185347D01*
X-131863Y185166D01*
X-131628Y185069D01*
X-131416Y184927D01*
X-131302Y184904D01*
X-130715Y184513D01*
X-130323Y183926D01*
X-130301Y183812D01*
X-130159Y183600D01*
X-130061Y183365D01*
X-129881Y183184D01*
X-129739Y182972D01*
X-127105Y180338D01*
X-118366Y171599D01*
X-117526Y171038D01*
X-116535Y170840D01*
X-102165D01*
X-100178Y168853D01*
Y116177D01*
X-112167Y104187D01*
X-112729Y103347D01*
X-112926Y102356D01*
Y90545D01*
X-112729Y89554D01*
X-112167Y88714D01*
X-110721Y87268D01*
X-109881Y86707D01*
X-108890Y86510D01*
X-89508D01*
X-88517Y86707D01*
X-87677Y87268D01*
X-87677Y87268D01*
X-85899Y89046D01*
X-85899Y89046D01*
X-85337Y89886D01*
X-85140Y90877D01*
Y106928D01*
X-85140Y154144D01*
Y178440D01*
X-85337Y179431D01*
X-85899Y180271D01*
X-87545Y181917D01*
X-87545Y181917D01*
X-88385Y182479D01*
X-89376Y182676D01*
X-112599D01*
X-115005Y185082D01*
X-114757Y186327D01*
X-114502Y186433D01*
X-113437Y187498D01*
X-112860Y188889D01*
Y189641D01*
X-112597Y189948D01*
X-112451Y190098D01*
X-112400Y190227D01*
X-99751Y202875D01*
X-51075D01*
X-50084Y203072D01*
X-49244Y203634D01*
X-37790Y215087D01*
X-27699D01*
X-27486Y214292D01*
X-26332Y212292D01*
X-24699Y210659D01*
X-22699Y209505D01*
X-20468Y208907D01*
X-18159D01*
X-15929Y209505D01*
X-13929Y210659D01*
X-12296Y212292D01*
X-11142Y214292D01*
X-10544Y216522D01*
Y218832D01*
X-11142Y221062D01*
X-12296Y223062D01*
X-13929Y224695D01*
X-15929Y225849D01*
X-18159Y226447D01*
X-20468D01*
X-22699Y225849D01*
X-24699Y224695D01*
X-26332Y223062D01*
X-27486Y221062D01*
X-27699Y220267D01*
X-38863D01*
X-39854Y220070D01*
X-40694Y219508D01*
X-52148Y208055D01*
X-100824D01*
X-101815Y207858D01*
X-102655Y207296D01*
X-116062Y193889D01*
X-116191Y193838D01*
X-116358Y193675D01*
X-116488Y193556D01*
X-116643Y193428D01*
X-117400D01*
X-118791Y192852D01*
X-119856Y191787D01*
X-119962Y191532D01*
X-121208Y191284D01*
X-128828Y198905D01*
X-128828Y209587D01*
X-127558Y209839D01*
X-127287Y209183D01*
X-126221Y208118D01*
X-124830Y207542D01*
X-123324D01*
X-121932Y208118D01*
X-120867Y209183D01*
X-120291Y210574D01*
Y211024D01*
X-60250D01*
X-59259Y211221D01*
X-58419Y211783D01*
X-29714Y240487D01*
X-27699D01*
X-27486Y239692D01*
X-26332Y237692D01*
X-24699Y236059D01*
X-22699Y234905D01*
X-20468Y234307D01*
X-18159D01*
X-15929Y234905D01*
X-13929Y236059D01*
X-12296Y237692D01*
X-11142Y239692D01*
X-10544Y241922D01*
Y244232D01*
X-11142Y246462D01*
X-12296Y248462D01*
X-13929Y250095D01*
X-15929Y251249D01*
X-18159Y251847D01*
X-20468D01*
X-22699Y251249D01*
X-24699Y250095D01*
X-26332Y248462D01*
X-27486Y246462D01*
X-27699Y245667D01*
X-30787D01*
X-31778Y245470D01*
X-32618Y244908D01*
X-61323Y216204D01*
X-67887D01*
X-68012Y217474D01*
X-67671Y217542D01*
X-66830Y218103D01*
X-65366Y219568D01*
X-64804Y220408D01*
X-64607Y221399D01*
X-64607Y247024D01*
X-64804Y248015D01*
X-65366Y248855D01*
X-67287Y250777D01*
X-67287Y250777D01*
X-68127Y251338D01*
X-69119Y251535D01*
X-85164D01*
X-86155Y251338D01*
X-86996Y250777D01*
X-87966Y249806D01*
X-88244Y249391D01*
X-88526Y248969D01*
X-88526Y248967D01*
X-88527Y248966D01*
X-88625Y248475D01*
X-88724Y247978D01*
X-88744Y230225D01*
X-89569Y229400D01*
X-103253D01*
X-104132Y230279D01*
Y239645D01*
X-104329Y240636D01*
X-104891Y241476D01*
X-113945Y250531D01*
Y270304D01*
X-114142Y271295D01*
X-114704Y272136D01*
X-115338Y272770D01*
X-114812Y274040D01*
X-100422D01*
X-82170Y255788D01*
X-81330Y255227D01*
X-80339Y255030D01*
X-9659D01*
X-8668Y255227D01*
X-7828Y255788D01*
X-7208Y256409D01*
X-7208Y256409D01*
X-7208Y256409D01*
X-6189Y257428D01*
Y282727D01*
Y302273D01*
X-6386Y303264D01*
X-6948Y304104D01*
X-7658Y304814D01*
X-8076Y305094D01*
X-8491Y305373D01*
X-8495Y305373D01*
X-8498Y305376D01*
X-8989Y305473D01*
X-9481Y305573D01*
X-22650Y305612D01*
X-22654Y305611D01*
X-22658Y305612D01*
X-23148Y305514D01*
X-23642Y305418D01*
X-23645Y305415D01*
X-23649Y305415D01*
X-24065Y305137D01*
X-24484Y304859D01*
X-24486Y304855D01*
X-24489Y304853D01*
X-42426Y286917D01*
X-67818D01*
X-68328Y287427D01*
Y289391D01*
X-68525Y290382D01*
X-68660Y290707D01*
Y291182D01*
X-68525Y291507D01*
X-68328Y292498D01*
Y300482D01*
X-68525Y301473D01*
X-69087Y302313D01*
X-69781Y303008D01*
X-70622Y303569D01*
X-71613Y303766D01*
X-71689D01*
X-72628Y303953D01*
X-76128D01*
X-77067Y303766D01*
X-79209D01*
X-86648Y311205D01*
X-87488Y311767D01*
X-88479Y311964D01*
X-158449D01*
X-159440Y311767D01*
X-160281Y311205D01*
X-162949Y308537D01*
X-163510Y307697D01*
X-163707Y306706D01*
Y278109D01*
X-163510Y277118D01*
X-162949Y276278D01*
X-161470Y274799D01*
X-160629Y274237D01*
X-159638Y274040D01*
X-142397D01*
X-141406Y274237D01*
X-140565Y274799D01*
X-140457Y274907D01*
X-139187Y274381D01*
Y266050D01*
X-139560Y265492D01*
X-139873Y263918D01*
Y257418D01*
X-139740Y256747D01*
X-140727Y255477D01*
X-161579D01*
X-172460Y266358D01*
Y296401D01*
X-172756Y297888D01*
X-173598Y299148D01*
X-185837Y311387D01*
X-187097Y312229D01*
X-188584Y312525D01*
D02*
G37*
G36*
X-544337Y241219D02*
X-593129D01*
X-593129Y241219D01*
X-593129Y241219D01*
X-593584Y241129D01*
X-594120Y241022D01*
X-594120Y241022D01*
X-594120Y241022D01*
X-594490Y240774D01*
X-594960Y240460D01*
X-594960Y240460D01*
X-594960Y240460D01*
X-595067Y240353D01*
X-595067Y240353D01*
X-595068Y240353D01*
X-595325Y239968D01*
X-595629Y239513D01*
X-595629Y239513D01*
X-595629Y239512D01*
X-595736Y238976D01*
X-595826Y238522D01*
Y235780D01*
X-597096Y235439D01*
X-597434Y236025D01*
X-598697Y237288D01*
X-600245Y238181D01*
X-601971Y238644D01*
X-603757D01*
X-605483Y238181D01*
X-607031Y237288D01*
X-608294Y236025D01*
X-609188Y234477D01*
X-609650Y232751D01*
Y230965D01*
X-609188Y229239D01*
X-608294Y227691D01*
X-607031Y226428D01*
X-605483Y225534D01*
X-603757Y225072D01*
X-601971D01*
X-600245Y225534D01*
X-598697Y226428D01*
X-597434Y227691D01*
X-597096Y228277D01*
X-595826Y227936D01*
Y224011D01*
X-595716Y223457D01*
X-595629Y223021D01*
X-595629Y223020D01*
X-595629Y223020D01*
X-595325Y222566D01*
X-595068Y222180D01*
X-594914Y222027D01*
X-594914Y222027D01*
X-594914Y222027D01*
X-594529Y221769D01*
X-594074Y221465D01*
X-594074Y221465D01*
X-594074Y221465D01*
X-593609Y221373D01*
X-593083Y221268D01*
X-593083Y221268D01*
X-593083Y221268D01*
X-591650D01*
Y218416D01*
X-603932D01*
X-604923Y218219D01*
X-605763Y217658D01*
X-616765Y206655D01*
X-617327Y205815D01*
X-617524Y204824D01*
Y133864D01*
X-617327Y132873D01*
X-616765Y132033D01*
X-610048Y125316D01*
X-610048Y125316D01*
X-607129Y122397D01*
X-607129Y122397D01*
X-605976Y121244D01*
X-605136Y120683D01*
X-604145Y120485D01*
X-556722D01*
X-554186Y117949D01*
Y111958D01*
X-555017Y111513D01*
X-555456Y111389D01*
X-556880Y111673D01*
X-560380D01*
X-561954Y111359D01*
X-563289Y110467D01*
X-564182Y109132D01*
X-564495Y107558D01*
Y101058D01*
X-564182Y99483D01*
X-563809Y98926D01*
Y93960D01*
X-564182Y93403D01*
X-564495Y91828D01*
Y85328D01*
X-564182Y83753D01*
X-563289Y82418D01*
X-562075Y81607D01*
X-562036Y81130D01*
X-562209Y80286D01*
X-562431Y80241D01*
X-563271Y79680D01*
X-563947Y79004D01*
X-564509Y78164D01*
X-564706Y77173D01*
Y54204D01*
X-569325Y49584D01*
X-584843D01*
X-585834Y49387D01*
X-586674Y48826D01*
X-588037Y47463D01*
X-588598Y46622D01*
X-588796Y45631D01*
X-588796Y30409D01*
X-588693Y29893D01*
X-588599Y29418D01*
X-588599Y29418D01*
X-588598Y29418D01*
X-588316Y28996D01*
X-588037Y28578D01*
X-587105Y27645D01*
X-587105Y27645D01*
X-587105Y27645D01*
X-586687Y27366D01*
X-586265Y27084D01*
X-586264Y27084D01*
X-586264Y27084D01*
X-585790Y26989D01*
X-585274Y26886D01*
X-585274Y26886D01*
X-585273Y26886D01*
X-556058Y26887D01*
X-555067Y27084D01*
X-554227Y27645D01*
X-553298Y28574D01*
X-552737Y29414D01*
X-552540Y30405D01*
X-552540Y59292D01*
X-547777Y64054D01*
X-511937D01*
X-511852Y64071D01*
X-511767Y64060D01*
X-511360Y64169D01*
X-510946Y64251D01*
X-510874Y64299D01*
X-510739Y64310D01*
X-509639Y64067D01*
X-509325Y63870D01*
X-509323Y63867D01*
X-509115Y63557D01*
X-504347Y58788D01*
X-503507Y58227D01*
X-502516Y58030D01*
X-464059D01*
X-463068Y58227D01*
X-462228Y58788D01*
X-451683Y69334D01*
X-451121Y70174D01*
X-450924Y71165D01*
Y80947D01*
X-450870Y81070D01*
X-450860Y81461D01*
X-450189Y81594D01*
X-448854Y82486D01*
X-447962Y83821D01*
X-447649Y85396D01*
Y91896D01*
X-447962Y93471D01*
X-448854Y94806D01*
X-450189Y95698D01*
X-451764Y96011D01*
X-455264D01*
X-456839Y95698D01*
X-458174Y94806D01*
X-459066Y93471D01*
X-459379Y91896D01*
Y85396D01*
X-459066Y83821D01*
X-458174Y82486D01*
X-456839Y81594D01*
X-456167Y81461D01*
X-456158Y81070D01*
X-456104Y80947D01*
Y72238D01*
X-465132Y63210D01*
X-481175D01*
X-481300Y64479D01*
X-480807Y64578D01*
X-479554Y65414D01*
X-478718Y66667D01*
X-478424Y68144D01*
Y77144D01*
X-478718Y78621D01*
X-479302Y79496D01*
X-478952Y80312D01*
X-478136Y80662D01*
X-477261Y80078D01*
X-475784Y79784D01*
X-466784D01*
X-465307Y80078D01*
X-464054Y80914D01*
X-463218Y82167D01*
X-462924Y83644D01*
X-463218Y85121D01*
X-463901Y86144D01*
X-463218Y87167D01*
X-462924Y88644D01*
X-463218Y90121D01*
X-463901Y91144D01*
X-463218Y92167D01*
X-462924Y93644D01*
X-463218Y95121D01*
X-464054Y96374D01*
X-465307Y97210D01*
X-466784Y97504D01*
X-475784D01*
X-477261Y97210D01*
X-478513Y96374D01*
X-479350Y95121D01*
X-481634Y92838D01*
Y83060D01*
X-481805Y82888D01*
X-513040D01*
Y98359D01*
X-517284Y102603D01*
Y102603D01*
X-518554Y102458D01*
X-518784Y102504D01*
X-527784D01*
X-529261Y102210D01*
X-530513Y101374D01*
X-530904Y100789D01*
X-531223Y100763D01*
X-531618Y100757D01*
X-531745Y100702D01*
X-533410D01*
X-545069Y112361D01*
Y120652D01*
X-545266Y121643D01*
X-545828Y122484D01*
X-552188Y128843D01*
X-552188Y128843D01*
X-553028Y129405D01*
X-554019Y129602D01*
X-601441D01*
X-608407Y136568D01*
Y182008D01*
X-607137Y182534D01*
X-607031Y182428D01*
X-605483Y181535D01*
X-603757Y181072D01*
X-601971D01*
X-600245Y181535D01*
X-598697Y182428D01*
X-597434Y183691D01*
X-596540Y185239D01*
X-596078Y186965D01*
Y188751D01*
X-596540Y190477D01*
X-597434Y192025D01*
X-598697Y193288D01*
X-600245Y194182D01*
X-601971Y194644D01*
X-603757D01*
X-605483Y194182D01*
X-607031Y193288D01*
X-607137Y193182D01*
X-608407Y193708D01*
Y202121D01*
X-601228Y209300D01*
X-591650D01*
Y205572D01*
X-564078D01*
X-560684Y208966D01*
X-554686D01*
X-554686Y208966D01*
X-554667Y209010D01*
X-544649D01*
X-543658Y209207D01*
X-542818Y209769D01*
X-542004Y210583D01*
X-541442Y211423D01*
X-541245Y212414D01*
Y238127D01*
X-541442Y239118D01*
X-542004Y239958D01*
X-542506Y240460D01*
X-543346Y241022D01*
X-544337Y241219D01*
D02*
G37*
G36*
X-18159Y201047D02*
X-20468D01*
X-22699Y200449D01*
X-24699Y199295D01*
X-26332Y197662D01*
X-27486Y195662D01*
X-27773Y194592D01*
X-37954D01*
X-41718Y198355D01*
X-42469Y198857D01*
X-43355Y199033D01*
X-80900D01*
X-81034Y199093D01*
X-81231Y199098D01*
X-81374Y199109D01*
X-81498Y199127D01*
X-81563Y199141D01*
X-82350Y199928D01*
X-83742Y200505D01*
X-85248D01*
X-86639Y199928D01*
X-87704Y198863D01*
X-88281Y197472D01*
Y195966D01*
X-87704Y194574D01*
X-86639Y193509D01*
X-85248Y192933D01*
X-83742D01*
X-82350Y193509D01*
X-81563Y194297D01*
X-81497Y194310D01*
X-81374Y194328D01*
X-81231Y194340D01*
X-81034Y194345D01*
X-80900Y194404D01*
X-44313D01*
X-40550Y190640D01*
X-39799Y190139D01*
X-38913Y189963D01*
X-27773D01*
X-27486Y188892D01*
X-26332Y186892D01*
X-24699Y185259D01*
X-22699Y184105D01*
X-20468Y183507D01*
X-18159D01*
X-15929Y184105D01*
X-13929Y185259D01*
X-12296Y186892D01*
X-11142Y188892D01*
X-10544Y191122D01*
Y193432D01*
X-11142Y195662D01*
X-12296Y197662D01*
X-13929Y199295D01*
X-15929Y200449D01*
X-18159Y201047D01*
D02*
G37*
G36*
Y175647D02*
X-20468D01*
X-22699Y175049D01*
X-24699Y173895D01*
X-26332Y172262D01*
X-27486Y170262D01*
X-27773Y169191D01*
X-47499D01*
X-48385Y169015D01*
X-49136Y168514D01*
X-61017Y156632D01*
X-61519Y155882D01*
X-61695Y154996D01*
Y98094D01*
X-75436Y84353D01*
X-114208D01*
X-129132Y99277D01*
Y129416D01*
X-129308Y130302D01*
X-129810Y131053D01*
X-143733Y144976D01*
X-143745Y145035D01*
X-143841Y145100D01*
X-143881Y145208D01*
X-144008Y145345D01*
X-143817Y146308D01*
Y149808D01*
X-144130Y151383D01*
X-145022Y152718D01*
X-146357Y153610D01*
X-147932Y153923D01*
X-154432D01*
X-156007Y153610D01*
X-157342Y152718D01*
X-158234Y151383D01*
X-158377Y150662D01*
X-158758Y150653D01*
X-158881Y150598D01*
X-165154D01*
X-165277Y150653D01*
X-165659Y150662D01*
X-165802Y151383D01*
X-166694Y152718D01*
X-168029Y153610D01*
X-169604Y153923D01*
X-173104D01*
X-174679Y153610D01*
X-176014Y152718D01*
X-176906Y151383D01*
X-177219Y149808D01*
Y143308D01*
X-176906Y141733D01*
X-176014Y140398D01*
X-174679Y139506D01*
X-174007Y139373D01*
X-173998Y138982D01*
X-173944Y138859D01*
Y134256D01*
X-173747Y133265D01*
X-173185Y132425D01*
X-171706Y130945D01*
Y126348D01*
X-171760Y126226D01*
X-171766Y126012D01*
X-174532D01*
X-176048Y125710D01*
X-177334Y124852D01*
X-178193Y123566D01*
X-178494Y122050D01*
Y117250D01*
X-178193Y115734D01*
X-177334Y114448D01*
X-176048Y113589D01*
X-174532Y113288D01*
X-165732D01*
X-164216Y113589D01*
X-162930Y114448D01*
X-162071Y115734D01*
X-161770Y117250D01*
Y122050D01*
X-162071Y123566D01*
X-162930Y124852D01*
X-164216Y125710D01*
X-165732Y126012D01*
X-166466D01*
X-166472Y126226D01*
X-166526Y126348D01*
Y132018D01*
X-166534Y132055D01*
X-166694Y133259D01*
X-166694Y133259D01*
Y140398D01*
X-164900Y142193D01*
X-147932D01*
X-147642Y142251D01*
X-147539Y142151D01*
X-147400Y142096D01*
X-133761Y128457D01*
Y98318D01*
X-133584Y97432D01*
X-133083Y96681D01*
X-116803Y80402D01*
X-116052Y79900D01*
X-115166Y79724D01*
X-74478D01*
X-73592Y79900D01*
X-72841Y80402D01*
X-57744Y95499D01*
X-57242Y96250D01*
X-57066Y97136D01*
Y154037D01*
X-46540Y164562D01*
X-27773D01*
X-27486Y163492D01*
X-26332Y161492D01*
X-24699Y159859D01*
X-22699Y158705D01*
X-20468Y158107D01*
X-18159D01*
X-15929Y158705D01*
X-13929Y159859D01*
X-12296Y161492D01*
X-11142Y163492D01*
X-10544Y165722D01*
Y168032D01*
X-11142Y170262D01*
X-12296Y172262D01*
X-13929Y173895D01*
X-15929Y175049D01*
X-18159Y175647D01*
D02*
G37*
G36*
X-131948Y169421D02*
X-135448D01*
X-137023Y169108D01*
X-138358Y168216D01*
X-139250Y166881D01*
X-139563Y165306D01*
Y158806D01*
X-139250Y157231D01*
X-138358Y155896D01*
X-137023Y155004D01*
X-135448Y154691D01*
X-133658D01*
X-123741Y144774D01*
X-123741Y144774D01*
X-122060Y143651D01*
X-120078Y143257D01*
X-120078Y143257D01*
X-119881D01*
X-117899Y143651D01*
X-116219Y144774D01*
X-115096Y146454D01*
X-114702Y148436D01*
X-115096Y150418D01*
X-116219Y152099D01*
X-116812Y152495D01*
X-127833Y163516D01*
Y165306D01*
X-128146Y166881D01*
X-129038Y168216D01*
X-130373Y169108D01*
X-131948Y169421D01*
D02*
G37*
G36*
X-18159Y150247D02*
X-20468D01*
X-22699Y149649D01*
X-24699Y148495D01*
X-26332Y146862D01*
X-27486Y144862D01*
X-28084Y142632D01*
Y140322D01*
X-27486Y138092D01*
X-26332Y136092D01*
X-24699Y134459D01*
X-22699Y133305D01*
X-20468Y132707D01*
X-18159D01*
X-15929Y133305D01*
X-13929Y134459D01*
X-12296Y136092D01*
X-11142Y138092D01*
X-10544Y140322D01*
Y142632D01*
X-11142Y144862D01*
X-12296Y146862D01*
X-13929Y148495D01*
X-15929Y149649D01*
X-18159Y150247D01*
D02*
G37*
G36*
Y124847D02*
X-20468D01*
X-22699Y124249D01*
X-24699Y123095D01*
X-26332Y121462D01*
X-27486Y119462D01*
X-28084Y117232D01*
Y114922D01*
X-27486Y112692D01*
X-26332Y110692D01*
X-24699Y109059D01*
X-22699Y107905D01*
X-20468Y107307D01*
X-18159D01*
X-15929Y107905D01*
X-13929Y109059D01*
X-12296Y110692D01*
X-11142Y112692D01*
X-10544Y114922D01*
Y117232D01*
X-11142Y119462D01*
X-12296Y121462D01*
X-13929Y123095D01*
X-15929Y124249D01*
X-18159Y124847D01*
D02*
G37*
G36*
X-225450Y153415D02*
X-230632D01*
X-231793Y152254D01*
X-231860Y152210D01*
X-231904Y152143D01*
X-237012Y147036D01*
X-245709D01*
X-247101Y146460D01*
X-248166Y145395D01*
X-248742Y144003D01*
Y142497D01*
X-248166Y141105D01*
X-247101Y140040D01*
X-245709Y139464D01*
X-244958D01*
X-244650Y139201D01*
X-244501Y139055D01*
X-244372Y139003D01*
X-241704Y136335D01*
Y116580D01*
X-241507Y115589D01*
X-240945Y114749D01*
X-233065Y106869D01*
Y96417D01*
Y89917D01*
X-232752Y88342D01*
X-231860Y87007D01*
X-230525Y86115D01*
X-228950Y85802D01*
X-225450D01*
X-223875Y86115D01*
X-222540Y87007D01*
X-221648Y88342D01*
X-221335Y89917D01*
Y90813D01*
X-221273Y90825D01*
X-220433Y91387D01*
X-217328Y94492D01*
X-216767Y95332D01*
X-216569Y96323D01*
Y101363D01*
X-214503Y103430D01*
X-207450D01*
X-205875Y103743D01*
X-204540Y104635D01*
X-203648Y105970D01*
X-203335Y107545D01*
Y114045D01*
X-203648Y115620D01*
X-204033Y116196D01*
X-203355Y117466D01*
X-189185D01*
X-172463Y100744D01*
Y89538D01*
X-174532D01*
X-176048Y89236D01*
X-177334Y88378D01*
X-178193Y87092D01*
X-178494Y85576D01*
Y80776D01*
X-178193Y79260D01*
X-177334Y77974D01*
X-176048Y77116D01*
X-174532Y76814D01*
X-165732D01*
X-164216Y77116D01*
X-162930Y77974D01*
X-162071Y79260D01*
X-161770Y80776D01*
Y85576D01*
X-162071Y87092D01*
X-162930Y88378D01*
X-164216Y89236D01*
X-165732Y89538D01*
X-167801D01*
Y101710D01*
X-167979Y102602D01*
X-168484Y103358D01*
X-186571Y121445D01*
X-187327Y121950D01*
X-187628Y122010D01*
X-187832Y123346D01*
X-186930Y123948D01*
X-186071Y125234D01*
X-185770Y126750D01*
Y131550D01*
X-186071Y133066D01*
X-186930Y134352D01*
X-188216Y135211D01*
X-189732Y135512D01*
X-198532D01*
X-198807Y135787D01*
X-210950D01*
X-212525Y135474D01*
X-213860Y134582D01*
X-214752Y133247D01*
X-215065Y131672D01*
Y125172D01*
X-214752Y123598D01*
X-214618Y123398D01*
X-215297Y122128D01*
X-218712D01*
X-221203Y124619D01*
X-221252Y124751D01*
X-221389Y124899D01*
X-221335Y125172D01*
Y130868D01*
X-221335Y132138D01*
X-221335Y132138D01*
Y149300D01*
X-221648Y150875D01*
X-222540Y152210D01*
X-223875Y153102D01*
X-225450Y153415D01*
D02*
G37*
G36*
X-147932Y135923D02*
X-154432D01*
X-156007Y135610D01*
X-157342Y134718D01*
X-158234Y133383D01*
X-158547Y131808D01*
Y128308D01*
X-158234Y126733D01*
X-157342Y125398D01*
X-156007Y124506D01*
X-154432Y124193D01*
X-153832D01*
X-153826Y123979D01*
X-153772Y123857D01*
Y80376D01*
X-153826Y80253D01*
X-153834Y79926D01*
X-154833Y79728D01*
X-156168Y78836D01*
X-157060Y77501D01*
X-157373Y75926D01*
Y75326D01*
X-157587Y75320D01*
X-157709Y75266D01*
X-177174D01*
X-185976Y84068D01*
Y89239D01*
X-185770Y90276D01*
Y95076D01*
X-185976Y96114D01*
Y96924D01*
X-189585Y100532D01*
X-210950D01*
X-212525Y100219D01*
X-213860Y99327D01*
X-214752Y97992D01*
X-215065Y96417D01*
Y89917D01*
Y75926D01*
Y69426D01*
X-214752Y67851D01*
X-213860Y66516D01*
X-212525Y65624D01*
X-210950Y65311D01*
X-207450D01*
X-205875Y65624D01*
X-204540Y66516D01*
X-203648Y67851D01*
X-203335Y69426D01*
Y75926D01*
X-203648Y77501D01*
X-204540Y78836D01*
X-204636Y78900D01*
X-204781Y80204D01*
X-203905Y81151D01*
X-190384D01*
X-180078Y70845D01*
X-179238Y70283D01*
X-178246Y70086D01*
X-157709D01*
X-157587Y70032D01*
X-157373Y70026D01*
Y69426D01*
X-157060Y67851D01*
X-156168Y66516D01*
X-154833Y65624D01*
X-153258Y65311D01*
X-149758D01*
X-148183Y65624D01*
X-146848Y66516D01*
X-145956Y67851D01*
X-145643Y69426D01*
Y75926D01*
X-145956Y77501D01*
X-146848Y78836D01*
X-148183Y79728D01*
X-148527Y79796D01*
X-148538Y80250D01*
X-148592Y80374D01*
Y123857D01*
X-148538Y123979D01*
X-148532Y124193D01*
X-147932D01*
X-146357Y124506D01*
X-145022Y125398D01*
X-144130Y126733D01*
X-143817Y128308D01*
Y131808D01*
X-144130Y133383D01*
X-145022Y134718D01*
X-146357Y135610D01*
X-147932Y135923D01*
D02*
G37*
G36*
X-255354Y166447D02*
X-256860D01*
X-258251Y165871D01*
X-259316Y164806D01*
X-259893Y163414D01*
Y161908D01*
X-259316Y160517D01*
X-258785Y159985D01*
X-258754Y159582D01*
X-258751Y159373D01*
X-258697Y159245D01*
Y138907D01*
X-258499Y137916D01*
X-257938Y137076D01*
X-251102Y130239D01*
Y86446D01*
X-250905Y85455D01*
X-250343Y84615D01*
X-236573Y70845D01*
X-235733Y70283D01*
X-234742Y70086D01*
X-233401D01*
X-233279Y70032D01*
X-233065Y70026D01*
Y69426D01*
X-232752Y67851D01*
X-231860Y66516D01*
X-230525Y65624D01*
X-228950Y65311D01*
X-225450D01*
X-223875Y65624D01*
X-222540Y66516D01*
X-221648Y67851D01*
X-221335Y69426D01*
Y75926D01*
X-221648Y77501D01*
X-222540Y78836D01*
X-223875Y79728D01*
X-225450Y80041D01*
X-228950D01*
X-230525Y79728D01*
X-231860Y78836D01*
X-232752Y77501D01*
X-232977Y76369D01*
X-234033Y75929D01*
X-234333Y75930D01*
X-245922Y87519D01*
Y131312D01*
X-246119Y132303D01*
X-246681Y133143D01*
X-253517Y139979D01*
Y159245D01*
X-253462Y159373D01*
X-253459Y159605D01*
X-253452Y159782D01*
X-253432Y159981D01*
X-252897Y160517D01*
X-252321Y161908D01*
Y163414D01*
X-252897Y164806D01*
X-253962Y165871D01*
X-255354Y166447D01*
D02*
G37*
%LPD*%
G36*
X-229115Y358813D02*
X-229190Y358875D01*
X-229284Y358931D01*
X-229398Y358981D01*
X-229532Y359024D01*
X-229686Y359060D01*
X-229860Y359089D01*
X-230267Y359129D01*
X-230501Y359139D01*
X-230754Y359142D01*
Y361682D01*
X-230501Y361685D01*
X-229860Y361735D01*
X-229686Y361764D01*
X-229532Y361801D01*
X-229398Y361844D01*
X-229284Y361893D01*
X-229190Y361949D01*
X-229115Y362012D01*
Y358813D01*
D02*
G37*
G36*
X-315829Y338701D02*
X-315780Y338060D01*
X-315750Y337887D01*
X-315714Y337733D01*
X-315671Y337599D01*
X-315621Y337484D01*
X-315565Y337390D01*
X-315503Y337315D01*
X-318702D01*
X-318639Y337390D01*
X-318583Y337484D01*
X-318534Y337599D01*
X-318491Y337733D01*
X-318455Y337887D01*
X-318425Y338060D01*
X-318386Y338468D01*
X-318376Y338701D01*
X-318372Y338954D01*
X-315832D01*
X-315829Y338701D01*
D02*
G37*
G36*
X-428525Y350991D02*
X-428498Y350884D01*
X-428452Y350769D01*
X-428388Y350644D01*
X-428305Y350509D01*
X-428203Y350365D01*
X-427943Y350049D01*
X-427785Y349877D01*
X-427608Y349696D01*
X-429404Y347900D01*
X-429585Y348077D01*
X-430073Y348495D01*
X-430217Y348596D01*
X-430352Y348680D01*
X-430477Y348744D01*
X-430592Y348790D01*
X-430699Y348817D01*
X-430796Y348826D01*
X-428534Y351088D01*
X-428525Y350991D01*
D02*
G37*
G36*
X-328648Y342187D02*
X-328723Y342249D01*
X-328817Y342305D01*
X-328932Y342355D01*
X-329066Y342397D01*
X-329220Y342434D01*
X-329393Y342463D01*
X-329800Y342503D01*
X-330034Y342513D01*
X-330287Y342516D01*
Y345056D01*
X-330034Y345059D01*
X-329393Y345109D01*
X-329220Y345138D01*
X-329066Y345175D01*
X-328932Y345218D01*
X-328817Y345267D01*
X-328723Y345323D01*
X-328648Y345386D01*
Y342187D01*
D02*
G37*
G36*
X-134685Y338507D02*
X-134667Y338284D01*
X-134637Y338074D01*
X-134595Y337876D01*
X-134541Y337691D01*
X-134475Y337517D01*
X-134397Y337356D01*
X-134307Y337208D01*
X-134205Y337072D01*
X-134092Y336948D01*
X-137290D01*
X-137177Y337072D01*
X-137075Y337208D01*
X-136985Y337356D01*
X-136907Y337517D01*
X-136841Y337691D01*
X-136787Y337876D01*
X-136745Y338074D01*
X-136715Y338284D01*
X-136697Y338507D01*
X-136691Y338742D01*
X-134691D01*
X-134685Y338507D01*
D02*
G37*
G36*
X-90270Y359188D02*
Y344826D01*
X-89862Y344418D01*
X-84682D01*
X-84428Y344164D01*
Y332575D01*
X-85029Y331974D01*
X-93588Y331974D01*
X-94588Y332974D01*
X-94588Y341878D01*
X-96112Y343402D01*
X-107013D01*
X-108035Y344424D01*
X-108035Y359535D01*
X-107404Y360166D01*
X-91248Y360166D01*
X-90270Y359188D01*
D02*
G37*
G36*
X-113336Y358956D02*
Y346795D01*
X-122734Y337397D01*
Y327231D01*
X-131733Y318232D01*
X-218982D01*
X-222335Y314879D01*
Y279051D01*
X-205896Y262612D01*
Y248972D01*
X-205896Y248291D01*
X-205480Y247875D01*
X-204798Y247876D01*
X-186660Y247909D01*
X-185224Y246473D01*
Y236953D01*
X-214615D01*
X-216949Y239287D01*
X-216949Y262685D01*
X-230759Y276495D01*
X-230566Y309596D01*
X-232248Y311280D01*
X-294595D01*
X-346033Y259842D01*
X-381836D01*
Y264760D01*
X-382082Y265999D01*
X-382784Y267049D01*
X-383834Y267751D01*
X-385073Y267997D01*
X-386312Y267751D01*
X-387362Y267049D01*
X-388064Y265999D01*
X-388310Y264760D01*
Y259842D01*
X-398540D01*
Y269651D01*
X-360029D01*
X-308202Y321478D01*
X-308202Y350180D01*
X-306211Y352171D01*
X-305710D01*
X-281390Y352280D01*
X-271371Y342262D01*
X-142258D01*
X-140918Y340921D01*
Y330617D01*
X-140215Y329914D01*
X-129557D01*
X-128989Y330482D01*
X-128989Y339185D01*
X-121718Y346456D01*
Y358915D01*
X-121157Y359476D01*
X-113856D01*
X-113336Y358956D01*
D02*
G37*
G36*
X-235543Y300961D02*
X-235589Y300868D01*
X-235629Y300755D01*
X-235663Y300622D01*
X-235692Y300469D01*
X-235735Y300101D01*
X-235748Y299887D01*
X-235759Y299398D01*
X-238299Y299127D01*
X-238303Y299380D01*
X-238333Y299824D01*
X-238360Y300017D01*
X-238394Y300189D01*
X-238436Y300342D01*
X-238486Y300474D01*
X-238543Y300586D01*
X-238607Y300679D01*
X-238680Y300751D01*
X-235493Y301033D01*
X-235543Y300961D01*
D02*
G37*
G36*
X-54772Y344953D02*
Y344804D01*
X-54623D01*
X-51599Y341780D01*
X-51599Y291377D01*
X-51856Y291121D01*
X-61030Y291121D01*
X-62116Y292206D01*
Y339240D01*
X-69966Y347090D01*
X-86776D01*
Y368564D01*
X-78383D01*
X-54772Y344953D01*
D02*
G37*
G36*
X-339685Y246700D02*
X-339741Y246605D01*
X-339791Y246491D01*
X-339833Y246357D01*
X-339870Y246203D01*
X-339899Y246029D01*
X-339939Y245622D01*
X-339949Y245389D01*
X-339952Y245135D01*
X-342492D01*
X-342495Y245389D01*
X-342545Y246029D01*
X-342574Y246203D01*
X-342611Y246357D01*
X-342653Y246491D01*
X-342703Y246605D01*
X-342759Y246700D01*
X-342822Y246774D01*
X-339622D01*
X-339685Y246700D01*
D02*
G37*
G36*
X-225366Y237079D02*
X-225538Y237016D01*
X-225689Y236910D01*
X-225820Y236761D01*
X-225931Y236571D01*
X-226022Y236338D01*
X-226093Y236063D01*
X-226144Y235745D01*
X-226174Y235385D01*
X-226184Y234982D01*
X-228216D01*
X-228226Y235385D01*
X-228256Y235745D01*
X-228307Y236063D01*
X-228378Y236338D01*
X-228468Y236571D01*
X-228580Y236761D01*
X-228711Y236910D01*
X-228862Y237016D01*
X-229034Y237079D01*
X-229226Y237100D01*
X-225174D01*
X-225366Y237079D01*
D02*
G37*
G36*
X-226174Y230826D02*
X-226144Y230466D01*
X-226093Y230148D01*
X-226022Y229873D01*
X-225931Y229640D01*
X-225820Y229449D01*
X-225689Y229301D01*
X-225538Y229195D01*
X-225366Y229132D01*
X-225174Y229110D01*
X-229226D01*
X-229034Y229132D01*
X-228862Y229195D01*
X-228711Y229301D01*
X-228580Y229449D01*
X-228468Y229640D01*
X-228378Y229873D01*
X-228307Y230148D01*
X-228256Y230466D01*
X-228226Y230826D01*
X-228216Y231228D01*
X-226184D01*
X-226174Y230826D01*
D02*
G37*
G36*
X-205712Y225615D02*
X-205668Y225583D01*
X-205593Y225555D01*
X-205489Y225531D01*
X-205355Y225510D01*
X-204998Y225480D01*
X-204240Y225463D01*
Y222923D01*
X-204522Y222921D01*
X-205489Y222856D01*
X-205593Y222831D01*
X-205668Y222803D01*
X-205712Y222772D01*
X-205727Y222736D01*
Y225650D01*
X-205712Y225615D01*
D02*
G37*
G36*
X-223708Y225114D02*
X-223652Y224972D01*
X-223558Y224846D01*
X-223426Y224737D01*
X-223256Y224645D01*
X-223049Y224569D01*
X-222804Y224511D01*
X-222521Y224469D01*
X-222200Y224444D01*
X-221842Y224435D01*
Y222403D01*
X-222200Y222395D01*
X-222521Y222370D01*
X-222804Y222328D01*
X-223049Y222269D01*
X-223256Y222194D01*
X-223426Y222101D01*
X-223558Y221992D01*
X-223652Y221867D01*
X-223708Y221724D01*
X-223727Y221565D01*
Y225274D01*
X-223708Y225114D01*
D02*
G37*
G36*
X-235755Y219032D02*
X-235725Y218587D01*
X-235698Y218395D01*
X-235664Y218223D01*
X-235622Y218070D01*
X-235572Y217938D01*
X-235515Y217825D01*
X-235450Y217733D01*
X-235378Y217660D01*
X-238565Y217379D01*
X-238514Y217451D01*
X-238469Y217544D01*
X-238429Y217657D01*
X-238395Y217790D01*
X-238365Y217943D01*
X-238323Y218311D01*
X-238310Y218525D01*
X-238299Y219014D01*
X-235759Y219284D01*
X-235755Y219032D01*
D02*
G37*
G36*
X-208285Y201396D02*
X-208395Y201388D01*
X-208493Y201339D01*
X-208580Y201251D01*
X-208655Y201123D01*
X-208718Y200956D01*
X-208770Y200748D01*
X-208811Y200500D01*
X-208839Y200213D01*
X-208863Y199518D01*
X-211403D01*
X-211408Y199935D01*
X-211492Y200929D01*
X-211543Y201175D01*
X-211604Y201378D01*
X-211677Y201539D01*
X-211761Y201656D01*
X-211856Y201732D01*
X-211963Y201764D01*
X-208285Y201396D01*
D02*
G37*
G36*
X-301667Y202410D02*
X-301572Y202354D01*
X-301458Y202304D01*
X-301324Y202261D01*
X-301170Y202225D01*
X-300996Y202195D01*
X-300589Y202156D01*
X-300355Y202146D01*
X-300102Y202143D01*
Y199603D01*
X-300355Y199599D01*
X-300996Y199550D01*
X-301170Y199520D01*
X-301324Y199484D01*
X-301458Y199441D01*
X-301572Y199392D01*
X-301667Y199336D01*
X-301741Y199273D01*
Y202472D01*
X-301667Y202410D01*
D02*
G37*
G36*
X-248186Y308119D02*
X-248186Y308119D01*
X-242863Y302797D01*
X-239698Y299632D01*
X-239677Y299322D01*
X-239673Y299106D01*
X-239647Y299045D01*
X-239666Y298981D01*
X-239619Y298895D01*
Y219168D01*
X-239673Y219044D01*
X-239683Y218582D01*
X-239693Y218432D01*
X-239699Y218377D01*
X-240038Y218039D01*
X-240614Y216647D01*
Y215141D01*
X-240038Y213749D01*
X-238973Y212684D01*
X-237581Y212108D01*
X-236075D01*
X-234683Y212684D01*
X-233618Y213749D01*
X-233042Y215141D01*
Y216647D01*
X-233618Y218039D01*
X-234360Y218780D01*
X-234381Y219090D01*
X-234384Y219305D01*
X-234411Y219366D01*
X-234392Y219430D01*
X-234439Y219517D01*
Y275459D01*
X-233169Y275580D01*
X-233157Y275518D01*
X-233153Y275511D01*
X-233151Y275504D01*
X-232875Y275090D01*
X-232601Y274674D01*
X-232594Y274670D01*
X-232590Y274664D01*
X-219539Y261613D01*
Y252505D01*
X-222661Y249383D01*
X-228950D01*
X-230525Y249069D01*
X-231860Y248177D01*
X-232752Y246842D01*
X-233065Y245268D01*
Y238768D01*
Y227443D01*
Y220943D01*
X-232752Y219368D01*
X-231860Y218033D01*
X-230525Y217141D01*
X-228950Y216828D01*
X-225450D01*
X-224928Y216932D01*
X-217319Y209323D01*
Y197276D01*
X-218686Y195910D01*
X-249947D01*
X-250881Y196721D01*
Y196721D01*
X-251767Y197516D01*
X-266277Y212026D01*
X-267117Y212587D01*
X-268108Y212784D01*
X-314638D01*
X-338632Y236779D01*
Y244990D01*
X-338577Y245117D01*
X-338574Y245350D01*
X-338567Y245527D01*
X-338548Y245726D01*
X-338012Y246261D01*
X-337436Y247653D01*
Y249159D01*
X-338012Y250551D01*
X-339077Y251616D01*
X-340469Y252192D01*
X-341975D01*
X-343367Y251616D01*
X-344432Y250551D01*
X-345008Y249159D01*
Y247653D01*
X-344432Y246261D01*
X-343900Y245730D01*
X-343869Y245326D01*
X-343867Y245117D01*
X-343812Y244990D01*
Y235706D01*
X-343615Y234715D01*
X-343053Y233875D01*
X-317542Y208363D01*
X-316702Y207802D01*
X-315710Y207605D01*
X-269181D01*
X-238795Y177219D01*
X-237954Y176657D01*
X-236963Y176460D01*
X-233551D01*
X-232822Y175190D01*
X-233065Y173970D01*
Y173370D01*
X-233279Y173364D01*
X-233401Y173310D01*
X-237511D01*
X-266905Y202704D01*
X-267745Y203265D01*
X-268736Y203463D01*
X-299957D01*
X-300084Y203517D01*
X-300317Y203520D01*
X-300493Y203528D01*
X-300693Y203547D01*
X-301228Y204082D01*
X-302620Y204659D01*
X-304126D01*
X-305517Y204082D01*
X-306583Y203017D01*
X-307159Y201626D01*
Y200120D01*
X-306583Y198728D01*
X-305517Y197663D01*
X-304126Y197087D01*
X-302620D01*
X-301228Y197663D01*
X-300697Y198194D01*
X-300293Y198225D01*
X-300084Y198228D01*
X-299957Y198283D01*
X-269809D01*
X-240415Y168889D01*
X-239574Y168327D01*
X-238583Y168130D01*
X-233401D01*
X-233279Y168076D01*
X-233065Y168070D01*
Y167470D01*
X-232752Y165895D01*
X-231860Y164560D01*
X-230725Y163802D01*
X-230796Y162919D01*
X-230936Y162532D01*
X-238805D01*
X-269753Y193480D01*
X-270803Y194182D01*
X-272042Y194429D01*
X-312312D01*
X-358631Y240747D01*
X-359681Y241449D01*
X-360920Y241695D01*
X-370849D01*
X-381836Y252682D01*
Y257252D01*
X-346033D01*
X-345042Y257449D01*
X-344201Y258011D01*
X-293522Y308690D01*
X-249231D01*
X-248186Y308119D01*
D02*
G37*
G36*
X-200102Y188942D02*
X-200120Y189039D01*
X-200174Y189125D01*
X-200264Y189201D01*
X-200391Y189267D01*
X-200554Y189323D01*
X-200753Y189369D01*
X-200988Y189404D01*
X-201259Y189430D01*
X-201910Y189450D01*
Y191990D01*
X-201566Y191995D01*
X-200988Y192036D01*
X-200753Y192071D01*
X-200554Y192117D01*
X-200391Y192173D01*
X-200264Y192239D01*
X-200174Y192315D01*
X-200120Y192401D01*
X-200102Y192498D01*
Y188942D01*
D02*
G37*
G36*
X-205711Y190091D02*
X-205662Y190033D01*
X-205579Y189982D01*
X-205465Y189937D01*
X-205317Y189900D01*
X-205136Y189869D01*
X-204923Y189845D01*
X-204398Y189818D01*
X-204086Y189814D01*
Y187274D01*
X-204398Y187271D01*
X-205136Y187220D01*
X-205317Y187189D01*
X-205465Y187152D01*
X-205579Y187107D01*
X-205662Y187056D01*
X-205711Y186998D01*
X-205727Y186933D01*
Y190156D01*
X-205711Y190091D01*
D02*
G37*
G36*
X-223702Y190746D02*
X-223626Y190534D01*
X-223498Y190347D01*
X-223320Y190186D01*
X-223091Y190049D01*
X-222811Y189937D01*
X-222481Y189850D01*
X-222099Y189788D01*
X-221666Y189750D01*
X-221183Y189738D01*
Y187198D01*
X-221666Y187186D01*
X-222099Y187148D01*
X-222481Y187086D01*
X-222811Y186999D01*
X-223091Y186887D01*
X-223320Y186750D01*
X-223498Y186588D01*
X-223626Y186402D01*
X-223702Y186190D01*
X-223727Y185954D01*
Y190982D01*
X-223702Y190746D01*
D02*
G37*
G36*
X-173796Y186335D02*
X-173157Y185808D01*
X-172853Y185603D01*
X-172560Y185437D01*
X-172278Y185310D01*
X-172007Y185221D01*
X-171747Y185172D01*
X-171497Y185161D01*
X-171259Y185190D01*
X-175982Y184220D01*
X-175779Y184285D01*
X-175638Y184385D01*
X-175560Y184519D01*
X-175544Y184687D01*
X-175591Y184889D01*
X-175700Y185125D01*
X-175872Y185396D01*
X-176106Y185701D01*
X-176403Y186040D01*
X-176763Y186414D01*
X-174132Y186657D01*
X-173796Y186335D01*
D02*
G37*
G36*
X-221201Y177388D02*
X-221273Y177462D01*
X-221364Y177529D01*
X-221476Y177588D01*
X-221607Y177639D01*
X-221759Y177682D01*
X-221931Y177717D01*
X-222123Y177745D01*
X-222567Y177776D01*
X-222819Y177780D01*
X-222474Y180320D01*
X-222219Y180322D01*
X-221403Y180382D01*
X-221250Y180409D01*
X-221118Y180441D01*
X-221006Y180478D01*
X-220915Y180520D01*
X-220844Y180567D01*
X-221201Y177388D01*
D02*
G37*
G36*
X-230673Y168180D02*
X-230698Y168421D01*
X-230776Y168637D01*
X-230904Y168828D01*
X-231084Y168993D01*
X-231315Y169132D01*
X-231598Y169247D01*
X-231932Y169336D01*
X-232318Y169399D01*
X-232755Y169437D01*
X-233243Y169450D01*
Y171990D01*
X-232755Y172003D01*
X-232318Y172041D01*
X-231932Y172104D01*
X-231598Y172193D01*
X-231315Y172307D01*
X-231084Y172447D01*
X-230904Y172612D01*
X-230776Y172803D01*
X-230698Y173019D01*
X-230673Y173260D01*
Y168180D01*
D02*
G37*
G36*
X-368060Y276352D02*
X-398032D01*
X-403620Y270764D01*
Y223620D01*
X-399456Y219456D01*
X-356274D01*
X-318784Y181966D01*
Y162560D01*
X-396567D01*
X-420753Y186746D01*
Y283935D01*
X-417375Y287313D01*
X-368060Y287313D01*
Y276352D01*
D02*
G37*
%LPC*%
G36*
X-249029Y285043D02*
X-250535D01*
X-251927Y284466D01*
X-252992Y283401D01*
X-253568Y282010D01*
Y280504D01*
X-252992Y279112D01*
X-252460Y278581D01*
X-252429Y278177D01*
X-252426Y277968D01*
X-252372Y277841D01*
Y218294D01*
X-252426Y218167D01*
X-252430Y217934D01*
X-252437Y217757D01*
X-252456Y217558D01*
X-252992Y217023D01*
X-253568Y215631D01*
Y214125D01*
X-252992Y212733D01*
X-251927Y211668D01*
X-250535Y211092D01*
X-249029D01*
X-247637Y211668D01*
X-246572Y212733D01*
X-245996Y214125D01*
Y215631D01*
X-246572Y217023D01*
X-247104Y217554D01*
X-247135Y217958D01*
X-247138Y218167D01*
X-247192Y218294D01*
Y277841D01*
X-247138Y277968D01*
X-247134Y278201D01*
X-247127Y278377D01*
X-247108Y278577D01*
X-246572Y279112D01*
X-245996Y280504D01*
Y282010D01*
X-246572Y283401D01*
X-247637Y284466D01*
X-249029Y285043D01*
D02*
G37*
G36*
X-312275Y230856D02*
X-313781D01*
X-315173Y230280D01*
X-316238Y229215D01*
X-316814Y227823D01*
Y226317D01*
X-316238Y224925D01*
X-315173Y223860D01*
X-313781Y223284D01*
X-312832D01*
X-312557Y223053D01*
X-312411Y222911D01*
X-312370Y222895D01*
X-312351Y222856D01*
X-312243Y222820D01*
X-305517Y216095D01*
X-304677Y215533D01*
X-303686Y215336D01*
X-265523D01*
X-254724Y204538D01*
X-253884Y203976D01*
X-252893Y203779D01*
X-238095D01*
X-236828Y203772D01*
X-232736Y199680D01*
X-232060Y199004D01*
X-231703Y199004D01*
X-231703Y199004D01*
X-230794Y199004D01*
X-225450D01*
X-223875Y199317D01*
X-222540Y200209D01*
X-221648Y201544D01*
X-221335Y203119D01*
Y209619D01*
X-221648Y211194D01*
X-222540Y212529D01*
X-223875Y213421D01*
X-225450Y213734D01*
X-228950D01*
X-230525Y213421D01*
X-231860Y212529D01*
X-232752Y211194D01*
X-233065Y209619D01*
Y208959D01*
X-251820D01*
X-262619Y219757D01*
X-263459Y220319D01*
X-264450Y220516D01*
X-302613D01*
X-308747Y226649D01*
X-308796Y226775D01*
X-309104Y227098D01*
X-309242Y227262D01*
Y227823D01*
X-309818Y229215D01*
X-310883Y230280D01*
X-312275Y230856D01*
D02*
G37*
%LPD*%
G36*
X-248245Y279550D02*
X-248301Y279456D01*
X-248351Y279342D01*
X-248393Y279208D01*
X-248430Y279054D01*
X-248459Y278880D01*
X-248499Y278473D01*
X-248509Y278239D01*
X-248512Y277986D01*
X-251052D01*
X-251055Y278239D01*
X-251105Y278880D01*
X-251134Y279054D01*
X-251171Y279208D01*
X-251213Y279342D01*
X-251263Y279456D01*
X-251319Y279550D01*
X-251381Y279625D01*
X-248183D01*
X-248245Y279550D01*
D02*
G37*
G36*
X-248509Y217895D02*
X-248459Y217255D01*
X-248430Y217081D01*
X-248393Y216927D01*
X-248351Y216793D01*
X-248301Y216679D01*
X-248245Y216584D01*
X-248183Y216510D01*
X-251381D01*
X-251319Y216584D01*
X-251263Y216679D01*
X-251213Y216793D01*
X-251171Y216927D01*
X-251134Y217081D01*
X-251105Y217255D01*
X-251065Y217662D01*
X-251055Y217895D01*
X-251052Y218149D01*
X-248512D01*
X-248509Y217895D01*
D02*
G37*
G36*
X-310732Y227097D02*
X-310701Y226996D01*
X-310651Y226885D01*
X-310583Y226765D01*
X-310496Y226633D01*
X-310391Y226492D01*
X-310127Y226180D01*
X-309790Y225826D01*
X-311453Y223897D01*
X-311634Y224073D01*
X-312125Y224486D01*
X-312270Y224585D01*
X-312407Y224664D01*
X-312535Y224725D01*
X-312654Y224766D01*
X-312764Y224788D01*
X-312865Y224791D01*
X-310746Y227187D01*
X-310732Y227097D01*
D02*
G37*
G36*
X-366536Y321827D02*
Y310686D01*
X-367597Y309626D01*
X-439932Y309626D01*
X-442295Y307263D01*
X-442295Y242555D01*
X-443465Y241384D01*
X-478044D01*
X-478550Y240878D01*
X-478550Y220518D01*
X-478550Y220382D01*
X-477748Y219580D01*
X-477613Y219580D01*
X-466272D01*
X-465183Y218491D01*
Y209655D01*
X-400054Y144526D01*
X-314720Y144526D01*
X-302274Y131826D01*
X-275394D01*
X-274334Y130766D01*
X-274334Y118364D01*
X-274842Y117856D01*
X-340120Y117856D01*
X-349083Y126819D01*
X-419675D01*
X-457194Y164338D01*
X-538912D01*
X-540835Y162415D01*
Y150990D01*
X-542780Y149045D01*
X-560562D01*
X-561991Y150473D01*
Y179567D01*
X-560578Y180980D01*
X-507383D01*
X-506236Y182127D01*
Y216236D01*
X-507170Y217170D01*
X-519675Y217170D01*
X-520714Y218209D01*
Y238605D01*
X-519797Y239522D01*
X-503188D01*
X-492520Y250190D01*
X-455311D01*
X-454448Y251053D01*
Y321488D01*
X-453356Y322580D01*
X-367289D01*
X-366536Y321827D01*
D02*
G37*
G36*
X-571041Y144462D02*
X-570946Y144406D01*
X-570832Y144357D01*
X-570698Y144314D01*
X-570544Y144278D01*
X-570370Y144248D01*
X-569963Y144209D01*
X-569730Y144199D01*
X-569477Y144195D01*
Y141655D01*
X-569730Y141652D01*
X-570370Y141603D01*
X-570544Y141573D01*
X-570698Y141537D01*
X-570832Y141494D01*
X-570946Y141445D01*
X-571041Y141389D01*
X-571115Y141326D01*
Y144525D01*
X-571041Y144462D01*
D02*
G37*
G36*
X-563413Y136831D02*
X-563318Y136772D01*
X-563204Y136720D01*
X-563071Y136675D01*
X-562917Y136637D01*
X-562743Y136606D01*
X-562550Y136582D01*
X-562104Y136554D01*
X-561851Y136550D01*
X-561934Y134010D01*
X-562187Y134007D01*
X-562829Y133961D01*
X-563003Y133933D01*
X-563157Y133898D01*
X-563291Y133858D01*
X-563405Y133811D01*
X-563499Y133758D01*
X-563574Y133699D01*
X-563487Y136897D01*
X-563413Y136831D01*
D02*
G37*
G36*
X-490480Y133383D02*
X-490565Y133323D01*
X-490641Y133242D01*
X-490708Y133139D01*
X-490765Y133015D01*
X-490815Y132870D01*
X-490855Y132703D01*
X-490886Y132516D01*
X-490908Y132306D01*
X-490922Y131926D01*
X-490900Y129717D01*
X-493668D01*
X-493630Y129800D01*
X-493596Y129928D01*
X-493565Y130100D01*
X-493539Y130317D01*
X-493484Y131237D01*
X-493466Y132560D01*
X-492839Y132495D01*
X-493466Y132715D01*
X-493467Y132975D01*
X-493544Y134193D01*
X-493563Y134239D01*
X-490480Y133383D01*
D02*
G37*
G36*
X-496100Y132074D02*
X-495973Y129928D01*
X-495938Y129800D01*
X-495900Y129717D01*
X-498668D01*
X-498663Y129750D01*
X-498659Y129833D01*
X-498642Y132297D01*
X-496102Y132560D01*
X-496100Y132074D01*
D02*
G37*
G36*
X-521719Y126929D02*
X-521624Y126873D01*
X-521510Y126824D01*
X-521376Y126781D01*
X-521222Y126744D01*
X-521048Y126715D01*
X-520641Y126675D01*
X-520408Y126665D01*
X-520154Y126662D01*
Y124122D01*
X-520408Y124119D01*
X-521048Y124069D01*
X-521222Y124040D01*
X-521376Y124003D01*
X-521510Y123961D01*
X-521624Y123911D01*
X-521719Y123855D01*
X-521793Y123793D01*
Y126992D01*
X-521719Y126929D01*
D02*
G37*
G36*
X-513752Y122852D02*
X-513778Y123094D01*
X-513855Y123309D01*
X-513983Y123500D01*
X-514163Y123665D01*
X-514394Y123805D01*
X-514677Y123919D01*
X-515011Y124008D01*
X-515397Y124071D01*
X-515834Y124109D01*
X-516322Y124122D01*
Y126662D01*
X-515834Y126675D01*
X-515397Y126713D01*
X-515011Y126777D01*
X-514677Y126865D01*
X-514394Y126980D01*
X-514163Y127119D01*
X-513983Y127284D01*
X-513855Y127475D01*
X-513778Y127691D01*
X-513752Y127932D01*
Y122852D01*
D02*
G37*
G36*
X-423178Y119380D02*
X-367328Y119380D01*
X-353358Y105410D01*
X-310230D01*
X-305404Y100584D01*
X-276663D01*
X-268502Y108745D01*
Y110187D01*
X-267117Y111572D01*
X-258920D01*
X-257570Y110222D01*
Y88652D01*
X-257830Y88392D01*
X-359932D01*
X-364376Y83948D01*
X-438791D01*
X-440831Y85988D01*
Y110109D01*
X-474283Y143561D01*
X-475938Y145197D01*
X-504532D01*
X-504714Y145318D01*
X-505705Y145515D01*
X-535827D01*
X-537378Y147066D01*
Y157477D01*
X-535851Y159004D01*
X-462802Y159004D01*
X-423178Y119380D01*
D02*
G37*
G36*
X-80281Y301177D02*
X-71613D01*
X-70918Y300482D01*
Y292498D01*
X-71249Y291698D01*
Y290191D01*
X-70918Y289391D01*
Y286354D01*
X-68891Y284327D01*
X-41353D01*
X-22658Y303022D01*
X-9489Y302983D01*
X-8779Y302273D01*
Y282727D01*
X-12917Y278589D01*
X-74444Y278589D01*
X-97273Y301418D01*
X-134850D01*
X-140918Y295351D01*
Y278109D01*
X-142397Y276630D01*
X-159638D01*
X-161117Y278109D01*
Y306706D01*
X-158449Y309374D01*
X-88479D01*
X-80281Y301177D01*
D02*
G37*
G36*
X-77152Y275061D02*
X-9039D01*
Y258240D01*
X-9659Y257620D01*
X-80339D01*
X-99349Y276630D01*
X-116585D01*
X-118070Y278115D01*
Y295751D01*
X-116591Y297230D01*
X-99322D01*
X-77152Y275061D01*
D02*
G37*
G36*
X-146238Y245323D02*
X-146175Y245154D01*
X-146071Y245005D01*
X-145926Y244876D01*
X-145738Y244766D01*
X-145510Y244677D01*
X-145239Y244607D01*
X-144928Y244557D01*
X-144574Y244527D01*
X-144179Y244518D01*
Y242518D01*
X-144574Y242508D01*
X-144928Y242478D01*
X-145239Y242428D01*
X-145510Y242358D01*
X-145738Y242269D01*
X-145926Y242160D01*
X-146071Y242031D01*
X-146175Y241881D01*
X-146238Y241712D01*
X-146258Y241523D01*
Y245512D01*
X-146238Y245323D01*
D02*
G37*
G36*
X-155947Y240994D02*
X-155975Y241233D01*
X-156058Y241446D01*
X-156197Y241634D01*
X-156391Y241796D01*
X-156641Y241934D01*
X-156947Y242047D01*
X-157308Y242135D01*
X-157725Y242197D01*
X-158197Y242235D01*
X-158725Y242248D01*
Y244788D01*
X-158197Y244800D01*
X-157725Y244838D01*
X-157308Y244900D01*
X-156947Y244988D01*
X-156641Y245101D01*
X-156391Y245239D01*
X-156197Y245402D01*
X-156058Y245590D01*
X-155975Y245803D01*
X-155947Y246041D01*
Y240994D01*
D02*
G37*
G36*
X-168052Y245803D02*
X-167962Y245590D01*
X-167817Y245402D01*
X-167620Y245239D01*
X-167369Y245101D01*
X-167064Y244988D01*
X-166706Y244900D01*
X-166294Y244838D01*
X-165829Y244800D01*
X-165311Y244788D01*
Y242248D01*
X-165809Y242235D01*
X-166253Y242197D01*
X-166644Y242133D01*
X-166981Y242044D01*
X-167265Y241930D01*
X-167495Y241790D01*
X-167672Y241625D01*
X-167795Y241435D01*
X-167865Y241219D01*
X-167881Y240978D01*
X-168089Y246041D01*
X-168052Y245803D01*
D02*
G37*
G36*
X-169069Y237225D02*
X-169282Y237142D01*
X-169470Y237003D01*
X-169633Y236808D01*
X-169771Y236558D01*
X-169883Y236253D01*
X-169971Y235891D01*
X-170034Y235475D01*
X-170072Y235002D01*
X-170084Y234474D01*
X-172624D01*
X-172637Y235002D01*
X-172674Y235475D01*
X-172737Y235891D01*
X-172824Y236253D01*
X-172937Y236558D01*
X-173075Y236808D01*
X-173238Y237003D01*
X-173426Y237142D01*
X-173639Y237225D01*
X-173877Y237253D01*
X-168831D01*
X-169069Y237225D01*
D02*
G37*
G36*
X-126155Y231667D02*
X-125984Y231528D01*
X-125816Y231411D01*
X-125651Y231318D01*
X-125489Y231248D01*
X-125330Y231202D01*
X-125173Y231180D01*
X-125020Y231180D01*
X-124869Y231204D01*
X-124721Y231252D01*
X-125998Y228319D01*
X-126048Y228436D01*
X-126111Y228559D01*
X-126188Y228689D01*
X-126380Y228966D01*
X-126496Y229114D01*
X-126924Y229594D01*
X-127092Y229766D01*
X-126329Y231831D01*
X-126155Y231667D01*
D02*
G37*
G36*
X-168849Y223714D02*
X-168811Y223277D01*
X-168748Y222891D01*
X-168659Y222557D01*
X-168545Y222274D01*
X-168405Y222043D01*
X-168240Y221863D01*
X-168049Y221735D01*
X-167833Y221658D01*
X-167592Y221632D01*
X-172672D01*
X-172431Y221658D01*
X-172215Y221735D01*
X-172024Y221863D01*
X-171859Y222043D01*
X-171719Y222274D01*
X-171605Y222557D01*
X-171516Y222891D01*
X-171453Y223277D01*
X-171415Y223714D01*
X-171402Y224202D01*
X-168862D01*
X-168849Y223714D01*
D02*
G37*
G36*
X-116535Y270304D02*
Y249458D01*
X-108436Y241359D01*
X-106722Y239645D01*
Y229206D01*
X-104326Y226810D01*
X-88497D01*
X-86155Y229151D01*
X-86135Y247975D01*
X-85164Y248946D01*
X-69119D01*
X-67197Y247024D01*
X-67197Y221399D01*
X-68662Y219934D01*
X-125813Y219934D01*
X-131418Y214330D01*
X-131418Y197832D01*
X-113672Y180086D01*
X-89376D01*
X-87730Y178440D01*
Y154144D01*
X-87730Y106928D01*
Y90877D01*
X-89508Y89099D01*
X-108890D01*
X-110336Y90545D01*
Y102356D01*
X-97588Y115104D01*
Y169926D01*
X-101092Y173430D01*
X-116535D01*
X-125274Y182169D01*
X-127908Y184803D01*
X-127956Y185045D01*
X-128848Y186380D01*
X-130183Y187272D01*
X-130425Y187320D01*
X-133853Y190748D01*
X-147267D01*
X-148020Y191502D01*
X-148021Y214189D01*
X-137166Y225044D01*
X-120704D01*
X-114352Y231396D01*
Y237998D01*
X-126290Y249936D01*
Y271276D01*
X-125918Y271649D01*
X-117879D01*
X-116535Y270304D01*
D02*
G37*
G36*
X-149209Y222019D02*
X-149425Y221942D01*
X-149616Y221814D01*
X-149781Y221634D01*
X-149921Y221402D01*
X-150035Y221119D01*
X-150124Y220785D01*
X-150187Y220400D01*
X-150225Y219963D01*
X-150238Y219474D01*
X-152778D01*
X-152791Y219963D01*
X-152829Y220400D01*
X-152892Y220785D01*
X-152981Y221119D01*
X-153096Y221402D01*
X-153235Y221634D01*
X-153400Y221814D01*
X-153591Y221942D01*
X-153807Y222019D01*
X-154048Y222045D01*
X-148968D01*
X-149209Y222019D01*
D02*
G37*
G36*
X-120837Y212555D02*
X-121808Y211596D01*
X-123507Y213540D01*
X-123488Y213548D01*
X-123450Y213575D01*
X-123394Y213621D01*
X-123116Y213878D01*
X-122488Y214496D01*
X-120837Y212555D01*
D02*
G37*
G36*
X-113436Y191057D02*
X-113612Y190876D01*
X-114031Y190388D01*
X-114132Y190244D01*
X-114216Y190110D01*
X-114280Y189984D01*
X-114326Y189869D01*
X-114353Y189762D01*
X-114362Y189665D01*
X-116624Y191927D01*
X-116527Y191936D01*
X-116420Y191963D01*
X-116305Y192009D01*
X-116180Y192073D01*
X-116045Y192157D01*
X-115901Y192258D01*
X-115585Y192518D01*
X-115413Y192676D01*
X-115232Y192853D01*
X-113436Y191057D01*
D02*
G37*
G36*
X-150225Y187235D02*
X-150188Y186763D01*
X-150125Y186346D01*
X-150037Y185985D01*
X-149925Y185679D01*
X-149787Y185429D01*
X-149624Y185235D01*
X-149436Y185096D01*
X-149223Y185013D01*
X-148985Y184985D01*
X-154031D01*
X-153793Y185013D01*
X-153580Y185096D01*
X-153392Y185235D01*
X-153229Y185429D01*
X-153091Y185679D01*
X-152978Y185985D01*
X-152891Y186346D01*
X-152828Y186763D01*
X-152790Y187235D01*
X-152778Y187763D01*
X-150238D01*
X-150225Y187235D01*
D02*
G37*
G36*
X-152919Y175247D02*
X-153043Y175459D01*
X-153210Y175591D01*
X-153421Y175645D01*
X-153676Y175620D01*
X-153974Y175517D01*
X-154315Y175334D01*
X-154700Y175073D01*
X-155129Y174732D01*
X-155601Y174314D01*
X-156116Y173816D01*
X-156807Y176717D01*
X-156368Y177173D01*
X-155661Y178022D01*
X-155393Y178414D01*
X-155182Y178784D01*
X-155028Y179132D01*
X-154930Y179459D01*
X-154890Y179764D01*
X-154907Y180047D01*
X-154981Y180309D01*
X-152919Y175247D01*
D02*
G37*
G36*
X-206943Y165905D02*
X-207150Y165823D01*
X-207333Y165687D01*
X-207492Y165497D01*
X-207626Y165252D01*
X-207735Y164953D01*
X-207820Y164599D01*
X-207881Y164191D01*
X-207918Y163729D01*
X-207930Y163212D01*
X-210470D01*
X-210482Y163729D01*
X-210519Y164191D01*
X-210580Y164599D01*
X-210665Y164953D01*
X-210774Y165252D01*
X-210908Y165497D01*
X-211067Y165687D01*
X-211249Y165823D01*
X-211457Y165905D01*
X-211688Y165932D01*
X-206712D01*
X-206943Y165905D01*
D02*
G37*
G36*
X-543835Y238127D02*
Y212414D01*
X-544649Y211600D01*
X-557399D01*
X-557696Y211897D01*
X-557697Y223472D01*
X-558082Y223858D01*
X-593083D01*
X-593236Y224011D01*
Y238522D01*
X-593129Y238629D01*
X-544337D01*
X-543835Y238127D01*
D02*
G37*
G36*
X-528357Y97260D02*
X-528279Y97181D01*
X-528292Y97109D01*
X-528397Y97047D01*
X-528595Y96993D01*
X-528885Y96947D01*
X-529267Y96909D01*
X-530966Y96847D01*
X-531717Y96842D01*
X-531598Y99382D01*
X-531156Y99389D01*
X-529988Y99486D01*
X-529651Y99544D01*
X-529340Y99615D01*
X-529055Y99699D01*
X-528796Y99796D01*
X-528564Y99906D01*
X-528357Y100028D01*
Y97260D01*
D02*
G37*
G36*
X-530966Y95441D02*
X-528595Y95295D01*
X-528397Y95241D01*
X-528292Y95178D01*
X-528279Y95107D01*
X-528357Y95028D01*
Y92260D01*
X-528564Y92382D01*
X-528796Y92492D01*
X-529055Y92589D01*
X-529340Y92673D01*
X-529651Y92744D01*
X-529988Y92802D01*
X-530741Y92880D01*
X-531156Y92899D01*
X-531598Y92906D01*
X-531717Y95445D01*
X-530966Y95441D01*
D02*
G37*
G36*
X-528357Y87260D02*
X-528397Y87269D01*
X-528485Y87277D01*
X-529047Y87296D01*
X-530970Y87308D01*
X-531167Y89848D01*
X-530681Y89850D01*
X-528434Y89994D01*
X-528357Y90028D01*
Y87260D01*
D02*
G37*
G36*
X-555595Y91003D02*
X-555157Y90770D01*
Y91118D01*
X-555131Y90877D01*
X-555082Y90739D01*
X-554571Y90547D01*
X-553889Y90361D01*
X-553094Y90205D01*
X-552185Y90076D01*
X-550028Y89905D01*
X-547418Y89848D01*
Y87308D01*
X-548779Y87294D01*
X-553094Y86952D01*
X-553889Y86795D01*
X-554571Y86610D01*
X-555082Y86418D01*
X-555131Y86279D01*
X-555157Y86038D01*
Y86387D01*
X-555595Y86153D01*
X-555937Y85883D01*
Y91274D01*
X-555595Y91003D01*
D02*
G37*
G36*
X-451229Y83853D02*
X-451442Y83770D01*
X-451630Y83631D01*
X-451793Y83437D01*
X-451931Y83187D01*
X-452043Y82881D01*
X-452131Y82520D01*
X-452194Y82103D01*
X-452231Y81631D01*
X-452244Y81103D01*
X-454784D01*
X-454796Y81631D01*
X-454834Y82103D01*
X-454897Y82520D01*
X-454985Y82881D01*
X-455097Y83187D01*
X-455235Y83437D01*
X-455398Y83631D01*
X-455586Y83770D01*
X-455799Y83853D01*
X-456037Y83881D01*
X-450991D01*
X-451229Y83853D01*
D02*
G37*
G36*
X-527784Y84784D02*
X-518784D01*
X-518299Y84880D01*
X-517284Y83991D01*
Y82772D01*
X-513156Y78644D01*
X-511937D01*
X-511048Y77629D01*
X-511144Y77144D01*
Y68144D01*
X-511048Y67659D01*
X-511937Y66644D01*
X-548850D01*
X-555130Y60364D01*
X-555130Y30405D01*
X-556058Y29476D01*
X-585273Y29476D01*
X-586206Y30409D01*
X-586206Y45631D01*
X-584843Y46995D01*
X-568252D01*
X-562116Y53131D01*
Y77173D01*
X-561440Y77849D01*
X-536337D01*
X-529134Y85052D01*
X-527784Y84784D01*
D02*
G37*
G36*
X-82739Y198204D02*
X-82603Y198102D01*
X-82455Y198013D01*
X-82294Y197934D01*
X-82121Y197869D01*
X-81935Y197815D01*
X-81737Y197773D01*
X-81527Y197743D01*
X-81304Y197725D01*
X-81069Y197719D01*
Y195719D01*
X-81304Y195713D01*
X-81527Y195695D01*
X-81737Y195665D01*
X-81935Y195623D01*
X-82121Y195569D01*
X-82294Y195503D01*
X-82455Y195425D01*
X-82603Y195335D01*
X-82739Y195233D01*
X-82863Y195119D01*
Y198318D01*
X-82739Y198204D01*
D02*
G37*
G36*
X-155914Y145485D02*
X-155945Y145723D01*
X-156031Y145936D01*
X-156174Y146124D01*
X-156371Y146287D01*
X-156625Y146425D01*
X-156934Y146538D01*
X-157298Y146625D01*
X-157718Y146688D01*
X-158194Y146726D01*
X-158725Y146738D01*
Y149278D01*
X-158201Y149291D01*
X-157732Y149328D01*
X-157318Y149391D01*
X-156960Y149479D01*
X-156658Y149592D01*
X-156411Y149729D01*
X-156220Y149892D01*
X-156084Y150080D01*
X-156004Y150293D01*
X-155980Y150531D01*
X-155914Y145485D01*
D02*
G37*
G36*
X-168021Y150293D02*
X-167932Y150080D01*
X-167791Y149892D01*
X-167596Y149729D01*
X-167348Y149592D01*
X-167047Y149479D01*
X-166693Y149391D01*
X-166285Y149328D01*
X-165825Y149291D01*
X-165311Y149278D01*
Y146738D01*
X-165807Y146726D01*
X-166250Y146687D01*
X-166640Y146624D01*
X-166977Y146535D01*
X-167261Y146421D01*
X-167491Y146281D01*
X-167668Y146116D01*
X-167792Y145926D01*
X-167864Y145710D01*
X-167881Y145468D01*
X-168056Y150531D01*
X-168021Y150293D01*
D02*
G37*
G36*
X-146339Y146844D02*
X-146410Y146680D01*
X-146423Y146486D01*
X-146378Y146261D01*
X-146275Y146005D01*
X-146114Y145720D01*
X-145895Y145403D01*
X-145617Y145057D01*
X-144888Y144272D01*
X-146585Y143141D01*
X-146980Y143522D01*
X-147695Y144126D01*
X-148015Y144349D01*
X-148310Y144520D01*
X-148580Y144638D01*
X-148826Y144704D01*
X-149046Y144717D01*
X-149242Y144677D01*
X-149413Y144585D01*
X-146209Y146977D01*
X-146339Y146844D01*
D02*
G37*
G36*
X-169069Y141765D02*
X-169282Y141682D01*
X-169470Y141543D01*
X-169633Y141349D01*
X-169771Y141099D01*
X-169883Y140793D01*
X-169971Y140432D01*
X-170034Y140015D01*
X-170072Y139543D01*
X-170084Y139015D01*
X-172624D01*
X-172637Y139543D01*
X-172674Y140015D01*
X-172737Y140432D01*
X-172824Y140793D01*
X-172937Y141099D01*
X-173075Y141349D01*
X-173238Y141543D01*
X-173426Y141682D01*
X-173639Y141765D01*
X-173877Y141793D01*
X-168831D01*
X-169069Y141765D01*
D02*
G37*
G36*
X-167833Y125702D02*
X-167795Y125265D01*
X-167732Y124879D01*
X-167643Y124545D01*
X-167528Y124262D01*
X-167389Y124031D01*
X-167224Y123851D01*
X-167033Y123723D01*
X-166817Y123645D01*
X-166576Y123620D01*
X-171656D01*
X-171415Y123645D01*
X-171199Y123723D01*
X-171008Y123851D01*
X-170843Y124031D01*
X-170704Y124262D01*
X-170589Y124545D01*
X-170500Y124879D01*
X-170437Y125265D01*
X-170399Y125702D01*
X-170386Y126190D01*
X-167846D01*
X-167833Y125702D01*
D02*
G37*
G36*
X-242663Y143130D02*
X-242636Y143024D01*
X-242590Y142908D01*
X-242525Y142783D01*
X-242442Y142648D01*
X-242340Y142505D01*
X-242080Y142189D01*
X-241922Y142017D01*
X-241745Y141835D01*
X-243541Y140039D01*
X-243723Y140216D01*
X-244211Y140634D01*
X-244354Y140736D01*
X-244489Y140819D01*
X-244614Y140884D01*
X-244730Y140930D01*
X-244836Y140957D01*
X-244933Y140965D01*
X-242671Y143227D01*
X-242663Y143130D01*
D02*
G37*
G36*
X-225366Y141112D02*
X-225538Y141048D01*
X-225689Y140942D01*
X-225820Y140794D01*
X-225931Y140603D01*
X-226022Y140370D01*
X-226093Y140095D01*
X-226144Y139777D01*
X-226174Y139417D01*
X-226184Y139015D01*
X-228216D01*
X-228226Y139417D01*
X-228256Y139777D01*
X-228307Y140095D01*
X-228378Y140370D01*
X-228468Y140603D01*
X-228580Y140794D01*
X-228711Y140942D01*
X-228862Y141048D01*
X-229034Y141112D01*
X-229226Y141133D01*
X-225174D01*
X-225366Y141112D01*
D02*
G37*
G36*
X-226174Y135055D02*
X-226144Y134695D01*
X-226093Y134377D01*
X-226022Y134102D01*
X-225931Y133869D01*
X-225820Y133679D01*
X-225689Y133530D01*
X-225538Y133424D01*
X-225366Y133361D01*
X-225174Y133340D01*
X-229226D01*
X-229034Y133361D01*
X-228862Y133424D01*
X-228711Y133530D01*
X-228580Y133679D01*
X-228468Y133869D01*
X-228378Y134102D01*
X-228307Y134377D01*
X-228256Y134695D01*
X-228226Y135055D01*
X-228216Y135458D01*
X-226184D01*
X-226174Y135055D01*
D02*
G37*
G36*
X-200102Y127474D02*
X-200119Y127551D01*
X-200170Y127620D01*
X-200255Y127681D01*
X-200375Y127734D01*
X-200528Y127779D01*
X-200716Y127815D01*
X-200938Y127844D01*
X-201484Y127876D01*
X-201808Y127880D01*
Y130420D01*
X-201484Y130424D01*
X-200716Y130485D01*
X-200528Y130521D01*
X-200375Y130566D01*
X-200255Y130619D01*
X-200170Y130680D01*
X-200119Y130749D01*
X-200102Y130826D01*
Y127474D01*
D02*
G37*
G36*
X-205706Y130391D02*
X-205641Y130244D01*
X-205533Y130115D01*
X-205381Y130003D01*
X-205187Y129908D01*
X-204949Y129830D01*
X-204667Y129770D01*
X-204343Y129727D01*
X-203975Y129701D01*
X-203564Y129692D01*
Y127152D01*
X-203975Y127144D01*
X-204667Y127075D01*
X-204949Y127014D01*
X-205187Y126937D01*
X-205381Y126842D01*
X-205533Y126730D01*
X-205641Y126601D01*
X-205706Y126454D01*
X-205727Y126290D01*
Y130555D01*
X-205706Y130391D01*
D02*
G37*
G36*
X-223822Y126517D02*
X-223862Y126319D01*
X-223849Y126095D01*
X-223783Y125846D01*
X-223663Y125571D01*
X-223489Y125271D01*
X-223262Y124945D01*
X-222982Y124595D01*
X-222260Y123816D01*
X-223418Y122101D01*
X-223832Y122501D01*
X-224569Y123125D01*
X-224891Y123349D01*
X-225182Y123513D01*
X-225442Y123618D01*
X-225671Y123665D01*
X-225869Y123652D01*
X-226037Y123580D01*
X-226173Y123450D01*
X-223727Y126690D01*
X-223822Y126517D01*
D02*
G37*
G36*
X-212673Y109159D02*
X-212689Y109228D01*
X-212739Y109291D01*
X-212823Y109346D01*
X-212939Y109393D01*
X-213089Y109433D01*
X-213273Y109466D01*
X-213489Y109492D01*
X-214023Y109521D01*
X-214339Y109525D01*
Y112065D01*
X-214023Y112069D01*
X-213273Y112123D01*
X-213089Y112156D01*
X-212939Y112197D01*
X-212823Y112244D01*
X-212739Y112299D01*
X-212689Y112361D01*
X-212673Y112431D01*
Y109159D01*
D02*
G37*
G36*
X-230673Y108255D02*
X-230698Y108496D01*
X-230776Y108712D01*
X-230904Y108903D01*
X-231084Y109068D01*
X-231315Y109207D01*
X-231598Y109322D01*
X-231932Y109410D01*
X-232318Y109474D01*
X-232755Y109512D01*
X-233243Y109525D01*
Y112065D01*
X-232755Y112078D01*
X-232318Y112116D01*
X-231932Y112179D01*
X-231598Y112268D01*
X-231315Y112382D01*
X-231084Y112522D01*
X-230904Y112687D01*
X-230776Y112878D01*
X-230698Y113094D01*
X-230673Y113335D01*
Y108255D01*
D02*
G37*
G36*
X-223713Y94620D02*
X-223669Y94592D01*
X-223596Y94568D01*
X-223493Y94547D01*
X-223361Y94529D01*
X-223010Y94503D01*
X-222264Y94488D01*
Y91948D01*
X-222542Y91946D01*
X-223493Y91889D01*
X-223596Y91868D01*
X-223669Y91844D01*
X-223713Y91816D01*
X-223727Y91785D01*
Y94651D01*
X-223713Y94620D01*
D02*
G37*
G36*
X-148883Y126560D02*
X-149099Y126482D01*
X-149290Y126354D01*
X-149455Y126174D01*
X-149594Y125943D01*
X-149709Y125660D01*
X-149798Y125326D01*
X-149861Y124940D01*
X-149899Y124503D01*
X-149912Y124015D01*
X-152452D01*
X-152465Y124503D01*
X-152503Y124940D01*
X-152566Y125326D01*
X-152655Y125660D01*
X-152769Y125943D01*
X-152909Y126174D01*
X-153074Y126354D01*
X-153265Y126482D01*
X-153481Y126560D01*
X-153722Y126585D01*
X-148642D01*
X-148883Y126560D01*
D02*
G37*
G36*
X-200102Y90627D02*
X-200122Y90869D01*
X-200194Y91084D01*
X-200319Y91275D01*
X-200497Y91440D01*
X-200728Y91580D01*
X-201012Y91694D01*
X-201348Y91783D01*
X-201737Y91846D01*
X-202178Y91884D01*
X-202672Y91897D01*
Y94437D01*
X-202165Y94450D01*
X-201711Y94487D01*
X-201309Y94550D01*
X-200960Y94638D01*
X-200664Y94750D01*
X-200420Y94888D01*
X-200229Y95051D01*
X-200091Y95239D01*
X-200005Y95452D01*
X-199972Y95690D01*
X-200102Y90627D01*
D02*
G37*
G36*
X-205702Y95466D02*
X-205625Y95250D01*
X-205496Y95059D01*
X-205316Y94894D01*
X-205085Y94755D01*
X-204802Y94640D01*
X-204468Y94551D01*
X-204082Y94488D01*
X-203645Y94450D01*
X-203157Y94437D01*
Y91897D01*
X-203645Y91884D01*
X-204082Y91846D01*
X-204468Y91783D01*
X-204802Y91694D01*
X-205085Y91580D01*
X-205316Y91440D01*
X-205496Y91275D01*
X-205625Y91084D01*
X-205702Y90869D01*
X-205727Y90627D01*
Y95707D01*
X-205702Y95466D01*
D02*
G37*
G36*
X-207919Y79591D02*
X-207885Y79156D01*
X-207829Y78773D01*
X-207751Y78441D01*
X-207650Y78159D01*
X-207526Y77930D01*
X-207381Y77751D01*
X-207212Y77623D01*
X-207022Y77546D01*
X-206809Y77521D01*
X-211591D01*
X-211378Y77546D01*
X-211187Y77623D01*
X-211019Y77751D01*
X-210874Y77930D01*
X-210750Y78159D01*
X-210649Y78441D01*
X-210571Y78773D01*
X-210515Y79156D01*
X-210481Y79591D01*
X-210470Y80076D01*
X-207930D01*
X-207919Y79591D01*
D02*
G37*
G36*
X-149900Y79665D02*
X-149862Y79167D01*
X-149799Y78726D01*
X-149712Y78341D01*
X-149599Y78013D01*
X-149461Y77742D01*
X-149298Y77527D01*
X-149110Y77369D01*
X-148897Y77268D01*
X-148659Y77223D01*
X-153716Y77557D01*
X-153476Y77569D01*
X-153261Y77637D01*
X-153071Y77762D01*
X-152907Y77943D01*
X-152768Y78181D01*
X-152654Y78475D01*
X-152566Y78826D01*
X-152503Y79234D01*
X-152465Y79698D01*
X-152452Y80219D01*
X-149912D01*
X-149900Y79665D01*
D02*
G37*
G36*
X-154981Y70136D02*
X-155006Y70377D01*
X-155084Y70593D01*
X-155212Y70784D01*
X-155392Y70949D01*
X-155623Y71089D01*
X-155906Y71203D01*
X-156240Y71292D01*
X-156626Y71355D01*
X-157063Y71393D01*
X-157551Y71406D01*
Y73946D01*
X-157063Y73959D01*
X-156626Y73997D01*
X-156240Y74060D01*
X-155906Y74149D01*
X-155623Y74264D01*
X-155392Y74403D01*
X-155212Y74568D01*
X-155084Y74759D01*
X-155006Y74975D01*
X-154981Y75216D01*
Y70136D01*
D02*
G37*
G36*
X-254570Y160955D02*
X-254626Y160861D01*
X-254675Y160746D01*
X-254718Y160612D01*
X-254754Y160458D01*
X-254784Y160284D01*
X-254824Y159877D01*
X-254834Y159644D01*
X-254837Y159391D01*
X-257377D01*
X-257380Y159644D01*
X-257430Y160284D01*
X-257459Y160458D01*
X-257495Y160612D01*
X-257538Y160746D01*
X-257588Y160861D01*
X-257644Y160955D01*
X-257706Y161029D01*
X-254507D01*
X-254570Y160955D01*
D02*
G37*
G36*
X-230673Y70136D02*
X-230698Y70377D01*
X-230776Y70593D01*
X-230904Y70784D01*
X-231084Y70949D01*
X-231315Y71089D01*
X-231598Y71203D01*
X-231932Y71292D01*
X-232318Y71355D01*
X-232755Y71393D01*
X-233243Y71406D01*
Y73946D01*
X-232755Y73959D01*
X-232318Y73997D01*
X-231932Y74060D01*
X-231598Y74149D01*
X-231315Y74264D01*
X-231084Y74403D01*
X-230904Y74568D01*
X-230776Y74759D01*
X-230698Y74975D01*
X-230673Y75216D01*
Y70136D01*
D02*
G37*
D10*
X-127539Y349233D02*
X-127361Y349412D01*
Y358097D01*
X-74478Y82038D02*
X-59380Y97136D01*
X-115166Y82038D02*
X-74478D01*
X-131446Y98318D02*
X-115166Y82038D01*
X-131446Y98318D02*
Y129416D01*
X-84495Y196719D02*
X-43355D01*
X-38913Y192277D01*
X-127361Y358097D02*
X-112505Y372952D01*
X-23589Y380153D02*
X-6248Y362812D01*
Y329803D02*
Y362812D01*
X-16774Y319277D02*
X-6248Y329803D01*
X-139430Y243518D02*
X-125046Y229134D01*
X-123863D01*
X-151182Y243518D02*
X-139430D01*
X-59380Y154996D02*
X-47499Y166877D01*
X-59380Y97136D02*
Y154996D01*
X-47499Y166877D02*
X-19314D01*
X-38913Y192277D02*
X-19314D01*
X-32800Y372952D02*
X-16774Y356926D01*
Y344677D02*
Y356926D01*
X-150088Y148058D02*
X-131446Y129416D01*
X-135691Y335316D02*
Y361624D01*
X-117162Y380153D01*
X-151182Y148058D02*
X-150088D01*
X-117162Y380153D02*
X-23589D01*
X-112505Y372952D02*
X-32800D01*
D12*
X-133508Y180220D02*
D03*
X-151508D02*
D03*
X-558630Y57119D02*
D03*
X-575630D02*
D03*
X-575626Y72841D02*
D03*
X-558626D02*
D03*
X-575630Y88578D02*
D03*
X-558630D02*
D03*
X-209700Y259088D02*
D03*
X-226700D02*
D03*
X-209200Y242018D02*
D03*
X-227200D02*
D03*
Y224193D02*
D03*
X-209200D02*
D03*
Y206369D02*
D03*
X-227200D02*
D03*
Y188544D02*
D03*
X-209200D02*
D03*
Y170720D02*
D03*
X-227200D02*
D03*
X-133698Y162056D02*
D03*
X-150698D02*
D03*
X-151508Y72676D02*
D03*
X-133508D02*
D03*
X-227200Y72676D02*
D03*
X-209200D02*
D03*
X-189354Y146558D02*
D03*
X-171354D02*
D03*
X-209200Y146050D02*
D03*
X-227200D02*
D03*
Y128422D02*
D03*
X-209200D02*
D03*
X-227200Y110795D02*
D03*
X-209200D02*
D03*
X-227200Y93167D02*
D03*
X-209200D02*
D03*
X-134008Y260668D02*
D03*
X-151008D02*
D03*
X-56378Y296588D02*
D03*
X-74378Y310753D02*
D03*
X-57378D02*
D03*
X-74378Y324919D02*
D03*
X-56378D02*
D03*
X-452514Y104054D02*
D03*
X-435514D02*
D03*
X-74378Y296588D02*
D03*
X-453514Y88646D02*
D03*
X-435514D02*
D03*
X-575630Y104308D02*
D03*
X-558630D02*
D03*
X-469298Y231156D02*
D03*
X-486298D02*
D03*
X-533524Y230886D02*
D03*
X-515524D02*
D03*
X-74378Y339084D02*
D03*
X-56378D02*
D03*
X-189354Y242018D02*
D03*
X-171354D02*
D03*
X-93858Y138938D02*
D03*
X-76858D02*
D03*
D13*
X-80776Y355340D02*
D03*
X-46486D02*
D03*
D14*
X-151182Y243518D02*
D03*
Y225518D02*
D03*
Y148058D02*
D03*
Y130058D02*
D03*
X-297702Y107948D02*
D03*
X-280430Y75948D02*
D03*
Y107948D02*
D03*
X-297702Y75948D02*
D03*
X-262904Y125948D02*
D03*
Y107948D02*
D03*
X-297702Y124948D02*
D03*
X-280430Y92948D02*
D03*
Y124948D02*
D03*
X-297702Y92948D02*
D03*
D15*
X-194132Y92676D02*
D03*
Y73676D02*
D03*
X-170132Y83176D02*
D03*
X-194132Y129150D02*
D03*
Y110150D02*
D03*
X-170132Y119650D02*
D03*
X-194132Y190720D02*
D03*
Y171720D02*
D03*
X-170132Y181220D02*
D03*
X-194132Y227162D02*
D03*
Y208162D02*
D03*
X-170132Y217662D02*
D03*
D16*
X-194065Y286930D02*
D03*
X-107970Y329430D02*
D03*
Y286930D02*
D03*
X-151018Y329430D02*
D03*
Y286930D02*
D03*
X-194065Y329430D02*
D03*
D17*
X-291184Y174680D02*
D03*
X-333684D02*
D03*
D18*
X-323574Y77448D02*
D03*
Y123448D02*
D03*
Y100448D02*
D03*
D19*
X-523284Y103644D02*
D03*
Y113644D02*
D03*
Y108644D02*
D03*
Y98644D02*
D03*
Y93644D02*
D03*
Y88644D02*
D03*
Y83644D02*
D03*
X-471284D02*
D03*
Y88644D02*
D03*
Y93644D02*
D03*
Y103644D02*
D03*
Y108644D02*
D03*
Y113644D02*
D03*
D20*
X-382574Y100448D02*
D03*
D21*
X-512284Y72644D02*
D03*
X-507284D02*
D03*
X-502284D02*
D03*
X-497284D02*
D03*
X-492284D02*
D03*
X-487284D02*
D03*
X-482284D02*
D03*
Y124644D02*
D03*
X-487284D02*
D03*
X-492284D02*
D03*
X-497284D02*
D03*
X-502284D02*
D03*
X-507284D02*
D03*
X-512284D02*
D03*
D22*
X-497284Y98644D02*
D03*
D23*
X-486074Y192080D02*
D03*
X-376074D02*
D03*
D24*
X-295710Y331780D02*
D03*
Y244780D02*
D03*
D25*
X-383310Y264760D02*
D03*
Y281760D02*
D03*
Y298760D02*
D03*
Y315760D02*
D03*
Y332760D02*
D03*
D26*
X-500060Y298760D02*
D03*
D27*
X-522460Y346585D02*
D03*
Y250935D02*
D03*
D28*
X-117316Y354933D02*
D03*
X-103416D02*
D03*
D46*
X-194132Y92676D02*
G03*
X-195318Y93167I-1186J-1186D01*
G01*
X-201808Y129150D02*
G03*
X-202706Y128778I0J-1270D01*
G01*
X-203564Y128422D02*
G03*
X-202706Y128778I0J1214D01*
G01*
X-614934Y133864D02*
Y204824D01*
X-603932Y215826D02*
X-589395D01*
X-602301Y211889D02*
X-589395D01*
X-610997Y135495D02*
Y203193D01*
X-551596Y109658D02*
Y119022D01*
X-555650Y123075D02*
X-551596Y119022D01*
X-536114Y94176D02*
X-528440D01*
X-536114D02*
X-536114Y94176D01*
X-527909Y93644D02*
X-523284D01*
X-528440Y94176D02*
X-527909Y93644D01*
X-608217Y127147D02*
X-605298Y124228D01*
X-608217Y127147D02*
Y127147D01*
X-605298Y124228D02*
X-605298D01*
X-604145Y123075D01*
X-587364Y217858D02*
X-577864D01*
X-589395Y215826D02*
X-587364Y217858D01*
X-551596Y109658D02*
X-536114Y94176D01*
X-604145Y123075D02*
X-555650D01*
X-614934Y133864D02*
X-608217Y127147D01*
X-547659Y111288D02*
X-534483Y98112D01*
X-547659Y111288D02*
Y120652D01*
X-554019Y127012D02*
Y127012D01*
Y127012D02*
X-547659Y120652D01*
X-534483Y98112D02*
X-528440D01*
X-527909Y98644D01*
X-523284D01*
X-589395Y211889D02*
X-587364Y209858D01*
X-577864D01*
X-602514Y127012D02*
X-554019D01*
X-610997Y135495D02*
X-602514Y127012D01*
X-610997Y203193D02*
X-602301Y211889D01*
X-614934Y204824D02*
X-603932Y215826D01*
X-303686Y217926D02*
X-264450D01*
X-252893Y206369D02*
X-227200D01*
X-264450Y217926D02*
X-252893Y206369D01*
X-124077Y211328D02*
X-123860D01*
X-121574Y213614D02*
X-60250D01*
X-123860Y211328D02*
X-121574Y213614D01*
X-205536Y83741D02*
X-189311D01*
X-178246Y72676D02*
X-151508D01*
X-189311Y83741D02*
X-178246Y72676D01*
X-222264Y93218D02*
X-219159Y96323D01*
Y105975D02*
X-214339Y110795D01*
X-219159Y96323D02*
Y105975D01*
X-256107Y138907D02*
X-248512Y131312D01*
X-256107Y138907D02*
Y162661D01*
X-151508Y225192D02*
X-151182Y225518D01*
X-151508Y180220D02*
Y225192D01*
X-227200Y188544D02*
X-227124Y188468D01*
X-210133Y199518D02*
Y205436D01*
X-227124Y188468D02*
X-221183D01*
X-210133Y199518D01*
Y205436D02*
X-209200Y206369D01*
X-317102Y352243D02*
X-308934Y360412D01*
X-317102Y335840D02*
Y352243D01*
X-492196Y134222D02*
X-491585Y134834D01*
Y135383D01*
X-492196Y124732D02*
Y134222D01*
X-492284Y124644D02*
X-492196Y124732D01*
X-565161Y135342D02*
X-565099Y135280D01*
X-506642D01*
X-572747Y142925D02*
X-505705D01*
X-497372Y134593D01*
X-171708Y160020D02*
X-151508Y180220D01*
X-206008Y160020D02*
X-171708D01*
X-268736Y200873D02*
X-238583Y170720D01*
X-303373Y200873D02*
X-268736D01*
X-236963Y179050D02*
X-219656D01*
X-315710Y210194D02*
X-268108D01*
X-236963Y179050D01*
X-341222Y235706D02*
X-315710Y210194D01*
X-238583Y170720D02*
X-227200D01*
X-237230Y302518D02*
X-237029Y302317D01*
Y216095D02*
Y302317D01*
Y216095D02*
X-236828Y215894D01*
X-38863Y217677D02*
X-19314D01*
X-51075Y205465D02*
X-38863Y217677D01*
X-30787Y243077D02*
X-19314D01*
X-60250Y213614D02*
X-30787Y243077D01*
X-169116Y119650D02*
Y132018D01*
X-100824Y205465D02*
X-51075D01*
X-201271Y227162D02*
X-194132D01*
X-209200Y224193D02*
X-204240D01*
X-201271Y227162D01*
X-512496Y125392D02*
X-512284Y125180D01*
Y124644D02*
Y125180D01*
X-523425Y125392D02*
X-512496D01*
X-151182Y73002D02*
Y130058D01*
X-151508Y72676D02*
X-151182Y73002D01*
X-171354Y134256D02*
Y146558D01*
Y134256D02*
X-169116Y132018D01*
X-171354Y146558D02*
X-169904Y148008D01*
X-151232D01*
X-151182Y148058D01*
X-171354Y242018D02*
X-169854Y243518D01*
X-151182D01*
X-171354Y231252D02*
Y242018D01*
X-116646Y189643D02*
X-100824Y205465D01*
X-507284Y65388D02*
X-502516Y60620D01*
X-464059D02*
X-453514Y71165D01*
X-502516Y60620D02*
X-464059D01*
X-507284Y65388D02*
Y72644D01*
X-308934Y360412D02*
X-227483D01*
X-430819Y351111D02*
X-423494Y343786D01*
X-327016D01*
X-249782Y214878D02*
Y281257D01*
X-248512Y86446D02*
Y131312D01*
Y86446D02*
X-234742Y72676D01*
X-239114Y116580D02*
X-233329Y110795D01*
X-244956Y143250D02*
X-239114Y137408D01*
Y116580D02*
Y137408D01*
X-233329Y110795D02*
X-227200D01*
X-341222Y235706D02*
Y248406D01*
X-219656Y179050D02*
X-219401Y178795D01*
X-227200Y110795D02*
X-227200Y110795D01*
X-312830Y227070D02*
X-303686Y217926D01*
X-313028Y227070D02*
X-312830D01*
X-209200Y80076D02*
X-205536Y83741D01*
X-209200Y72676D02*
Y80076D01*
X-453514Y71165D02*
Y88646D01*
X-506642Y135280D02*
X-502372Y131010D01*
X-497372Y124732D02*
Y134593D01*
Y124732D02*
X-497284Y124644D01*
X-558630Y88578D02*
X-523350D01*
X-502372Y124732D02*
X-502284Y124644D01*
X-502372Y124732D02*
Y131010D01*
X-209200Y93167D02*
X-195318D01*
X-201808Y129150D02*
X-194132D01*
X-209200Y128422D02*
X-203564D01*
X-209200Y188544D02*
X-204086D01*
X-201910Y190720D02*
X-194132D01*
X-204086Y188544D02*
X-201910Y190720D01*
X-171354Y231252D02*
X-170132Y230030D01*
Y217662D02*
Y230030D01*
X-214339Y110795D02*
X-209200D01*
X-227149Y93218D02*
X-222264D01*
X-227200Y93167D02*
X-227149Y93218D01*
X-234742Y72676D02*
X-227200D01*
X-209200Y163212D02*
Y170720D01*
Y163212D02*
X-206008Y160020D01*
D47*
X-577864Y254358D02*
D03*
X-632864D02*
D03*
Y165358D02*
D03*
X-577864D02*
D03*
D48*
Y193858D02*
D03*
Y201858D02*
D03*
Y209858D02*
D03*
Y217858D02*
D03*
Y225858D02*
D03*
D49*
X-527064Y203580D02*
D03*
Y172780D02*
D03*
D50*
X-170132Y83176D02*
Y101710D01*
X-219677Y119797D02*
X-188219D01*
X-170132Y101710D01*
X-227200Y222582D02*
Y224193D01*
X-226426Y223419D01*
X-221842D02*
X-213920Y215497D01*
X-187417D01*
X-227200Y224193D02*
Y242018D01*
X-226426Y223419D02*
X-221842D01*
X-180612Y191700D02*
Y208692D01*
X-187417Y215497D02*
X-180612Y208692D01*
Y191700D02*
X-170132Y181220D01*
X-227200Y127320D02*
X-219677Y119797D01*
X-227200Y128422D02*
Y144947D01*
Y127320D02*
Y128422D01*
D51*
X-188584Y308640D02*
X-176345Y296401D01*
Y264749D02*
X-163188Y251593D01*
X-176345Y264749D02*
Y296401D01*
X-212369Y308640D02*
X-188584D01*
X-163188Y251593D02*
X-133510D01*
D52*
X-133353Y251436D02*
X-124996D01*
X-319076Y368300D02*
X-200712D01*
X-332538Y354838D02*
X-319076Y368300D01*
X-124996Y251436D02*
X-121402Y255030D01*
X-385073Y251341D02*
Y264760D01*
Y251341D02*
X-372190Y238458D01*
X-313653Y191192D02*
X-272042D01*
X-360920Y238458D02*
X-313653Y191192D01*
X-372190Y238458D02*
X-360920D01*
X-272042Y191192D02*
X-240145Y159295D01*
X-208744Y146558D02*
X-189354D01*
X-221481Y159295D02*
X-208744Y146558D01*
X-240145Y159295D02*
X-221481D01*
X-184964Y352552D02*
X-167946D01*
X-200712Y368300D02*
X-184964Y352552D01*
D53*
X-134008Y260668D02*
Y274936D01*
X-129544Y279400D01*
X-126036D01*
X-133698Y162056D02*
X-120078Y148436D01*
X-119881D01*
X-558630Y88578D02*
Y104308D01*
D54*
X-19314Y65277D02*
D03*
Y90677D02*
D03*
Y116077D02*
D03*
Y141477D02*
D03*
Y166877D02*
D03*
Y192277D02*
D03*
Y217677D02*
D03*
Y243077D02*
D03*
Y268477D02*
D03*
Y293877D02*
D03*
Y319277D02*
D03*
D55*
Y344677D02*
D03*
D56*
X-602864Y231858D02*
D03*
Y187858D02*
D03*
D57*
X-127539Y349233D02*
D03*
X-108174Y257146D02*
D03*
X-107429Y247498D02*
D03*
X-50805Y249546D02*
D03*
X-50890Y234048D02*
D03*
X-16617Y412223D02*
D03*
X-22967Y399523D02*
D03*
X-16617Y386823D02*
D03*
X-22967Y43923D02*
D03*
X-16617Y31223D02*
D03*
X-22967Y18523D02*
D03*
X-29317Y412223D02*
D03*
X-35667Y399523D02*
D03*
X-29317Y386823D02*
D03*
Y361423D02*
D03*
X-35667Y348723D02*
D03*
Y323323D02*
D03*
X-29317Y310623D02*
D03*
X-35667Y297923D02*
D03*
Y247123D02*
D03*
X-29317Y234423D02*
D03*
Y209023D02*
D03*
Y183623D02*
D03*
Y158223D02*
D03*
X-35667Y145523D02*
D03*
X-29317Y132823D02*
D03*
X-35667Y120123D02*
D03*
X-29317Y107423D02*
D03*
X-35667Y94723D02*
D03*
X-29317Y82023D02*
D03*
X-35667Y69323D02*
D03*
X-29317Y56623D02*
D03*
X-35667Y43923D02*
D03*
X-29317Y31223D02*
D03*
X-35667Y18523D02*
D03*
X-42017Y412223D02*
D03*
X-48367Y399523D02*
D03*
X-42017Y386823D02*
D03*
X-48367Y69323D02*
D03*
X-42017Y56623D02*
D03*
X-48367Y43923D02*
D03*
X-42017Y31223D02*
D03*
X-48367Y18523D02*
D03*
X-54717Y412223D02*
D03*
X-61067Y399523D02*
D03*
X-54717Y386823D02*
D03*
Y56623D02*
D03*
X-61067Y43923D02*
D03*
X-54717Y31223D02*
D03*
X-61067Y18523D02*
D03*
X-67417Y412223D02*
D03*
X-73767Y399523D02*
D03*
X-67417Y386823D02*
D03*
Y107423D02*
D03*
X-73767Y94723D02*
D03*
Y69323D02*
D03*
Y43923D02*
D03*
X-67417Y31223D02*
D03*
X-73767Y18523D02*
D03*
X-80117Y412223D02*
D03*
X-86467Y399523D02*
D03*
X-80117Y386823D02*
D03*
X-86467Y323323D02*
D03*
Y43923D02*
D03*
X-80117Y31223D02*
D03*
X-86467Y18523D02*
D03*
X-92817Y412223D02*
D03*
X-99167Y399523D02*
D03*
X-92817Y386823D02*
D03*
X-99167Y43923D02*
D03*
X-92817Y31223D02*
D03*
X-99167Y18523D02*
D03*
X-105517Y412223D02*
D03*
X-111867Y399523D02*
D03*
X-105517Y386823D02*
D03*
X-111867Y43923D02*
D03*
X-105517Y31223D02*
D03*
X-111867Y18523D02*
D03*
X-118217Y386823D02*
D03*
X-124567Y43923D02*
D03*
X-118217Y31223D02*
D03*
X-169017Y361423D02*
D03*
X-188067Y374123D02*
D03*
X-181717Y361423D02*
D03*
X-200767Y348723D02*
D03*
Y43923D02*
D03*
X-207117Y412223D02*
D03*
X-213467Y399523D02*
D03*
X-207117Y386823D02*
D03*
Y361423D02*
D03*
X-213467Y348723D02*
D03*
Y43923D02*
D03*
X-207117Y31223D02*
D03*
X-213467Y18523D02*
D03*
X-219817Y412223D02*
D03*
X-226167Y399523D02*
D03*
X-219817Y386823D02*
D03*
Y361423D02*
D03*
X-226167Y43923D02*
D03*
X-219817Y31223D02*
D03*
X-226167Y18523D02*
D03*
X-232517Y412223D02*
D03*
X-238867Y399523D02*
D03*
X-232517Y386823D02*
D03*
X-238867Y43923D02*
D03*
X-232517Y31223D02*
D03*
X-238867Y18523D02*
D03*
X-245217Y412223D02*
D03*
X-251567Y399523D02*
D03*
X-245217Y386823D02*
D03*
X-251567Y43923D02*
D03*
X-245217Y31223D02*
D03*
X-251567Y18523D02*
D03*
X-257917Y412223D02*
D03*
X-264267Y399523D02*
D03*
X-257917Y386823D02*
D03*
X-264267Y348723D02*
D03*
X-257917Y259823D02*
D03*
Y82023D02*
D03*
X-264267Y69323D02*
D03*
X-257917Y56623D02*
D03*
X-264267Y43923D02*
D03*
X-257917Y31223D02*
D03*
X-264267Y18523D02*
D03*
X-270617Y412223D02*
D03*
X-276967Y399523D02*
D03*
X-270617Y386823D02*
D03*
Y56623D02*
D03*
Y31223D02*
D03*
X-283317Y412223D02*
D03*
X-289667Y399523D02*
D03*
X-283317Y386823D02*
D03*
X-289667Y69323D02*
D03*
X-296017Y412223D02*
D03*
X-302367Y399523D02*
D03*
X-296017Y386823D02*
D03*
Y285223D02*
D03*
Y158223D02*
D03*
X-308717Y412223D02*
D03*
X-315067Y399523D02*
D03*
X-308717Y386823D02*
D03*
X-321417Y412223D02*
D03*
X-327767Y399523D02*
D03*
X-321417Y386823D02*
D03*
X-334117Y412223D02*
D03*
X-340467Y399523D02*
D03*
X-334117Y386823D02*
D03*
Y336023D02*
D03*
X-340467Y323323D02*
D03*
Y297923D02*
D03*
Y69323D02*
D03*
X-346817Y412223D02*
D03*
X-353167Y399523D02*
D03*
X-346817Y386823D02*
D03*
X-353167Y247123D02*
D03*
X-346817Y82023D02*
D03*
X-353167Y69323D02*
D03*
X-359517Y412223D02*
D03*
X-365867Y399523D02*
D03*
X-359517Y386823D02*
D03*
Y336023D02*
D03*
Y310623D02*
D03*
X-365867Y247123D02*
D03*
Y69323D02*
D03*
X-372217Y412223D02*
D03*
X-378567Y399523D02*
D03*
X-372217Y386823D02*
D03*
X-378567Y69323D02*
D03*
X-384917Y412223D02*
D03*
X-391267Y399523D02*
D03*
X-384917Y386823D02*
D03*
X-391267Y247123D02*
D03*
Y69323D02*
D03*
X-397617Y412223D02*
D03*
X-403967Y399523D02*
D03*
X-397617Y386823D02*
D03*
X-403967Y374123D02*
D03*
Y69323D02*
D03*
X-410317Y412223D02*
D03*
X-416667Y399523D02*
D03*
X-410317Y386823D02*
D03*
X-416667Y374123D02*
D03*
Y170923D02*
D03*
Y69323D02*
D03*
X-423017Y412223D02*
D03*
X-429367Y399523D02*
D03*
X-423017Y386823D02*
D03*
X-429367Y374123D02*
D03*
X-423017Y361423D02*
D03*
X-429367Y297923D02*
D03*
Y272523D02*
D03*
Y247123D02*
D03*
Y221723D02*
D03*
Y196323D02*
D03*
X-435717Y412223D02*
D03*
X-442067Y399523D02*
D03*
X-435717Y386823D02*
D03*
X-442067Y374123D02*
D03*
X-435717Y361423D02*
D03*
X-442067Y348723D02*
D03*
X-435717Y209023D02*
D03*
X-442067Y196323D02*
D03*
Y43923D02*
D03*
Y18523D02*
D03*
X-448417Y412223D02*
D03*
X-454767Y399523D02*
D03*
X-448417Y386823D02*
D03*
X-454767Y374123D02*
D03*
X-448417Y361423D02*
D03*
X-454767Y348723D02*
D03*
X-448417Y209023D02*
D03*
X-454767Y43923D02*
D03*
X-448417Y31223D02*
D03*
X-454767Y18523D02*
D03*
X-461117Y412223D02*
D03*
Y386823D02*
D03*
X-467467Y374123D02*
D03*
X-461117Y361423D02*
D03*
X-467467Y348723D02*
D03*
Y43923D02*
D03*
X-461117Y31223D02*
D03*
X-480167Y374123D02*
D03*
X-473817Y361423D02*
D03*
X-480167Y348723D02*
D03*
Y43923D02*
D03*
X-486517Y361423D02*
D03*
X-492867Y348723D02*
D03*
X-499217Y361423D02*
D03*
X-511917D02*
D03*
Y209023D02*
D03*
X-524617Y361423D02*
D03*
X-543667Y374123D02*
D03*
X-537317Y361423D02*
D03*
X-543667Y348723D02*
D03*
Y323323D02*
D03*
Y297923D02*
D03*
Y272523D02*
D03*
Y247123D02*
D03*
Y43923D02*
D03*
X-556367Y399523D02*
D03*
X-550017Y386823D02*
D03*
X-556367Y374123D02*
D03*
X-550017Y361423D02*
D03*
X-556367Y348723D02*
D03*
X-550017Y336023D02*
D03*
X-556367Y323323D02*
D03*
X-550017Y310623D02*
D03*
X-556367Y297923D02*
D03*
X-550017Y285223D02*
D03*
X-556367Y272523D02*
D03*
X-550017Y259823D02*
D03*
X-556367Y247123D02*
D03*
X-550017Y31223D02*
D03*
X-556367Y18523D02*
D03*
X-562717Y412223D02*
D03*
X-569067Y399523D02*
D03*
X-562717Y386823D02*
D03*
X-569067Y374123D02*
D03*
X-562717Y361423D02*
D03*
X-569067Y348723D02*
D03*
X-562717Y336023D02*
D03*
X-569067Y323323D02*
D03*
X-562717Y310623D02*
D03*
X-569067Y297923D02*
D03*
X-562717Y285223D02*
D03*
X-569067Y272523D02*
D03*
Y18523D02*
D03*
X-575417Y412223D02*
D03*
X-581767Y399523D02*
D03*
X-575417Y386823D02*
D03*
X-581767Y374123D02*
D03*
X-575417Y361423D02*
D03*
X-581767Y348723D02*
D03*
X-575417Y336023D02*
D03*
X-581767Y323323D02*
D03*
X-575417Y310623D02*
D03*
X-581767Y297923D02*
D03*
X-575417Y285223D02*
D03*
X-581767Y272523D02*
D03*
Y145523D02*
D03*
Y18523D02*
D03*
X-588117Y412223D02*
D03*
Y386823D02*
D03*
Y361423D02*
D03*
X-594467Y348723D02*
D03*
X-588117Y336023D02*
D03*
X-594467Y323323D02*
D03*
X-588117Y310623D02*
D03*
X-594467Y297923D02*
D03*
X-588117Y285223D02*
D03*
X-594467Y272523D02*
D03*
Y247123D02*
D03*
X-588117Y183623D02*
D03*
X-594467Y170923D02*
D03*
Y145523D02*
D03*
X-607167Y348723D02*
D03*
X-600817Y336023D02*
D03*
X-607167Y323323D02*
D03*
X-600817Y310623D02*
D03*
X-607167Y297923D02*
D03*
X-600817Y285223D02*
D03*
X-607167Y272523D02*
D03*
X-600817Y259823D02*
D03*
X-607167Y247123D02*
D03*
X-600817Y158223D02*
D03*
X-619867Y348723D02*
D03*
X-613517Y336023D02*
D03*
X-619867Y323323D02*
D03*
X-613517Y310623D02*
D03*
X-619867Y297923D02*
D03*
X-613517Y285223D02*
D03*
X-619867Y272523D02*
D03*
X-613517Y259823D02*
D03*
Y234423D02*
D03*
X-619867Y69323D02*
D03*
X-632567Y348723D02*
D03*
X-626217Y336023D02*
D03*
X-632567Y323323D02*
D03*
X-626217Y310623D02*
D03*
X-632567Y297923D02*
D03*
X-626217Y285223D02*
D03*
X-632567Y272523D02*
D03*
X-626217Y234423D02*
D03*
X-632567Y221723D02*
D03*
Y196323D02*
D03*
Y120123D02*
D03*
Y94723D02*
D03*
X-626217Y82023D02*
D03*
X-632567Y69323D02*
D03*
X-638917Y336023D02*
D03*
Y310623D02*
D03*
Y285223D02*
D03*
Y234423D02*
D03*
Y209023D02*
D03*
Y183623D02*
D03*
Y132823D02*
D03*
Y107423D02*
D03*
Y82023D02*
D03*
X-113519Y121316D02*
D03*
X-108044Y112741D02*
D03*
X-123896Y131808D02*
D03*
X-156198Y162056D02*
D03*
X-143833Y100609D02*
D03*
X-157649Y100736D02*
D03*
X-145703Y234117D02*
D03*
X-155082Y234234D02*
D03*
X-181665Y228233D02*
D03*
X-181823Y219495D02*
D03*
X-125060Y200516D02*
D03*
X-90612Y186731D02*
D03*
X-256107Y162661D02*
D03*
X-501093Y108407D02*
D03*
X-91429Y234537D02*
D03*
X-102517Y266523D02*
D03*
X-193942Y105617D02*
D03*
X-182502Y89752D02*
D03*
X-182766Y103372D02*
D03*
X-84495Y196719D02*
D03*
X-111112Y270774D02*
D03*
X-81896Y241263D02*
D03*
X-67463Y290944D02*
D03*
X-121296Y269189D02*
D03*
X-160872Y269506D02*
D03*
X-88856Y335479D02*
D03*
X-212369Y308640D02*
D03*
X-584227Y94075D02*
D03*
X-491585Y135383D02*
D03*
X-71730Y244783D02*
D03*
X-565161Y135342D02*
D03*
X-572747Y142925D02*
D03*
X-572130Y104493D02*
D03*
X-533618Y106305D02*
D03*
X-572251Y88755D02*
D03*
X-635929Y149582D02*
D03*
X-121402Y255030D02*
D03*
X-629883Y75805D02*
D03*
X-601824Y104232D02*
D03*
X-303373Y200873D02*
D03*
X-518710Y149678D02*
D03*
X-570512Y43288D02*
D03*
X-575957Y34560D02*
D03*
X-582523Y43368D02*
D03*
X-123863Y229134D02*
D03*
X-160646Y114537D02*
D03*
X-266565Y134986D02*
D03*
X-350544Y116718D02*
D03*
X-396846Y154320D02*
D03*
X-309014Y155376D02*
D03*
X-299913Y164767D02*
D03*
X-517921Y211206D02*
D03*
X-518399Y200841D02*
D03*
X-518706Y188466D02*
D03*
X-520287Y247477D02*
D03*
X-575947Y185274D02*
D03*
X-523425Y125392D02*
D03*
X-124077Y211328D02*
D03*
X-116892Y201004D02*
D03*
X-91575Y341775D02*
D03*
X-135691Y335316D02*
D03*
X-167946Y352552D02*
D03*
X-92233Y106982D02*
D03*
X-106342Y92936D02*
D03*
X-160703Y155064D02*
D03*
X-226030Y263365D02*
D03*
X-116646Y189643D02*
D03*
X-491879Y90024D02*
D03*
X-508956Y90335D02*
D03*
X-317102Y335684D02*
D03*
X-93904Y194907D02*
D03*
X-332538Y354838D02*
D03*
X-82589Y364633D02*
D03*
X-430819Y351111D02*
D03*
X-126036Y279400D02*
D03*
X-144026Y202816D02*
D03*
X-160508Y137867D02*
D03*
X-167765Y296158D02*
D03*
Y284982D02*
D03*
X-249782Y281257D02*
D03*
X-167765Y273806D02*
D03*
X-95270Y348065D02*
D03*
X-327016Y343786D02*
D03*
X-237230Y302518D02*
D03*
X-472798Y230632D02*
D03*
X-227483Y360412D02*
D03*
X-119881Y148436D02*
D03*
X-134492Y218898D02*
D03*
X-138088Y208319D02*
D03*
X-79732Y146561D02*
D03*
X-94091Y92955D02*
D03*
X-73058Y157732D02*
D03*
X-70887Y138189D02*
D03*
X-71920Y113660D02*
D03*
X-249782Y214878D02*
D03*
X-244956Y143250D02*
D03*
X-341222Y248406D02*
D03*
X-219401Y178795D02*
D03*
X-236828Y215894D02*
D03*
X-313028Y227070D02*
D03*
X-558899Y152858D02*
D03*
X-291664Y96974D02*
D03*
X-276082D02*
D03*
X-260674D02*
D03*
X-551517Y216179D02*
D03*
X-587248Y234044D02*
D03*
X-551517D02*
D03*
X-558231Y174916D02*
D03*
X-569382Y234044D02*
D03*
X-544206Y174434D02*
D03*
X-544458Y152582D02*
D03*
X-531112Y152096D02*
D03*
X-476807Y152590D02*
D03*
X-492215D02*
D03*
X-507797D02*
D03*
M02*
