G04*
G04 #@! TF.GenerationSoftware,Altium Limited,Altium Designer,24.0.1 (36)*
G04*
G04 Layer_Color=16711935*
%FSLAX44Y44*%
%MOMM*%
G71*
G04*
G04 #@! TF.SameCoordinates,11300C1B-94DD-46D1-A2B6-7A041ABCAB01*
G04*
G04*
G04 #@! TF.FilePolarity,Negative*
G04*
G01*
G75*
G04:AMPARAMS|DCode=34|XSize=1.2032mm|YSize=0.9032mm|CornerRadius=0.2766mm|HoleSize=0mm|Usage=FLASHONLY|Rotation=270.000|XOffset=0mm|YOffset=0mm|HoleType=Round|Shape=RoundedRectangle|*
%AMROUNDEDRECTD34*
21,1,1.2032,0.3500,0,0,270.0*
21,1,0.6500,0.9032,0,0,270.0*
1,1,0.5532,-0.1750,-0.3250*
1,1,0.5532,-0.1750,0.3250*
1,1,0.5532,0.1750,0.3250*
1,1,0.5532,0.1750,-0.3250*
%
%ADD34ROUNDEDRECTD34*%
G04:AMPARAMS|DCode=36|XSize=1.2032mm|YSize=0.9032mm|CornerRadius=0.2766mm|HoleSize=0mm|Usage=FLASHONLY|Rotation=180.000|XOffset=0mm|YOffset=0mm|HoleType=Round|Shape=RoundedRectangle|*
%AMROUNDEDRECTD36*
21,1,1.2032,0.3500,0,0,180.0*
21,1,0.6500,0.9032,0,0,180.0*
1,1,0.5532,-0.3250,0.1750*
1,1,0.5532,0.3250,0.1750*
1,1,0.5532,0.3250,-0.1750*
1,1,0.5532,-0.3250,-0.1750*
%
%ADD36ROUNDEDRECTD36*%
G04:AMPARAMS|DCode=38|XSize=2.2632mm|YSize=2.2232mm|CornerRadius=0.3541mm|HoleSize=0mm|Usage=FLASHONLY|Rotation=270.000|XOffset=0mm|YOffset=0mm|HoleType=Round|Shape=RoundedRectangle|*
%AMROUNDEDRECTD38*
21,1,2.2632,1.5150,0,0,270.0*
21,1,1.5550,2.2232,0,0,270.0*
1,1,0.7082,-0.7575,-0.7775*
1,1,0.7082,-0.7575,0.7775*
1,1,0.7082,0.7575,0.7775*
1,1,0.7082,0.7575,-0.7775*
%
%ADD38ROUNDEDRECTD38*%
G04:AMPARAMS|DCode=50|XSize=1.0132mm|YSize=1.1032mm|CornerRadius=0.3041mm|HoleSize=0mm|Usage=FLASHONLY|Rotation=0.000|XOffset=0mm|YOffset=0mm|HoleType=Round|Shape=RoundedRectangle|*
%AMROUNDEDRECTD50*
21,1,1.0132,0.4950,0,0,0.0*
21,1,0.4050,1.1032,0,0,0.0*
1,1,0.6082,0.2025,-0.2475*
1,1,0.6082,-0.2025,-0.2475*
1,1,0.6082,-0.2025,0.2475*
1,1,0.6082,0.2025,0.2475*
%
%ADD50ROUNDEDRECTD50*%
%ADD51R,1.7032X1.7032*%
%ADD52C,1.7032*%
%ADD53C,1.1032*%
G04:AMPARAMS|DCode=63|XSize=0.25mm|YSize=0.6mm|CornerRadius=0.0525mm|HoleSize=0mm|Usage=FLASHONLY|Rotation=0.000|XOffset=0mm|YOffset=0mm|HoleType=Round|Shape=RoundedRectangle|*
%AMROUNDEDRECTD63*
21,1,0.2500,0.4950,0,0,0.0*
21,1,0.1450,0.6000,0,0,0.0*
1,1,0.1050,0.0725,-0.2475*
1,1,0.1050,-0.0725,-0.2475*
1,1,0.1050,-0.0725,0.2475*
1,1,0.1050,0.0725,0.2475*
%
%ADD63ROUNDEDRECTD63*%
G04:AMPARAMS|DCode=64|XSize=0.6mm|YSize=0.25mm|CornerRadius=0.0525mm|HoleSize=0mm|Usage=FLASHONLY|Rotation=0.000|XOffset=0mm|YOffset=0mm|HoleType=Round|Shape=RoundedRectangle|*
%AMROUNDEDRECTD64*
21,1,0.6000,0.1450,0,0,0.0*
21,1,0.4950,0.2500,0,0,0.0*
1,1,0.1050,0.2475,-0.0725*
1,1,0.1050,-0.2475,-0.0725*
1,1,0.1050,-0.2475,0.0725*
1,1,0.1050,0.2475,0.0725*
%
%ADD64ROUNDEDRECTD64*%
%ADD65R,1.0000X1.0000*%
G04:AMPARAMS|DCode=66|XSize=2.5mm|YSize=0.9mm|CornerRadius=0.225mm|HoleSize=0mm|Usage=FLASHONLY|Rotation=0.000|XOffset=0mm|YOffset=0mm|HoleType=Round|Shape=RoundedRectangle|*
%AMROUNDEDRECTD66*
21,1,2.5000,0.4500,0,0,0.0*
21,1,2.0500,0.9000,0,0,0.0*
1,1,0.4500,1.0250,-0.2250*
1,1,0.4500,-1.0250,-0.2250*
1,1,0.4500,-1.0250,0.2250*
1,1,0.4500,1.0250,0.2250*
%
%ADD66ROUNDEDRECTD66*%
G04:AMPARAMS|DCode=67|XSize=0.9mm|YSize=2.5mm|CornerRadius=0.225mm|HoleSize=0mm|Usage=FLASHONLY|Rotation=0.000|XOffset=0mm|YOffset=0mm|HoleType=Round|Shape=RoundedRectangle|*
%AMROUNDEDRECTD67*
21,1,0.9000,2.0500,0,0,0.0*
21,1,0.4500,2.5000,0,0,0.0*
1,1,0.4500,0.2250,-1.0250*
1,1,0.4500,-0.2250,-1.0250*
1,1,0.4500,-0.2250,1.0250*
1,1,0.4500,0.2250,1.0250*
%
%ADD67ROUNDEDRECTD67*%
G04:AMPARAMS|DCode=68|XSize=1.33mm|YSize=1.33mm|CornerRadius=0.3325mm|HoleSize=0mm|Usage=FLASHONLY|Rotation=0.000|XOffset=0mm|YOffset=0mm|HoleType=Round|Shape=RoundedRectangle|*
%AMROUNDEDRECTD68*
21,1,1.3300,0.6650,0,0,0.0*
21,1,0.6650,1.3300,0,0,0.0*
1,1,0.6650,0.3325,-0.3325*
1,1,0.6650,-0.3325,-0.3325*
1,1,0.6650,-0.3325,0.3325*
1,1,0.6650,0.3325,0.3325*
%
%ADD68ROUNDEDRECTD68*%
%ADD73R,0.8532X1.2032*%
%ADD74R,1.0032X1.0032*%
%ADD75R,1.6032X1.3532*%
G04:AMPARAMS|DCode=76|XSize=0.7032mm|YSize=0.7032mm|CornerRadius=0.2266mm|HoleSize=0mm|Usage=FLASHONLY|Rotation=180.000|XOffset=0mm|YOffset=0mm|HoleType=Round|Shape=RoundedRectangle|*
%AMROUNDEDRECTD76*
21,1,0.7032,0.2500,0,0,180.0*
21,1,0.2500,0.7032,0,0,180.0*
1,1,0.4532,-0.1250,0.1250*
1,1,0.4532,0.1250,0.1250*
1,1,0.4532,0.1250,-0.1250*
1,1,0.4532,-0.1250,-0.1250*
%
%ADD76ROUNDEDRECTD76*%
G36*
X-137925Y-166117D02*
X-137863Y-166122D01*
X-137800Y-166130D01*
X-137739Y-166141D01*
X-137677Y-166156D01*
X-137617Y-166174D01*
X-137558Y-166195D01*
X-137500Y-166219D01*
X-137443Y-166246D01*
X-137388Y-166276D01*
X-137334Y-166309D01*
X-137283Y-166344D01*
X-137233Y-166382D01*
X-137185Y-166423D01*
X-137140Y-166466D01*
X-137096Y-166512D01*
X-137056Y-166560D01*
X-137017Y-166610D01*
X-136982Y-166661D01*
X-136949Y-166715D01*
X-136919Y-166770D01*
X-136892Y-166827D01*
X-136868Y-166885D01*
X-136847Y-166944D01*
X-136829Y-167004D01*
X-136814Y-167066D01*
X-136803Y-167127D01*
X-136795Y-167190D01*
X-136790Y-167252D01*
X-136788Y-167315D01*
Y-174615D01*
X-130738D01*
X-130675Y-174617D01*
X-130613Y-174622D01*
X-130550Y-174630D01*
X-130489Y-174641D01*
X-130428Y-174656D01*
X-130367Y-174674D01*
X-130308Y-174695D01*
X-130250Y-174719D01*
X-130193Y-174746D01*
X-130138Y-174776D01*
X-130084Y-174809D01*
X-130033Y-174844D01*
X-129983Y-174882D01*
X-129935Y-174923D01*
X-129890Y-174967D01*
X-129846Y-175012D01*
X-129805Y-175060D01*
X-129767Y-175110D01*
X-129732Y-175161D01*
X-129699Y-175215D01*
X-129669Y-175270D01*
X-129642Y-175327D01*
X-129618Y-175385D01*
X-129597Y-175444D01*
X-129579Y-175504D01*
X-129564Y-175565D01*
X-129553Y-175627D01*
X-129545Y-175690D01*
X-129540Y-175752D01*
X-129538Y-175815D01*
Y-206815D01*
X-129540Y-206878D01*
X-129545Y-206940D01*
X-129553Y-207003D01*
X-129564Y-207064D01*
X-129579Y-207126D01*
X-129597Y-207186D01*
X-129618Y-207245D01*
X-129642Y-207303D01*
X-129669Y-207360D01*
X-129699Y-207415D01*
X-129732Y-207468D01*
X-129767Y-207520D01*
X-129805Y-207570D01*
X-129846Y-207618D01*
X-129890Y-207663D01*
X-129935Y-207707D01*
X-129983Y-207748D01*
X-130033Y-207786D01*
X-130084Y-207821D01*
X-130138Y-207854D01*
X-130193Y-207884D01*
X-130250Y-207911D01*
X-130308Y-207935D01*
X-130367Y-207956D01*
X-130428Y-207974D01*
X-130489Y-207989D01*
X-130550Y-208000D01*
X-130613Y-208008D01*
X-130675Y-208013D01*
X-130738Y-208015D01*
X-136788D01*
Y-215315D01*
X-136790Y-215378D01*
X-136795Y-215440D01*
X-136803Y-215503D01*
X-136814Y-215564D01*
X-136829Y-215626D01*
X-136847Y-215686D01*
X-136868Y-215745D01*
X-136892Y-215803D01*
X-136919Y-215860D01*
X-136949Y-215915D01*
X-136982Y-215969D01*
X-137017Y-216020D01*
X-137056Y-216070D01*
X-137096Y-216118D01*
X-137140Y-216164D01*
X-137185Y-216207D01*
X-137233Y-216248D01*
X-137283Y-216286D01*
X-137334Y-216321D01*
X-137388Y-216354D01*
X-137443Y-216384D01*
X-137500Y-216411D01*
X-137558Y-216435D01*
X-137617Y-216456D01*
X-137677Y-216474D01*
X-137739Y-216489D01*
X-137800Y-216500D01*
X-137863Y-216508D01*
X-137925Y-216513D01*
X-137988Y-216515D01*
X-139488D01*
X-139551Y-216513D01*
X-139614Y-216508D01*
X-139676Y-216500D01*
X-139738Y-216489D01*
X-139799Y-216474D01*
X-139859Y-216456D01*
X-139918Y-216435D01*
X-139976Y-216411D01*
X-140033Y-216384D01*
X-140088Y-216354D01*
X-140142Y-216321D01*
X-140193Y-216286D01*
X-140243Y-216248D01*
X-140291Y-216207D01*
X-140337Y-216164D01*
X-140380Y-216118D01*
X-140421Y-216070D01*
X-140459Y-216020D01*
X-140494Y-215969D01*
X-140527Y-215915D01*
X-140557Y-215860D01*
X-140584Y-215803D01*
X-140608Y-215745D01*
X-140629Y-215686D01*
X-140647Y-215626D01*
X-140662Y-215564D01*
X-140673Y-215503D01*
X-140681Y-215440D01*
X-140686Y-215378D01*
X-140688Y-215315D01*
Y-213015D01*
X-141788D01*
Y-215315D01*
X-141790Y-215378D01*
X-141795Y-215440D01*
X-141803Y-215503D01*
X-141814Y-215564D01*
X-141829Y-215626D01*
X-141847Y-215686D01*
X-141868Y-215745D01*
X-141892Y-215803D01*
X-141919Y-215860D01*
X-141949Y-215915D01*
X-141982Y-215969D01*
X-142017Y-216020D01*
X-142056Y-216070D01*
X-142096Y-216118D01*
X-142140Y-216164D01*
X-142185Y-216207D01*
X-142233Y-216248D01*
X-142283Y-216286D01*
X-142334Y-216321D01*
X-142388Y-216354D01*
X-142443Y-216384D01*
X-142500Y-216411D01*
X-142558Y-216435D01*
X-142617Y-216456D01*
X-142677Y-216474D01*
X-142739Y-216489D01*
X-142800Y-216500D01*
X-142863Y-216508D01*
X-142925Y-216513D01*
X-142988Y-216515D01*
X-144488D01*
X-144551Y-216513D01*
X-144614Y-216508D01*
X-144676Y-216500D01*
X-144738Y-216489D01*
X-144799Y-216474D01*
X-144859Y-216456D01*
X-144918Y-216435D01*
X-144976Y-216411D01*
X-145033Y-216384D01*
X-145088Y-216354D01*
X-145142Y-216321D01*
X-145193Y-216286D01*
X-145243Y-216248D01*
X-145291Y-216207D01*
X-145337Y-216164D01*
X-145380Y-216118D01*
X-145421Y-216070D01*
X-145459Y-216020D01*
X-145494Y-215969D01*
X-145527Y-215915D01*
X-145557Y-215860D01*
X-145584Y-215803D01*
X-145608Y-215745D01*
X-145629Y-215686D01*
X-145647Y-215626D01*
X-145662Y-215564D01*
X-145673Y-215503D01*
X-145681Y-215440D01*
X-145686Y-215378D01*
X-145688Y-215315D01*
Y-208015D01*
X-151738D01*
X-151801Y-208013D01*
X-151863Y-208008D01*
X-151926Y-208000D01*
X-151988Y-207989D01*
X-152049Y-207974D01*
X-152109Y-207956D01*
X-152168Y-207935D01*
X-152226Y-207911D01*
X-152283Y-207884D01*
X-152338Y-207854D01*
X-152392Y-207821D01*
X-152443Y-207786D01*
X-152493Y-207748D01*
X-152541Y-207707D01*
X-152587Y-207663D01*
X-152630Y-207618D01*
X-152671Y-207570D01*
X-152709Y-207520D01*
X-152745Y-207468D01*
X-152777Y-207415D01*
X-152807Y-207360D01*
X-152834Y-207303D01*
X-152858Y-207245D01*
X-152879Y-207186D01*
X-152897Y-207126D01*
X-152912Y-207064D01*
X-152923Y-207003D01*
X-152931Y-206940D01*
X-152936Y-206878D01*
X-152938Y-206815D01*
Y-175815D01*
X-152936Y-175752D01*
X-152931Y-175690D01*
X-152923Y-175627D01*
X-152912Y-175565D01*
X-152897Y-175504D01*
X-152879Y-175444D01*
X-152858Y-175385D01*
X-152834Y-175327D01*
X-152807Y-175270D01*
X-152777Y-175215D01*
X-152745Y-175161D01*
X-152709Y-175110D01*
X-152671Y-175060D01*
X-152630Y-175012D01*
X-152587Y-174967D01*
X-152541Y-174923D01*
X-152493Y-174882D01*
X-152443Y-174844D01*
X-152392Y-174809D01*
X-152338Y-174776D01*
X-152283Y-174746D01*
X-152226Y-174719D01*
X-152168Y-174695D01*
X-152109Y-174674D01*
X-152049Y-174656D01*
X-151988Y-174641D01*
X-151926Y-174630D01*
X-151863Y-174622D01*
X-151801Y-174617D01*
X-151738Y-174615D01*
X-145688D01*
Y-167315D01*
X-145686Y-167252D01*
X-145681Y-167190D01*
X-145673Y-167127D01*
X-145662Y-167066D01*
X-145647Y-167004D01*
X-145629Y-166944D01*
X-145608Y-166885D01*
X-145584Y-166827D01*
X-145557Y-166770D01*
X-145527Y-166715D01*
X-145494Y-166661D01*
X-145459Y-166610D01*
X-145421Y-166560D01*
X-145380Y-166512D01*
X-145337Y-166466D01*
X-145291Y-166423D01*
X-145243Y-166382D01*
X-145193Y-166344D01*
X-145142Y-166309D01*
X-145088Y-166276D01*
X-145033Y-166246D01*
X-144976Y-166219D01*
X-144918Y-166195D01*
X-144859Y-166174D01*
X-144799Y-166156D01*
X-144738Y-166141D01*
X-144676Y-166130D01*
X-144614Y-166122D01*
X-144551Y-166117D01*
X-144488Y-166115D01*
X-142988D01*
X-142925Y-166117D01*
X-142863Y-166122D01*
X-142800Y-166130D01*
X-142739Y-166141D01*
X-142677Y-166156D01*
X-142617Y-166174D01*
X-142558Y-166195D01*
X-142500Y-166219D01*
X-142443Y-166246D01*
X-142388Y-166276D01*
X-142334Y-166309D01*
X-142283Y-166344D01*
X-142233Y-166382D01*
X-142185Y-166423D01*
X-142140Y-166466D01*
X-142096Y-166512D01*
X-142056Y-166560D01*
X-142017Y-166610D01*
X-141982Y-166661D01*
X-141949Y-166715D01*
X-141919Y-166770D01*
X-141892Y-166827D01*
X-141868Y-166885D01*
X-141847Y-166944D01*
X-141829Y-167004D01*
X-141814Y-167066D01*
X-141803Y-167127D01*
X-141795Y-167190D01*
X-141790Y-167252D01*
X-141788Y-167315D01*
Y-169615D01*
X-140688D01*
Y-167315D01*
X-140686Y-167252D01*
X-140681Y-167190D01*
X-140673Y-167127D01*
X-140662Y-167066D01*
X-140647Y-167004D01*
X-140629Y-166944D01*
X-140608Y-166885D01*
X-140584Y-166827D01*
X-140557Y-166770D01*
X-140527Y-166715D01*
X-140494Y-166661D01*
X-140459Y-166610D01*
X-140421Y-166560D01*
X-140380Y-166512D01*
X-140337Y-166466D01*
X-140291Y-166423D01*
X-140243Y-166382D01*
X-140193Y-166344D01*
X-140142Y-166309D01*
X-140088Y-166276D01*
X-140033Y-166246D01*
X-139976Y-166219D01*
X-139918Y-166195D01*
X-139859Y-166174D01*
X-139799Y-166156D01*
X-139738Y-166141D01*
X-139676Y-166130D01*
X-139614Y-166122D01*
X-139551Y-166117D01*
X-139488Y-166115D01*
X-137988D01*
X-137925Y-166117D01*
D02*
G37*
G36*
X-132925D02*
X-132863Y-166122D01*
X-132800Y-166130D01*
X-132739Y-166141D01*
X-132677Y-166156D01*
X-132617Y-166174D01*
X-132558Y-166195D01*
X-132500Y-166219D01*
X-132443Y-166246D01*
X-132388Y-166276D01*
X-132334Y-166309D01*
X-132283Y-166344D01*
X-132233Y-166382D01*
X-132185Y-166423D01*
X-132140Y-166466D01*
X-132096Y-166512D01*
X-132056Y-166560D01*
X-132017Y-166610D01*
X-131982Y-166661D01*
X-131949Y-166715D01*
X-131919Y-166770D01*
X-131892Y-166827D01*
X-131868Y-166885D01*
X-131847Y-166944D01*
X-131829Y-167004D01*
X-131814Y-167066D01*
X-131803Y-167127D01*
X-131795Y-167190D01*
X-131790Y-167252D01*
X-131788Y-167315D01*
Y-172315D01*
X-131790Y-172378D01*
X-131795Y-172440D01*
X-131803Y-172503D01*
X-131814Y-172565D01*
X-131829Y-172626D01*
X-131847Y-172686D01*
X-131868Y-172745D01*
X-131892Y-172803D01*
X-131919Y-172860D01*
X-131949Y-172915D01*
X-131982Y-172969D01*
X-132017Y-173020D01*
X-132056Y-173070D01*
X-132096Y-173118D01*
X-132140Y-173164D01*
X-132185Y-173207D01*
X-132233Y-173248D01*
X-132283Y-173286D01*
X-132334Y-173321D01*
X-132388Y-173354D01*
X-132443Y-173384D01*
X-132500Y-173411D01*
X-132558Y-173435D01*
X-132617Y-173456D01*
X-132677Y-173474D01*
X-132739Y-173489D01*
X-132800Y-173500D01*
X-132863Y-173508D01*
X-132925Y-173513D01*
X-132988Y-173515D01*
X-134488D01*
X-134551Y-173513D01*
X-134614Y-173508D01*
X-134676Y-173500D01*
X-134738Y-173489D01*
X-134799Y-173474D01*
X-134859Y-173456D01*
X-134918Y-173435D01*
X-134976Y-173411D01*
X-135033Y-173384D01*
X-135088Y-173354D01*
X-135142Y-173321D01*
X-135193Y-173286D01*
X-135243Y-173248D01*
X-135291Y-173207D01*
X-135337Y-173164D01*
X-135380Y-173118D01*
X-135421Y-173070D01*
X-135459Y-173020D01*
X-135494Y-172969D01*
X-135527Y-172915D01*
X-135557Y-172860D01*
X-135584Y-172803D01*
X-135608Y-172745D01*
X-135629Y-172686D01*
X-135647Y-172626D01*
X-135662Y-172565D01*
X-135673Y-172503D01*
X-135681Y-172440D01*
X-135686Y-172378D01*
X-135688Y-172315D01*
Y-167315D01*
X-135686Y-167252D01*
X-135681Y-167190D01*
X-135673Y-167127D01*
X-135662Y-167066D01*
X-135647Y-167004D01*
X-135629Y-166944D01*
X-135608Y-166885D01*
X-135584Y-166827D01*
X-135557Y-166770D01*
X-135527Y-166715D01*
X-135494Y-166661D01*
X-135459Y-166610D01*
X-135421Y-166560D01*
X-135380Y-166512D01*
X-135337Y-166466D01*
X-135291Y-166423D01*
X-135243Y-166382D01*
X-135193Y-166344D01*
X-135142Y-166309D01*
X-135088Y-166276D01*
X-135033Y-166246D01*
X-134976Y-166219D01*
X-134918Y-166195D01*
X-134859Y-166174D01*
X-134799Y-166156D01*
X-134738Y-166141D01*
X-134676Y-166130D01*
X-134614Y-166122D01*
X-134551Y-166117D01*
X-134488Y-166115D01*
X-132988D01*
X-132925Y-166117D01*
D02*
G37*
G36*
X-147925D02*
X-147863Y-166122D01*
X-147800Y-166130D01*
X-147739Y-166141D01*
X-147677Y-166156D01*
X-147617Y-166174D01*
X-147558Y-166195D01*
X-147500Y-166219D01*
X-147443Y-166246D01*
X-147388Y-166276D01*
X-147334Y-166309D01*
X-147283Y-166344D01*
X-147233Y-166382D01*
X-147185Y-166423D01*
X-147140Y-166466D01*
X-147096Y-166512D01*
X-147056Y-166560D01*
X-147017Y-166610D01*
X-146982Y-166661D01*
X-146949Y-166715D01*
X-146919Y-166770D01*
X-146892Y-166827D01*
X-146868Y-166885D01*
X-146847Y-166944D01*
X-146829Y-167004D01*
X-146814Y-167066D01*
X-146803Y-167127D01*
X-146795Y-167190D01*
X-146790Y-167252D01*
X-146788Y-167315D01*
Y-172315D01*
X-146790Y-172378D01*
X-146795Y-172440D01*
X-146803Y-172503D01*
X-146814Y-172565D01*
X-146829Y-172626D01*
X-146847Y-172686D01*
X-146868Y-172745D01*
X-146892Y-172803D01*
X-146919Y-172860D01*
X-146949Y-172915D01*
X-146982Y-172969D01*
X-147017Y-173020D01*
X-147056Y-173070D01*
X-147096Y-173118D01*
X-147140Y-173164D01*
X-147185Y-173207D01*
X-147233Y-173248D01*
X-147283Y-173286D01*
X-147334Y-173321D01*
X-147388Y-173354D01*
X-147443Y-173384D01*
X-147500Y-173411D01*
X-147558Y-173435D01*
X-147617Y-173456D01*
X-147677Y-173474D01*
X-147739Y-173489D01*
X-147800Y-173500D01*
X-147863Y-173508D01*
X-147925Y-173513D01*
X-147988Y-173515D01*
X-149488D01*
X-149551Y-173513D01*
X-149614Y-173508D01*
X-149676Y-173500D01*
X-149738Y-173489D01*
X-149799Y-173474D01*
X-149859Y-173456D01*
X-149918Y-173435D01*
X-149976Y-173411D01*
X-150033Y-173384D01*
X-150088Y-173354D01*
X-150142Y-173321D01*
X-150193Y-173286D01*
X-150243Y-173248D01*
X-150291Y-173207D01*
X-150337Y-173164D01*
X-150380Y-173118D01*
X-150421Y-173070D01*
X-150459Y-173020D01*
X-150494Y-172969D01*
X-150527Y-172915D01*
X-150557Y-172860D01*
X-150584Y-172803D01*
X-150608Y-172745D01*
X-150629Y-172686D01*
X-150647Y-172626D01*
X-150662Y-172565D01*
X-150673Y-172503D01*
X-150681Y-172440D01*
X-150686Y-172378D01*
X-150688Y-172315D01*
Y-167315D01*
X-150686Y-167252D01*
X-150681Y-167190D01*
X-150673Y-167127D01*
X-150662Y-167066D01*
X-150647Y-167004D01*
X-150629Y-166944D01*
X-150608Y-166885D01*
X-150584Y-166827D01*
X-150557Y-166770D01*
X-150527Y-166715D01*
X-150494Y-166661D01*
X-150459Y-166610D01*
X-150421Y-166560D01*
X-150380Y-166512D01*
X-150337Y-166466D01*
X-150291Y-166423D01*
X-150243Y-166382D01*
X-150193Y-166344D01*
X-150142Y-166309D01*
X-150088Y-166276D01*
X-150033Y-166246D01*
X-149976Y-166219D01*
X-149918Y-166195D01*
X-149859Y-166174D01*
X-149799Y-166156D01*
X-149738Y-166141D01*
X-149676Y-166130D01*
X-149614Y-166122D01*
X-149551Y-166117D01*
X-149488Y-166115D01*
X-147988D01*
X-147925Y-166117D01*
D02*
G37*
G36*
X-122175Y-171867D02*
X-122113Y-171872D01*
X-122050Y-171880D01*
X-121989Y-171891D01*
X-121927Y-171906D01*
X-121867Y-171924D01*
X-121808Y-171945D01*
X-121750Y-171969D01*
X-121693Y-171996D01*
X-121638Y-172026D01*
X-121585Y-172059D01*
X-121533Y-172094D01*
X-121483Y-172132D01*
X-121435Y-172173D01*
X-121390Y-172216D01*
X-121346Y-172262D01*
X-121306Y-172310D01*
X-121267Y-172360D01*
X-121232Y-172411D01*
X-121199Y-172465D01*
X-121169Y-172520D01*
X-121142Y-172577D01*
X-121118Y-172635D01*
X-121097Y-172694D01*
X-121079Y-172754D01*
X-121064Y-172815D01*
X-121053Y-172877D01*
X-121045Y-172940D01*
X-121040Y-173002D01*
X-121038Y-173065D01*
Y-174565D01*
X-121040Y-174628D01*
X-121045Y-174690D01*
X-121053Y-174753D01*
X-121064Y-174814D01*
X-121079Y-174876D01*
X-121097Y-174936D01*
X-121118Y-174995D01*
X-121142Y-175053D01*
X-121169Y-175110D01*
X-121199Y-175165D01*
X-121232Y-175219D01*
X-121267Y-175270D01*
X-121306Y-175320D01*
X-121346Y-175368D01*
X-121390Y-175413D01*
X-121435Y-175457D01*
X-121483Y-175498D01*
X-121533Y-175536D01*
X-121585Y-175571D01*
X-121638Y-175604D01*
X-121693Y-175634D01*
X-121750Y-175661D01*
X-121808Y-175685D01*
X-121867Y-175706D01*
X-121927Y-175724D01*
X-121989Y-175739D01*
X-122050Y-175750D01*
X-122113Y-175758D01*
X-122175Y-175763D01*
X-122238Y-175765D01*
X-127238D01*
X-127301Y-175763D01*
X-127364Y-175758D01*
X-127426Y-175750D01*
X-127488Y-175739D01*
X-127549Y-175724D01*
X-127609Y-175706D01*
X-127668Y-175685D01*
X-127726Y-175661D01*
X-127783Y-175634D01*
X-127838Y-175604D01*
X-127892Y-175571D01*
X-127943Y-175536D01*
X-127993Y-175498D01*
X-128041Y-175457D01*
X-128087Y-175413D01*
X-128130Y-175368D01*
X-128171Y-175320D01*
X-128209Y-175270D01*
X-128244Y-175219D01*
X-128277Y-175165D01*
X-128307Y-175110D01*
X-128334Y-175053D01*
X-128358Y-174995D01*
X-128379Y-174936D01*
X-128397Y-174876D01*
X-128412Y-174814D01*
X-128423Y-174753D01*
X-128432Y-174690D01*
X-128436Y-174628D01*
X-128438Y-174565D01*
Y-173065D01*
X-128436Y-173002D01*
X-128432Y-172940D01*
X-128423Y-172877D01*
X-128412Y-172815D01*
X-128397Y-172754D01*
X-128379Y-172694D01*
X-128358Y-172635D01*
X-128334Y-172577D01*
X-128307Y-172520D01*
X-128277Y-172465D01*
X-128244Y-172411D01*
X-128209Y-172360D01*
X-128171Y-172310D01*
X-128130Y-172262D01*
X-128087Y-172216D01*
X-128041Y-172173D01*
X-127993Y-172132D01*
X-127943Y-172094D01*
X-127892Y-172059D01*
X-127838Y-172026D01*
X-127783Y-171996D01*
X-127726Y-171969D01*
X-127668Y-171945D01*
X-127609Y-171924D01*
X-127549Y-171906D01*
X-127488Y-171891D01*
X-127426Y-171880D01*
X-127364Y-171872D01*
X-127301Y-171867D01*
X-127238Y-171865D01*
X-122238D01*
X-122175Y-171867D01*
D02*
G37*
G36*
X-155175D02*
X-155113Y-171872D01*
X-155050Y-171880D01*
X-154989Y-171891D01*
X-154928Y-171906D01*
X-154867Y-171924D01*
X-154808Y-171945D01*
X-154750Y-171969D01*
X-154693Y-171996D01*
X-154638Y-172026D01*
X-154585Y-172059D01*
X-154533Y-172094D01*
X-154483Y-172132D01*
X-154435Y-172173D01*
X-154389Y-172216D01*
X-154346Y-172262D01*
X-154305Y-172310D01*
X-154267Y-172360D01*
X-154232Y-172411D01*
X-154199Y-172465D01*
X-154169Y-172520D01*
X-154142Y-172577D01*
X-154118Y-172635D01*
X-154097Y-172694D01*
X-154079Y-172754D01*
X-154064Y-172815D01*
X-154053Y-172877D01*
X-154045Y-172940D01*
X-154040Y-173002D01*
X-154038Y-173065D01*
Y-174565D01*
X-154040Y-174628D01*
X-154045Y-174690D01*
X-154053Y-174753D01*
X-154064Y-174814D01*
X-154079Y-174876D01*
X-154097Y-174936D01*
X-154118Y-174995D01*
X-154142Y-175053D01*
X-154169Y-175110D01*
X-154199Y-175165D01*
X-154232Y-175219D01*
X-154267Y-175270D01*
X-154305Y-175320D01*
X-154346Y-175368D01*
X-154389Y-175413D01*
X-154435Y-175457D01*
X-154483Y-175498D01*
X-154533Y-175536D01*
X-154585Y-175571D01*
X-154638Y-175604D01*
X-154693Y-175634D01*
X-154750Y-175661D01*
X-154808Y-175685D01*
X-154867Y-175706D01*
X-154928Y-175724D01*
X-154989Y-175739D01*
X-155050Y-175750D01*
X-155113Y-175758D01*
X-155175Y-175763D01*
X-155238Y-175765D01*
X-160238D01*
X-160301Y-175763D01*
X-160364Y-175758D01*
X-160426Y-175750D01*
X-160488Y-175739D01*
X-160549Y-175724D01*
X-160609Y-175706D01*
X-160668Y-175685D01*
X-160726Y-175661D01*
X-160783Y-175634D01*
X-160838Y-175604D01*
X-160892Y-175571D01*
X-160943Y-175536D01*
X-160993Y-175498D01*
X-161041Y-175457D01*
X-161087Y-175413D01*
X-161130Y-175368D01*
X-161171Y-175320D01*
X-161209Y-175270D01*
X-161245Y-175219D01*
X-161277Y-175165D01*
X-161307Y-175110D01*
X-161334Y-175053D01*
X-161358Y-174995D01*
X-161379Y-174936D01*
X-161397Y-174876D01*
X-161412Y-174814D01*
X-161423Y-174753D01*
X-161432Y-174690D01*
X-161436Y-174628D01*
X-161438Y-174565D01*
Y-173065D01*
X-161436Y-173002D01*
X-161432Y-172940D01*
X-161423Y-172877D01*
X-161412Y-172815D01*
X-161397Y-172754D01*
X-161379Y-172694D01*
X-161358Y-172635D01*
X-161334Y-172577D01*
X-161307Y-172520D01*
X-161277Y-172465D01*
X-161245Y-172411D01*
X-161209Y-172360D01*
X-161171Y-172310D01*
X-161130Y-172262D01*
X-161087Y-172216D01*
X-161041Y-172173D01*
X-160993Y-172132D01*
X-160943Y-172094D01*
X-160892Y-172059D01*
X-160838Y-172026D01*
X-160783Y-171996D01*
X-160726Y-171969D01*
X-160668Y-171945D01*
X-160609Y-171924D01*
X-160549Y-171906D01*
X-160488Y-171891D01*
X-160426Y-171880D01*
X-160364Y-171872D01*
X-160301Y-171867D01*
X-160238Y-171865D01*
X-155238D01*
X-155175Y-171867D01*
D02*
G37*
G36*
X-122175Y-176867D02*
X-122113Y-176872D01*
X-122050Y-176880D01*
X-121989Y-176891D01*
X-121927Y-176906D01*
X-121867Y-176924D01*
X-121808Y-176945D01*
X-121750Y-176969D01*
X-121693Y-176996D01*
X-121638Y-177026D01*
X-121585Y-177059D01*
X-121533Y-177094D01*
X-121483Y-177132D01*
X-121435Y-177173D01*
X-121390Y-177216D01*
X-121346Y-177262D01*
X-121306Y-177310D01*
X-121267Y-177360D01*
X-121232Y-177411D01*
X-121199Y-177465D01*
X-121169Y-177520D01*
X-121142Y-177577D01*
X-121118Y-177635D01*
X-121097Y-177694D01*
X-121079Y-177754D01*
X-121064Y-177815D01*
X-121053Y-177877D01*
X-121045Y-177939D01*
X-121040Y-178002D01*
X-121038Y-178065D01*
Y-179565D01*
X-121040Y-179628D01*
X-121045Y-179690D01*
X-121053Y-179753D01*
X-121064Y-179814D01*
X-121079Y-179876D01*
X-121097Y-179936D01*
X-121118Y-179995D01*
X-121142Y-180053D01*
X-121169Y-180110D01*
X-121199Y-180165D01*
X-121232Y-180219D01*
X-121267Y-180270D01*
X-121306Y-180320D01*
X-121346Y-180368D01*
X-121390Y-180413D01*
X-121435Y-180457D01*
X-121483Y-180498D01*
X-121533Y-180536D01*
X-121585Y-180571D01*
X-121638Y-180604D01*
X-121693Y-180634D01*
X-121750Y-180661D01*
X-121808Y-180685D01*
X-121867Y-180706D01*
X-121927Y-180724D01*
X-121989Y-180739D01*
X-122050Y-180750D01*
X-122113Y-180758D01*
X-122175Y-180763D01*
X-122238Y-180765D01*
X-127238D01*
X-127301Y-180763D01*
X-127364Y-180758D01*
X-127426Y-180750D01*
X-127488Y-180739D01*
X-127549Y-180724D01*
X-127609Y-180706D01*
X-127668Y-180685D01*
X-127726Y-180661D01*
X-127783Y-180634D01*
X-127838Y-180604D01*
X-127892Y-180571D01*
X-127943Y-180536D01*
X-127993Y-180498D01*
X-128041Y-180457D01*
X-128087Y-180413D01*
X-128130Y-180368D01*
X-128171Y-180320D01*
X-128209Y-180270D01*
X-128244Y-180219D01*
X-128277Y-180165D01*
X-128307Y-180110D01*
X-128334Y-180053D01*
X-128358Y-179995D01*
X-128379Y-179936D01*
X-128397Y-179876D01*
X-128412Y-179814D01*
X-128423Y-179753D01*
X-128432Y-179690D01*
X-128436Y-179628D01*
X-128438Y-179565D01*
Y-178065D01*
X-128436Y-178002D01*
X-128432Y-177939D01*
X-128423Y-177877D01*
X-128412Y-177815D01*
X-128397Y-177754D01*
X-128379Y-177694D01*
X-128358Y-177635D01*
X-128334Y-177577D01*
X-128307Y-177520D01*
X-128277Y-177465D01*
X-128244Y-177411D01*
X-128209Y-177360D01*
X-128171Y-177310D01*
X-128130Y-177262D01*
X-128087Y-177216D01*
X-128041Y-177173D01*
X-127993Y-177132D01*
X-127943Y-177094D01*
X-127892Y-177059D01*
X-127838Y-177026D01*
X-127783Y-176996D01*
X-127726Y-176969D01*
X-127668Y-176945D01*
X-127609Y-176924D01*
X-127549Y-176906D01*
X-127488Y-176891D01*
X-127426Y-176880D01*
X-127364Y-176872D01*
X-127301Y-176867D01*
X-127238Y-176865D01*
X-122238D01*
X-122175Y-176867D01*
D02*
G37*
G36*
X-155175D02*
X-155113Y-176872D01*
X-155050Y-176880D01*
X-154989Y-176891D01*
X-154928Y-176906D01*
X-154867Y-176924D01*
X-154808Y-176945D01*
X-154750Y-176969D01*
X-154693Y-176996D01*
X-154638Y-177026D01*
X-154585Y-177059D01*
X-154533Y-177094D01*
X-154483Y-177132D01*
X-154435Y-177173D01*
X-154389Y-177216D01*
X-154346Y-177262D01*
X-154305Y-177310D01*
X-154267Y-177360D01*
X-154232Y-177411D01*
X-154199Y-177465D01*
X-154169Y-177520D01*
X-154142Y-177577D01*
X-154118Y-177635D01*
X-154097Y-177694D01*
X-154079Y-177754D01*
X-154064Y-177815D01*
X-154053Y-177877D01*
X-154045Y-177939D01*
X-154040Y-178002D01*
X-154038Y-178065D01*
Y-179565D01*
X-154040Y-179628D01*
X-154045Y-179690D01*
X-154053Y-179753D01*
X-154064Y-179814D01*
X-154079Y-179876D01*
X-154097Y-179936D01*
X-154118Y-179995D01*
X-154142Y-180053D01*
X-154169Y-180110D01*
X-154199Y-180165D01*
X-154232Y-180219D01*
X-154267Y-180270D01*
X-154305Y-180320D01*
X-154346Y-180368D01*
X-154389Y-180413D01*
X-154435Y-180457D01*
X-154483Y-180498D01*
X-154533Y-180536D01*
X-154585Y-180571D01*
X-154638Y-180604D01*
X-154693Y-180634D01*
X-154750Y-180661D01*
X-154808Y-180685D01*
X-154867Y-180706D01*
X-154928Y-180724D01*
X-154989Y-180739D01*
X-155050Y-180750D01*
X-155113Y-180758D01*
X-155175Y-180763D01*
X-155238Y-180765D01*
X-160238D01*
X-160301Y-180763D01*
X-160364Y-180758D01*
X-160426Y-180750D01*
X-160488Y-180739D01*
X-160549Y-180724D01*
X-160609Y-180706D01*
X-160668Y-180685D01*
X-160726Y-180661D01*
X-160783Y-180634D01*
X-160838Y-180604D01*
X-160892Y-180571D01*
X-160943Y-180536D01*
X-160993Y-180498D01*
X-161041Y-180457D01*
X-161087Y-180413D01*
X-161130Y-180368D01*
X-161171Y-180320D01*
X-161209Y-180270D01*
X-161245Y-180219D01*
X-161277Y-180165D01*
X-161307Y-180110D01*
X-161334Y-180053D01*
X-161358Y-179995D01*
X-161379Y-179936D01*
X-161397Y-179876D01*
X-161412Y-179814D01*
X-161423Y-179753D01*
X-161432Y-179690D01*
X-161436Y-179628D01*
X-161438Y-179565D01*
Y-178065D01*
X-161436Y-178002D01*
X-161432Y-177939D01*
X-161423Y-177877D01*
X-161412Y-177815D01*
X-161397Y-177754D01*
X-161379Y-177694D01*
X-161358Y-177635D01*
X-161334Y-177577D01*
X-161307Y-177520D01*
X-161277Y-177465D01*
X-161245Y-177411D01*
X-161209Y-177360D01*
X-161171Y-177310D01*
X-161130Y-177262D01*
X-161087Y-177216D01*
X-161041Y-177173D01*
X-160993Y-177132D01*
X-160943Y-177094D01*
X-160892Y-177059D01*
X-160838Y-177026D01*
X-160783Y-176996D01*
X-160726Y-176969D01*
X-160668Y-176945D01*
X-160609Y-176924D01*
X-160549Y-176906D01*
X-160488Y-176891D01*
X-160426Y-176880D01*
X-160364Y-176872D01*
X-160301Y-176867D01*
X-160238Y-176865D01*
X-155238D01*
X-155175Y-176867D01*
D02*
G37*
G36*
X-122175Y-181867D02*
X-122113Y-181872D01*
X-122050Y-181880D01*
X-121989Y-181891D01*
X-121927Y-181906D01*
X-121867Y-181924D01*
X-121808Y-181945D01*
X-121750Y-181969D01*
X-121693Y-181996D01*
X-121638Y-182026D01*
X-121585Y-182059D01*
X-121533Y-182094D01*
X-121483Y-182132D01*
X-121435Y-182173D01*
X-121390Y-182216D01*
X-121346Y-182262D01*
X-121306Y-182310D01*
X-121267Y-182360D01*
X-121232Y-182411D01*
X-121199Y-182465D01*
X-121169Y-182520D01*
X-121142Y-182577D01*
X-121118Y-182635D01*
X-121097Y-182694D01*
X-121079Y-182754D01*
X-121064Y-182815D01*
X-121053Y-182877D01*
X-121045Y-182939D01*
X-121040Y-183002D01*
X-121038Y-183065D01*
Y-184565D01*
X-121040Y-184628D01*
X-121045Y-184690D01*
X-121053Y-184753D01*
X-121064Y-184814D01*
X-121079Y-184876D01*
X-121097Y-184936D01*
X-121118Y-184995D01*
X-121142Y-185053D01*
X-121169Y-185110D01*
X-121199Y-185165D01*
X-121232Y-185219D01*
X-121267Y-185270D01*
X-121306Y-185320D01*
X-121346Y-185368D01*
X-121390Y-185413D01*
X-121435Y-185457D01*
X-121483Y-185498D01*
X-121533Y-185536D01*
X-121585Y-185571D01*
X-121638Y-185604D01*
X-121693Y-185634D01*
X-121750Y-185661D01*
X-121808Y-185685D01*
X-121867Y-185706D01*
X-121927Y-185724D01*
X-121989Y-185739D01*
X-122050Y-185750D01*
X-122113Y-185758D01*
X-122175Y-185763D01*
X-122238Y-185765D01*
X-127238D01*
X-127301Y-185763D01*
X-127364Y-185758D01*
X-127426Y-185750D01*
X-127488Y-185739D01*
X-127549Y-185724D01*
X-127609Y-185706D01*
X-127668Y-185685D01*
X-127726Y-185661D01*
X-127783Y-185634D01*
X-127838Y-185604D01*
X-127892Y-185571D01*
X-127943Y-185536D01*
X-127993Y-185498D01*
X-128041Y-185457D01*
X-128087Y-185413D01*
X-128130Y-185368D01*
X-128171Y-185320D01*
X-128209Y-185270D01*
X-128244Y-185219D01*
X-128277Y-185165D01*
X-128307Y-185110D01*
X-128334Y-185053D01*
X-128358Y-184995D01*
X-128379Y-184936D01*
X-128397Y-184876D01*
X-128412Y-184814D01*
X-128423Y-184753D01*
X-128432Y-184690D01*
X-128436Y-184628D01*
X-128438Y-184565D01*
Y-183065D01*
X-128436Y-183002D01*
X-128432Y-182939D01*
X-128423Y-182877D01*
X-128412Y-182815D01*
X-128397Y-182754D01*
X-128379Y-182694D01*
X-128358Y-182635D01*
X-128334Y-182577D01*
X-128307Y-182520D01*
X-128277Y-182465D01*
X-128244Y-182411D01*
X-128209Y-182360D01*
X-128171Y-182310D01*
X-128130Y-182262D01*
X-128087Y-182216D01*
X-128041Y-182173D01*
X-127993Y-182132D01*
X-127943Y-182094D01*
X-127892Y-182059D01*
X-127838Y-182026D01*
X-127783Y-181996D01*
X-127726Y-181969D01*
X-127668Y-181945D01*
X-127609Y-181924D01*
X-127549Y-181906D01*
X-127488Y-181891D01*
X-127426Y-181880D01*
X-127364Y-181872D01*
X-127301Y-181867D01*
X-127238Y-181865D01*
X-122238D01*
X-122175Y-181867D01*
D02*
G37*
G36*
X-155175D02*
X-155113Y-181872D01*
X-155050Y-181880D01*
X-154989Y-181891D01*
X-154928Y-181906D01*
X-154867Y-181924D01*
X-154808Y-181945D01*
X-154750Y-181969D01*
X-154693Y-181996D01*
X-154638Y-182026D01*
X-154585Y-182059D01*
X-154533Y-182094D01*
X-154483Y-182132D01*
X-154435Y-182173D01*
X-154389Y-182216D01*
X-154346Y-182262D01*
X-154305Y-182310D01*
X-154267Y-182360D01*
X-154232Y-182411D01*
X-154199Y-182465D01*
X-154169Y-182520D01*
X-154142Y-182577D01*
X-154118Y-182635D01*
X-154097Y-182694D01*
X-154079Y-182754D01*
X-154064Y-182815D01*
X-154053Y-182877D01*
X-154045Y-182939D01*
X-154040Y-183002D01*
X-154038Y-183065D01*
Y-184565D01*
X-154040Y-184628D01*
X-154045Y-184690D01*
X-154053Y-184753D01*
X-154064Y-184814D01*
X-154079Y-184876D01*
X-154097Y-184936D01*
X-154118Y-184995D01*
X-154142Y-185053D01*
X-154169Y-185110D01*
X-154199Y-185165D01*
X-154232Y-185219D01*
X-154267Y-185270D01*
X-154305Y-185320D01*
X-154346Y-185368D01*
X-154389Y-185413D01*
X-154435Y-185457D01*
X-154483Y-185498D01*
X-154533Y-185536D01*
X-154585Y-185571D01*
X-154638Y-185604D01*
X-154693Y-185634D01*
X-154750Y-185661D01*
X-154808Y-185685D01*
X-154867Y-185706D01*
X-154928Y-185724D01*
X-154989Y-185739D01*
X-155050Y-185750D01*
X-155113Y-185758D01*
X-155175Y-185763D01*
X-155238Y-185765D01*
X-160238D01*
X-160301Y-185763D01*
X-160364Y-185758D01*
X-160426Y-185750D01*
X-160488Y-185739D01*
X-160549Y-185724D01*
X-160609Y-185706D01*
X-160668Y-185685D01*
X-160726Y-185661D01*
X-160783Y-185634D01*
X-160838Y-185604D01*
X-160892Y-185571D01*
X-160943Y-185536D01*
X-160993Y-185498D01*
X-161041Y-185457D01*
X-161087Y-185413D01*
X-161130Y-185368D01*
X-161171Y-185320D01*
X-161209Y-185270D01*
X-161245Y-185219D01*
X-161277Y-185165D01*
X-161307Y-185110D01*
X-161334Y-185053D01*
X-161358Y-184995D01*
X-161379Y-184936D01*
X-161397Y-184876D01*
X-161412Y-184814D01*
X-161423Y-184753D01*
X-161432Y-184690D01*
X-161436Y-184628D01*
X-161438Y-184565D01*
Y-183065D01*
X-161436Y-183002D01*
X-161432Y-182939D01*
X-161423Y-182877D01*
X-161412Y-182815D01*
X-161397Y-182754D01*
X-161379Y-182694D01*
X-161358Y-182635D01*
X-161334Y-182577D01*
X-161307Y-182520D01*
X-161277Y-182465D01*
X-161245Y-182411D01*
X-161209Y-182360D01*
X-161171Y-182310D01*
X-161130Y-182262D01*
X-161087Y-182216D01*
X-161041Y-182173D01*
X-160993Y-182132D01*
X-160943Y-182094D01*
X-160892Y-182059D01*
X-160838Y-182026D01*
X-160783Y-181996D01*
X-160726Y-181969D01*
X-160668Y-181945D01*
X-160609Y-181924D01*
X-160549Y-181906D01*
X-160488Y-181891D01*
X-160426Y-181880D01*
X-160364Y-181872D01*
X-160301Y-181867D01*
X-160238Y-181865D01*
X-155238D01*
X-155175Y-181867D01*
D02*
G37*
G36*
X-122175Y-186867D02*
X-122113Y-186872D01*
X-122050Y-186880D01*
X-121989Y-186891D01*
X-121927Y-186906D01*
X-121867Y-186924D01*
X-121808Y-186945D01*
X-121750Y-186969D01*
X-121693Y-186996D01*
X-121638Y-187026D01*
X-121585Y-187059D01*
X-121533Y-187094D01*
X-121483Y-187132D01*
X-121435Y-187173D01*
X-121390Y-187216D01*
X-121346Y-187262D01*
X-121306Y-187310D01*
X-121267Y-187360D01*
X-121232Y-187411D01*
X-121199Y-187465D01*
X-121169Y-187520D01*
X-121142Y-187577D01*
X-121118Y-187635D01*
X-121097Y-187694D01*
X-121079Y-187754D01*
X-121064Y-187815D01*
X-121053Y-187877D01*
X-121045Y-187940D01*
X-121040Y-188002D01*
X-121038Y-188065D01*
Y-189565D01*
X-121040Y-189628D01*
X-121045Y-189690D01*
X-121053Y-189753D01*
X-121064Y-189814D01*
X-121079Y-189876D01*
X-121097Y-189936D01*
X-121118Y-189995D01*
X-121142Y-190053D01*
X-121169Y-190110D01*
X-121199Y-190165D01*
X-121232Y-190219D01*
X-121267Y-190270D01*
X-121306Y-190320D01*
X-121346Y-190368D01*
X-121390Y-190413D01*
X-121435Y-190457D01*
X-121483Y-190498D01*
X-121533Y-190536D01*
X-121585Y-190571D01*
X-121638Y-190604D01*
X-121693Y-190634D01*
X-121750Y-190661D01*
X-121808Y-190685D01*
X-121867Y-190706D01*
X-121927Y-190724D01*
X-121989Y-190739D01*
X-122050Y-190750D01*
X-122113Y-190758D01*
X-122175Y-190763D01*
X-122238Y-190765D01*
X-127238D01*
X-127301Y-190763D01*
X-127364Y-190758D01*
X-127426Y-190750D01*
X-127488Y-190739D01*
X-127549Y-190724D01*
X-127609Y-190706D01*
X-127668Y-190685D01*
X-127726Y-190661D01*
X-127783Y-190634D01*
X-127838Y-190604D01*
X-127892Y-190571D01*
X-127943Y-190536D01*
X-127993Y-190498D01*
X-128041Y-190457D01*
X-128087Y-190413D01*
X-128130Y-190368D01*
X-128171Y-190320D01*
X-128209Y-190270D01*
X-128244Y-190219D01*
X-128277Y-190165D01*
X-128307Y-190110D01*
X-128334Y-190053D01*
X-128358Y-189995D01*
X-128379Y-189936D01*
X-128397Y-189876D01*
X-128412Y-189814D01*
X-128423Y-189753D01*
X-128432Y-189690D01*
X-128436Y-189628D01*
X-128438Y-189565D01*
Y-188065D01*
X-128436Y-188002D01*
X-128432Y-187940D01*
X-128423Y-187877D01*
X-128412Y-187815D01*
X-128397Y-187754D01*
X-128379Y-187694D01*
X-128358Y-187635D01*
X-128334Y-187577D01*
X-128307Y-187520D01*
X-128277Y-187465D01*
X-128244Y-187411D01*
X-128209Y-187360D01*
X-128171Y-187310D01*
X-128130Y-187262D01*
X-128087Y-187216D01*
X-128041Y-187173D01*
X-127993Y-187132D01*
X-127943Y-187094D01*
X-127892Y-187059D01*
X-127838Y-187026D01*
X-127783Y-186996D01*
X-127726Y-186969D01*
X-127668Y-186945D01*
X-127609Y-186924D01*
X-127549Y-186906D01*
X-127488Y-186891D01*
X-127426Y-186880D01*
X-127364Y-186872D01*
X-127301Y-186867D01*
X-127238Y-186865D01*
X-122238D01*
X-122175Y-186867D01*
D02*
G37*
G36*
X-155175D02*
X-155113Y-186872D01*
X-155050Y-186880D01*
X-154989Y-186891D01*
X-154928Y-186906D01*
X-154867Y-186924D01*
X-154808Y-186945D01*
X-154750Y-186969D01*
X-154693Y-186996D01*
X-154638Y-187026D01*
X-154585Y-187059D01*
X-154533Y-187094D01*
X-154483Y-187132D01*
X-154435Y-187173D01*
X-154389Y-187216D01*
X-154346Y-187262D01*
X-154305Y-187310D01*
X-154267Y-187360D01*
X-154232Y-187411D01*
X-154199Y-187465D01*
X-154169Y-187520D01*
X-154142Y-187577D01*
X-154118Y-187635D01*
X-154097Y-187694D01*
X-154079Y-187754D01*
X-154064Y-187815D01*
X-154053Y-187877D01*
X-154045Y-187940D01*
X-154040Y-188002D01*
X-154038Y-188065D01*
Y-189565D01*
X-154040Y-189628D01*
X-154045Y-189690D01*
X-154053Y-189753D01*
X-154064Y-189814D01*
X-154079Y-189876D01*
X-154097Y-189936D01*
X-154118Y-189995D01*
X-154142Y-190053D01*
X-154169Y-190110D01*
X-154199Y-190165D01*
X-154232Y-190219D01*
X-154267Y-190270D01*
X-154305Y-190320D01*
X-154346Y-190368D01*
X-154389Y-190413D01*
X-154435Y-190457D01*
X-154483Y-190498D01*
X-154533Y-190536D01*
X-154585Y-190571D01*
X-154638Y-190604D01*
X-154693Y-190634D01*
X-154750Y-190661D01*
X-154808Y-190685D01*
X-154867Y-190706D01*
X-154928Y-190724D01*
X-154989Y-190739D01*
X-155050Y-190750D01*
X-155113Y-190758D01*
X-155175Y-190763D01*
X-155238Y-190765D01*
X-160238D01*
X-160301Y-190763D01*
X-160364Y-190758D01*
X-160426Y-190750D01*
X-160488Y-190739D01*
X-160549Y-190724D01*
X-160609Y-190706D01*
X-160668Y-190685D01*
X-160726Y-190661D01*
X-160783Y-190634D01*
X-160838Y-190604D01*
X-160892Y-190571D01*
X-160943Y-190536D01*
X-160993Y-190498D01*
X-161041Y-190457D01*
X-161087Y-190413D01*
X-161130Y-190368D01*
X-161171Y-190320D01*
X-161209Y-190270D01*
X-161245Y-190219D01*
X-161277Y-190165D01*
X-161307Y-190110D01*
X-161334Y-190053D01*
X-161358Y-189995D01*
X-161379Y-189936D01*
X-161397Y-189876D01*
X-161412Y-189814D01*
X-161423Y-189753D01*
X-161432Y-189690D01*
X-161436Y-189628D01*
X-161438Y-189565D01*
Y-188065D01*
X-161436Y-188002D01*
X-161432Y-187940D01*
X-161423Y-187877D01*
X-161412Y-187815D01*
X-161397Y-187754D01*
X-161379Y-187694D01*
X-161358Y-187635D01*
X-161334Y-187577D01*
X-161307Y-187520D01*
X-161277Y-187465D01*
X-161245Y-187411D01*
X-161209Y-187360D01*
X-161171Y-187310D01*
X-161130Y-187262D01*
X-161087Y-187216D01*
X-161041Y-187173D01*
X-160993Y-187132D01*
X-160943Y-187094D01*
X-160892Y-187059D01*
X-160838Y-187026D01*
X-160783Y-186996D01*
X-160726Y-186969D01*
X-160668Y-186945D01*
X-160609Y-186924D01*
X-160549Y-186906D01*
X-160488Y-186891D01*
X-160426Y-186880D01*
X-160364Y-186872D01*
X-160301Y-186867D01*
X-160238Y-186865D01*
X-155238D01*
X-155175Y-186867D01*
D02*
G37*
G36*
X-122175Y-191867D02*
X-122113Y-191871D01*
X-122050Y-191880D01*
X-121989Y-191891D01*
X-121927Y-191906D01*
X-121867Y-191924D01*
X-121808Y-191945D01*
X-121750Y-191969D01*
X-121693Y-191996D01*
X-121638Y-192026D01*
X-121585Y-192059D01*
X-121533Y-192094D01*
X-121483Y-192132D01*
X-121435Y-192173D01*
X-121390Y-192216D01*
X-121346Y-192262D01*
X-121306Y-192310D01*
X-121267Y-192360D01*
X-121232Y-192411D01*
X-121199Y-192465D01*
X-121169Y-192520D01*
X-121142Y-192577D01*
X-121118Y-192635D01*
X-121097Y-192694D01*
X-121079Y-192754D01*
X-121064Y-192815D01*
X-121053Y-192877D01*
X-121045Y-192939D01*
X-121040Y-193002D01*
X-121038Y-193065D01*
Y-194565D01*
X-121040Y-194628D01*
X-121045Y-194690D01*
X-121053Y-194753D01*
X-121064Y-194814D01*
X-121079Y-194876D01*
X-121097Y-194936D01*
X-121118Y-194995D01*
X-121142Y-195053D01*
X-121169Y-195110D01*
X-121199Y-195165D01*
X-121232Y-195219D01*
X-121267Y-195270D01*
X-121306Y-195320D01*
X-121346Y-195368D01*
X-121390Y-195413D01*
X-121435Y-195457D01*
X-121483Y-195498D01*
X-121533Y-195536D01*
X-121585Y-195571D01*
X-121638Y-195604D01*
X-121693Y-195634D01*
X-121750Y-195661D01*
X-121808Y-195685D01*
X-121867Y-195706D01*
X-121927Y-195724D01*
X-121989Y-195739D01*
X-122050Y-195750D01*
X-122113Y-195758D01*
X-122175Y-195763D01*
X-122238Y-195765D01*
X-127238D01*
X-127301Y-195763D01*
X-127364Y-195758D01*
X-127426Y-195750D01*
X-127488Y-195739D01*
X-127549Y-195724D01*
X-127609Y-195706D01*
X-127668Y-195685D01*
X-127726Y-195661D01*
X-127783Y-195634D01*
X-127838Y-195604D01*
X-127892Y-195571D01*
X-127943Y-195536D01*
X-127993Y-195498D01*
X-128041Y-195457D01*
X-128087Y-195413D01*
X-128130Y-195368D01*
X-128171Y-195320D01*
X-128209Y-195270D01*
X-128244Y-195219D01*
X-128277Y-195165D01*
X-128307Y-195110D01*
X-128334Y-195053D01*
X-128358Y-194995D01*
X-128379Y-194936D01*
X-128397Y-194876D01*
X-128412Y-194814D01*
X-128423Y-194753D01*
X-128432Y-194690D01*
X-128436Y-194628D01*
X-128438Y-194565D01*
Y-193065D01*
X-128436Y-193002D01*
X-128432Y-192939D01*
X-128423Y-192877D01*
X-128412Y-192815D01*
X-128397Y-192754D01*
X-128379Y-192694D01*
X-128358Y-192635D01*
X-128334Y-192577D01*
X-128307Y-192520D01*
X-128277Y-192465D01*
X-128244Y-192411D01*
X-128209Y-192360D01*
X-128171Y-192310D01*
X-128130Y-192262D01*
X-128087Y-192216D01*
X-128041Y-192173D01*
X-127993Y-192132D01*
X-127943Y-192094D01*
X-127892Y-192059D01*
X-127838Y-192026D01*
X-127783Y-191996D01*
X-127726Y-191969D01*
X-127668Y-191945D01*
X-127609Y-191924D01*
X-127549Y-191906D01*
X-127488Y-191891D01*
X-127426Y-191880D01*
X-127364Y-191871D01*
X-127301Y-191867D01*
X-127238Y-191865D01*
X-122238D01*
X-122175Y-191867D01*
D02*
G37*
G36*
X-155175D02*
X-155113Y-191871D01*
X-155050Y-191880D01*
X-154989Y-191891D01*
X-154928Y-191906D01*
X-154867Y-191924D01*
X-154808Y-191945D01*
X-154750Y-191969D01*
X-154693Y-191996D01*
X-154638Y-192026D01*
X-154585Y-192059D01*
X-154533Y-192094D01*
X-154483Y-192132D01*
X-154435Y-192173D01*
X-154389Y-192216D01*
X-154346Y-192262D01*
X-154305Y-192310D01*
X-154267Y-192360D01*
X-154232Y-192411D01*
X-154199Y-192465D01*
X-154169Y-192520D01*
X-154142Y-192577D01*
X-154118Y-192635D01*
X-154097Y-192694D01*
X-154079Y-192754D01*
X-154064Y-192815D01*
X-154053Y-192877D01*
X-154045Y-192939D01*
X-154040Y-193002D01*
X-154038Y-193065D01*
Y-194565D01*
X-154040Y-194628D01*
X-154045Y-194690D01*
X-154053Y-194753D01*
X-154064Y-194814D01*
X-154079Y-194876D01*
X-154097Y-194936D01*
X-154118Y-194995D01*
X-154142Y-195053D01*
X-154169Y-195110D01*
X-154199Y-195165D01*
X-154232Y-195219D01*
X-154267Y-195270D01*
X-154305Y-195320D01*
X-154346Y-195368D01*
X-154389Y-195413D01*
X-154435Y-195457D01*
X-154483Y-195498D01*
X-154533Y-195536D01*
X-154585Y-195571D01*
X-154638Y-195604D01*
X-154693Y-195634D01*
X-154750Y-195661D01*
X-154808Y-195685D01*
X-154867Y-195706D01*
X-154928Y-195724D01*
X-154989Y-195739D01*
X-155050Y-195750D01*
X-155113Y-195758D01*
X-155175Y-195763D01*
X-155238Y-195765D01*
X-160238D01*
X-160301Y-195763D01*
X-160364Y-195758D01*
X-160426Y-195750D01*
X-160488Y-195739D01*
X-160549Y-195724D01*
X-160609Y-195706D01*
X-160668Y-195685D01*
X-160726Y-195661D01*
X-160783Y-195634D01*
X-160838Y-195604D01*
X-160892Y-195571D01*
X-160943Y-195536D01*
X-160993Y-195498D01*
X-161041Y-195457D01*
X-161087Y-195413D01*
X-161130Y-195368D01*
X-161171Y-195320D01*
X-161209Y-195270D01*
X-161245Y-195219D01*
X-161277Y-195165D01*
X-161307Y-195110D01*
X-161334Y-195053D01*
X-161358Y-194995D01*
X-161379Y-194936D01*
X-161397Y-194876D01*
X-161412Y-194814D01*
X-161423Y-194753D01*
X-161432Y-194690D01*
X-161436Y-194628D01*
X-161438Y-194565D01*
Y-193065D01*
X-161436Y-193002D01*
X-161432Y-192939D01*
X-161423Y-192877D01*
X-161412Y-192815D01*
X-161397Y-192754D01*
X-161379Y-192694D01*
X-161358Y-192635D01*
X-161334Y-192577D01*
X-161307Y-192520D01*
X-161277Y-192465D01*
X-161245Y-192411D01*
X-161209Y-192360D01*
X-161171Y-192310D01*
X-161130Y-192262D01*
X-161087Y-192216D01*
X-161041Y-192173D01*
X-160993Y-192132D01*
X-160943Y-192094D01*
X-160892Y-192059D01*
X-160838Y-192026D01*
X-160783Y-191996D01*
X-160726Y-191969D01*
X-160668Y-191945D01*
X-160609Y-191924D01*
X-160549Y-191906D01*
X-160488Y-191891D01*
X-160426Y-191880D01*
X-160364Y-191871D01*
X-160301Y-191867D01*
X-160238Y-191865D01*
X-155238D01*
X-155175Y-191867D01*
D02*
G37*
G36*
X-122175Y-196867D02*
X-122113Y-196872D01*
X-122050Y-196880D01*
X-121989Y-196891D01*
X-121927Y-196906D01*
X-121867Y-196924D01*
X-121808Y-196945D01*
X-121750Y-196969D01*
X-121693Y-196996D01*
X-121638Y-197026D01*
X-121585Y-197059D01*
X-121533Y-197094D01*
X-121483Y-197132D01*
X-121435Y-197173D01*
X-121390Y-197216D01*
X-121346Y-197262D01*
X-121306Y-197310D01*
X-121267Y-197360D01*
X-121232Y-197411D01*
X-121199Y-197465D01*
X-121169Y-197520D01*
X-121142Y-197577D01*
X-121118Y-197635D01*
X-121097Y-197694D01*
X-121079Y-197754D01*
X-121064Y-197815D01*
X-121053Y-197877D01*
X-121045Y-197940D01*
X-121040Y-198002D01*
X-121038Y-198065D01*
Y-199565D01*
X-121040Y-199628D01*
X-121045Y-199690D01*
X-121053Y-199753D01*
X-121064Y-199814D01*
X-121079Y-199876D01*
X-121097Y-199936D01*
X-121118Y-199995D01*
X-121142Y-200053D01*
X-121169Y-200110D01*
X-121199Y-200165D01*
X-121232Y-200219D01*
X-121267Y-200270D01*
X-121306Y-200320D01*
X-121346Y-200368D01*
X-121390Y-200413D01*
X-121435Y-200457D01*
X-121483Y-200498D01*
X-121533Y-200536D01*
X-121585Y-200571D01*
X-121638Y-200604D01*
X-121693Y-200634D01*
X-121750Y-200661D01*
X-121808Y-200685D01*
X-121867Y-200706D01*
X-121927Y-200724D01*
X-121989Y-200739D01*
X-122050Y-200750D01*
X-122113Y-200758D01*
X-122175Y-200763D01*
X-122238Y-200765D01*
X-127238D01*
X-127301Y-200763D01*
X-127364Y-200758D01*
X-127426Y-200750D01*
X-127488Y-200739D01*
X-127549Y-200724D01*
X-127609Y-200706D01*
X-127668Y-200685D01*
X-127726Y-200661D01*
X-127783Y-200634D01*
X-127838Y-200604D01*
X-127892Y-200571D01*
X-127943Y-200536D01*
X-127993Y-200498D01*
X-128041Y-200457D01*
X-128087Y-200413D01*
X-128130Y-200368D01*
X-128171Y-200320D01*
X-128209Y-200270D01*
X-128244Y-200219D01*
X-128277Y-200165D01*
X-128307Y-200110D01*
X-128334Y-200053D01*
X-128358Y-199995D01*
X-128379Y-199936D01*
X-128397Y-199876D01*
X-128412Y-199814D01*
X-128423Y-199753D01*
X-128432Y-199690D01*
X-128436Y-199628D01*
X-128438Y-199565D01*
Y-198065D01*
X-128436Y-198002D01*
X-128432Y-197940D01*
X-128423Y-197877D01*
X-128412Y-197815D01*
X-128397Y-197754D01*
X-128379Y-197694D01*
X-128358Y-197635D01*
X-128334Y-197577D01*
X-128307Y-197520D01*
X-128277Y-197465D01*
X-128244Y-197411D01*
X-128209Y-197360D01*
X-128171Y-197310D01*
X-128130Y-197262D01*
X-128087Y-197216D01*
X-128041Y-197173D01*
X-127993Y-197132D01*
X-127943Y-197094D01*
X-127892Y-197059D01*
X-127838Y-197026D01*
X-127783Y-196996D01*
X-127726Y-196969D01*
X-127668Y-196945D01*
X-127609Y-196924D01*
X-127549Y-196906D01*
X-127488Y-196891D01*
X-127426Y-196880D01*
X-127364Y-196872D01*
X-127301Y-196867D01*
X-127238Y-196865D01*
X-122238D01*
X-122175Y-196867D01*
D02*
G37*
G36*
X-155175D02*
X-155113Y-196872D01*
X-155050Y-196880D01*
X-154989Y-196891D01*
X-154928Y-196906D01*
X-154867Y-196924D01*
X-154808Y-196945D01*
X-154750Y-196969D01*
X-154693Y-196996D01*
X-154638Y-197026D01*
X-154585Y-197059D01*
X-154533Y-197094D01*
X-154483Y-197132D01*
X-154435Y-197173D01*
X-154389Y-197216D01*
X-154346Y-197262D01*
X-154305Y-197310D01*
X-154267Y-197360D01*
X-154232Y-197411D01*
X-154199Y-197465D01*
X-154169Y-197520D01*
X-154142Y-197577D01*
X-154118Y-197635D01*
X-154097Y-197694D01*
X-154079Y-197754D01*
X-154064Y-197815D01*
X-154053Y-197877D01*
X-154045Y-197940D01*
X-154040Y-198002D01*
X-154038Y-198065D01*
Y-199565D01*
X-154040Y-199628D01*
X-154045Y-199690D01*
X-154053Y-199753D01*
X-154064Y-199814D01*
X-154079Y-199876D01*
X-154097Y-199936D01*
X-154118Y-199995D01*
X-154142Y-200053D01*
X-154169Y-200110D01*
X-154199Y-200165D01*
X-154232Y-200219D01*
X-154267Y-200270D01*
X-154305Y-200320D01*
X-154346Y-200368D01*
X-154389Y-200413D01*
X-154435Y-200457D01*
X-154483Y-200498D01*
X-154533Y-200536D01*
X-154585Y-200571D01*
X-154638Y-200604D01*
X-154693Y-200634D01*
X-154750Y-200661D01*
X-154808Y-200685D01*
X-154867Y-200706D01*
X-154928Y-200724D01*
X-154989Y-200739D01*
X-155050Y-200750D01*
X-155113Y-200758D01*
X-155175Y-200763D01*
X-155238Y-200765D01*
X-160238D01*
X-160301Y-200763D01*
X-160364Y-200758D01*
X-160426Y-200750D01*
X-160488Y-200739D01*
X-160549Y-200724D01*
X-160609Y-200706D01*
X-160668Y-200685D01*
X-160726Y-200661D01*
X-160783Y-200634D01*
X-160838Y-200604D01*
X-160892Y-200571D01*
X-160943Y-200536D01*
X-160993Y-200498D01*
X-161041Y-200457D01*
X-161087Y-200413D01*
X-161130Y-200368D01*
X-161171Y-200320D01*
X-161209Y-200270D01*
X-161245Y-200219D01*
X-161277Y-200165D01*
X-161307Y-200110D01*
X-161334Y-200053D01*
X-161358Y-199995D01*
X-161379Y-199936D01*
X-161397Y-199876D01*
X-161412Y-199814D01*
X-161423Y-199753D01*
X-161432Y-199690D01*
X-161436Y-199628D01*
X-161438Y-199565D01*
Y-198065D01*
X-161436Y-198002D01*
X-161432Y-197940D01*
X-161423Y-197877D01*
X-161412Y-197815D01*
X-161397Y-197754D01*
X-161379Y-197694D01*
X-161358Y-197635D01*
X-161334Y-197577D01*
X-161307Y-197520D01*
X-161277Y-197465D01*
X-161245Y-197411D01*
X-161209Y-197360D01*
X-161171Y-197310D01*
X-161130Y-197262D01*
X-161087Y-197216D01*
X-161041Y-197173D01*
X-160993Y-197132D01*
X-160943Y-197094D01*
X-160892Y-197059D01*
X-160838Y-197026D01*
X-160783Y-196996D01*
X-160726Y-196969D01*
X-160668Y-196945D01*
X-160609Y-196924D01*
X-160549Y-196906D01*
X-160488Y-196891D01*
X-160426Y-196880D01*
X-160364Y-196872D01*
X-160301Y-196867D01*
X-160238Y-196865D01*
X-155238D01*
X-155175Y-196867D01*
D02*
G37*
G36*
X-122175Y-201867D02*
X-122113Y-201872D01*
X-122050Y-201880D01*
X-121989Y-201891D01*
X-121927Y-201906D01*
X-121867Y-201924D01*
X-121808Y-201945D01*
X-121750Y-201969D01*
X-121693Y-201996D01*
X-121638Y-202026D01*
X-121585Y-202059D01*
X-121533Y-202094D01*
X-121483Y-202132D01*
X-121435Y-202173D01*
X-121390Y-202216D01*
X-121346Y-202262D01*
X-121306Y-202310D01*
X-121267Y-202360D01*
X-121232Y-202411D01*
X-121199Y-202465D01*
X-121169Y-202520D01*
X-121142Y-202577D01*
X-121118Y-202635D01*
X-121097Y-202694D01*
X-121079Y-202754D01*
X-121064Y-202815D01*
X-121053Y-202877D01*
X-121045Y-202939D01*
X-121040Y-203002D01*
X-121038Y-203065D01*
Y-204565D01*
X-121040Y-204628D01*
X-121045Y-204690D01*
X-121053Y-204753D01*
X-121064Y-204814D01*
X-121079Y-204876D01*
X-121097Y-204936D01*
X-121118Y-204995D01*
X-121142Y-205053D01*
X-121169Y-205110D01*
X-121199Y-205165D01*
X-121232Y-205219D01*
X-121267Y-205270D01*
X-121306Y-205320D01*
X-121346Y-205368D01*
X-121390Y-205413D01*
X-121435Y-205457D01*
X-121483Y-205498D01*
X-121533Y-205536D01*
X-121585Y-205571D01*
X-121638Y-205604D01*
X-121693Y-205634D01*
X-121750Y-205661D01*
X-121808Y-205685D01*
X-121867Y-205706D01*
X-121927Y-205724D01*
X-121989Y-205739D01*
X-122050Y-205750D01*
X-122113Y-205758D01*
X-122175Y-205763D01*
X-122238Y-205765D01*
X-127238D01*
X-127301Y-205763D01*
X-127364Y-205758D01*
X-127426Y-205750D01*
X-127488Y-205739D01*
X-127549Y-205724D01*
X-127609Y-205706D01*
X-127668Y-205685D01*
X-127726Y-205661D01*
X-127783Y-205634D01*
X-127838Y-205604D01*
X-127892Y-205571D01*
X-127943Y-205536D01*
X-127993Y-205498D01*
X-128041Y-205457D01*
X-128087Y-205413D01*
X-128130Y-205368D01*
X-128171Y-205320D01*
X-128209Y-205270D01*
X-128244Y-205219D01*
X-128277Y-205165D01*
X-128307Y-205110D01*
X-128334Y-205053D01*
X-128358Y-204995D01*
X-128379Y-204936D01*
X-128397Y-204876D01*
X-128412Y-204814D01*
X-128423Y-204753D01*
X-128432Y-204690D01*
X-128436Y-204628D01*
X-128438Y-204565D01*
Y-203065D01*
X-128436Y-203002D01*
X-128432Y-202939D01*
X-128423Y-202877D01*
X-128412Y-202815D01*
X-128397Y-202754D01*
X-128379Y-202694D01*
X-128358Y-202635D01*
X-128334Y-202577D01*
X-128307Y-202520D01*
X-128277Y-202465D01*
X-128244Y-202411D01*
X-128209Y-202360D01*
X-128171Y-202310D01*
X-128130Y-202262D01*
X-128087Y-202216D01*
X-128041Y-202173D01*
X-127993Y-202132D01*
X-127943Y-202094D01*
X-127892Y-202059D01*
X-127838Y-202026D01*
X-127783Y-201996D01*
X-127726Y-201969D01*
X-127668Y-201945D01*
X-127609Y-201924D01*
X-127549Y-201906D01*
X-127488Y-201891D01*
X-127426Y-201880D01*
X-127364Y-201872D01*
X-127301Y-201867D01*
X-127238Y-201865D01*
X-122238D01*
X-122175Y-201867D01*
D02*
G37*
G36*
X-155175D02*
X-155113Y-201872D01*
X-155050Y-201880D01*
X-154989Y-201891D01*
X-154928Y-201906D01*
X-154867Y-201924D01*
X-154808Y-201945D01*
X-154750Y-201969D01*
X-154693Y-201996D01*
X-154638Y-202026D01*
X-154585Y-202059D01*
X-154533Y-202094D01*
X-154483Y-202132D01*
X-154435Y-202173D01*
X-154389Y-202216D01*
X-154346Y-202262D01*
X-154305Y-202310D01*
X-154267Y-202360D01*
X-154232Y-202411D01*
X-154199Y-202465D01*
X-154169Y-202520D01*
X-154142Y-202577D01*
X-154118Y-202635D01*
X-154097Y-202694D01*
X-154079Y-202754D01*
X-154064Y-202815D01*
X-154053Y-202877D01*
X-154045Y-202939D01*
X-154040Y-203002D01*
X-154038Y-203065D01*
Y-204565D01*
X-154040Y-204628D01*
X-154045Y-204690D01*
X-154053Y-204753D01*
X-154064Y-204814D01*
X-154079Y-204876D01*
X-154097Y-204936D01*
X-154118Y-204995D01*
X-154142Y-205053D01*
X-154169Y-205110D01*
X-154199Y-205165D01*
X-154232Y-205219D01*
X-154267Y-205270D01*
X-154305Y-205320D01*
X-154346Y-205368D01*
X-154389Y-205413D01*
X-154435Y-205457D01*
X-154483Y-205498D01*
X-154533Y-205536D01*
X-154585Y-205571D01*
X-154638Y-205604D01*
X-154693Y-205634D01*
X-154750Y-205661D01*
X-154808Y-205685D01*
X-154867Y-205706D01*
X-154928Y-205724D01*
X-154989Y-205739D01*
X-155050Y-205750D01*
X-155113Y-205758D01*
X-155175Y-205763D01*
X-155238Y-205765D01*
X-160238D01*
X-160301Y-205763D01*
X-160364Y-205758D01*
X-160426Y-205750D01*
X-160488Y-205739D01*
X-160549Y-205724D01*
X-160609Y-205706D01*
X-160668Y-205685D01*
X-160726Y-205661D01*
X-160783Y-205634D01*
X-160838Y-205604D01*
X-160892Y-205571D01*
X-160943Y-205536D01*
X-160993Y-205498D01*
X-161041Y-205457D01*
X-161087Y-205413D01*
X-161130Y-205368D01*
X-161171Y-205320D01*
X-161209Y-205270D01*
X-161245Y-205219D01*
X-161277Y-205165D01*
X-161307Y-205110D01*
X-161334Y-205053D01*
X-161358Y-204995D01*
X-161379Y-204936D01*
X-161397Y-204876D01*
X-161412Y-204814D01*
X-161423Y-204753D01*
X-161432Y-204690D01*
X-161436Y-204628D01*
X-161438Y-204565D01*
Y-203065D01*
X-161436Y-203002D01*
X-161432Y-202939D01*
X-161423Y-202877D01*
X-161412Y-202815D01*
X-161397Y-202754D01*
X-161379Y-202694D01*
X-161358Y-202635D01*
X-161334Y-202577D01*
X-161307Y-202520D01*
X-161277Y-202465D01*
X-161245Y-202411D01*
X-161209Y-202360D01*
X-161171Y-202310D01*
X-161130Y-202262D01*
X-161087Y-202216D01*
X-161041Y-202173D01*
X-160993Y-202132D01*
X-160943Y-202094D01*
X-160892Y-202059D01*
X-160838Y-202026D01*
X-160783Y-201996D01*
X-160726Y-201969D01*
X-160668Y-201945D01*
X-160609Y-201924D01*
X-160549Y-201906D01*
X-160488Y-201891D01*
X-160426Y-201880D01*
X-160364Y-201872D01*
X-160301Y-201867D01*
X-160238Y-201865D01*
X-155238D01*
X-155175Y-201867D01*
D02*
G37*
G36*
X-122175Y-206867D02*
X-122113Y-206872D01*
X-122050Y-206880D01*
X-121989Y-206891D01*
X-121927Y-206906D01*
X-121867Y-206924D01*
X-121808Y-206945D01*
X-121750Y-206969D01*
X-121693Y-206996D01*
X-121638Y-207026D01*
X-121585Y-207059D01*
X-121533Y-207094D01*
X-121483Y-207132D01*
X-121435Y-207173D01*
X-121390Y-207216D01*
X-121346Y-207262D01*
X-121306Y-207310D01*
X-121267Y-207360D01*
X-121232Y-207411D01*
X-121199Y-207465D01*
X-121169Y-207520D01*
X-121142Y-207577D01*
X-121118Y-207635D01*
X-121097Y-207694D01*
X-121079Y-207754D01*
X-121064Y-207815D01*
X-121053Y-207877D01*
X-121045Y-207939D01*
X-121040Y-208002D01*
X-121038Y-208065D01*
Y-209565D01*
X-121040Y-209628D01*
X-121045Y-209690D01*
X-121053Y-209753D01*
X-121064Y-209814D01*
X-121079Y-209876D01*
X-121097Y-209936D01*
X-121118Y-209995D01*
X-121142Y-210053D01*
X-121169Y-210110D01*
X-121199Y-210165D01*
X-121232Y-210219D01*
X-121267Y-210270D01*
X-121306Y-210320D01*
X-121346Y-210368D01*
X-121390Y-210413D01*
X-121435Y-210457D01*
X-121483Y-210497D01*
X-121533Y-210536D01*
X-121585Y-210571D01*
X-121638Y-210604D01*
X-121693Y-210634D01*
X-121750Y-210661D01*
X-121808Y-210685D01*
X-121867Y-210706D01*
X-121927Y-210724D01*
X-121989Y-210739D01*
X-122050Y-210750D01*
X-122113Y-210758D01*
X-122175Y-210763D01*
X-122238Y-210765D01*
X-127238D01*
X-127301Y-210763D01*
X-127364Y-210758D01*
X-127426Y-210750D01*
X-127488Y-210739D01*
X-127549Y-210724D01*
X-127609Y-210706D01*
X-127668Y-210685D01*
X-127726Y-210661D01*
X-127783Y-210634D01*
X-127838Y-210604D01*
X-127892Y-210571D01*
X-127943Y-210536D01*
X-127993Y-210497D01*
X-128041Y-210457D01*
X-128087Y-210413D01*
X-128130Y-210368D01*
X-128171Y-210320D01*
X-128209Y-210270D01*
X-128244Y-210219D01*
X-128277Y-210165D01*
X-128307Y-210110D01*
X-128334Y-210053D01*
X-128358Y-209995D01*
X-128379Y-209936D01*
X-128397Y-209876D01*
X-128412Y-209814D01*
X-128423Y-209753D01*
X-128432Y-209690D01*
X-128436Y-209628D01*
X-128438Y-209565D01*
Y-208065D01*
X-128436Y-208002D01*
X-128432Y-207939D01*
X-128423Y-207877D01*
X-128412Y-207815D01*
X-128397Y-207754D01*
X-128379Y-207694D01*
X-128358Y-207635D01*
X-128334Y-207577D01*
X-128307Y-207520D01*
X-128277Y-207465D01*
X-128244Y-207411D01*
X-128209Y-207360D01*
X-128171Y-207310D01*
X-128130Y-207262D01*
X-128087Y-207216D01*
X-128041Y-207173D01*
X-127993Y-207132D01*
X-127943Y-207094D01*
X-127892Y-207059D01*
X-127838Y-207026D01*
X-127783Y-206996D01*
X-127726Y-206969D01*
X-127668Y-206945D01*
X-127609Y-206924D01*
X-127549Y-206906D01*
X-127488Y-206891D01*
X-127426Y-206880D01*
X-127364Y-206872D01*
X-127301Y-206867D01*
X-127238Y-206865D01*
X-122238D01*
X-122175Y-206867D01*
D02*
G37*
G36*
X-155175D02*
X-155113Y-206872D01*
X-155050Y-206880D01*
X-154989Y-206891D01*
X-154928Y-206906D01*
X-154867Y-206924D01*
X-154808Y-206945D01*
X-154750Y-206969D01*
X-154693Y-206996D01*
X-154638Y-207026D01*
X-154585Y-207059D01*
X-154533Y-207094D01*
X-154483Y-207132D01*
X-154435Y-207173D01*
X-154389Y-207216D01*
X-154346Y-207262D01*
X-154305Y-207310D01*
X-154267Y-207360D01*
X-154232Y-207411D01*
X-154199Y-207465D01*
X-154169Y-207520D01*
X-154142Y-207577D01*
X-154118Y-207635D01*
X-154097Y-207694D01*
X-154079Y-207754D01*
X-154064Y-207815D01*
X-154053Y-207877D01*
X-154045Y-207939D01*
X-154040Y-208002D01*
X-154038Y-208065D01*
Y-209565D01*
X-154040Y-209628D01*
X-154045Y-209690D01*
X-154053Y-209753D01*
X-154064Y-209814D01*
X-154079Y-209876D01*
X-154097Y-209936D01*
X-154118Y-209995D01*
X-154142Y-210053D01*
X-154169Y-210110D01*
X-154199Y-210165D01*
X-154232Y-210219D01*
X-154267Y-210270D01*
X-154305Y-210320D01*
X-154346Y-210368D01*
X-154389Y-210413D01*
X-154435Y-210457D01*
X-154483Y-210497D01*
X-154533Y-210536D01*
X-154585Y-210571D01*
X-154638Y-210604D01*
X-154693Y-210634D01*
X-154750Y-210661D01*
X-154808Y-210685D01*
X-154867Y-210706D01*
X-154928Y-210724D01*
X-154989Y-210739D01*
X-155050Y-210750D01*
X-155113Y-210758D01*
X-155175Y-210763D01*
X-155238Y-210765D01*
X-160238D01*
X-160301Y-210763D01*
X-160364Y-210758D01*
X-160426Y-210750D01*
X-160488Y-210739D01*
X-160549Y-210724D01*
X-160609Y-210706D01*
X-160668Y-210685D01*
X-160726Y-210661D01*
X-160783Y-210634D01*
X-160838Y-210604D01*
X-160892Y-210571D01*
X-160943Y-210536D01*
X-160993Y-210497D01*
X-161041Y-210457D01*
X-161087Y-210413D01*
X-161130Y-210368D01*
X-161171Y-210320D01*
X-161209Y-210270D01*
X-161245Y-210219D01*
X-161277Y-210165D01*
X-161307Y-210110D01*
X-161334Y-210053D01*
X-161358Y-209995D01*
X-161379Y-209936D01*
X-161397Y-209876D01*
X-161412Y-209814D01*
X-161423Y-209753D01*
X-161432Y-209690D01*
X-161436Y-209628D01*
X-161438Y-209565D01*
Y-208065D01*
X-161436Y-208002D01*
X-161432Y-207939D01*
X-161423Y-207877D01*
X-161412Y-207815D01*
X-161397Y-207754D01*
X-161379Y-207694D01*
X-161358Y-207635D01*
X-161334Y-207577D01*
X-161307Y-207520D01*
X-161277Y-207465D01*
X-161245Y-207411D01*
X-161209Y-207360D01*
X-161171Y-207310D01*
X-161130Y-207262D01*
X-161087Y-207216D01*
X-161041Y-207173D01*
X-160993Y-207132D01*
X-160943Y-207094D01*
X-160892Y-207059D01*
X-160838Y-207026D01*
X-160783Y-206996D01*
X-160726Y-206969D01*
X-160668Y-206945D01*
X-160609Y-206924D01*
X-160549Y-206906D01*
X-160488Y-206891D01*
X-160426Y-206880D01*
X-160364Y-206872D01*
X-160301Y-206867D01*
X-160238Y-206865D01*
X-155238D01*
X-155175Y-206867D01*
D02*
G37*
G36*
X-132925Y-209117D02*
X-132863Y-209122D01*
X-132800Y-209130D01*
X-132739Y-209141D01*
X-132677Y-209156D01*
X-132617Y-209174D01*
X-132558Y-209195D01*
X-132500Y-209219D01*
X-132443Y-209246D01*
X-132388Y-209276D01*
X-132334Y-209309D01*
X-132283Y-209344D01*
X-132233Y-209382D01*
X-132185Y-209423D01*
X-132140Y-209466D01*
X-132096Y-209512D01*
X-132056Y-209560D01*
X-132017Y-209610D01*
X-131982Y-209661D01*
X-131949Y-209715D01*
X-131919Y-209770D01*
X-131892Y-209827D01*
X-131868Y-209885D01*
X-131847Y-209944D01*
X-131829Y-210004D01*
X-131814Y-210065D01*
X-131803Y-210127D01*
X-131795Y-210189D01*
X-131790Y-210252D01*
X-131788Y-210315D01*
Y-215315D01*
X-131790Y-215378D01*
X-131795Y-215440D01*
X-131803Y-215503D01*
X-131814Y-215564D01*
X-131829Y-215626D01*
X-131847Y-215686D01*
X-131868Y-215745D01*
X-131892Y-215803D01*
X-131919Y-215860D01*
X-131949Y-215915D01*
X-131982Y-215969D01*
X-132017Y-216020D01*
X-132056Y-216070D01*
X-132096Y-216118D01*
X-132140Y-216164D01*
X-132185Y-216207D01*
X-132233Y-216248D01*
X-132283Y-216286D01*
X-132334Y-216321D01*
X-132388Y-216354D01*
X-132443Y-216384D01*
X-132500Y-216411D01*
X-132558Y-216435D01*
X-132617Y-216456D01*
X-132677Y-216474D01*
X-132739Y-216489D01*
X-132800Y-216500D01*
X-132863Y-216508D01*
X-132925Y-216513D01*
X-132988Y-216515D01*
X-134488D01*
X-134551Y-216513D01*
X-134614Y-216508D01*
X-134676Y-216500D01*
X-134738Y-216489D01*
X-134799Y-216474D01*
X-134859Y-216456D01*
X-134918Y-216435D01*
X-134976Y-216411D01*
X-135033Y-216384D01*
X-135088Y-216354D01*
X-135142Y-216321D01*
X-135193Y-216286D01*
X-135243Y-216248D01*
X-135291Y-216207D01*
X-135337Y-216164D01*
X-135380Y-216118D01*
X-135421Y-216070D01*
X-135459Y-216020D01*
X-135494Y-215969D01*
X-135527Y-215915D01*
X-135557Y-215860D01*
X-135584Y-215803D01*
X-135608Y-215745D01*
X-135629Y-215686D01*
X-135647Y-215626D01*
X-135662Y-215564D01*
X-135673Y-215503D01*
X-135681Y-215440D01*
X-135686Y-215378D01*
X-135688Y-215315D01*
Y-210315D01*
X-135686Y-210252D01*
X-135681Y-210189D01*
X-135673Y-210127D01*
X-135662Y-210065D01*
X-135647Y-210004D01*
X-135629Y-209944D01*
X-135608Y-209885D01*
X-135584Y-209827D01*
X-135557Y-209770D01*
X-135527Y-209715D01*
X-135494Y-209661D01*
X-135459Y-209610D01*
X-135421Y-209560D01*
X-135380Y-209512D01*
X-135337Y-209466D01*
X-135291Y-209423D01*
X-135243Y-209382D01*
X-135193Y-209344D01*
X-135142Y-209309D01*
X-135088Y-209276D01*
X-135033Y-209246D01*
X-134976Y-209219D01*
X-134918Y-209195D01*
X-134859Y-209174D01*
X-134799Y-209156D01*
X-134738Y-209141D01*
X-134676Y-209130D01*
X-134614Y-209122D01*
X-134551Y-209117D01*
X-134488Y-209115D01*
X-132988D01*
X-132925Y-209117D01*
D02*
G37*
G36*
X-147925D02*
X-147863Y-209122D01*
X-147800Y-209130D01*
X-147739Y-209141D01*
X-147677Y-209156D01*
X-147617Y-209174D01*
X-147558Y-209195D01*
X-147500Y-209219D01*
X-147443Y-209246D01*
X-147388Y-209276D01*
X-147334Y-209309D01*
X-147283Y-209344D01*
X-147233Y-209382D01*
X-147185Y-209423D01*
X-147140Y-209466D01*
X-147096Y-209512D01*
X-147056Y-209560D01*
X-147017Y-209610D01*
X-146982Y-209661D01*
X-146949Y-209715D01*
X-146919Y-209770D01*
X-146892Y-209827D01*
X-146868Y-209885D01*
X-146847Y-209944D01*
X-146829Y-210004D01*
X-146814Y-210065D01*
X-146803Y-210127D01*
X-146795Y-210189D01*
X-146790Y-210252D01*
X-146788Y-210315D01*
Y-215315D01*
X-146790Y-215378D01*
X-146795Y-215440D01*
X-146803Y-215503D01*
X-146814Y-215564D01*
X-146829Y-215626D01*
X-146847Y-215686D01*
X-146868Y-215745D01*
X-146892Y-215803D01*
X-146919Y-215860D01*
X-146949Y-215915D01*
X-146982Y-215969D01*
X-147017Y-216020D01*
X-147056Y-216070D01*
X-147096Y-216118D01*
X-147140Y-216164D01*
X-147185Y-216207D01*
X-147233Y-216248D01*
X-147283Y-216286D01*
X-147334Y-216321D01*
X-147388Y-216354D01*
X-147443Y-216384D01*
X-147500Y-216411D01*
X-147558Y-216435D01*
X-147617Y-216456D01*
X-147677Y-216474D01*
X-147739Y-216489D01*
X-147800Y-216500D01*
X-147863Y-216508D01*
X-147925Y-216513D01*
X-147988Y-216515D01*
X-149488D01*
X-149551Y-216513D01*
X-149614Y-216508D01*
X-149676Y-216500D01*
X-149738Y-216489D01*
X-149799Y-216474D01*
X-149859Y-216456D01*
X-149918Y-216435D01*
X-149976Y-216411D01*
X-150033Y-216384D01*
X-150088Y-216354D01*
X-150142Y-216321D01*
X-150193Y-216286D01*
X-150243Y-216248D01*
X-150291Y-216207D01*
X-150337Y-216164D01*
X-150380Y-216118D01*
X-150421Y-216070D01*
X-150459Y-216020D01*
X-150494Y-215969D01*
X-150527Y-215915D01*
X-150557Y-215860D01*
X-150584Y-215803D01*
X-150608Y-215745D01*
X-150629Y-215686D01*
X-150647Y-215626D01*
X-150662Y-215564D01*
X-150673Y-215503D01*
X-150681Y-215440D01*
X-150686Y-215378D01*
X-150688Y-215315D01*
Y-210315D01*
X-150686Y-210252D01*
X-150681Y-210189D01*
X-150673Y-210127D01*
X-150662Y-210065D01*
X-150647Y-210004D01*
X-150629Y-209944D01*
X-150608Y-209885D01*
X-150584Y-209827D01*
X-150557Y-209770D01*
X-150527Y-209715D01*
X-150494Y-209661D01*
X-150459Y-209610D01*
X-150421Y-209560D01*
X-150380Y-209512D01*
X-150337Y-209466D01*
X-150291Y-209423D01*
X-150243Y-209382D01*
X-150193Y-209344D01*
X-150142Y-209309D01*
X-150088Y-209276D01*
X-150033Y-209246D01*
X-149976Y-209219D01*
X-149918Y-209195D01*
X-149859Y-209174D01*
X-149799Y-209156D01*
X-149738Y-209141D01*
X-149676Y-209130D01*
X-149614Y-209122D01*
X-149551Y-209117D01*
X-149488Y-209115D01*
X-147988D01*
X-147925Y-209117D01*
D02*
G37*
G36*
X-137925Y-34879D02*
X-137863Y-34884D01*
X-137800Y-34892D01*
X-137739Y-34903D01*
X-137677Y-34918D01*
X-137617Y-34936D01*
X-137558Y-34957D01*
X-137500Y-34981D01*
X-137443Y-35008D01*
X-137388Y-35038D01*
X-137334Y-35071D01*
X-137283Y-35106D01*
X-137233Y-35144D01*
X-137185Y-35185D01*
X-137140Y-35229D01*
X-137096Y-35274D01*
X-137056Y-35322D01*
X-137017Y-35372D01*
X-136982Y-35423D01*
X-136949Y-35477D01*
X-136919Y-35532D01*
X-136892Y-35589D01*
X-136868Y-35647D01*
X-136847Y-35706D01*
X-136829Y-35766D01*
X-136814Y-35828D01*
X-136803Y-35889D01*
X-136795Y-35952D01*
X-136790Y-36014D01*
X-136788Y-36077D01*
Y-43377D01*
X-130738D01*
X-130675Y-43379D01*
X-130613Y-43384D01*
X-130550Y-43392D01*
X-130489Y-43403D01*
X-130428Y-43418D01*
X-130367Y-43436D01*
X-130308Y-43457D01*
X-130250Y-43481D01*
X-130193Y-43508D01*
X-130138Y-43538D01*
X-130084Y-43571D01*
X-130033Y-43606D01*
X-129983Y-43644D01*
X-129935Y-43685D01*
X-129890Y-43728D01*
X-129846Y-43774D01*
X-129805Y-43822D01*
X-129767Y-43872D01*
X-129732Y-43923D01*
X-129699Y-43977D01*
X-129669Y-44032D01*
X-129642Y-44089D01*
X-129618Y-44147D01*
X-129597Y-44206D01*
X-129579Y-44266D01*
X-129564Y-44328D01*
X-129553Y-44389D01*
X-129545Y-44451D01*
X-129540Y-44514D01*
X-129538Y-44577D01*
Y-75577D01*
X-129540Y-75640D01*
X-129545Y-75702D01*
X-129553Y-75765D01*
X-129564Y-75827D01*
X-129579Y-75888D01*
X-129597Y-75948D01*
X-129618Y-76007D01*
X-129642Y-76065D01*
X-129669Y-76122D01*
X-129699Y-76177D01*
X-129732Y-76231D01*
X-129767Y-76282D01*
X-129805Y-76332D01*
X-129846Y-76380D01*
X-129890Y-76425D01*
X-129935Y-76469D01*
X-129983Y-76510D01*
X-130033Y-76548D01*
X-130084Y-76583D01*
X-130138Y-76616D01*
X-130193Y-76646D01*
X-130250Y-76673D01*
X-130308Y-76697D01*
X-130367Y-76718D01*
X-130428Y-76736D01*
X-130489Y-76751D01*
X-130550Y-76762D01*
X-130613Y-76770D01*
X-130675Y-76775D01*
X-130738Y-76777D01*
X-136788D01*
Y-84077D01*
X-136790Y-84140D01*
X-136795Y-84202D01*
X-136803Y-84265D01*
X-136814Y-84326D01*
X-136829Y-84388D01*
X-136847Y-84448D01*
X-136868Y-84507D01*
X-136892Y-84565D01*
X-136919Y-84622D01*
X-136949Y-84677D01*
X-136982Y-84731D01*
X-137017Y-84782D01*
X-137056Y-84832D01*
X-137096Y-84880D01*
X-137140Y-84925D01*
X-137185Y-84969D01*
X-137233Y-85010D01*
X-137283Y-85048D01*
X-137334Y-85083D01*
X-137388Y-85116D01*
X-137443Y-85146D01*
X-137500Y-85173D01*
X-137558Y-85197D01*
X-137617Y-85218D01*
X-137677Y-85236D01*
X-137739Y-85251D01*
X-137800Y-85262D01*
X-137863Y-85270D01*
X-137925Y-85275D01*
X-137988Y-85277D01*
X-139488D01*
X-139551Y-85275D01*
X-139614Y-85270D01*
X-139676Y-85262D01*
X-139738Y-85251D01*
X-139799Y-85236D01*
X-139859Y-85218D01*
X-139918Y-85197D01*
X-139976Y-85173D01*
X-140033Y-85146D01*
X-140088Y-85116D01*
X-140142Y-85083D01*
X-140193Y-85048D01*
X-140243Y-85010D01*
X-140291Y-84969D01*
X-140337Y-84925D01*
X-140380Y-84880D01*
X-140421Y-84832D01*
X-140459Y-84782D01*
X-140494Y-84731D01*
X-140527Y-84677D01*
X-140557Y-84622D01*
X-140584Y-84565D01*
X-140608Y-84507D01*
X-140629Y-84448D01*
X-140647Y-84388D01*
X-140662Y-84326D01*
X-140673Y-84265D01*
X-140681Y-84202D01*
X-140686Y-84140D01*
X-140688Y-84077D01*
Y-81777D01*
X-141788D01*
Y-84077D01*
X-141790Y-84140D01*
X-141795Y-84202D01*
X-141803Y-84265D01*
X-141814Y-84326D01*
X-141829Y-84388D01*
X-141847Y-84448D01*
X-141868Y-84507D01*
X-141892Y-84565D01*
X-141919Y-84622D01*
X-141949Y-84677D01*
X-141982Y-84731D01*
X-142017Y-84782D01*
X-142056Y-84832D01*
X-142096Y-84880D01*
X-142140Y-84925D01*
X-142185Y-84969D01*
X-142233Y-85010D01*
X-142283Y-85048D01*
X-142334Y-85083D01*
X-142388Y-85116D01*
X-142443Y-85146D01*
X-142500Y-85173D01*
X-142558Y-85197D01*
X-142617Y-85218D01*
X-142677Y-85236D01*
X-142739Y-85251D01*
X-142800Y-85262D01*
X-142863Y-85270D01*
X-142925Y-85275D01*
X-142988Y-85277D01*
X-144488D01*
X-144551Y-85275D01*
X-144614Y-85270D01*
X-144676Y-85262D01*
X-144738Y-85251D01*
X-144799Y-85236D01*
X-144859Y-85218D01*
X-144918Y-85197D01*
X-144976Y-85173D01*
X-145033Y-85146D01*
X-145088Y-85116D01*
X-145142Y-85083D01*
X-145193Y-85048D01*
X-145243Y-85010D01*
X-145291Y-84969D01*
X-145337Y-84925D01*
X-145380Y-84880D01*
X-145421Y-84832D01*
X-145459Y-84782D01*
X-145494Y-84731D01*
X-145527Y-84677D01*
X-145557Y-84622D01*
X-145584Y-84565D01*
X-145608Y-84507D01*
X-145629Y-84448D01*
X-145647Y-84388D01*
X-145662Y-84326D01*
X-145673Y-84265D01*
X-145681Y-84202D01*
X-145686Y-84140D01*
X-145688Y-84077D01*
Y-76777D01*
X-151738D01*
X-151801Y-76775D01*
X-151863Y-76770D01*
X-151926Y-76762D01*
X-151988Y-76751D01*
X-152049Y-76736D01*
X-152109Y-76718D01*
X-152168Y-76697D01*
X-152226Y-76673D01*
X-152283Y-76646D01*
X-152338Y-76616D01*
X-152392Y-76583D01*
X-152443Y-76548D01*
X-152493Y-76510D01*
X-152541Y-76469D01*
X-152587Y-76425D01*
X-152630Y-76380D01*
X-152671Y-76332D01*
X-152709Y-76282D01*
X-152745Y-76231D01*
X-152777Y-76177D01*
X-152807Y-76122D01*
X-152834Y-76065D01*
X-152858Y-76007D01*
X-152879Y-75948D01*
X-152897Y-75888D01*
X-152912Y-75827D01*
X-152923Y-75765D01*
X-152931Y-75702D01*
X-152936Y-75640D01*
X-152938Y-75577D01*
Y-44577D01*
X-152936Y-44514D01*
X-152931Y-44451D01*
X-152923Y-44389D01*
X-152912Y-44328D01*
X-152897Y-44266D01*
X-152879Y-44206D01*
X-152858Y-44147D01*
X-152834Y-44089D01*
X-152807Y-44032D01*
X-152777Y-43977D01*
X-152745Y-43923D01*
X-152709Y-43872D01*
X-152671Y-43822D01*
X-152630Y-43774D01*
X-152587Y-43728D01*
X-152541Y-43685D01*
X-152493Y-43644D01*
X-152443Y-43606D01*
X-152392Y-43571D01*
X-152338Y-43538D01*
X-152283Y-43508D01*
X-152226Y-43481D01*
X-152168Y-43457D01*
X-152109Y-43436D01*
X-152049Y-43418D01*
X-151988Y-43403D01*
X-151926Y-43392D01*
X-151863Y-43384D01*
X-151801Y-43379D01*
X-151738Y-43377D01*
X-145688D01*
Y-36077D01*
X-145686Y-36014D01*
X-145681Y-35952D01*
X-145673Y-35889D01*
X-145662Y-35828D01*
X-145647Y-35766D01*
X-145629Y-35706D01*
X-145608Y-35647D01*
X-145584Y-35589D01*
X-145557Y-35532D01*
X-145527Y-35477D01*
X-145494Y-35423D01*
X-145459Y-35372D01*
X-145421Y-35322D01*
X-145380Y-35274D01*
X-145337Y-35229D01*
X-145291Y-35185D01*
X-145243Y-35144D01*
X-145193Y-35106D01*
X-145142Y-35071D01*
X-145088Y-35038D01*
X-145033Y-35008D01*
X-144976Y-34981D01*
X-144918Y-34957D01*
X-144859Y-34936D01*
X-144799Y-34918D01*
X-144738Y-34903D01*
X-144676Y-34892D01*
X-144614Y-34884D01*
X-144551Y-34879D01*
X-144488Y-34877D01*
X-142988D01*
X-142925Y-34879D01*
X-142863Y-34884D01*
X-142800Y-34892D01*
X-142739Y-34903D01*
X-142677Y-34918D01*
X-142617Y-34936D01*
X-142558Y-34957D01*
X-142500Y-34981D01*
X-142443Y-35008D01*
X-142388Y-35038D01*
X-142334Y-35071D01*
X-142283Y-35106D01*
X-142233Y-35144D01*
X-142185Y-35185D01*
X-142140Y-35229D01*
X-142096Y-35274D01*
X-142056Y-35322D01*
X-142017Y-35372D01*
X-141982Y-35423D01*
X-141949Y-35477D01*
X-141919Y-35532D01*
X-141892Y-35589D01*
X-141868Y-35647D01*
X-141847Y-35706D01*
X-141829Y-35766D01*
X-141814Y-35828D01*
X-141803Y-35889D01*
X-141795Y-35952D01*
X-141790Y-36014D01*
X-141788Y-36077D01*
Y-38377D01*
X-140688D01*
Y-36077D01*
X-140686Y-36014D01*
X-140681Y-35952D01*
X-140673Y-35889D01*
X-140662Y-35828D01*
X-140647Y-35766D01*
X-140629Y-35706D01*
X-140608Y-35647D01*
X-140584Y-35589D01*
X-140557Y-35532D01*
X-140527Y-35477D01*
X-140494Y-35423D01*
X-140459Y-35372D01*
X-140421Y-35322D01*
X-140380Y-35274D01*
X-140337Y-35229D01*
X-140291Y-35185D01*
X-140243Y-35144D01*
X-140193Y-35106D01*
X-140142Y-35071D01*
X-140088Y-35038D01*
X-140033Y-35008D01*
X-139976Y-34981D01*
X-139918Y-34957D01*
X-139859Y-34936D01*
X-139799Y-34918D01*
X-139738Y-34903D01*
X-139676Y-34892D01*
X-139614Y-34884D01*
X-139551Y-34879D01*
X-139488Y-34877D01*
X-137988D01*
X-137925Y-34879D01*
D02*
G37*
G36*
X-132925D02*
X-132863Y-34884D01*
X-132800Y-34892D01*
X-132739Y-34903D01*
X-132677Y-34918D01*
X-132617Y-34936D01*
X-132558Y-34957D01*
X-132500Y-34981D01*
X-132443Y-35008D01*
X-132388Y-35038D01*
X-132334Y-35071D01*
X-132283Y-35106D01*
X-132233Y-35144D01*
X-132185Y-35185D01*
X-132140Y-35229D01*
X-132096Y-35274D01*
X-132056Y-35322D01*
X-132017Y-35372D01*
X-131982Y-35423D01*
X-131949Y-35477D01*
X-131919Y-35532D01*
X-131892Y-35589D01*
X-131868Y-35647D01*
X-131847Y-35706D01*
X-131829Y-35766D01*
X-131814Y-35828D01*
X-131803Y-35889D01*
X-131795Y-35952D01*
X-131790Y-36014D01*
X-131788Y-36077D01*
Y-41077D01*
X-131790Y-41140D01*
X-131795Y-41202D01*
X-131803Y-41265D01*
X-131814Y-41326D01*
X-131829Y-41388D01*
X-131847Y-41448D01*
X-131868Y-41507D01*
X-131892Y-41565D01*
X-131919Y-41622D01*
X-131949Y-41677D01*
X-131982Y-41730D01*
X-132017Y-41782D01*
X-132056Y-41832D01*
X-132096Y-41880D01*
X-132140Y-41926D01*
X-132185Y-41969D01*
X-132233Y-42010D01*
X-132283Y-42048D01*
X-132334Y-42083D01*
X-132388Y-42116D01*
X-132443Y-42146D01*
X-132500Y-42173D01*
X-132558Y-42197D01*
X-132617Y-42218D01*
X-132677Y-42236D01*
X-132739Y-42251D01*
X-132800Y-42262D01*
X-132863Y-42270D01*
X-132925Y-42275D01*
X-132988Y-42277D01*
X-134488D01*
X-134551Y-42275D01*
X-134614Y-42270D01*
X-134676Y-42262D01*
X-134738Y-42251D01*
X-134799Y-42236D01*
X-134859Y-42218D01*
X-134918Y-42197D01*
X-134976Y-42173D01*
X-135033Y-42146D01*
X-135088Y-42116D01*
X-135142Y-42083D01*
X-135193Y-42048D01*
X-135243Y-42010D01*
X-135291Y-41969D01*
X-135337Y-41926D01*
X-135380Y-41880D01*
X-135421Y-41832D01*
X-135459Y-41782D01*
X-135494Y-41730D01*
X-135527Y-41677D01*
X-135557Y-41622D01*
X-135584Y-41565D01*
X-135608Y-41507D01*
X-135629Y-41448D01*
X-135647Y-41388D01*
X-135662Y-41326D01*
X-135673Y-41265D01*
X-135681Y-41202D01*
X-135686Y-41140D01*
X-135688Y-41077D01*
Y-36077D01*
X-135686Y-36014D01*
X-135681Y-35952D01*
X-135673Y-35889D01*
X-135662Y-35828D01*
X-135647Y-35766D01*
X-135629Y-35706D01*
X-135608Y-35647D01*
X-135584Y-35589D01*
X-135557Y-35532D01*
X-135527Y-35477D01*
X-135494Y-35423D01*
X-135459Y-35372D01*
X-135421Y-35322D01*
X-135380Y-35274D01*
X-135337Y-35229D01*
X-135291Y-35185D01*
X-135243Y-35144D01*
X-135193Y-35106D01*
X-135142Y-35071D01*
X-135088Y-35038D01*
X-135033Y-35008D01*
X-134976Y-34981D01*
X-134918Y-34957D01*
X-134859Y-34936D01*
X-134799Y-34918D01*
X-134738Y-34903D01*
X-134676Y-34892D01*
X-134614Y-34884D01*
X-134551Y-34879D01*
X-134488Y-34877D01*
X-132988D01*
X-132925Y-34879D01*
D02*
G37*
G36*
X-147925D02*
X-147863Y-34884D01*
X-147800Y-34892D01*
X-147739Y-34903D01*
X-147677Y-34918D01*
X-147617Y-34936D01*
X-147558Y-34957D01*
X-147500Y-34981D01*
X-147443Y-35008D01*
X-147388Y-35038D01*
X-147334Y-35071D01*
X-147283Y-35106D01*
X-147233Y-35144D01*
X-147185Y-35185D01*
X-147140Y-35229D01*
X-147096Y-35274D01*
X-147056Y-35322D01*
X-147017Y-35372D01*
X-146982Y-35423D01*
X-146949Y-35477D01*
X-146919Y-35532D01*
X-146892Y-35589D01*
X-146868Y-35647D01*
X-146847Y-35706D01*
X-146829Y-35766D01*
X-146814Y-35828D01*
X-146803Y-35889D01*
X-146795Y-35952D01*
X-146790Y-36014D01*
X-146788Y-36077D01*
Y-41077D01*
X-146790Y-41140D01*
X-146795Y-41202D01*
X-146803Y-41265D01*
X-146814Y-41326D01*
X-146829Y-41388D01*
X-146847Y-41448D01*
X-146868Y-41507D01*
X-146892Y-41565D01*
X-146919Y-41622D01*
X-146949Y-41677D01*
X-146982Y-41730D01*
X-147017Y-41782D01*
X-147056Y-41832D01*
X-147096Y-41880D01*
X-147140Y-41926D01*
X-147185Y-41969D01*
X-147233Y-42010D01*
X-147283Y-42048D01*
X-147334Y-42083D01*
X-147388Y-42116D01*
X-147443Y-42146D01*
X-147500Y-42173D01*
X-147558Y-42197D01*
X-147617Y-42218D01*
X-147677Y-42236D01*
X-147739Y-42251D01*
X-147800Y-42262D01*
X-147863Y-42270D01*
X-147925Y-42275D01*
X-147988Y-42277D01*
X-149488D01*
X-149551Y-42275D01*
X-149614Y-42270D01*
X-149676Y-42262D01*
X-149738Y-42251D01*
X-149799Y-42236D01*
X-149859Y-42218D01*
X-149918Y-42197D01*
X-149976Y-42173D01*
X-150033Y-42146D01*
X-150088Y-42116D01*
X-150142Y-42083D01*
X-150193Y-42048D01*
X-150243Y-42010D01*
X-150291Y-41969D01*
X-150337Y-41926D01*
X-150380Y-41880D01*
X-150421Y-41832D01*
X-150459Y-41782D01*
X-150494Y-41730D01*
X-150527Y-41677D01*
X-150557Y-41622D01*
X-150584Y-41565D01*
X-150608Y-41507D01*
X-150629Y-41448D01*
X-150647Y-41388D01*
X-150662Y-41326D01*
X-150673Y-41265D01*
X-150681Y-41202D01*
X-150686Y-41140D01*
X-150688Y-41077D01*
Y-36077D01*
X-150686Y-36014D01*
X-150681Y-35952D01*
X-150673Y-35889D01*
X-150662Y-35828D01*
X-150647Y-35766D01*
X-150629Y-35706D01*
X-150608Y-35647D01*
X-150584Y-35589D01*
X-150557Y-35532D01*
X-150527Y-35477D01*
X-150494Y-35423D01*
X-150459Y-35372D01*
X-150421Y-35322D01*
X-150380Y-35274D01*
X-150337Y-35229D01*
X-150291Y-35185D01*
X-150243Y-35144D01*
X-150193Y-35106D01*
X-150142Y-35071D01*
X-150088Y-35038D01*
X-150033Y-35008D01*
X-149976Y-34981D01*
X-149918Y-34957D01*
X-149859Y-34936D01*
X-149799Y-34918D01*
X-149738Y-34903D01*
X-149676Y-34892D01*
X-149614Y-34884D01*
X-149551Y-34879D01*
X-149488Y-34877D01*
X-147988D01*
X-147925Y-34879D01*
D02*
G37*
G36*
X-122175Y-40629D02*
X-122113Y-40634D01*
X-122050Y-40642D01*
X-121989Y-40653D01*
X-121927Y-40668D01*
X-121867Y-40686D01*
X-121808Y-40707D01*
X-121750Y-40731D01*
X-121693Y-40758D01*
X-121638Y-40788D01*
X-121585Y-40821D01*
X-121533Y-40856D01*
X-121483Y-40894D01*
X-121435Y-40935D01*
X-121390Y-40978D01*
X-121346Y-41024D01*
X-121306Y-41072D01*
X-121267Y-41122D01*
X-121232Y-41173D01*
X-121199Y-41227D01*
X-121169Y-41282D01*
X-121142Y-41339D01*
X-121118Y-41397D01*
X-121097Y-41456D01*
X-121079Y-41516D01*
X-121064Y-41578D01*
X-121053Y-41639D01*
X-121045Y-41702D01*
X-121040Y-41764D01*
X-121038Y-41827D01*
Y-43327D01*
X-121040Y-43390D01*
X-121045Y-43452D01*
X-121053Y-43515D01*
X-121064Y-43576D01*
X-121079Y-43638D01*
X-121097Y-43698D01*
X-121118Y-43757D01*
X-121142Y-43815D01*
X-121169Y-43872D01*
X-121199Y-43927D01*
X-121232Y-43981D01*
X-121267Y-44032D01*
X-121306Y-44082D01*
X-121346Y-44130D01*
X-121390Y-44176D01*
X-121435Y-44219D01*
X-121483Y-44260D01*
X-121533Y-44298D01*
X-121585Y-44333D01*
X-121638Y-44366D01*
X-121693Y-44396D01*
X-121750Y-44423D01*
X-121808Y-44447D01*
X-121867Y-44468D01*
X-121927Y-44486D01*
X-121989Y-44501D01*
X-122050Y-44512D01*
X-122113Y-44520D01*
X-122175Y-44525D01*
X-122238Y-44527D01*
X-127238D01*
X-127301Y-44525D01*
X-127364Y-44520D01*
X-127426Y-44512D01*
X-127488Y-44501D01*
X-127549Y-44486D01*
X-127609Y-44468D01*
X-127668Y-44447D01*
X-127726Y-44423D01*
X-127783Y-44396D01*
X-127838Y-44366D01*
X-127892Y-44333D01*
X-127943Y-44298D01*
X-127993Y-44260D01*
X-128041Y-44219D01*
X-128087Y-44176D01*
X-128130Y-44130D01*
X-128171Y-44082D01*
X-128209Y-44032D01*
X-128244Y-43981D01*
X-128277Y-43927D01*
X-128307Y-43872D01*
X-128334Y-43815D01*
X-128358Y-43757D01*
X-128379Y-43698D01*
X-128397Y-43638D01*
X-128412Y-43576D01*
X-128423Y-43515D01*
X-128432Y-43452D01*
X-128436Y-43390D01*
X-128438Y-43327D01*
Y-41827D01*
X-128436Y-41764D01*
X-128432Y-41702D01*
X-128423Y-41639D01*
X-128412Y-41578D01*
X-128397Y-41516D01*
X-128379Y-41456D01*
X-128358Y-41397D01*
X-128334Y-41339D01*
X-128307Y-41282D01*
X-128277Y-41227D01*
X-128244Y-41173D01*
X-128209Y-41122D01*
X-128171Y-41072D01*
X-128130Y-41024D01*
X-128087Y-40978D01*
X-128041Y-40935D01*
X-127993Y-40894D01*
X-127943Y-40856D01*
X-127892Y-40821D01*
X-127838Y-40788D01*
X-127783Y-40758D01*
X-127726Y-40731D01*
X-127668Y-40707D01*
X-127609Y-40686D01*
X-127549Y-40668D01*
X-127488Y-40653D01*
X-127426Y-40642D01*
X-127364Y-40634D01*
X-127301Y-40629D01*
X-127238Y-40627D01*
X-122238D01*
X-122175Y-40629D01*
D02*
G37*
G36*
X-155175D02*
X-155113Y-40634D01*
X-155050Y-40642D01*
X-154989Y-40653D01*
X-154928Y-40668D01*
X-154867Y-40686D01*
X-154808Y-40707D01*
X-154750Y-40731D01*
X-154693Y-40758D01*
X-154638Y-40788D01*
X-154585Y-40821D01*
X-154533Y-40856D01*
X-154483Y-40894D01*
X-154435Y-40935D01*
X-154389Y-40978D01*
X-154346Y-41024D01*
X-154305Y-41072D01*
X-154267Y-41122D01*
X-154232Y-41173D01*
X-154199Y-41227D01*
X-154169Y-41282D01*
X-154142Y-41339D01*
X-154118Y-41397D01*
X-154097Y-41456D01*
X-154079Y-41516D01*
X-154064Y-41578D01*
X-154053Y-41639D01*
X-154045Y-41702D01*
X-154040Y-41764D01*
X-154038Y-41827D01*
Y-43327D01*
X-154040Y-43390D01*
X-154045Y-43452D01*
X-154053Y-43515D01*
X-154064Y-43576D01*
X-154079Y-43638D01*
X-154097Y-43698D01*
X-154118Y-43757D01*
X-154142Y-43815D01*
X-154169Y-43872D01*
X-154199Y-43927D01*
X-154232Y-43981D01*
X-154267Y-44032D01*
X-154305Y-44082D01*
X-154346Y-44130D01*
X-154389Y-44176D01*
X-154435Y-44219D01*
X-154483Y-44260D01*
X-154533Y-44298D01*
X-154585Y-44333D01*
X-154638Y-44366D01*
X-154693Y-44396D01*
X-154750Y-44423D01*
X-154808Y-44447D01*
X-154867Y-44468D01*
X-154928Y-44486D01*
X-154989Y-44501D01*
X-155050Y-44512D01*
X-155113Y-44520D01*
X-155175Y-44525D01*
X-155238Y-44527D01*
X-160238D01*
X-160301Y-44525D01*
X-160364Y-44520D01*
X-160426Y-44512D01*
X-160488Y-44501D01*
X-160549Y-44486D01*
X-160609Y-44468D01*
X-160668Y-44447D01*
X-160726Y-44423D01*
X-160783Y-44396D01*
X-160838Y-44366D01*
X-160892Y-44333D01*
X-160943Y-44298D01*
X-160993Y-44260D01*
X-161041Y-44219D01*
X-161087Y-44176D01*
X-161130Y-44130D01*
X-161171Y-44082D01*
X-161209Y-44032D01*
X-161245Y-43981D01*
X-161277Y-43927D01*
X-161307Y-43872D01*
X-161334Y-43815D01*
X-161358Y-43757D01*
X-161379Y-43698D01*
X-161397Y-43638D01*
X-161412Y-43576D01*
X-161423Y-43515D01*
X-161432Y-43452D01*
X-161436Y-43390D01*
X-161438Y-43327D01*
Y-41827D01*
X-161436Y-41764D01*
X-161432Y-41702D01*
X-161423Y-41639D01*
X-161412Y-41578D01*
X-161397Y-41516D01*
X-161379Y-41456D01*
X-161358Y-41397D01*
X-161334Y-41339D01*
X-161307Y-41282D01*
X-161277Y-41227D01*
X-161245Y-41173D01*
X-161209Y-41122D01*
X-161171Y-41072D01*
X-161130Y-41024D01*
X-161087Y-40978D01*
X-161041Y-40935D01*
X-160993Y-40894D01*
X-160943Y-40856D01*
X-160892Y-40821D01*
X-160838Y-40788D01*
X-160783Y-40758D01*
X-160726Y-40731D01*
X-160668Y-40707D01*
X-160609Y-40686D01*
X-160549Y-40668D01*
X-160488Y-40653D01*
X-160426Y-40642D01*
X-160364Y-40634D01*
X-160301Y-40629D01*
X-160238Y-40627D01*
X-155238D01*
X-155175Y-40629D01*
D02*
G37*
G36*
X-122175Y-45629D02*
X-122113Y-45634D01*
X-122050Y-45642D01*
X-121989Y-45653D01*
X-121927Y-45668D01*
X-121867Y-45686D01*
X-121808Y-45707D01*
X-121750Y-45731D01*
X-121693Y-45758D01*
X-121638Y-45788D01*
X-121585Y-45821D01*
X-121533Y-45856D01*
X-121483Y-45894D01*
X-121435Y-45935D01*
X-121390Y-45978D01*
X-121346Y-46024D01*
X-121306Y-46072D01*
X-121267Y-46122D01*
X-121232Y-46173D01*
X-121199Y-46227D01*
X-121169Y-46282D01*
X-121142Y-46339D01*
X-121118Y-46397D01*
X-121097Y-46456D01*
X-121079Y-46516D01*
X-121064Y-46578D01*
X-121053Y-46639D01*
X-121045Y-46702D01*
X-121040Y-46764D01*
X-121038Y-46827D01*
Y-48327D01*
X-121040Y-48390D01*
X-121045Y-48452D01*
X-121053Y-48515D01*
X-121064Y-48576D01*
X-121079Y-48638D01*
X-121097Y-48698D01*
X-121118Y-48757D01*
X-121142Y-48815D01*
X-121169Y-48872D01*
X-121199Y-48927D01*
X-121232Y-48981D01*
X-121267Y-49032D01*
X-121306Y-49082D01*
X-121346Y-49130D01*
X-121390Y-49176D01*
X-121435Y-49219D01*
X-121483Y-49260D01*
X-121533Y-49298D01*
X-121585Y-49333D01*
X-121638Y-49366D01*
X-121693Y-49396D01*
X-121750Y-49423D01*
X-121808Y-49447D01*
X-121867Y-49468D01*
X-121927Y-49486D01*
X-121989Y-49501D01*
X-122050Y-49512D01*
X-122113Y-49520D01*
X-122175Y-49525D01*
X-122238Y-49527D01*
X-127238D01*
X-127301Y-49525D01*
X-127364Y-49520D01*
X-127426Y-49512D01*
X-127488Y-49501D01*
X-127549Y-49486D01*
X-127609Y-49468D01*
X-127668Y-49447D01*
X-127726Y-49423D01*
X-127783Y-49396D01*
X-127838Y-49366D01*
X-127892Y-49333D01*
X-127943Y-49298D01*
X-127993Y-49260D01*
X-128041Y-49219D01*
X-128087Y-49176D01*
X-128130Y-49130D01*
X-128171Y-49082D01*
X-128209Y-49032D01*
X-128244Y-48981D01*
X-128277Y-48927D01*
X-128307Y-48872D01*
X-128334Y-48815D01*
X-128358Y-48757D01*
X-128379Y-48698D01*
X-128397Y-48638D01*
X-128412Y-48576D01*
X-128423Y-48515D01*
X-128432Y-48452D01*
X-128436Y-48390D01*
X-128438Y-48327D01*
Y-46827D01*
X-128436Y-46764D01*
X-128432Y-46702D01*
X-128423Y-46639D01*
X-128412Y-46578D01*
X-128397Y-46516D01*
X-128379Y-46456D01*
X-128358Y-46397D01*
X-128334Y-46339D01*
X-128307Y-46282D01*
X-128277Y-46227D01*
X-128244Y-46173D01*
X-128209Y-46122D01*
X-128171Y-46072D01*
X-128130Y-46024D01*
X-128087Y-45978D01*
X-128041Y-45935D01*
X-127993Y-45894D01*
X-127943Y-45856D01*
X-127892Y-45821D01*
X-127838Y-45788D01*
X-127783Y-45758D01*
X-127726Y-45731D01*
X-127668Y-45707D01*
X-127609Y-45686D01*
X-127549Y-45668D01*
X-127488Y-45653D01*
X-127426Y-45642D01*
X-127364Y-45634D01*
X-127301Y-45629D01*
X-127238Y-45627D01*
X-122238D01*
X-122175Y-45629D01*
D02*
G37*
G36*
X-155175D02*
X-155113Y-45634D01*
X-155050Y-45642D01*
X-154989Y-45653D01*
X-154928Y-45668D01*
X-154867Y-45686D01*
X-154808Y-45707D01*
X-154750Y-45731D01*
X-154693Y-45758D01*
X-154638Y-45788D01*
X-154585Y-45821D01*
X-154533Y-45856D01*
X-154483Y-45894D01*
X-154435Y-45935D01*
X-154389Y-45978D01*
X-154346Y-46024D01*
X-154305Y-46072D01*
X-154267Y-46122D01*
X-154232Y-46173D01*
X-154199Y-46227D01*
X-154169Y-46282D01*
X-154142Y-46339D01*
X-154118Y-46397D01*
X-154097Y-46456D01*
X-154079Y-46516D01*
X-154064Y-46578D01*
X-154053Y-46639D01*
X-154045Y-46702D01*
X-154040Y-46764D01*
X-154038Y-46827D01*
Y-48327D01*
X-154040Y-48390D01*
X-154045Y-48452D01*
X-154053Y-48515D01*
X-154064Y-48576D01*
X-154079Y-48638D01*
X-154097Y-48698D01*
X-154118Y-48757D01*
X-154142Y-48815D01*
X-154169Y-48872D01*
X-154199Y-48927D01*
X-154232Y-48981D01*
X-154267Y-49032D01*
X-154305Y-49082D01*
X-154346Y-49130D01*
X-154389Y-49176D01*
X-154435Y-49219D01*
X-154483Y-49260D01*
X-154533Y-49298D01*
X-154585Y-49333D01*
X-154638Y-49366D01*
X-154693Y-49396D01*
X-154750Y-49423D01*
X-154808Y-49447D01*
X-154867Y-49468D01*
X-154928Y-49486D01*
X-154989Y-49501D01*
X-155050Y-49512D01*
X-155113Y-49520D01*
X-155175Y-49525D01*
X-155238Y-49527D01*
X-160238D01*
X-160301Y-49525D01*
X-160364Y-49520D01*
X-160426Y-49512D01*
X-160488Y-49501D01*
X-160549Y-49486D01*
X-160609Y-49468D01*
X-160668Y-49447D01*
X-160726Y-49423D01*
X-160783Y-49396D01*
X-160838Y-49366D01*
X-160892Y-49333D01*
X-160943Y-49298D01*
X-160993Y-49260D01*
X-161041Y-49219D01*
X-161087Y-49176D01*
X-161130Y-49130D01*
X-161171Y-49082D01*
X-161209Y-49032D01*
X-161245Y-48981D01*
X-161277Y-48927D01*
X-161307Y-48872D01*
X-161334Y-48815D01*
X-161358Y-48757D01*
X-161379Y-48698D01*
X-161397Y-48638D01*
X-161412Y-48576D01*
X-161423Y-48515D01*
X-161432Y-48452D01*
X-161436Y-48390D01*
X-161438Y-48327D01*
Y-46827D01*
X-161436Y-46764D01*
X-161432Y-46702D01*
X-161423Y-46639D01*
X-161412Y-46578D01*
X-161397Y-46516D01*
X-161379Y-46456D01*
X-161358Y-46397D01*
X-161334Y-46339D01*
X-161307Y-46282D01*
X-161277Y-46227D01*
X-161245Y-46173D01*
X-161209Y-46122D01*
X-161171Y-46072D01*
X-161130Y-46024D01*
X-161087Y-45978D01*
X-161041Y-45935D01*
X-160993Y-45894D01*
X-160943Y-45856D01*
X-160892Y-45821D01*
X-160838Y-45788D01*
X-160783Y-45758D01*
X-160726Y-45731D01*
X-160668Y-45707D01*
X-160609Y-45686D01*
X-160549Y-45668D01*
X-160488Y-45653D01*
X-160426Y-45642D01*
X-160364Y-45634D01*
X-160301Y-45629D01*
X-160238Y-45627D01*
X-155238D01*
X-155175Y-45629D01*
D02*
G37*
G36*
X-122175Y-50629D02*
X-122113Y-50634D01*
X-122050Y-50642D01*
X-121989Y-50653D01*
X-121927Y-50668D01*
X-121867Y-50686D01*
X-121808Y-50707D01*
X-121750Y-50731D01*
X-121693Y-50758D01*
X-121638Y-50788D01*
X-121585Y-50821D01*
X-121533Y-50856D01*
X-121483Y-50894D01*
X-121435Y-50935D01*
X-121390Y-50978D01*
X-121346Y-51024D01*
X-121306Y-51072D01*
X-121267Y-51122D01*
X-121232Y-51173D01*
X-121199Y-51227D01*
X-121169Y-51282D01*
X-121142Y-51339D01*
X-121118Y-51397D01*
X-121097Y-51456D01*
X-121079Y-51516D01*
X-121064Y-51578D01*
X-121053Y-51639D01*
X-121045Y-51701D01*
X-121040Y-51764D01*
X-121038Y-51827D01*
Y-53327D01*
X-121040Y-53390D01*
X-121045Y-53452D01*
X-121053Y-53515D01*
X-121064Y-53576D01*
X-121079Y-53638D01*
X-121097Y-53698D01*
X-121118Y-53757D01*
X-121142Y-53815D01*
X-121169Y-53872D01*
X-121199Y-53927D01*
X-121232Y-53981D01*
X-121267Y-54032D01*
X-121306Y-54082D01*
X-121346Y-54130D01*
X-121390Y-54176D01*
X-121435Y-54219D01*
X-121483Y-54260D01*
X-121533Y-54298D01*
X-121585Y-54333D01*
X-121638Y-54366D01*
X-121693Y-54396D01*
X-121750Y-54423D01*
X-121808Y-54447D01*
X-121867Y-54468D01*
X-121927Y-54486D01*
X-121989Y-54501D01*
X-122050Y-54512D01*
X-122113Y-54520D01*
X-122175Y-54525D01*
X-122238Y-54527D01*
X-127238D01*
X-127301Y-54525D01*
X-127364Y-54520D01*
X-127426Y-54512D01*
X-127488Y-54501D01*
X-127549Y-54486D01*
X-127609Y-54468D01*
X-127668Y-54447D01*
X-127726Y-54423D01*
X-127783Y-54396D01*
X-127838Y-54366D01*
X-127892Y-54333D01*
X-127943Y-54298D01*
X-127993Y-54260D01*
X-128041Y-54219D01*
X-128087Y-54176D01*
X-128130Y-54130D01*
X-128171Y-54082D01*
X-128209Y-54032D01*
X-128244Y-53981D01*
X-128277Y-53927D01*
X-128307Y-53872D01*
X-128334Y-53815D01*
X-128358Y-53757D01*
X-128379Y-53698D01*
X-128397Y-53638D01*
X-128412Y-53576D01*
X-128423Y-53515D01*
X-128432Y-53452D01*
X-128436Y-53390D01*
X-128438Y-53327D01*
Y-51827D01*
X-128436Y-51764D01*
X-128432Y-51701D01*
X-128423Y-51639D01*
X-128412Y-51578D01*
X-128397Y-51516D01*
X-128379Y-51456D01*
X-128358Y-51397D01*
X-128334Y-51339D01*
X-128307Y-51282D01*
X-128277Y-51227D01*
X-128244Y-51173D01*
X-128209Y-51122D01*
X-128171Y-51072D01*
X-128130Y-51024D01*
X-128087Y-50978D01*
X-128041Y-50935D01*
X-127993Y-50894D01*
X-127943Y-50856D01*
X-127892Y-50821D01*
X-127838Y-50788D01*
X-127783Y-50758D01*
X-127726Y-50731D01*
X-127668Y-50707D01*
X-127609Y-50686D01*
X-127549Y-50668D01*
X-127488Y-50653D01*
X-127426Y-50642D01*
X-127364Y-50634D01*
X-127301Y-50629D01*
X-127238Y-50627D01*
X-122238D01*
X-122175Y-50629D01*
D02*
G37*
G36*
X-155175D02*
X-155113Y-50634D01*
X-155050Y-50642D01*
X-154989Y-50653D01*
X-154928Y-50668D01*
X-154867Y-50686D01*
X-154808Y-50707D01*
X-154750Y-50731D01*
X-154693Y-50758D01*
X-154638Y-50788D01*
X-154585Y-50821D01*
X-154533Y-50856D01*
X-154483Y-50894D01*
X-154435Y-50935D01*
X-154389Y-50978D01*
X-154346Y-51024D01*
X-154305Y-51072D01*
X-154267Y-51122D01*
X-154232Y-51173D01*
X-154199Y-51227D01*
X-154169Y-51282D01*
X-154142Y-51339D01*
X-154118Y-51397D01*
X-154097Y-51456D01*
X-154079Y-51516D01*
X-154064Y-51578D01*
X-154053Y-51639D01*
X-154045Y-51701D01*
X-154040Y-51764D01*
X-154038Y-51827D01*
Y-53327D01*
X-154040Y-53390D01*
X-154045Y-53452D01*
X-154053Y-53515D01*
X-154064Y-53576D01*
X-154079Y-53638D01*
X-154097Y-53698D01*
X-154118Y-53757D01*
X-154142Y-53815D01*
X-154169Y-53872D01*
X-154199Y-53927D01*
X-154232Y-53981D01*
X-154267Y-54032D01*
X-154305Y-54082D01*
X-154346Y-54130D01*
X-154389Y-54176D01*
X-154435Y-54219D01*
X-154483Y-54260D01*
X-154533Y-54298D01*
X-154585Y-54333D01*
X-154638Y-54366D01*
X-154693Y-54396D01*
X-154750Y-54423D01*
X-154808Y-54447D01*
X-154867Y-54468D01*
X-154928Y-54486D01*
X-154989Y-54501D01*
X-155050Y-54512D01*
X-155113Y-54520D01*
X-155175Y-54525D01*
X-155238Y-54527D01*
X-160238D01*
X-160301Y-54525D01*
X-160364Y-54520D01*
X-160426Y-54512D01*
X-160488Y-54501D01*
X-160549Y-54486D01*
X-160609Y-54468D01*
X-160668Y-54447D01*
X-160726Y-54423D01*
X-160783Y-54396D01*
X-160838Y-54366D01*
X-160892Y-54333D01*
X-160943Y-54298D01*
X-160993Y-54260D01*
X-161041Y-54219D01*
X-161087Y-54176D01*
X-161130Y-54130D01*
X-161171Y-54082D01*
X-161209Y-54032D01*
X-161245Y-53981D01*
X-161277Y-53927D01*
X-161307Y-53872D01*
X-161334Y-53815D01*
X-161358Y-53757D01*
X-161379Y-53698D01*
X-161397Y-53638D01*
X-161412Y-53576D01*
X-161423Y-53515D01*
X-161432Y-53452D01*
X-161436Y-53390D01*
X-161438Y-53327D01*
Y-51827D01*
X-161436Y-51764D01*
X-161432Y-51701D01*
X-161423Y-51639D01*
X-161412Y-51578D01*
X-161397Y-51516D01*
X-161379Y-51456D01*
X-161358Y-51397D01*
X-161334Y-51339D01*
X-161307Y-51282D01*
X-161277Y-51227D01*
X-161245Y-51173D01*
X-161209Y-51122D01*
X-161171Y-51072D01*
X-161130Y-51024D01*
X-161087Y-50978D01*
X-161041Y-50935D01*
X-160993Y-50894D01*
X-160943Y-50856D01*
X-160892Y-50821D01*
X-160838Y-50788D01*
X-160783Y-50758D01*
X-160726Y-50731D01*
X-160668Y-50707D01*
X-160609Y-50686D01*
X-160549Y-50668D01*
X-160488Y-50653D01*
X-160426Y-50642D01*
X-160364Y-50634D01*
X-160301Y-50629D01*
X-160238Y-50627D01*
X-155238D01*
X-155175Y-50629D01*
D02*
G37*
G36*
X-122175Y-55629D02*
X-122113Y-55634D01*
X-122050Y-55642D01*
X-121989Y-55653D01*
X-121927Y-55668D01*
X-121867Y-55686D01*
X-121808Y-55707D01*
X-121750Y-55731D01*
X-121693Y-55758D01*
X-121638Y-55788D01*
X-121585Y-55821D01*
X-121533Y-55856D01*
X-121483Y-55894D01*
X-121435Y-55935D01*
X-121390Y-55978D01*
X-121346Y-56024D01*
X-121306Y-56072D01*
X-121267Y-56122D01*
X-121232Y-56173D01*
X-121199Y-56227D01*
X-121169Y-56282D01*
X-121142Y-56339D01*
X-121118Y-56397D01*
X-121097Y-56456D01*
X-121079Y-56516D01*
X-121064Y-56578D01*
X-121053Y-56639D01*
X-121045Y-56702D01*
X-121040Y-56764D01*
X-121038Y-56827D01*
Y-58327D01*
X-121040Y-58390D01*
X-121045Y-58452D01*
X-121053Y-58515D01*
X-121064Y-58576D01*
X-121079Y-58638D01*
X-121097Y-58698D01*
X-121118Y-58757D01*
X-121142Y-58815D01*
X-121169Y-58872D01*
X-121199Y-58927D01*
X-121232Y-58981D01*
X-121267Y-59032D01*
X-121306Y-59082D01*
X-121346Y-59130D01*
X-121390Y-59176D01*
X-121435Y-59219D01*
X-121483Y-59260D01*
X-121533Y-59298D01*
X-121585Y-59333D01*
X-121638Y-59366D01*
X-121693Y-59396D01*
X-121750Y-59423D01*
X-121808Y-59447D01*
X-121867Y-59468D01*
X-121927Y-59486D01*
X-121989Y-59501D01*
X-122050Y-59512D01*
X-122113Y-59520D01*
X-122175Y-59525D01*
X-122238Y-59527D01*
X-127238D01*
X-127301Y-59525D01*
X-127364Y-59520D01*
X-127426Y-59512D01*
X-127488Y-59501D01*
X-127549Y-59486D01*
X-127609Y-59468D01*
X-127668Y-59447D01*
X-127726Y-59423D01*
X-127783Y-59396D01*
X-127838Y-59366D01*
X-127892Y-59333D01*
X-127943Y-59298D01*
X-127993Y-59260D01*
X-128041Y-59219D01*
X-128087Y-59176D01*
X-128130Y-59130D01*
X-128171Y-59082D01*
X-128209Y-59032D01*
X-128244Y-58981D01*
X-128277Y-58927D01*
X-128307Y-58872D01*
X-128334Y-58815D01*
X-128358Y-58757D01*
X-128379Y-58698D01*
X-128397Y-58638D01*
X-128412Y-58576D01*
X-128423Y-58515D01*
X-128432Y-58452D01*
X-128436Y-58390D01*
X-128438Y-58327D01*
Y-56827D01*
X-128436Y-56764D01*
X-128432Y-56702D01*
X-128423Y-56639D01*
X-128412Y-56578D01*
X-128397Y-56516D01*
X-128379Y-56456D01*
X-128358Y-56397D01*
X-128334Y-56339D01*
X-128307Y-56282D01*
X-128277Y-56227D01*
X-128244Y-56173D01*
X-128209Y-56122D01*
X-128171Y-56072D01*
X-128130Y-56024D01*
X-128087Y-55978D01*
X-128041Y-55935D01*
X-127993Y-55894D01*
X-127943Y-55856D01*
X-127892Y-55821D01*
X-127838Y-55788D01*
X-127783Y-55758D01*
X-127726Y-55731D01*
X-127668Y-55707D01*
X-127609Y-55686D01*
X-127549Y-55668D01*
X-127488Y-55653D01*
X-127426Y-55642D01*
X-127364Y-55634D01*
X-127301Y-55629D01*
X-127238Y-55627D01*
X-122238D01*
X-122175Y-55629D01*
D02*
G37*
G36*
X-155175D02*
X-155113Y-55634D01*
X-155050Y-55642D01*
X-154989Y-55653D01*
X-154928Y-55668D01*
X-154867Y-55686D01*
X-154808Y-55707D01*
X-154750Y-55731D01*
X-154693Y-55758D01*
X-154638Y-55788D01*
X-154585Y-55821D01*
X-154533Y-55856D01*
X-154483Y-55894D01*
X-154435Y-55935D01*
X-154389Y-55978D01*
X-154346Y-56024D01*
X-154305Y-56072D01*
X-154267Y-56122D01*
X-154232Y-56173D01*
X-154199Y-56227D01*
X-154169Y-56282D01*
X-154142Y-56339D01*
X-154118Y-56397D01*
X-154097Y-56456D01*
X-154079Y-56516D01*
X-154064Y-56578D01*
X-154053Y-56639D01*
X-154045Y-56702D01*
X-154040Y-56764D01*
X-154038Y-56827D01*
Y-58327D01*
X-154040Y-58390D01*
X-154045Y-58452D01*
X-154053Y-58515D01*
X-154064Y-58576D01*
X-154079Y-58638D01*
X-154097Y-58698D01*
X-154118Y-58757D01*
X-154142Y-58815D01*
X-154169Y-58872D01*
X-154199Y-58927D01*
X-154232Y-58981D01*
X-154267Y-59032D01*
X-154305Y-59082D01*
X-154346Y-59130D01*
X-154389Y-59176D01*
X-154435Y-59219D01*
X-154483Y-59260D01*
X-154533Y-59298D01*
X-154585Y-59333D01*
X-154638Y-59366D01*
X-154693Y-59396D01*
X-154750Y-59423D01*
X-154808Y-59447D01*
X-154867Y-59468D01*
X-154928Y-59486D01*
X-154989Y-59501D01*
X-155050Y-59512D01*
X-155113Y-59520D01*
X-155175Y-59525D01*
X-155238Y-59527D01*
X-160238D01*
X-160301Y-59525D01*
X-160364Y-59520D01*
X-160426Y-59512D01*
X-160488Y-59501D01*
X-160549Y-59486D01*
X-160609Y-59468D01*
X-160668Y-59447D01*
X-160726Y-59423D01*
X-160783Y-59396D01*
X-160838Y-59366D01*
X-160892Y-59333D01*
X-160943Y-59298D01*
X-160993Y-59260D01*
X-161041Y-59219D01*
X-161087Y-59176D01*
X-161130Y-59130D01*
X-161171Y-59082D01*
X-161209Y-59032D01*
X-161245Y-58981D01*
X-161277Y-58927D01*
X-161307Y-58872D01*
X-161334Y-58815D01*
X-161358Y-58757D01*
X-161379Y-58698D01*
X-161397Y-58638D01*
X-161412Y-58576D01*
X-161423Y-58515D01*
X-161432Y-58452D01*
X-161436Y-58390D01*
X-161438Y-58327D01*
Y-56827D01*
X-161436Y-56764D01*
X-161432Y-56702D01*
X-161423Y-56639D01*
X-161412Y-56578D01*
X-161397Y-56516D01*
X-161379Y-56456D01*
X-161358Y-56397D01*
X-161334Y-56339D01*
X-161307Y-56282D01*
X-161277Y-56227D01*
X-161245Y-56173D01*
X-161209Y-56122D01*
X-161171Y-56072D01*
X-161130Y-56024D01*
X-161087Y-55978D01*
X-161041Y-55935D01*
X-160993Y-55894D01*
X-160943Y-55856D01*
X-160892Y-55821D01*
X-160838Y-55788D01*
X-160783Y-55758D01*
X-160726Y-55731D01*
X-160668Y-55707D01*
X-160609Y-55686D01*
X-160549Y-55668D01*
X-160488Y-55653D01*
X-160426Y-55642D01*
X-160364Y-55634D01*
X-160301Y-55629D01*
X-160238Y-55627D01*
X-155238D01*
X-155175Y-55629D01*
D02*
G37*
G36*
X-122175Y-60629D02*
X-122113Y-60634D01*
X-122050Y-60642D01*
X-121989Y-60653D01*
X-121927Y-60668D01*
X-121867Y-60686D01*
X-121808Y-60707D01*
X-121750Y-60731D01*
X-121693Y-60758D01*
X-121638Y-60788D01*
X-121585Y-60821D01*
X-121533Y-60856D01*
X-121483Y-60894D01*
X-121435Y-60935D01*
X-121390Y-60978D01*
X-121346Y-61024D01*
X-121306Y-61072D01*
X-121267Y-61122D01*
X-121232Y-61173D01*
X-121199Y-61227D01*
X-121169Y-61282D01*
X-121142Y-61339D01*
X-121118Y-61397D01*
X-121097Y-61456D01*
X-121079Y-61516D01*
X-121064Y-61578D01*
X-121053Y-61639D01*
X-121045Y-61702D01*
X-121040Y-61764D01*
X-121038Y-61827D01*
Y-63327D01*
X-121040Y-63390D01*
X-121045Y-63452D01*
X-121053Y-63515D01*
X-121064Y-63576D01*
X-121079Y-63638D01*
X-121097Y-63698D01*
X-121118Y-63757D01*
X-121142Y-63815D01*
X-121169Y-63872D01*
X-121199Y-63927D01*
X-121232Y-63981D01*
X-121267Y-64032D01*
X-121306Y-64082D01*
X-121346Y-64130D01*
X-121390Y-64176D01*
X-121435Y-64219D01*
X-121483Y-64260D01*
X-121533Y-64298D01*
X-121585Y-64333D01*
X-121638Y-64366D01*
X-121693Y-64396D01*
X-121750Y-64423D01*
X-121808Y-64447D01*
X-121867Y-64468D01*
X-121927Y-64486D01*
X-121989Y-64501D01*
X-122050Y-64512D01*
X-122113Y-64520D01*
X-122175Y-64525D01*
X-122238Y-64527D01*
X-127238D01*
X-127301Y-64525D01*
X-127364Y-64520D01*
X-127426Y-64512D01*
X-127488Y-64501D01*
X-127549Y-64486D01*
X-127609Y-64468D01*
X-127668Y-64447D01*
X-127726Y-64423D01*
X-127783Y-64396D01*
X-127838Y-64366D01*
X-127892Y-64333D01*
X-127943Y-64298D01*
X-127993Y-64260D01*
X-128041Y-64219D01*
X-128087Y-64176D01*
X-128130Y-64130D01*
X-128171Y-64082D01*
X-128209Y-64032D01*
X-128244Y-63981D01*
X-128277Y-63927D01*
X-128307Y-63872D01*
X-128334Y-63815D01*
X-128358Y-63757D01*
X-128379Y-63698D01*
X-128397Y-63638D01*
X-128412Y-63576D01*
X-128423Y-63515D01*
X-128432Y-63452D01*
X-128436Y-63390D01*
X-128438Y-63327D01*
Y-61827D01*
X-128436Y-61764D01*
X-128432Y-61702D01*
X-128423Y-61639D01*
X-128412Y-61578D01*
X-128397Y-61516D01*
X-128379Y-61456D01*
X-128358Y-61397D01*
X-128334Y-61339D01*
X-128307Y-61282D01*
X-128277Y-61227D01*
X-128244Y-61173D01*
X-128209Y-61122D01*
X-128171Y-61072D01*
X-128130Y-61024D01*
X-128087Y-60978D01*
X-128041Y-60935D01*
X-127993Y-60894D01*
X-127943Y-60856D01*
X-127892Y-60821D01*
X-127838Y-60788D01*
X-127783Y-60758D01*
X-127726Y-60731D01*
X-127668Y-60707D01*
X-127609Y-60686D01*
X-127549Y-60668D01*
X-127488Y-60653D01*
X-127426Y-60642D01*
X-127364Y-60634D01*
X-127301Y-60629D01*
X-127238Y-60627D01*
X-122238D01*
X-122175Y-60629D01*
D02*
G37*
G36*
X-155175D02*
X-155113Y-60634D01*
X-155050Y-60642D01*
X-154989Y-60653D01*
X-154928Y-60668D01*
X-154867Y-60686D01*
X-154808Y-60707D01*
X-154750Y-60731D01*
X-154693Y-60758D01*
X-154638Y-60788D01*
X-154585Y-60821D01*
X-154533Y-60856D01*
X-154483Y-60894D01*
X-154435Y-60935D01*
X-154389Y-60978D01*
X-154346Y-61024D01*
X-154305Y-61072D01*
X-154267Y-61122D01*
X-154232Y-61173D01*
X-154199Y-61227D01*
X-154169Y-61282D01*
X-154142Y-61339D01*
X-154118Y-61397D01*
X-154097Y-61456D01*
X-154079Y-61516D01*
X-154064Y-61578D01*
X-154053Y-61639D01*
X-154045Y-61702D01*
X-154040Y-61764D01*
X-154038Y-61827D01*
Y-63327D01*
X-154040Y-63390D01*
X-154045Y-63452D01*
X-154053Y-63515D01*
X-154064Y-63576D01*
X-154079Y-63638D01*
X-154097Y-63698D01*
X-154118Y-63757D01*
X-154142Y-63815D01*
X-154169Y-63872D01*
X-154199Y-63927D01*
X-154232Y-63981D01*
X-154267Y-64032D01*
X-154305Y-64082D01*
X-154346Y-64130D01*
X-154389Y-64176D01*
X-154435Y-64219D01*
X-154483Y-64260D01*
X-154533Y-64298D01*
X-154585Y-64333D01*
X-154638Y-64366D01*
X-154693Y-64396D01*
X-154750Y-64423D01*
X-154808Y-64447D01*
X-154867Y-64468D01*
X-154928Y-64486D01*
X-154989Y-64501D01*
X-155050Y-64512D01*
X-155113Y-64520D01*
X-155175Y-64525D01*
X-155238Y-64527D01*
X-160238D01*
X-160301Y-64525D01*
X-160364Y-64520D01*
X-160426Y-64512D01*
X-160488Y-64501D01*
X-160549Y-64486D01*
X-160609Y-64468D01*
X-160668Y-64447D01*
X-160726Y-64423D01*
X-160783Y-64396D01*
X-160838Y-64366D01*
X-160892Y-64333D01*
X-160943Y-64298D01*
X-160993Y-64260D01*
X-161041Y-64219D01*
X-161087Y-64176D01*
X-161130Y-64130D01*
X-161171Y-64082D01*
X-161209Y-64032D01*
X-161245Y-63981D01*
X-161277Y-63927D01*
X-161307Y-63872D01*
X-161334Y-63815D01*
X-161358Y-63757D01*
X-161379Y-63698D01*
X-161397Y-63638D01*
X-161412Y-63576D01*
X-161423Y-63515D01*
X-161432Y-63452D01*
X-161436Y-63390D01*
X-161438Y-63327D01*
Y-61827D01*
X-161436Y-61764D01*
X-161432Y-61702D01*
X-161423Y-61639D01*
X-161412Y-61578D01*
X-161397Y-61516D01*
X-161379Y-61456D01*
X-161358Y-61397D01*
X-161334Y-61339D01*
X-161307Y-61282D01*
X-161277Y-61227D01*
X-161245Y-61173D01*
X-161209Y-61122D01*
X-161171Y-61072D01*
X-161130Y-61024D01*
X-161087Y-60978D01*
X-161041Y-60935D01*
X-160993Y-60894D01*
X-160943Y-60856D01*
X-160892Y-60821D01*
X-160838Y-60788D01*
X-160783Y-60758D01*
X-160726Y-60731D01*
X-160668Y-60707D01*
X-160609Y-60686D01*
X-160549Y-60668D01*
X-160488Y-60653D01*
X-160426Y-60642D01*
X-160364Y-60634D01*
X-160301Y-60629D01*
X-160238Y-60627D01*
X-155238D01*
X-155175Y-60629D01*
D02*
G37*
G36*
X-122175Y-65629D02*
X-122113Y-65634D01*
X-122050Y-65642D01*
X-121989Y-65653D01*
X-121927Y-65668D01*
X-121867Y-65686D01*
X-121808Y-65707D01*
X-121750Y-65731D01*
X-121693Y-65758D01*
X-121638Y-65788D01*
X-121585Y-65821D01*
X-121533Y-65856D01*
X-121483Y-65894D01*
X-121435Y-65935D01*
X-121390Y-65978D01*
X-121346Y-66024D01*
X-121306Y-66072D01*
X-121267Y-66122D01*
X-121232Y-66173D01*
X-121199Y-66227D01*
X-121169Y-66282D01*
X-121142Y-66339D01*
X-121118Y-66397D01*
X-121097Y-66456D01*
X-121079Y-66516D01*
X-121064Y-66578D01*
X-121053Y-66639D01*
X-121045Y-66702D01*
X-121040Y-66764D01*
X-121038Y-66827D01*
Y-68327D01*
X-121040Y-68390D01*
X-121045Y-68452D01*
X-121053Y-68515D01*
X-121064Y-68576D01*
X-121079Y-68638D01*
X-121097Y-68698D01*
X-121118Y-68757D01*
X-121142Y-68815D01*
X-121169Y-68872D01*
X-121199Y-68927D01*
X-121232Y-68981D01*
X-121267Y-69032D01*
X-121306Y-69082D01*
X-121346Y-69130D01*
X-121390Y-69176D01*
X-121435Y-69219D01*
X-121483Y-69260D01*
X-121533Y-69298D01*
X-121585Y-69333D01*
X-121638Y-69366D01*
X-121693Y-69396D01*
X-121750Y-69423D01*
X-121808Y-69447D01*
X-121867Y-69468D01*
X-121927Y-69486D01*
X-121989Y-69501D01*
X-122050Y-69512D01*
X-122113Y-69520D01*
X-122175Y-69525D01*
X-122238Y-69527D01*
X-127238D01*
X-127301Y-69525D01*
X-127364Y-69520D01*
X-127426Y-69512D01*
X-127488Y-69501D01*
X-127549Y-69486D01*
X-127609Y-69468D01*
X-127668Y-69447D01*
X-127726Y-69423D01*
X-127783Y-69396D01*
X-127838Y-69366D01*
X-127892Y-69333D01*
X-127943Y-69298D01*
X-127993Y-69260D01*
X-128041Y-69219D01*
X-128087Y-69176D01*
X-128130Y-69130D01*
X-128171Y-69082D01*
X-128209Y-69032D01*
X-128244Y-68981D01*
X-128277Y-68927D01*
X-128307Y-68872D01*
X-128334Y-68815D01*
X-128358Y-68757D01*
X-128379Y-68698D01*
X-128397Y-68638D01*
X-128412Y-68576D01*
X-128423Y-68515D01*
X-128432Y-68452D01*
X-128436Y-68390D01*
X-128438Y-68327D01*
Y-66827D01*
X-128436Y-66764D01*
X-128432Y-66702D01*
X-128423Y-66639D01*
X-128412Y-66578D01*
X-128397Y-66516D01*
X-128379Y-66456D01*
X-128358Y-66397D01*
X-128334Y-66339D01*
X-128307Y-66282D01*
X-128277Y-66227D01*
X-128244Y-66173D01*
X-128209Y-66122D01*
X-128171Y-66072D01*
X-128130Y-66024D01*
X-128087Y-65978D01*
X-128041Y-65935D01*
X-127993Y-65894D01*
X-127943Y-65856D01*
X-127892Y-65821D01*
X-127838Y-65788D01*
X-127783Y-65758D01*
X-127726Y-65731D01*
X-127668Y-65707D01*
X-127609Y-65686D01*
X-127549Y-65668D01*
X-127488Y-65653D01*
X-127426Y-65642D01*
X-127364Y-65634D01*
X-127301Y-65629D01*
X-127238Y-65627D01*
X-122238D01*
X-122175Y-65629D01*
D02*
G37*
G36*
X-155175D02*
X-155113Y-65634D01*
X-155050Y-65642D01*
X-154989Y-65653D01*
X-154928Y-65668D01*
X-154867Y-65686D01*
X-154808Y-65707D01*
X-154750Y-65731D01*
X-154693Y-65758D01*
X-154638Y-65788D01*
X-154585Y-65821D01*
X-154533Y-65856D01*
X-154483Y-65894D01*
X-154435Y-65935D01*
X-154389Y-65978D01*
X-154346Y-66024D01*
X-154305Y-66072D01*
X-154267Y-66122D01*
X-154232Y-66173D01*
X-154199Y-66227D01*
X-154169Y-66282D01*
X-154142Y-66339D01*
X-154118Y-66397D01*
X-154097Y-66456D01*
X-154079Y-66516D01*
X-154064Y-66578D01*
X-154053Y-66639D01*
X-154045Y-66702D01*
X-154040Y-66764D01*
X-154038Y-66827D01*
Y-68327D01*
X-154040Y-68390D01*
X-154045Y-68452D01*
X-154053Y-68515D01*
X-154064Y-68576D01*
X-154079Y-68638D01*
X-154097Y-68698D01*
X-154118Y-68757D01*
X-154142Y-68815D01*
X-154169Y-68872D01*
X-154199Y-68927D01*
X-154232Y-68981D01*
X-154267Y-69032D01*
X-154305Y-69082D01*
X-154346Y-69130D01*
X-154389Y-69176D01*
X-154435Y-69219D01*
X-154483Y-69260D01*
X-154533Y-69298D01*
X-154585Y-69333D01*
X-154638Y-69366D01*
X-154693Y-69396D01*
X-154750Y-69423D01*
X-154808Y-69447D01*
X-154867Y-69468D01*
X-154928Y-69486D01*
X-154989Y-69501D01*
X-155050Y-69512D01*
X-155113Y-69520D01*
X-155175Y-69525D01*
X-155238Y-69527D01*
X-160238D01*
X-160301Y-69525D01*
X-160364Y-69520D01*
X-160426Y-69512D01*
X-160488Y-69501D01*
X-160549Y-69486D01*
X-160609Y-69468D01*
X-160668Y-69447D01*
X-160726Y-69423D01*
X-160783Y-69396D01*
X-160838Y-69366D01*
X-160892Y-69333D01*
X-160943Y-69298D01*
X-160993Y-69260D01*
X-161041Y-69219D01*
X-161087Y-69176D01*
X-161130Y-69130D01*
X-161171Y-69082D01*
X-161209Y-69032D01*
X-161245Y-68981D01*
X-161277Y-68927D01*
X-161307Y-68872D01*
X-161334Y-68815D01*
X-161358Y-68757D01*
X-161379Y-68698D01*
X-161397Y-68638D01*
X-161412Y-68576D01*
X-161423Y-68515D01*
X-161432Y-68452D01*
X-161436Y-68390D01*
X-161438Y-68327D01*
Y-66827D01*
X-161436Y-66764D01*
X-161432Y-66702D01*
X-161423Y-66639D01*
X-161412Y-66578D01*
X-161397Y-66516D01*
X-161379Y-66456D01*
X-161358Y-66397D01*
X-161334Y-66339D01*
X-161307Y-66282D01*
X-161277Y-66227D01*
X-161245Y-66173D01*
X-161209Y-66122D01*
X-161171Y-66072D01*
X-161130Y-66024D01*
X-161087Y-65978D01*
X-161041Y-65935D01*
X-160993Y-65894D01*
X-160943Y-65856D01*
X-160892Y-65821D01*
X-160838Y-65788D01*
X-160783Y-65758D01*
X-160726Y-65731D01*
X-160668Y-65707D01*
X-160609Y-65686D01*
X-160549Y-65668D01*
X-160488Y-65653D01*
X-160426Y-65642D01*
X-160364Y-65634D01*
X-160301Y-65629D01*
X-160238Y-65627D01*
X-155238D01*
X-155175Y-65629D01*
D02*
G37*
G36*
X-122175Y-70629D02*
X-122113Y-70634D01*
X-122050Y-70642D01*
X-121989Y-70653D01*
X-121927Y-70668D01*
X-121867Y-70686D01*
X-121808Y-70707D01*
X-121750Y-70731D01*
X-121693Y-70758D01*
X-121638Y-70788D01*
X-121585Y-70821D01*
X-121533Y-70856D01*
X-121483Y-70894D01*
X-121435Y-70935D01*
X-121390Y-70978D01*
X-121346Y-71024D01*
X-121306Y-71072D01*
X-121267Y-71122D01*
X-121232Y-71173D01*
X-121199Y-71227D01*
X-121169Y-71282D01*
X-121142Y-71339D01*
X-121118Y-71397D01*
X-121097Y-71456D01*
X-121079Y-71516D01*
X-121064Y-71578D01*
X-121053Y-71639D01*
X-121045Y-71702D01*
X-121040Y-71764D01*
X-121038Y-71827D01*
Y-73327D01*
X-121040Y-73390D01*
X-121045Y-73452D01*
X-121053Y-73515D01*
X-121064Y-73576D01*
X-121079Y-73638D01*
X-121097Y-73698D01*
X-121118Y-73757D01*
X-121142Y-73815D01*
X-121169Y-73872D01*
X-121199Y-73927D01*
X-121232Y-73981D01*
X-121267Y-74032D01*
X-121306Y-74082D01*
X-121346Y-74130D01*
X-121390Y-74176D01*
X-121435Y-74219D01*
X-121483Y-74260D01*
X-121533Y-74298D01*
X-121585Y-74333D01*
X-121638Y-74366D01*
X-121693Y-74396D01*
X-121750Y-74423D01*
X-121808Y-74447D01*
X-121867Y-74468D01*
X-121927Y-74486D01*
X-121989Y-74501D01*
X-122050Y-74512D01*
X-122113Y-74520D01*
X-122175Y-74525D01*
X-122238Y-74527D01*
X-127238D01*
X-127301Y-74525D01*
X-127364Y-74520D01*
X-127426Y-74512D01*
X-127488Y-74501D01*
X-127549Y-74486D01*
X-127609Y-74468D01*
X-127668Y-74447D01*
X-127726Y-74423D01*
X-127783Y-74396D01*
X-127838Y-74366D01*
X-127892Y-74333D01*
X-127943Y-74298D01*
X-127993Y-74260D01*
X-128041Y-74219D01*
X-128087Y-74176D01*
X-128130Y-74130D01*
X-128171Y-74082D01*
X-128209Y-74032D01*
X-128244Y-73981D01*
X-128277Y-73927D01*
X-128307Y-73872D01*
X-128334Y-73815D01*
X-128358Y-73757D01*
X-128379Y-73698D01*
X-128397Y-73638D01*
X-128412Y-73576D01*
X-128423Y-73515D01*
X-128432Y-73452D01*
X-128436Y-73390D01*
X-128438Y-73327D01*
Y-71827D01*
X-128436Y-71764D01*
X-128432Y-71702D01*
X-128423Y-71639D01*
X-128412Y-71578D01*
X-128397Y-71516D01*
X-128379Y-71456D01*
X-128358Y-71397D01*
X-128334Y-71339D01*
X-128307Y-71282D01*
X-128277Y-71227D01*
X-128244Y-71173D01*
X-128209Y-71122D01*
X-128171Y-71072D01*
X-128130Y-71024D01*
X-128087Y-70978D01*
X-128041Y-70935D01*
X-127993Y-70894D01*
X-127943Y-70856D01*
X-127892Y-70821D01*
X-127838Y-70788D01*
X-127783Y-70758D01*
X-127726Y-70731D01*
X-127668Y-70707D01*
X-127609Y-70686D01*
X-127549Y-70668D01*
X-127488Y-70653D01*
X-127426Y-70642D01*
X-127364Y-70634D01*
X-127301Y-70629D01*
X-127238Y-70627D01*
X-122238D01*
X-122175Y-70629D01*
D02*
G37*
G36*
X-155175D02*
X-155113Y-70634D01*
X-155050Y-70642D01*
X-154989Y-70653D01*
X-154928Y-70668D01*
X-154867Y-70686D01*
X-154808Y-70707D01*
X-154750Y-70731D01*
X-154693Y-70758D01*
X-154638Y-70788D01*
X-154585Y-70821D01*
X-154533Y-70856D01*
X-154483Y-70894D01*
X-154435Y-70935D01*
X-154389Y-70978D01*
X-154346Y-71024D01*
X-154305Y-71072D01*
X-154267Y-71122D01*
X-154232Y-71173D01*
X-154199Y-71227D01*
X-154169Y-71282D01*
X-154142Y-71339D01*
X-154118Y-71397D01*
X-154097Y-71456D01*
X-154079Y-71516D01*
X-154064Y-71578D01*
X-154053Y-71639D01*
X-154045Y-71702D01*
X-154040Y-71764D01*
X-154038Y-71827D01*
Y-73327D01*
X-154040Y-73390D01*
X-154045Y-73452D01*
X-154053Y-73515D01*
X-154064Y-73576D01*
X-154079Y-73638D01*
X-154097Y-73698D01*
X-154118Y-73757D01*
X-154142Y-73815D01*
X-154169Y-73872D01*
X-154199Y-73927D01*
X-154232Y-73981D01*
X-154267Y-74032D01*
X-154305Y-74082D01*
X-154346Y-74130D01*
X-154389Y-74176D01*
X-154435Y-74219D01*
X-154483Y-74260D01*
X-154533Y-74298D01*
X-154585Y-74333D01*
X-154638Y-74366D01*
X-154693Y-74396D01*
X-154750Y-74423D01*
X-154808Y-74447D01*
X-154867Y-74468D01*
X-154928Y-74486D01*
X-154989Y-74501D01*
X-155050Y-74512D01*
X-155113Y-74520D01*
X-155175Y-74525D01*
X-155238Y-74527D01*
X-160238D01*
X-160301Y-74525D01*
X-160364Y-74520D01*
X-160426Y-74512D01*
X-160488Y-74501D01*
X-160549Y-74486D01*
X-160609Y-74468D01*
X-160668Y-74447D01*
X-160726Y-74423D01*
X-160783Y-74396D01*
X-160838Y-74366D01*
X-160892Y-74333D01*
X-160943Y-74298D01*
X-160993Y-74260D01*
X-161041Y-74219D01*
X-161087Y-74176D01*
X-161130Y-74130D01*
X-161171Y-74082D01*
X-161209Y-74032D01*
X-161245Y-73981D01*
X-161277Y-73927D01*
X-161307Y-73872D01*
X-161334Y-73815D01*
X-161358Y-73757D01*
X-161379Y-73698D01*
X-161397Y-73638D01*
X-161412Y-73576D01*
X-161423Y-73515D01*
X-161432Y-73452D01*
X-161436Y-73390D01*
X-161438Y-73327D01*
Y-71827D01*
X-161436Y-71764D01*
X-161432Y-71702D01*
X-161423Y-71639D01*
X-161412Y-71578D01*
X-161397Y-71516D01*
X-161379Y-71456D01*
X-161358Y-71397D01*
X-161334Y-71339D01*
X-161307Y-71282D01*
X-161277Y-71227D01*
X-161245Y-71173D01*
X-161209Y-71122D01*
X-161171Y-71072D01*
X-161130Y-71024D01*
X-161087Y-70978D01*
X-161041Y-70935D01*
X-160993Y-70894D01*
X-160943Y-70856D01*
X-160892Y-70821D01*
X-160838Y-70788D01*
X-160783Y-70758D01*
X-160726Y-70731D01*
X-160668Y-70707D01*
X-160609Y-70686D01*
X-160549Y-70668D01*
X-160488Y-70653D01*
X-160426Y-70642D01*
X-160364Y-70634D01*
X-160301Y-70629D01*
X-160238Y-70627D01*
X-155238D01*
X-155175Y-70629D01*
D02*
G37*
G36*
X-122175Y-75629D02*
X-122113Y-75634D01*
X-122050Y-75642D01*
X-121989Y-75653D01*
X-121927Y-75668D01*
X-121867Y-75686D01*
X-121808Y-75707D01*
X-121750Y-75731D01*
X-121693Y-75758D01*
X-121638Y-75788D01*
X-121585Y-75821D01*
X-121533Y-75856D01*
X-121483Y-75894D01*
X-121435Y-75935D01*
X-121390Y-75978D01*
X-121346Y-76024D01*
X-121306Y-76072D01*
X-121267Y-76122D01*
X-121232Y-76173D01*
X-121199Y-76227D01*
X-121169Y-76282D01*
X-121142Y-76339D01*
X-121118Y-76397D01*
X-121097Y-76456D01*
X-121079Y-76516D01*
X-121064Y-76578D01*
X-121053Y-76639D01*
X-121045Y-76701D01*
X-121040Y-76764D01*
X-121038Y-76827D01*
Y-78327D01*
X-121040Y-78390D01*
X-121045Y-78452D01*
X-121053Y-78515D01*
X-121064Y-78576D01*
X-121079Y-78638D01*
X-121097Y-78698D01*
X-121118Y-78757D01*
X-121142Y-78815D01*
X-121169Y-78872D01*
X-121199Y-78927D01*
X-121232Y-78981D01*
X-121267Y-79032D01*
X-121306Y-79082D01*
X-121346Y-79130D01*
X-121390Y-79176D01*
X-121435Y-79219D01*
X-121483Y-79260D01*
X-121533Y-79298D01*
X-121585Y-79333D01*
X-121638Y-79366D01*
X-121693Y-79396D01*
X-121750Y-79423D01*
X-121808Y-79447D01*
X-121867Y-79468D01*
X-121927Y-79486D01*
X-121989Y-79501D01*
X-122050Y-79512D01*
X-122113Y-79520D01*
X-122175Y-79525D01*
X-122238Y-79527D01*
X-127238D01*
X-127301Y-79525D01*
X-127364Y-79520D01*
X-127426Y-79512D01*
X-127488Y-79501D01*
X-127549Y-79486D01*
X-127609Y-79468D01*
X-127668Y-79447D01*
X-127726Y-79423D01*
X-127783Y-79396D01*
X-127838Y-79366D01*
X-127892Y-79333D01*
X-127943Y-79298D01*
X-127993Y-79260D01*
X-128041Y-79219D01*
X-128087Y-79176D01*
X-128130Y-79130D01*
X-128171Y-79082D01*
X-128209Y-79032D01*
X-128244Y-78981D01*
X-128277Y-78927D01*
X-128307Y-78872D01*
X-128334Y-78815D01*
X-128358Y-78757D01*
X-128379Y-78698D01*
X-128397Y-78638D01*
X-128412Y-78576D01*
X-128423Y-78515D01*
X-128432Y-78452D01*
X-128436Y-78390D01*
X-128438Y-78327D01*
Y-76827D01*
X-128436Y-76764D01*
X-128432Y-76701D01*
X-128423Y-76639D01*
X-128412Y-76578D01*
X-128397Y-76516D01*
X-128379Y-76456D01*
X-128358Y-76397D01*
X-128334Y-76339D01*
X-128307Y-76282D01*
X-128277Y-76227D01*
X-128244Y-76173D01*
X-128209Y-76122D01*
X-128171Y-76072D01*
X-128130Y-76024D01*
X-128087Y-75978D01*
X-128041Y-75935D01*
X-127993Y-75894D01*
X-127943Y-75856D01*
X-127892Y-75821D01*
X-127838Y-75788D01*
X-127783Y-75758D01*
X-127726Y-75731D01*
X-127668Y-75707D01*
X-127609Y-75686D01*
X-127549Y-75668D01*
X-127488Y-75653D01*
X-127426Y-75642D01*
X-127364Y-75634D01*
X-127301Y-75629D01*
X-127238Y-75627D01*
X-122238D01*
X-122175Y-75629D01*
D02*
G37*
G36*
X-155175D02*
X-155113Y-75634D01*
X-155050Y-75642D01*
X-154989Y-75653D01*
X-154928Y-75668D01*
X-154867Y-75686D01*
X-154808Y-75707D01*
X-154750Y-75731D01*
X-154693Y-75758D01*
X-154638Y-75788D01*
X-154585Y-75821D01*
X-154533Y-75856D01*
X-154483Y-75894D01*
X-154435Y-75935D01*
X-154389Y-75978D01*
X-154346Y-76024D01*
X-154305Y-76072D01*
X-154267Y-76122D01*
X-154232Y-76173D01*
X-154199Y-76227D01*
X-154169Y-76282D01*
X-154142Y-76339D01*
X-154118Y-76397D01*
X-154097Y-76456D01*
X-154079Y-76516D01*
X-154064Y-76578D01*
X-154053Y-76639D01*
X-154045Y-76701D01*
X-154040Y-76764D01*
X-154038Y-76827D01*
Y-78327D01*
X-154040Y-78390D01*
X-154045Y-78452D01*
X-154053Y-78515D01*
X-154064Y-78576D01*
X-154079Y-78638D01*
X-154097Y-78698D01*
X-154118Y-78757D01*
X-154142Y-78815D01*
X-154169Y-78872D01*
X-154199Y-78927D01*
X-154232Y-78981D01*
X-154267Y-79032D01*
X-154305Y-79082D01*
X-154346Y-79130D01*
X-154389Y-79176D01*
X-154435Y-79219D01*
X-154483Y-79260D01*
X-154533Y-79298D01*
X-154585Y-79333D01*
X-154638Y-79366D01*
X-154693Y-79396D01*
X-154750Y-79423D01*
X-154808Y-79447D01*
X-154867Y-79468D01*
X-154928Y-79486D01*
X-154989Y-79501D01*
X-155050Y-79512D01*
X-155113Y-79520D01*
X-155175Y-79525D01*
X-155238Y-79527D01*
X-160238D01*
X-160301Y-79525D01*
X-160364Y-79520D01*
X-160426Y-79512D01*
X-160488Y-79501D01*
X-160549Y-79486D01*
X-160609Y-79468D01*
X-160668Y-79447D01*
X-160726Y-79423D01*
X-160783Y-79396D01*
X-160838Y-79366D01*
X-160892Y-79333D01*
X-160943Y-79298D01*
X-160993Y-79260D01*
X-161041Y-79219D01*
X-161087Y-79176D01*
X-161130Y-79130D01*
X-161171Y-79082D01*
X-161209Y-79032D01*
X-161245Y-78981D01*
X-161277Y-78927D01*
X-161307Y-78872D01*
X-161334Y-78815D01*
X-161358Y-78757D01*
X-161379Y-78698D01*
X-161397Y-78638D01*
X-161412Y-78576D01*
X-161423Y-78515D01*
X-161432Y-78452D01*
X-161436Y-78390D01*
X-161438Y-78327D01*
Y-76827D01*
X-161436Y-76764D01*
X-161432Y-76701D01*
X-161423Y-76639D01*
X-161412Y-76578D01*
X-161397Y-76516D01*
X-161379Y-76456D01*
X-161358Y-76397D01*
X-161334Y-76339D01*
X-161307Y-76282D01*
X-161277Y-76227D01*
X-161245Y-76173D01*
X-161209Y-76122D01*
X-161171Y-76072D01*
X-161130Y-76024D01*
X-161087Y-75978D01*
X-161041Y-75935D01*
X-160993Y-75894D01*
X-160943Y-75856D01*
X-160892Y-75821D01*
X-160838Y-75788D01*
X-160783Y-75758D01*
X-160726Y-75731D01*
X-160668Y-75707D01*
X-160609Y-75686D01*
X-160549Y-75668D01*
X-160488Y-75653D01*
X-160426Y-75642D01*
X-160364Y-75634D01*
X-160301Y-75629D01*
X-160238Y-75627D01*
X-155238D01*
X-155175Y-75629D01*
D02*
G37*
G36*
X-132925Y-77879D02*
X-132863Y-77884D01*
X-132800Y-77892D01*
X-132739Y-77903D01*
X-132677Y-77918D01*
X-132617Y-77936D01*
X-132558Y-77957D01*
X-132500Y-77981D01*
X-132443Y-78008D01*
X-132388Y-78038D01*
X-132334Y-78071D01*
X-132283Y-78106D01*
X-132233Y-78144D01*
X-132185Y-78185D01*
X-132140Y-78229D01*
X-132096Y-78274D01*
X-132056Y-78322D01*
X-132017Y-78372D01*
X-131982Y-78423D01*
X-131949Y-78477D01*
X-131919Y-78532D01*
X-131892Y-78589D01*
X-131868Y-78647D01*
X-131847Y-78706D01*
X-131829Y-78766D01*
X-131814Y-78828D01*
X-131803Y-78889D01*
X-131795Y-78952D01*
X-131790Y-79014D01*
X-131788Y-79077D01*
Y-84077D01*
X-131790Y-84140D01*
X-131795Y-84202D01*
X-131803Y-84265D01*
X-131814Y-84326D01*
X-131829Y-84388D01*
X-131847Y-84448D01*
X-131868Y-84507D01*
X-131892Y-84565D01*
X-131919Y-84622D01*
X-131949Y-84677D01*
X-131982Y-84731D01*
X-132017Y-84782D01*
X-132056Y-84832D01*
X-132096Y-84880D01*
X-132140Y-84925D01*
X-132185Y-84969D01*
X-132233Y-85010D01*
X-132283Y-85048D01*
X-132334Y-85083D01*
X-132388Y-85116D01*
X-132443Y-85146D01*
X-132500Y-85173D01*
X-132558Y-85197D01*
X-132617Y-85218D01*
X-132677Y-85236D01*
X-132739Y-85251D01*
X-132800Y-85262D01*
X-132863Y-85270D01*
X-132925Y-85275D01*
X-132988Y-85277D01*
X-134488D01*
X-134551Y-85275D01*
X-134614Y-85270D01*
X-134676Y-85262D01*
X-134738Y-85251D01*
X-134799Y-85236D01*
X-134859Y-85218D01*
X-134918Y-85197D01*
X-134976Y-85173D01*
X-135033Y-85146D01*
X-135088Y-85116D01*
X-135142Y-85083D01*
X-135193Y-85048D01*
X-135243Y-85010D01*
X-135291Y-84969D01*
X-135337Y-84925D01*
X-135380Y-84880D01*
X-135421Y-84832D01*
X-135459Y-84782D01*
X-135494Y-84731D01*
X-135527Y-84677D01*
X-135557Y-84622D01*
X-135584Y-84565D01*
X-135608Y-84507D01*
X-135629Y-84448D01*
X-135647Y-84388D01*
X-135662Y-84326D01*
X-135673Y-84265D01*
X-135681Y-84202D01*
X-135686Y-84140D01*
X-135688Y-84077D01*
Y-79077D01*
X-135686Y-79014D01*
X-135681Y-78952D01*
X-135673Y-78889D01*
X-135662Y-78828D01*
X-135647Y-78766D01*
X-135629Y-78706D01*
X-135608Y-78647D01*
X-135584Y-78589D01*
X-135557Y-78532D01*
X-135527Y-78477D01*
X-135494Y-78423D01*
X-135459Y-78372D01*
X-135421Y-78322D01*
X-135380Y-78274D01*
X-135337Y-78229D01*
X-135291Y-78185D01*
X-135243Y-78144D01*
X-135193Y-78106D01*
X-135142Y-78071D01*
X-135088Y-78038D01*
X-135033Y-78008D01*
X-134976Y-77981D01*
X-134918Y-77957D01*
X-134859Y-77936D01*
X-134799Y-77918D01*
X-134738Y-77903D01*
X-134676Y-77892D01*
X-134614Y-77884D01*
X-134551Y-77879D01*
X-134488Y-77877D01*
X-132988D01*
X-132925Y-77879D01*
D02*
G37*
G36*
X-147925D02*
X-147863Y-77884D01*
X-147800Y-77892D01*
X-147739Y-77903D01*
X-147677Y-77918D01*
X-147617Y-77936D01*
X-147558Y-77957D01*
X-147500Y-77981D01*
X-147443Y-78008D01*
X-147388Y-78038D01*
X-147334Y-78071D01*
X-147283Y-78106D01*
X-147233Y-78144D01*
X-147185Y-78185D01*
X-147140Y-78229D01*
X-147096Y-78274D01*
X-147056Y-78322D01*
X-147017Y-78372D01*
X-146982Y-78423D01*
X-146949Y-78477D01*
X-146919Y-78532D01*
X-146892Y-78589D01*
X-146868Y-78647D01*
X-146847Y-78706D01*
X-146829Y-78766D01*
X-146814Y-78828D01*
X-146803Y-78889D01*
X-146795Y-78952D01*
X-146790Y-79014D01*
X-146788Y-79077D01*
Y-84077D01*
X-146790Y-84140D01*
X-146795Y-84202D01*
X-146803Y-84265D01*
X-146814Y-84326D01*
X-146829Y-84388D01*
X-146847Y-84448D01*
X-146868Y-84507D01*
X-146892Y-84565D01*
X-146919Y-84622D01*
X-146949Y-84677D01*
X-146982Y-84731D01*
X-147017Y-84782D01*
X-147056Y-84832D01*
X-147096Y-84880D01*
X-147140Y-84925D01*
X-147185Y-84969D01*
X-147233Y-85010D01*
X-147283Y-85048D01*
X-147334Y-85083D01*
X-147388Y-85116D01*
X-147443Y-85146D01*
X-147500Y-85173D01*
X-147558Y-85197D01*
X-147617Y-85218D01*
X-147677Y-85236D01*
X-147739Y-85251D01*
X-147800Y-85262D01*
X-147863Y-85270D01*
X-147925Y-85275D01*
X-147988Y-85277D01*
X-149488D01*
X-149551Y-85275D01*
X-149614Y-85270D01*
X-149676Y-85262D01*
X-149738Y-85251D01*
X-149799Y-85236D01*
X-149859Y-85218D01*
X-149918Y-85197D01*
X-149976Y-85173D01*
X-150033Y-85146D01*
X-150088Y-85116D01*
X-150142Y-85083D01*
X-150193Y-85048D01*
X-150243Y-85010D01*
X-150291Y-84969D01*
X-150337Y-84925D01*
X-150380Y-84880D01*
X-150421Y-84832D01*
X-150459Y-84782D01*
X-150494Y-84731D01*
X-150527Y-84677D01*
X-150557Y-84622D01*
X-150584Y-84565D01*
X-150608Y-84507D01*
X-150629Y-84448D01*
X-150647Y-84388D01*
X-150662Y-84326D01*
X-150673Y-84265D01*
X-150681Y-84202D01*
X-150686Y-84140D01*
X-150688Y-84077D01*
Y-79077D01*
X-150686Y-79014D01*
X-150681Y-78952D01*
X-150673Y-78889D01*
X-150662Y-78828D01*
X-150647Y-78766D01*
X-150629Y-78706D01*
X-150608Y-78647D01*
X-150584Y-78589D01*
X-150557Y-78532D01*
X-150527Y-78477D01*
X-150494Y-78423D01*
X-150459Y-78372D01*
X-150421Y-78322D01*
X-150380Y-78274D01*
X-150337Y-78229D01*
X-150291Y-78185D01*
X-150243Y-78144D01*
X-150193Y-78106D01*
X-150142Y-78071D01*
X-150088Y-78038D01*
X-150033Y-78008D01*
X-149976Y-77981D01*
X-149918Y-77957D01*
X-149859Y-77936D01*
X-149799Y-77918D01*
X-149738Y-77903D01*
X-149676Y-77892D01*
X-149614Y-77884D01*
X-149551Y-77879D01*
X-149488Y-77877D01*
X-147988D01*
X-147925Y-77879D01*
D02*
G37*
D34*
X-491992Y-225043D02*
D03*
X-473992D02*
D03*
X-525286D02*
D03*
X-543286D02*
D03*
X-510807Y-55429D02*
D03*
X-492807D02*
D03*
X-510807Y-88720D02*
D03*
X-492807D02*
D03*
X-510807Y-105366D02*
D03*
X-492807D02*
D03*
Y-72075D02*
D03*
X-510807D02*
D03*
Y-122011D02*
D03*
X-492807D02*
D03*
D36*
X-499470Y-174625D02*
D03*
Y-191625D02*
D03*
X-483010Y-174625D02*
D03*
Y-191625D02*
D03*
X-466551Y-174625D02*
D03*
Y-191625D02*
D03*
X-450092D02*
D03*
Y-174625D02*
D03*
D38*
X-535097Y-184825D02*
D03*
Y-142325D02*
D03*
D50*
X-59348Y-42579D02*
D03*
X-73248D02*
D03*
X-105674D02*
D03*
X-91775D02*
D03*
X-179156Y-73557D02*
D03*
X-193055D02*
D03*
X-179156Y-59552D02*
D03*
X-193055D02*
D03*
X-179156Y-17531D02*
D03*
X-193055D02*
D03*
X-91775Y-28643D02*
D03*
X-105674D02*
D03*
Y-763D02*
D03*
X-91775D02*
D03*
X-59348Y-70947D02*
D03*
X-73248D02*
D03*
Y-99315D02*
D03*
X-59348D02*
D03*
X-179156Y-87563D02*
D03*
X-193055D02*
D03*
X-179156Y-45546D02*
D03*
X-193055D02*
D03*
Y-130049D02*
D03*
X-179156D02*
D03*
Y-31537D02*
D03*
X-193055D02*
D03*
X-100696Y-245662D02*
D03*
X-86796D02*
D03*
X-73248Y-173817D02*
D03*
X-59348D02*
D03*
X-100696D02*
D03*
X-86796D02*
D03*
Y-158063D02*
D03*
X-100696D02*
D03*
X-179156Y-158057D02*
D03*
X-193055D02*
D03*
X-179156Y-214080D02*
D03*
X-193055D02*
D03*
X-179156Y-200075D02*
D03*
X-193055D02*
D03*
X-179156Y-186069D02*
D03*
X-193055D02*
D03*
X-179156Y-172063D02*
D03*
X-193055D02*
D03*
X-100696Y-130049D02*
D03*
X-86796D02*
D03*
X-59348Y-202185D02*
D03*
X-73248D02*
D03*
X-179156Y-228086D02*
D03*
X-193055D02*
D03*
Y-144054D02*
D03*
X-179156D02*
D03*
X-59348Y-85131D02*
D03*
X-73248D02*
D03*
X-242920Y-252223D02*
D03*
X-229020D02*
D03*
X-59348Y-216369D02*
D03*
X-73248D02*
D03*
D51*
X0Y0D02*
D03*
D52*
Y-25400D02*
D03*
Y-50800D02*
D03*
Y-76200D02*
D03*
Y-101600D02*
D03*
Y-127000D02*
D03*
Y-152400D02*
D03*
Y-177800D02*
D03*
Y-203200D02*
D03*
Y-228600D02*
D03*
Y-254000D02*
D03*
Y-279400D02*
D03*
D53*
X-583550Y-112819D02*
D03*
Y-156819D02*
D03*
D63*
X-148738Y-212815D02*
D03*
X-133738D02*
D03*
X-148738Y-169815D02*
D03*
X-133738D02*
D03*
Y-38577D02*
D03*
X-148738D02*
D03*
X-133738Y-81577D02*
D03*
X-148738D02*
D03*
D64*
X-157738Y-193815D02*
D03*
Y-188815D02*
D03*
Y-183815D02*
D03*
Y-178815D02*
D03*
Y-173815D02*
D03*
Y-198815D02*
D03*
Y-203815D02*
D03*
Y-208815D02*
D03*
X-124738Y-193815D02*
D03*
Y-188815D02*
D03*
Y-183815D02*
D03*
Y-178815D02*
D03*
Y-173815D02*
D03*
Y-198815D02*
D03*
Y-203815D02*
D03*
Y-208815D02*
D03*
Y-77577D02*
D03*
Y-72577D02*
D03*
Y-67577D02*
D03*
Y-42577D02*
D03*
Y-47577D02*
D03*
Y-52577D02*
D03*
Y-57577D02*
D03*
Y-62577D02*
D03*
X-157738Y-77577D02*
D03*
Y-72577D02*
D03*
Y-67577D02*
D03*
Y-42577D02*
D03*
Y-47577D02*
D03*
Y-52577D02*
D03*
Y-57577D02*
D03*
Y-62577D02*
D03*
D65*
X-141238Y-191315D02*
D03*
Y-60077D02*
D03*
D66*
X-428720Y-209817D02*
D03*
Y-197117D02*
D03*
Y-184417D02*
D03*
Y-159017D02*
D03*
Y-120917D02*
D03*
Y-108217D02*
D03*
Y-95517D02*
D03*
Y-82817D02*
D03*
Y-70117D02*
D03*
Y-57417D02*
D03*
Y-44717D02*
D03*
X-258720D02*
D03*
Y-57417D02*
D03*
Y-70117D02*
D03*
Y-82817D02*
D03*
Y-95517D02*
D03*
Y-120917D02*
D03*
Y-146317D02*
D03*
Y-159017D02*
D03*
Y-171717D02*
D03*
Y-184417D02*
D03*
Y-197117D02*
D03*
Y-209817D02*
D03*
D67*
X-400870Y-34717D02*
D03*
X-388170D02*
D03*
X-375470D02*
D03*
X-362770D02*
D03*
X-350070D02*
D03*
X-311970D02*
D03*
X-299270D02*
D03*
X-286570D02*
D03*
D68*
X-372070Y-153167D02*
D03*
X-353720D02*
D03*
X-335370D02*
D03*
X-372070Y-134817D02*
D03*
X-353720D02*
D03*
X-335370D02*
D03*
X-372070Y-116467D02*
D03*
X-353720Y-116217D02*
D03*
X-335370Y-116467D02*
D03*
D73*
X-491992Y-242319D02*
D03*
X-474212D02*
D03*
X-483102Y-267019D02*
D03*
X-543536Y-242337D02*
D03*
X-525756D02*
D03*
X-534646Y-267037D02*
D03*
D74*
X-477902Y-55429D02*
D03*
X-461902D02*
D03*
X-477902Y-72075D02*
D03*
X-461902D02*
D03*
X-477902Y-88720D02*
D03*
X-461902D02*
D03*
X-477902Y-105366D02*
D03*
X-461902D02*
D03*
X-477902Y-122011D02*
D03*
X-461902D02*
D03*
D75*
X-128856Y-124374D02*
D03*
X-150857D02*
D03*
Y-108374D02*
D03*
X-128856D02*
D03*
X-130228Y-255612D02*
D03*
X-152228D02*
D03*
Y-239612D02*
D03*
X-130228D02*
D03*
D76*
X-123738Y-95292D02*
D03*
X-133738D02*
D03*
X-155357Y-95292D02*
D03*
X-145357D02*
D03*
X-125728Y-226530D02*
D03*
X-135728D02*
D03*
X-156728D02*
D03*
X-146728D02*
D03*
M02*
