G04*
G04 #@! TF.GenerationSoftware,Altium Limited,Altium Designer,24.0.1 (36)*
G04*
G04 Layer_Color=2752767*
%FSLAX44Y44*%
%MOMM*%
G71*
G04*
G04 #@! TF.SameCoordinates,11300C1B-94DD-46D1-A2B6-7A041ABCAB01*
G04*
G04*
G04 #@! TF.FilePolarity,Positive*
G04*
G01*
G75*
%ADD77C,0.0508*%
%ADD78C,0.0677*%
D77*
X0Y-2032D02*
X-2032Y2032D01*
X2032D01*
X0Y-2032D01*
Y-27432D02*
X-2032Y-23368D01*
X2032D01*
X0Y-27432D01*
Y-52832D02*
X-2032Y-48768D01*
X2032D01*
X0Y-52832D01*
Y-78232D02*
X-2032Y-74168D01*
X2032D01*
X0Y-78232D01*
Y-103632D02*
X-2032Y-99568D01*
X2032D01*
X0Y-103632D01*
Y-129032D02*
X-2032Y-124968D01*
X2032D01*
X0Y-129032D01*
Y-154432D02*
X-2032Y-150368D01*
X2032D01*
X0Y-154432D01*
Y-179832D02*
X-2032Y-175768D01*
X2032D01*
X0Y-179832D01*
Y-205232D02*
X-2032Y-201168D01*
X2032D01*
X0Y-205232D01*
Y-230632D02*
X-2032Y-226568D01*
X2032D01*
X0Y-230632D01*
Y-256032D02*
X-2032Y-251968D01*
X2032D01*
X0Y-256032D01*
Y-281432D02*
X-2032Y-277368D01*
X2032D01*
X0Y-281432D01*
X-110257Y2524D02*
Y6588D01*
X-106193D01*
Y2524D01*
X-110257D01*
X-90892Y-89563D02*
Y-85499D01*
X-86828D01*
Y-89563D01*
X-90892D01*
X-90147Y-99211D02*
Y-95147D01*
X-86083D01*
Y-99211D01*
X-90147D01*
X-33523Y-97163D02*
Y-93099D01*
X-29459D01*
Y-97163D01*
X-33523D01*
X-33608Y-112661D02*
Y-108597D01*
X-29544D01*
Y-112661D01*
X-33608D01*
X664Y65514D02*
Y69578D01*
X4728D01*
Y65514D01*
X664D01*
X-5685Y52814D02*
Y56878D01*
X-1621D01*
Y52814D01*
X-5685D01*
X664Y40114D02*
Y44178D01*
X4728D01*
Y40114D01*
X664D01*
X-5685Y-302786D02*
Y-298722D01*
X-1621D01*
Y-302786D01*
X-5685D01*
X664Y-315486D02*
Y-311422D01*
X4728D01*
Y-315486D01*
X664D01*
X-5685Y-328186D02*
Y-324122D01*
X-1621D01*
Y-328186D01*
X-5685D01*
X-12035Y65514D02*
Y69578D01*
X-7972D01*
Y65514D01*
X-12035D01*
X-18385Y52814D02*
Y56878D01*
X-14322D01*
Y52814D01*
X-18385D01*
X-12035Y40114D02*
Y44178D01*
X-7972D01*
Y40114D01*
X-12035D01*
Y14714D02*
Y18778D01*
X-7972D01*
Y14714D01*
X-12035D01*
X-18385Y2014D02*
Y6078D01*
X-14322D01*
Y2014D01*
X-18385D01*
Y-23386D02*
Y-19322D01*
X-14322D01*
Y-23386D01*
X-18385D01*
X-12035Y-36086D02*
Y-32022D01*
X-7972D01*
Y-36086D01*
X-12035D01*
X-18385Y-48786D02*
Y-44722D01*
X-14322D01*
Y-48786D01*
X-18385D01*
Y-99586D02*
Y-95522D01*
X-14322D01*
Y-99586D01*
X-18385D01*
X-12035Y-112286D02*
Y-108222D01*
X-7972D01*
Y-112286D01*
X-12035D01*
Y-137686D02*
Y-133622D01*
X-7972D01*
Y-137686D01*
X-12035D01*
Y-163086D02*
Y-159022D01*
X-7972D01*
Y-163086D01*
X-12035D01*
Y-188486D02*
Y-184422D01*
X-7972D01*
Y-188486D01*
X-12035D01*
X-18385Y-201186D02*
Y-197122D01*
X-14322D01*
Y-201186D01*
X-18385D01*
X-12035Y-213886D02*
Y-209822D01*
X-7972D01*
Y-213886D01*
X-12035D01*
X-18385Y-226586D02*
Y-222522D01*
X-14322D01*
Y-226586D01*
X-18385D01*
X-12035Y-239286D02*
Y-235222D01*
X-7972D01*
Y-239286D01*
X-12035D01*
X-18385Y-251986D02*
Y-247922D01*
X-14322D01*
Y-251986D01*
X-18385D01*
X-12035Y-264686D02*
Y-260622D01*
X-7972D01*
Y-264686D01*
X-12035D01*
X-18385Y-277386D02*
Y-273322D01*
X-14322D01*
Y-277386D01*
X-18385D01*
X-12035Y-290086D02*
Y-286022D01*
X-7972D01*
Y-290086D01*
X-12035D01*
X-18385Y-302786D02*
Y-298722D01*
X-14322D01*
Y-302786D01*
X-18385D01*
X-12035Y-315486D02*
Y-311422D01*
X-7972D01*
Y-315486D01*
X-12035D01*
X-18385Y-328186D02*
Y-324122D01*
X-14322D01*
Y-328186D01*
X-18385D01*
X-24736Y65514D02*
Y69578D01*
X-20672D01*
Y65514D01*
X-24736D01*
X-31086Y52814D02*
Y56878D01*
X-27022D01*
Y52814D01*
X-31086D01*
X-24736Y40114D02*
Y44178D01*
X-20672D01*
Y40114D01*
X-24736D01*
X-31086Y-277386D02*
Y-273322D01*
X-27022D01*
Y-277386D01*
X-31086D01*
X-24736Y-290086D02*
Y-286022D01*
X-20672D01*
Y-290086D01*
X-24736D01*
X-31086Y-302786D02*
Y-298722D01*
X-27022D01*
Y-302786D01*
X-31086D01*
X-24736Y-315486D02*
Y-311422D01*
X-20672D01*
Y-315486D01*
X-24736D01*
X-31086Y-328186D02*
Y-324122D01*
X-27022D01*
Y-328186D01*
X-31086D01*
X-37436Y65514D02*
Y69578D01*
X-33372D01*
Y65514D01*
X-37436D01*
X-43786Y52814D02*
Y56878D01*
X-39722D01*
Y52814D01*
X-43786D01*
X-37436Y40114D02*
Y44178D01*
X-33372D01*
Y40114D01*
X-37436D01*
Y-290086D02*
Y-286022D01*
X-33372D01*
Y-290086D01*
X-37436D01*
X-43786Y-302786D02*
Y-298722D01*
X-39722D01*
Y-302786D01*
X-43786D01*
X-37436Y-315486D02*
Y-311422D01*
X-33372D01*
Y-315486D01*
X-37436D01*
X-43786Y-328186D02*
Y-324122D01*
X-39722D01*
Y-328186D01*
X-43786D01*
X-50135Y65514D02*
Y69578D01*
X-46072D01*
Y65514D01*
X-50135D01*
X-56486Y52814D02*
Y56878D01*
X-52421D01*
Y52814D01*
X-56486D01*
X-50135Y40114D02*
Y44178D01*
X-46072D01*
Y40114D01*
X-50135D01*
Y-239286D02*
Y-235222D01*
X-46072D01*
Y-239286D01*
X-50135D01*
X-56486Y-251986D02*
Y-247922D01*
X-52421D01*
Y-251986D01*
X-56486D01*
Y-277386D02*
Y-273322D01*
X-52421D01*
Y-277386D01*
X-56486D01*
Y-302786D02*
Y-298722D01*
X-52421D01*
Y-302786D01*
X-56486D01*
X-50135Y-315486D02*
Y-311422D01*
X-46072D01*
Y-315486D01*
X-50135D01*
X-56486Y-328186D02*
Y-324122D01*
X-52421D01*
Y-328186D01*
X-56486D01*
X-62835Y65514D02*
Y69578D01*
X-58772D01*
Y65514D01*
X-62835D01*
X-69186Y52814D02*
Y56878D01*
X-65121D01*
Y52814D01*
X-69186D01*
X-62835Y40114D02*
Y44178D01*
X-58772D01*
Y40114D01*
X-62835D01*
X-69186Y-23386D02*
Y-19322D01*
X-65121D01*
Y-23386D01*
X-69186D01*
Y-302786D02*
Y-298722D01*
X-65121D01*
Y-302786D01*
X-69186D01*
X-62835Y-315486D02*
Y-311422D01*
X-58772D01*
Y-315486D01*
X-62835D01*
X-69186Y-328186D02*
Y-324122D01*
X-65121D01*
Y-328186D01*
X-69186D01*
X-75535Y65514D02*
Y69578D01*
X-71472D01*
Y65514D01*
X-75535D01*
X-81885Y52814D02*
Y56878D01*
X-77821D01*
Y52814D01*
X-81885D01*
X-75535Y40114D02*
Y44178D01*
X-71472D01*
Y40114D01*
X-75535D01*
X-81885Y-302786D02*
Y-298722D01*
X-77821D01*
Y-302786D01*
X-81885D01*
X-75535Y-315486D02*
Y-311422D01*
X-71472D01*
Y-315486D01*
X-75535D01*
X-81885Y-328186D02*
Y-324122D01*
X-77821D01*
Y-328186D01*
X-81885D01*
X-88236Y65514D02*
Y69578D01*
X-84171D01*
Y65514D01*
X-88236D01*
X-94586Y52814D02*
Y56878D01*
X-90521D01*
Y52814D01*
X-94586D01*
X-88236Y40114D02*
Y44178D01*
X-84171D01*
Y40114D01*
X-88236D01*
X-94586Y-302786D02*
Y-298722D01*
X-90521D01*
Y-302786D01*
X-94586D01*
X-88236Y-315486D02*
Y-311422D01*
X-84171D01*
Y-315486D01*
X-88236D01*
X-94586Y-328186D02*
Y-324122D01*
X-90521D01*
Y-328186D01*
X-94586D01*
X-100935Y40114D02*
Y44178D01*
X-96872D01*
Y40114D01*
X-100935D01*
X-107285Y-302786D02*
Y-298722D01*
X-103222D01*
Y-302786D01*
X-107285D01*
X-100935Y-315486D02*
Y-311422D01*
X-96872D01*
Y-315486D01*
X-100935D01*
X-151735Y14714D02*
Y18778D01*
X-147671D01*
Y14714D01*
X-151735D01*
X-170786Y27414D02*
Y31478D01*
X-166721D01*
Y27414D01*
X-170786D01*
X-164436Y14714D02*
Y18778D01*
X-160371D01*
Y14714D01*
X-164436D01*
X-183486Y2014D02*
Y6078D01*
X-179422D01*
Y2014D01*
X-183486D01*
Y-302786D02*
Y-298722D01*
X-179422D01*
Y-302786D01*
X-183486D01*
X-189835Y65514D02*
Y69578D01*
X-185772D01*
Y65514D01*
X-189835D01*
X-196185Y52814D02*
Y56878D01*
X-192122D01*
Y52814D01*
X-196185D01*
X-189835Y40114D02*
Y44178D01*
X-185772D01*
Y40114D01*
X-189835D01*
Y14714D02*
Y18778D01*
X-185772D01*
Y14714D01*
X-189835D01*
X-196185Y2014D02*
Y6078D01*
X-192122D01*
Y2014D01*
X-196185D01*
Y-302786D02*
Y-298722D01*
X-192122D01*
Y-302786D01*
X-196185D01*
X-189835Y-315486D02*
Y-311422D01*
X-185772D01*
Y-315486D01*
X-189835D01*
X-196185Y-328186D02*
Y-324122D01*
X-192122D01*
Y-328186D01*
X-196185D01*
X-202535Y65514D02*
Y69578D01*
X-198472D01*
Y65514D01*
X-202535D01*
X-208885Y52814D02*
Y56878D01*
X-204821D01*
Y52814D01*
X-208885D01*
X-202535Y40114D02*
Y44178D01*
X-198472D01*
Y40114D01*
X-202535D01*
Y14714D02*
Y18778D01*
X-198472D01*
Y14714D01*
X-202535D01*
X-208885Y-302786D02*
Y-298722D01*
X-204821D01*
Y-302786D01*
X-208885D01*
X-202535Y-315486D02*
Y-311422D01*
X-198472D01*
Y-315486D01*
X-202535D01*
X-208885Y-328186D02*
Y-324122D01*
X-204821D01*
Y-328186D01*
X-208885D01*
X-215236Y65514D02*
Y69578D01*
X-211171D01*
Y65514D01*
X-215236D01*
X-221586Y52814D02*
Y56878D01*
X-217521D01*
Y52814D01*
X-221586D01*
X-215236Y40114D02*
Y44178D01*
X-211171D01*
Y40114D01*
X-215236D01*
X-221586Y-302786D02*
Y-298722D01*
X-217521D01*
Y-302786D01*
X-221586D01*
X-215236Y-315486D02*
Y-311422D01*
X-211171D01*
Y-315486D01*
X-215236D01*
X-221586Y-328186D02*
Y-324122D01*
X-217521D01*
Y-328186D01*
X-221586D01*
X-227936Y65514D02*
Y69578D01*
X-223871D01*
Y65514D01*
X-227936D01*
X-234286Y52814D02*
Y56878D01*
X-230222D01*
Y52814D01*
X-234286D01*
X-227936Y40114D02*
Y44178D01*
X-223871D01*
Y40114D01*
X-227936D01*
X-234286Y-302786D02*
Y-298722D01*
X-230222D01*
Y-302786D01*
X-234286D01*
X-227936Y-315486D02*
Y-311422D01*
X-223871D01*
Y-315486D01*
X-227936D01*
X-234286Y-328186D02*
Y-324122D01*
X-230222D01*
Y-328186D01*
X-234286D01*
X-240636Y65514D02*
Y69578D01*
X-236572D01*
Y65514D01*
X-240636D01*
X-246985Y52814D02*
Y56878D01*
X-242922D01*
Y52814D01*
X-246985D01*
X-240636Y40114D02*
Y44178D01*
X-236572D01*
Y40114D01*
X-240636D01*
X-246985Y2014D02*
Y6078D01*
X-242922D01*
Y2014D01*
X-246985D01*
X-240636Y-86886D02*
Y-82822D01*
X-236572D01*
Y-86886D01*
X-240636D01*
Y-264686D02*
Y-260622D01*
X-236572D01*
Y-264686D01*
X-240636D01*
X-246985Y-277386D02*
Y-273322D01*
X-242922D01*
Y-277386D01*
X-246985D01*
X-240636Y-290086D02*
Y-286022D01*
X-236572D01*
Y-290086D01*
X-240636D01*
X-246985Y-302786D02*
Y-298722D01*
X-242922D01*
Y-302786D01*
X-246985D01*
X-240636Y-315486D02*
Y-311422D01*
X-236572D01*
Y-315486D01*
X-240636D01*
X-246985Y-328186D02*
Y-324122D01*
X-242922D01*
Y-328186D01*
X-246985D01*
X-253335Y65514D02*
Y69578D01*
X-249272D01*
Y65514D01*
X-253335D01*
X-259685Y52814D02*
Y56878D01*
X-255621D01*
Y52814D01*
X-259685D01*
X-253335Y40114D02*
Y44178D01*
X-249272D01*
Y40114D01*
X-253335D01*
Y-290086D02*
Y-286022D01*
X-249272D01*
Y-290086D01*
X-253335D01*
Y-315486D02*
Y-311422D01*
X-249272D01*
Y-315486D01*
X-253335D01*
X-266035Y65514D02*
Y69578D01*
X-261971D01*
Y65514D01*
X-266035D01*
X-272386Y52814D02*
Y56878D01*
X-268321D01*
Y52814D01*
X-272386D01*
X-266035Y40114D02*
Y44178D01*
X-261971D01*
Y40114D01*
X-266035D01*
X-272386Y-277386D02*
Y-273322D01*
X-268321D01*
Y-277386D01*
X-272386D01*
X-278736Y65514D02*
Y69578D01*
X-274671D01*
Y65514D01*
X-278736D01*
X-285086Y52814D02*
Y56878D01*
X-281021D01*
Y52814D01*
X-285086D01*
X-278736Y40114D02*
Y44178D01*
X-274671D01*
Y40114D01*
X-278736D01*
Y-61486D02*
Y-57422D01*
X-274671D01*
Y-61486D01*
X-278736D01*
Y-188486D02*
Y-184422D01*
X-274671D01*
Y-188486D01*
X-278736D01*
X-291436Y65514D02*
Y69578D01*
X-287372D01*
Y65514D01*
X-291436D01*
X-297785Y52814D02*
Y56878D01*
X-293722D01*
Y52814D01*
X-297785D01*
X-291436Y40114D02*
Y44178D01*
X-287372D01*
Y40114D01*
X-291436D01*
X-304135Y65514D02*
Y69578D01*
X-300072D01*
Y65514D01*
X-304135D01*
X-310485Y52814D02*
Y56878D01*
X-306422D01*
Y52814D01*
X-310485D01*
X-304135Y40114D02*
Y44178D01*
X-300072D01*
Y40114D01*
X-304135D01*
X-316835Y65514D02*
Y69578D01*
X-312771D01*
Y65514D01*
X-316835D01*
X-323186Y52814D02*
Y56878D01*
X-319121D01*
Y52814D01*
X-323186D01*
X-316835Y40114D02*
Y44178D01*
X-312771D01*
Y40114D01*
X-316835D01*
Y-10686D02*
Y-6622D01*
X-312771D01*
Y-10686D01*
X-316835D01*
X-323186Y-23386D02*
Y-19322D01*
X-319121D01*
Y-23386D01*
X-323186D01*
Y-48786D02*
Y-44722D01*
X-319121D01*
Y-48786D01*
X-323186D01*
Y-277386D02*
Y-273322D01*
X-319121D01*
Y-277386D01*
X-323186D01*
X-329535Y65514D02*
Y69578D01*
X-325471D01*
Y65514D01*
X-329535D01*
X-335886Y52814D02*
Y56878D01*
X-331822D01*
Y52814D01*
X-335886D01*
X-329535Y40114D02*
Y44178D01*
X-325471D01*
Y40114D01*
X-329535D01*
X-335886Y-99586D02*
Y-95522D01*
X-331822D01*
Y-99586D01*
X-335886D01*
X-329535Y-264686D02*
Y-260622D01*
X-325471D01*
Y-264686D01*
X-329535D01*
X-335886Y-277386D02*
Y-273322D01*
X-331822D01*
Y-277386D01*
X-335886D01*
X-342235Y65514D02*
Y69578D01*
X-338172D01*
Y65514D01*
X-342235D01*
X-348586Y52814D02*
Y56878D01*
X-344521D01*
Y52814D01*
X-348586D01*
X-342235Y40114D02*
Y44178D01*
X-338172D01*
Y40114D01*
X-342235D01*
Y-10686D02*
Y-6622D01*
X-338172D01*
Y-10686D01*
X-342235D01*
Y-36086D02*
Y-32022D01*
X-338172D01*
Y-36086D01*
X-342235D01*
X-348586Y-99586D02*
Y-95522D01*
X-344521D01*
Y-99586D01*
X-348586D01*
Y-277386D02*
Y-273322D01*
X-344521D01*
Y-277386D01*
X-348586D01*
X-354935Y65514D02*
Y69578D01*
X-350872D01*
Y65514D01*
X-354935D01*
X-361286Y52814D02*
Y56878D01*
X-357221D01*
Y52814D01*
X-361286D01*
X-354935Y40114D02*
Y44178D01*
X-350872D01*
Y40114D01*
X-354935D01*
X-361286Y-277386D02*
Y-273322D01*
X-357221D01*
Y-277386D01*
X-361286D01*
X-367635Y65514D02*
Y69578D01*
X-363572D01*
Y65514D01*
X-367635D01*
X-373985Y52814D02*
Y56878D01*
X-369921D01*
Y52814D01*
X-373985D01*
X-367635Y40114D02*
Y44178D01*
X-363572D01*
Y40114D01*
X-367635D01*
X-373985Y-99586D02*
Y-95522D01*
X-369921D01*
Y-99586D01*
X-373985D01*
Y-277386D02*
Y-273322D01*
X-369921D01*
Y-277386D01*
X-373985D01*
X-380336Y65514D02*
Y69578D01*
X-376272D01*
Y65514D01*
X-380336D01*
X-386685Y52814D02*
Y56878D01*
X-382621D01*
Y52814D01*
X-386685D01*
X-380336Y40114D02*
Y44178D01*
X-376272D01*
Y40114D01*
X-380336D01*
X-386685Y27414D02*
Y31478D01*
X-382621D01*
Y27414D01*
X-386685D01*
Y-277386D02*
Y-273322D01*
X-382621D01*
Y-277386D01*
X-386685D01*
X-393036Y65514D02*
Y69578D01*
X-388971D01*
Y65514D01*
X-393036D01*
X-399385Y52814D02*
Y56878D01*
X-395322D01*
Y52814D01*
X-399385D01*
X-393036Y40114D02*
Y44178D01*
X-388971D01*
Y40114D01*
X-393036D01*
X-399385Y27414D02*
Y31478D01*
X-395322D01*
Y27414D01*
X-399385D01*
Y-175786D02*
Y-171722D01*
X-395322D01*
Y-175786D01*
X-399385D01*
Y-277386D02*
Y-273322D01*
X-395322D01*
Y-277386D01*
X-399385D01*
X-405736Y65514D02*
Y69578D01*
X-401671D01*
Y65514D01*
X-405736D01*
X-412085Y52814D02*
Y56878D01*
X-408022D01*
Y52814D01*
X-412085D01*
X-405736Y40114D02*
Y44178D01*
X-401671D01*
Y40114D01*
X-405736D01*
X-412085Y27414D02*
Y31478D01*
X-408022D01*
Y27414D01*
X-412085D01*
X-405736Y14714D02*
Y18778D01*
X-401671D01*
Y14714D01*
X-405736D01*
X-412085Y-48786D02*
Y-44722D01*
X-408022D01*
Y-48786D01*
X-412085D01*
Y-74186D02*
Y-70122D01*
X-408022D01*
Y-74186D01*
X-412085D01*
Y-99586D02*
Y-95522D01*
X-408022D01*
Y-99586D01*
X-412085D01*
Y-124986D02*
Y-120922D01*
X-408022D01*
Y-124986D01*
X-412085D01*
Y-150386D02*
Y-146322D01*
X-408022D01*
Y-150386D01*
X-412085D01*
X-418436Y65514D02*
Y69578D01*
X-414371D01*
Y65514D01*
X-418436D01*
X-424785Y52814D02*
Y56878D01*
X-420722D01*
Y52814D01*
X-424785D01*
X-418436Y40114D02*
Y44178D01*
X-414371D01*
Y40114D01*
X-418436D01*
X-424785Y27414D02*
Y31478D01*
X-420722D01*
Y27414D01*
X-424785D01*
X-418436Y14714D02*
Y18778D01*
X-414371D01*
Y14714D01*
X-418436D01*
X-424785Y2014D02*
Y6078D01*
X-420722D01*
Y2014D01*
X-424785D01*
X-418436Y-137686D02*
Y-133622D01*
X-414371D01*
Y-137686D01*
X-418436D01*
X-424785Y-150386D02*
Y-146322D01*
X-420722D01*
Y-150386D01*
X-424785D01*
Y-302786D02*
Y-298722D01*
X-420722D01*
Y-302786D01*
X-424785D01*
Y-328186D02*
Y-324122D01*
X-420722D01*
Y-328186D01*
X-424785D01*
X-431135Y65514D02*
Y69578D01*
X-427071D01*
Y65514D01*
X-431135D01*
X-437486Y52814D02*
Y56878D01*
X-433422D01*
Y52814D01*
X-437486D01*
X-431135Y40114D02*
Y44178D01*
X-427071D01*
Y40114D01*
X-431135D01*
X-437486Y27414D02*
Y31478D01*
X-433422D01*
Y27414D01*
X-437486D01*
X-431135Y14714D02*
Y18778D01*
X-427071D01*
Y14714D01*
X-431135D01*
X-437486Y2014D02*
Y6078D01*
X-433422D01*
Y2014D01*
X-437486D01*
X-431135Y-137686D02*
Y-133622D01*
X-427071D01*
Y-137686D01*
X-431135D01*
X-437486Y-302786D02*
Y-298722D01*
X-433422D01*
Y-302786D01*
X-437486D01*
X-431135Y-315486D02*
Y-311422D01*
X-427071D01*
Y-315486D01*
X-431135D01*
X-437486Y-328186D02*
Y-324122D01*
X-433422D01*
Y-328186D01*
X-437486D01*
X-443835Y65514D02*
Y69578D01*
X-439771D01*
Y65514D01*
X-443835D01*
Y40114D02*
Y44178D01*
X-439771D01*
Y40114D01*
X-443835D01*
X-450186Y27414D02*
Y31478D01*
X-446121D01*
Y27414D01*
X-450186D01*
X-443835Y14714D02*
Y18778D01*
X-439771D01*
Y14714D01*
X-443835D01*
X-450186Y2014D02*
Y6078D01*
X-446121D01*
Y2014D01*
X-450186D01*
Y-302786D02*
Y-298722D01*
X-446121D01*
Y-302786D01*
X-450186D01*
X-443835Y-315486D02*
Y-311422D01*
X-439771D01*
Y-315486D01*
X-443835D01*
X-462886Y27414D02*
Y31478D01*
X-458821D01*
Y27414D01*
X-462886D01*
X-456535Y14714D02*
Y18778D01*
X-452472D01*
Y14714D01*
X-456535D01*
X-462886Y2014D02*
Y6078D01*
X-458821D01*
Y2014D01*
X-462886D01*
Y-302786D02*
Y-298722D01*
X-458821D01*
Y-302786D01*
X-462886D01*
X-469235Y14714D02*
Y18778D01*
X-465172D01*
Y14714D01*
X-469235D01*
X-475586Y2014D02*
Y6078D01*
X-471521D01*
Y2014D01*
X-475586D01*
X-481936Y14714D02*
Y18778D01*
X-477872D01*
Y14714D01*
X-481936D01*
X-494636D02*
Y18778D01*
X-490572D01*
Y14714D01*
X-494636D01*
Y-137686D02*
Y-133622D01*
X-490572D01*
Y-137686D01*
X-494636D01*
X-507336Y14714D02*
Y18778D01*
X-503271D01*
Y14714D01*
X-507336D01*
X-526385Y27414D02*
Y31478D01*
X-522322D01*
Y27414D01*
X-526385D01*
X-520036Y14714D02*
Y18778D01*
X-515971D01*
Y14714D01*
X-520036D01*
X-526385Y2014D02*
Y6078D01*
X-522322D01*
Y2014D01*
X-526385D01*
Y-23386D02*
Y-19322D01*
X-522322D01*
Y-23386D01*
X-526385D01*
Y-48786D02*
Y-44722D01*
X-522322D01*
Y-48786D01*
X-526385D01*
Y-74186D02*
Y-70122D01*
X-522322D01*
Y-74186D01*
X-526385D01*
Y-99586D02*
Y-95522D01*
X-522322D01*
Y-99586D01*
X-526385D01*
Y-302786D02*
Y-298722D01*
X-522322D01*
Y-302786D01*
X-526385D01*
X-539086Y52814D02*
Y56878D01*
X-535022D01*
Y52814D01*
X-539086D01*
X-532735Y40114D02*
Y44178D01*
X-528671D01*
Y40114D01*
X-532735D01*
X-539086Y27414D02*
Y31478D01*
X-535022D01*
Y27414D01*
X-539086D01*
X-532735Y14714D02*
Y18778D01*
X-528671D01*
Y14714D01*
X-532735D01*
X-539086Y2014D02*
Y6078D01*
X-535022D01*
Y2014D01*
X-539086D01*
X-532735Y-10686D02*
Y-6622D01*
X-528671D01*
Y-10686D01*
X-532735D01*
X-539086Y-23386D02*
Y-19322D01*
X-535022D01*
Y-23386D01*
X-539086D01*
X-532735Y-36086D02*
Y-32022D01*
X-528671D01*
Y-36086D01*
X-532735D01*
X-539086Y-48786D02*
Y-44722D01*
X-535022D01*
Y-48786D01*
X-539086D01*
X-532735Y-61486D02*
Y-57422D01*
X-528671D01*
Y-61486D01*
X-532735D01*
X-539086Y-74186D02*
Y-70122D01*
X-535022D01*
Y-74186D01*
X-539086D01*
X-532735Y-86886D02*
Y-82822D01*
X-528671D01*
Y-86886D01*
X-532735D01*
X-539086Y-99586D02*
Y-95522D01*
X-535022D01*
Y-99586D01*
X-539086D01*
X-532735Y-315486D02*
Y-311422D01*
X-528671D01*
Y-315486D01*
X-532735D01*
X-539086Y-328186D02*
Y-324122D01*
X-535022D01*
Y-328186D01*
X-539086D01*
X-545435Y65514D02*
Y69578D01*
X-541371D01*
Y65514D01*
X-545435D01*
X-551786Y52814D02*
Y56878D01*
X-547721D01*
Y52814D01*
X-551786D01*
X-545435Y40114D02*
Y44178D01*
X-541371D01*
Y40114D01*
X-545435D01*
X-551786Y27414D02*
Y31478D01*
X-547721D01*
Y27414D01*
X-551786D01*
X-545435Y14714D02*
Y18778D01*
X-541371D01*
Y14714D01*
X-545435D01*
X-551786Y2014D02*
Y6078D01*
X-547721D01*
Y2014D01*
X-551786D01*
X-545435Y-10686D02*
Y-6622D01*
X-541371D01*
Y-10686D01*
X-545435D01*
X-551786Y-23386D02*
Y-19322D01*
X-547721D01*
Y-23386D01*
X-551786D01*
X-545435Y-36086D02*
Y-32022D01*
X-541371D01*
Y-36086D01*
X-545435D01*
X-551786Y-48786D02*
Y-44722D01*
X-547721D01*
Y-48786D01*
X-551786D01*
X-545435Y-61486D02*
Y-57422D01*
X-541371D01*
Y-61486D01*
X-545435D01*
X-551786Y-74186D02*
Y-70122D01*
X-547721D01*
Y-74186D01*
X-551786D01*
Y-328186D02*
Y-324122D01*
X-547721D01*
Y-328186D01*
X-551786D01*
X-558135Y65514D02*
Y69578D01*
X-554072D01*
Y65514D01*
X-558135D01*
X-564486Y52814D02*
Y56878D01*
X-560421D01*
Y52814D01*
X-564486D01*
X-558135Y40114D02*
Y44178D01*
X-554072D01*
Y40114D01*
X-558135D01*
X-564486Y27414D02*
Y31478D01*
X-560421D01*
Y27414D01*
X-564486D01*
X-558135Y14714D02*
Y18778D01*
X-554072D01*
Y14714D01*
X-558135D01*
X-564486Y2014D02*
Y6078D01*
X-560421D01*
Y2014D01*
X-564486D01*
X-558135Y-10686D02*
Y-6622D01*
X-554072D01*
Y-10686D01*
X-558135D01*
X-564486Y-23386D02*
Y-19322D01*
X-560421D01*
Y-23386D01*
X-564486D01*
X-558135Y-36086D02*
Y-32022D01*
X-554072D01*
Y-36086D01*
X-558135D01*
X-564486Y-48786D02*
Y-44722D01*
X-560421D01*
Y-48786D01*
X-564486D01*
X-558135Y-61486D02*
Y-57422D01*
X-554072D01*
Y-61486D01*
X-558135D01*
X-564486Y-74186D02*
Y-70122D01*
X-560421D01*
Y-74186D01*
X-564486D01*
Y-201186D02*
Y-197122D01*
X-560421D01*
Y-201186D01*
X-564486D01*
Y-328186D02*
Y-324122D01*
X-560421D01*
Y-328186D01*
X-564486D01*
X-570835Y65514D02*
Y69578D01*
X-566772D01*
Y65514D01*
X-570835D01*
Y40114D02*
Y44178D01*
X-566772D01*
Y40114D01*
X-570835D01*
Y14714D02*
Y18778D01*
X-566772D01*
Y14714D01*
X-570835D01*
X-577186Y2014D02*
Y6078D01*
X-573121D01*
Y2014D01*
X-577186D01*
X-570835Y-10686D02*
Y-6622D01*
X-566772D01*
Y-10686D01*
X-570835D01*
X-577186Y-23386D02*
Y-19322D01*
X-573121D01*
Y-23386D01*
X-577186D01*
X-570835Y-36086D02*
Y-32022D01*
X-566772D01*
Y-36086D01*
X-570835D01*
X-577186Y-48786D02*
Y-44722D01*
X-573121D01*
Y-48786D01*
X-577186D01*
X-570835Y-61486D02*
Y-57422D01*
X-566772D01*
Y-61486D01*
X-570835D01*
X-577186Y-74186D02*
Y-70122D01*
X-573121D01*
Y-74186D01*
X-577186D01*
Y-99586D02*
Y-95522D01*
X-573121D01*
Y-99586D01*
X-577186D01*
X-570835Y-163086D02*
Y-159022D01*
X-566772D01*
Y-163086D01*
X-570835D01*
X-577186Y-175786D02*
Y-171722D01*
X-573121D01*
Y-175786D01*
X-577186D01*
Y-201186D02*
Y-197122D01*
X-573121D01*
Y-201186D01*
X-577186D01*
X-589885Y2014D02*
Y6078D01*
X-585821D01*
Y2014D01*
X-589885D01*
X-583535Y-10686D02*
Y-6622D01*
X-579472D01*
Y-10686D01*
X-583535D01*
X-589885Y-23386D02*
Y-19322D01*
X-585821D01*
Y-23386D01*
X-589885D01*
X-583535Y-36086D02*
Y-32022D01*
X-579472D01*
Y-36086D01*
X-583535D01*
X-589885Y-48786D02*
Y-44722D01*
X-585821D01*
Y-48786D01*
X-589885D01*
X-583535Y-61486D02*
Y-57422D01*
X-579472D01*
Y-61486D01*
X-583535D01*
X-589885Y-74186D02*
Y-70122D01*
X-585821D01*
Y-74186D01*
X-589885D01*
X-583535Y-86886D02*
Y-82822D01*
X-579472D01*
Y-86886D01*
X-583535D01*
X-589885Y-99586D02*
Y-95522D01*
X-585821D01*
Y-99586D01*
X-589885D01*
X-583535Y-188486D02*
Y-184422D01*
X-579472D01*
Y-188486D01*
X-583535D01*
X-602585Y2014D02*
Y6078D01*
X-598521D01*
Y2014D01*
X-602585D01*
X-596236Y-10686D02*
Y-6622D01*
X-592172D01*
Y-10686D01*
X-596236D01*
X-602585Y-23386D02*
Y-19322D01*
X-598521D01*
Y-23386D01*
X-602585D01*
X-596236Y-36086D02*
Y-32022D01*
X-592172D01*
Y-36086D01*
X-596236D01*
X-602585Y-48786D02*
Y-44722D01*
X-598521D01*
Y-48786D01*
X-602585D01*
X-596236Y-61486D02*
Y-57422D01*
X-592172D01*
Y-61486D01*
X-596236D01*
X-602585Y-74186D02*
Y-70122D01*
X-598521D01*
Y-74186D01*
X-602585D01*
X-596236Y-86886D02*
Y-82822D01*
X-592172D01*
Y-86886D01*
X-596236D01*
Y-112286D02*
Y-108222D01*
X-592172D01*
Y-112286D01*
X-596236D01*
X-602585Y-277386D02*
Y-273322D01*
X-598521D01*
Y-277386D01*
X-602585D01*
X-615285Y2014D02*
Y6078D01*
X-611222D01*
Y2014D01*
X-615285D01*
X-608936Y-10686D02*
Y-6622D01*
X-604871D01*
Y-10686D01*
X-608936D01*
X-615285Y-23386D02*
Y-19322D01*
X-611222D01*
Y-23386D01*
X-615285D01*
X-608936Y-36086D02*
Y-32022D01*
X-604871D01*
Y-36086D01*
X-608936D01*
X-615285Y-48786D02*
Y-44722D01*
X-611222D01*
Y-48786D01*
X-615285D01*
X-608936Y-61486D02*
Y-57422D01*
X-604871D01*
Y-61486D01*
X-608936D01*
X-615285Y-74186D02*
Y-70122D01*
X-611222D01*
Y-74186D01*
X-615285D01*
X-608936Y-112286D02*
Y-108222D01*
X-604871D01*
Y-112286D01*
X-608936D01*
X-615285Y-124986D02*
Y-120922D01*
X-611222D01*
Y-124986D01*
X-615285D01*
Y-150386D02*
Y-146322D01*
X-611222D01*
Y-150386D01*
X-615285D01*
Y-226586D02*
Y-222522D01*
X-611222D01*
Y-226586D01*
X-615285D01*
Y-251986D02*
Y-247922D01*
X-611222D01*
Y-251986D01*
X-615285D01*
X-608936Y-264686D02*
Y-260622D01*
X-604871D01*
Y-264686D01*
X-608936D01*
X-615285Y-277386D02*
Y-273322D01*
X-611222D01*
Y-277386D01*
X-615285D01*
X-621636Y-10686D02*
Y-6622D01*
X-617571D01*
Y-10686D01*
X-621636D01*
Y-36086D02*
Y-32022D01*
X-617571D01*
Y-36086D01*
X-621636D01*
Y-61486D02*
Y-57422D01*
X-617571D01*
Y-61486D01*
X-621636D01*
Y-112286D02*
Y-108222D01*
X-617571D01*
Y-112286D01*
X-621636D01*
Y-137686D02*
Y-133622D01*
X-617571D01*
Y-137686D01*
X-621636D01*
Y-163086D02*
Y-159022D01*
X-617571D01*
Y-163086D01*
X-621636D01*
Y-213886D02*
Y-209822D01*
X-617571D01*
Y-213886D01*
X-621636D01*
Y-239286D02*
Y-235222D01*
X-617571D01*
Y-239286D01*
X-621636D01*
Y-264686D02*
Y-260622D01*
X-617571D01*
Y-264686D01*
X-621636D01*
X-96237Y-225393D02*
Y-221329D01*
X-92173D01*
Y-225393D01*
X-96237D01*
X-90762Y-233968D02*
Y-229904D01*
X-86698D01*
Y-233968D01*
X-90762D01*
X-106615Y-214901D02*
Y-210837D01*
X-102550D01*
Y-214901D01*
X-106615D01*
X-138916Y-184653D02*
Y-180589D01*
X-134852D01*
Y-184653D01*
X-138916D01*
X-126551Y-246100D02*
Y-242036D01*
X-122487D01*
Y-246100D01*
X-126551D01*
X-140368Y-245973D02*
Y-241909D01*
X-136304D01*
Y-245973D01*
X-140368D01*
X-128421Y-112592D02*
Y-108528D01*
X-124357D01*
Y-112592D01*
X-128421D01*
X-137800Y-112475D02*
Y-108411D01*
X-133736D01*
Y-112475D01*
X-137800D01*
X-164383Y-118476D02*
Y-114412D01*
X-160319D01*
Y-118476D01*
X-164383D01*
X-164541Y-127214D02*
Y-123150D01*
X-160478D01*
Y-127214D01*
X-164541D01*
X-107778Y-146193D02*
Y-142129D01*
X-103714D01*
Y-146193D01*
X-107778D01*
X-73330Y-159978D02*
Y-155914D01*
X-69266D01*
Y-159978D01*
X-73330D01*
X-238825Y-184048D02*
Y-179984D01*
X-234761D01*
Y-184048D01*
X-238825D01*
X-483811Y-238302D02*
Y-234238D01*
X-479747D01*
Y-238302D01*
X-483811D01*
X-74147Y-112172D02*
Y-108108D01*
X-70083D01*
Y-112172D01*
X-74147D01*
X-85235Y-80186D02*
Y-76122D01*
X-81171D01*
Y-80186D01*
X-85235D01*
X-176660Y-241092D02*
Y-237028D01*
X-172596D01*
Y-241092D01*
X-176660D01*
X-165220Y-256957D02*
Y-252893D01*
X-161156D01*
Y-256957D01*
X-165220D01*
X-165484Y-243337D02*
Y-239273D01*
X-161420D01*
Y-243337D01*
X-165484D01*
X-67213Y-149990D02*
Y-145926D01*
X-63149D01*
Y-149990D01*
X-67213D01*
X-93830Y-75935D02*
Y-71870D01*
X-89766D01*
Y-75935D01*
X-93830D01*
X-64614Y-105446D02*
Y-101382D01*
X-60550D01*
Y-105446D01*
X-64614D01*
X-50181Y-55764D02*
Y-51701D01*
X-46117D01*
Y-55764D01*
X-50181D01*
X-104014Y-77520D02*
Y-73456D01*
X-99950D01*
Y-77520D01*
X-104014D01*
X-143590Y-77203D02*
Y-73140D01*
X-139526D01*
Y-77203D01*
X-143590D01*
X-71574Y-11230D02*
Y-7166D01*
X-67510D01*
Y-11230D01*
X-71574D01*
X-195088Y-38069D02*
Y-34005D01*
X-191024D01*
Y-38069D01*
X-195088D01*
X-566945Y-252634D02*
Y-248570D01*
X-562881D01*
Y-252634D01*
X-566945D01*
X-474303Y-211326D02*
Y-207262D01*
X-470239D01*
Y-211326D01*
X-474303D01*
X-54448Y-101926D02*
Y-97862D01*
X-50384D01*
Y-101926D01*
X-54448D01*
X-547879Y-211367D02*
Y-207303D01*
X-543815D01*
Y-211367D01*
X-547879D01*
X-555465Y-203784D02*
Y-199720D01*
X-551401D01*
Y-203784D01*
X-555465D01*
X-554848Y-242216D02*
Y-238152D01*
X-550784D01*
Y-242216D01*
X-554848D01*
X-516336Y-240404D02*
Y-236340D01*
X-512272D01*
Y-240404D01*
X-516336D01*
X-554969Y-257953D02*
Y-253890D01*
X-550905D01*
Y-257953D01*
X-554969D01*
X-618647Y-197127D02*
Y-193063D01*
X-614583D01*
Y-197127D01*
X-618647D01*
X-104120Y-91679D02*
Y-87615D01*
X-100056D01*
Y-91679D01*
X-104120D01*
X-612601Y-270904D02*
Y-266840D01*
X-608537D01*
Y-270904D01*
X-612601D01*
X-584542Y-242477D02*
Y-238413D01*
X-580478D01*
Y-242477D01*
X-584542D01*
X-286091Y-145836D02*
Y-141772D01*
X-282027D01*
Y-145836D01*
X-286091D01*
X-501428Y-197031D02*
Y-192967D01*
X-497364D01*
Y-197031D01*
X-501428D01*
X-553230Y-303421D02*
Y-299357D01*
X-549166D01*
Y-303421D01*
X-553230D01*
X-558675Y-312149D02*
Y-308085D01*
X-554611D01*
Y-312149D01*
X-558675D01*
X-565241Y-303341D02*
Y-299277D01*
X-561177D01*
Y-303341D01*
X-565241D01*
X-106581Y-117575D02*
Y-113511D01*
X-102517D01*
Y-117575D01*
X-106581D01*
X-143364Y-232171D02*
Y-228107D01*
X-139300D01*
Y-232171D01*
X-143364D01*
X-249283Y-211723D02*
Y-207659D01*
X-245219D01*
Y-211723D01*
X-249283D01*
X-333262Y-229991D02*
Y-225927D01*
X-329198D01*
Y-229991D01*
X-333262D01*
X-379564Y-192389D02*
Y-188325D01*
X-375500D01*
Y-192389D01*
X-379564D01*
X-291732Y-191333D02*
Y-187269D01*
X-287668D01*
Y-191333D01*
X-291732D01*
X-282631Y-181942D02*
Y-177878D01*
X-278567D01*
Y-181942D01*
X-282631D01*
X-500639Y-135504D02*
Y-131440D01*
X-496575D01*
Y-135504D01*
X-500639D01*
X-501117Y-145868D02*
Y-141804D01*
X-497053D01*
Y-145868D01*
X-501117D01*
X-501424Y-158243D02*
Y-154179D01*
X-497360D01*
Y-158243D01*
X-501424D01*
X-503005Y-99232D02*
Y-95168D01*
X-498941D01*
Y-99232D01*
X-503005D01*
X-558666Y-161435D02*
Y-157371D01*
X-554602D01*
Y-161435D01*
X-558666D01*
X-506143Y-221317D02*
Y-217253D01*
X-502079D01*
Y-221317D01*
X-506143D01*
X-106795Y-135381D02*
Y-131317D01*
X-102731D01*
Y-135381D01*
X-106795D01*
X-99611Y-145705D02*
Y-141641D01*
X-95547D01*
Y-145705D01*
X-99611D01*
X-74293Y-4934D02*
Y-870D01*
X-70229D01*
Y-4934D01*
X-74293D01*
X-118409Y-11393D02*
Y-7329D01*
X-114345D01*
Y-11393D01*
X-118409D01*
X-150664Y5843D02*
Y9907D01*
X-146600D01*
Y5843D01*
X-150664D01*
X-74951Y-239727D02*
Y-235663D01*
X-70887D01*
Y-239727D01*
X-74951D01*
X-89060Y-253773D02*
Y-249709D01*
X-84996D01*
Y-253773D01*
X-89060D01*
X-143421Y-191645D02*
Y-187581D01*
X-139357D01*
Y-191645D01*
X-143421D01*
X-208748Y-83344D02*
Y-79280D01*
X-204684D01*
Y-83344D01*
X-208748D01*
X-99365Y-157066D02*
Y-153003D01*
X-95301D01*
Y-157066D01*
X-99365D01*
X-474597Y-256684D02*
Y-252621D01*
X-470533D01*
Y-256684D01*
X-474597D01*
X-491674Y-256374D02*
Y-252310D01*
X-487611D01*
Y-256374D01*
X-491674D01*
X-299820Y-11025D02*
Y-6961D01*
X-295756D01*
Y-11025D01*
X-299820D01*
X-76623Y-151802D02*
Y-147738D01*
X-72559D01*
Y-151802D01*
X-76623D01*
X-315256Y8129D02*
Y12193D01*
X-311192D01*
Y8129D01*
X-315256D01*
X-65307Y17924D02*
Y21988D01*
X-61243D01*
Y17924D01*
X-65307D01*
X-413537Y4402D02*
Y8466D01*
X-409473D01*
Y4402D01*
X-413537D01*
X-108754Y-67309D02*
Y-63245D01*
X-104690D01*
Y-67309D01*
X-108754D01*
X-126744Y-143893D02*
Y-139829D01*
X-122680D01*
Y-143893D01*
X-126744D01*
X-143227Y-208841D02*
Y-204778D01*
X-139163D01*
Y-208841D01*
X-143227D01*
X-150484Y-50551D02*
Y-46487D01*
X-146419D01*
Y-50551D01*
X-150484D01*
Y-61727D02*
Y-57663D01*
X-146419D01*
Y-61727D01*
X-150484D01*
X-232500Y-65452D02*
Y-61388D01*
X-228436D01*
Y-65452D01*
X-232500D01*
X-150484Y-72903D02*
Y-68839D01*
X-146419D01*
Y-72903D01*
X-150484D01*
X-77989Y1356D02*
Y5420D01*
X-73924D01*
Y1356D01*
X-77989D01*
X-309735Y-2923D02*
Y1141D01*
X-305671D01*
Y-2923D01*
X-309735D01*
X-219948Y-44191D02*
Y-40127D01*
X-215884D01*
Y-44191D01*
X-219948D01*
X-455516Y-116077D02*
Y-112013D01*
X-451452D01*
Y-116077D01*
X-455516D01*
X-210201Y13703D02*
Y17767D01*
X-206137D01*
Y13703D01*
X-210201D01*
X-102599Y-198273D02*
Y-194209D01*
X-98535D01*
Y-198273D01*
X-102599D01*
X-117210Y-127811D02*
Y-123747D01*
X-113146D01*
Y-127811D01*
X-117210D01*
X-120806Y-138390D02*
Y-134326D01*
X-116742D01*
Y-138390D01*
X-120806D01*
X-62450Y-200148D02*
Y-196084D01*
X-58386D01*
Y-200148D01*
X-62450D01*
X-76809Y-253754D02*
Y-249690D01*
X-72745D01*
Y-253754D01*
X-76809D01*
X-55776Y-188976D02*
Y-184912D01*
X-51712D01*
Y-188976D01*
X-55776D01*
X-53605Y-208520D02*
Y-204456D01*
X-49541D01*
Y-208520D01*
X-53605D01*
X-54638Y-233049D02*
Y-228985D01*
X-50574D01*
Y-233049D01*
X-54638D01*
X-232500Y-131831D02*
Y-127767D01*
X-228436D01*
Y-131831D01*
X-232500D01*
X-227674Y-203459D02*
Y-199395D01*
X-223610D01*
Y-203459D01*
X-227674D01*
X-323940Y-98303D02*
Y-94239D01*
X-319876D01*
Y-98303D01*
X-323940D01*
X-202119Y-167914D02*
Y-163850D01*
X-198055D01*
Y-167914D01*
X-202119D01*
X-219546Y-130815D02*
Y-126751D01*
X-215482D01*
Y-130815D01*
X-219546D01*
X-295746Y-119639D02*
Y-115575D01*
X-291682D01*
Y-119639D01*
X-295746D01*
X-541617Y-193851D02*
Y-189787D01*
X-537553D01*
Y-193851D01*
X-541617D01*
X-274382Y-249735D02*
Y-245671D01*
X-270318D01*
Y-249735D01*
X-274382D01*
X-258800D02*
Y-245671D01*
X-254736D01*
Y-249735D01*
X-258800D01*
X-243392D02*
Y-245671D01*
X-239328D01*
Y-249735D01*
X-243392D01*
X-534235Y-130530D02*
Y-126466D01*
X-530171D01*
Y-130530D01*
X-534235D01*
X-569966Y-112665D02*
Y-108601D01*
X-565901D01*
Y-112665D01*
X-569966D01*
X-534235D02*
Y-108601D01*
X-530171D01*
Y-112665D01*
X-534235D01*
X-540949Y-171793D02*
Y-167729D01*
X-536885D01*
Y-171793D01*
X-540949D01*
X-552100Y-112665D02*
Y-108601D01*
X-548036D01*
Y-112665D01*
X-552100D01*
X-526924Y-172275D02*
Y-168211D01*
X-522860D01*
Y-172275D01*
X-526924D01*
X-527176Y-194128D02*
Y-190063D01*
X-523112D01*
Y-194128D01*
X-527176D01*
X-513830Y-194613D02*
Y-190549D01*
X-509767D01*
Y-194613D01*
X-513830D01*
X-459525Y-194119D02*
Y-190055D01*
X-455461D01*
Y-194119D01*
X-459525D01*
X-474934D02*
Y-190055D01*
X-470869D01*
Y-194119D01*
X-474934D01*
X-490515D02*
Y-190055D01*
X-486451D01*
Y-194119D01*
X-490515D01*
D78*
X-581518Y-112819D02*
G03*
X-581518Y-112819I-2032J0D01*
G01*
Y-156819D02*
G03*
X-581518Y-156819I-2032J0D01*
G01*
M02*
