G04*
G04 #@! TF.GenerationSoftware,Altium Limited,Altium Designer,24.0.1 (36)*
G04*
G04 Layer_Color=8388736*
%FSLAX44Y44*%
%MOMM*%
G71*
G04*
G04 #@! TF.SameCoordinates,E4FC931E-1C7A-40CD-B5D5-C7D3481EEB9B*
G04*
G04*
G04 #@! TF.FilePolarity,Positive*
G04*
G01*
G75*
%ADD11C,0.2540*%
%ADD13C,0.1524*%
D11*
X-606722Y90026D02*
X-601642Y74786D01*
X-611802D02*
X-606722Y90026D01*
X-611802Y-314734D02*
X-606722Y-329974D01*
X-601642Y-314734D01*
X-606722Y-70460D02*
Y90026D01*
Y-329974D02*
Y-177616D01*
X-609263Y90026D02*
X-493002D01*
X-609263Y-329974D02*
X-493002D01*
X-540462Y153747D02*
X-525222Y158827D01*
X-540462Y153747D02*
X-525222Y148667D01*
X94298D02*
X109538Y153747D01*
X94298Y158827D02*
X109538Y153747D01*
X-540462D02*
X-273104D01*
X-165948D02*
X109538D01*
X-540462Y32566D02*
Y156287D01*
X109538Y92566D02*
Y156287D01*
D13*
X-597581Y-165935D02*
X-612816D01*
X-605199Y-173552D01*
Y-163395D01*
X-597581Y-148160D02*
Y-158317D01*
X-607738Y-148160D01*
X-610277D01*
X-612816Y-150699D01*
Y-155778D01*
X-610277Y-158317D01*
X-597581Y-143082D02*
X-600120D01*
Y-140543D01*
X-597581D01*
Y-143082D01*
X-610277Y-130386D02*
X-612816Y-127847D01*
Y-122768D01*
X-610277Y-120229D01*
X-600120D01*
X-597581Y-122768D01*
Y-127847D01*
X-600120Y-130386D01*
X-610277D01*
Y-115151D02*
X-612816Y-112612D01*
Y-107533D01*
X-610277Y-104994D01*
X-600120D01*
X-597581Y-107533D01*
Y-112612D01*
X-600120Y-115151D01*
X-610277D01*
X-597581Y-99916D02*
X-607738D01*
Y-97377D01*
X-605199Y-94838D01*
X-597581D01*
X-605199D01*
X-607738Y-92298D01*
X-605199Y-89759D01*
X-597581D01*
Y-84681D02*
X-607738D01*
Y-82142D01*
X-605199Y-79602D01*
X-597581D01*
X-605199D01*
X-607738Y-77063D01*
X-605199Y-74524D01*
X-597581D01*
X-258883Y159840D02*
X-263961Y157301D01*
X-269040Y152223D01*
Y147144D01*
X-266500Y144605D01*
X-261422D01*
X-258883Y147144D01*
Y149683D01*
X-261422Y152223D01*
X-269040D01*
X-243648Y159840D02*
X-253804D01*
Y152223D01*
X-248726Y154762D01*
X-246187D01*
X-243648Y152223D01*
Y147144D01*
X-246187Y144605D01*
X-251265D01*
X-253804Y147144D01*
X-238569Y144605D02*
Y147144D01*
X-236030D01*
Y144605D01*
X-238569D01*
X-225874Y157301D02*
X-223334Y159840D01*
X-218256D01*
X-215717Y157301D01*
Y147144D01*
X-218256Y144605D01*
X-223334D01*
X-225874Y147144D01*
Y157301D01*
X-210639D02*
X-208099Y159840D01*
X-203021D01*
X-200482Y157301D01*
Y147144D01*
X-203021Y144605D01*
X-208099D01*
X-210639Y147144D01*
Y157301D01*
X-195403Y144605D02*
Y154762D01*
X-192864D01*
X-190325Y152223D01*
Y144605D01*
Y152223D01*
X-187786Y154762D01*
X-185247Y152223D01*
Y144605D01*
X-180168D02*
Y154762D01*
X-177629D01*
X-175090Y152223D01*
Y144605D01*
Y152223D01*
X-172551Y154762D01*
X-170012Y152223D01*
Y144605D01*
M02*
