G04*
G04 #@! TF.GenerationSoftware,Altium Limited,Altium Designer,24.0.1 (36)*
G04*
G04 Layer_Color=8388736*
%FSLAX44Y44*%
%MOMM*%
G71*
G04*
G04 #@! TF.SameCoordinates,E4E742BE-E936-4CAC-BADB-82586D2B27CE*
G04*
G04*
G04 #@! TF.FilePolarity,Negative*
G04*
G01*
G75*
G04:AMPARAMS|DCode=29|XSize=1.2032mm|YSize=0.9032mm|CornerRadius=0.2766mm|HoleSize=0mm|Usage=FLASHONLY|Rotation=270.000|XOffset=0mm|YOffset=0mm|HoleType=Round|Shape=RoundedRectangle|*
%AMROUNDEDRECTD29*
21,1,1.2032,0.3500,0,0,270.0*
21,1,0.6500,0.9032,0,0,270.0*
1,1,0.5532,-0.1750,-0.3250*
1,1,0.5532,-0.1750,0.3250*
1,1,0.5532,0.1750,0.3250*
1,1,0.5532,0.1750,-0.3250*
%
%ADD29ROUNDEDRECTD29*%
%ADD30R,1.4032X1.8532*%
G04:AMPARAMS|DCode=31|XSize=1.2032mm|YSize=0.9032mm|CornerRadius=0.2766mm|HoleSize=0mm|Usage=FLASHONLY|Rotation=180.000|XOffset=0mm|YOffset=0mm|HoleType=Round|Shape=RoundedRectangle|*
%AMROUNDEDRECTD31*
21,1,1.2032,0.3500,0,0,180.0*
21,1,0.6500,0.9032,0,0,180.0*
1,1,0.5532,-0.3250,0.1750*
1,1,0.5532,0.3250,0.1750*
1,1,0.5532,0.3250,-0.1750*
1,1,0.5532,-0.3250,-0.1750*
%
%ADD31ROUNDEDRECTD31*%
G04:AMPARAMS|DCode=32|XSize=1.0032mm|YSize=1.4032mm|CornerRadius=0.2616mm|HoleSize=0mm|Usage=FLASHONLY|Rotation=90.000|XOffset=0mm|YOffset=0mm|HoleType=Round|Shape=RoundedRectangle|*
%AMROUNDEDRECTD32*
21,1,1.0032,0.8800,0,0,90.0*
21,1,0.4800,1.4032,0,0,90.0*
1,1,0.5232,0.4400,0.2400*
1,1,0.5232,0.4400,-0.2400*
1,1,0.5232,-0.4400,-0.2400*
1,1,0.5232,-0.4400,0.2400*
%
%ADD32ROUNDEDRECTD32*%
G04:AMPARAMS|DCode=33|XSize=2.2632mm|YSize=2.2232mm|CornerRadius=0.3541mm|HoleSize=0mm|Usage=FLASHONLY|Rotation=270.000|XOffset=0mm|YOffset=0mm|HoleType=Round|Shape=RoundedRectangle|*
%AMROUNDEDRECTD33*
21,1,2.2632,1.5150,0,0,270.0*
21,1,1.5550,2.2232,0,0,270.0*
1,1,0.7082,-0.7575,-0.7775*
1,1,0.7082,-0.7575,0.7775*
1,1,0.7082,0.7575,0.7775*
1,1,0.7082,0.7575,-0.7775*
%
%ADD33ROUNDEDRECTD33*%
G04:AMPARAMS|DCode=34|XSize=2.2632mm|YSize=2.2232mm|CornerRadius=0.3541mm|HoleSize=0mm|Usage=FLASHONLY|Rotation=0.000|XOffset=0mm|YOffset=0mm|HoleType=Round|Shape=RoundedRectangle|*
%AMROUNDEDRECTD34*
21,1,2.2632,1.5150,0,0,0.0*
21,1,1.5550,2.2232,0,0,0.0*
1,1,0.7082,0.7775,-0.7575*
1,1,0.7082,-0.7775,-0.7575*
1,1,0.7082,-0.7775,0.7575*
1,1,0.7082,0.7775,0.7575*
%
%ADD34ROUNDEDRECTD34*%
%ADD35R,2.9032X1.2032*%
%ADD36O,1.4032X0.5032*%
%ADD37R,2.9032X3.5032*%
%ADD38O,0.5032X1.4032*%
%ADD39R,3.3332X3.3332*%
%ADD40R,4.2032X5.7032*%
%ADD41R,2.2032X4.3032*%
%ADD42R,3.2032X1.2232*%
%ADD43R,7.7032X8.5332*%
%ADD44R,3.2032X1.4382*%
G04:AMPARAMS|DCode=45|XSize=1.0132mm|YSize=1.1032mm|CornerRadius=0.3041mm|HoleSize=0mm|Usage=FLASHONLY|Rotation=0.000|XOffset=0mm|YOffset=0mm|HoleType=Round|Shape=RoundedRectangle|*
%AMROUNDEDRECTD45*
21,1,1.0132,0.4950,0,0,0.0*
21,1,0.4050,1.1032,0,0,0.0*
1,1,0.6082,0.2025,-0.2475*
1,1,0.6082,-0.2025,-0.2475*
1,1,0.6082,-0.2025,0.2475*
1,1,0.6082,0.2025,0.2475*
%
%ADD45ROUNDEDRECTD45*%
G36*
X-74003Y346090D02*
X-79003D01*
Y353840D01*
X-74003D01*
Y346090D01*
D02*
G37*
G36*
Y356840D02*
X-79003D01*
Y364590D01*
X-74003D01*
Y356840D01*
D02*
G37*
G36*
X-48003Y346090D02*
X-53003D01*
Y353840D01*
X-48003D01*
Y346090D01*
D02*
G37*
G36*
Y356840D02*
X-53003D01*
Y364590D01*
X-48003D01*
Y356840D01*
D02*
G37*
D29*
X-133508Y180220D02*
D03*
X-151508D02*
D03*
X-558630Y57119D02*
D03*
X-575630D02*
D03*
X-575626Y72841D02*
D03*
X-558626D02*
D03*
X-575630Y88578D02*
D03*
X-558630D02*
D03*
X-209700Y259088D02*
D03*
X-226700D02*
D03*
X-209200Y242018D02*
D03*
X-227200D02*
D03*
Y224193D02*
D03*
X-209200D02*
D03*
Y206369D02*
D03*
X-227200D02*
D03*
Y188544D02*
D03*
X-209200D02*
D03*
Y170720D02*
D03*
X-227200D02*
D03*
X-133698Y162056D02*
D03*
X-150698D02*
D03*
X-151508Y72676D02*
D03*
X-133508D02*
D03*
X-227200Y72676D02*
D03*
X-209200D02*
D03*
X-189354Y146558D02*
D03*
X-171354D02*
D03*
X-209200Y146050D02*
D03*
X-227200D02*
D03*
Y128422D02*
D03*
X-209200D02*
D03*
X-227200Y110795D02*
D03*
X-209200D02*
D03*
X-227200Y93167D02*
D03*
X-209200D02*
D03*
X-134008Y260668D02*
D03*
X-151008D02*
D03*
X-56378Y296588D02*
D03*
X-74378Y310753D02*
D03*
X-57378D02*
D03*
X-74378Y324919D02*
D03*
X-56378D02*
D03*
X-452514Y104054D02*
D03*
X-435514D02*
D03*
X-74378Y296588D02*
D03*
X-453514Y88646D02*
D03*
X-435514D02*
D03*
X-575630Y104308D02*
D03*
X-558630D02*
D03*
X-469298Y231156D02*
D03*
X-486298D02*
D03*
X-533524Y230886D02*
D03*
X-515524D02*
D03*
X-74378Y339084D02*
D03*
X-56378D02*
D03*
D30*
X-80776Y355340D02*
D03*
X-46486D02*
D03*
D31*
X-151182Y243518D02*
D03*
Y225518D02*
D03*
Y148058D02*
D03*
Y130058D02*
D03*
X-297702Y107948D02*
D03*
X-280430Y75948D02*
D03*
Y107948D02*
D03*
X-297702Y75948D02*
D03*
X-262904Y125948D02*
D03*
Y107948D02*
D03*
X-297702Y124948D02*
D03*
X-280430Y92948D02*
D03*
Y124948D02*
D03*
X-297702Y92948D02*
D03*
D32*
X-194132Y92676D02*
D03*
Y73676D02*
D03*
X-170132Y83176D02*
D03*
X-194132Y129150D02*
D03*
Y110150D02*
D03*
X-170132Y119650D02*
D03*
X-194132Y190720D02*
D03*
Y171720D02*
D03*
X-170132Y181220D02*
D03*
X-194132Y227162D02*
D03*
Y208162D02*
D03*
X-170132Y217662D02*
D03*
D33*
X-194065Y286930D02*
D03*
X-107970Y329430D02*
D03*
Y286930D02*
D03*
X-151018Y329430D02*
D03*
Y286930D02*
D03*
X-194065Y329430D02*
D03*
D34*
X-291184Y174680D02*
D03*
X-333684D02*
D03*
D35*
X-323574Y77448D02*
D03*
Y123448D02*
D03*
Y100448D02*
D03*
D36*
X-523284Y103644D02*
D03*
Y113644D02*
D03*
Y108644D02*
D03*
Y98644D02*
D03*
Y93644D02*
D03*
Y88644D02*
D03*
Y83644D02*
D03*
X-471284D02*
D03*
Y88644D02*
D03*
Y93644D02*
D03*
Y103644D02*
D03*
Y108644D02*
D03*
Y113644D02*
D03*
D37*
X-382574Y100448D02*
D03*
D38*
X-512284Y72644D02*
D03*
X-507284D02*
D03*
X-502284D02*
D03*
X-497284D02*
D03*
X-492284D02*
D03*
X-487284D02*
D03*
X-482284D02*
D03*
Y124644D02*
D03*
X-487284D02*
D03*
X-492284D02*
D03*
X-497284D02*
D03*
X-502284D02*
D03*
X-507284D02*
D03*
X-512284D02*
D03*
D39*
X-497284Y98644D02*
D03*
D40*
X-486074Y192080D02*
D03*
X-376074D02*
D03*
D41*
X-295710Y331780D02*
D03*
Y244780D02*
D03*
D42*
X-383310Y264760D02*
D03*
Y281760D02*
D03*
Y298760D02*
D03*
Y315760D02*
D03*
Y332760D02*
D03*
D43*
X-500060Y298760D02*
D03*
D44*
X-522460Y346585D02*
D03*
Y250935D02*
D03*
D45*
X-117316Y354933D02*
D03*
X-103416D02*
D03*
M02*
