G04*
G04 #@! TF.GenerationSoftware,Altium Limited,Altium Designer,24.0.1 (36)*
G04*
G04 Layer_Color=32896*
%FSLAX44Y44*%
%MOMM*%
G71*
G04*
G04 #@! TF.SameCoordinates,E4E742BE-E936-4CAC-BADB-82586D2B27CE*
G04*
G04*
G04 #@! TF.FilePolarity,Positive*
G04*
G01*
G75*
%ADD11C,0.1524*%
G36*
X-516924Y294743D02*
X-516826Y294248D01*
X-516924Y293752D01*
X-517205Y293332D01*
X-517625Y293051D01*
X-518113Y292954D01*
X-518027Y293611D01*
X-517597Y294649D01*
X-517204Y295161D01*
X-516924Y294743D01*
D02*
G37*
G36*
X-517625Y285444D02*
X-517205Y285163D01*
X-516924Y284743D01*
X-516826Y284248D01*
X-516924Y283752D01*
X-517204Y283334D01*
X-517597Y283846D01*
X-518027Y284884D01*
X-518113Y285541D01*
X-517625Y285444D01*
D02*
G37*
G36*
X-474700Y295707D02*
Y282732D01*
X-487732D01*
Y282789D01*
X-474757D01*
Y295707D01*
X-487732D01*
Y295764D01*
X-474700D01*
Y295707D01*
D02*
G37*
G36*
X-490700D02*
X-503674D01*
Y282789D01*
X-490700D01*
Y282732D01*
X-503732D01*
Y282789D01*
Y295707D01*
Y295764D01*
X-490700D01*
Y295707D01*
D02*
G37*
G36*
X-516924Y278098D02*
X-516826Y277602D01*
X-516924Y277107D01*
X-517205Y276686D01*
X-517625Y276406D01*
X-518113Y276309D01*
X-518027Y276966D01*
X-517597Y278004D01*
X-517204Y278516D01*
X-516924Y278098D01*
D02*
G37*
G36*
X-517625Y268799D02*
X-517205Y268518D01*
X-516924Y268098D01*
X-516826Y267602D01*
X-516924Y267107D01*
X-517204Y266688D01*
X-517597Y267201D01*
X-518027Y268239D01*
X-518113Y268896D01*
X-517625Y268799D01*
D02*
G37*
G36*
X-474700Y279061D02*
Y266086D01*
X-487732D01*
Y266143D01*
X-474757D01*
Y279061D01*
X-487732D01*
Y279118D01*
X-474700D01*
Y279061D01*
D02*
G37*
G36*
X-490700D02*
X-503674D01*
Y266143D01*
X-490700D01*
Y266086D01*
X-503732D01*
Y266143D01*
Y279061D01*
Y279118D01*
X-490700D01*
Y279061D01*
D02*
G37*
G36*
X-516924Y261452D02*
X-516826Y260957D01*
X-516924Y260461D01*
X-517205Y260041D01*
X-517625Y259760D01*
X-518113Y259663D01*
X-518027Y260320D01*
X-517597Y261358D01*
X-517204Y261870D01*
X-516924Y261452D01*
D02*
G37*
G36*
X-111180Y255796D02*
X-110744Y255615D01*
X-110675Y255546D01*
X-110462Y255030D01*
X-110779Y254265D01*
X-111544Y253948D01*
X-111603D01*
X-111698Y254011D01*
X-111933Y254192D01*
X-112025Y254230D01*
X-112276Y254397D01*
X-112571Y254456D01*
X-112663Y254494D01*
X-112957Y254533D01*
X-113446Y254630D01*
X-113935Y254533D01*
X-114229Y254494D01*
X-114321Y254456D01*
X-114617Y254397D01*
X-114867Y254230D01*
X-114959Y254192D01*
X-115020Y254145D01*
X-115309Y254265D01*
X-115626Y255030D01*
X-115309Y255796D01*
X-114544Y256113D01*
X-111945D01*
X-111180Y255796D01*
D02*
G37*
G36*
X-517625Y252153D02*
X-517205Y251872D01*
X-516924Y251452D01*
X-516826Y250957D01*
X-516924Y250461D01*
X-517204Y250043D01*
X-517597Y250555D01*
X-518027Y251593D01*
X-518113Y252250D01*
X-517625Y252153D01*
D02*
G37*
G36*
X-474700Y262416D02*
Y249441D01*
X-487732D01*
Y249498D01*
X-474757D01*
Y262416D01*
X-487732D01*
Y262473D01*
X-474700D01*
Y262416D01*
D02*
G37*
G36*
X-490700D02*
X-503674D01*
Y249498D01*
X-490700D01*
Y249441D01*
X-503732D01*
Y249498D01*
Y262416D01*
Y262473D01*
X-490700D01*
Y262416D01*
D02*
G37*
G36*
X-115194Y249132D02*
X-115007Y248988D01*
X-115309Y249113D01*
X-115364Y249245D01*
X-115194Y249132D01*
D02*
G37*
G36*
X-110462Y249878D02*
X-110779Y249113D01*
X-111544Y248796D01*
X-112200D01*
X-112025Y248913D01*
X-111933Y248951D01*
X-111698Y249131D01*
X-111283Y249408D01*
X-111006Y249823D01*
X-110826Y250058D01*
X-110788Y250150D01*
X-110656Y250347D01*
X-110462Y249878D01*
D02*
G37*
G36*
X-139903Y244845D02*
X-140018Y244797D01*
X-139813Y244935D01*
X-139607Y245072D01*
X-139607Y245072D01*
X-139607Y245072D01*
X-139903Y244845D01*
D02*
G37*
G36*
X-177704Y244797D02*
X-177820Y244845D01*
X-178115Y245072D01*
X-177704Y244797D01*
D02*
G37*
G36*
X-156497Y245072D02*
X-156201Y244845D01*
X-156086Y244797D01*
X-155771Y244587D01*
X-155678Y244569D01*
X-157686D01*
Y243220D01*
X-160654D01*
Y244569D01*
X-161228D01*
X-161222Y244598D01*
X-160700Y245380D01*
X-160696Y245385D01*
X-156966D01*
X-156497Y245072D01*
D02*
G37*
G36*
X-516924Y244807D02*
X-516826Y244311D01*
X-516924Y243816D01*
X-517205Y243396D01*
X-517625Y243115D01*
X-518113Y243018D01*
X-518027Y243675D01*
X-517597Y244713D01*
X-517204Y245225D01*
X-516924Y244807D01*
D02*
G37*
G36*
X-517625Y235508D02*
X-517205Y235227D01*
X-516924Y234807D01*
X-516826Y234311D01*
X-516924Y233816D01*
X-517204Y233397D01*
X-517597Y233910D01*
X-518027Y234947D01*
X-518113Y235605D01*
X-517625Y235508D01*
D02*
G37*
G36*
X-490700Y245770D02*
X-503674D01*
Y232852D01*
X-490700D01*
Y232795D01*
X-503732D01*
Y232852D01*
Y245770D01*
Y245827D01*
X-490700D01*
Y245770D01*
D02*
G37*
G36*
X-474700D02*
Y232954D01*
X-474311Y233253D01*
X-473674Y233516D01*
Y232311D01*
X-473833Y231929D01*
X-474216Y231770D01*
X-475574D01*
X-475419Y232145D01*
X-474938Y232772D01*
X-474907Y232795D01*
X-487732D01*
Y232852D01*
X-474757D01*
Y245770D01*
X-487732D01*
Y245827D01*
X-474700D01*
Y245770D01*
D02*
G37*
G36*
X-473833Y230048D02*
X-473674Y229666D01*
Y227748D01*
X-474311Y228011D01*
X-474700Y228310D01*
Y216150D01*
X-487732D01*
Y216207D01*
X-474757D01*
Y229125D01*
X-487732D01*
Y229182D01*
X-475444D01*
X-475721Y229849D01*
X-475768Y230207D01*
X-474216D01*
X-473833Y230048D01*
D02*
G37*
G36*
X-516924Y228161D02*
X-516826Y227666D01*
X-516924Y227170D01*
X-517205Y226750D01*
X-517625Y226469D01*
X-518113Y226372D01*
X-518027Y227029D01*
X-517597Y228067D01*
X-517204Y228579D01*
X-516924Y228161D01*
D02*
G37*
G36*
X-517625Y218862D02*
X-517205Y218581D01*
X-516924Y218161D01*
X-516826Y217666D01*
X-516924Y217170D01*
X-517204Y216752D01*
X-517597Y217264D01*
X-518027Y218302D01*
X-518113Y218959D01*
X-517625Y218862D01*
D02*
G37*
G36*
X-490700Y229125D02*
X-503674D01*
Y216207D01*
X-490700D01*
Y216150D01*
X-503732D01*
Y229125D01*
Y229182D01*
X-490700D01*
Y229125D01*
D02*
G37*
G36*
X-138736Y213475D02*
X-138736Y212852D01*
X-138884Y212267D01*
X-139365D01*
X-139612Y212037D01*
X-138654D01*
Y213458D01*
X-138593Y213483D01*
X-138501Y213521D01*
X-138115Y213598D01*
X-138096Y213600D01*
X-138088Y213601D01*
Y212303D01*
X-138405Y211537D01*
X-139170Y211220D01*
X-140569D01*
X-140511Y211511D01*
X-140445Y211670D01*
X-140006D01*
X-139612Y212037D01*
X-139365Y212267D01*
X-139532Y212111D01*
X-139375Y212257D01*
X-138736Y212852D01*
X-138736Y218514D01*
X-138736Y213475D01*
D02*
G37*
G36*
X-536244Y158200D02*
X-536244Y158200D01*
X-536244Y207848D01*
X-536244Y207848D01*
Y158200D01*
D02*
G37*
G36*
X-434002Y137110D02*
Y132610D01*
X-434131Y131631D01*
X-434162Y131555D01*
X-434746Y132317D01*
X-435175Y133350D01*
X-435321Y134460D01*
X-435175Y135569D01*
X-434746Y136603D01*
X-434065Y137491D01*
X-434053Y137500D01*
X-434002Y137110D01*
D02*
G37*
G36*
X-465042Y124040D02*
X-464912Y123986D01*
X-465461Y124095D01*
X-465042Y124040D01*
D02*
G37*
G36*
X-473900Y123986D02*
X-473770Y124040D01*
X-473351Y124095D01*
X-473900Y123986D01*
D02*
G37*
G36*
X-464005Y123610D02*
X-463670Y123353D01*
X-464135Y123664D01*
X-464005Y123610D01*
D02*
G37*
G36*
X-475142Y123353D02*
X-474807Y123610D01*
X-474677Y123664D01*
X-475142Y123353D01*
D02*
G37*
G36*
X-498110Y125129D02*
X-498011Y124634D01*
X-498110Y124138D01*
X-498390Y123718D01*
X-498811Y123438D01*
X-499299Y123341D01*
X-499212Y123998D01*
X-498782Y125035D01*
X-498389Y125548D01*
X-498110Y125129D01*
D02*
G37*
G36*
X-505830Y125035D02*
X-505400Y123998D01*
X-505313Y123341D01*
X-505802Y123438D01*
X-506222Y123718D01*
X-506502Y124138D01*
X-506601Y124634D01*
X-506502Y125129D01*
X-506223Y125548D01*
X-505830Y125035D01*
D02*
G37*
G36*
X-549404Y125129D02*
X-549305Y124634D01*
X-549404Y124138D01*
X-549684Y123718D01*
X-550104Y123438D01*
X-550593Y123341D01*
X-550506Y123998D01*
X-550076Y125035D01*
X-549683Y125548D01*
X-549404Y125129D01*
D02*
G37*
G36*
X-557124Y125035D02*
X-556694Y123998D01*
X-556607Y123341D01*
X-557095Y123438D01*
X-557516Y123718D01*
X-557796Y124138D01*
X-557895Y124634D01*
X-557796Y125129D01*
X-557517Y125548D01*
X-557124Y125035D01*
D02*
G37*
G36*
X-498811Y115830D02*
X-498390Y115550D01*
X-498110Y115129D01*
X-498011Y114634D01*
X-498110Y114138D01*
X-498389Y113720D01*
X-498782Y114233D01*
X-499212Y115270D01*
X-499299Y115927D01*
X-498811Y115830D01*
D02*
G37*
G36*
X-505400Y115270D02*
X-505830Y114233D01*
X-506223Y113720D01*
X-506502Y114138D01*
X-506601Y114634D01*
X-506502Y115129D01*
X-506222Y115550D01*
X-505802Y115830D01*
X-505313Y115927D01*
X-505400Y115270D01*
D02*
G37*
G36*
X-550104Y115830D02*
X-549684Y115550D01*
X-549404Y115129D01*
X-549305Y114634D01*
X-549404Y114138D01*
X-549683Y113720D01*
X-550076Y114233D01*
X-550506Y115270D01*
X-550593Y115927D01*
X-550104Y115830D01*
D02*
G37*
G36*
X-556694Y115270D02*
X-557124Y114233D01*
X-557517Y113720D01*
X-557796Y114138D01*
X-557895Y114634D01*
X-557796Y115129D01*
X-557516Y115550D01*
X-557095Y115830D01*
X-556607Y115927D01*
X-556694Y115270D01*
D02*
G37*
G36*
X-169076Y113560D02*
X-169191Y113607D01*
X-169204Y113617D01*
Y113645D01*
X-169076Y113560D01*
D02*
G37*
G36*
X-179076D02*
X-179191Y113607D01*
X-179487Y113834D01*
X-179076Y113560D01*
D02*
G37*
G36*
X-516571Y105873D02*
X-516377Y104898D01*
X-516571Y103923D01*
X-517072Y103173D01*
Y106623D01*
X-516571Y105873D01*
D02*
G37*
G36*
X-568115Y105855D02*
X-567921Y104880D01*
X-568115Y103905D01*
X-568616Y103155D01*
Y106605D01*
X-568115Y105855D01*
D02*
G37*
G36*
X-570617Y107113D02*
X-569990Y106632D01*
X-569509Y106006D01*
X-569342Y105602D01*
Y103383D01*
X-569509Y102980D01*
X-569924Y102440D01*
X-570470Y102331D01*
X-571445Y102525D01*
X-572272Y103078D01*
X-572825Y103905D01*
X-573019Y104880D01*
X-572825Y105855D01*
X-572272Y106682D01*
X-571445Y107235D01*
X-571084Y107307D01*
X-570617Y107113D01*
D02*
G37*
G36*
X-569342Y90094D02*
X-569501Y90301D01*
Y92640D01*
X-569343Y93023D01*
X-569342Y93023D01*
Y90094D01*
D02*
G37*
G36*
Y89572D02*
Y87938D01*
X-569501Y87554D01*
Y89957D01*
X-569342Y89572D01*
D02*
G37*
G36*
X-273759Y358299D02*
X-273871Y358285D01*
X-273984D01*
X-274125Y358257D01*
X-274421Y358214D01*
X-274759Y358130D01*
X-275140Y358031D01*
X-275535Y357890D01*
X-275549D01*
X-275563Y357876D01*
X-275633Y357848D01*
X-275746Y357820D01*
X-275873Y357777D01*
X-276000Y357721D01*
X-276127Y357693D01*
X-276240Y357664D01*
X-276324Y357650D01*
X-276367D01*
X-276451Y357664D01*
X-276564Y357721D01*
X-276634Y357749D01*
X-276691Y357805D01*
X-276705Y357820D01*
X-276719Y357834D01*
X-276747Y357876D01*
X-276775Y357932D01*
X-276818Y358003D01*
X-276846Y358087D01*
X-276874Y358186D01*
X-276902Y358313D01*
X-273674D01*
X-273759Y358299D01*
D02*
G37*
G36*
X-268543Y353506D02*
X-268557Y353605D01*
Y353717D01*
X-268585Y353858D01*
X-268599Y353999D01*
X-268627Y354169D01*
X-268712Y354549D01*
X-268825Y354972D01*
X-268994Y355409D01*
X-269107Y355620D01*
X-269219Y355846D01*
X-269233Y355860D01*
X-269247Y355902D01*
X-269290Y355959D01*
X-269346Y356043D01*
X-269417Y356142D01*
X-269501Y356255D01*
X-269586Y356382D01*
X-269699Y356509D01*
X-269966Y356805D01*
X-270277Y357101D01*
X-270643Y357397D01*
X-271052Y357664D01*
X-271066Y357679D01*
X-271108Y357693D01*
X-271165Y357721D01*
X-271249Y357763D01*
X-271362Y357820D01*
X-271489Y357876D01*
X-271630Y357932D01*
X-271799Y357989D01*
X-271968Y358045D01*
X-272166Y358102D01*
X-272574Y358214D01*
X-273025Y358285D01*
X-273265Y358313D01*
X-268543D01*
Y353506D01*
D02*
G37*
G36*
X-366756Y357805D02*
X-366700D01*
X-366545Y357749D01*
X-366474Y357707D01*
X-366404Y357650D01*
X-366390Y357636D01*
X-366362Y357608D01*
X-366319Y357538D01*
X-366263Y357453D01*
X-366207Y357340D01*
X-366150Y357199D01*
X-366108Y357030D01*
X-366066Y356819D01*
Y356805D01*
Y356791D01*
X-366052Y356748D01*
Y356678D01*
Y356579D01*
X-366037Y356452D01*
Y356283D01*
X-366023Y356086D01*
X-366009Y355832D01*
Y355550D01*
X-365995Y355212D01*
Y354831D01*
Y354605D01*
Y354380D01*
X-365981Y354140D01*
Y353886D01*
Y353605D01*
Y353323D01*
Y353013D01*
Y352688D01*
Y352660D01*
Y352604D01*
Y352505D01*
Y352378D01*
Y352223D01*
X-365995Y352040D01*
Y351842D01*
Y351645D01*
X-366009Y351208D01*
X-366037Y350785D01*
X-366052Y350574D01*
X-366066Y350391D01*
X-366080Y350235D01*
X-366108Y350094D01*
Y350080D01*
X-366122Y350024D01*
X-366150Y349939D01*
X-366179Y349841D01*
X-366263Y349629D01*
X-366319Y349531D01*
X-366390Y349460D01*
X-366404D01*
X-366432Y349432D01*
X-366474Y349418D01*
X-366531Y349390D01*
X-366601Y349361D01*
X-366686Y349333D01*
X-366785Y349319D01*
X-366897Y349305D01*
X-366954D01*
X-367010Y349319D01*
X-367095Y349333D01*
X-367165Y349361D01*
X-367250Y349390D01*
X-367334Y349446D01*
X-367405Y349516D01*
X-367419Y349531D01*
X-367447Y349587D01*
X-367504Y349672D01*
X-367546Y349798D01*
X-367602Y349953D01*
X-367659Y350165D01*
X-367701Y350391D01*
X-367729Y350672D01*
X-367757Y353562D01*
Y353591D01*
Y353661D01*
Y353788D01*
Y353943D01*
Y354126D01*
Y354338D01*
Y354563D01*
Y354803D01*
Y355282D01*
X-367743Y355522D01*
Y355733D01*
Y355931D01*
Y356114D01*
X-367729Y356241D01*
Y356339D01*
Y356353D01*
Y356382D01*
X-367715Y356424D01*
Y356494D01*
X-367701Y356650D01*
X-367659Y356847D01*
X-367616Y357058D01*
X-367560Y357256D01*
X-367490Y357453D01*
X-367447Y357524D01*
X-367405Y357594D01*
X-367391Y357608D01*
X-367377Y357636D01*
X-367334Y357664D01*
X-367278Y357707D01*
X-367193Y357749D01*
X-367109Y357791D01*
X-366982Y357805D01*
X-366855Y357820D01*
X-366813D01*
X-366756Y357805D01*
D02*
G37*
G36*
X-277170Y355155D02*
X-276902D01*
Y355169D01*
X-276888Y355212D01*
X-276874Y355268D01*
X-276846Y355367D01*
X-276803Y355465D01*
X-276761Y355578D01*
X-276648Y355860D01*
X-276507Y356170D01*
X-276310Y356480D01*
X-276084Y356791D01*
X-275803Y357058D01*
X-275788Y357072D01*
X-275760Y357087D01*
X-275718Y357115D01*
X-275662Y357157D01*
X-275591Y357213D01*
X-275492Y357270D01*
X-275281Y357397D01*
X-274999Y357509D01*
X-274703Y357622D01*
X-274351Y357693D01*
X-274167Y357721D01*
X-273899D01*
X-273843Y357707D01*
X-273759D01*
X-273674Y357693D01*
X-273463Y357664D01*
X-273223Y357594D01*
X-272955Y357509D01*
X-272687Y357397D01*
X-272419Y357228D01*
X-272405D01*
X-272391Y357199D01*
X-272306Y357143D01*
X-272180Y357030D01*
X-272025Y356875D01*
X-271855Y356692D01*
X-271686Y356466D01*
X-271517Y356213D01*
X-271376Y355931D01*
Y355916D01*
X-271362Y355888D01*
X-271334Y355832D01*
X-271320Y355747D01*
X-271278Y355663D01*
X-271249Y355550D01*
X-271207Y355409D01*
X-271179Y355268D01*
X-271136Y355113D01*
X-271094Y354930D01*
X-271038Y354549D01*
X-270981Y354126D01*
X-270967Y353675D01*
Y353661D01*
Y353619D01*
Y353562D01*
Y353464D01*
X-270981Y353365D01*
Y353238D01*
X-270996Y353097D01*
X-271010Y352942D01*
X-271038Y352590D01*
X-271094Y352223D01*
X-271165Y351828D01*
X-271263Y351448D01*
Y351434D01*
X-271278Y351405D01*
X-271292Y351349D01*
X-271320Y351279D01*
X-271362Y351194D01*
X-271390Y351109D01*
X-271503Y350884D01*
X-271630Y350630D01*
X-271799Y350391D01*
X-271996Y350137D01*
X-272222Y349925D01*
X-272236D01*
X-272250Y349897D01*
X-272292Y349883D01*
X-272349Y349841D01*
X-272490Y349770D01*
X-272687Y349672D01*
X-272927Y349573D01*
X-273223Y349502D01*
X-273561Y349446D01*
X-273928Y349418D01*
X-274069D01*
X-274153Y349432D01*
X-274238D01*
X-274449Y349460D01*
X-274689Y349502D01*
X-274957Y349573D01*
X-275225Y349657D01*
X-275492Y349784D01*
X-275507D01*
X-275521Y349798D01*
X-275563Y349827D01*
X-275619Y349855D01*
X-275760Y349953D01*
X-275958Y350094D01*
X-276183Y350264D01*
X-276437Y350489D01*
X-276719Y350757D01*
X-277015Y351081D01*
Y350306D01*
X-277001Y350292D01*
X-276987Y350278D01*
X-276945Y350235D01*
X-276888Y350179D01*
X-276733Y350038D01*
X-276521Y349855D01*
X-276282Y349672D01*
X-276014Y349474D01*
X-275718Y349291D01*
X-275408Y349136D01*
X-275394D01*
X-275366Y349122D01*
X-275323Y349108D01*
X-275267Y349080D01*
X-275182Y349051D01*
X-275098Y349023D01*
X-274985Y348995D01*
X-274858Y348967D01*
X-274576Y348896D01*
X-274252Y348840D01*
X-273885Y348797D01*
X-273477Y348783D01*
X-273336D01*
X-273237Y348797D01*
X-273110D01*
X-272955Y348812D01*
X-272786Y348826D01*
X-272617Y348854D01*
X-272208Y348924D01*
X-271771Y349023D01*
X-271334Y349164D01*
X-270897Y349361D01*
X-270883Y349375D01*
X-270855Y349390D01*
X-270784Y349418D01*
X-270714Y349474D01*
X-270615Y349531D01*
X-270502Y349601D01*
X-270263Y349784D01*
X-269981Y350024D01*
X-269685Y350320D01*
X-269403Y350658D01*
X-269149Y351039D01*
Y351053D01*
X-269121Y351095D01*
X-269092Y351152D01*
X-269050Y351236D01*
X-269008Y351335D01*
X-268951Y351448D01*
X-268909Y351589D01*
X-268853Y351744D01*
X-268796Y351913D01*
X-268740Y352096D01*
X-268641Y352491D01*
X-268571Y352928D01*
X-268557Y353153D01*
X-268543Y353379D01*
Y348783D01*
Y346035D01*
X-314443D01*
Y346894D01*
X-321576D01*
Y346035D01*
X-369830D01*
Y348812D01*
Y353323D01*
X-369815Y353196D01*
Y353055D01*
X-369801Y352900D01*
X-369787Y352716D01*
X-369731Y352322D01*
X-369660Y351899D01*
X-369562Y351448D01*
X-369435Y350997D01*
Y350983D01*
X-369421Y350969D01*
X-369393Y350884D01*
X-369336Y350743D01*
X-369280Y350574D01*
X-369181Y350391D01*
X-369082Y350193D01*
X-368956Y349996D01*
X-368815Y349813D01*
X-368801Y349798D01*
X-368744Y349742D01*
X-368674Y349657D01*
X-368561Y349545D01*
X-368434Y349432D01*
X-368279Y349305D01*
X-368124Y349192D01*
X-367941Y349080D01*
X-367912Y349065D01*
X-367856Y349037D01*
X-367757Y348995D01*
X-367631Y348953D01*
X-367475Y348896D01*
X-367292Y348854D01*
X-367095Y348826D01*
X-366883Y348812D01*
X-366771D01*
X-366644Y348826D01*
X-366489Y348854D01*
X-366305Y348896D01*
X-366094Y348953D01*
X-365896Y349023D01*
X-365685Y349136D01*
X-365657Y349150D01*
X-365601Y349192D01*
X-365502Y349277D01*
X-365375Y349390D01*
X-365234Y349516D01*
X-365079Y349686D01*
X-364910Y349869D01*
X-364755Y350094D01*
X-364741Y350123D01*
X-364712Y350179D01*
X-364656Y350278D01*
X-364585Y350419D01*
X-364501Y350602D01*
X-364416Y350813D01*
X-364318Y351053D01*
X-364233Y351321D01*
Y351335D01*
X-364219Y351363D01*
X-364205Y351420D01*
X-364191Y351504D01*
X-364163Y351589D01*
X-364148Y351702D01*
X-364120Y351828D01*
X-364092Y351969D01*
X-364036Y352280D01*
X-363993Y352646D01*
X-363965Y353027D01*
X-363951Y353435D01*
Y353689D01*
X-363965Y353816D01*
X-363979Y353971D01*
Y354140D01*
X-364007Y354338D01*
X-364022Y354535D01*
X-364050Y354747D01*
X-364120Y355212D01*
X-364219Y355677D01*
X-364360Y356156D01*
Y356170D01*
X-364374Y356198D01*
X-364402Y356255D01*
X-364430Y356325D01*
X-364459Y356410D01*
X-364501Y356509D01*
X-364614Y356734D01*
X-364755Y356988D01*
X-364938Y357256D01*
X-365149Y357509D01*
X-365389Y357735D01*
X-365403D01*
X-365417Y357763D01*
X-365460Y357791D01*
X-365516Y357820D01*
X-365657Y357904D01*
X-365840Y358017D01*
X-366066Y358116D01*
X-366319Y358200D01*
X-366587Y358257D01*
X-366883Y358285D01*
X-366968D01*
X-367024Y358271D01*
X-367165Y358257D01*
X-367363Y358214D01*
X-367588Y358158D01*
X-367842Y358059D01*
X-368096Y357918D01*
X-368363Y357735D01*
X-368378D01*
X-368392Y357707D01*
X-368476Y357636D01*
X-368603Y357524D01*
X-368744Y357354D01*
X-368913Y357143D01*
X-369082Y356903D01*
X-369238Y356607D01*
X-369379Y356283D01*
Y356269D01*
X-369393Y356227D01*
X-369421Y356156D01*
X-369449Y356058D01*
X-369477Y355945D01*
X-369520Y355804D01*
X-369562Y355649D01*
X-369604Y355465D01*
X-369646Y355282D01*
X-369689Y355071D01*
X-369731Y354845D01*
X-369759Y354605D01*
X-369815Y354098D01*
X-369830Y353548D01*
Y358285D01*
Y358313D01*
X-277170D01*
Y355155D01*
D02*
G37*
G36*
X-268884Y366405D02*
Y368425D01*
X-268907Y368520D01*
X-268931Y368731D01*
X-269001Y369036D01*
X-269142Y369365D01*
X-269307Y369718D01*
X-269565Y370094D01*
X-269706Y370258D01*
X-269894Y370446D01*
X-269918Y370470D01*
X-269941Y370493D01*
X-270012Y370540D01*
X-270106Y370634D01*
X-270247Y370728D01*
X-270411Y370845D01*
X-270599Y370963D01*
X-270857Y371128D01*
X-271116Y371292D01*
X-271445Y371503D01*
X-271821Y371715D01*
X-272244Y371926D01*
X-272690Y372185D01*
X-273207Y372443D01*
X-273771Y372725D01*
X-274405Y373007D01*
Y374064D01*
Y374088D01*
Y374111D01*
Y374252D01*
Y374464D01*
X-274382Y374699D01*
Y374934D01*
X-274358Y375192D01*
X-274311Y375404D01*
X-274264Y375545D01*
Y375568D01*
X-274241Y375592D01*
X-274170Y375732D01*
X-274006Y375897D01*
X-273912Y375991D01*
X-273771Y376085D01*
X-273747D01*
X-273700Y376132D01*
X-273630Y376155D01*
X-273536Y376202D01*
X-273277Y376273D01*
X-272972Y376320D01*
X-272854D01*
X-272714Y376296D01*
X-272549Y376273D01*
X-272150Y376179D01*
X-271962Y376108D01*
X-271774Y375991D01*
X-271750D01*
X-271727Y375944D01*
X-271633Y375850D01*
X-271515Y375709D01*
X-271492Y375615D01*
X-271468Y375521D01*
Y375474D01*
X-271515Y375357D01*
X-271609Y375169D01*
X-271680Y375051D01*
X-271797Y374934D01*
X-271821Y374910D01*
X-271868Y374863D01*
X-271938Y374769D01*
X-272009Y374652D01*
X-272150Y374346D01*
X-272197Y374182D01*
X-272220Y374017D01*
Y373994D01*
Y373923D01*
X-272197Y373829D01*
X-272173Y373688D01*
X-272126Y373547D01*
X-272032Y373383D01*
X-271938Y373218D01*
X-271797Y373078D01*
X-271774Y373054D01*
X-271727Y373031D01*
X-271633Y372960D01*
X-271515Y372890D01*
X-271374Y372819D01*
X-271186Y372772D01*
X-270975Y372725D01*
X-270740Y372702D01*
X-270622D01*
X-270481Y372725D01*
X-270340Y372749D01*
X-270152Y372796D01*
X-269941Y372890D01*
X-269753Y372984D01*
X-269565Y373125D01*
X-269542Y373148D01*
X-269495Y373195D01*
X-269424Y373289D01*
X-269330Y373406D01*
X-269236Y373547D01*
X-269166Y373712D01*
X-269119Y373900D01*
X-269095Y374111D01*
Y374158D01*
Y374252D01*
X-269119Y374393D01*
X-269166Y374605D01*
X-269260Y374840D01*
X-269354Y375098D01*
X-269518Y375357D01*
X-269730Y375639D01*
X-269753Y375662D01*
X-269847Y375756D01*
X-269988Y375897D01*
X-270200Y376061D01*
X-270434Y376226D01*
X-270740Y376414D01*
X-271092Y376602D01*
X-271492Y376766D01*
X-271515D01*
X-271539Y376790D01*
X-271609Y376813D01*
X-271703Y376837D01*
X-271915Y376884D01*
X-272220Y376978D01*
X-272572Y377048D01*
X-272995Y377095D01*
X-273418Y377142D01*
X-273888Y377166D01*
X-278940D01*
X-274123D01*
X-274405Y377142D01*
X-274734Y377095D01*
X-275110Y377001D01*
X-275509Y376907D01*
X-275885Y376743D01*
X-276238Y376531D01*
X-276285Y376508D01*
X-276379Y376414D01*
X-276520Y376296D01*
X-276708Y376132D01*
X-276896Y375920D01*
X-277084Y375686D01*
X-277248Y375427D01*
X-277365Y375145D01*
Y375122D01*
X-277389Y375051D01*
X-277412Y374910D01*
X-277460Y374699D01*
X-277483Y374417D01*
Y374252D01*
X-277507Y374041D01*
Y373829D01*
X-277530Y373571D01*
Y373312D01*
Y373007D01*
Y368942D01*
Y368919D01*
Y368825D01*
Y368708D01*
Y368567D01*
X-277554Y368261D01*
Y368144D01*
X-277577Y368050D01*
Y368026D01*
X-277624Y367956D01*
X-277671Y367862D01*
X-277741Y367768D01*
X-277765D01*
X-277812Y367744D01*
X-277906Y367721D01*
X-278000Y367697D01*
X-278047D01*
X-278188Y367744D01*
X-278258Y367791D01*
X-278376Y367862D01*
X-278470Y367956D01*
X-278587Y368097D01*
X-278940Y367838D01*
X-278916Y367791D01*
X-278846Y367697D01*
X-278728Y367556D01*
X-278587Y367368D01*
X-278399Y367180D01*
X-278211Y366969D01*
X-278000Y366781D01*
X-277765Y366616D01*
X-277741Y366593D01*
X-277671Y366569D01*
X-277530Y366499D01*
X-277365Y366452D01*
X-277178Y366381D01*
X-276943Y366311D01*
X-276684Y366287D01*
X-276402Y366264D01*
X-273606D01*
X-276261D01*
X-276097Y366287D01*
X-275885Y366311D01*
X-275674Y366358D01*
X-275439Y366428D01*
X-275204Y366522D01*
X-274993Y366663D01*
X-274969Y366687D01*
X-274922Y366734D01*
X-274828Y366851D01*
X-274734Y366992D01*
X-274640Y367157D01*
X-274546Y367392D01*
X-274452Y367650D01*
X-274405Y367956D01*
X-274382Y367932D01*
X-274311Y367885D01*
X-274217Y367791D01*
X-274076Y367697D01*
X-273912Y367556D01*
X-273724Y367415D01*
X-273489Y367274D01*
X-273254Y367110D01*
X-272714Y366804D01*
X-272126Y366522D01*
X-271844Y366428D01*
X-271539Y366334D01*
X-271233Y366287D01*
X-270951Y366264D01*
X-270810D01*
X-270646Y366287D01*
X-270434Y366334D01*
X-270200Y366405D01*
X-269941Y366499D01*
X-269706Y366640D01*
X-269471Y366828D01*
X-269448Y366851D01*
X-269377Y366945D01*
X-269283Y367063D01*
X-269189Y367227D01*
X-269072Y367439D01*
X-268978Y367697D01*
X-268907Y367979D01*
X-268884Y368308D01*
Y366264D01*
D01*
Y361494D01*
X-311574D01*
Y362082D01*
Y361894D01*
X-311692D01*
X-311809Y361917D01*
X-311950Y361964D01*
X-312138Y362011D01*
X-312303Y362082D01*
X-312467Y362176D01*
X-312608Y362293D01*
Y362317D01*
X-312655Y362340D01*
X-312679Y362434D01*
X-312726Y362552D01*
X-312773Y362740D01*
X-312796Y362975D01*
X-312843Y363257D01*
Y363633D01*
Y374675D01*
Y374699D01*
Y374722D01*
Y374863D01*
X-312819Y375051D01*
Y375263D01*
X-312773Y375498D01*
X-312726Y375732D01*
X-312655Y375944D01*
X-312561Y376085D01*
X-312537Y376108D01*
X-312514Y376132D01*
X-312444Y376202D01*
X-312350Y376249D01*
X-312209Y376320D01*
X-312044Y376390D01*
X-311833Y376437D01*
X-311574Y376461D01*
Y366499D01*
Y377166D01*
Y376860D01*
X-315968D01*
Y375474D01*
X-315991Y375521D01*
X-316062Y375615D01*
X-316179Y375756D01*
X-316320Y375920D01*
X-316485Y376108D01*
X-316673Y376296D01*
X-316861Y376484D01*
X-317072Y376625D01*
X-317119Y376649D01*
X-317213Y376719D01*
X-317377Y376790D01*
X-317612Y376907D01*
X-317871Y377001D01*
X-318176Y377072D01*
X-318505Y377142D01*
X-318858Y377166D01*
X-319046D01*
X-319281Y377119D01*
X-319562Y377072D01*
X-319868Y376978D01*
X-320220Y376860D01*
X-320596Y376672D01*
X-320949Y376437D01*
X-320996Y376414D01*
X-321113Y376296D01*
X-321278Y376132D01*
X-321489Y375920D01*
X-321724Y375615D01*
X-321959Y375286D01*
X-322194Y374887D01*
X-322405Y374417D01*
Y374393D01*
X-322429Y374370D01*
X-322452Y374299D01*
X-322476Y374205D01*
X-322523Y374088D01*
X-322570Y373947D01*
X-322664Y373594D01*
X-322734Y373195D01*
X-322828Y372725D01*
X-322875Y372208D01*
X-322899Y371668D01*
Y361494D01*
X-344655D01*
Y361917D01*
Y361894D01*
X-344773D01*
X-344890Y361917D01*
X-345031Y361964D01*
X-345219Y362011D01*
X-345383Y362082D01*
X-345548Y362176D01*
X-345689Y362293D01*
Y362317D01*
X-345736Y362340D01*
X-345760Y362434D01*
X-345806Y362552D01*
X-345853Y362740D01*
X-345877Y362975D01*
X-345924Y363257D01*
Y363633D01*
Y374675D01*
Y374699D01*
Y374722D01*
Y374863D01*
X-345900Y375051D01*
Y375262D01*
X-345853Y375498D01*
X-345806Y375732D01*
X-345736Y375944D01*
X-345642Y376085D01*
X-345619Y376108D01*
X-345595Y376132D01*
X-345524Y376202D01*
X-345430Y376249D01*
X-345290Y376320D01*
X-345125Y376390D01*
X-344914Y376437D01*
X-344655Y376461D01*
Y371950D01*
Y377166D01*
Y376860D01*
X-349049D01*
Y375474D01*
X-349072Y375521D01*
X-349143Y375615D01*
X-349260Y375756D01*
X-349401Y375920D01*
X-349566Y376108D01*
X-349754Y376296D01*
X-349942Y376484D01*
X-350153Y376625D01*
X-350200Y376649D01*
X-350294Y376719D01*
X-350458Y376790D01*
X-350693Y376907D01*
X-350952Y377001D01*
X-351257Y377072D01*
X-351586Y377142D01*
X-351939Y377166D01*
X-352127D01*
X-352362Y377119D01*
X-352644Y377072D01*
X-352949Y376978D01*
X-353301Y376860D01*
X-353677Y376672D01*
X-354030Y376437D01*
X-354077Y376414D01*
X-354194Y376296D01*
X-354359Y376132D01*
X-354570Y375920D01*
X-354805Y375615D01*
X-355040Y375286D01*
X-355275Y374887D01*
X-355486Y374417D01*
Y374393D01*
X-355510Y374370D01*
X-355533Y374299D01*
X-355557Y374205D01*
X-355604Y374088D01*
X-355651Y373947D01*
X-355745Y373594D01*
X-355815Y373195D01*
X-355909Y372725D01*
X-355956Y372208D01*
X-355980Y371668D01*
Y371409D01*
X-355956Y371268D01*
Y371104D01*
X-355909Y370728D01*
X-355862Y370282D01*
X-355768Y369788D01*
X-355627Y369271D01*
X-355463Y368778D01*
Y368754D01*
X-355439Y368731D01*
X-355416Y368661D01*
X-355369Y368567D01*
X-355251Y368331D01*
X-355087Y368026D01*
X-354875Y367721D01*
X-354617Y367392D01*
X-354335Y367063D01*
X-353983Y366781D01*
X-353936Y366757D01*
X-353818Y366687D01*
X-353607Y366569D01*
X-353348Y366452D01*
X-353043Y366311D01*
X-352667Y366217D01*
X-352268Y366123D01*
X-351821Y366100D01*
X-351680D01*
X-351516Y366123D01*
X-351304Y366147D01*
X-351046Y366194D01*
X-350787Y366264D01*
X-350505Y366358D01*
X-350224Y366475D01*
X-350200Y366499D01*
X-350130Y366522D01*
X-350012Y366593D01*
X-349871Y366710D01*
X-349683Y366851D01*
X-349495Y367016D01*
X-349284Y367227D01*
X-349049Y367462D01*
Y363562D01*
Y363539D01*
Y363445D01*
Y363304D01*
X-349072Y363139D01*
X-349096Y362763D01*
X-349119Y362599D01*
X-349166Y362481D01*
Y362458D01*
X-349190Y362434D01*
X-349260Y362317D01*
X-349378Y362176D01*
X-349542Y362035D01*
X-349566D01*
X-349589Y362011D01*
X-349683Y361988D01*
X-349777Y361964D01*
X-349942Y361941D01*
X-350130Y361917D01*
X-350341Y361894D01*
X-350623D01*
Y361494D01*
X-355980D01*
Y361494D01*
X-374564D01*
Y366405D01*
X-368902D01*
Y374910D01*
Y366804D01*
X-369020D01*
X-369137Y366828D01*
X-369278Y366851D01*
X-369466Y366898D01*
X-369630Y366969D01*
X-369795Y367063D01*
X-369936Y367204D01*
Y367227D01*
X-369983Y367251D01*
X-370006Y367345D01*
X-370053Y367462D01*
X-370100Y367650D01*
X-370124Y367885D01*
X-370171Y368191D01*
Y368567D01*
Y379421D01*
Y379445D01*
Y379468D01*
Y379586D01*
X-370147Y379774D01*
Y380009D01*
X-370100Y380243D01*
X-370053Y380455D01*
X-369983Y380666D01*
X-369889Y380807D01*
X-369865Y380831D01*
X-369842Y380854D01*
X-369771Y380925D01*
X-369677Y380972D01*
X-369536Y381042D01*
X-369372Y381113D01*
X-369160Y381160D01*
X-368902Y381183D01*
Y381583D01*
X-373296D01*
Y368567D01*
Y368520D01*
Y368378D01*
X-373319Y368191D01*
Y367979D01*
X-373343Y367721D01*
X-373390Y367486D01*
X-373460Y367298D01*
X-373531Y367133D01*
X-373554Y367110D01*
X-373577Y367086D01*
X-373648Y367039D01*
X-373765Y366969D01*
X-373907Y366922D01*
X-374071Y366875D01*
X-374306Y366828D01*
X-374564Y366804D01*
Y381583D01*
X-374327D01*
X-374564D01*
Y381583D01*
X-268884D01*
Y366405D01*
D02*
G37*
G36*
X-274335Y372208D02*
X-274264Y372185D01*
X-274170Y372114D01*
X-273935Y371950D01*
X-273630Y371738D01*
X-273301Y371503D01*
X-272948Y371198D01*
X-272643Y370892D01*
X-272361Y370564D01*
X-272338Y370540D01*
X-272291Y370470D01*
X-272220Y370329D01*
X-272150Y370188D01*
X-272079Y370000D01*
X-272009Y369788D01*
X-271962Y369577D01*
X-271938Y369342D01*
Y369318D01*
Y369248D01*
X-271962Y369154D01*
X-271985Y369036D01*
X-272032Y368895D01*
X-272079Y368731D01*
X-272173Y368590D01*
X-272291Y368425D01*
X-272314D01*
X-272338Y368378D01*
X-272408Y368331D01*
X-272502Y368285D01*
X-272619Y368238D01*
X-272737Y368191D01*
X-272901Y368167D01*
X-273089Y368144D01*
X-273183D01*
X-273301Y368167D01*
X-273465Y368214D01*
X-273653Y368308D01*
X-273888Y368402D01*
X-274123Y368567D01*
X-274405Y368778D01*
Y372255D01*
X-274382D01*
X-274335Y372208D01*
D02*
G37*
G36*
X-317636Y375779D02*
X-317425Y375709D01*
X-317166Y375592D01*
X-317025Y375521D01*
X-316884Y375404D01*
X-316720Y375263D01*
X-316555Y375122D01*
X-316414Y374910D01*
X-316250Y374699D01*
X-316109Y374440D01*
X-315968Y374158D01*
Y368590D01*
X-315991Y368567D01*
X-316015Y368543D01*
X-316062Y368473D01*
X-316132Y368378D01*
X-316320Y368167D01*
X-316579Y367932D01*
X-316908Y367674D01*
X-317236Y367462D01*
X-317425Y367368D01*
X-317636Y367298D01*
X-317824Y367274D01*
X-318035Y367251D01*
X-318129D01*
X-318247Y367274D01*
X-318388Y367321D01*
X-318552Y367415D01*
X-318717Y367509D01*
X-318881Y367674D01*
X-319046Y367885D01*
X-319069Y367932D01*
X-319093Y367979D01*
X-319140Y368073D01*
X-319187Y368167D01*
X-319234Y368308D01*
X-319281Y368473D01*
X-319351Y368684D01*
X-319398Y368895D01*
X-319445Y369154D01*
X-319492Y369436D01*
X-319539Y369765D01*
X-319586Y370141D01*
X-319610Y370517D01*
X-319633Y370963D01*
Y371433D01*
Y371456D01*
Y371550D01*
Y371691D01*
Y371879D01*
X-319610Y372091D01*
Y372349D01*
X-319586Y372608D01*
X-319562Y372913D01*
X-319469Y373524D01*
X-319351Y374135D01*
X-319281Y374417D01*
X-319187Y374699D01*
X-319093Y374934D01*
X-318975Y375145D01*
X-318952Y375169D01*
X-318905Y375239D01*
X-318811Y375357D01*
X-318670Y375474D01*
X-318505Y375592D01*
X-318317Y375709D01*
X-318082Y375779D01*
X-317824Y375803D01*
X-317777D01*
X-317636Y375779D01*
D02*
G37*
G36*
X-350717Y375779D02*
X-350505Y375709D01*
X-350247Y375592D01*
X-350106Y375521D01*
X-349965Y375404D01*
X-349801Y375262D01*
X-349636Y375122D01*
X-349495Y374910D01*
X-349331Y374699D01*
X-349190Y374440D01*
X-349049Y374158D01*
Y368590D01*
X-349072Y368567D01*
X-349096Y368543D01*
X-349143Y368473D01*
X-349213Y368378D01*
X-349401Y368167D01*
X-349660Y367932D01*
X-349989Y367674D01*
X-350317Y367462D01*
X-350505Y367368D01*
X-350717Y367298D01*
X-350905Y367274D01*
X-351116Y367251D01*
X-351210D01*
X-351328Y367274D01*
X-351469Y367321D01*
X-351633Y367415D01*
X-351798Y367509D01*
X-351962Y367674D01*
X-352127Y367885D01*
X-352150Y367932D01*
X-352174Y367979D01*
X-352221Y368073D01*
X-352268Y368167D01*
X-352315Y368308D01*
X-352362Y368473D01*
X-352432Y368684D01*
X-352479Y368895D01*
X-352526Y369154D01*
X-352573Y369436D01*
X-352620Y369765D01*
X-352667Y370141D01*
X-352691Y370517D01*
X-352714Y370963D01*
Y371433D01*
Y371456D01*
Y371550D01*
Y371691D01*
Y371879D01*
X-352691Y372091D01*
Y372349D01*
X-352667Y372608D01*
X-352644Y372913D01*
X-352550Y373524D01*
X-352432Y374135D01*
X-352362Y374417D01*
X-352268Y374699D01*
X-352174Y374934D01*
X-352056Y375145D01*
X-352033Y375169D01*
X-351986Y375239D01*
X-351892Y375356D01*
X-351751Y375474D01*
X-351586Y375592D01*
X-351398Y375709D01*
X-351163Y375779D01*
X-350905Y375803D01*
X-350858D01*
X-350717Y375779D01*
D02*
G37*
G36*
X-322875Y371268D02*
Y371104D01*
X-322828Y370728D01*
X-322781Y370282D01*
X-322687Y369788D01*
X-322546Y369271D01*
X-322382Y368778D01*
Y368755D01*
X-322358Y368731D01*
X-322335Y368661D01*
X-322288Y368567D01*
X-322170Y368331D01*
X-322006Y368026D01*
X-321795Y367721D01*
X-321536Y367392D01*
X-321254Y367063D01*
X-320902Y366781D01*
X-320855Y366757D01*
X-320737Y366687D01*
X-320526Y366569D01*
X-320267Y366452D01*
X-319962Y366311D01*
X-319586Y366217D01*
X-319187Y366123D01*
X-318740Y366100D01*
X-318599D01*
X-318435Y366123D01*
X-318223Y366147D01*
X-317965Y366194D01*
X-317706Y366264D01*
X-317425Y366358D01*
X-317143Y366475D01*
X-317119Y366499D01*
X-317049Y366522D01*
X-316931Y366593D01*
X-316790Y366710D01*
X-316602Y366851D01*
X-316414Y367016D01*
X-316203Y367227D01*
X-315968Y367462D01*
Y363562D01*
Y363539D01*
Y363445D01*
Y363304D01*
X-315991Y363139D01*
X-316015Y362763D01*
X-316038Y362599D01*
X-316085Y362481D01*
Y362458D01*
X-316109Y362434D01*
X-316179Y362317D01*
X-316297Y362176D01*
X-316461Y362035D01*
X-316485D01*
X-316508Y362011D01*
X-316602Y361988D01*
X-316696Y361964D01*
X-316861Y361941D01*
X-317049Y361917D01*
X-317260Y361894D01*
X-317542D01*
Y361494D01*
X-322899D01*
Y371409D01*
X-322875Y371268D01*
D02*
G37*
%LPC*%
G36*
X-300881Y358285D02*
X-301177D01*
X-301318Y358271D01*
X-301487Y358242D01*
X-301671Y358200D01*
X-301882Y358144D01*
X-302108Y358073D01*
X-302319Y357961D01*
X-302347Y357947D01*
X-302418Y357904D01*
X-302516Y357834D01*
X-302643Y357735D01*
X-302798Y357608D01*
X-302939Y357453D01*
X-303094Y357270D01*
X-303221Y357072D01*
X-303235Y357044D01*
X-303278Y356974D01*
X-303320Y356875D01*
X-303390Y356734D01*
X-303447Y356565D01*
X-303489Y356396D01*
X-303531Y356213D01*
X-303545Y356029D01*
Y356015D01*
Y355987D01*
Y355945D01*
X-303531Y355874D01*
Y355790D01*
X-303517Y355691D01*
X-303489Y355465D01*
X-303419Y355183D01*
X-303334Y354887D01*
X-303207Y354549D01*
X-303038Y354211D01*
X-303024Y354197D01*
X-303010Y354154D01*
X-302967Y354084D01*
X-302897Y353985D01*
X-302812Y353858D01*
X-302700Y353703D01*
X-302573Y353520D01*
X-302418Y353309D01*
X-302234Y353083D01*
X-302023Y352829D01*
X-301783Y352533D01*
X-301501Y352237D01*
X-301205Y351899D01*
X-300867Y351546D01*
X-300486Y351166D01*
X-300078Y350757D01*
X-302291D01*
X-302432Y350771D01*
X-302601D01*
X-302742Y350785D01*
X-302883Y350799D01*
X-302982Y350813D01*
X-302996D01*
X-303024Y350827D01*
X-303109Y350856D01*
X-303235Y350926D01*
X-303348Y351011D01*
Y351025D01*
X-303376Y351039D01*
X-303405Y351081D01*
X-303447Y351152D01*
X-303503Y351236D01*
X-303560Y351335D01*
X-303630Y351476D01*
X-303715Y351631D01*
X-303968D01*
X-303447Y348995D01*
X-298104D01*
Y349136D01*
X-298118Y349150D01*
X-298132Y349164D01*
X-298160Y349206D01*
X-298217Y349263D01*
X-298330Y349418D01*
X-298499Y349615D01*
X-298696Y349841D01*
X-298908Y350123D01*
X-299147Y350419D01*
X-299401Y350729D01*
X-299923Y351391D01*
X-300162Y351716D01*
X-300402Y352040D01*
X-300627Y352336D01*
X-300811Y352618D01*
X-300980Y352872D01*
X-301093Y353083D01*
Y353097D01*
X-301121Y353125D01*
X-301135Y353182D01*
X-301177Y353252D01*
X-301220Y353351D01*
X-301262Y353450D01*
X-301304Y353576D01*
X-301360Y353717D01*
X-301445Y354013D01*
X-301530Y354338D01*
X-301586Y354690D01*
X-301614Y355057D01*
Y355071D01*
Y355085D01*
Y355169D01*
X-301586Y355310D01*
X-301558Y355465D01*
X-301501Y355649D01*
X-301431Y355846D01*
X-301318Y356043D01*
X-301177Y356227D01*
X-301163Y356241D01*
X-301093Y356297D01*
X-301008Y356382D01*
X-300881Y356466D01*
X-300726Y356551D01*
X-300543Y356636D01*
X-300331Y356692D01*
X-300106Y356706D01*
X-300007D01*
X-299937Y356692D01*
X-299852Y356678D01*
X-299753Y356650D01*
X-299528Y356579D01*
X-299401Y356523D01*
X-299260Y356452D01*
X-299133Y356368D01*
X-299006Y356269D01*
X-298865Y356142D01*
X-298738Y356001D01*
X-298626Y355846D01*
X-298513Y355663D01*
X-298259Y355747D01*
Y355761D01*
X-298273Y355804D01*
X-298301Y355874D01*
X-298330Y355959D01*
X-298372Y356072D01*
X-298414Y356184D01*
X-298541Y356480D01*
X-298696Y356791D01*
X-298879Y357101D01*
X-299105Y357411D01*
X-299232Y357538D01*
X-299359Y357664D01*
X-299373Y357679D01*
X-299387Y357693D01*
X-299429Y357721D01*
X-299486Y357763D01*
X-299556Y357805D01*
X-299641Y357862D01*
X-299852Y357975D01*
X-300092Y358087D01*
X-300388Y358186D01*
X-300712Y358257D01*
X-300881Y358285D01*
D02*
G37*
G36*
X-356254D02*
X-356550D01*
X-356691Y358271D01*
X-356860Y358242D01*
X-357044Y358200D01*
X-357255Y358144D01*
X-357481Y358073D01*
X-357692Y357961D01*
X-357720Y357947D01*
X-357791Y357904D01*
X-357889Y357834D01*
X-358016Y357735D01*
X-358171Y357608D01*
X-358312Y357453D01*
X-358467Y357270D01*
X-358594Y357072D01*
X-358608Y357044D01*
X-358651Y356974D01*
X-358693Y356875D01*
X-358763Y356734D01*
X-358820Y356565D01*
X-358862Y356396D01*
X-358904Y356213D01*
X-358918Y356029D01*
Y356015D01*
Y355987D01*
Y355945D01*
X-358904Y355874D01*
Y355790D01*
X-358890Y355691D01*
X-358862Y355465D01*
X-358792Y355183D01*
X-358707Y354887D01*
X-358580Y354549D01*
X-358411Y354211D01*
X-358397Y354197D01*
X-358383Y354154D01*
X-358340Y354084D01*
X-358270Y353985D01*
X-358186Y353858D01*
X-358073Y353703D01*
X-357946Y353520D01*
X-357791Y353309D01*
X-357607Y353083D01*
X-357396Y352829D01*
X-357156Y352533D01*
X-356874Y352237D01*
X-356578Y351899D01*
X-356240Y351546D01*
X-355859Y351166D01*
X-355451Y350757D01*
X-357664D01*
X-357805Y350771D01*
X-357974D01*
X-358115Y350785D01*
X-358256Y350799D01*
X-358355Y350813D01*
X-358369D01*
X-358397Y350827D01*
X-358481Y350856D01*
X-358608Y350926D01*
X-358721Y351011D01*
Y351025D01*
X-358749Y351039D01*
X-358778Y351081D01*
X-358820Y351152D01*
X-358876Y351236D01*
X-358933Y351335D01*
X-359003Y351476D01*
X-359088Y351631D01*
X-359341D01*
X-358820Y348995D01*
X-353477D01*
Y349136D01*
X-353491Y349150D01*
X-353505Y349164D01*
X-353534Y349206D01*
X-353590Y349263D01*
X-353703Y349418D01*
X-353872Y349615D01*
X-354069Y349841D01*
X-354281Y350123D01*
X-354520Y350419D01*
X-354774Y350729D01*
X-355296Y351391D01*
X-355535Y351716D01*
X-355775Y352040D01*
X-356000Y352336D01*
X-356184Y352618D01*
X-356353Y352872D01*
X-356466Y353083D01*
Y353097D01*
X-356494Y353125D01*
X-356508Y353182D01*
X-356550Y353252D01*
X-356592Y353351D01*
X-356635Y353450D01*
X-356677Y353576D01*
X-356734Y353717D01*
X-356818Y354013D01*
X-356903Y354338D01*
X-356959Y354690D01*
X-356987Y355057D01*
Y355071D01*
Y355085D01*
Y355169D01*
X-356959Y355310D01*
X-356931Y355465D01*
X-356874Y355649D01*
X-356804Y355846D01*
X-356691Y356043D01*
X-356550Y356227D01*
X-356536Y356241D01*
X-356466Y356297D01*
X-356381Y356382D01*
X-356254Y356466D01*
X-356099Y356551D01*
X-355916Y356636D01*
X-355704Y356692D01*
X-355479Y356706D01*
X-355380D01*
X-355310Y356692D01*
X-355225Y356678D01*
X-355126Y356650D01*
X-354901Y356579D01*
X-354774Y356523D01*
X-354633Y356452D01*
X-354506Y356368D01*
X-354379Y356269D01*
X-354238Y356142D01*
X-354111Y356001D01*
X-353999Y355846D01*
X-353886Y355663D01*
X-353632Y355747D01*
Y355761D01*
X-353646Y355804D01*
X-353674Y355874D01*
X-353703Y355959D01*
X-353745Y356072D01*
X-353787Y356184D01*
X-353914Y356480D01*
X-354069Y356791D01*
X-354252Y357101D01*
X-354478Y357411D01*
X-354605Y357538D01*
X-354732Y357664D01*
X-354746Y357679D01*
X-354760Y357693D01*
X-354802Y357721D01*
X-354859Y357763D01*
X-354929Y357805D01*
X-355014Y357862D01*
X-355225Y357975D01*
X-355465Y358087D01*
X-355761Y358186D01*
X-356085Y358257D01*
X-356254Y358285D01*
D02*
G37*
G36*
X-304941Y358102D02*
X-309452D01*
Y357862D01*
X-309100D01*
X-309015Y357848D01*
X-308846Y357805D01*
X-308761Y357777D01*
X-308691Y357735D01*
X-308663Y357707D01*
X-308620Y357650D01*
X-308564Y357552D01*
X-308550Y357481D01*
X-308536Y357411D01*
Y357383D01*
Y357326D01*
X-308550Y357242D01*
X-308578Y357157D01*
X-309043Y356452D01*
X-310185Y354761D01*
X-311130Y355916D01*
X-311144Y355931D01*
X-311158Y355959D01*
X-311200Y356001D01*
X-311243Y356058D01*
X-311355Y356227D01*
X-311496Y356410D01*
X-311637Y356621D01*
X-311750Y356833D01*
X-311835Y357030D01*
X-311849Y357115D01*
X-311863Y357185D01*
Y357199D01*
Y357213D01*
X-311849Y357298D01*
X-311820Y357411D01*
X-311750Y357524D01*
Y357538D01*
X-311736Y357552D01*
X-311679Y357608D01*
X-311581Y357693D01*
X-311454Y357763D01*
X-311440D01*
X-311426Y357777D01*
X-311369Y357791D01*
X-311313Y357820D01*
X-311228Y357834D01*
X-311130Y357848D01*
X-311003Y357862D01*
X-310862D01*
Y358102D01*
X-314203D01*
Y357862D01*
X-314132D01*
X-314062Y357848D01*
X-313977D01*
X-313766Y357805D01*
X-313667Y357777D01*
X-313568Y357749D01*
X-313554D01*
X-313526Y357735D01*
X-313484Y357707D01*
X-313413Y357679D01*
X-313244Y357566D01*
X-313146Y357495D01*
X-313047Y357411D01*
X-313033Y357397D01*
X-313005Y357369D01*
X-312962Y357312D01*
X-312878Y357228D01*
X-312765Y357101D01*
X-312610Y356917D01*
X-312525Y356819D01*
X-312427Y356692D01*
X-312314Y356565D01*
X-312187Y356410D01*
X-310467Y354338D01*
X-312976Y350616D01*
X-312990Y350602D01*
X-313005Y350574D01*
X-313033Y350532D01*
X-313075Y350461D01*
X-313188Y350306D01*
X-313315Y350123D01*
X-313470Y349925D01*
X-313611Y349728D01*
X-313752Y349573D01*
X-313808Y349502D01*
X-313864Y349460D01*
X-313879Y349446D01*
X-313907Y349432D01*
X-313963Y349390D01*
X-314048Y349361D01*
X-314132Y349319D01*
X-314245Y349277D01*
X-314372Y349249D01*
X-314499Y349235D01*
Y348995D01*
X-310044D01*
Y349235D01*
X-310129D01*
X-310228Y349249D01*
X-310326Y349263D01*
X-310453Y349291D01*
X-310566Y349319D01*
X-310665Y349347D01*
X-310735Y349390D01*
X-310749D01*
X-310763Y349418D01*
X-310819Y349474D01*
X-310862Y349573D01*
X-310890Y349629D01*
Y349686D01*
Y349714D01*
Y349756D01*
X-310862Y349827D01*
X-310834Y349897D01*
Y349911D01*
X-310819Y349939D01*
X-310791Y349996D01*
X-310749Y350066D01*
X-310679Y350179D01*
X-310608Y350306D01*
X-310495Y350475D01*
X-310368Y350658D01*
X-309043Y352618D01*
X-307648Y350926D01*
Y350912D01*
X-307619Y350898D01*
X-307591Y350856D01*
X-307549Y350799D01*
X-307450Y350672D01*
X-307338Y350503D01*
X-307225Y350334D01*
X-307126Y350151D01*
X-307056Y349996D01*
X-307042Y349925D01*
X-307027Y349869D01*
Y349855D01*
Y349841D01*
X-307042Y349756D01*
X-307098Y349643D01*
X-307126Y349587D01*
X-307183Y349516D01*
X-307197D01*
X-307211Y349488D01*
X-307253Y349460D01*
X-307309Y349418D01*
X-307380Y349375D01*
X-307450Y349333D01*
X-307662Y349263D01*
X-307690D01*
X-307732Y349249D01*
X-307859D01*
X-307972Y349235D01*
X-308240D01*
Y348995D01*
X-304744D01*
Y349235D01*
X-304772D01*
X-304842Y349249D01*
X-304955Y349277D01*
X-305096Y349305D01*
X-305237Y349347D01*
X-305392Y349404D01*
X-305547Y349474D01*
X-305688Y349559D01*
X-305716Y349573D01*
X-305773Y349629D01*
X-305872Y349714D01*
X-306012Y349841D01*
X-306196Y350010D01*
X-306407Y350235D01*
X-306534Y350362D01*
X-306661Y350503D01*
X-306802Y350672D01*
X-306943Y350842D01*
X-308747Y353041D01*
X-306435Y356452D01*
Y356466D01*
X-306407Y356494D01*
X-306379Y356537D01*
X-306351Y356593D01*
X-306252Y356720D01*
X-306139Y356889D01*
X-306027Y357058D01*
X-305914Y357213D01*
X-305829Y357326D01*
X-305801Y357369D01*
X-305787Y357397D01*
X-305773Y357411D01*
X-305759Y357439D01*
X-305674Y357524D01*
X-305561Y357622D01*
X-305420Y357707D01*
X-305406D01*
X-305392Y357721D01*
X-305350Y357735D01*
X-305294Y357763D01*
X-305223Y357791D01*
X-305153Y357820D01*
X-304941Y357862D01*
Y358102D01*
D02*
G37*
G36*
X-321759D02*
X-329442D01*
Y355494D01*
X-329160D01*
Y355508D01*
Y355536D01*
X-329146Y355578D01*
Y355649D01*
X-329103Y355804D01*
X-329061Y356001D01*
X-328991Y356227D01*
X-328906Y356452D01*
X-328807Y356664D01*
X-328666Y356847D01*
X-328652Y356861D01*
X-328596Y356917D01*
X-328511Y357002D01*
X-328384Y357101D01*
X-328229Y357199D01*
X-328032Y357298D01*
X-327806Y357397D01*
X-327553Y357467D01*
X-327539D01*
X-327468Y357481D01*
X-327369Y357509D01*
X-327214Y357524D01*
X-327017Y357552D01*
X-326904D01*
X-326763Y357566D01*
X-326608D01*
X-326453Y357580D01*
X-325227D01*
Y353830D01*
X-325593D01*
X-325706Y353844D01*
X-325833Y353858D01*
X-325988Y353872D01*
X-326157Y353901D01*
X-326312Y353943D01*
X-326467Y353999D01*
X-326481Y354013D01*
X-326538Y354042D01*
X-326608Y354084D01*
X-326693Y354140D01*
X-326791Y354225D01*
X-326904Y354338D01*
X-327017Y354464D01*
X-327116Y354605D01*
X-327130Y354620D01*
X-327158Y354690D01*
X-327200Y354789D01*
X-327257Y354916D01*
X-327313Y355085D01*
X-327383Y355296D01*
X-327426Y355522D01*
X-327468Y355790D01*
X-327708D01*
Y351222D01*
X-327468D01*
Y351236D01*
Y351279D01*
X-327454Y351349D01*
X-327440Y351434D01*
X-327412Y351532D01*
X-327398Y351645D01*
X-327327Y351913D01*
X-327229Y352195D01*
X-327116Y352477D01*
X-327031Y352604D01*
X-326961Y352731D01*
X-326862Y352829D01*
X-326763Y352914D01*
X-326735Y352928D01*
X-326665Y352984D01*
X-326552Y353055D01*
X-326397Y353125D01*
X-326199Y353210D01*
X-325988Y353266D01*
X-325748Y353323D01*
X-325494Y353337D01*
X-325227D01*
Y350546D01*
Y350532D01*
Y350517D01*
Y350433D01*
Y350320D01*
X-325241Y350165D01*
Y350024D01*
X-325255Y349869D01*
X-325269Y349742D01*
X-325297Y349657D01*
Y349643D01*
X-325311Y349629D01*
X-325368Y349559D01*
X-325452Y349460D01*
X-325523Y349418D01*
X-325593Y349361D01*
X-325607D01*
X-325635Y349347D01*
X-325692Y349319D01*
X-325748Y349305D01*
X-325847Y349277D01*
X-325946Y349249D01*
X-326058Y349235D01*
X-326510D01*
Y348995D01*
X-321759D01*
Y349235D01*
X-322125D01*
X-322196Y349249D01*
X-322280D01*
X-322492Y349291D01*
X-322590Y349333D01*
X-322689Y349375D01*
X-322703D01*
X-322717Y349390D01*
X-322788Y349446D01*
X-322887Y349545D01*
X-322957Y349686D01*
Y349700D01*
X-322971Y349728D01*
X-322985Y349770D01*
X-322999Y349855D01*
X-323013Y349968D01*
X-323027Y350123D01*
X-323042Y350306D01*
Y350546D01*
Y356551D01*
Y356565D01*
Y356579D01*
Y356664D01*
Y356776D01*
X-323027Y356917D01*
Y357058D01*
X-323013Y357199D01*
X-322985Y357326D01*
X-322957Y357411D01*
Y357425D01*
X-322943Y357439D01*
X-322901Y357524D01*
X-322802Y357622D01*
X-322746Y357679D01*
X-322661Y357721D01*
X-322647D01*
X-322619Y357749D01*
X-322576Y357763D01*
X-322506Y357791D01*
X-322421Y357820D01*
X-322309Y357834D01*
X-322196Y357862D01*
X-321759D01*
Y358102D01*
D02*
G37*
G36*
X-288025D02*
X-291253D01*
X-295736Y352449D01*
Y356368D01*
Y356382D01*
Y356410D01*
Y356452D01*
Y356494D01*
X-295722Y356636D01*
X-295708Y356819D01*
X-295679Y357002D01*
X-295637Y357185D01*
X-295581Y357354D01*
X-295496Y357481D01*
X-295482Y357495D01*
X-295440Y357538D01*
X-295355Y357608D01*
X-295242Y357679D01*
X-295087Y357735D01*
X-294904Y357805D01*
X-294693Y357848D01*
X-294425Y357862D01*
Y358102D01*
X-297427D01*
Y357862D01*
X-297399D01*
X-297329Y357848D01*
X-297230Y357834D01*
X-297103Y357805D01*
X-296849Y357735D01*
X-296723Y357693D01*
X-296638Y357650D01*
X-296624D01*
X-296610Y357622D01*
X-296525Y357566D01*
X-296427Y357439D01*
X-296370Y357369D01*
X-296328Y357270D01*
Y357256D01*
X-296314Y357228D01*
X-296300Y357157D01*
X-296285Y357058D01*
X-296257Y356931D01*
X-296243Y356776D01*
X-296229Y356593D01*
Y356368D01*
Y348783D01*
X-295989D01*
X-289871Y356368D01*
Y350574D01*
Y350560D01*
Y350546D01*
Y350503D01*
Y350447D01*
X-289886Y350306D01*
X-289914Y350151D01*
X-289956Y349968D01*
X-290026Y349784D01*
X-290111Y349629D01*
X-290224Y349502D01*
X-290238Y349488D01*
X-290280Y349460D01*
X-290365Y349418D01*
X-290464Y349375D01*
X-290576Y349319D01*
X-290717Y349277D01*
X-290872Y349249D01*
X-291042Y349235D01*
X-291267D01*
Y348995D01*
X-288039D01*
Y349235D01*
X-288166D01*
X-288293Y349249D01*
X-288448Y349277D01*
X-288617Y349305D01*
X-288800Y349361D01*
X-288955Y349432D01*
X-289082Y349531D01*
X-289096Y349545D01*
X-289124Y349587D01*
X-289181Y349672D01*
X-289237Y349784D01*
X-289279Y349925D01*
X-289336Y350108D01*
X-289364Y350320D01*
X-289378Y350574D01*
Y357002D01*
X-289181Y357242D01*
X-289167Y357256D01*
X-289138Y357298D01*
X-289082Y357369D01*
X-289011Y357439D01*
X-288842Y357594D01*
X-288744Y357664D01*
X-288659Y357721D01*
X-288645D01*
X-288617Y357735D01*
X-288575Y357763D01*
X-288504Y357791D01*
X-288405Y357805D01*
X-288307Y357834D01*
X-288180Y357848D01*
X-288025Y357862D01*
Y358102D01*
D02*
G37*
G36*
X-343327D02*
X-347683D01*
Y357862D01*
X-347444D01*
X-347345Y357848D01*
X-347218D01*
X-346950Y357791D01*
X-346837Y357763D01*
X-346739Y357707D01*
X-346711Y357693D01*
X-346668Y357636D01*
X-346612Y357538D01*
X-346598Y357481D01*
X-346584Y357411D01*
Y357383D01*
Y357326D01*
X-346598Y357228D01*
X-346626Y357115D01*
Y357101D01*
X-346640Y357072D01*
X-346654Y357030D01*
X-346696Y356946D01*
X-346739Y356833D01*
X-346809Y356678D01*
X-346894Y356480D01*
X-346992Y356241D01*
X-348938Y351702D01*
X-350728Y355733D01*
Y355747D01*
X-350742Y355761D01*
X-350784Y355846D01*
X-350841Y355973D01*
X-350911Y356128D01*
X-350982Y356297D01*
X-351038Y356466D01*
X-351095Y356607D01*
X-351137Y356720D01*
Y356734D01*
X-351151Y356762D01*
X-351165Y356805D01*
X-351179Y356875D01*
X-351193Y357002D01*
X-351208Y357143D01*
Y357157D01*
Y357185D01*
X-351193Y357270D01*
X-351165Y357383D01*
X-351095Y357509D01*
Y357524D01*
X-351081Y357538D01*
X-351024Y357594D01*
X-350925Y357664D01*
X-350784Y357735D01*
X-350770D01*
X-350728Y357749D01*
X-350672Y357777D01*
X-350587Y357805D01*
X-350474Y357820D01*
X-350348Y357848D01*
X-350192Y357862D01*
X-350023D01*
Y358102D01*
X-352998D01*
Y357862D01*
X-352970D01*
X-352913Y357848D01*
X-352814Y357805D01*
X-352702Y357763D01*
X-352561Y357693D01*
X-352420Y357594D01*
X-352265Y357481D01*
X-352110Y357326D01*
X-352096Y357312D01*
X-352053Y357256D01*
X-351997Y357157D01*
X-351955Y357087D01*
X-351898Y357002D01*
X-351842Y356903D01*
X-351785Y356791D01*
X-351715Y356664D01*
X-351645Y356509D01*
X-351560Y356353D01*
X-351475Y356156D01*
X-351377Y355959D01*
X-351278Y355733D01*
X-348148Y348783D01*
X-347909D01*
X-344807Y356015D01*
Y356029D01*
X-344779Y356072D01*
X-344751Y356142D01*
X-344723Y356227D01*
X-344666Y356325D01*
X-344624Y356452D01*
X-344497Y356706D01*
X-344370Y356974D01*
X-344244Y357228D01*
X-344187Y357340D01*
X-344131Y357439D01*
X-344089Y357509D01*
X-344046Y357566D01*
X-344032Y357580D01*
X-344004Y357608D01*
X-343962Y357636D01*
X-343891Y357693D01*
X-343792Y357735D01*
X-343666Y357791D01*
X-343511Y357834D01*
X-343327Y357862D01*
Y358102D01*
D02*
G37*
G36*
X-282865Y358285D02*
X-282992D01*
X-286263Y350813D01*
Y350799D01*
X-286277Y350771D01*
X-286305Y350715D01*
X-286347Y350644D01*
X-286375Y350560D01*
X-286432Y350461D01*
X-286530Y350249D01*
X-286657Y350010D01*
X-286784Y349798D01*
X-286911Y349615D01*
X-286982Y349531D01*
X-287038Y349474D01*
X-287052Y349460D01*
X-287080Y349446D01*
X-287137Y349404D01*
X-287207Y349361D01*
X-287292Y349319D01*
X-287404Y349291D01*
X-287531Y349249D01*
X-287686Y349235D01*
Y348995D01*
X-283274D01*
Y349235D01*
X-283542D01*
X-283640Y349249D01*
X-283753D01*
X-283993Y349291D01*
X-284106Y349333D01*
X-284204Y349375D01*
X-284219D01*
X-284233Y349404D01*
X-284289Y349460D01*
X-284331Y349559D01*
X-284359Y349615D01*
Y349686D01*
Y349714D01*
Y349770D01*
X-284345Y349841D01*
X-284317Y349939D01*
Y349953D01*
X-284303Y349982D01*
X-284289Y350024D01*
X-284261Y350094D01*
X-284219Y350179D01*
X-284176Y350292D01*
X-284106Y350447D01*
X-283612Y351589D01*
X-280426D01*
X-280032Y350701D01*
X-280018Y350686D01*
X-280004Y350630D01*
X-279975Y350546D01*
X-279947Y350433D01*
X-279877Y350193D01*
X-279862Y350066D01*
X-279848Y349953D01*
Y349939D01*
Y349897D01*
X-279862Y349827D01*
X-279891Y349742D01*
X-279919Y349643D01*
X-279975Y349559D01*
X-280060Y349460D01*
X-280159Y349390D01*
X-280173D01*
X-280201Y349375D01*
X-280257Y349347D01*
X-280342Y349333D01*
X-280455Y349305D01*
X-280610Y349277D01*
X-280807Y349249D01*
X-281047Y349235D01*
Y348995D01*
X-278016D01*
Y349235D01*
X-278044D01*
X-278100Y349249D01*
X-278185Y349277D01*
X-278298Y349305D01*
X-278425Y349361D01*
X-278566Y349432D01*
X-278692Y349516D01*
X-278819Y349629D01*
X-278834Y349643D01*
X-278876Y349700D01*
X-278946Y349798D01*
X-279045Y349925D01*
X-279158Y350123D01*
X-279214Y350235D01*
X-279285Y350362D01*
X-279369Y350503D01*
X-279440Y350658D01*
X-279524Y350827D01*
X-279609Y351011D01*
X-282865Y358285D01*
D02*
G37*
G36*
X-330034Y358102D02*
X-334361D01*
X-334502Y358087D01*
X-334658Y358073D01*
X-334841Y358059D01*
X-335038Y358045D01*
X-335447Y357989D01*
X-335884Y357918D01*
X-336321Y357805D01*
X-336518Y357735D01*
X-336716Y357650D01*
X-336730D01*
X-336772Y357622D01*
X-336828Y357594D01*
X-336913Y357552D01*
X-337026Y357495D01*
X-337139Y357425D01*
X-337407Y357242D01*
X-337702Y357002D01*
X-338013Y356720D01*
X-338309Y356382D01*
X-338436Y356198D01*
X-338562Y356001D01*
X-338577Y355987D01*
X-338591Y355945D01*
X-338619Y355888D01*
X-338661Y355804D01*
X-338703Y355705D01*
X-338760Y355578D01*
X-338816Y355437D01*
X-338887Y355282D01*
X-338943Y355099D01*
X-338999Y354916D01*
X-339098Y354493D01*
X-339169Y354027D01*
X-339197Y353774D01*
Y353351D01*
X-339183Y353266D01*
Y353168D01*
X-339155Y352928D01*
X-339126Y352660D01*
X-339070Y352364D01*
X-338985Y352054D01*
X-338887Y351744D01*
Y351730D01*
X-338873Y351716D01*
X-338858Y351673D01*
X-338830Y351617D01*
X-338760Y351462D01*
X-338675Y351279D01*
X-338548Y351067D01*
X-338422Y350842D01*
X-338266Y350616D01*
X-338083Y350405D01*
X-338055Y350376D01*
X-337999Y350320D01*
X-337900Y350221D01*
X-337759Y350108D01*
X-337590Y349968D01*
X-337392Y349827D01*
X-337181Y349686D01*
X-336941Y349559D01*
X-336913Y349545D01*
X-336828Y349502D01*
X-336688Y349446D01*
X-336504Y349375D01*
X-336279Y349305D01*
X-336025Y349220D01*
X-335715Y349136D01*
X-335391Y349065D01*
X-335377D01*
X-335320Y349051D01*
X-335221Y349037D01*
X-335080D01*
X-334897Y349023D01*
X-334672Y349009D01*
X-334404Y348995D01*
X-330034D01*
Y349235D01*
X-330471D01*
X-330555Y349249D01*
X-330753Y349277D01*
X-330851Y349305D01*
X-330936Y349347D01*
X-330950D01*
X-330964Y349375D01*
X-331049Y349432D01*
X-331161Y349545D01*
X-331246Y349686D01*
Y349700D01*
X-331260Y349714D01*
X-331274Y349770D01*
X-331288Y349841D01*
Y349953D01*
X-331302Y350108D01*
X-331317Y350306D01*
Y350546D01*
Y356551D01*
Y356565D01*
Y356579D01*
Y356664D01*
Y356776D01*
X-331302Y356917D01*
Y357058D01*
X-331288Y357199D01*
X-331260Y357326D01*
X-331232Y357411D01*
Y357425D01*
X-331218Y357439D01*
X-331176Y357524D01*
X-331077Y357622D01*
X-331021Y357679D01*
X-330936Y357721D01*
X-330922D01*
X-330894Y357749D01*
X-330851Y357763D01*
X-330781Y357791D01*
X-330696Y357820D01*
X-330583Y357834D01*
X-330471Y357862D01*
X-330034D01*
Y358102D01*
D02*
G37*
G36*
X-361738Y351053D02*
X-361823D01*
X-361907Y351039D01*
X-362006Y351011D01*
X-362133Y350969D01*
X-362274Y350912D01*
X-362401Y350827D01*
X-362527Y350715D01*
X-362541Y350701D01*
X-362584Y350658D01*
X-362640Y350588D01*
X-362696Y350489D01*
X-362753Y350376D01*
X-362809Y350249D01*
X-362852Y350094D01*
X-362866Y349925D01*
Y349855D01*
X-362852Y349756D01*
X-362823Y349657D01*
X-362781Y349531D01*
X-362725Y349390D01*
X-362640Y349263D01*
X-362527Y349136D01*
X-362513Y349122D01*
X-362471Y349080D01*
X-362401Y349037D01*
X-362302Y348981D01*
X-362189Y348910D01*
X-362062Y348868D01*
X-361907Y348826D01*
X-361738Y348812D01*
X-361667D01*
X-361569Y348826D01*
X-361470Y348854D01*
X-361343Y348896D01*
X-361202Y348953D01*
X-361075Y349023D01*
X-360948Y349136D01*
X-360934Y349150D01*
X-360892Y349192D01*
X-360850Y349263D01*
X-360793Y349361D01*
X-360723Y349474D01*
X-360681Y349601D01*
X-360638Y349756D01*
X-360624Y349925D01*
Y350010D01*
X-360638Y350094D01*
X-360667Y350193D01*
X-360709Y350320D01*
X-360765Y350461D01*
X-360836Y350588D01*
X-360948Y350715D01*
X-360963Y350729D01*
X-361005Y350771D01*
X-361075Y350827D01*
X-361174Y350884D01*
X-361287Y350940D01*
X-361414Y350997D01*
X-361569Y351039D01*
X-361738Y351053D01*
D02*
G37*
%LPD*%
G36*
X-280652Y352082D02*
X-283401D01*
X-282048Y355183D01*
X-280652Y352082D01*
D02*
G37*
G36*
X-333502Y350489D02*
Y350461D01*
Y350405D01*
Y350306D01*
Y350193D01*
X-333516Y350066D01*
Y349953D01*
X-333530Y349855D01*
X-333544Y349784D01*
X-333558Y349770D01*
X-333586Y349714D01*
X-333643Y349657D01*
X-333727Y349601D01*
X-333741D01*
X-333755Y349587D01*
X-333798Y349573D01*
X-333868Y349559D01*
X-333939Y349531D01*
X-334023Y349516D01*
X-334136Y349502D01*
X-334361D01*
X-334432Y349516D01*
X-334531Y349531D01*
X-334644Y349545D01*
X-334883Y349601D01*
X-335165Y349686D01*
X-335447Y349827D01*
X-335588Y349911D01*
X-335715Y350010D01*
X-335842Y350137D01*
X-335955Y350264D01*
X-335969Y350278D01*
X-335997Y350306D01*
X-336025Y350376D01*
X-336081Y350461D01*
X-336138Y350574D01*
X-336208Y350701D01*
X-336293Y350870D01*
X-336363Y351053D01*
X-336434Y351264D01*
X-336518Y351504D01*
X-336589Y351758D01*
X-336645Y352054D01*
X-336702Y352364D01*
X-336744Y352716D01*
X-336758Y353083D01*
X-336772Y353478D01*
Y353492D01*
Y353562D01*
Y353647D01*
X-336758Y353774D01*
Y353915D01*
X-336744Y354084D01*
X-336730Y354281D01*
X-336702Y354479D01*
X-336645Y354930D01*
X-336547Y355395D01*
X-336406Y355846D01*
X-336321Y356072D01*
X-336222Y356269D01*
Y356283D01*
X-336208Y356311D01*
X-336180Y356353D01*
X-336138Y356396D01*
X-336053Y356537D01*
X-335912Y356720D01*
X-335757Y356903D01*
X-335560Y357087D01*
X-335348Y357256D01*
X-335095Y357383D01*
X-335066Y357397D01*
X-334996Y357411D01*
X-334883Y357453D01*
X-334714Y357495D01*
X-334502Y357524D01*
X-334221Y357566D01*
X-334066Y357580D01*
X-333896D01*
X-333699Y357594D01*
X-333502D01*
Y350489D01*
D02*
G37*
%LPC*%
G36*
X-292473Y380713D02*
X-299451D01*
D01*
X-296960D01*
Y376860D01*
X-299451D01*
D01*
D01*
Y375756D01*
X-296960D01*
Y369295D01*
Y369248D01*
Y369154D01*
Y368989D01*
Y368825D01*
X-296984Y368425D01*
X-297007Y368261D01*
X-297031Y368120D01*
X-297054Y368073D01*
X-297101Y367979D01*
X-297195Y367838D01*
X-297336Y367697D01*
X-297383Y367674D01*
X-297454Y367627D01*
X-297595Y367580D01*
X-297712Y367556D01*
X-297736D01*
X-297830Y367580D01*
X-297994Y367627D01*
X-298159Y367697D01*
X-298370Y367838D01*
X-298605Y368026D01*
X-298863Y368308D01*
X-298981Y368473D01*
X-299098Y368661D01*
X-299451Y368402D01*
Y368378D01*
X-299404Y368308D01*
X-299357Y368214D01*
X-299286Y368073D01*
X-299169Y367909D01*
X-299051Y367721D01*
X-298910Y367533D01*
X-298746Y367345D01*
X-298535Y367133D01*
X-298323Y366945D01*
X-298088Y366757D01*
X-297806Y366593D01*
X-297524Y366452D01*
X-297195Y366358D01*
X-296866Y366287D01*
X-296490Y366264D01*
X-296326D01*
X-296138Y366287D01*
X-295903Y366334D01*
X-295645Y366405D01*
X-295363Y366499D01*
X-295081Y366616D01*
X-294799Y366804D01*
X-294775Y366828D01*
X-294681Y366898D01*
X-294564Y367016D01*
X-294446Y367180D01*
X-294282Y367368D01*
X-294141Y367580D01*
X-294023Y367791D01*
X-293930Y368050D01*
Y368073D01*
X-293906Y368144D01*
Y368261D01*
X-293883Y368449D01*
X-293859Y368708D01*
Y368872D01*
Y369060D01*
X-293836Y369295D01*
Y369530D01*
Y369788D01*
Y370094D01*
Y375756D01*
X-292473D01*
Y367627D01*
Y376155D01*
Y376132D01*
X-292496Y376155D01*
X-292543Y376179D01*
X-292614Y376226D01*
X-292708Y376296D01*
X-292966Y376508D01*
X-293295Y376766D01*
X-293671Y377095D01*
X-294070Y377448D01*
X-294470Y377847D01*
X-294846Y378246D01*
X-294869Y378270D01*
X-294893Y378293D01*
X-295010Y378434D01*
X-295198Y378669D01*
X-295433Y378975D01*
X-295715Y379327D01*
X-295997Y379750D01*
X-296303Y380220D01*
X-296584Y380713D01*
X-292473D01*
D01*
D02*
G37*
G36*
X-363005Y377166D02*
X-368056D01*
X-363240D01*
X-363522Y377142D01*
X-363851Y377095D01*
X-364226Y377001D01*
X-364626Y376907D01*
X-365002Y376743D01*
X-365354Y376531D01*
X-365401Y376508D01*
X-365495Y376414D01*
X-365636Y376296D01*
X-365824Y376132D01*
X-366012Y375920D01*
X-366200Y375686D01*
X-366365Y375427D01*
X-366482Y375145D01*
Y375122D01*
X-366506Y375051D01*
X-366529Y374910D01*
X-366576Y374699D01*
X-366600Y374417D01*
Y374252D01*
X-366623Y374041D01*
Y373829D01*
X-366646Y373571D01*
Y373312D01*
Y373007D01*
Y368942D01*
Y368919D01*
Y368825D01*
Y368707D01*
Y368567D01*
X-366670Y368261D01*
Y368144D01*
X-366693Y368050D01*
Y368026D01*
X-366740Y367956D01*
X-366787Y367862D01*
X-366858Y367768D01*
X-366881D01*
X-366928Y367744D01*
X-367022Y367721D01*
X-367116Y367697D01*
X-367163D01*
X-367304Y367744D01*
X-367375Y367791D01*
X-367492Y367862D01*
X-367586Y367956D01*
X-367704Y368097D01*
X-368056Y367838D01*
X-368033Y367791D01*
X-367962Y367697D01*
X-367845Y367556D01*
X-367704Y367368D01*
X-367516Y367180D01*
X-367328Y366969D01*
X-367116Y366781D01*
X-366881Y366616D01*
X-366858Y366593D01*
X-366787Y366569D01*
X-366646Y366499D01*
X-366482Y366452D01*
X-366294Y366381D01*
X-366059Y366311D01*
X-365801Y366287D01*
X-365519Y366264D01*
X-362723D01*
X-365378D01*
X-365213Y366287D01*
X-365002Y366311D01*
X-364790Y366358D01*
X-364556Y366428D01*
X-364320Y366522D01*
X-364109Y366663D01*
X-364086Y366687D01*
X-364039Y366734D01*
X-363945Y366851D01*
X-363851Y366992D01*
X-363757Y367157D01*
X-363663Y367392D01*
X-363569Y367650D01*
X-363522Y367956D01*
X-363498Y367932D01*
X-363428Y367885D01*
X-363334Y367791D01*
X-363193Y367697D01*
X-363028Y367556D01*
X-362840Y367415D01*
X-362605Y367274D01*
X-362370Y367110D01*
X-361830Y366804D01*
X-361243Y366522D01*
X-360961Y366428D01*
X-360655Y366334D01*
X-360350Y366287D01*
X-360068Y366264D01*
X-359927D01*
X-359762Y366287D01*
X-359551Y366334D01*
X-359316Y366405D01*
X-359058Y366499D01*
X-358823Y366640D01*
X-358588Y366828D01*
X-358564Y366851D01*
X-358494Y366945D01*
X-358400Y367063D01*
X-358306Y367227D01*
X-358188Y367439D01*
X-358094Y367697D01*
X-358024Y367979D01*
X-358000Y368308D01*
Y366334D01*
Y368425D01*
X-358024Y368520D01*
X-358047Y368731D01*
X-358118Y369036D01*
X-358259Y369365D01*
X-358423Y369718D01*
X-358682Y370094D01*
X-358823Y370258D01*
X-359011Y370446D01*
X-359034Y370470D01*
X-359058Y370493D01*
X-359128Y370540D01*
X-359222Y370634D01*
X-359363Y370728D01*
X-359528Y370845D01*
X-359715Y370963D01*
X-359974Y371127D01*
X-360232Y371292D01*
X-360561Y371503D01*
X-360937Y371715D01*
X-361360Y371926D01*
X-361806Y372185D01*
X-362323Y372443D01*
X-362887Y372725D01*
X-363522Y373007D01*
Y374064D01*
Y374088D01*
Y374111D01*
Y374252D01*
Y374464D01*
X-363498Y374699D01*
Y374934D01*
X-363475Y375192D01*
X-363428Y375404D01*
X-363381Y375545D01*
Y375568D01*
X-363357Y375592D01*
X-363287Y375732D01*
X-363122Y375897D01*
X-363028Y375991D01*
X-362887Y376085D01*
X-362864D01*
X-362817Y376132D01*
X-362746Y376155D01*
X-362652Y376202D01*
X-362394Y376273D01*
X-362089Y376320D01*
X-361971D01*
X-361830Y376296D01*
X-361666Y376273D01*
X-361266Y376179D01*
X-361078Y376108D01*
X-360890Y375991D01*
X-360867D01*
X-360843Y375944D01*
X-360749Y375850D01*
X-360632Y375709D01*
X-360608Y375615D01*
X-360585Y375521D01*
Y375474D01*
X-360632Y375356D01*
X-360726Y375169D01*
X-360796Y375051D01*
X-360914Y374934D01*
X-360937Y374910D01*
X-360984Y374863D01*
X-361055Y374769D01*
X-361125Y374652D01*
X-361266Y374346D01*
X-361313Y374182D01*
X-361337Y374017D01*
Y373994D01*
Y373923D01*
X-361313Y373829D01*
X-361290Y373688D01*
X-361243Y373547D01*
X-361149Y373383D01*
X-361055Y373218D01*
X-360914Y373078D01*
X-360890Y373054D01*
X-360843Y373031D01*
X-360749Y372960D01*
X-360632Y372890D01*
X-360491Y372819D01*
X-360303Y372772D01*
X-360091Y372725D01*
X-359856Y372702D01*
X-359739D01*
X-359598Y372725D01*
X-359457Y372749D01*
X-359269Y372796D01*
X-359058Y372890D01*
X-358870Y372984D01*
X-358682Y373125D01*
X-358658Y373148D01*
X-358611Y373195D01*
X-358541Y373289D01*
X-358447Y373406D01*
X-358353Y373547D01*
X-358282Y373712D01*
X-358235Y373900D01*
X-358212Y374111D01*
Y374158D01*
Y374252D01*
X-358235Y374393D01*
X-358282Y374605D01*
X-358376Y374840D01*
X-358470Y375098D01*
X-358635Y375356D01*
X-358846Y375639D01*
X-358870Y375662D01*
X-358964Y375756D01*
X-359105Y375897D01*
X-359316Y376061D01*
X-359551Y376226D01*
X-359856Y376414D01*
X-360209Y376602D01*
X-360608Y376766D01*
X-360632D01*
X-360655Y376790D01*
X-360726Y376813D01*
X-360820Y376837D01*
X-361031Y376884D01*
X-361337Y376978D01*
X-361689Y377048D01*
X-362112Y377095D01*
X-362535Y377142D01*
X-363005Y377166D01*
D02*
G37*
G36*
X-334952Y377166D02*
X-339839D01*
X-339933Y377142D01*
X-340074Y377119D01*
X-340238Y377095D01*
X-340614Y377001D01*
X-341037Y376837D01*
X-341507Y376602D01*
X-341742Y376461D01*
X-341977Y376296D01*
X-342188Y376085D01*
X-342423Y375850D01*
X-342447Y375826D01*
X-342470Y375779D01*
X-342541Y375709D01*
X-342611Y375615D01*
X-342705Y375474D01*
X-342799Y375309D01*
X-342917Y375122D01*
X-343034Y374887D01*
X-343128Y374628D01*
X-343246Y374346D01*
X-343363Y374041D01*
X-343457Y373688D01*
X-343551Y373312D01*
X-343621Y372913D01*
X-343668Y372490D01*
X-343692Y372020D01*
X-337959Y372020D01*
Y371997D01*
Y371926D01*
X-337983Y371809D01*
Y371668D01*
X-338006Y371503D01*
X-338053Y371292D01*
X-338124Y370822D01*
X-338265Y370282D01*
X-338476Y369741D01*
X-338735Y369201D01*
X-339063Y368708D01*
X-339087Y368661D01*
X-339204Y368567D01*
X-339369Y368425D01*
X-339580Y368261D01*
X-339839Y368073D01*
X-340168Y367932D01*
X-340520Y367838D01*
X-340919Y367791D01*
X-341037D01*
X-341154Y367815D01*
X-341319Y367838D01*
X-341507Y367885D01*
X-341695Y367932D01*
X-341906Y368026D01*
X-342118Y368144D01*
X-342141Y368167D01*
X-342212Y368214D01*
X-342329Y368308D01*
X-342470Y368449D01*
X-342658Y368637D01*
X-342846Y368872D01*
X-343058Y369154D01*
X-343293Y369506D01*
X-343692Y369271D01*
Y366100D01*
Y369248D01*
X-343645Y369201D01*
X-343598Y369107D01*
X-343551Y368989D01*
X-343457Y368848D01*
X-343363Y368684D01*
X-343128Y368308D01*
X-342846Y367909D01*
X-342517Y367509D01*
X-342165Y367110D01*
X-341977Y366945D01*
X-341789Y366804D01*
X-341742Y366781D01*
X-341601Y366687D01*
X-341389Y366593D01*
X-341107Y366452D01*
X-340755Y366334D01*
X-340356Y366217D01*
X-339909Y366123D01*
X-339416Y366100D01*
X-339322D01*
X-339204Y366123D01*
X-339040D01*
X-338852Y366147D01*
X-338617Y366194D01*
X-338358Y366241D01*
X-338100Y366334D01*
X-337818Y366428D01*
X-337536Y366546D01*
X-337231Y366687D01*
X-336949Y366851D01*
X-336667Y367063D01*
X-336385Y367298D01*
X-336127Y367580D01*
X-335892Y367885D01*
Y367909D01*
X-335845Y367956D01*
X-335798Y368026D01*
X-335751Y368144D01*
X-335680Y368285D01*
X-335586Y368449D01*
X-335516Y368637D01*
X-335422Y368872D01*
X-335328Y369107D01*
X-335257Y369389D01*
X-335093Y370000D01*
X-334999Y370681D01*
X-334952Y371456D01*
Y367838D01*
Y371715D01*
X-334975Y371879D01*
X-334999Y372114D01*
X-335022Y372373D01*
X-335069Y372655D01*
X-335140Y372960D01*
X-335304Y373618D01*
X-335422Y373970D01*
X-335539Y374323D01*
X-335704Y374652D01*
X-335892Y374981D01*
X-336103Y375310D01*
X-336362Y375615D01*
X-336385Y375639D01*
X-336432Y375686D01*
X-336502Y375756D01*
X-336620Y375850D01*
X-336737Y375967D01*
X-336902Y376108D01*
X-337090Y376249D01*
X-337301Y376390D01*
X-337795Y376672D01*
X-338358Y376931D01*
X-338664Y377025D01*
X-338993Y377095D01*
X-339322Y377142D01*
X-339674Y377166D01*
X-334952D01*
D02*
G37*
G36*
X-300532D02*
X-305606D01*
X-305865Y377119D01*
X-306194Y377072D01*
X-306593Y377001D01*
X-307016Y376860D01*
X-307463Y376696D01*
X-307909Y376461D01*
X-307932D01*
X-307956Y376437D01*
X-308097Y376320D01*
X-308308Y376179D01*
X-308567Y375944D01*
X-308872Y375662D01*
X-309154Y375310D01*
X-309436Y374910D01*
X-309695Y374440D01*
Y374417D01*
X-309718Y374393D01*
X-309742Y374323D01*
X-309789Y374205D01*
X-309836Y374088D01*
X-309883Y373947D01*
X-310000Y373594D01*
X-310117Y373195D01*
X-310212Y372702D01*
X-310282Y372185D01*
X-310306Y371621D01*
Y366100D01*
Y371409D01*
X-310282Y371245D01*
Y371057D01*
X-310259Y370845D01*
X-310212Y370587D01*
X-310165Y370329D01*
X-310024Y369741D01*
X-309836Y369107D01*
X-309554Y368496D01*
X-309366Y368191D01*
X-309178Y367909D01*
X-309154Y367885D01*
X-309107Y367838D01*
X-309037Y367744D01*
X-308919Y367627D01*
X-308778Y367486D01*
X-308614Y367345D01*
X-308426Y367180D01*
X-308191Y367016D01*
X-307932Y366828D01*
X-307651Y366663D01*
X-307345Y366522D01*
X-307016Y366381D01*
X-306664Y366264D01*
X-306264Y366170D01*
X-305865Y366123D01*
X-305418Y366100D01*
X-305184D01*
X-305043Y366123D01*
X-304831Y366147D01*
X-304620Y366194D01*
X-304361Y366241D01*
X-304079Y366311D01*
X-303797Y366381D01*
X-303492Y366499D01*
X-303210Y366640D01*
X-302905Y366804D01*
X-302599Y366992D01*
X-302317Y367204D01*
X-302059Y367462D01*
X-301800Y367744D01*
X-301777Y367768D01*
X-301753Y367815D01*
X-301683Y367909D01*
X-301612Y368026D01*
X-301518Y368191D01*
X-301401Y368378D01*
X-301283Y368590D01*
X-301166Y368848D01*
X-301049Y369107D01*
X-300931Y369412D01*
X-300720Y370047D01*
X-300579Y370775D01*
X-300555Y371174D01*
X-300532Y371574D01*
Y366851D01*
Y371574D01*
Y371785D01*
X-300555Y371950D01*
X-300579Y372138D01*
X-300602Y372373D01*
X-300649Y372631D01*
X-300696Y372890D01*
X-300837Y373500D01*
X-301072Y374158D01*
X-301236Y374487D01*
X-301401Y374840D01*
X-301589Y375145D01*
X-301824Y375474D01*
X-301847Y375498D01*
X-301894Y375545D01*
X-301965Y375639D01*
X-302059Y375732D01*
X-302200Y375873D01*
X-302341Y376014D01*
X-302529Y376155D01*
X-302764Y376320D01*
X-302999Y376484D01*
X-303257Y376625D01*
X-303539Y376766D01*
X-303868Y376907D01*
X-304197Y377001D01*
X-304573Y377095D01*
X-304972Y377142D01*
X-305372Y377166D01*
X-300532D01*
D02*
G37*
G36*
X-270951Y366264D02*
X-273606D01*
X-270951D01*
D01*
D02*
G37*
G36*
X-360068Y366264D02*
D01*
X-362723D01*
X-360068D01*
D02*
G37*
G36*
X-324778Y377166D02*
X-329665D01*
X-329759Y377142D01*
X-329900Y377119D01*
X-330065Y377095D01*
X-330441Y377001D01*
X-330864Y376837D01*
X-331334Y376602D01*
X-331568Y376461D01*
X-331803Y376296D01*
X-332015Y376085D01*
X-332250Y375850D01*
X-332273Y375826D01*
X-332297Y375779D01*
X-332367Y375709D01*
X-332438Y375615D01*
X-332532Y375474D01*
X-332626Y375310D01*
X-332743Y375122D01*
X-332861Y374887D01*
X-332955Y374628D01*
X-333072Y374346D01*
X-333190Y374041D01*
X-333284Y373688D01*
X-333378Y373312D01*
X-333448Y372913D01*
X-333495Y372490D01*
X-333519Y372020D01*
X-327786D01*
Y371997D01*
Y371926D01*
X-327809Y371809D01*
Y371668D01*
X-327833Y371503D01*
X-327880Y371292D01*
X-327950Y370822D01*
X-328091Y370282D01*
X-328303Y369741D01*
X-328561Y369201D01*
X-328890Y368708D01*
X-328913Y368661D01*
X-329031Y368567D01*
X-329196Y368425D01*
X-329407Y368261D01*
X-329665Y368073D01*
X-329994Y367932D01*
X-330347Y367838D01*
X-330746Y367791D01*
X-330864D01*
X-330981Y367815D01*
X-331146Y367838D01*
X-331334Y367885D01*
X-331521Y367932D01*
X-331733Y368026D01*
X-331944Y368144D01*
X-331968Y368167D01*
X-332038Y368214D01*
X-332156Y368308D01*
X-332297Y368449D01*
X-332485Y368637D01*
X-332673Y368872D01*
X-332884Y369154D01*
X-333119Y369506D01*
X-333519Y369271D01*
Y366100D01*
Y369248D01*
X-333472Y369201D01*
X-333425Y369107D01*
X-333378Y368989D01*
X-333284Y368848D01*
X-333190Y368684D01*
X-332955Y368308D01*
X-332673Y367909D01*
X-332344Y367509D01*
X-331991Y367110D01*
X-331803Y366945D01*
X-331615Y366804D01*
X-331568Y366781D01*
X-331427Y366687D01*
X-331216Y366593D01*
X-330934Y366452D01*
X-330582Y366334D01*
X-330182Y366217D01*
X-329736Y366123D01*
X-329243Y366100D01*
X-329148D01*
X-329031Y366123D01*
X-328867D01*
X-328679Y366147D01*
X-328444Y366194D01*
X-328185Y366241D01*
X-327927Y366334D01*
X-327645Y366428D01*
X-327363Y366546D01*
X-327057Y366687D01*
X-326776Y366851D01*
X-326494Y367063D01*
X-326212Y367298D01*
X-325953Y367580D01*
X-325718Y367885D01*
Y367909D01*
X-325671Y367956D01*
X-325624Y368026D01*
X-325577Y368144D01*
X-325507Y368285D01*
X-325413Y368449D01*
X-325342Y368637D01*
X-325248Y368872D01*
X-325154Y369107D01*
X-325084Y369389D01*
X-324919Y370000D01*
X-324825Y370681D01*
X-324778Y371456D01*
Y366241D01*
Y371715D01*
X-324802Y371879D01*
X-324825Y372114D01*
X-324849Y372373D01*
X-324896Y372655D01*
X-324966Y372960D01*
X-325131Y373618D01*
X-325248Y373970D01*
X-325366Y374323D01*
X-325530Y374652D01*
X-325718Y374981D01*
X-325930Y375310D01*
X-326188Y375615D01*
X-326212Y375639D01*
X-326259Y375686D01*
X-326329Y375756D01*
X-326447Y375850D01*
X-326564Y375967D01*
X-326729Y376108D01*
X-326917Y376249D01*
X-327128Y376390D01*
X-327621Y376672D01*
X-328185Y376931D01*
X-328491Y377025D01*
X-328820Y377095D01*
X-329148Y377142D01*
X-329501Y377166D01*
X-324778D01*
D02*
G37*
G36*
X-280020Y376860D02*
X-291298D01*
X-290170D01*
Y368684D01*
Y368661D01*
Y368637D01*
Y368496D01*
X-290194Y368285D01*
Y368026D01*
X-290217Y367768D01*
X-290264Y367533D01*
X-290311Y367321D01*
X-290382Y367157D01*
X-290405D01*
X-290429Y367110D01*
X-290499Y367063D01*
X-290593Y367016D01*
X-290711Y366945D01*
X-290875Y366898D01*
X-291063Y366851D01*
X-291298Y366804D01*
Y366100D01*
Y366405D01*
X-287045D01*
Y367791D01*
X-287022Y367744D01*
X-286928Y367650D01*
X-286763Y367486D01*
X-286576Y367298D01*
X-286341Y367086D01*
X-286106Y366875D01*
X-285824Y366663D01*
X-285542Y366499D01*
X-285518Y366475D01*
X-285401Y366428D01*
X-285260Y366381D01*
X-285048Y366311D01*
X-284813Y366217D01*
X-284531Y366170D01*
X-284203Y366123D01*
X-283874Y366100D01*
X-280020D01*
X-283733D01*
X-283545Y366123D01*
X-283333Y366170D01*
X-283098Y366241D01*
X-282816Y366334D01*
X-282558Y366452D01*
X-282276Y366640D01*
X-282253Y366663D01*
X-282159Y366734D01*
X-282041Y366851D01*
X-281900Y366992D01*
X-281759Y367180D01*
X-281595Y367392D01*
X-281477Y367627D01*
X-281360Y367885D01*
Y367932D01*
X-281336Y368026D01*
X-281289Y368214D01*
X-281266Y368473D01*
X-281219Y368825D01*
X-281172Y369271D01*
Y369506D01*
X-281148Y369788D01*
Y370094D01*
Y370423D01*
Y374581D01*
Y374605D01*
Y374628D01*
Y374769D01*
Y374981D01*
X-281125Y375216D01*
X-281101Y375474D01*
X-281054Y375709D01*
X-280984Y375920D01*
X-280913Y376061D01*
Y376085D01*
X-280866Y376108D01*
X-280819Y376155D01*
X-280725Y376226D01*
X-280608Y376296D01*
X-280443Y376367D01*
X-280255Y376414D01*
X-280020Y376461D01*
Y376860D01*
D02*
G37*
%LPD*%
G36*
X-363451Y372208D02*
X-363381Y372185D01*
X-363287Y372114D01*
X-363052Y371950D01*
X-362746Y371738D01*
X-362417Y371503D01*
X-362065Y371198D01*
X-361760Y370892D01*
X-361478Y370564D01*
X-361454Y370540D01*
X-361407Y370470D01*
X-361337Y370329D01*
X-361266Y370188D01*
X-361196Y370000D01*
X-361125Y369788D01*
X-361078Y369577D01*
X-361055Y369342D01*
Y369318D01*
Y369248D01*
X-361078Y369154D01*
X-361102Y369036D01*
X-361149Y368895D01*
X-361196Y368731D01*
X-361290Y368590D01*
X-361407Y368425D01*
X-361431D01*
X-361454Y368378D01*
X-361525Y368331D01*
X-361619Y368284D01*
X-361736Y368237D01*
X-361853Y368191D01*
X-362018Y368167D01*
X-362206Y368144D01*
X-362300D01*
X-362417Y368167D01*
X-362582Y368214D01*
X-362770Y368308D01*
X-363005Y368402D01*
X-363240Y368567D01*
X-363522Y368778D01*
Y372255D01*
X-363498D01*
X-363451Y372208D01*
D02*
G37*
G36*
X-339298Y376414D02*
X-339181Y376367D01*
X-339016Y376296D01*
X-338852Y376179D01*
X-338688Y376038D01*
X-338546Y375850D01*
X-338523Y375803D01*
X-338452Y375662D01*
X-338335Y375451D01*
X-338241Y375145D01*
X-338124Y374746D01*
X-338006Y374276D01*
X-337936Y373735D01*
X-337912Y373125D01*
Y372749D01*
X-340943D01*
Y372772D01*
Y372819D01*
Y372913D01*
Y373031D01*
Y373195D01*
Y373359D01*
X-340919Y373735D01*
X-340896Y374135D01*
X-340849Y374534D01*
X-340802Y374910D01*
X-340779Y375051D01*
X-340732Y375192D01*
Y375216D01*
X-340708Y375310D01*
X-340661Y375427D01*
X-340591Y375568D01*
X-340403Y375920D01*
X-340262Y376085D01*
X-340121Y376226D01*
X-340074Y376249D01*
X-339956Y376343D01*
X-339768Y376414D01*
X-339510Y376437D01*
X-339416D01*
X-339298Y376414D01*
D02*
G37*
G36*
X-305207Y376367D02*
X-305090Y376343D01*
X-304925Y376273D01*
X-304761Y376202D01*
X-304596Y376085D01*
X-304432Y375944D01*
X-304408Y375920D01*
X-304361Y375850D01*
X-304291Y375732D01*
X-304220Y375568D01*
X-304126Y375357D01*
X-304056Y375051D01*
X-303962Y374699D01*
X-303915Y374252D01*
Y374229D01*
Y374205D01*
Y374111D01*
X-303891Y374017D01*
Y373900D01*
X-303868Y373735D01*
Y373547D01*
Y373336D01*
X-303844Y373101D01*
Y372843D01*
X-303821Y372537D01*
Y372232D01*
X-303797Y371903D01*
Y371527D01*
Y371151D01*
Y370728D01*
Y370704D01*
Y370681D01*
Y370611D01*
Y370517D01*
Y370305D01*
X-303821Y370000D01*
Y369647D01*
X-303868Y369271D01*
X-303938Y368496D01*
Y368473D01*
X-303962Y368355D01*
X-304009Y368214D01*
X-304056Y368050D01*
X-304197Y367650D01*
X-304314Y367439D01*
X-304455Y367274D01*
X-304479Y367251D01*
X-304526Y367204D01*
X-304620Y367157D01*
X-304737Y367086D01*
X-304878Y366992D01*
X-305043Y366945D01*
X-305207Y366898D01*
X-305395Y366875D01*
X-305489D01*
X-305560Y366898D01*
X-305677D01*
X-305959Y366992D01*
X-306100Y367039D01*
X-306217Y367133D01*
X-306241Y367157D01*
X-306288Y367204D01*
X-306358Y367298D01*
X-306452Y367415D01*
X-306546Y367580D01*
X-306664Y367768D01*
X-306734Y367979D01*
X-306805Y368214D01*
Y368238D01*
Y368261D01*
X-306828Y368331D01*
X-306852Y368425D01*
Y368567D01*
X-306875Y368708D01*
X-306899Y368919D01*
X-306922Y369154D01*
X-306946Y369412D01*
X-306969Y369718D01*
X-306993Y370070D01*
Y370470D01*
X-307016Y370892D01*
X-307040Y371386D01*
Y371903D01*
Y372490D01*
Y372514D01*
Y372584D01*
Y372678D01*
Y372796D01*
Y372960D01*
Y373125D01*
X-307016Y373524D01*
X-306993Y373970D01*
X-306946Y374393D01*
X-306875Y374793D01*
X-306852Y374957D01*
X-306805Y375098D01*
Y375122D01*
X-306758Y375216D01*
X-306711Y375357D01*
X-306640Y375498D01*
X-306452Y375850D01*
X-306335Y376014D01*
X-306194Y376155D01*
X-306170D01*
X-306147Y376202D01*
X-306076Y376226D01*
X-305982Y376273D01*
X-305748Y376343D01*
X-305418Y376390D01*
X-305325D01*
X-305207Y376367D01*
D02*
G37*
G36*
X-329125Y376414D02*
X-329007Y376367D01*
X-328843Y376296D01*
X-328679Y376179D01*
X-328514Y376038D01*
X-328373Y375850D01*
X-328350Y375803D01*
X-328279Y375662D01*
X-328162Y375451D01*
X-328068Y375145D01*
X-327950Y374746D01*
X-327833Y374276D01*
X-327762Y373735D01*
X-327739Y373125D01*
Y372749D01*
X-330770D01*
Y372772D01*
Y372819D01*
Y372913D01*
Y373031D01*
Y373195D01*
Y373359D01*
X-330746Y373735D01*
X-330723Y374135D01*
X-330676Y374534D01*
X-330629Y374910D01*
X-330605Y375051D01*
X-330558Y375192D01*
Y375216D01*
X-330535Y375310D01*
X-330488Y375427D01*
X-330417Y375568D01*
X-330229Y375920D01*
X-330088Y376085D01*
X-329947Y376226D01*
X-329900Y376249D01*
X-329783Y376343D01*
X-329595Y376414D01*
X-329337Y376437D01*
X-329243D01*
X-329125Y376414D01*
D02*
G37*
G36*
X-284273Y369718D02*
Y369694D01*
Y369671D01*
Y369530D01*
Y369342D01*
X-284296Y369107D01*
Y368872D01*
X-284320Y368637D01*
X-284343Y368425D01*
X-284367Y368261D01*
Y368238D01*
X-284391Y368214D01*
X-284461Y368097D01*
X-284555Y367932D01*
X-284696Y367791D01*
X-284743Y367768D01*
X-284860Y367721D01*
X-285025Y367650D01*
X-285236Y367627D01*
X-285307D01*
X-285377Y367650D01*
X-285471D01*
X-285706Y367721D01*
X-285965Y367838D01*
X-285988Y367862D01*
X-286035Y367885D01*
X-286129Y367979D01*
X-286270Y368097D01*
X-286435Y368238D01*
X-286599Y368449D01*
X-286810Y368684D01*
X-287045Y368989D01*
Y374581D01*
Y374605D01*
Y374628D01*
Y374769D01*
Y374981D01*
X-287022Y375216D01*
X-286999Y375474D01*
X-286952Y375709D01*
X-286881Y375920D01*
X-286810Y376061D01*
Y376085D01*
X-286763Y376108D01*
X-286716Y376155D01*
X-286623Y376226D01*
X-286505Y376296D01*
X-286341Y376367D01*
X-286153Y376414D01*
X-285918Y376461D01*
Y376860D01*
X-284273D01*
Y369718D01*
D02*
G37*
D11*
X-40843Y266064D02*
X-36272D01*
X-40792Y294138D02*
X-36221D01*
X-38507Y296423D02*
Y291853D01*
X-43430Y64391D02*
X-44572Y63248D01*
X-46858D01*
X-48000Y64391D01*
Y68961D01*
X-46858Y70104D01*
X-44572D01*
X-43430Y68961D01*
Y66676D01*
X-45715D01*
X-41144Y70104D02*
Y63248D01*
X-36574Y70104D01*
Y63248D01*
X-34289D02*
Y70104D01*
X-30861D01*
X-29718Y68961D01*
Y64391D01*
X-30861Y63248D01*
X-34289D01*
X-43430Y88521D02*
X-44572Y87378D01*
X-46858D01*
X-48000Y88521D01*
Y93091D01*
X-46858Y94234D01*
X-44572D01*
X-43430Y93091D01*
Y90806D01*
X-45715D01*
X-41144Y94234D02*
Y87378D01*
X-36574Y94234D01*
Y87378D01*
X-34289D02*
Y94234D01*
X-30861D01*
X-29718Y93091D01*
Y88521D01*
X-30861Y87378D01*
X-34289D01*
X-29718Y168654D02*
Y161798D01*
Y164083D01*
X-34288Y168654D01*
X-30861Y165226D01*
X-34288Y161798D01*
X-36574Y168654D02*
Y161798D01*
X-41144D01*
X-48000D02*
X-43430D01*
X-48000Y166369D01*
Y167511D01*
X-46858Y168654D01*
X-44572D01*
X-43430Y167511D01*
X-29718Y194054D02*
Y187198D01*
Y189483D01*
X-34288Y194054D01*
X-30861Y190626D01*
X-34288Y187198D01*
X-36574Y194054D02*
Y187198D01*
X-41144D01*
X-43430D02*
X-45715D01*
X-44572D01*
Y194054D01*
X-43430Y192911D01*
X-29718Y220724D02*
Y213868D01*
Y217296D01*
X-34288D01*
Y220724D01*
Y213868D01*
X-41144D02*
X-36574D01*
X-41144Y218438D01*
Y219581D01*
X-40002Y220724D01*
X-37716D01*
X-36574Y219581D01*
X-29718Y245108D02*
Y238252D01*
X-34288D01*
X-41144D02*
X-36574D01*
X-41144Y242822D01*
Y243965D01*
X-40002Y245108D01*
X-37716D01*
X-36574Y243965D01*
X-29718Y260602D02*
Y253746D01*
X-33146D01*
X-34288Y254889D01*
Y256031D01*
X-33146Y257174D01*
X-29718D01*
X-33146D01*
X-34288Y258316D01*
Y259459D01*
X-33146Y260602D01*
X-29718D01*
X-36574Y253746D02*
Y258316D01*
X-38859Y260602D01*
X-41144Y258316D01*
Y253746D01*
Y257174D01*
X-36574D01*
X-43430Y260602D02*
X-48000D01*
X-45715D01*
Y253746D01*
X-29718Y286510D02*
Y279654D01*
X-33146D01*
X-34288Y280797D01*
Y281939D01*
X-33146Y283082D01*
X-29718D01*
X-33146D01*
X-34288Y284224D01*
Y285367D01*
X-33146Y286510D01*
X-29718D01*
X-36574Y279654D02*
Y284224D01*
X-38859Y286510D01*
X-41144Y284224D01*
Y279654D01*
Y283082D01*
X-36574D01*
X-43430Y286510D02*
X-48000D01*
X-45715D01*
Y279654D01*
X-29718Y343668D02*
Y336812D01*
X-34288D01*
X-36574D02*
X-38859D01*
X-37716D01*
Y343668D01*
X-36574Y342525D01*
X-29718Y325350D02*
Y318494D01*
Y321922D01*
X-34288D01*
Y325350D01*
Y318494D01*
X-36574D02*
X-38859D01*
X-37716D01*
Y325350D01*
X-36574Y324207D01*
X-483995Y79544D02*
X-488565D01*
X-486280D01*
Y72689D01*
X-495421D02*
X-490851D01*
X-495421Y77259D01*
Y78402D01*
X-494279Y79544D01*
X-491993D01*
X-490851Y78402D01*
X-560510Y80017D02*
X-565081D01*
X-562796D01*
Y73162D01*
X-567366D02*
X-569651D01*
X-568509D01*
Y80017D01*
X-567366Y78875D01*
X-493231Y127582D02*
Y134438D01*
X-496659D01*
X-497802Y133295D01*
Y131010D01*
X-496659Y129867D01*
X-493231D01*
X-495516D02*
X-497802Y127582D01*
X-504657D02*
X-500087D01*
X-504657Y132153D01*
Y133295D01*
X-503515Y134438D01*
X-501229D01*
X-500087Y133295D01*
X-510370Y127582D02*
Y134438D01*
X-506942Y131010D01*
X-511513D01*
X-544459Y128906D02*
Y135762D01*
X-547887D01*
X-549030Y134619D01*
Y132334D01*
X-547887Y131191D01*
X-544459D01*
X-546744D02*
X-549030Y128906D01*
X-555885D02*
X-551315D01*
X-555885Y133477D01*
Y134619D01*
X-554743Y135762D01*
X-552457D01*
X-551315Y134619D01*
X-558171D02*
X-559313Y135762D01*
X-561598D01*
X-562741Y134619D01*
Y133477D01*
X-561598Y132334D01*
X-560456D01*
X-561598D01*
X-562741Y131191D01*
Y130049D01*
X-561598Y128906D01*
X-559313D01*
X-558171Y130049D01*
X-590732Y185294D02*
Y192150D01*
X-587304D01*
X-586161Y191007D01*
Y186437D01*
X-587304Y185294D01*
X-590732D01*
X-583876Y192150D02*
X-581591D01*
X-582733D01*
Y185294D01*
X-583876Y186437D01*
X-520815Y184881D02*
X-521958Y186023D01*
Y188309D01*
X-520815Y189451D01*
X-516244D01*
X-515102Y188309D01*
Y186023D01*
X-516244Y184881D01*
X-515102Y182595D02*
Y180310D01*
Y181453D01*
X-521958D01*
X-520815Y182595D01*
X-504271Y184881D02*
X-505414Y186023D01*
Y188309D01*
X-504271Y189451D01*
X-499700D01*
X-498558Y188309D01*
Y186023D01*
X-499700Y184881D01*
X-498558Y178025D02*
Y182595D01*
X-503128Y178025D01*
X-504271D01*
X-505414Y179167D01*
Y181453D01*
X-504271Y182595D01*
X-487727Y184881D02*
X-488870Y186023D01*
Y188309D01*
X-487727Y189451D01*
X-483157D01*
X-482014Y188309D01*
Y186023D01*
X-483157Y184881D01*
X-487727Y182595D02*
X-488870Y181453D01*
Y179167D01*
X-487727Y178025D01*
X-486585D01*
X-485442Y179167D01*
Y180310D01*
Y179167D01*
X-484299Y178025D01*
X-483157D01*
X-482014Y179167D01*
Y181453D01*
X-483157Y182595D01*
X-471183Y184881D02*
X-472326Y186023D01*
Y188309D01*
X-471183Y189451D01*
X-466613D01*
X-465470Y188309D01*
Y186023D01*
X-466613Y184881D01*
X-465470Y179167D02*
X-472326D01*
X-468898Y182595D01*
Y178025D01*
X-537684Y286296D02*
Y293151D01*
X-541112D01*
X-542255Y292009D01*
Y289724D01*
X-541112Y288581D01*
X-537684D01*
X-539970D02*
X-542255Y286296D01*
X-544540Y287438D02*
X-545683Y286296D01*
X-547968D01*
X-549111Y287438D01*
Y292009D01*
X-547968Y293151D01*
X-545683D01*
X-544540Y292009D01*
Y290866D01*
X-545683Y289724D01*
X-549111D01*
X-538370Y253027D02*
Y259883D01*
X-541798D01*
X-542941Y258741D01*
Y256455D01*
X-541798Y255313D01*
X-538370D01*
X-540656D02*
X-542941Y253027D01*
X-545226D02*
X-547511D01*
X-546369D01*
Y259883D01*
X-545226Y258741D01*
X-538263Y235440D02*
Y242296D01*
X-541691D01*
X-542833Y241154D01*
Y238868D01*
X-541691Y237726D01*
X-538263D01*
X-540548D02*
X-542833Y235440D01*
X-545119D02*
X-547404D01*
X-546261D01*
Y242296D01*
X-545119Y241154D01*
X-555402Y242296D02*
X-553117Y241154D01*
X-550832Y238868D01*
Y236583D01*
X-551974Y235440D01*
X-554260D01*
X-555402Y236583D01*
Y237726D01*
X-554260Y238868D01*
X-550832D01*
X-537868Y270027D02*
Y276883D01*
X-541296D01*
X-542438Y275740D01*
Y273455D01*
X-541296Y272313D01*
X-537868D01*
X-540153D02*
X-542438Y270027D01*
X-544724Y276883D02*
X-549294D01*
Y275740D01*
X-544724Y271170D01*
Y270027D01*
X-537834Y219370D02*
Y226226D01*
X-541261D01*
X-542404Y225083D01*
Y222798D01*
X-541261Y221655D01*
X-537834D01*
X-540119D02*
X-542404Y219370D01*
X-544689D02*
X-546975D01*
X-545832D01*
Y226226D01*
X-544689Y225083D01*
X-554973Y219370D02*
X-550402D01*
X-554973Y223941D01*
Y225083D01*
X-553830Y226226D01*
X-551545D01*
X-550402Y225083D01*
X-462572Y292713D02*
Y285857D01*
X-467142D01*
X-469428Y291570D02*
X-470570Y292713D01*
X-472856D01*
X-473998Y291570D01*
Y290428D01*
X-472856Y289285D01*
X-471713D01*
X-472856D01*
X-473998Y288142D01*
Y287000D01*
X-472856Y285857D01*
X-470570D01*
X-469428Y287000D01*
X-463276Y276438D02*
Y269582D01*
X-467846D01*
X-474702D02*
X-470131D01*
X-474702Y274153D01*
Y275295D01*
X-473559Y276438D01*
X-471274D01*
X-470131Y275295D01*
X-463517Y260538D02*
Y253682D01*
X-468088D01*
X-470373D02*
X-472658D01*
X-471515D01*
Y260538D01*
X-470373Y259395D01*
X-462957Y242652D02*
Y235796D01*
X-467527D01*
X-474383Y242652D02*
X-469812D01*
Y239224D01*
X-472098Y240366D01*
X-473240D01*
X-474383Y239224D01*
Y236939D01*
X-473240Y235796D01*
X-470955D01*
X-469812Y236939D01*
X-463491Y225885D02*
Y219029D01*
X-468062D01*
X-473775D02*
Y225885D01*
X-470347Y222457D01*
X-474917D01*
X-261334Y208972D02*
Y214685D01*
X-260192Y215828D01*
X-257907D01*
X-256764Y214685D01*
Y208972D01*
X-254479Y215828D02*
X-252194D01*
X-253336D01*
Y208972D01*
X-254479Y210115D01*
X-54662Y126094D02*
Y132950D01*
X-58090D01*
X-59232Y131807D01*
Y129522D01*
X-58090Y128379D01*
X-54662D01*
X-56947D02*
X-59232Y126094D01*
X-66088Y132950D02*
X-61518D01*
Y129522D01*
X-63803Y130665D01*
X-64946D01*
X-66088Y129522D01*
Y127237D01*
X-64946Y126094D01*
X-62660D01*
X-61518Y127237D01*
X-68373Y126094D02*
X-70659D01*
X-69516D01*
Y132950D01*
X-68373Y131807D01*
X-223877Y89022D02*
Y95878D01*
X-227305D01*
X-228447Y94735D01*
Y92450D01*
X-227305Y91307D01*
X-223877D01*
X-226162D02*
X-228447Y89022D01*
X-234161D02*
Y95878D01*
X-230733Y92450D01*
X-235303D01*
X-242159Y89022D02*
X-237589D01*
X-242159Y93593D01*
Y94735D01*
X-241016Y95878D01*
X-238731D01*
X-237589Y94735D01*
X-53697Y256408D02*
Y263264D01*
X-57125D01*
X-58267Y262121D01*
Y259836D01*
X-57125Y258693D01*
X-53697D01*
X-55982D02*
X-58267Y256408D01*
X-60553Y262121D02*
X-61695Y263264D01*
X-63981D01*
X-65123Y262121D01*
Y260979D01*
X-63981Y259836D01*
X-62838D01*
X-63981D01*
X-65123Y258693D01*
Y257551D01*
X-63981Y256408D01*
X-61695D01*
X-60553Y257551D01*
X-71979Y263264D02*
X-67408D01*
Y259836D01*
X-69694Y260979D01*
X-70836D01*
X-71979Y259836D01*
Y257551D01*
X-70836Y256408D01*
X-68551D01*
X-67408Y257551D01*
X-183836Y138390D02*
Y132677D01*
X-184979Y131534D01*
X-187264D01*
X-188407Y132677D01*
Y138390D01*
X-195263D02*
X-192977Y137247D01*
X-190692Y134962D01*
Y132677D01*
X-191835Y131534D01*
X-194120D01*
X-195263Y132677D01*
Y133820D01*
X-194120Y134962D01*
X-190692D01*
X-139823Y77292D02*
X-144393Y70436D01*
Y77292D02*
X-139823Y70436D01*
X-151249D02*
X-146678D01*
X-151249Y75006D01*
Y76149D01*
X-150106Y77292D01*
X-147821D01*
X-146678Y76149D01*
X-140261Y209930D02*
X-144832Y203074D01*
Y209930D02*
X-140261Y203074D01*
X-147117D02*
X-149403D01*
X-148260D01*
Y209930D01*
X-147117Y208787D01*
X-167161Y318614D02*
Y312901D01*
X-168304Y311758D01*
X-170589D01*
X-171732Y312901D01*
Y318614D01*
X-178587D02*
X-174017D01*
Y315186D01*
X-176302Y316329D01*
X-177445D01*
X-178587Y315186D01*
Y312901D01*
X-177445Y311758D01*
X-175160D01*
X-174017Y312901D01*
X-219111Y197760D02*
Y204615D01*
X-222539D01*
X-223681Y203473D01*
Y201188D01*
X-222539Y200045D01*
X-219111D01*
X-221396D02*
X-223681Y197760D01*
X-230537Y204615D02*
X-228252Y203473D01*
X-225966Y201188D01*
Y198902D01*
X-227109Y197760D01*
X-229394D01*
X-230537Y198902D01*
Y200045D01*
X-229394Y201188D01*
X-225966D01*
X-232822Y203473D02*
X-233965Y204615D01*
X-236250D01*
X-237393Y203473D01*
Y198902D01*
X-236250Y197760D01*
X-233965D01*
X-232822Y198902D01*
Y203473D01*
X-219111Y113686D02*
Y120541D01*
X-222539D01*
X-223681Y119399D01*
Y117114D01*
X-222539Y115971D01*
X-219111D01*
X-221396D02*
X-223681Y113686D01*
X-230537Y120541D02*
X-225966D01*
Y117114D01*
X-228252Y118256D01*
X-229394D01*
X-230537Y117114D01*
Y114828D01*
X-229394Y113686D01*
X-227109D01*
X-225966Y114828D01*
X-232822D02*
X-233965Y113686D01*
X-236250D01*
X-237393Y114828D01*
Y119399D01*
X-236250Y120541D01*
X-233965D01*
X-232822Y119399D01*
Y118256D01*
X-233965Y117114D01*
X-237393D01*
X-52291Y141157D02*
Y148013D01*
X-55719D01*
X-56861Y146870D01*
Y144585D01*
X-55719Y143442D01*
X-52291D01*
X-54576D02*
X-56861Y141157D01*
X-63717Y148013D02*
X-59147D01*
Y144585D01*
X-61432Y145728D01*
X-62575D01*
X-63717Y144585D01*
Y142300D01*
X-62575Y141157D01*
X-60289D01*
X-59147Y142300D01*
X-66002Y146870D02*
X-67145Y148013D01*
X-69430D01*
X-70573Y146870D01*
Y145728D01*
X-69430Y144585D01*
X-70573Y143442D01*
Y142300D01*
X-69430Y141157D01*
X-67145D01*
X-66002Y142300D01*
Y143442D01*
X-67145Y144585D01*
X-66002Y145728D01*
Y146870D01*
X-67145Y144585D02*
X-69430D01*
X-79027Y211202D02*
Y218058D01*
X-82455D01*
X-83597Y216915D01*
Y214630D01*
X-82455Y213487D01*
X-79027D01*
X-81312D02*
X-83597Y211202D01*
X-90453Y218058D02*
X-85883D01*
Y214630D01*
X-88168Y215773D01*
X-89311D01*
X-90453Y214630D01*
Y212345D01*
X-89311Y211202D01*
X-87025D01*
X-85883Y212345D01*
X-92739Y218058D02*
X-97309D01*
Y216915D01*
X-92739Y212345D01*
Y211202D01*
X-219111Y169820D02*
Y176675D01*
X-222539D01*
X-223681Y175533D01*
Y173248D01*
X-222539Y172105D01*
X-219111D01*
X-221396D02*
X-223681Y169820D01*
X-230537Y176675D02*
X-225966D01*
Y173248D01*
X-228252Y174390D01*
X-229394D01*
X-230537Y173248D01*
Y170962D01*
X-229394Y169820D01*
X-227109D01*
X-225966Y170962D01*
X-237393Y176675D02*
X-235107Y175533D01*
X-232822Y173248D01*
Y170962D01*
X-233965Y169820D01*
X-236250D01*
X-237393Y170962D01*
Y172105D01*
X-236250Y173248D01*
X-232822D01*
X-219111Y155850D02*
Y162705D01*
X-222539D01*
X-223681Y161563D01*
Y159278D01*
X-222539Y158135D01*
X-219111D01*
X-221396D02*
X-223681Y155850D01*
X-230537Y162705D02*
X-225966D01*
Y159278D01*
X-228252Y160420D01*
X-229394D01*
X-230537Y159278D01*
Y156992D01*
X-229394Y155850D01*
X-227109D01*
X-225966Y156992D01*
X-237393Y162705D02*
X-232822D01*
Y159278D01*
X-235107Y160420D01*
X-236250D01*
X-237393Y159278D01*
Y156992D01*
X-236250Y155850D01*
X-233965D01*
X-232822Y156992D01*
X-219111Y141626D02*
Y148482D01*
X-222539D01*
X-223681Y147339D01*
Y145054D01*
X-222539Y143911D01*
X-219111D01*
X-221396D02*
X-223681Y141626D01*
X-230537Y148482D02*
X-225966D01*
Y145054D01*
X-228252Y146196D01*
X-229394D01*
X-230537Y145054D01*
Y142768D01*
X-229394Y141626D01*
X-227109D01*
X-225966Y142768D01*
X-236250Y141626D02*
Y148482D01*
X-232822Y145054D01*
X-237393D01*
X-219111Y127656D02*
Y134511D01*
X-222539D01*
X-223681Y133369D01*
Y131084D01*
X-222539Y129941D01*
X-219111D01*
X-221396D02*
X-223681Y127656D01*
X-230537Y134511D02*
X-225966D01*
Y131084D01*
X-228252Y132226D01*
X-229394D01*
X-230537Y131084D01*
Y128798D01*
X-229394Y127656D01*
X-227109D01*
X-225966Y128798D01*
X-232822Y133369D02*
X-233965Y134511D01*
X-236250D01*
X-237393Y133369D01*
Y132226D01*
X-236250Y131084D01*
X-235107D01*
X-236250D01*
X-237393Y129941D01*
Y128798D01*
X-236250Y127656D01*
X-233965D01*
X-232822Y128798D01*
X-219111Y183790D02*
Y190646D01*
X-222539D01*
X-223681Y189503D01*
Y187218D01*
X-222539Y186075D01*
X-219111D01*
X-221396D02*
X-223681Y183790D01*
X-230537Y190646D02*
X-225966D01*
Y187218D01*
X-228252Y188360D01*
X-229394D01*
X-230537Y187218D01*
Y184932D01*
X-229394Y183790D01*
X-227109D01*
X-225966Y184932D01*
X-237393Y183790D02*
X-232822D01*
X-237393Y188360D01*
Y189503D01*
X-236250Y190646D01*
X-233965D01*
X-232822Y189503D01*
X-79027Y182930D02*
Y189786D01*
X-82455D01*
X-83597Y188643D01*
Y186358D01*
X-82455Y185215D01*
X-79027D01*
X-81312D02*
X-83597Y182930D01*
X-90453Y189786D02*
X-85883D01*
Y186358D01*
X-88168Y187500D01*
X-89311D01*
X-90453Y186358D01*
Y184073D01*
X-89311Y182930D01*
X-87025D01*
X-85883Y184073D01*
X-92739Y188643D02*
X-93881Y189786D01*
X-96166D01*
X-97309Y188643D01*
Y184073D01*
X-96166Y182930D01*
X-93881D01*
X-92739Y184073D01*
Y188643D01*
X-103999Y157498D02*
Y164354D01*
X-107427D01*
X-108569Y163211D01*
Y160926D01*
X-107427Y159783D01*
X-103999D01*
X-106284D02*
X-108569Y157498D01*
X-114283D02*
Y164354D01*
X-110855Y160926D01*
X-115425D01*
X-117711Y158641D02*
X-118853Y157498D01*
X-121138D01*
X-122281Y158641D01*
Y163211D01*
X-121138Y164354D01*
X-118853D01*
X-117711Y163211D01*
Y162069D01*
X-118853Y160926D01*
X-122281D01*
X-51866Y169346D02*
Y176202D01*
X-55293D01*
X-56436Y175059D01*
Y172774D01*
X-55293Y171631D01*
X-51866D01*
X-54151D02*
X-56436Y169346D01*
X-62149D02*
Y176202D01*
X-58721Y172774D01*
X-63292D01*
X-65577Y175059D02*
X-66720Y176202D01*
X-69005D01*
X-70148Y175059D01*
Y173917D01*
X-69005Y172774D01*
X-70148Y171631D01*
Y170489D01*
X-69005Y169346D01*
X-66720D01*
X-65577Y170489D01*
Y171631D01*
X-66720Y172774D01*
X-65577Y173917D01*
Y175059D01*
X-66720Y172774D02*
X-69005D01*
X-104680Y84826D02*
Y91682D01*
X-108108D01*
X-109250Y90539D01*
Y88254D01*
X-108108Y87112D01*
X-104680D01*
X-106965D02*
X-109250Y84826D01*
X-114964D02*
Y91682D01*
X-111536Y88254D01*
X-116106D01*
X-118392Y91682D02*
X-122962D01*
Y90539D01*
X-118392Y85969D01*
Y84826D01*
X-219166Y310256D02*
Y317112D01*
X-222594D01*
X-223737Y315969D01*
Y313684D01*
X-222594Y312541D01*
X-219166D01*
X-221451D02*
X-223737Y310256D01*
X-229450D02*
Y317112D01*
X-226022Y313684D01*
X-230592D01*
X-237448Y317112D02*
X-235163Y315969D01*
X-232878Y313684D01*
Y311399D01*
X-234020Y310256D01*
X-236306D01*
X-237448Y311399D01*
Y312541D01*
X-236306Y313684D01*
X-232878D01*
X-219030Y211730D02*
Y218585D01*
X-222458D01*
X-223601Y217443D01*
Y215158D01*
X-222458Y214015D01*
X-219030D01*
X-221315D02*
X-223601Y211730D01*
X-229314D02*
Y218585D01*
X-225886Y215158D01*
X-230456D01*
X-237312Y218585D02*
X-232742D01*
Y215158D01*
X-235027Y216300D01*
X-236169D01*
X-237312Y215158D01*
Y212872D01*
X-236169Y211730D01*
X-233884D01*
X-232742Y212872D01*
X-219166Y296032D02*
Y302888D01*
X-222594D01*
X-223737Y301745D01*
Y299460D01*
X-222594Y298317D01*
X-219166D01*
X-221451D02*
X-223737Y296032D01*
X-229450D02*
Y302888D01*
X-226022Y299460D01*
X-230592D01*
X-232878Y301745D02*
X-234020Y302888D01*
X-236306D01*
X-237448Y301745D01*
Y297175D01*
X-236306Y296032D01*
X-234020D01*
X-232878Y297175D01*
Y301745D01*
X-219166Y254630D02*
Y261486D01*
X-222594D01*
X-223737Y260343D01*
Y258058D01*
X-222594Y256915D01*
X-219166D01*
X-221451D02*
X-223737Y254630D01*
X-226022Y260343D02*
X-227165Y261486D01*
X-229450D01*
X-230592Y260343D01*
Y259201D01*
X-229450Y258058D01*
X-228307D01*
X-229450D01*
X-230592Y256915D01*
Y255773D01*
X-229450Y254630D01*
X-227165D01*
X-226022Y255773D01*
X-232878Y261486D02*
X-237448D01*
Y260343D01*
X-232878Y255773D01*
Y254630D01*
X-187197Y115607D02*
X-188340Y116749D01*
Y119035D01*
X-187197Y120177D01*
X-182627D01*
X-181484Y119035D01*
Y116749D01*
X-182627Y115607D01*
X-187197Y113322D02*
X-188340Y112179D01*
Y109894D01*
X-187197Y108751D01*
X-186055D01*
X-184912Y109894D01*
Y111036D01*
Y109894D01*
X-183770Y108751D01*
X-182627D01*
X-181484Y109894D01*
Y112179D01*
X-182627Y113322D01*
X-188340Y101895D02*
Y106466D01*
X-184912D01*
X-186055Y104180D01*
Y103038D01*
X-184912Y101895D01*
X-182627D01*
X-181484Y103038D01*
Y105323D01*
X-182627Y106466D01*
X-138341Y116046D02*
X-139484Y117188D01*
Y119474D01*
X-138341Y120616D01*
X-133771D01*
X-132628Y119474D01*
Y117188D01*
X-133771Y116046D01*
X-138341Y113760D02*
X-139484Y112618D01*
Y110333D01*
X-138341Y109190D01*
X-137199D01*
X-136056Y110333D01*
Y111475D01*
Y110333D01*
X-134913Y109190D01*
X-133771D01*
X-132628Y110333D01*
Y112618D01*
X-133771Y113760D01*
X-132628Y103477D02*
X-139484D01*
X-136056Y106905D01*
Y102334D01*
X-83179Y203403D02*
X-82036Y204545D01*
X-79751D01*
X-78609Y203403D01*
Y198832D01*
X-79751Y197690D01*
X-82036D01*
X-83179Y198832D01*
X-85464Y203403D02*
X-86607Y204545D01*
X-88892D01*
X-90035Y203403D01*
Y202260D01*
X-88892Y201117D01*
X-87750D01*
X-88892D01*
X-90035Y199975D01*
Y198832D01*
X-88892Y197690D01*
X-86607D01*
X-85464Y198832D01*
X-92320Y203403D02*
X-93463Y204545D01*
X-95748D01*
X-96891Y203403D01*
Y202260D01*
X-95748Y201117D01*
X-94605D01*
X-95748D01*
X-96891Y199975D01*
Y198832D01*
X-95748Y197690D01*
X-93463D01*
X-92320Y198832D01*
X-56091Y189999D02*
X-54948Y191141D01*
X-52663D01*
X-51520Y189999D01*
Y185428D01*
X-52663Y184286D01*
X-54948D01*
X-56091Y185428D01*
X-58376Y189999D02*
X-59519Y191141D01*
X-61804D01*
X-62947Y189999D01*
Y188856D01*
X-61804Y187714D01*
X-60662D01*
X-61804D01*
X-62947Y186571D01*
Y185428D01*
X-61804Y184286D01*
X-59519D01*
X-58376Y185428D01*
X-69802Y184286D02*
X-65232D01*
X-69802Y188856D01*
Y189999D01*
X-68660Y191141D01*
X-66375D01*
X-65232Y189999D01*
X-57477Y159617D02*
X-56334Y160760D01*
X-54049D01*
X-52906Y159617D01*
Y155047D01*
X-54049Y153904D01*
X-56334D01*
X-57477Y155047D01*
X-59762Y159617D02*
X-60905Y160760D01*
X-63190D01*
X-64333Y159617D01*
Y158475D01*
X-63190Y157332D01*
X-62048D01*
X-63190D01*
X-64333Y156189D01*
Y155047D01*
X-63190Y153904D01*
X-60905D01*
X-59762Y155047D01*
X-66618Y153904D02*
X-68903D01*
X-67761D01*
Y160760D01*
X-66618Y159617D01*
X-93447Y95002D02*
X-92304Y93860D01*
Y91574D01*
X-93447Y90432D01*
X-98017D01*
X-99160Y91574D01*
Y93860D01*
X-98017Y95002D01*
X-93447Y97288D02*
X-92304Y98430D01*
Y100716D01*
X-93447Y101858D01*
X-94589D01*
X-95732Y100716D01*
Y99573D01*
Y100716D01*
X-96875Y101858D01*
X-98017D01*
X-99160Y100716D01*
Y98430D01*
X-98017Y97288D01*
X-93447Y104143D02*
X-92304Y105286D01*
Y107571D01*
X-93447Y108714D01*
X-98017D01*
X-99160Y107571D01*
Y105286D01*
X-98017Y104143D01*
X-93447D01*
X-108648Y143710D02*
X-107506Y144853D01*
X-105220D01*
X-104078Y143710D01*
Y139139D01*
X-105220Y137997D01*
X-107506D01*
X-108648Y139139D01*
X-115504Y137997D02*
X-110934D01*
X-115504Y142567D01*
Y143710D01*
X-114361Y144853D01*
X-112076D01*
X-110934Y143710D01*
X-117789Y139139D02*
X-118932Y137997D01*
X-121217D01*
X-122360Y139139D01*
Y143710D01*
X-121217Y144853D01*
X-118932D01*
X-117789Y143710D01*
Y142567D01*
X-118932Y141425D01*
X-122360D01*
X-181320Y247576D02*
X-180177Y246433D01*
Y244148D01*
X-181320Y243005D01*
X-185890D01*
X-187033Y244148D01*
Y246433D01*
X-185890Y247576D01*
X-187033Y254431D02*
Y249861D01*
X-182462Y254431D01*
X-181320D01*
X-180177Y253289D01*
Y251004D01*
X-181320Y249861D01*
X-180177Y256717D02*
Y261287D01*
X-181320D01*
X-185890Y256717D01*
X-187033D01*
X-132172Y247272D02*
X-131029Y246130D01*
Y243844D01*
X-132172Y242702D01*
X-136743D01*
X-137885Y243844D01*
Y246130D01*
X-136743Y247272D01*
X-137885Y254128D02*
Y249557D01*
X-133315Y254128D01*
X-132172D01*
X-131029Y252985D01*
Y250700D01*
X-132172Y249557D01*
X-131029Y260984D02*
X-132172Y258699D01*
X-134457Y256413D01*
X-136743D01*
X-137885Y257556D01*
Y259841D01*
X-136743Y260984D01*
X-135600D01*
X-134457Y259841D01*
Y256413D01*
X-90350Y332574D02*
X-89207Y333717D01*
X-86922D01*
X-85779Y332574D01*
Y328004D01*
X-86922Y326861D01*
X-89207D01*
X-90350Y328004D01*
X-97205Y326861D02*
X-92635D01*
X-97205Y331432D01*
Y332574D01*
X-96063Y333717D01*
X-93777D01*
X-92635Y332574D01*
X-104061Y333717D02*
X-99491D01*
Y330289D01*
X-101776Y331432D01*
X-102919D01*
X-104061Y330289D01*
Y328004D01*
X-102919Y326861D01*
X-100633D01*
X-99491Y328004D01*
X-58267Y234181D02*
X-57125Y235324D01*
X-54840D01*
X-53697Y234181D01*
Y229611D01*
X-54840Y228468D01*
X-57125D01*
X-58267Y229611D01*
X-65123Y228468D02*
X-60553D01*
X-65123Y233039D01*
Y234181D01*
X-63981Y235324D01*
X-61695D01*
X-60553Y234181D01*
X-70836Y228468D02*
Y235324D01*
X-67408Y231896D01*
X-71979D01*
X-58267Y290061D02*
X-57125Y291204D01*
X-54840D01*
X-53697Y290061D01*
Y285491D01*
X-54840Y284348D01*
X-57125D01*
X-58267Y285491D01*
X-65123Y284348D02*
X-60553D01*
X-65123Y288919D01*
Y290061D01*
X-63981Y291204D01*
X-61695D01*
X-60553Y290061D01*
X-67408D02*
X-68551Y291204D01*
X-70836D01*
X-71979Y290061D01*
Y288919D01*
X-70836Y287776D01*
X-69694D01*
X-70836D01*
X-71979Y286633D01*
Y285491D01*
X-70836Y284348D01*
X-68551D01*
X-67408Y285491D01*
X-107970Y237180D02*
X-106827Y238323D01*
X-104542D01*
X-103400Y237180D01*
Y232610D01*
X-104542Y231467D01*
X-106827D01*
X-107970Y232610D01*
X-114826Y231467D02*
X-110255D01*
X-114826Y236038D01*
Y237180D01*
X-113683Y238323D01*
X-111398D01*
X-110255Y237180D01*
X-121682Y231467D02*
X-117111D01*
X-121682Y236038D01*
Y237180D01*
X-120539Y238323D01*
X-118254D01*
X-117111Y237180D01*
X-110022Y272659D02*
X-108880Y273801D01*
X-106595D01*
X-105452Y272659D01*
Y268088D01*
X-106595Y266945D01*
X-108880D01*
X-110022Y268088D01*
X-116878Y266945D02*
X-112308D01*
X-116878Y271516D01*
Y272659D01*
X-115736Y273801D01*
X-113450D01*
X-112308Y272659D01*
X-119164Y266945D02*
X-121449D01*
X-120306D01*
Y273801D01*
X-119164Y272659D01*
X-54610Y116674D02*
X-53467Y117817D01*
X-51182D01*
X-50039Y116674D01*
Y112104D01*
X-51182Y110961D01*
X-53467D01*
X-54610Y112104D01*
X-61466Y110961D02*
X-56895D01*
X-61466Y115532D01*
Y116674D01*
X-60323Y117817D01*
X-58038D01*
X-56895Y116674D01*
X-63751D02*
X-64893Y117817D01*
X-67179D01*
X-68321Y116674D01*
Y112104D01*
X-67179Y110961D01*
X-64893D01*
X-63751Y112104D01*
Y116674D01*
X-53697Y242438D02*
Y249294D01*
X-57125D01*
X-58267Y248151D01*
Y245866D01*
X-57125Y244723D01*
X-53697D01*
X-55982D02*
X-58267Y242438D01*
X-60553Y248151D02*
X-61695Y249294D01*
X-63981D01*
X-65123Y248151D01*
Y247009D01*
X-63981Y245866D01*
X-62838D01*
X-63981D01*
X-65123Y244723D01*
Y243581D01*
X-63981Y242438D01*
X-61695D01*
X-60553Y243581D01*
X-67408Y242438D02*
X-69694D01*
X-68551D01*
Y249294D01*
X-67408Y248151D01*
X-53697Y270378D02*
Y277234D01*
X-57125D01*
X-58267Y276091D01*
Y273806D01*
X-57125Y272663D01*
X-53697D01*
X-55982D02*
X-58267Y270378D01*
X-63981D02*
Y277234D01*
X-60553Y273806D01*
X-65123D01*
X-70836Y270378D02*
Y277234D01*
X-67408Y273806D01*
X-71979D01*
X-85954Y341104D02*
Y347960D01*
X-89382D01*
X-90524Y346817D01*
Y344532D01*
X-89382Y343389D01*
X-85954D01*
X-88239D02*
X-90524Y341104D01*
X-96237D02*
Y347960D01*
X-92809Y344532D01*
X-97380D01*
X-99665Y346817D02*
X-100808Y347960D01*
X-103093D01*
X-104236Y346817D01*
Y345674D01*
X-103093Y344532D01*
X-101951D01*
X-103093D01*
X-104236Y343389D01*
Y342246D01*
X-103093Y341104D01*
X-100808D01*
X-99665Y342246D01*
X-86300Y313150D02*
Y320006D01*
X-89728D01*
X-90870Y318863D01*
Y316578D01*
X-89728Y315435D01*
X-86300D01*
X-88585D02*
X-90870Y313150D01*
X-93156Y318863D02*
X-94298Y320006D01*
X-96583D01*
X-97726Y318863D01*
Y317720D01*
X-96583Y316578D01*
X-95441D01*
X-96583D01*
X-97726Y315435D01*
Y314293D01*
X-96583Y313150D01*
X-94298D01*
X-93156Y314293D01*
X-103439Y313150D02*
Y320006D01*
X-100011Y316578D01*
X-104582D01*
X-219166Y323464D02*
Y330320D01*
X-222594D01*
X-223737Y329177D01*
Y326892D01*
X-222594Y325749D01*
X-219166D01*
X-221451D02*
X-223737Y323464D01*
X-229450D02*
Y330320D01*
X-226022Y326892D01*
X-230592D01*
X-232878Y323464D02*
X-235163D01*
X-234020D01*
Y330320D01*
X-232878Y329177D01*
X-219166Y282568D02*
Y289424D01*
X-222594D01*
X-223737Y288281D01*
Y285996D01*
X-222594Y284853D01*
X-219166D01*
X-221451D02*
X-223737Y282568D01*
X-226022Y288281D02*
X-227165Y289424D01*
X-229450D01*
X-230592Y288281D01*
Y287139D01*
X-229450Y285996D01*
X-228307D01*
X-229450D01*
X-230592Y284853D01*
Y283711D01*
X-229450Y282568D01*
X-227165D01*
X-226022Y283711D01*
X-232878D02*
X-234020Y282568D01*
X-236306D01*
X-237448Y283711D01*
Y288281D01*
X-236306Y289424D01*
X-234020D01*
X-232878Y288281D01*
Y287139D01*
X-234020Y285996D01*
X-237448D01*
X-219166Y268346D02*
Y275202D01*
X-222594D01*
X-223737Y274059D01*
Y271774D01*
X-222594Y270631D01*
X-219166D01*
X-221451D02*
X-223737Y268346D01*
X-226022Y274059D02*
X-227165Y275202D01*
X-229450D01*
X-230592Y274059D01*
Y272917D01*
X-229450Y271774D01*
X-228307D01*
X-229450D01*
X-230592Y270631D01*
Y269489D01*
X-229450Y268346D01*
X-227165D01*
X-226022Y269489D01*
X-232878Y274059D02*
X-234020Y275202D01*
X-236306D01*
X-237448Y274059D01*
Y272917D01*
X-236306Y271774D01*
X-237448Y270631D01*
Y269489D01*
X-236306Y268346D01*
X-234020D01*
X-232878Y269489D01*
Y270631D01*
X-234020Y271774D01*
X-232878Y272917D01*
Y274059D01*
X-234020Y271774D02*
X-236306D01*
X-109379Y288672D02*
Y295528D01*
X-112807D01*
X-113950Y294385D01*
Y292100D01*
X-112807Y290957D01*
X-109379D01*
X-111664D02*
X-113950Y288672D01*
X-116235Y294385D02*
X-117378Y295528D01*
X-119663D01*
X-120806Y294385D01*
Y293243D01*
X-119663Y292100D01*
X-118520D01*
X-119663D01*
X-120806Y290957D01*
Y289815D01*
X-119663Y288672D01*
X-117378D01*
X-116235Y289815D01*
X-123091Y294385D02*
X-124233Y295528D01*
X-126519D01*
X-127661Y294385D01*
Y293243D01*
X-126519Y292100D01*
X-125376D01*
X-126519D01*
X-127661Y290957D01*
Y289815D01*
X-126519Y288672D01*
X-124233D01*
X-123091Y289815D01*
X-53697Y298318D02*
Y305174D01*
X-57125D01*
X-58267Y304031D01*
Y301746D01*
X-57125Y300603D01*
X-53697D01*
X-55982D02*
X-58267Y298318D01*
X-60553Y304031D02*
X-61695Y305174D01*
X-63981D01*
X-65123Y304031D01*
Y302889D01*
X-63981Y301746D01*
X-62838D01*
X-63981D01*
X-65123Y300603D01*
Y299461D01*
X-63981Y298318D01*
X-61695D01*
X-60553Y299461D01*
X-71979Y298318D02*
X-67408D01*
X-71979Y302889D01*
Y304031D01*
X-70836Y305174D01*
X-68551D01*
X-67408Y304031D01*
X-476986Y132707D02*
X-483842D01*
Y129279D01*
X-482699Y128137D01*
X-480414D01*
X-479271Y129279D01*
Y132707D01*
Y130422D02*
X-476986Y128137D01*
X-482699Y125851D02*
X-483842Y124709D01*
Y122423D01*
X-482699Y121281D01*
X-481557D01*
X-480414Y122423D01*
Y123566D01*
Y122423D01*
X-479271Y121281D01*
X-478129D01*
X-476986Y122423D01*
Y124709D01*
X-478129Y125851D01*
X-482514Y92476D02*
X-483656Y93618D01*
Y95904D01*
X-482514Y97046D01*
X-477943D01*
X-476800Y95904D01*
Y93618D01*
X-477943Y92476D01*
X-483656Y85620D02*
Y90191D01*
X-480228D01*
X-481371Y87905D01*
Y86763D01*
X-480228Y85620D01*
X-477943D01*
X-476800Y86763D01*
Y89048D01*
X-477943Y90191D01*
M02*
