G04*
G04 #@! TF.GenerationSoftware,Altium Limited,Altium Designer,24.0.1 (36)*
G04*
G04 Layer_Color=65535*
%FSLAX44Y44*%
%MOMM*%
G71*
G04*
G04 #@! TF.SameCoordinates,D38121D6-FCFD-4B36-9C1B-6ACBE93BEE1E*
G04*
G04*
G04 #@! TF.FilePolarity,Positive*
G04*
G01*
G75*
%ADD10C,0.2000*%
%ADD11C,0.2540*%
%ADD12C,0.1270*%
%ADD13C,0.1524*%
G36*
X527740Y362441D02*
Y362441D01*
X527620Y362560D01*
X527620Y362561D01*
X527740Y362441D01*
D02*
G37*
G36*
X172104Y350327D02*
X171802Y349598D01*
X171321Y348971D01*
X170760Y348540D01*
X167603D01*
X167042Y348971D01*
X166561Y349598D01*
X166259Y350327D01*
X166226Y350579D01*
X172138D01*
X172104Y350327D01*
D02*
G37*
G36*
X95056Y348540D02*
X94640D01*
X94250Y348618D01*
X93919Y348839D01*
X93698Y349170D01*
X93621Y349560D01*
X93698Y349950D01*
X93919Y350281D01*
X94250Y350502D01*
X94640Y350579D01*
X95056D01*
Y348540D01*
D02*
G37*
G36*
X530570Y333373D02*
X530426Y333588D01*
X530327Y334084D01*
X530426Y334579D01*
X530570Y334795D01*
Y333373D01*
D02*
G37*
G36*
Y329208D02*
X530426Y329423D01*
X530327Y329919D01*
X530426Y330414D01*
X530570Y330630D01*
Y329208D01*
D02*
G37*
G36*
Y319208D02*
X530426Y319423D01*
X530327Y319919D01*
X530426Y320414D01*
X530570Y320630D01*
Y319208D01*
D02*
G37*
G36*
X174500Y309626D02*
X172460D01*
Y322580D01*
X174500D01*
Y309626D01*
D02*
G37*
G36*
X530570Y300877D02*
X530426Y301092D01*
X530327Y301588D01*
X530426Y302083D01*
X530570Y302299D01*
Y300877D01*
D02*
G37*
G36*
X430930Y293451D02*
X430722Y293537D01*
X430095Y294018D01*
X429635Y294618D01*
Y297698D01*
X430095Y298297D01*
X430722Y298778D01*
X430930Y298865D01*
Y293451D01*
D02*
G37*
G36*
X511377Y296198D02*
Y292768D01*
X510082Y294062D01*
Y297493D01*
X511377Y296198D01*
D02*
G37*
G36*
X530570Y291581D02*
X530333Y291618D01*
X530426Y292083D01*
X530570Y292299D01*
Y291581D01*
D02*
G37*
G36*
X538848Y291242D02*
X538827Y291134D01*
X538315D01*
X538063Y291386D01*
X537884Y291819D01*
Y292206D01*
X538848Y291242D01*
D02*
G37*
G36*
X535157Y292457D02*
X535460Y291728D01*
X535563Y290944D01*
X535477Y290293D01*
X531622D01*
X531127Y290392D01*
X530706Y290672D01*
X530705Y290674D01*
X531098Y291187D01*
X531528Y292224D01*
X531615Y292882D01*
X531622Y292883D01*
X534831D01*
X535157Y292457D01*
D02*
G37*
G36*
X430930Y282275D02*
X430722Y282361D01*
X430095Y282842D01*
X429635Y283442D01*
Y286522D01*
X430095Y287122D01*
X430722Y287602D01*
X430930Y287689D01*
Y282275D01*
D02*
G37*
G36*
X491140Y271479D02*
X491493Y271018D01*
X489281D01*
X490054Y271535D01*
X490858Y271695D01*
X491140Y271479D01*
D02*
G37*
G36*
X157705Y246940D02*
X104231D01*
X106270Y248979D01*
X157705D01*
Y246940D01*
D02*
G37*
G36*
X95056D02*
X94640D01*
X94250Y247018D01*
X93919Y247239D01*
X93698Y247570D01*
X93621Y247960D01*
X93698Y248350D01*
X93919Y248681D01*
X94250Y248902D01*
X94640Y248979D01*
X95056D01*
Y246940D01*
D02*
G37*
G36*
X378352Y246842D02*
X378565Y245769D01*
X378305Y245821D01*
X377884Y246102D01*
X377604Y246522D01*
X377505Y247017D01*
X377604Y247513D01*
X377754Y247737D01*
X378352Y246842D01*
D02*
G37*
G36*
X157705Y243060D02*
X142676D01*
X142286Y243138D01*
X141955Y243359D01*
X141734Y243690D01*
X141657Y244080D01*
X141734Y244470D01*
X141955Y244801D01*
X142286Y245022D01*
X142676Y245100D01*
X157705D01*
Y243060D01*
D02*
G37*
G36*
X116816Y245022D02*
X117147Y244801D01*
X117368Y244470D01*
X117446Y244080D01*
Y238198D01*
X116566Y238562D01*
X115452Y238709D01*
X115407D01*
Y244080D01*
X115484Y244470D01*
X115705Y244801D01*
X116036Y245022D01*
X116426Y245100D01*
X116816Y245022D01*
D02*
G37*
G36*
X378352Y237193D02*
X377754Y236297D01*
X377629Y236484D01*
X377604Y236522D01*
X377505Y237017D01*
X377604Y237513D01*
X377629Y237551D01*
X377884Y237933D01*
X378305Y238214D01*
X378565Y238266D01*
X378352Y237193D01*
D02*
G37*
G36*
X121450Y235136D02*
X120702D01*
X120312Y235214D01*
X119981Y235435D01*
X119760Y235766D01*
X119683Y236156D01*
X119760Y236546D01*
X119981Y236877D01*
X120312Y237098D01*
X120702Y237175D01*
X121450D01*
X121450Y235136D01*
D02*
G37*
G36*
X79392Y236801D02*
X79393Y236800D01*
X79286Y236660D01*
Y234900D01*
X78972Y234690D01*
X78483Y234592D01*
X78570Y235250D01*
X79000Y236287D01*
X79286Y236660D01*
Y236872D01*
X79392Y236801D01*
D02*
G37*
G36*
X71952Y236287D02*
X72382Y235250D01*
X72469Y234592D01*
X71981Y234690D01*
X71561Y234970D01*
X71280Y235390D01*
X71181Y235886D01*
X71280Y236381D01*
X71559Y236800D01*
X71952Y236287D01*
D02*
G37*
G36*
X406844Y233307D02*
X405868Y233113D01*
X404893Y233307D01*
X404284Y233713D01*
X407452D01*
X406844Y233307D01*
D02*
G37*
G36*
X385996Y229689D02*
X386095Y229193D01*
X386008Y228755D01*
X385996Y228697D01*
X385971Y228659D01*
X385716Y228277D01*
X385296Y227997D01*
X385035Y227945D01*
X385248Y229018D01*
X385846Y229913D01*
X385996Y229689D01*
D02*
G37*
G36*
X378352Y229018D02*
X378565Y227945D01*
X378305Y227997D01*
X377884Y228277D01*
X377629Y228659D01*
X377604Y228697D01*
X377505Y229193D01*
X377604Y229689D01*
X377629Y229727D01*
X377754Y229913D01*
X378352Y229018D01*
D02*
G37*
G36*
X121450Y225136D02*
X120702D01*
X120312Y225214D01*
X119981Y225435D01*
X119760Y225766D01*
X119683Y226156D01*
X119760Y226546D01*
X119981Y226877D01*
X120312Y227098D01*
X120702Y227176D01*
X121450D01*
X121450Y225136D01*
D02*
G37*
G36*
X72382Y226522D02*
X71952Y225485D01*
X71559Y224972D01*
X71280Y225390D01*
X71181Y225886D01*
X71280Y226381D01*
X71561Y226801D01*
X71981Y227082D01*
X72469Y227179D01*
X72382Y226522D01*
D02*
G37*
G36*
X78972Y227082D02*
X79286Y226872D01*
Y225111D01*
X79393Y224972D01*
X79392Y224970D01*
X79286Y224900D01*
Y225111D01*
X79000Y225485D01*
X78570Y226522D01*
X78483Y227179D01*
X78972Y227082D01*
D02*
G37*
G36*
X378784Y220423D02*
X378723Y219955D01*
X378295Y220383D01*
X378305Y220389D01*
X378475Y220423D01*
X378793Y220487D01*
X378784Y220423D01*
D02*
G37*
G36*
X385125D02*
X385296Y220389D01*
X385716Y220109D01*
X385802Y219979D01*
X385566Y219743D01*
X384930D01*
X384894Y219830D01*
X384816Y220423D01*
X384807Y220487D01*
X385125Y220423D01*
D02*
G37*
G36*
X380383Y217898D02*
X378800D01*
X378305Y217997D01*
X377884Y218277D01*
X377883Y218279D01*
X378184Y218671D01*
X379443Y218838D01*
X380383Y217898D01*
D02*
G37*
G36*
X425258Y212104D02*
X425589Y211883D01*
X425810Y211552D01*
X425888Y211162D01*
Y211110D01*
X425468D01*
X424394Y211252D01*
X423907Y211454D01*
X423926Y211552D01*
X424147Y211883D01*
X424478Y212104D01*
X424868Y212181D01*
X425258Y212104D01*
D02*
G37*
G36*
X385296Y212565D02*
X385588Y212370D01*
X385651Y212197D01*
X385585Y212111D01*
X385324Y211770D01*
X384894Y210732D01*
X384871Y210560D01*
X384807Y210075D01*
X384800Y210074D01*
X379969D01*
Y212664D01*
X384800D01*
X385296Y212565D01*
D02*
G37*
G36*
X406665Y201610D02*
X405072D01*
X405868Y201769D01*
X406665Y201610D01*
D02*
G37*
G36*
X385996Y200873D02*
X385846Y200649D01*
X385651Y200941D01*
X386010D01*
X385996Y200873D01*
D02*
G37*
G36*
X384807Y202662D02*
X384894Y202005D01*
X385324Y200967D01*
X385344Y200941D01*
X385015D01*
X384364Y200291D01*
X384361Y200074D01*
X379210D01*
Y202664D01*
X384800D01*
X384807Y202662D01*
D02*
G37*
G36*
X406844Y196865D02*
X405868Y196671D01*
X404893Y196865D01*
X404284Y197271D01*
X407452D01*
X406844Y196865D01*
D02*
G37*
G36*
X377859Y194107D02*
X377649D01*
X377754Y194264D01*
X377859Y194107D01*
D02*
G37*
G36*
X379667Y192980D02*
X378571Y193235D01*
X378276Y193946D01*
X378153Y194107D01*
X378464D01*
X379197Y194839D01*
X381526D01*
X379667Y192980D01*
D02*
G37*
G36*
X385996Y194040D02*
X386095Y193544D01*
X385996Y193049D01*
X385716Y192629D01*
X385296Y192348D01*
X384807Y192251D01*
X384894Y192908D01*
X385324Y193946D01*
X385717Y194458D01*
X385996Y194040D01*
D02*
G37*
G36*
X425888Y187720D02*
X425810Y187330D01*
X425589Y186999D01*
X425258Y186778D01*
X424868Y186700D01*
X424478Y186778D01*
X424147Y186999D01*
X423926Y187330D01*
X423907Y187428D01*
X424394Y187630D01*
X425468Y187771D01*
X425888D01*
Y187720D01*
D02*
G37*
G36*
X461688Y185715D02*
X461787Y185220D01*
X461688Y184724D01*
X461408Y184304D01*
X460988Y184023D01*
X460499Y183926D01*
X460586Y184583D01*
X461016Y185621D01*
X461409Y186134D01*
X461688Y185715D01*
D02*
G37*
G36*
X453968Y185621D02*
X454398Y184583D01*
X454485Y183926D01*
X453997Y184023D01*
X453577Y184304D01*
X453296Y184724D01*
X453197Y185220D01*
X453296Y185715D01*
X453575Y186134D01*
X453968Y185621D01*
D02*
G37*
G36*
X385296Y184741D02*
X385716Y184460D01*
X385996Y184040D01*
X386095Y183544D01*
X385996Y183049D01*
X385717Y182631D01*
X385324Y183143D01*
X384894Y184181D01*
X384807Y184838D01*
X385296Y184741D01*
D02*
G37*
G36*
X377931Y176572D02*
X377928Y176533D01*
X377863Y176604D01*
X377883Y176634D01*
X377931Y176572D01*
D02*
G37*
G36*
X425258Y175662D02*
X425589Y175441D01*
X425810Y175110D01*
X425888Y174720D01*
Y174668D01*
X425468D01*
X424394Y174810D01*
X423907Y175012D01*
X423926Y175110D01*
X424147Y175441D01*
X424478Y175662D01*
X424868Y175739D01*
X425258Y175662D01*
D02*
G37*
G36*
X385996Y176215D02*
X386095Y175720D01*
X385996Y175224D01*
X385716Y174804D01*
X385296Y174524D01*
X384807Y174426D01*
X384894Y175084D01*
X385324Y176121D01*
X385717Y176634D01*
X385996Y176215D01*
D02*
G37*
G36*
X460988Y176416D02*
X461408Y176136D01*
X461688Y175715D01*
X461787Y175220D01*
X461688Y174724D01*
X461409Y174306D01*
X461016Y174818D01*
X460586Y175856D01*
X460499Y176513D01*
X460988Y176416D01*
D02*
G37*
G36*
X454398Y175856D02*
X453968Y174818D01*
X453575Y174306D01*
X453296Y174724D01*
X453197Y175220D01*
X453296Y175715D01*
X453577Y176136D01*
X453997Y176416D01*
X454485Y176513D01*
X454398Y175856D01*
D02*
G37*
G36*
X385296Y166916D02*
X385716Y166635D01*
X385996Y166215D01*
X386095Y165720D01*
X385996Y165224D01*
X385717Y164806D01*
X385324Y165319D01*
X384894Y166356D01*
X384807Y167013D01*
X385296Y166916D01*
D02*
G37*
G36*
X378706Y166356D02*
X378276Y165319D01*
X377883Y164806D01*
X377604Y165224D01*
X377505Y165720D01*
X377604Y166215D01*
X377884Y166635D01*
X378305Y166916D01*
X378793Y167013D01*
X378706Y166356D01*
D02*
G37*
G36*
X423842Y152053D02*
X423941Y151558D01*
X423842Y151062D01*
X423562Y150642D01*
X423142Y150361D01*
X422653Y150264D01*
X422740Y150921D01*
X423170Y151959D01*
X423563Y152472D01*
X423842Y152053D01*
D02*
G37*
G36*
X416122Y151959D02*
X416552Y150921D01*
X416639Y150264D01*
X416151Y150361D01*
X415731Y150642D01*
X415475Y151024D01*
Y151059D01*
X415444Y151090D01*
X415351Y151558D01*
X415450Y152053D01*
X415729Y152472D01*
X416122Y151959D01*
D02*
G37*
G36*
X117446Y145197D02*
X115407D01*
Y159004D01*
X117446D01*
Y145197D01*
D02*
G37*
G36*
X452619Y142078D02*
X452525Y142065D01*
X452542Y142155D01*
X452619Y142078D01*
D02*
G37*
G36*
X444314Y143254D02*
X444734Y142973D01*
X445014Y142553D01*
X445112Y142065D01*
X444454Y142152D01*
X443417Y142582D01*
X442904Y142975D01*
X443323Y143254D01*
X443818Y143353D01*
X444314Y143254D01*
D02*
G37*
G36*
X423142Y142754D02*
X423562Y142473D01*
X423842Y142053D01*
X423941Y141558D01*
X423842Y141062D01*
X423563Y140644D01*
X423170Y141157D01*
X422740Y142194D01*
X422653Y142851D01*
X423142Y142754D01*
D02*
G37*
G36*
X416552Y142194D02*
X416122Y141157D01*
X415729Y140644D01*
X415475Y141024D01*
Y142092D01*
X415731Y142473D01*
X416151Y142754D01*
X416639Y142851D01*
X416552Y142194D01*
D02*
G37*
G36*
X222446Y140080D02*
X222368Y139690D01*
X222147Y139359D01*
X221816Y139138D01*
X221426Y139060D01*
X168084D01*
X166045Y141100D01*
X220406D01*
Y144526D01*
X222446Y144526D01*
Y140080D01*
D02*
G37*
G36*
X157142Y139060D02*
X130218D01*
X128179Y141100D01*
X155103D01*
X157142Y139060D01*
D02*
G37*
G36*
X453182Y135964D02*
X454220Y135534D01*
X454732Y135141D01*
X454314Y134862D01*
X453818Y134763D01*
X453323Y134862D01*
X452902Y135142D01*
X452622Y135562D01*
X452525Y136051D01*
X453182Y135964D01*
D02*
G37*
G36*
X445014Y135562D02*
X444734Y135142D01*
X444314Y134862D01*
X443818Y134763D01*
X443323Y134862D01*
X442904Y135141D01*
X443417Y135534D01*
X444454Y135964D01*
X445112Y136051D01*
X445014Y135562D01*
D02*
G37*
G36*
X234316Y134890D02*
X234647Y134669D01*
X234868Y134338D01*
X234946Y133948D01*
Y126819D01*
X232906D01*
Y133948D01*
X232984Y134338D01*
X233205Y134669D01*
X233536Y134890D01*
X233926Y134967D01*
X234316Y134890D01*
D02*
G37*
G36*
X425888Y126150D02*
X425810Y125760D01*
X425589Y125429D01*
X425258Y125208D01*
X424868Y125130D01*
X424478Y125208D01*
X424147Y125429D01*
X423926Y125760D01*
X423907Y125858D01*
X424394Y126060D01*
X425468Y126201D01*
X425888D01*
Y126150D01*
D02*
G37*
G36*
X79075Y124124D02*
X77236D01*
Y122453D01*
X76575Y122366D01*
X75792Y122469D01*
X75196Y122716D01*
Y125144D01*
X75274Y125534D01*
X75495Y125865D01*
X75826Y126086D01*
X76216Y126164D01*
X79075D01*
Y124124D01*
D02*
G37*
G36*
X342592Y121144D02*
X343010Y120865D01*
X342497Y120472D01*
X341460Y120042D01*
X340803Y119955D01*
X340900Y120443D01*
X341180Y120864D01*
X341601Y121144D01*
X342096Y121243D01*
X342592Y121144D01*
D02*
G37*
G36*
X332592D02*
X333012Y120864D01*
X333293Y120443D01*
X333390Y119955D01*
X332733Y120042D01*
X331695Y120472D01*
X331182Y120865D01*
X331601Y121144D01*
X332096Y121243D01*
X332592Y121144D01*
D02*
G37*
G36*
X233442Y119380D02*
X232906D01*
Y119464D01*
X233442D01*
Y119380D01*
D02*
G37*
G36*
X324960Y118890D02*
X325291Y118669D01*
X325512Y118338D01*
X325533Y118231D01*
X325158Y117856D01*
X323550D01*
Y117948D01*
X323628Y118338D01*
X323849Y118669D01*
X324180Y118890D01*
X324570Y118968D01*
X324960Y118890D01*
D02*
G37*
G36*
X314960D02*
X315291Y118669D01*
X315512Y118338D01*
X315590Y117948D01*
Y117856D01*
X313551D01*
Y117948D01*
X313628Y118338D01*
X313849Y118669D01*
X314180Y118890D01*
X314570Y118968D01*
X314960Y118890D01*
D02*
G37*
G36*
X307688D02*
X308019Y118669D01*
X308240Y118338D01*
X308318Y117948D01*
Y117856D01*
X306278D01*
Y117948D01*
X306356Y118338D01*
X306577Y118669D01*
X306908Y118890D01*
X307298Y118968D01*
X307688Y118890D01*
D02*
G37*
G36*
X297688D02*
X298019Y118669D01*
X298240Y118338D01*
X298318Y117948D01*
Y117856D01*
X296279D01*
Y117948D01*
X296356Y118338D01*
X296577Y118669D01*
X296908Y118890D01*
X297298Y118968D01*
X297688Y118890D01*
D02*
G37*
G36*
X260316Y134890D02*
X260647Y134669D01*
X260868Y134338D01*
X260946Y133948D01*
Y130964D01*
X260410D01*
Y117856D01*
X260946D01*
Y115932D01*
X260410D01*
Y117856D01*
X259880D01*
X258906Y118829D01*
Y133948D01*
X258984Y134338D01*
X259205Y134669D01*
X259536Y134890D01*
X259926Y134967D01*
X260316Y134890D01*
D02*
G37*
G36*
X385996Y116290D02*
X386095Y115795D01*
X385996Y115299D01*
X385716Y114879D01*
X385296Y114598D01*
X384807Y114501D01*
X384894Y115158D01*
X385324Y116196D01*
X385717Y116708D01*
X385996Y116290D01*
D02*
G37*
G36*
X378276Y116196D02*
X378706Y115158D01*
X378793Y114501D01*
X378305Y114598D01*
X377884Y114879D01*
X377604Y115299D01*
X377505Y115795D01*
X377604Y116290D01*
X377883Y116708D01*
X378276Y116196D01*
D02*
G37*
G36*
X425258Y114092D02*
X425589Y113871D01*
X425810Y113540D01*
X425888Y113150D01*
Y113098D01*
X425468D01*
X424394Y113240D01*
X423907Y113442D01*
X423926Y113540D01*
X424147Y113871D01*
X424478Y114092D01*
X424868Y114170D01*
X425258Y114092D01*
D02*
G37*
G36*
X341460Y113854D02*
X342497Y113424D01*
X343010Y113031D01*
X342592Y112752D01*
X342096Y112653D01*
X341601Y112752D01*
X341180Y113032D01*
X340900Y113452D01*
X340803Y113941D01*
X341460Y113854D01*
D02*
G37*
G36*
X333293Y113452D02*
X333012Y113032D01*
X332592Y112752D01*
X332096Y112653D01*
X331601Y112752D01*
X331182Y113031D01*
X331695Y113424D01*
X332733Y113854D01*
X333390Y113941D01*
X333293Y113452D01*
D02*
G37*
G36*
X69071Y114619D02*
X69265Y113644D01*
X69071Y112668D01*
X68579Y111931D01*
X68303Y112596D01*
X68165Y113644D01*
X68303Y114692D01*
X68579Y115356D01*
X69071Y114619D01*
D02*
G37*
G36*
X260946Y105410D02*
X260410D01*
Y107964D01*
X260946D01*
Y105410D01*
D02*
G37*
G36*
X385296Y106991D02*
X385716Y106710D01*
X385996Y106290D01*
X386095Y105795D01*
X385996Y105299D01*
X385846Y105075D01*
X385667Y105343D01*
X385561Y105382D01*
X385375Y105326D01*
X385324Y105393D01*
X384894Y106431D01*
X384820Y106991D01*
X384807Y107088D01*
X385296Y106991D01*
D02*
G37*
G36*
X378706Y106431D02*
X378276Y105393D01*
X377883Y104881D01*
X377604Y105299D01*
X377505Y105795D01*
X377604Y106290D01*
X377884Y106710D01*
X378305Y106991D01*
X378793Y107088D01*
X378706Y106431D01*
D02*
G37*
G36*
X407671Y99374D02*
X407452Y99227D01*
X404284D01*
X404066Y99374D01*
X403984Y99496D01*
X407752D01*
X407671Y99374D01*
D02*
G37*
G36*
X385996Y98663D02*
X386095Y98167D01*
X385996Y97671D01*
X385716Y97251D01*
X385296Y96971D01*
X384807Y96874D01*
X384868Y97331D01*
X384894Y97531D01*
X385324Y98568D01*
X385375Y98636D01*
X385627Y98559D01*
X385846Y98887D01*
X385996Y98663D01*
D02*
G37*
G36*
X378276Y98568D02*
X378706Y97531D01*
X378793Y96874D01*
X378305Y96971D01*
X377884Y97251D01*
X377604Y97671D01*
X377505Y98167D01*
X377604Y98663D01*
X377725Y98844D01*
X378065D01*
X378276Y98568D01*
D02*
G37*
G36*
X34644Y94543D02*
X35040Y94240D01*
X35335Y93855D01*
X35390Y93578D01*
X35312Y93188D01*
X35091Y92857D01*
X34761Y92636D01*
X34370Y92558D01*
X31370D01*
X30980Y92636D01*
X30649Y92857D01*
X30429Y93188D01*
X30351Y93578D01*
X30385Y93750D01*
X30761Y94240D01*
X31177Y94559D01*
X31370Y94598D01*
X34370D01*
X34644Y94543D01*
D02*
G37*
G36*
X159402Y94562D02*
X159403Y94560D01*
X159169Y94255D01*
Y92575D01*
X158982Y92450D01*
X158493Y92352D01*
X158580Y93010D01*
X159010Y94047D01*
X159169Y94255D01*
Y94717D01*
X159402Y94562D01*
D02*
G37*
G36*
X151962Y94047D02*
X152392Y93010D01*
X152479Y92352D01*
X151991Y92450D01*
X151571Y92730D01*
X151290Y93150D01*
X151191Y93646D01*
X151290Y94141D01*
X151569Y94560D01*
X151962Y94047D01*
D02*
G37*
G36*
X425810Y89286D02*
X425589Y88955D01*
X425258Y88734D01*
X424868Y88656D01*
X424478Y88734D01*
X424147Y88955D01*
X423958Y89238D01*
X425468Y89538D01*
X425860D01*
X425810Y89286D01*
D02*
G37*
G36*
X260410Y92932D02*
X260946D01*
Y88392D01*
X258906D01*
Y105410D01*
X260410D01*
Y92932D01*
D02*
G37*
G36*
X385296Y89363D02*
X385716Y89083D01*
X385971Y88701D01*
Y87633D01*
X385717Y87253D01*
X385324Y87766D01*
X384894Y88804D01*
X384807Y89460D01*
X385296Y89363D01*
D02*
G37*
G36*
X378706Y88804D02*
X378276Y87766D01*
X377883Y87253D01*
X377604Y87672D01*
X377505Y88167D01*
X377604Y88663D01*
X377884Y89083D01*
X378305Y89363D01*
X378793Y89460D01*
X378706Y88804D01*
D02*
G37*
G36*
X234946Y117106D02*
Y83948D01*
X233442D01*
Y118610D01*
X234946Y117106D01*
D02*
G37*
G36*
X158982Y84842D02*
X159402Y84562D01*
X159682Y84141D01*
X159781Y83646D01*
X159682Y83150D01*
X159403Y82732D01*
X159010Y83244D01*
X158580Y84282D01*
X158493Y84939D01*
X158982Y84842D01*
D02*
G37*
G36*
X152392Y84282D02*
X151962Y83244D01*
X151569Y82732D01*
X151290Y83150D01*
X151191Y83646D01*
X151290Y84141D01*
X151571Y84562D01*
X151991Y84842D01*
X152479Y84939D01*
X152392Y84282D01*
D02*
G37*
G36*
X233442Y81432D02*
X232906D01*
Y83948D01*
X233442D01*
Y81432D01*
D02*
G37*
G36*
X425258Y77618D02*
X425589Y77397D01*
X425810Y77066D01*
X425888Y76676D01*
Y76624D01*
X425468D01*
X424394Y76766D01*
X423907Y76968D01*
X423926Y77066D01*
X424147Y77397D01*
X424478Y77618D01*
X424868Y77695D01*
X425258Y77618D01*
D02*
G37*
G36*
X385971Y78210D02*
Y77142D01*
X385716Y76760D01*
X385296Y76480D01*
X384807Y76382D01*
X384894Y77039D01*
X385324Y78077D01*
X385717Y78590D01*
X385971Y78210D01*
D02*
G37*
G36*
X378276Y78077D02*
X378706Y77039D01*
X378793Y76382D01*
X378305Y76480D01*
X377884Y76760D01*
X377604Y77180D01*
X377505Y77676D01*
X377604Y78171D01*
X377883Y78590D01*
X378276Y78077D01*
D02*
G37*
G36*
X461688Y78171D02*
X461787Y77676D01*
X461688Y77180D01*
X461408Y76760D01*
X460988Y76480D01*
X460499Y76382D01*
X460586Y77039D01*
X461016Y78077D01*
X461409Y78590D01*
X461688Y78171D01*
D02*
G37*
G36*
X453968Y78077D02*
X454398Y77039D01*
X454485Y76382D01*
X453997Y76480D01*
X453577Y76760D01*
X453296Y77180D01*
X453197Y77676D01*
X453296Y78171D01*
X453575Y78590D01*
X453968Y78077D01*
D02*
G37*
G36*
X276902Y70803D02*
X277729Y70250D01*
X277941Y69932D01*
X273911D01*
X274124Y70250D01*
X274951Y70803D01*
X275926Y70997D01*
X276902Y70803D01*
D02*
G37*
G36*
X260946Y69932D02*
X260410D01*
Y84964D01*
X260946D01*
Y69932D01*
D02*
G37*
G36*
X385296Y68872D02*
X385716Y68591D01*
X385996Y68171D01*
X386095Y67676D01*
X385996Y67180D01*
X385717Y66762D01*
X385324Y67274D01*
X384894Y68312D01*
X384807Y68969D01*
X385296Y68872D01*
D02*
G37*
G36*
X378706Y68312D02*
X378276Y67274D01*
X377883Y66762D01*
X377604Y67180D01*
X377505Y67676D01*
X377604Y68171D01*
X377884Y68591D01*
X378305Y68872D01*
X378793Y68969D01*
X378706Y68312D01*
D02*
G37*
G36*
X460988Y68872D02*
X461408Y68591D01*
X461688Y68171D01*
X461787Y67676D01*
X461688Y67180D01*
X461409Y66762D01*
X461016Y67274D01*
X460586Y68312D01*
X460499Y68969D01*
X460988Y68872D01*
D02*
G37*
G36*
X454398Y68312D02*
X453968Y67274D01*
X453575Y66762D01*
X453296Y67180D01*
X453197Y67676D01*
X453296Y68171D01*
X453577Y68591D01*
X453997Y68872D01*
X454485Y68969D01*
X454398Y68312D01*
D02*
G37*
D10*
X73936Y157180D02*
G03*
X73936Y157180I-1000J0D01*
G01*
X567986Y52577D02*
X593386D01*
X567986D02*
Y357377D01*
X593386D01*
Y338327D02*
Y357377D01*
Y52577D02*
Y338327D01*
X-48364Y171858D02*
Y248858D01*
X233926Y133948D02*
X259926D01*
X116426Y244080D02*
X142676D01*
D11*
X41872Y225858D02*
G03*
X41872Y225858I-2236J0D01*
G01*
X416646Y237017D02*
X422646D01*
X416646Y247017D02*
X422646D01*
D12*
X57936Y170680D02*
Y205680D01*
X87936Y170680D02*
Y205680D01*
D13*
X68450Y138536D02*
Y132823D01*
X69593Y131680D01*
X71878D01*
X73021Y132823D01*
Y138536D01*
X75306Y137393D02*
X76449Y138536D01*
X78734D01*
X79877Y137393D01*
Y136250D01*
X78734Y135108D01*
X77591D01*
X78734D01*
X79877Y133965D01*
Y132823D01*
X78734Y131680D01*
X76449D01*
X75306Y132823D01*
X509800Y151845D02*
X508658Y152987D01*
X506372D01*
X505230Y151845D01*
Y147274D01*
X506372Y146131D01*
X508658D01*
X509800Y147274D01*
X516656Y146131D02*
X512085D01*
X516656Y150702D01*
Y151845D01*
X515513Y152987D01*
X513228D01*
X512085Y151845D01*
X518941D02*
X520084Y152987D01*
X522369D01*
X523512Y151845D01*
Y150702D01*
X522369Y149559D01*
X523512Y148417D01*
Y147274D01*
X522369Y146131D01*
X520084D01*
X518941Y147274D01*
Y148417D01*
X520084Y149559D01*
X518941Y150702D01*
Y151845D01*
X520084Y149559D02*
X522369D01*
X413052Y250822D02*
Y257678D01*
X416480D01*
X417623Y256535D01*
Y254250D01*
X416480Y253108D01*
X413052D01*
X415337D02*
X417623Y250822D01*
X424478D02*
X419908D01*
X424478Y255393D01*
Y256535D01*
X423336Y257678D01*
X421051D01*
X419908Y256535D01*
X47491Y185476D02*
X46349Y184333D01*
Y182048D01*
X47491Y180905D01*
X52062D01*
X53204Y182048D01*
Y184333D01*
X52062Y185476D01*
X53204Y187761D02*
Y190046D01*
Y188903D01*
X46349D01*
X47491Y187761D01*
Y193474D02*
X46349Y194617D01*
Y196902D01*
X47491Y198044D01*
X48634D01*
X49776Y196902D01*
X50919Y198044D01*
X52062D01*
X53204Y196902D01*
Y194617D01*
X52062Y193474D01*
X50919D01*
X49776Y194617D01*
X48634Y193474D01*
X47491D01*
X49776Y194617D02*
Y196902D01*
X592624Y409065D02*
X590339D01*
X591482D01*
Y403352D01*
X590339Y402209D01*
X589196D01*
X588054Y403352D01*
X594910Y402209D02*
X597195D01*
X596052D01*
Y409065D01*
X594910Y407922D01*
X-33710Y275951D02*
X-35995D01*
X-34853D01*
Y270238D01*
X-35995Y269095D01*
X-37138D01*
X-38280Y270238D01*
X-26854Y269095D02*
X-31425D01*
X-26854Y273666D01*
Y274809D01*
X-27997Y275951D01*
X-30282D01*
X-31425Y274809D01*
X5673Y61054D02*
X4530Y62196D01*
X2245D01*
X1102Y61054D01*
Y56483D01*
X2245Y55340D01*
X4530D01*
X5673Y56483D01*
X7958Y55340D02*
X10243D01*
X9101D01*
Y62196D01*
X7958Y61054D01*
X13671D02*
X14814Y62196D01*
X17099D01*
X18242Y61054D01*
Y59911D01*
X17099Y58768D01*
X15956D01*
X17099D01*
X18242Y57626D01*
Y56483D01*
X17099Y55340D01*
X14814D01*
X13671Y56483D01*
X360979Y259661D02*
X359836Y258518D01*
Y256233D01*
X360979Y255090D01*
X365549D01*
X366692Y256233D01*
Y258518D01*
X365549Y259661D01*
X366692Y261946D02*
Y264231D01*
Y263088D01*
X359836D01*
X360979Y261946D01*
X359836Y272229D02*
X360979Y269944D01*
X363264Y267659D01*
X365549D01*
X366692Y268802D01*
Y271087D01*
X365549Y272229D01*
X364406D01*
X363264Y271087D01*
Y267659D01*
X367192Y235222D02*
X360336D01*
Y238650D01*
X361479Y239793D01*
X363764D01*
X364907Y238650D01*
Y235222D01*
Y237507D02*
X367192Y239793D01*
Y245506D02*
X360336D01*
X363764Y242078D01*
Y246649D01*
X367192Y220023D02*
X360336D01*
Y223451D01*
X361479Y224594D01*
X363764D01*
X364907Y223451D01*
Y220023D01*
Y222308D02*
X367192Y224594D01*
X360336Y231449D02*
X361479Y229164D01*
X363764Y226879D01*
X366049D01*
X367192Y228021D01*
Y230307D01*
X366049Y231449D01*
X364907D01*
X363764Y230307D01*
Y226879D01*
X367192Y198812D02*
X360336D01*
Y202239D01*
X361479Y203382D01*
X363764D01*
X364907Y202239D01*
Y198812D01*
Y201097D02*
X367192Y203382D01*
Y205667D02*
Y207953D01*
Y206810D01*
X360336D01*
X361479Y205667D01*
X367192Y211381D02*
Y213666D01*
Y212523D01*
X360336D01*
X361479Y211381D01*
X367192Y181028D02*
X360336D01*
Y184456D01*
X361479Y185599D01*
X363764D01*
X364907Y184456D01*
Y181028D01*
Y183313D02*
X367192Y185599D01*
X361479Y187884D02*
X360336Y189027D01*
Y191312D01*
X361479Y192454D01*
X362621D01*
X363764Y191312D01*
X364907Y192454D01*
X366049D01*
X367192Y191312D01*
Y189027D01*
X366049Y187884D01*
X364907D01*
X363764Y189027D01*
X362621Y187884D01*
X361479D01*
X363764Y189027D02*
Y191312D01*
X367192Y157531D02*
X360336D01*
Y160959D01*
X361479Y162102D01*
X363764D01*
X364907Y160959D01*
Y157531D01*
Y159817D02*
X367192Y162102D01*
Y164387D02*
Y166672D01*
Y165530D01*
X360336D01*
X361479Y164387D01*
Y170100D02*
X360336Y171243D01*
Y173528D01*
X361479Y174671D01*
X362621D01*
X363764Y173528D01*
Y172386D01*
Y173528D01*
X364907Y174671D01*
X366049D01*
X367192Y173528D01*
Y171243D01*
X366049Y170100D01*
X458090Y239977D02*
X464946D01*
Y236549D01*
X463803Y235406D01*
X461518D01*
X460376Y236549D01*
Y239977D01*
Y237691D02*
X458090Y235406D01*
X464946Y228550D02*
Y233121D01*
X461518D01*
X462661Y230836D01*
Y229693D01*
X461518Y228550D01*
X459233D01*
X458090Y229693D01*
Y231978D01*
X459233Y233121D01*
X473007Y178685D02*
Y185541D01*
X476435D01*
X477578Y184399D01*
Y182113D01*
X476435Y180971D01*
X473007D01*
X475293D02*
X477578Y178685D01*
X479863D02*
X482148D01*
X481006D01*
Y185541D01*
X479863Y184399D01*
X485576D02*
X486719Y185541D01*
X489004D01*
X490147Y184399D01*
Y179828D01*
X489004Y178685D01*
X486719D01*
X485576Y179828D01*
Y184399D01*
X476812Y165861D02*
X475669Y167004D01*
X473384D01*
X472241Y165861D01*
Y161291D01*
X473384Y160148D01*
X475669D01*
X476812Y161291D01*
X479097Y165861D02*
X480239Y167004D01*
X482525D01*
X483667Y165861D01*
Y164718D01*
X482525Y163576D01*
X481382D01*
X482525D01*
X483667Y162433D01*
Y161291D01*
X482525Y160148D01*
X480239D01*
X479097Y161291D01*
X485953Y167004D02*
X490523D01*
Y165861D01*
X485953Y161291D01*
Y160148D01*
X475021Y71788D02*
Y78644D01*
X478449D01*
X479592Y77501D01*
Y75216D01*
X478449Y74073D01*
X475021D01*
X477306D02*
X479592Y71788D01*
X486447D02*
X481877D01*
X486447Y76358D01*
Y77501D01*
X485305Y78644D01*
X483019D01*
X481877Y77501D01*
X493303Y71788D02*
X488733D01*
X493303Y76358D01*
Y77501D01*
X492160Y78644D01*
X489875D01*
X488733Y77501D01*
X457195Y147766D02*
X464051D01*
Y144338D01*
X462908Y143195D01*
X460623D01*
X459480Y144338D01*
Y147766D01*
Y145480D02*
X457195Y143195D01*
Y140910D02*
Y138624D01*
Y139767D01*
X464051D01*
X462908Y140910D01*
X458338Y135197D02*
X457195Y134054D01*
Y131769D01*
X458338Y130626D01*
X462908D01*
X464051Y131769D01*
Y134054D01*
X462908Y135197D01*
X461766D01*
X460623Y134054D01*
Y130626D01*
X409443Y154898D02*
Y161754D01*
X412871D01*
X414014Y160611D01*
Y158326D01*
X412871Y157184D01*
X409443D01*
X411729D02*
X414014Y154898D01*
X416299D02*
X418585D01*
X417442D01*
Y161754D01*
X416299Y160611D01*
X422012Y161754D02*
X426583D01*
Y160611D01*
X422012Y156041D01*
Y154898D01*
X373738Y154306D02*
Y161162D01*
X377166D01*
X378309Y160019D01*
Y157734D01*
X377166Y156591D01*
X373738D01*
X376024D02*
X378309Y154306D01*
X380594D02*
X382879D01*
X381737D01*
Y161162D01*
X380594Y160019D01*
X386307D02*
X387450Y161162D01*
X389735D01*
X390878Y160019D01*
Y158876D01*
X389735Y157734D01*
X390878Y156591D01*
Y155449D01*
X389735Y154306D01*
X387450D01*
X386307Y155449D01*
Y156591D01*
X387450Y157734D01*
X386307Y158876D01*
Y160019D01*
X387450Y157734D02*
X389735D01*
X366940Y124209D02*
X360084D01*
Y127637D01*
X361227Y128779D01*
X363512D01*
X364655Y127637D01*
Y124209D01*
Y126494D02*
X366940Y128779D01*
Y135635D02*
Y131065D01*
X362369Y135635D01*
X361227D01*
X360084Y134493D01*
Y132207D01*
X361227Y131065D01*
Y137920D02*
X360084Y139063D01*
Y141348D01*
X361227Y142491D01*
X365797D01*
X366940Y141348D01*
Y139063D01*
X365797Y137920D01*
X361227D01*
X366940Y101920D02*
X360084D01*
Y105348D01*
X361227Y106491D01*
X363512D01*
X364655Y105348D01*
Y101920D01*
Y104205D02*
X366940Y106491D01*
Y108776D02*
Y111061D01*
Y109919D01*
X360084D01*
X361227Y108776D01*
X360084Y119060D02*
Y114489D01*
X363512D01*
X362369Y116774D01*
Y117917D01*
X363512Y119060D01*
X365797D01*
X366940Y117917D01*
Y115632D01*
X365797Y114489D01*
X366432Y81917D02*
X359576D01*
Y85345D01*
X360719Y86488D01*
X363004D01*
X364147Y85345D01*
Y81917D01*
Y84203D02*
X366432Y86488D01*
Y93344D02*
Y88773D01*
X361861Y93344D01*
X360719D01*
X359576Y92201D01*
Y89916D01*
X360719Y88773D01*
X366432Y95629D02*
Y97914D01*
Y96772D01*
X359576D01*
X360719Y95629D01*
X366432Y61280D02*
X359576D01*
Y64708D01*
X360719Y65851D01*
X363004D01*
X364147Y64708D01*
Y61280D01*
Y63565D02*
X366432Y65851D01*
Y68136D02*
Y70421D01*
Y69279D01*
X359576D01*
X360719Y68136D01*
X366432Y77277D02*
X359576D01*
X363004Y73849D01*
Y78420D01*
X429567Y70739D02*
X434137D01*
X435280Y71881D01*
Y74166D01*
X434137Y75309D01*
X429567D01*
X428424Y74166D01*
Y71881D01*
X430709Y73024D02*
X428424Y70739D01*
Y71881D02*
X429567Y70739D01*
X428424Y65025D02*
X435280D01*
X431852Y68453D01*
Y63883D01*
X430823Y108092D02*
X435393D01*
X436536Y109235D01*
Y111520D01*
X435393Y112663D01*
X430823D01*
X429680Y111520D01*
Y109235D01*
X431965Y110378D02*
X429680Y108092D01*
Y109235D02*
X430823Y108092D01*
X435393Y105807D02*
X436536Y104665D01*
Y102379D01*
X435393Y101237D01*
X434251D01*
X433108Y102379D01*
Y103522D01*
Y102379D01*
X431965Y101237D01*
X430823D01*
X429680Y102379D01*
Y104665D01*
X430823Y105807D01*
X437060Y189231D02*
Y193801D01*
X435917Y194944D01*
X433632D01*
X432489Y193801D01*
Y189231D01*
X433632Y188088D01*
X435917D01*
X434774Y190373D02*
X437060Y188088D01*
X435917D02*
X437060Y189231D01*
X443915Y188088D02*
X439345D01*
X443915Y192659D01*
Y193801D01*
X442773Y194944D01*
X440487D01*
X439345Y193801D01*
X436424Y226061D02*
Y230631D01*
X435281Y231774D01*
X432996D01*
X431854Y230631D01*
Y226061D01*
X432996Y224918D01*
X435281D01*
X434139Y227203D02*
X436424Y224918D01*
X435281D02*
X436424Y226061D01*
X438709Y224918D02*
X440995D01*
X439852D01*
Y231774D01*
X438709Y230631D01*
X437214Y256347D02*
X436072Y255205D01*
Y252920D01*
X437214Y251777D01*
X441785D01*
X442928Y252920D01*
Y255205D01*
X441785Y256347D01*
X437214Y258633D02*
X436072Y259775D01*
Y262061D01*
X437214Y263203D01*
X438357D01*
X439500Y262061D01*
Y260918D01*
Y262061D01*
X440642Y263203D01*
X441785D01*
X442928Y262061D01*
Y259775D01*
X441785Y258633D01*
X436072Y270059D02*
X437214Y267774D01*
X439500Y265488D01*
X441785D01*
X442928Y266631D01*
Y268916D01*
X441785Y270059D01*
X440642D01*
X439500Y268916D01*
Y265488D01*
X468934Y346248D02*
Y339393D01*
X472361D01*
X473504Y340535D01*
Y345106D01*
X472361Y346248D01*
X468934D01*
X479217Y339393D02*
Y346248D01*
X475789Y342821D01*
X480360D01*
X424361Y345566D02*
Y338710D01*
X427789D01*
X428932Y339853D01*
Y344423D01*
X427789Y345566D01*
X424361D01*
X435787Y338710D02*
X431217D01*
X435787Y343280D01*
Y344423D01*
X434645Y345566D01*
X432359D01*
X431217Y344423D01*
X376092Y344628D02*
Y337772D01*
X379520D01*
X380663Y338915D01*
Y343485D01*
X379520Y344628D01*
X376092D01*
X387519D02*
X382948D01*
Y341200D01*
X385233Y342342D01*
X386376D01*
X387519Y341200D01*
Y338915D01*
X386376Y337772D01*
X384091D01*
X382948Y338915D01*
X514157Y307659D02*
X513014Y306516D01*
Y304231D01*
X514157Y303088D01*
X518727D01*
X519870Y304231D01*
Y306516D01*
X518727Y307659D01*
X519870Y309944D02*
Y312229D01*
Y311087D01*
X513014D01*
X514157Y309944D01*
X518727Y315657D02*
X519870Y316800D01*
Y319085D01*
X518727Y320228D01*
X514157D01*
X513014Y319085D01*
Y316800D01*
X514157Y315657D01*
X515299D01*
X516442Y316800D01*
Y320228D01*
X548058Y332483D02*
X554914D01*
Y329055D01*
X553771Y327912D01*
X551486D01*
X550344Y329055D01*
Y332483D01*
Y330198D02*
X548058Y327912D01*
X553771Y325627D02*
X554914Y324484D01*
Y322199D01*
X553771Y321057D01*
X552629D01*
X551486Y322199D01*
Y323342D01*
Y322199D01*
X550344Y321057D01*
X549201D01*
X548058Y322199D01*
Y324484D01*
X549201Y325627D01*
X553771Y318771D02*
X554914Y317629D01*
Y315343D01*
X553771Y314201D01*
X549201D01*
X548058Y315343D01*
Y317629D01*
X549201Y318771D01*
X553771D01*
X333160Y101851D02*
X340016D01*
Y98423D01*
X338873Y97280D01*
X336588D01*
X335446Y98423D01*
Y101851D01*
Y99566D02*
X333160Y97280D01*
Y90425D02*
Y94995D01*
X337731Y90425D01*
X338873D01*
X340016Y91567D01*
Y93853D01*
X338873Y94995D01*
X340016Y83569D02*
Y88139D01*
X336588D01*
X337731Y85854D01*
Y84711D01*
X336588Y83569D01*
X334303D01*
X333160Y84711D01*
Y86997D01*
X334303Y88139D01*
X300902Y140239D02*
X299759Y141382D01*
X297474D01*
X296331Y140239D01*
Y135669D01*
X297474Y134526D01*
X299759D01*
X300902Y135669D01*
X307757Y141382D02*
X305472Y140239D01*
X303187Y137954D01*
Y135669D01*
X304329Y134526D01*
X306615D01*
X307757Y135669D01*
Y136811D01*
X306615Y137954D01*
X303187D01*
X318870Y69068D02*
X317727Y70211D01*
X315442D01*
X314299Y69068D01*
Y64497D01*
X315442Y63355D01*
X317727D01*
X318870Y64497D01*
X321155Y70211D02*
X325726D01*
Y69068D01*
X321155Y64497D01*
Y63355D01*
X317629Y140239D02*
X316487Y141382D01*
X314202D01*
X313059Y140239D01*
Y135669D01*
X314202Y134526D01*
X316487D01*
X317629Y135669D01*
X319915Y140239D02*
X321057Y141382D01*
X323343D01*
X324485Y140239D01*
Y139096D01*
X323343Y137954D01*
X324485Y136811D01*
Y135669D01*
X323343Y134526D01*
X321057D01*
X319915Y135669D01*
Y136811D01*
X321057Y137954D01*
X319915Y139096D01*
Y140239D01*
X321057Y137954D02*
X323343D01*
X301533Y69177D02*
X300390Y70320D01*
X298105D01*
X296962Y69177D01*
Y64607D01*
X298105Y63464D01*
X300390D01*
X301533Y64607D01*
X303818D02*
X304960Y63464D01*
X307246D01*
X308388Y64607D01*
Y69177D01*
X307246Y70320D01*
X304960D01*
X303818Y69177D01*
Y68035D01*
X304960Y66892D01*
X308388D01*
X263819Y203326D02*
Y196470D01*
X267247D01*
X268389Y197613D01*
Y202183D01*
X267247Y203326D01*
X263819D01*
X270675Y202183D02*
X271817Y203326D01*
X274103D01*
X275245Y202183D01*
Y201040D01*
X274103Y199898D01*
X272960D01*
X274103D01*
X275245Y198755D01*
Y197613D01*
X274103Y196470D01*
X271817D01*
X270675Y197613D01*
X203875Y127888D02*
Y122175D01*
X205018Y121032D01*
X207303D01*
X208445Y122175D01*
Y127888D01*
X215301Y121032D02*
X210731D01*
X215301Y125603D01*
Y126745D01*
X214159Y127888D01*
X211873D01*
X210731Y126745D01*
X171048Y85196D02*
Y92051D01*
X174476D01*
X175618Y90909D01*
Y88623D01*
X174476Y87481D01*
X171048D01*
X173333D02*
X175618Y85196D01*
X182474D02*
X177903D01*
X182474Y89766D01*
Y90909D01*
X181331Y92051D01*
X179046D01*
X177903Y90909D01*
X189330Y92051D02*
X187045Y90909D01*
X184759Y88623D01*
Y86338D01*
X185902Y85196D01*
X188187D01*
X189330Y86338D01*
Y87481D01*
X188187Y88623D01*
X184759D01*
X175757Y106692D02*
X174615Y107835D01*
X172329D01*
X171187Y106692D01*
Y102122D01*
X172329Y100979D01*
X174615D01*
X175757Y102122D01*
X178042Y100979D02*
X180328D01*
X179185D01*
Y107835D01*
X178042Y106692D01*
X183756D02*
X184898Y107835D01*
X187183D01*
X188326Y106692D01*
Y102122D01*
X187183Y100979D01*
X184898D01*
X183756Y102122D01*
Y106692D01*
X5498Y75704D02*
X4356Y76847D01*
X2070D01*
X928Y75704D01*
Y71134D01*
X2070Y69991D01*
X4356D01*
X5498Y71134D01*
X7783Y69991D02*
X10069D01*
X8926D01*
Y76847D01*
X7783Y75704D01*
X16925Y69991D02*
Y76847D01*
X13497Y73419D01*
X18067D01*
X5812Y91402D02*
X4670Y92544D01*
X2385D01*
X1242Y91402D01*
Y86831D01*
X2385Y85688D01*
X4670D01*
X5812Y86831D01*
X8098Y85688D02*
X10383D01*
X9240D01*
Y92544D01*
X8098Y91402D01*
X18381Y85688D02*
X13811D01*
X18381Y90259D01*
Y91402D01*
X17239Y92544D01*
X14953D01*
X13811Y91402D01*
X6955Y106576D02*
X5812Y107718D01*
X3527D01*
X2385Y106576D01*
Y102005D01*
X3527Y100863D01*
X5812D01*
X6955Y102005D01*
X9240Y100863D02*
X11526D01*
X10383D01*
Y107718D01*
X9240Y106576D01*
X14954Y100863D02*
X17239D01*
X16096D01*
Y107718D01*
X14954Y106576D01*
X100499Y228796D02*
X99357Y227653D01*
Y225368D01*
X100499Y224225D01*
X105070D01*
X106212Y225368D01*
Y227653D01*
X105070Y228796D01*
X106212Y231081D02*
Y233366D01*
Y232224D01*
X99357D01*
X100499Y231081D01*
X99357Y236794D02*
Y241365D01*
X100499D01*
X105070Y236794D01*
X106212D01*
X66872Y215842D02*
Y222698D01*
X70299D01*
X71442Y221555D01*
Y219270D01*
X70299Y218127D01*
X66872D01*
X69157D02*
X71442Y215842D01*
X78298D02*
X73727D01*
X78298Y220413D01*
Y221555D01*
X77155Y222698D01*
X74870D01*
X73727Y221555D01*
X80583D02*
X81726Y222698D01*
X84011D01*
X85154Y221555D01*
Y220413D01*
X84011Y219270D01*
X85154Y218127D01*
Y216985D01*
X84011Y215842D01*
X81726D01*
X80583Y216985D01*
Y218127D01*
X81726Y219270D01*
X80583Y220413D01*
Y221555D01*
X81726Y219270D02*
X84011D01*
X94523Y159980D02*
Y153124D01*
X99093D01*
X105949Y159980D02*
X103664Y158837D01*
X101379Y156552D01*
Y154267D01*
X102521Y153124D01*
X104806D01*
X105949Y154267D01*
Y155409D01*
X104806Y156552D01*
X101379D01*
X274169Y351535D02*
X273026Y352678D01*
X270741D01*
X269598Y351535D01*
Y346965D01*
X270741Y345822D01*
X273026D01*
X274169Y346965D01*
X276454Y345822D02*
X278739D01*
X277597D01*
Y352678D01*
X276454Y351535D01*
X286738Y352678D02*
X282167D01*
Y349250D01*
X284453Y350392D01*
X285595D01*
X286738Y349250D01*
Y346965D01*
X285595Y345822D01*
X283310D01*
X282167Y346965D01*
X43347Y345368D02*
Y339655D01*
X44490Y338512D01*
X46775D01*
X47917Y339655D01*
Y345368D01*
X53631Y338512D02*
Y345368D01*
X50203Y341940D01*
X54773D01*
X526597Y280544D02*
Y287400D01*
X530025D01*
X531168Y286257D01*
Y283972D01*
X530025Y282829D01*
X526597D01*
X528882D02*
X531168Y280544D01*
X538023D02*
X533453D01*
X538023Y285114D01*
Y286257D01*
X536881Y287400D01*
X534595D01*
X533453Y286257D01*
X540309Y287400D02*
X544879D01*
Y286257D01*
X540309Y281687D01*
Y280544D01*
X519000Y327472D02*
X512144D01*
Y330900D01*
X513287Y332043D01*
X515572D01*
X516715Y330900D01*
Y327472D01*
Y329758D02*
X519000Y332043D01*
Y338899D02*
Y334328D01*
X514430Y338899D01*
X513287D01*
X512144Y337756D01*
Y335471D01*
X513287Y334328D01*
X517857Y341184D02*
X519000Y342327D01*
Y344612D01*
X517857Y345755D01*
X513287D01*
X512144Y344612D01*
Y342327D01*
X513287Y341184D01*
X514430D01*
X515572Y342327D01*
Y345755D01*
X531168Y372998D02*
X535738D01*
Y371855D01*
X531168Y367285D01*
Y366142D01*
X535738D01*
X538023D02*
X540309D01*
X539166D01*
Y372998D01*
X538023Y371855D01*
X479353Y363348D02*
Y370204D01*
X482781D01*
X483924Y369061D01*
Y366776D01*
X482781Y365633D01*
X479353D01*
X481638D02*
X483924Y363348D01*
X486209Y369061D02*
X487351Y370204D01*
X489637D01*
X490779Y369061D01*
Y367919D01*
X489637Y366776D01*
X488494D01*
X489637D01*
X490779Y365633D01*
Y364491D01*
X489637Y363348D01*
X487351D01*
X486209Y364491D01*
X497635Y370204D02*
X495350Y369061D01*
X493065Y366776D01*
Y364491D01*
X494207Y363348D01*
X496493D01*
X497635Y364491D01*
Y365633D01*
X496493Y366776D01*
X493065D01*
M02*
