G04*
G04 #@! TF.GenerationSoftware,Altium Limited,Altium Designer,24.0.1 (36)*
G04*
G04 Layer_Color=65535*
%FSLAX44Y44*%
%MOMM*%
G71*
G04*
G04 #@! TF.SameCoordinates,E4FC931E-1C7A-40CD-B5D5-C7D3481EEB9B*
G04*
G04*
G04 #@! TF.FilePolarity,Positive*
G04*
G01*
G75*
%ADD10C,0.2000*%
%ADD11C,0.2540*%
%ADD12C,0.1270*%
%ADD13C,0.1524*%
G36*
X37278Y32467D02*
Y32467D01*
X37159Y32587D01*
X37159Y32587D01*
X37278Y32467D01*
D02*
G37*
G36*
X-318357Y20353D02*
X-318660Y19624D01*
X-319140Y18997D01*
X-319702Y18566D01*
X-322859D01*
X-323420Y18997D01*
X-323901Y19624D01*
X-324203Y20353D01*
X-324236Y20605D01*
X-318324D01*
X-318357Y20353D01*
D02*
G37*
G36*
X-395406Y18566D02*
X-395822D01*
X-396212Y18644D01*
X-396543Y18865D01*
X-396763Y19196D01*
X-396841Y19586D01*
X-396763Y19976D01*
X-396543Y20307D01*
X-396212Y20528D01*
X-395822Y20605D01*
X-395406D01*
Y18566D01*
D02*
G37*
G36*
X40108Y3399D02*
X39964Y3614D01*
X39866Y4110D01*
X39964Y4606D01*
X40108Y4821D01*
Y3399D01*
D02*
G37*
G36*
Y-766D02*
X39964Y-551D01*
X39866Y-55D01*
X39964Y440D01*
X40108Y656D01*
Y-766D01*
D02*
G37*
G36*
Y-10766D02*
X39964Y-10551D01*
X39866Y-10055D01*
X39964Y-9560D01*
X40108Y-9344D01*
Y-10766D01*
D02*
G37*
G36*
X-315962Y-20348D02*
X-318001D01*
Y-7394D01*
X-315962D01*
Y-20348D01*
D02*
G37*
G36*
X40108Y-29097D02*
X39964Y-28881D01*
X39866Y-28386D01*
X39964Y-27890D01*
X40108Y-27675D01*
Y-29097D01*
D02*
G37*
G36*
X-59532Y-36523D02*
X-59740Y-36437D01*
X-60367Y-35956D01*
X-60827Y-35356D01*
Y-32276D01*
X-60367Y-31676D01*
X-59740Y-31196D01*
X-59532Y-31109D01*
Y-36523D01*
D02*
G37*
G36*
X20916Y-33776D02*
Y-37206D01*
X19621Y-35911D01*
Y-32481D01*
X20916Y-33776D01*
D02*
G37*
G36*
X40108Y-38393D02*
X39871Y-38356D01*
X39964Y-37890D01*
X40108Y-37675D01*
Y-38393D01*
D02*
G37*
G36*
X48387Y-38732D02*
X48365Y-38840D01*
X47854D01*
X47602Y-38588D01*
X47422Y-38155D01*
Y-37768D01*
X48387Y-38732D01*
D02*
G37*
G36*
X44696Y-37517D02*
X44998Y-38246D01*
X45101Y-39030D01*
X45015Y-39681D01*
X41160D01*
X40665Y-39582D01*
X40245Y-39302D01*
X40244Y-39300D01*
X40637Y-38787D01*
X41067Y-37750D01*
X41153Y-37092D01*
X41160Y-37091D01*
X44369D01*
X44696Y-37517D01*
D02*
G37*
G36*
X-59532Y-47699D02*
X-59740Y-47613D01*
X-60367Y-47132D01*
X-60827Y-46532D01*
Y-43452D01*
X-60367Y-42852D01*
X-59740Y-42372D01*
X-59532Y-42285D01*
Y-47699D01*
D02*
G37*
G36*
X678Y-58495D02*
X1032Y-58956D01*
X-1181D01*
X-407Y-58439D01*
X396Y-58279D01*
X678Y-58495D01*
D02*
G37*
G36*
X-332756Y-83034D02*
X-386231D01*
X-384192Y-80995D01*
X-332756D01*
Y-83034D01*
D02*
G37*
G36*
X-395406D02*
X-395822D01*
X-396212Y-82956D01*
X-396543Y-82735D01*
X-396763Y-82404D01*
X-396841Y-82014D01*
X-396763Y-81624D01*
X-396543Y-81293D01*
X-396212Y-81072D01*
X-395822Y-80995D01*
X-395406D01*
Y-83034D01*
D02*
G37*
G36*
X-112110Y-83132D02*
X-111896Y-84205D01*
X-112157Y-84153D01*
X-112577Y-83872D01*
X-112858Y-83452D01*
X-112956Y-82956D01*
X-112858Y-82461D01*
X-112708Y-82236D01*
X-112110Y-83132D01*
D02*
G37*
G36*
X-332756Y-86914D02*
X-347786D01*
X-348176Y-86836D01*
X-348507Y-86615D01*
X-348727Y-86284D01*
X-348805Y-85894D01*
X-348727Y-85504D01*
X-348507Y-85173D01*
X-348176Y-84952D01*
X-347786Y-84874D01*
X-332756D01*
Y-86914D01*
D02*
G37*
G36*
X-373645Y-84952D02*
X-373315Y-85173D01*
X-373094Y-85504D01*
X-373016Y-85894D01*
Y-91776D01*
X-373896Y-91412D01*
X-375010Y-91265D01*
X-375055D01*
Y-85894D01*
X-374978Y-85504D01*
X-374757Y-85173D01*
X-374426Y-84952D01*
X-374036Y-84874D01*
X-373645Y-84952D01*
D02*
G37*
G36*
X-112110Y-92781D02*
X-112708Y-93676D01*
X-112832Y-93490D01*
X-112858Y-93452D01*
X-112956Y-92956D01*
X-112858Y-92461D01*
X-112832Y-92423D01*
X-112577Y-92041D01*
X-112157Y-91760D01*
X-111896Y-91708D01*
X-112110Y-92781D01*
D02*
G37*
G36*
X-369012Y-94838D02*
X-369760D01*
X-370150Y-94760D01*
X-370480Y-94539D01*
X-370701Y-94208D01*
X-370779Y-93818D01*
X-370701Y-93428D01*
X-370480Y-93097D01*
X-370150Y-92876D01*
X-369760Y-92799D01*
X-369012D01*
X-369012Y-94838D01*
D02*
G37*
G36*
X-411070Y-93172D02*
X-411069Y-93174D01*
X-411176Y-93314D01*
Y-95074D01*
X-411490Y-95284D01*
X-411978Y-95381D01*
X-411892Y-94724D01*
X-411462Y-93687D01*
X-411176Y-93314D01*
Y-93102D01*
X-411070Y-93172D01*
D02*
G37*
G36*
X-418509Y-93687D02*
X-418079Y-94724D01*
X-417993Y-95381D01*
X-418481Y-95284D01*
X-418901Y-95004D01*
X-419182Y-94584D01*
X-419281Y-94088D01*
X-419182Y-93593D01*
X-418902Y-93174D01*
X-418509Y-93687D01*
D02*
G37*
G36*
X-83618Y-96667D02*
X-84594Y-96861D01*
X-85569Y-96667D01*
X-86177Y-96260D01*
X-83010D01*
X-83618Y-96667D01*
D02*
G37*
G36*
X-104465Y-100285D02*
X-104367Y-100781D01*
X-104454Y-101219D01*
X-104465Y-101276D01*
X-104491Y-101314D01*
X-104746Y-101697D01*
X-105166Y-101977D01*
X-105427Y-102029D01*
X-105213Y-100956D01*
X-104615Y-100061D01*
X-104465Y-100285D01*
D02*
G37*
G36*
X-112110Y-100956D02*
X-111896Y-102029D01*
X-112157Y-101977D01*
X-112577Y-101697D01*
X-112832Y-101314D01*
X-112858Y-101276D01*
X-112956Y-100781D01*
X-112858Y-100285D01*
X-112832Y-100247D01*
X-112708Y-100061D01*
X-112110Y-100956D01*
D02*
G37*
G36*
X-369012Y-104838D02*
X-369760D01*
X-370150Y-104760D01*
X-370480Y-104539D01*
X-370701Y-104208D01*
X-370779Y-103818D01*
X-370701Y-103428D01*
X-370480Y-103097D01*
X-370150Y-102876D01*
X-369760Y-102798D01*
X-369012D01*
X-369012Y-104838D01*
D02*
G37*
G36*
X-418079Y-103452D02*
X-418509Y-104489D01*
X-418902Y-105002D01*
X-419182Y-104584D01*
X-419281Y-104088D01*
X-419182Y-103593D01*
X-418901Y-103172D01*
X-418481Y-102892D01*
X-417993Y-102795D01*
X-418079Y-103452D01*
D02*
G37*
G36*
X-411490Y-102892D02*
X-411176Y-103102D01*
Y-104863D01*
X-411069Y-105002D01*
X-411070Y-105004D01*
X-411176Y-105074D01*
Y-104863D01*
X-411462Y-104489D01*
X-411892Y-103452D01*
X-411978Y-102795D01*
X-411490Y-102892D01*
D02*
G37*
G36*
X-111677Y-109551D02*
X-111739Y-110019D01*
X-112167Y-109591D01*
X-112157Y-109585D01*
X-111987Y-109551D01*
X-111669Y-109487D01*
X-111677Y-109551D01*
D02*
G37*
G36*
X-105337D02*
X-105166Y-109585D01*
X-104746Y-109865D01*
X-104660Y-109994D01*
X-104896Y-110231D01*
X-105532D01*
X-105568Y-110145D01*
X-105646Y-109551D01*
X-105654Y-109487D01*
X-105337Y-109551D01*
D02*
G37*
G36*
X-110079Y-112076D02*
X-111662D01*
X-112157Y-111977D01*
X-112577Y-111696D01*
X-112578Y-111695D01*
X-112278Y-111303D01*
X-111019Y-111136D01*
X-110079Y-112076D01*
D02*
G37*
G36*
X-65203Y-117870D02*
X-64873Y-118091D01*
X-64652Y-118422D01*
X-64574Y-118812D01*
Y-118863D01*
X-64994D01*
X-66068Y-118722D01*
X-66555Y-118520D01*
X-66536Y-118422D01*
X-66315Y-118091D01*
X-65984Y-117870D01*
X-65594Y-117792D01*
X-65203Y-117870D01*
D02*
G37*
G36*
X-105166Y-117409D02*
X-104874Y-117604D01*
X-104811Y-117777D01*
X-104877Y-117863D01*
X-105138Y-118204D01*
X-105568Y-119242D01*
X-105590Y-119414D01*
X-105654Y-119899D01*
X-105662Y-119900D01*
X-110493D01*
Y-117310D01*
X-105662D01*
X-105166Y-117409D01*
D02*
G37*
G36*
X-83797Y-128364D02*
X-85390D01*
X-84594Y-128205D01*
X-83797Y-128364D01*
D02*
G37*
G36*
X-104465Y-129101D02*
X-104615Y-129325D01*
X-104811Y-129032D01*
X-104452D01*
X-104465Y-129101D01*
D02*
G37*
G36*
X-105654Y-127312D02*
X-105568Y-127969D01*
X-105138Y-129007D01*
X-105118Y-129032D01*
X-105447D01*
X-106097Y-129683D01*
X-106101Y-129900D01*
X-111251D01*
Y-127310D01*
X-105662D01*
X-105654Y-127312D01*
D02*
G37*
G36*
X-83618Y-133109D02*
X-84594Y-133303D01*
X-85569Y-133109D01*
X-86177Y-132703D01*
X-83010D01*
X-83618Y-133109D01*
D02*
G37*
G36*
X-112603Y-135867D02*
X-112813D01*
X-112708Y-135710D01*
X-112603Y-135867D01*
D02*
G37*
G36*
X-110795Y-136994D02*
X-111891Y-136739D01*
X-112185Y-136028D01*
X-112309Y-135867D01*
X-111998D01*
X-111265Y-135135D01*
X-108936D01*
X-110795Y-136994D01*
D02*
G37*
G36*
X-104465Y-135934D02*
X-104367Y-136430D01*
X-104465Y-136925D01*
X-104746Y-137345D01*
X-105166Y-137626D01*
X-105654Y-137723D01*
X-105568Y-137066D01*
X-105138Y-136028D01*
X-104745Y-135516D01*
X-104465Y-135934D01*
D02*
G37*
G36*
X-64574Y-142254D02*
X-64652Y-142644D01*
X-64873Y-142975D01*
X-65203Y-143196D01*
X-65594Y-143274D01*
X-65984Y-143196D01*
X-66315Y-142975D01*
X-66536Y-142644D01*
X-66555Y-142546D01*
X-66068Y-142344D01*
X-64994Y-142203D01*
X-64574D01*
Y-142254D01*
D02*
G37*
G36*
X-28773Y-144259D02*
X-28675Y-144754D01*
X-28773Y-145250D01*
X-29054Y-145670D01*
X-29474Y-145950D01*
X-29962Y-146047D01*
X-29876Y-145391D01*
X-29446Y-144353D01*
X-29053Y-143840D01*
X-28773Y-144259D01*
D02*
G37*
G36*
X-36493Y-144353D02*
X-36063Y-145391D01*
X-35977Y-146047D01*
X-36465Y-145950D01*
X-36885Y-145670D01*
X-37166Y-145250D01*
X-37264Y-144754D01*
X-37166Y-144259D01*
X-36886Y-143840D01*
X-36493Y-144353D01*
D02*
G37*
G36*
X-105166Y-145233D02*
X-104746Y-145514D01*
X-104465Y-145934D01*
X-104367Y-146430D01*
X-104465Y-146925D01*
X-104745Y-147343D01*
X-105138Y-146831D01*
X-105568Y-145793D01*
X-105654Y-145136D01*
X-105166Y-145233D01*
D02*
G37*
G36*
X-112531Y-153402D02*
X-112534Y-153441D01*
X-112598Y-153370D01*
X-112578Y-153340D01*
X-112531Y-153402D01*
D02*
G37*
G36*
X-65203Y-154312D02*
X-64873Y-154533D01*
X-64652Y-154864D01*
X-64574Y-155254D01*
Y-155306D01*
X-64994D01*
X-66068Y-155164D01*
X-66555Y-154962D01*
X-66536Y-154864D01*
X-66315Y-154533D01*
X-65984Y-154312D01*
X-65594Y-154235D01*
X-65203Y-154312D01*
D02*
G37*
G36*
X-104465Y-153758D02*
X-104367Y-154254D01*
X-104465Y-154750D01*
X-104746Y-155170D01*
X-105166Y-155450D01*
X-105654Y-155548D01*
X-105568Y-154890D01*
X-105138Y-153853D01*
X-104745Y-153340D01*
X-104465Y-153758D01*
D02*
G37*
G36*
X-29474Y-153558D02*
X-29054Y-153839D01*
X-28773Y-154258D01*
X-28675Y-154754D01*
X-28773Y-155250D01*
X-29053Y-155668D01*
X-29446Y-155155D01*
X-29876Y-154118D01*
X-29962Y-153461D01*
X-29474Y-153558D01*
D02*
G37*
G36*
X-36063Y-154118D02*
X-36493Y-155155D01*
X-36886Y-155668D01*
X-37166Y-155250D01*
X-37264Y-154754D01*
X-37166Y-154258D01*
X-36885Y-153839D01*
X-36465Y-153558D01*
X-35977Y-153461D01*
X-36063Y-154118D01*
D02*
G37*
G36*
X-105166Y-163058D02*
X-104746Y-163338D01*
X-104465Y-163759D01*
X-104367Y-164254D01*
X-104465Y-164750D01*
X-104745Y-165168D01*
X-105138Y-164655D01*
X-105568Y-163618D01*
X-105654Y-162961D01*
X-105166Y-163058D01*
D02*
G37*
G36*
X-111755Y-163618D02*
X-112185Y-164655D01*
X-112578Y-165168D01*
X-112858Y-164750D01*
X-112956Y-164254D01*
X-112858Y-163759D01*
X-112577Y-163338D01*
X-112157Y-163058D01*
X-111669Y-162961D01*
X-111755Y-163618D01*
D02*
G37*
G36*
X-66619Y-177920D02*
X-66521Y-178416D01*
X-66619Y-178912D01*
X-66900Y-179332D01*
X-67320Y-179612D01*
X-67808Y-179709D01*
X-67722Y-179052D01*
X-67292Y-178015D01*
X-66899Y-177502D01*
X-66619Y-177920D01*
D02*
G37*
G36*
X-74339Y-178015D02*
X-73909Y-179052D01*
X-73823Y-179709D01*
X-74311Y-179612D01*
X-74731Y-179332D01*
X-74987Y-178950D01*
Y-178915D01*
X-75017Y-178884D01*
X-75111Y-178416D01*
X-75012Y-177920D01*
X-74732Y-177502D01*
X-74339Y-178015D01*
D02*
G37*
G36*
X-373016Y-184777D02*
X-375055D01*
Y-170970D01*
X-373016D01*
Y-184777D01*
D02*
G37*
G36*
X-37842Y-187896D02*
X-37937Y-187909D01*
X-37919Y-187819D01*
X-37842Y-187896D01*
D02*
G37*
G36*
X-46148Y-186720D02*
X-45728Y-187000D01*
X-45447Y-187421D01*
X-45350Y-187909D01*
X-46007Y-187822D01*
X-47045Y-187392D01*
X-47557Y-186999D01*
X-47139Y-186720D01*
X-46644Y-186621D01*
X-46148Y-186720D01*
D02*
G37*
G36*
X-67320Y-187220D02*
X-66900Y-187500D01*
X-66619Y-187920D01*
X-66521Y-188416D01*
X-66619Y-188912D01*
X-66899Y-189330D01*
X-67292Y-188817D01*
X-67722Y-187780D01*
X-67808Y-187123D01*
X-67320Y-187220D01*
D02*
G37*
G36*
X-73909Y-187780D02*
X-74339Y-188817D01*
X-74732Y-189330D01*
X-74987Y-188950D01*
Y-187882D01*
X-74731Y-187500D01*
X-74311Y-187220D01*
X-73823Y-187123D01*
X-73909Y-187780D01*
D02*
G37*
G36*
X-268016Y-189894D02*
X-268094Y-190284D01*
X-268315Y-190615D01*
X-268645Y-190836D01*
X-269036Y-190914D01*
X-322378D01*
X-324417Y-188874D01*
X-270055D01*
Y-185448D01*
X-268016Y-185448D01*
Y-189894D01*
D02*
G37*
G36*
X-333320Y-190914D02*
X-360244D01*
X-362283Y-188874D01*
X-335359D01*
X-333320Y-190914D01*
D02*
G37*
G36*
X-37280Y-194010D02*
X-36242Y-194440D01*
X-35730Y-194833D01*
X-36148Y-195112D01*
X-36644Y-195211D01*
X-37139Y-195112D01*
X-37559Y-194832D01*
X-37840Y-194412D01*
X-37937Y-193923D01*
X-37280Y-194010D01*
D02*
G37*
G36*
X-45447Y-194412D02*
X-45728Y-194832D01*
X-46148Y-195112D01*
X-46644Y-195211D01*
X-47139Y-195112D01*
X-47557Y-194833D01*
X-47045Y-194440D01*
X-46007Y-194010D01*
X-45350Y-193923D01*
X-45447Y-194412D01*
D02*
G37*
G36*
X-256145Y-195084D02*
X-255815Y-195305D01*
X-255594Y-195636D01*
X-255516Y-196026D01*
Y-203155D01*
X-257555D01*
Y-196026D01*
X-257477Y-195636D01*
X-257257Y-195305D01*
X-256926Y-195084D01*
X-256536Y-195007D01*
X-256145Y-195084D01*
D02*
G37*
G36*
X-64574Y-203824D02*
X-64652Y-204214D01*
X-64873Y-204545D01*
X-65203Y-204766D01*
X-65594Y-204844D01*
X-65984Y-204766D01*
X-66315Y-204545D01*
X-66536Y-204214D01*
X-66555Y-204116D01*
X-66068Y-203914D01*
X-64994Y-203773D01*
X-64574D01*
Y-203824D01*
D02*
G37*
G36*
X-411387Y-205850D02*
X-413226D01*
Y-207521D01*
X-413887Y-207608D01*
X-414670Y-207505D01*
X-415265Y-207258D01*
Y-204830D01*
X-415187Y-204440D01*
X-414967Y-204109D01*
X-414636Y-203888D01*
X-414246Y-203811D01*
X-411387D01*
Y-205850D01*
D02*
G37*
G36*
X-147870Y-208830D02*
X-147452Y-209109D01*
X-147964Y-209502D01*
X-149002Y-209932D01*
X-149659Y-210019D01*
X-149562Y-209531D01*
X-149281Y-209110D01*
X-148861Y-208830D01*
X-148366Y-208731D01*
X-147870Y-208830D01*
D02*
G37*
G36*
X-157870D02*
X-157450Y-209110D01*
X-157169Y-209531D01*
X-157072Y-210019D01*
X-157729Y-209932D01*
X-158767Y-209502D01*
X-159279Y-209109D01*
X-158861Y-208830D01*
X-158366Y-208731D01*
X-157870Y-208830D01*
D02*
G37*
G36*
X-257020Y-210594D02*
X-257555D01*
Y-210510D01*
X-257020D01*
Y-210594D01*
D02*
G37*
G36*
X-165501Y-211084D02*
X-165171Y-211305D01*
X-164950Y-211636D01*
X-164928Y-211743D01*
X-165304Y-212118D01*
X-166911D01*
Y-212026D01*
X-166833Y-211636D01*
X-166612Y-211305D01*
X-166282Y-211084D01*
X-165892Y-211006D01*
X-165501Y-211084D01*
D02*
G37*
G36*
X-175501D02*
X-175171Y-211305D01*
X-174950Y-211636D01*
X-174872Y-212026D01*
Y-212118D01*
X-176911D01*
Y-212026D01*
X-176833Y-211636D01*
X-176612Y-211305D01*
X-176282Y-211084D01*
X-175892Y-211006D01*
X-175501Y-211084D01*
D02*
G37*
G36*
X-182773D02*
X-182443Y-211305D01*
X-182222Y-211636D01*
X-182144Y-212026D01*
Y-212118D01*
X-184183D01*
Y-212026D01*
X-184105Y-211636D01*
X-183885Y-211305D01*
X-183554Y-211084D01*
X-183164Y-211006D01*
X-182773Y-211084D01*
D02*
G37*
G36*
X-192773D02*
X-192443Y-211305D01*
X-192222Y-211636D01*
X-192144Y-212026D01*
Y-212118D01*
X-194183D01*
Y-212026D01*
X-194105Y-211636D01*
X-193885Y-211305D01*
X-193554Y-211084D01*
X-193164Y-211006D01*
X-192773Y-211084D01*
D02*
G37*
G36*
X-230145Y-195084D02*
X-229815Y-195305D01*
X-229594Y-195636D01*
X-229516Y-196026D01*
Y-199010D01*
X-230052D01*
Y-212118D01*
X-229516D01*
Y-214042D01*
X-230052D01*
Y-212118D01*
X-230582D01*
X-231555Y-211145D01*
Y-196026D01*
X-231478Y-195636D01*
X-231257Y-195305D01*
X-230926Y-195084D01*
X-230536Y-195007D01*
X-230145Y-195084D01*
D02*
G37*
G36*
X-104465Y-213684D02*
X-104367Y-214179D01*
X-104465Y-214675D01*
X-104746Y-215095D01*
X-105166Y-215376D01*
X-105654Y-215473D01*
X-105568Y-214816D01*
X-105138Y-213778D01*
X-104745Y-213265D01*
X-104465Y-213684D01*
D02*
G37*
G36*
X-112185Y-213778D02*
X-111755Y-214816D01*
X-111669Y-215473D01*
X-112157Y-215376D01*
X-112577Y-215095D01*
X-112858Y-214675D01*
X-112956Y-214179D01*
X-112858Y-213684D01*
X-112578Y-213265D01*
X-112185Y-213778D01*
D02*
G37*
G36*
X-65203Y-215882D02*
X-64873Y-216103D01*
X-64652Y-216434D01*
X-64574Y-216824D01*
Y-216875D01*
X-64994D01*
X-66068Y-216734D01*
X-66555Y-216532D01*
X-66536Y-216434D01*
X-66315Y-216103D01*
X-65984Y-215882D01*
X-65594Y-215804D01*
X-65203Y-215882D01*
D02*
G37*
G36*
X-149002Y-216120D02*
X-147964Y-216550D01*
X-147452Y-216943D01*
X-147870Y-217222D01*
X-148366Y-217321D01*
X-148861Y-217222D01*
X-149281Y-216942D01*
X-149562Y-216521D01*
X-149659Y-216033D01*
X-149002Y-216120D01*
D02*
G37*
G36*
X-157169Y-216521D02*
X-157450Y-216942D01*
X-157870Y-217222D01*
X-158366Y-217321D01*
X-158861Y-217222D01*
X-159279Y-216943D01*
X-158767Y-216550D01*
X-157729Y-216120D01*
X-157072Y-216033D01*
X-157169Y-216521D01*
D02*
G37*
G36*
X-421391Y-215355D02*
X-421197Y-216330D01*
X-421391Y-217306D01*
X-421883Y-218043D01*
X-422158Y-217378D01*
X-422296Y-216330D01*
X-422158Y-215282D01*
X-421883Y-214618D01*
X-421391Y-215355D01*
D02*
G37*
G36*
X-229516Y-224564D02*
X-230052D01*
Y-222010D01*
X-229516D01*
Y-224564D01*
D02*
G37*
G36*
X-105166Y-222983D02*
X-104746Y-223264D01*
X-104465Y-223684D01*
X-104367Y-224179D01*
X-104465Y-224675D01*
X-104615Y-224899D01*
X-104794Y-224631D01*
X-104901Y-224592D01*
X-105086Y-224648D01*
X-105138Y-224581D01*
X-105568Y-223543D01*
X-105641Y-222983D01*
X-105654Y-222886D01*
X-105166Y-222983D01*
D02*
G37*
G36*
X-111755Y-223543D02*
X-112185Y-224581D01*
X-112578Y-225093D01*
X-112858Y-224675D01*
X-112956Y-224179D01*
X-112858Y-223684D01*
X-112577Y-223264D01*
X-112157Y-222983D01*
X-111669Y-222886D01*
X-111755Y-223543D01*
D02*
G37*
G36*
X-82791Y-230600D02*
X-83010Y-230747D01*
X-86177D01*
X-86396Y-230600D01*
X-86478Y-230478D01*
X-82709D01*
X-82791Y-230600D01*
D02*
G37*
G36*
X-104465Y-231311D02*
X-104367Y-231807D01*
X-104465Y-232302D01*
X-104746Y-232722D01*
X-105166Y-233003D01*
X-105654Y-233100D01*
X-105594Y-232643D01*
X-105568Y-232443D01*
X-105138Y-231406D01*
X-105086Y-231338D01*
X-104834Y-231415D01*
X-104615Y-231087D01*
X-104465Y-231311D01*
D02*
G37*
G36*
X-112185Y-231406D02*
X-111755Y-232443D01*
X-111669Y-233100D01*
X-112157Y-233003D01*
X-112577Y-232722D01*
X-112858Y-232302D01*
X-112956Y-231807D01*
X-112858Y-231311D01*
X-112737Y-231130D01*
X-112397D01*
X-112185Y-231406D01*
D02*
G37*
G36*
X-455818Y-235431D02*
X-455422Y-235734D01*
X-455127Y-236119D01*
X-455072Y-236396D01*
X-455149Y-236786D01*
X-455370Y-237117D01*
X-455701Y-237338D01*
X-456091Y-237415D01*
X-459091D01*
X-459481Y-237338D01*
X-459812Y-237117D01*
X-460033Y-236786D01*
X-460111Y-236396D01*
X-460077Y-236224D01*
X-459701Y-235734D01*
X-459285Y-235415D01*
X-459091Y-235376D01*
X-456091D01*
X-455818Y-235431D01*
D02*
G37*
G36*
X-331060Y-235412D02*
X-331059Y-235414D01*
X-331293Y-235719D01*
Y-237399D01*
X-331480Y-237524D01*
X-331968Y-237621D01*
X-331882Y-236964D01*
X-331452Y-235927D01*
X-331293Y-235719D01*
Y-235257D01*
X-331060Y-235412D01*
D02*
G37*
G36*
X-338499Y-235927D02*
X-338069Y-236964D01*
X-337983Y-237621D01*
X-338471Y-237524D01*
X-338891Y-237244D01*
X-339172Y-236824D01*
X-339271Y-236328D01*
X-339172Y-235833D01*
X-338892Y-235414D01*
X-338499Y-235927D01*
D02*
G37*
G36*
X-64652Y-240688D02*
X-64873Y-241019D01*
X-65203Y-241240D01*
X-65594Y-241318D01*
X-65984Y-241240D01*
X-66315Y-241019D01*
X-66503Y-240736D01*
X-64994Y-240436D01*
X-64601D01*
X-64652Y-240688D01*
D02*
G37*
G36*
X-230052Y-237042D02*
X-229516D01*
Y-241582D01*
X-231555D01*
Y-224564D01*
X-230052D01*
Y-237042D01*
D02*
G37*
G36*
X-105166Y-240611D02*
X-104746Y-240891D01*
X-104491Y-241273D01*
Y-242341D01*
X-104745Y-242721D01*
X-105138Y-242208D01*
X-105568Y-241171D01*
X-105654Y-240513D01*
X-105166Y-240611D01*
D02*
G37*
G36*
X-111755Y-241171D02*
X-112185Y-242208D01*
X-112578Y-242721D01*
X-112858Y-242302D01*
X-112956Y-241807D01*
X-112858Y-241311D01*
X-112577Y-240891D01*
X-112157Y-240611D01*
X-111669Y-240513D01*
X-111755Y-241171D01*
D02*
G37*
G36*
X-255516Y-212868D02*
Y-246026D01*
X-257020D01*
Y-211364D01*
X-255516Y-212868D01*
D02*
G37*
G36*
X-331480Y-245132D02*
X-331060Y-245412D01*
X-330779Y-245833D01*
X-330681Y-246328D01*
X-330779Y-246824D01*
X-331059Y-247242D01*
X-331452Y-246729D01*
X-331882Y-245692D01*
X-331968Y-245035D01*
X-331480Y-245132D01*
D02*
G37*
G36*
X-338069Y-245692D02*
X-338499Y-246729D01*
X-338892Y-247242D01*
X-339172Y-246824D01*
X-339271Y-246328D01*
X-339172Y-245833D01*
X-338891Y-245412D01*
X-338471Y-245132D01*
X-337983Y-245035D01*
X-338069Y-245692D01*
D02*
G37*
G36*
X-257020Y-248542D02*
X-257555D01*
Y-246026D01*
X-257020D01*
Y-248542D01*
D02*
G37*
G36*
X-65203Y-252356D02*
X-64873Y-252577D01*
X-64652Y-252908D01*
X-64574Y-253298D01*
Y-253350D01*
X-64994D01*
X-66068Y-253208D01*
X-66555Y-253006D01*
X-66536Y-252908D01*
X-66315Y-252577D01*
X-65984Y-252356D01*
X-65594Y-252278D01*
X-65203Y-252356D01*
D02*
G37*
G36*
X-104491Y-251764D02*
Y-252832D01*
X-104746Y-253214D01*
X-105166Y-253494D01*
X-105654Y-253591D01*
X-105568Y-252934D01*
X-105138Y-251897D01*
X-104745Y-251384D01*
X-104491Y-251764D01*
D02*
G37*
G36*
X-112185Y-251897D02*
X-111755Y-252934D01*
X-111669Y-253591D01*
X-112157Y-253494D01*
X-112577Y-253214D01*
X-112858Y-252794D01*
X-112956Y-252298D01*
X-112858Y-251803D01*
X-112578Y-251384D01*
X-112185Y-251897D01*
D02*
G37*
G36*
X-28773Y-251803D02*
X-28675Y-252298D01*
X-28773Y-252794D01*
X-29054Y-253214D01*
X-29474Y-253494D01*
X-29962Y-253591D01*
X-29876Y-252934D01*
X-29446Y-251897D01*
X-29053Y-251384D01*
X-28773Y-251803D01*
D02*
G37*
G36*
X-36493Y-251897D02*
X-36063Y-252934D01*
X-35977Y-253591D01*
X-36465Y-253494D01*
X-36885Y-253214D01*
X-37166Y-252794D01*
X-37264Y-252298D01*
X-37166Y-251803D01*
X-36886Y-251384D01*
X-36493Y-251897D01*
D02*
G37*
G36*
X-213560Y-259171D02*
X-212733Y-259724D01*
X-212521Y-260042D01*
X-216551D01*
X-216338Y-259724D01*
X-215511Y-259171D01*
X-214536Y-258977D01*
X-213560Y-259171D01*
D02*
G37*
G36*
X-229516Y-260042D02*
X-230052D01*
Y-245010D01*
X-229516D01*
Y-260042D01*
D02*
G37*
G36*
X-105166Y-261102D02*
X-104746Y-261382D01*
X-104465Y-261803D01*
X-104367Y-262298D01*
X-104465Y-262794D01*
X-104745Y-263212D01*
X-105138Y-262699D01*
X-105568Y-261662D01*
X-105654Y-261005D01*
X-105166Y-261102D01*
D02*
G37*
G36*
X-111755Y-261662D02*
X-112185Y-262699D01*
X-112578Y-263212D01*
X-112858Y-262794D01*
X-112956Y-262298D01*
X-112858Y-261803D01*
X-112577Y-261382D01*
X-112157Y-261102D01*
X-111669Y-261005D01*
X-111755Y-261662D01*
D02*
G37*
G36*
X-29474Y-261102D02*
X-29054Y-261382D01*
X-28773Y-261803D01*
X-28675Y-262298D01*
X-28773Y-262794D01*
X-29053Y-263212D01*
X-29446Y-262699D01*
X-29876Y-261662D01*
X-29962Y-261005D01*
X-29474Y-261102D01*
D02*
G37*
G36*
X-36063Y-261662D02*
X-36493Y-262699D01*
X-36886Y-263212D01*
X-37166Y-262794D01*
X-37264Y-262298D01*
X-37166Y-261803D01*
X-36885Y-261382D01*
X-36465Y-261102D01*
X-35977Y-261005D01*
X-36063Y-261662D01*
D02*
G37*
D10*
X-416526Y-172794D02*
G03*
X-416526Y-172794I-1000J0D01*
G01*
X77524Y-277397D02*
X102924D01*
X77524D02*
Y27403D01*
X102924D01*
Y8353D02*
Y27403D01*
Y-277397D02*
Y8353D01*
X-538826Y-158116D02*
Y-81116D01*
X-256536Y-196026D02*
X-230536D01*
X-374036Y-85894D02*
X-347786D01*
D11*
X-448590Y-104116D02*
G03*
X-448590Y-104116I-2236J0D01*
G01*
X-73816Y-92957D02*
X-67816D01*
X-73816Y-82957D02*
X-67816D01*
D12*
X-432526Y-159294D02*
Y-124294D01*
X-402526Y-159294D02*
Y-124294D01*
D13*
X19339Y-178129D02*
X18196Y-176987D01*
X15911D01*
X14768Y-178129D01*
Y-182700D01*
X15911Y-183842D01*
X18196D01*
X19339Y-182700D01*
X26194Y-183842D02*
X21624D01*
X26194Y-179272D01*
Y-178129D01*
X25052Y-176987D01*
X22766D01*
X21624Y-178129D01*
X28479D02*
X29622Y-176987D01*
X31907D01*
X33050Y-178129D01*
Y-179272D01*
X31907Y-180415D01*
X33050Y-181557D01*
Y-182700D01*
X31907Y-183842D01*
X29622D01*
X28479Y-182700D01*
Y-181557D01*
X29622Y-180415D01*
X28479Y-179272D01*
Y-178129D01*
X29622Y-180415D02*
X31907D01*
X-77410Y-79152D02*
Y-72296D01*
X-73982D01*
X-72839Y-73438D01*
Y-75724D01*
X-73982Y-76866D01*
X-77410D01*
X-75124D02*
X-72839Y-79152D01*
X-65983D02*
X-70554D01*
X-65983Y-74581D01*
Y-73438D01*
X-67126Y-72296D01*
X-69411D01*
X-70554Y-73438D01*
X-442971Y-144498D02*
X-444113Y-145641D01*
Y-147926D01*
X-442971Y-149069D01*
X-438400D01*
X-437257Y-147926D01*
Y-145641D01*
X-438400Y-144498D01*
X-437257Y-142213D02*
Y-139928D01*
Y-141070D01*
X-444113D01*
X-442971Y-142213D01*
Y-136500D02*
X-444113Y-135357D01*
Y-133072D01*
X-442971Y-131930D01*
X-441828D01*
X-440685Y-133072D01*
X-439543Y-131930D01*
X-438400D01*
X-437257Y-133072D01*
Y-135357D01*
X-438400Y-136500D01*
X-439543D01*
X-440685Y-135357D01*
X-441828Y-136500D01*
X-442971D01*
X-440685Y-135357D02*
Y-133072D01*
X102163Y79091D02*
X99877D01*
X101020D01*
Y73378D01*
X99877Y72235D01*
X98735D01*
X97592Y73378D01*
X104448Y72235D02*
X106733D01*
X105590D01*
Y79091D01*
X104448Y77948D01*
X-524172Y-54023D02*
X-526457D01*
X-525314D01*
Y-59736D01*
X-526457Y-60879D01*
X-527599D01*
X-528742Y-59736D01*
X-517316Y-60879D02*
X-521886D01*
X-517316Y-56308D01*
Y-55165D01*
X-518459Y-54023D01*
X-520744D01*
X-521886Y-55165D01*
X-484789Y-268920D02*
X-485932Y-267778D01*
X-488217D01*
X-489360Y-268920D01*
Y-273491D01*
X-488217Y-274634D01*
X-485932D01*
X-484789Y-273491D01*
X-482504Y-274634D02*
X-480218D01*
X-481361D01*
Y-267778D01*
X-482504Y-268920D01*
X-476791D02*
X-475648Y-267778D01*
X-473363D01*
X-472220Y-268920D01*
Y-270063D01*
X-473363Y-271206D01*
X-474505D01*
X-473363D01*
X-472220Y-272348D01*
Y-273491D01*
X-473363Y-274634D01*
X-475648D01*
X-476791Y-273491D01*
X-129483Y-70313D02*
X-130626Y-71456D01*
Y-73741D01*
X-129483Y-74884D01*
X-124913D01*
X-123770Y-73741D01*
Y-71456D01*
X-124913Y-70313D01*
X-123770Y-68028D02*
Y-65743D01*
Y-66885D01*
X-130626D01*
X-129483Y-68028D01*
X-130626Y-57744D02*
X-129483Y-60030D01*
X-127198Y-62315D01*
X-124913D01*
X-123770Y-61172D01*
Y-58887D01*
X-124913Y-57744D01*
X-126055D01*
X-127198Y-58887D01*
Y-62315D01*
X-123270Y-94752D02*
X-130126D01*
Y-91324D01*
X-128983Y-90181D01*
X-126698D01*
X-125555Y-91324D01*
Y-94752D01*
Y-92466D02*
X-123270Y-90181D01*
Y-84468D02*
X-130126D01*
X-126698Y-87896D01*
Y-83326D01*
X-123270Y-109951D02*
X-130126D01*
Y-106523D01*
X-128983Y-105380D01*
X-126698D01*
X-125555Y-106523D01*
Y-109951D01*
Y-107666D02*
X-123270Y-105380D01*
X-130126Y-98525D02*
X-128983Y-100810D01*
X-126698Y-103095D01*
X-124413D01*
X-123270Y-101952D01*
Y-99667D01*
X-124413Y-98525D01*
X-125555D01*
X-126698Y-99667D01*
Y-103095D01*
X-123270Y-131162D02*
X-130126D01*
Y-127734D01*
X-128983Y-126592D01*
X-126698D01*
X-125555Y-127734D01*
Y-131162D01*
Y-128877D02*
X-123270Y-126592D01*
Y-124306D02*
Y-122021D01*
Y-123164D01*
X-130126D01*
X-128983Y-124306D01*
X-123270Y-118593D02*
Y-116308D01*
Y-117451D01*
X-130126D01*
X-128983Y-118593D01*
X-123270Y-148946D02*
X-130126D01*
Y-145518D01*
X-128983Y-144375D01*
X-126698D01*
X-125555Y-145518D01*
Y-148946D01*
Y-146661D02*
X-123270Y-144375D01*
X-128983Y-142090D02*
X-130126Y-140947D01*
Y-138662D01*
X-128983Y-137520D01*
X-127840D01*
X-126698Y-138662D01*
X-125555Y-137520D01*
X-124413D01*
X-123270Y-138662D01*
Y-140947D01*
X-124413Y-142090D01*
X-125555D01*
X-126698Y-140947D01*
X-127840Y-142090D01*
X-128983D01*
X-126698Y-140947D02*
Y-138662D01*
X-123270Y-172442D02*
X-130126D01*
Y-169015D01*
X-128983Y-167872D01*
X-126698D01*
X-125555Y-169015D01*
Y-172442D01*
Y-170157D02*
X-123270Y-167872D01*
Y-165587D02*
Y-163302D01*
Y-164444D01*
X-130126D01*
X-128983Y-165587D01*
Y-159874D02*
X-130126Y-158731D01*
Y-156446D01*
X-128983Y-155303D01*
X-127840D01*
X-126698Y-156446D01*
Y-157588D01*
Y-156446D01*
X-125555Y-155303D01*
X-124413D01*
X-123270Y-156446D01*
Y-158731D01*
X-124413Y-159874D01*
X-32371Y-89997D02*
X-25516D01*
Y-93425D01*
X-26658Y-94568D01*
X-28944D01*
X-30086Y-93425D01*
Y-89997D01*
Y-92283D02*
X-32371Y-94568D01*
X-25516Y-101424D02*
Y-96853D01*
X-28944D01*
X-27801Y-99138D01*
Y-100281D01*
X-28944Y-101424D01*
X-31229D01*
X-32371Y-100281D01*
Y-97996D01*
X-31229Y-96853D01*
X-17455Y-151288D02*
Y-144433D01*
X-14027D01*
X-12884Y-145575D01*
Y-147861D01*
X-14027Y-149003D01*
X-17455D01*
X-15169D02*
X-12884Y-151288D01*
X-10599D02*
X-8313D01*
X-9456D01*
Y-144433D01*
X-10599Y-145575D01*
X-4886D02*
X-3743Y-144433D01*
X-1458D01*
X-315Y-145575D01*
Y-150146D01*
X-1458Y-151288D01*
X-3743D01*
X-4886Y-150146D01*
Y-145575D01*
X-13650Y-164113D02*
X-14793Y-162970D01*
X-17078D01*
X-18221Y-164113D01*
Y-168683D01*
X-17078Y-169826D01*
X-14793D01*
X-13650Y-168683D01*
X-11365Y-164113D02*
X-10222Y-162970D01*
X-7937D01*
X-6794Y-164113D01*
Y-165255D01*
X-7937Y-166398D01*
X-9080D01*
X-7937D01*
X-6794Y-167541D01*
Y-168683D01*
X-7937Y-169826D01*
X-10222D01*
X-11365Y-168683D01*
X-4509Y-162970D02*
X61D01*
Y-164113D01*
X-4509Y-168683D01*
Y-169826D01*
X-15441Y-258186D02*
Y-251330D01*
X-12013D01*
X-10870Y-252473D01*
Y-254758D01*
X-12013Y-255901D01*
X-15441D01*
X-13155D02*
X-10870Y-258186D01*
X-4014D02*
X-8585D01*
X-4014Y-253615D01*
Y-252473D01*
X-5157Y-251330D01*
X-7442D01*
X-8585Y-252473D01*
X2842Y-258186D02*
X-1729D01*
X2842Y-253615D01*
Y-252473D01*
X1699Y-251330D01*
X-586D01*
X-1729Y-252473D01*
X-33267Y-182208D02*
X-26411D01*
Y-185636D01*
X-27554Y-186779D01*
X-29839D01*
X-30982Y-185636D01*
Y-182208D01*
Y-184494D02*
X-33267Y-186779D01*
Y-189064D02*
Y-191349D01*
Y-190207D01*
X-26411D01*
X-27554Y-189064D01*
X-32124Y-194777D02*
X-33267Y-195920D01*
Y-198205D01*
X-32124Y-199348D01*
X-27554D01*
X-26411Y-198205D01*
Y-195920D01*
X-27554Y-194777D01*
X-28696D01*
X-29839Y-195920D01*
Y-199348D01*
X-81018Y-175076D02*
Y-168220D01*
X-77590D01*
X-76448Y-169363D01*
Y-171648D01*
X-77590Y-172791D01*
X-81018D01*
X-78733D02*
X-76448Y-175076D01*
X-74163D02*
X-71877D01*
X-73020D01*
Y-168220D01*
X-74163Y-169363D01*
X-68449Y-168220D02*
X-63879D01*
Y-169363D01*
X-68449Y-173933D01*
Y-175076D01*
X-116723Y-175668D02*
Y-168812D01*
X-113295D01*
X-112153Y-169955D01*
Y-172240D01*
X-113295Y-173383D01*
X-116723D01*
X-114438D02*
X-112153Y-175668D01*
X-109867D02*
X-107582D01*
X-108725D01*
Y-168812D01*
X-109867Y-169955D01*
X-104154D02*
X-103012Y-168812D01*
X-100726D01*
X-99584Y-169955D01*
Y-171097D01*
X-100726Y-172240D01*
X-99584Y-173383D01*
Y-174525D01*
X-100726Y-175668D01*
X-103012D01*
X-104154Y-174525D01*
Y-173383D01*
X-103012Y-172240D01*
X-104154Y-171097D01*
Y-169955D01*
X-103012Y-172240D02*
X-100726D01*
X-123522Y-205765D02*
X-130378D01*
Y-202337D01*
X-129235Y-201195D01*
X-126950D01*
X-125807Y-202337D01*
Y-205765D01*
Y-203480D02*
X-123522Y-201195D01*
Y-194339D02*
Y-198909D01*
X-128092Y-194339D01*
X-129235D01*
X-130378Y-195481D01*
Y-197767D01*
X-129235Y-198909D01*
Y-192054D02*
X-130378Y-190911D01*
Y-188626D01*
X-129235Y-187483D01*
X-124664D01*
X-123522Y-188626D01*
Y-190911D01*
X-124664Y-192054D01*
X-129235D01*
X-123522Y-228054D02*
X-130378D01*
Y-224626D01*
X-129235Y-223483D01*
X-126950D01*
X-125807Y-224626D01*
Y-228054D01*
Y-225769D02*
X-123522Y-223483D01*
Y-221198D02*
Y-218913D01*
Y-220055D01*
X-130378D01*
X-129235Y-221198D01*
X-130378Y-210914D02*
Y-215485D01*
X-126950D01*
X-128092Y-213200D01*
Y-212057D01*
X-126950Y-210914D01*
X-124664D01*
X-123522Y-212057D01*
Y-214342D01*
X-124664Y-215485D01*
X-124030Y-248057D02*
X-130885D01*
Y-244629D01*
X-129743Y-243486D01*
X-127458D01*
X-126315Y-244629D01*
Y-248057D01*
Y-245771D02*
X-124030Y-243486D01*
Y-236630D02*
Y-241201D01*
X-128600Y-236630D01*
X-129743D01*
X-130885Y-237773D01*
Y-240058D01*
X-129743Y-241201D01*
X-124030Y-234345D02*
Y-232060D01*
Y-233202D01*
X-130885D01*
X-129743Y-234345D01*
X-124030Y-268694D02*
X-130885D01*
Y-265266D01*
X-129743Y-264123D01*
X-127458D01*
X-126315Y-265266D01*
Y-268694D01*
Y-266409D02*
X-124030Y-264123D01*
Y-261838D02*
Y-259553D01*
Y-260695D01*
X-130885D01*
X-129743Y-261838D01*
X-124030Y-252697D02*
X-130885D01*
X-127458Y-256125D01*
Y-251554D01*
X-60895Y-259235D02*
X-56324D01*
X-55182Y-258093D01*
Y-255807D01*
X-56324Y-254665D01*
X-60895D01*
X-62038Y-255807D01*
Y-258093D01*
X-59752Y-256950D02*
X-62038Y-259235D01*
Y-258093D02*
X-60895Y-259235D01*
X-62038Y-264949D02*
X-55182D01*
X-58610Y-261521D01*
Y-266091D01*
X-59639Y-221881D02*
X-55068D01*
X-53926Y-220739D01*
Y-218454D01*
X-55068Y-217311D01*
X-59639D01*
X-60781Y-218454D01*
Y-220739D01*
X-58496Y-219596D02*
X-60781Y-221881D01*
Y-220739D02*
X-59639Y-221881D01*
X-55068Y-224167D02*
X-53926Y-225309D01*
Y-227595D01*
X-55068Y-228737D01*
X-56211D01*
X-57354Y-227595D01*
Y-226452D01*
Y-227595D01*
X-58496Y-228737D01*
X-59639D01*
X-60781Y-227595D01*
Y-225309D01*
X-59639Y-224167D01*
X-53402Y-140743D02*
Y-136173D01*
X-54545Y-135030D01*
X-56830D01*
X-57973Y-136173D01*
Y-140743D01*
X-56830Y-141886D01*
X-54545D01*
X-55687Y-139601D02*
X-53402Y-141886D01*
X-54545D02*
X-53402Y-140743D01*
X-46546Y-141886D02*
X-51117D01*
X-46546Y-137315D01*
Y-136173D01*
X-47689Y-135030D01*
X-49974D01*
X-51117Y-136173D01*
X-54038Y-103913D02*
Y-99343D01*
X-55180Y-98200D01*
X-57466D01*
X-58608Y-99343D01*
Y-103913D01*
X-57466Y-105056D01*
X-55180D01*
X-56323Y-102771D02*
X-54038Y-105056D01*
X-55180D02*
X-54038Y-103913D01*
X-51752Y-105056D02*
X-49467D01*
X-50610D01*
Y-98200D01*
X-51752Y-99343D01*
X-53247Y-73626D02*
X-54390Y-74769D01*
Y-77055D01*
X-53247Y-78197D01*
X-48677D01*
X-47534Y-77055D01*
Y-74769D01*
X-48677Y-73626D01*
X-53247Y-71341D02*
X-54390Y-70199D01*
Y-67913D01*
X-53247Y-66771D01*
X-52105D01*
X-50962Y-67913D01*
Y-69056D01*
Y-67913D01*
X-49819Y-66771D01*
X-48677D01*
X-47534Y-67913D01*
Y-70199D01*
X-48677Y-71341D01*
X-54390Y-59915D02*
X-53247Y-62200D01*
X-50962Y-64486D01*
X-48677D01*
X-47534Y-63343D01*
Y-61058D01*
X-48677Y-59915D01*
X-49819D01*
X-50962Y-61058D01*
Y-64486D01*
X-21528Y16274D02*
Y9419D01*
X-18100D01*
X-16957Y10561D01*
Y15132D01*
X-18100Y16274D01*
X-21528D01*
X-11244Y9419D02*
Y16274D01*
X-14672Y12847D01*
X-10102D01*
X-66101Y15592D02*
Y8736D01*
X-62673D01*
X-61530Y9879D01*
Y14449D01*
X-62673Y15592D01*
X-66101D01*
X-54674Y8736D02*
X-59245D01*
X-54674Y13307D01*
Y14449D01*
X-55817Y15592D01*
X-58102D01*
X-59245Y14449D01*
X-114369Y14654D02*
Y7798D01*
X-110941D01*
X-109799Y8941D01*
Y13511D01*
X-110941Y14654D01*
X-114369D01*
X-102943D02*
X-107514D01*
Y11226D01*
X-105228Y12369D01*
X-104086D01*
X-102943Y11226D01*
Y8941D01*
X-104086Y7798D01*
X-106371D01*
X-107514Y8941D01*
X23695Y-22315D02*
X22552Y-23458D01*
Y-25743D01*
X23695Y-26886D01*
X28266D01*
X29408Y-25743D01*
Y-23458D01*
X28266Y-22315D01*
X29408Y-20030D02*
Y-17745D01*
Y-18887D01*
X22552D01*
X23695Y-20030D01*
X28266Y-14317D02*
X29408Y-13174D01*
Y-10889D01*
X28266Y-9746D01*
X23695D01*
X22552Y-10889D01*
Y-13174D01*
X23695Y-14317D01*
X24838D01*
X25980Y-13174D01*
Y-9746D01*
X57597Y2509D02*
X64452D01*
Y-919D01*
X63310Y-2061D01*
X61024D01*
X59882Y-919D01*
Y2509D01*
Y224D02*
X57597Y-2061D01*
X63310Y-4347D02*
X64452Y-5489D01*
Y-7775D01*
X63310Y-8917D01*
X62167D01*
X61024Y-7775D01*
Y-6632D01*
Y-7775D01*
X59882Y-8917D01*
X58739D01*
X57597Y-7775D01*
Y-5489D01*
X58739Y-4347D01*
X63310Y-11203D02*
X64452Y-12345D01*
Y-14631D01*
X63310Y-15773D01*
X58739D01*
X57597Y-14631D01*
Y-12345D01*
X58739Y-11203D01*
X63310D01*
X-157302Y-228123D02*
X-150446D01*
Y-231551D01*
X-151588Y-232694D01*
X-153874D01*
X-155016Y-231551D01*
Y-228123D01*
Y-230408D02*
X-157302Y-232694D01*
Y-239549D02*
Y-234979D01*
X-152731Y-239549D01*
X-151588D01*
X-150446Y-238407D01*
Y-236121D01*
X-151588Y-234979D01*
X-150446Y-246405D02*
Y-241835D01*
X-153874D01*
X-152731Y-244120D01*
Y-245263D01*
X-153874Y-246405D01*
X-156159D01*
X-157302Y-245263D01*
Y-242977D01*
X-156159Y-241835D01*
X-189560Y-189735D02*
X-190703Y-188592D01*
X-192988D01*
X-194131Y-189735D01*
Y-194305D01*
X-192988Y-195448D01*
X-190703D01*
X-189560Y-194305D01*
X-182704Y-188592D02*
X-184990Y-189735D01*
X-187275Y-192020D01*
Y-194305D01*
X-186132Y-195448D01*
X-183847D01*
X-182704Y-194305D01*
Y-193163D01*
X-183847Y-192020D01*
X-187275D01*
X-171592Y-260906D02*
X-172735Y-259763D01*
X-175020D01*
X-176163Y-260906D01*
Y-265476D01*
X-175020Y-266619D01*
X-172735D01*
X-171592Y-265476D01*
X-169307Y-259763D02*
X-164736D01*
Y-260906D01*
X-169307Y-265476D01*
Y-266619D01*
X-172832Y-189735D02*
X-173975Y-188592D01*
X-176260D01*
X-177403Y-189735D01*
Y-194305D01*
X-176260Y-195448D01*
X-173975D01*
X-172832Y-194305D01*
X-170547Y-189735D02*
X-169404Y-188592D01*
X-167119D01*
X-165977Y-189735D01*
Y-190877D01*
X-167119Y-192020D01*
X-165977Y-193163D01*
Y-194305D01*
X-167119Y-195448D01*
X-169404D01*
X-170547Y-194305D01*
Y-193163D01*
X-169404Y-192020D01*
X-170547Y-190877D01*
Y-189735D01*
X-169404Y-192020D02*
X-167119D01*
X-188929Y-260796D02*
X-190072Y-259654D01*
X-192357D01*
X-193500Y-260796D01*
Y-265367D01*
X-192357Y-266510D01*
X-190072D01*
X-188929Y-265367D01*
X-186644D02*
X-185501Y-266510D01*
X-183216D01*
X-182073Y-265367D01*
Y-260796D01*
X-183216Y-259654D01*
X-185501D01*
X-186644Y-260796D01*
Y-261939D01*
X-185501Y-263082D01*
X-182073D01*
X-226643Y-126648D02*
Y-133504D01*
X-223215D01*
X-222072Y-132361D01*
Y-127791D01*
X-223215Y-126648D01*
X-226643D01*
X-219787Y-127791D02*
X-218644Y-126648D01*
X-216359D01*
X-215216Y-127791D01*
Y-128933D01*
X-216359Y-130076D01*
X-217502D01*
X-216359D01*
X-215216Y-131219D01*
Y-132361D01*
X-216359Y-133504D01*
X-218644D01*
X-219787Y-132361D01*
X-286587Y-202086D02*
Y-207799D01*
X-285444Y-208942D01*
X-283159D01*
X-282016Y-207799D01*
Y-202086D01*
X-275160Y-208942D02*
X-279731D01*
X-275160Y-204371D01*
Y-203229D01*
X-276303Y-202086D01*
X-278588D01*
X-279731Y-203229D01*
X-319414Y-244778D02*
Y-237923D01*
X-315986D01*
X-314844Y-239065D01*
Y-241350D01*
X-315986Y-242493D01*
X-319414D01*
X-317129D02*
X-314844Y-244778D01*
X-307988D02*
X-312558D01*
X-307988Y-240208D01*
Y-239065D01*
X-309130Y-237923D01*
X-311416D01*
X-312558Y-239065D01*
X-301132Y-237923D02*
X-303417Y-239065D01*
X-305702Y-241350D01*
Y-243636D01*
X-304560Y-244778D01*
X-302274D01*
X-301132Y-243636D01*
Y-242493D01*
X-302274Y-241350D01*
X-305702D01*
X-314704Y-223282D02*
X-315847Y-222139D01*
X-318132D01*
X-319275Y-223282D01*
Y-227852D01*
X-318132Y-228995D01*
X-315847D01*
X-314704Y-227852D01*
X-312419Y-228995D02*
X-310134D01*
X-311277D01*
Y-222139D01*
X-312419Y-223282D01*
X-306706D02*
X-305564Y-222139D01*
X-303278D01*
X-302136Y-223282D01*
Y-227852D01*
X-303278Y-228995D01*
X-305564D01*
X-306706Y-227852D01*
Y-223282D01*
X-484963Y-254270D02*
X-486106Y-253127D01*
X-488391D01*
X-489534Y-254270D01*
Y-258840D01*
X-488391Y-259983D01*
X-486106D01*
X-484963Y-258840D01*
X-482678Y-259983D02*
X-480393D01*
X-481536D01*
Y-253127D01*
X-482678Y-254270D01*
X-473537Y-259983D02*
Y-253127D01*
X-476965Y-256555D01*
X-472394D01*
X-484649Y-238572D02*
X-485792Y-237430D01*
X-488077D01*
X-489220Y-238572D01*
Y-243143D01*
X-488077Y-244286D01*
X-485792D01*
X-484649Y-243143D01*
X-482364Y-244286D02*
X-480079D01*
X-481221D01*
Y-237430D01*
X-482364Y-238572D01*
X-472080Y-244286D02*
X-476651D01*
X-472080Y-239715D01*
Y-238572D01*
X-473223Y-237430D01*
X-475508D01*
X-476651Y-238572D01*
X-483507Y-223398D02*
X-484649Y-222256D01*
X-486935D01*
X-488077Y-223398D01*
Y-227969D01*
X-486935Y-229111D01*
X-484649D01*
X-483507Y-227969D01*
X-481221Y-229111D02*
X-478936D01*
X-480079D01*
Y-222256D01*
X-481221Y-223398D01*
X-475508Y-229111D02*
X-473223D01*
X-474366D01*
Y-222256D01*
X-475508Y-223398D01*
X-420732Y-184790D02*
Y-190503D01*
X-419589Y-191646D01*
X-417304D01*
X-416161Y-190503D01*
Y-184790D01*
X-413876Y-185933D02*
X-412733Y-184790D01*
X-410448D01*
X-409305Y-185933D01*
Y-187076D01*
X-410448Y-188218D01*
X-411590D01*
X-410448D01*
X-409305Y-189361D01*
Y-190503D01*
X-410448Y-191646D01*
X-412733D01*
X-413876Y-190503D01*
X-389963Y-101178D02*
X-391105Y-102321D01*
Y-104606D01*
X-389963Y-105749D01*
X-385392D01*
X-384249Y-104606D01*
Y-102321D01*
X-385392Y-101178D01*
X-384249Y-98893D02*
Y-96608D01*
Y-97750D01*
X-391105D01*
X-389963Y-98893D01*
X-391105Y-93180D02*
Y-88609D01*
X-389963D01*
X-385392Y-93180D01*
X-384249D01*
X-423590Y-114132D02*
Y-107276D01*
X-420162D01*
X-419020Y-108419D01*
Y-110704D01*
X-420162Y-111847D01*
X-423590D01*
X-421305D02*
X-419020Y-114132D01*
X-412164D02*
X-416734D01*
X-412164Y-109561D01*
Y-108419D01*
X-413307Y-107276D01*
X-415592D01*
X-416734Y-108419D01*
X-409879D02*
X-408736Y-107276D01*
X-406451D01*
X-405308Y-108419D01*
Y-109561D01*
X-406451Y-110704D01*
X-405308Y-111847D01*
Y-112989D01*
X-406451Y-114132D01*
X-408736D01*
X-409879Y-112989D01*
Y-111847D01*
X-408736Y-110704D01*
X-409879Y-109561D01*
Y-108419D01*
X-408736Y-110704D02*
X-406451D01*
X-395939Y-169994D02*
Y-176850D01*
X-391368D01*
X-384513Y-169994D02*
X-386798Y-171137D01*
X-389083Y-173422D01*
Y-175707D01*
X-387940Y-176850D01*
X-385655D01*
X-384513Y-175707D01*
Y-174565D01*
X-385655Y-173422D01*
X-389083D01*
X-216293Y21561D02*
X-217435Y22704D01*
X-219721D01*
X-220863Y21561D01*
Y16991D01*
X-219721Y15848D01*
X-217435D01*
X-216293Y16991D01*
X-214007Y15848D02*
X-211722D01*
X-212865D01*
Y22704D01*
X-214007Y21561D01*
X-203724Y22704D02*
X-208294D01*
Y19276D01*
X-206009Y20419D01*
X-204867D01*
X-203724Y19276D01*
Y16991D01*
X-204867Y15848D01*
X-207152D01*
X-208294Y16991D01*
X-447115Y15394D02*
Y9681D01*
X-445972Y8538D01*
X-443687D01*
X-442544Y9681D01*
Y15394D01*
X-436831Y8538D02*
Y15394D01*
X-440259Y11966D01*
X-435688D01*
X36135Y-49430D02*
Y-42574D01*
X39563D01*
X40706Y-43717D01*
Y-46002D01*
X39563Y-47145D01*
X36135D01*
X38421D02*
X40706Y-49430D01*
X47562D02*
X42991D01*
X47562Y-44859D01*
Y-43717D01*
X46419Y-42574D01*
X44134D01*
X42991Y-43717D01*
X49847Y-42574D02*
X54418D01*
Y-43717D01*
X49847Y-48287D01*
Y-49430D01*
X28538Y-2501D02*
X21683D01*
Y926D01*
X22825Y2069D01*
X25110D01*
X26253Y926D01*
Y-2501D01*
Y-216D02*
X28538Y2069D01*
Y8925D02*
Y4354D01*
X23968Y8925D01*
X22825D01*
X21683Y7782D01*
Y5497D01*
X22825Y4354D01*
X27396Y11210D02*
X28538Y12353D01*
Y14638D01*
X27396Y15781D01*
X22825D01*
X21683Y14638D01*
Y12353D01*
X22825Y11210D01*
X23968D01*
X25110Y12353D01*
Y15781D01*
X40706Y43024D02*
X45276D01*
Y41881D01*
X40706Y37311D01*
Y36168D01*
X45276D01*
X47562D02*
X49847D01*
X48704D01*
Y43024D01*
X47562Y41881D01*
X-11109Y33374D02*
Y40230D01*
X-7681D01*
X-6538Y39087D01*
Y36802D01*
X-7681Y35659D01*
X-11109D01*
X-8823D02*
X-6538Y33374D01*
X-4253Y39087D02*
X-3110Y40230D01*
X-825D01*
X318Y39087D01*
Y37945D01*
X-825Y36802D01*
X-1968D01*
X-825D01*
X318Y35659D01*
Y34517D01*
X-825Y33374D01*
X-3110D01*
X-4253Y34517D01*
X7174Y40230D02*
X4888Y39087D01*
X2603Y36802D01*
Y34517D01*
X3746Y33374D01*
X6031D01*
X7174Y34517D01*
Y35659D01*
X6031Y36802D01*
X2603D01*
M02*
