G04*
G04 #@! TF.GenerationSoftware,Altium Limited,Altium Designer,24.0.1 (36)*
G04*
G04 Layer_Color=65535*
%FSLAX44Y44*%
%MOMM*%
G71*
G04*
G04 #@! TF.SameCoordinates,E4E742BE-E936-4CAC-BADB-82586D2B27CE*
G04*
G04*
G04 #@! TF.FilePolarity,Positive*
G04*
G01*
G75*
%ADD10C,0.2000*%
%ADD11C,0.1524*%
G36*
X-72260Y362441D02*
Y362441D01*
X-72380Y362561D01*
X-72380Y362561D01*
X-72260Y362441D01*
D02*
G37*
G36*
X-427896Y350327D02*
X-428198Y349598D01*
X-428679Y348971D01*
X-429240Y348540D01*
X-432397D01*
X-432958Y348971D01*
X-433439Y349598D01*
X-433741Y350327D01*
X-433774Y350580D01*
X-427863D01*
X-427896Y350327D01*
D02*
G37*
G36*
X-504944Y348540D02*
X-505360D01*
X-505750Y348618D01*
X-506081Y348839D01*
X-506302Y349170D01*
X-506380Y349560D01*
X-506302Y349950D01*
X-506081Y350281D01*
X-505750Y350502D01*
X-505360Y350580D01*
X-504944D01*
Y348540D01*
D02*
G37*
G36*
X-69430Y333373D02*
X-69574Y333588D01*
X-69673Y334084D01*
X-69574Y334580D01*
X-69430Y334795D01*
Y333373D01*
D02*
G37*
G36*
Y329208D02*
X-69574Y329423D01*
X-69673Y329919D01*
X-69574Y330414D01*
X-69430Y330630D01*
Y329208D01*
D02*
G37*
G36*
Y319208D02*
X-69574Y319423D01*
X-69673Y319919D01*
X-69574Y320414D01*
X-69430Y320630D01*
Y319208D01*
D02*
G37*
G36*
X-425500Y309626D02*
X-427540D01*
Y322580D01*
X-425500D01*
Y309626D01*
D02*
G37*
G36*
X-69430Y300877D02*
X-69574Y301093D01*
X-69673Y301588D01*
X-69574Y302084D01*
X-69430Y302299D01*
Y300877D01*
D02*
G37*
G36*
X-169070Y293451D02*
X-169278Y293538D01*
X-169905Y294018D01*
X-170365Y294618D01*
Y297698D01*
X-169905Y298298D01*
X-169278Y298778D01*
X-169070Y298865D01*
Y293451D01*
D02*
G37*
G36*
X-88623Y296198D02*
Y292768D01*
X-89918Y294063D01*
Y297493D01*
X-88623Y296198D01*
D02*
G37*
G36*
X-69430Y291581D02*
X-69667Y291618D01*
X-69574Y292084D01*
X-69430Y292299D01*
Y291581D01*
D02*
G37*
G36*
X-61152Y291242D02*
X-61174Y291134D01*
X-61685D01*
X-61937Y291386D01*
X-62116Y291819D01*
Y292206D01*
X-61152Y291242D01*
D02*
G37*
G36*
X-64843Y292457D02*
X-64541Y291728D01*
X-64437Y290944D01*
X-64523Y290293D01*
X-68378D01*
X-68874Y290392D01*
X-69294Y290672D01*
X-69295Y290674D01*
X-68902Y291187D01*
X-68472Y292225D01*
X-68385Y292882D01*
X-68378Y292883D01*
X-65169D01*
X-64843Y292457D01*
D02*
G37*
G36*
X-169070Y282275D02*
X-169278Y282362D01*
X-169905Y282842D01*
X-170365Y283442D01*
Y286522D01*
X-169905Y287122D01*
X-169278Y287603D01*
X-169070Y287689D01*
Y282275D01*
D02*
G37*
G36*
X-108860Y271479D02*
X-108507Y271018D01*
X-110719D01*
X-109946Y271535D01*
X-109142Y271695D01*
X-108860Y271479D01*
D02*
G37*
G36*
X-442295Y246940D02*
X-495770D01*
X-493730Y248980D01*
X-442295D01*
Y246940D01*
D02*
G37*
G36*
X-504944D02*
X-505360D01*
X-505750Y247018D01*
X-506081Y247239D01*
X-506302Y247570D01*
X-506380Y247960D01*
X-506302Y248350D01*
X-506081Y248681D01*
X-505750Y248902D01*
X-505360Y248980D01*
X-504944D01*
Y246940D01*
D02*
G37*
G36*
X-221648Y246842D02*
X-221435Y245769D01*
X-221695Y245821D01*
X-222116Y246102D01*
X-222396Y246522D01*
X-222495Y247018D01*
X-222396Y247513D01*
X-222246Y247738D01*
X-221648Y246842D01*
D02*
G37*
G36*
X-442295Y243060D02*
X-457324D01*
X-457714Y243138D01*
X-458045Y243359D01*
X-458266Y243690D01*
X-458344Y244080D01*
X-458266Y244470D01*
X-458045Y244801D01*
X-457714Y245022D01*
X-457324Y245100D01*
X-442295D01*
Y243060D01*
D02*
G37*
G36*
X-647344Y248858D02*
Y241842D01*
X-647410D01*
Y249189D01*
X-647344Y248858D01*
D02*
G37*
G36*
X-483184Y245022D02*
X-482853Y244801D01*
X-482632Y244470D01*
X-482554Y244080D01*
Y238198D01*
X-483434Y238562D01*
X-484548Y238709D01*
X-484594D01*
Y244080D01*
X-484516Y244470D01*
X-484295Y244801D01*
X-483964Y245022D01*
X-483574Y245100D01*
X-483184Y245022D01*
D02*
G37*
G36*
X-221648Y237193D02*
X-222246Y236298D01*
X-222371Y236484D01*
X-222396Y236522D01*
X-222495Y237018D01*
X-222396Y237513D01*
X-222371Y237551D01*
X-222116Y237933D01*
X-221695Y238214D01*
X-221435Y238266D01*
X-221648Y237193D01*
D02*
G37*
G36*
X-478550Y235136D02*
X-479298D01*
X-479688Y235214D01*
X-480019Y235435D01*
X-480240Y235766D01*
X-480318Y236156D01*
X-480240Y236546D01*
X-480019Y236877D01*
X-479688Y237098D01*
X-479298Y237176D01*
X-478550D01*
X-478550Y235136D01*
D02*
G37*
G36*
X-520608Y236802D02*
X-520607Y236800D01*
X-520714Y236660D01*
Y234900D01*
X-521029Y234690D01*
X-521517Y234592D01*
X-521430Y235250D01*
X-521000Y236287D01*
X-520714Y236660D01*
Y236872D01*
X-520608Y236802D01*
D02*
G37*
G36*
X-528048Y236287D02*
X-527618Y235250D01*
X-527531Y234592D01*
X-528019Y234690D01*
X-528440Y234970D01*
X-528720Y235390D01*
X-528819Y235886D01*
X-528720Y236381D01*
X-528441Y236800D01*
X-528048Y236287D01*
D02*
G37*
G36*
X-193157Y233307D02*
X-194132Y233113D01*
X-195107Y233307D01*
X-195716Y233713D01*
X-192548D01*
X-193157Y233307D01*
D02*
G37*
G36*
X-214004Y229689D02*
X-213905Y229193D01*
X-213992Y228755D01*
X-214004Y228698D01*
X-214029Y228660D01*
X-214284Y228278D01*
X-214704Y227997D01*
X-214965Y227945D01*
X-214752Y229018D01*
X-214154Y229913D01*
X-214004Y229689D01*
D02*
G37*
G36*
X-221648Y229018D02*
X-221435Y227945D01*
X-221695Y227997D01*
X-222116Y228278D01*
X-222371Y228660D01*
X-222396Y228698D01*
X-222495Y229193D01*
X-222396Y229689D01*
X-222371Y229727D01*
X-222246Y229913D01*
X-221648Y229018D01*
D02*
G37*
G36*
X-478550Y225136D02*
X-479298D01*
X-479688Y225214D01*
X-480019Y225435D01*
X-480240Y225766D01*
X-480318Y226156D01*
X-480240Y226546D01*
X-480019Y226877D01*
X-479688Y227098D01*
X-479298Y227176D01*
X-478550D01*
X-478550Y225136D01*
D02*
G37*
G36*
X-527618Y226522D02*
X-528048Y225485D01*
X-528441Y224972D01*
X-528720Y225390D01*
X-528819Y225886D01*
X-528720Y226381D01*
X-528440Y226802D01*
X-528019Y227082D01*
X-527531Y227180D01*
X-527618Y226522D01*
D02*
G37*
G36*
X-521029Y227082D02*
X-520714Y226872D01*
Y225112D01*
X-520607Y224972D01*
X-520608Y224970D01*
X-520714Y224900D01*
Y225112D01*
X-521000Y225485D01*
X-521430Y226522D01*
X-521517Y227180D01*
X-521029Y227082D01*
D02*
G37*
G36*
X-559449Y229274D02*
X-558596Y228920D01*
X-557863Y228358D01*
X-557301Y227626D01*
X-556948Y226773D01*
X-556828Y225858D01*
X-556948Y224943D01*
X-557301Y224090D01*
X-557741Y223517D01*
X-558082Y223858D01*
X-563249D01*
X-563427Y224090D01*
X-563780Y224943D01*
X-563848Y225461D01*
Y226255D01*
X-563780Y226773D01*
X-563427Y227626D01*
X-562864Y228358D01*
X-562132Y228920D01*
X-561279Y229274D01*
X-560364Y229394D01*
X-559449Y229274D01*
D02*
G37*
G36*
X-221216Y220424D02*
X-221277Y219956D01*
X-221705Y220383D01*
X-221695Y220389D01*
X-221525Y220424D01*
X-221207Y220487D01*
X-221216Y220424D01*
D02*
G37*
G36*
X-214875D02*
X-214704Y220389D01*
X-214284Y220109D01*
X-214198Y219980D01*
X-214434Y219743D01*
X-215070D01*
X-215106Y219830D01*
X-215184Y220424D01*
X-215193Y220487D01*
X-214875Y220424D01*
D02*
G37*
G36*
X-219618Y217898D02*
X-221200D01*
X-221695Y217997D01*
X-222116Y218278D01*
X-222117Y218279D01*
X-221816Y218671D01*
X-220557Y218838D01*
X-219618Y217898D01*
D02*
G37*
G36*
X-174742Y212104D02*
X-174411Y211883D01*
X-174190Y211552D01*
X-174112Y211162D01*
Y211110D01*
X-174532D01*
X-175606Y211252D01*
X-176094Y211454D01*
X-176074Y211552D01*
X-175853Y211883D01*
X-175522Y212104D01*
X-175132Y212182D01*
X-174742Y212104D01*
D02*
G37*
G36*
X-214704Y212565D02*
X-214412Y212370D01*
X-214349Y212197D01*
X-214415Y212111D01*
X-214676Y211770D01*
X-215106Y210732D01*
X-215129Y210560D01*
X-215193Y210075D01*
X-215200Y210074D01*
X-220031D01*
Y212664D01*
X-215200D01*
X-214704Y212565D01*
D02*
G37*
G36*
X-193335Y201611D02*
X-194928D01*
X-194132Y201769D01*
X-193335Y201611D01*
D02*
G37*
G36*
X-214004Y200873D02*
X-214154Y200649D01*
X-214349Y200942D01*
X-213990D01*
X-214004Y200873D01*
D02*
G37*
G36*
X-215193Y202662D02*
X-215106Y202005D01*
X-214676Y200967D01*
X-214656Y200942D01*
X-214985D01*
X-215636Y200291D01*
X-215639Y200074D01*
X-220790D01*
Y202664D01*
X-215200D01*
X-215193Y202662D01*
D02*
G37*
G36*
X-193157Y196865D02*
X-194132Y196671D01*
X-195107Y196865D01*
X-195716Y197271D01*
X-192548D01*
X-193157Y196865D01*
D02*
G37*
G36*
X-222141Y194107D02*
X-222352D01*
X-222246Y194264D01*
X-222141Y194107D01*
D02*
G37*
G36*
X-220333Y192980D02*
X-221429Y193235D01*
X-221724Y193946D01*
X-221847Y194107D01*
X-221536D01*
X-220804Y194839D01*
X-218474D01*
X-220333Y192980D01*
D02*
G37*
G36*
X-214004Y194040D02*
X-213905Y193544D01*
X-214004Y193049D01*
X-214284Y192629D01*
X-214704Y192348D01*
X-215193Y192251D01*
X-215106Y192908D01*
X-214676Y193946D01*
X-214283Y194458D01*
X-214004Y194040D01*
D02*
G37*
G36*
X-174112Y187720D02*
X-174190Y187330D01*
X-174411Y186999D01*
X-174742Y186778D01*
X-175132Y186700D01*
X-175522Y186778D01*
X-175853Y186999D01*
X-176074Y187330D01*
X-176094Y187428D01*
X-175606Y187630D01*
X-174532Y187771D01*
X-174112D01*
Y187720D01*
D02*
G37*
G36*
X-138312Y185716D02*
X-138213Y185220D01*
X-138312Y184724D01*
X-138592Y184304D01*
X-139012Y184024D01*
X-139501Y183927D01*
X-139414Y184584D01*
X-138984Y185621D01*
X-138591Y186134D01*
X-138312Y185716D01*
D02*
G37*
G36*
X-146032Y185621D02*
X-145602Y184584D01*
X-145515Y183927D01*
X-146004Y184024D01*
X-146424Y184304D01*
X-146704Y184724D01*
X-146803Y185220D01*
X-146704Y185716D01*
X-146425Y186134D01*
X-146032Y185621D01*
D02*
G37*
G36*
X-214704Y184741D02*
X-214284Y184460D01*
X-214004Y184040D01*
X-213905Y183544D01*
X-214004Y183049D01*
X-214283Y182631D01*
X-214676Y183143D01*
X-215106Y184181D01*
X-215193Y184838D01*
X-214704Y184741D01*
D02*
G37*
G36*
X-222069Y176572D02*
X-222072Y176534D01*
X-222137Y176604D01*
X-222117Y176634D01*
X-222069Y176572D01*
D02*
G37*
G36*
X-542043Y176597D02*
X-541766Y176182D01*
X-542066Y176574D01*
X-542458Y176874D01*
X-542043Y176597D01*
D02*
G37*
G36*
X-541380Y175604D02*
X-541377Y175587D01*
Y175442D01*
X-541548Y175855D01*
X-541380Y175604D01*
D02*
G37*
G36*
X-174742Y175662D02*
X-174411Y175441D01*
X-174190Y175110D01*
X-174112Y174720D01*
Y174669D01*
X-174532D01*
X-175606Y174810D01*
X-176094Y175012D01*
X-176074Y175110D01*
X-175853Y175441D01*
X-175522Y175662D01*
X-175132Y175740D01*
X-174742Y175662D01*
D02*
G37*
G36*
X-214004Y176215D02*
X-213905Y175720D01*
X-214004Y175224D01*
X-214284Y174804D01*
X-214704Y174524D01*
X-215193Y174426D01*
X-215106Y175084D01*
X-214676Y176121D01*
X-214283Y176634D01*
X-214004Y176215D01*
D02*
G37*
G36*
X-139012Y176416D02*
X-138592Y176136D01*
X-138312Y175716D01*
X-138213Y175220D01*
X-138312Y174724D01*
X-138591Y174306D01*
X-138984Y174819D01*
X-139414Y175856D01*
X-139501Y176513D01*
X-139012Y176416D01*
D02*
G37*
G36*
X-145602Y175856D02*
X-146032Y174819D01*
X-146425Y174306D01*
X-146704Y174724D01*
X-146803Y175220D01*
X-146704Y175716D01*
X-146424Y176136D01*
X-146004Y176416D01*
X-145515Y176513D01*
X-145602Y175856D01*
D02*
G37*
G36*
X-541377Y173281D02*
X-541380Y173263D01*
X-541548Y173013D01*
X-541377Y173425D01*
Y173281D01*
D02*
G37*
G36*
X-542043Y172271D02*
X-542458Y171994D01*
X-542066Y172294D01*
X-541766Y172686D01*
X-542043Y172271D01*
D02*
G37*
G36*
X-647974Y249800D02*
X-647880Y249737D01*
Y241842D01*
X-647410D01*
Y177874D01*
X-647344D01*
Y171858D01*
X-647410Y171527D01*
Y177874D01*
X-647880D01*
Y170979D01*
X-647974Y170916D01*
X-648364Y170838D01*
X-648754Y170916D01*
X-649085Y171137D01*
X-649306Y171468D01*
X-649384Y171858D01*
Y248858D01*
X-649306Y249248D01*
X-649085Y249579D01*
X-648754Y249800D01*
X-648364Y249878D01*
X-647974Y249800D01*
D02*
G37*
G36*
X-214704Y166916D02*
X-214284Y166636D01*
X-214004Y166215D01*
X-213905Y165720D01*
X-214004Y165224D01*
X-214283Y164806D01*
X-214676Y165319D01*
X-215106Y166356D01*
X-215193Y167013D01*
X-214704Y166916D01*
D02*
G37*
G36*
X-221294Y166356D02*
X-221724Y165319D01*
X-222117Y164806D01*
X-222396Y165224D01*
X-222495Y165720D01*
X-222396Y166215D01*
X-222116Y166636D01*
X-221695Y166916D01*
X-221207Y167013D01*
X-221294Y166356D01*
D02*
G37*
G36*
X-525777Y158726D02*
X-525794Y158728D01*
X-526283Y158664D01*
X-525822Y158755D01*
X-525777Y158726D01*
D02*
G37*
G36*
X-527215Y158361D02*
X-526964Y158528D01*
X-526669Y158587D01*
X-527215Y158361D01*
D02*
G37*
G36*
X-527934Y157842D02*
X-528234Y157450D01*
X-527957Y157865D01*
X-527542Y158142D01*
X-527934Y157842D01*
D02*
G37*
G36*
X-528679Y156577D02*
X-528620Y156873D01*
X-528453Y157123D01*
X-528679Y156577D01*
D02*
G37*
G36*
X-528764Y156125D02*
X-528768Y156130D01*
X-528755Y156191D01*
X-528764Y156125D01*
D02*
G37*
G36*
X-176158Y152053D02*
X-176059Y151558D01*
X-176158Y151062D01*
X-176438Y150642D01*
X-176859Y150362D01*
X-177347Y150265D01*
X-177260Y150922D01*
X-176830Y151959D01*
X-176437Y152472D01*
X-176158Y152053D01*
D02*
G37*
G36*
X-183878Y151959D02*
X-183448Y150922D01*
X-183361Y150265D01*
X-183850Y150362D01*
X-184270Y150642D01*
X-184525Y151024D01*
Y151059D01*
X-184556Y151090D01*
X-184649Y151558D01*
X-184550Y152053D01*
X-184271Y152472D01*
X-183878Y151959D01*
D02*
G37*
G36*
X-482554Y145197D02*
X-484594D01*
Y159004D01*
X-482554D01*
Y145197D01*
D02*
G37*
G36*
X-147381Y142078D02*
X-147475Y142065D01*
X-147458Y142155D01*
X-147381Y142078D01*
D02*
G37*
G36*
X-155687Y143254D02*
X-155266Y142974D01*
X-154986Y142554D01*
X-154888Y142065D01*
X-155546Y142152D01*
X-156583Y142582D01*
X-157096Y142975D01*
X-156678Y143254D01*
X-156182Y143353D01*
X-155687Y143254D01*
D02*
G37*
G36*
X-176859Y142754D02*
X-176438Y142474D01*
X-176158Y142053D01*
X-176059Y141558D01*
X-176158Y141062D01*
X-176437Y140644D01*
X-176830Y141157D01*
X-177260Y142194D01*
X-177347Y142851D01*
X-176859Y142754D01*
D02*
G37*
G36*
X-183448Y142194D02*
X-183878Y141157D01*
X-184271Y140644D01*
X-184525Y141024D01*
Y142092D01*
X-184270Y142474D01*
X-183850Y142754D01*
X-183361Y142851D01*
X-183448Y142194D01*
D02*
G37*
G36*
X-377554Y140080D02*
X-377632Y139690D01*
X-377853Y139359D01*
X-378184Y139138D01*
X-378574Y139060D01*
X-431916D01*
X-433955Y141100D01*
X-379594D01*
Y144526D01*
X-377554Y144526D01*
Y140080D01*
D02*
G37*
G36*
X-442858Y139060D02*
X-469782D01*
X-471822Y141100D01*
X-444898D01*
X-442858Y139060D01*
D02*
G37*
G36*
X-146818Y135964D02*
X-145781Y135534D01*
X-145268Y135141D01*
X-145687Y134862D01*
X-146182Y134763D01*
X-146678Y134862D01*
X-147098Y135142D01*
X-147378Y135562D01*
X-147475Y136051D01*
X-146818Y135964D01*
D02*
G37*
G36*
X-154986Y135562D02*
X-155266Y135142D01*
X-155687Y134862D01*
X-156182Y134763D01*
X-156678Y134862D01*
X-157096Y135141D01*
X-156583Y135534D01*
X-155546Y135964D01*
X-154888Y136051D01*
X-154986Y135562D01*
D02*
G37*
G36*
X-365684Y134890D02*
X-365353Y134669D01*
X-365132Y134338D01*
X-365054Y133948D01*
Y126819D01*
X-367094D01*
Y133948D01*
X-367016Y134338D01*
X-366795Y134669D01*
X-366464Y134890D01*
X-366074Y134968D01*
X-365684Y134890D01*
D02*
G37*
G36*
X-174112Y126150D02*
X-174190Y125760D01*
X-174411Y125429D01*
X-174742Y125208D01*
X-175132Y125130D01*
X-175522Y125208D01*
X-175853Y125429D01*
X-176074Y125760D01*
X-176094Y125858D01*
X-175606Y126060D01*
X-174532Y126201D01*
X-174112D01*
Y126150D01*
D02*
G37*
G36*
X-520926Y124124D02*
X-522764D01*
Y122453D01*
X-523425Y122366D01*
X-524208Y122469D01*
X-524804Y122716D01*
Y125144D01*
X-524726Y125534D01*
X-524505Y125865D01*
X-524174Y126086D01*
X-523784Y126164D01*
X-520926D01*
Y124124D01*
D02*
G37*
G36*
X-257409Y121144D02*
X-256990Y120865D01*
X-257503Y120472D01*
X-258540Y120042D01*
X-259197Y119955D01*
X-259100Y120443D01*
X-258820Y120864D01*
X-258400Y121144D01*
X-257904Y121243D01*
X-257409Y121144D01*
D02*
G37*
G36*
X-267409D02*
X-266988Y120864D01*
X-266708Y120443D01*
X-266611Y119955D01*
X-267268Y120042D01*
X-268305Y120472D01*
X-268818Y120865D01*
X-268400Y121144D01*
X-267904Y121243D01*
X-267409Y121144D01*
D02*
G37*
G36*
X-366558Y119380D02*
X-367094D01*
Y119464D01*
X-366558D01*
Y119380D01*
D02*
G37*
G36*
X-275040Y118890D02*
X-274709Y118669D01*
X-274488Y118338D01*
X-274467Y118231D01*
X-274842Y117856D01*
X-276450D01*
Y117948D01*
X-276372Y118338D01*
X-276151Y118669D01*
X-275820Y118890D01*
X-275430Y118968D01*
X-275040Y118890D01*
D02*
G37*
G36*
X-285040D02*
X-284709Y118669D01*
X-284488Y118338D01*
X-284410Y117948D01*
Y117856D01*
X-286450D01*
Y117948D01*
X-286372Y118338D01*
X-286151Y118669D01*
X-285820Y118890D01*
X-285430Y118968D01*
X-285040Y118890D01*
D02*
G37*
G36*
X-292312D02*
X-291981Y118669D01*
X-291760Y118338D01*
X-291682Y117948D01*
Y117856D01*
X-293722D01*
Y117948D01*
X-293644Y118338D01*
X-293423Y118669D01*
X-293092Y118890D01*
X-292702Y118968D01*
X-292312Y118890D01*
D02*
G37*
G36*
X-302312D02*
X-301981Y118669D01*
X-301760Y118338D01*
X-301682Y117948D01*
Y117856D01*
X-303722D01*
Y117948D01*
X-303644Y118338D01*
X-303423Y118669D01*
X-303092Y118890D01*
X-302702Y118968D01*
X-302312Y118890D01*
D02*
G37*
G36*
X-339684Y134890D02*
X-339353Y134669D01*
X-339132Y134338D01*
X-339054Y133948D01*
Y130964D01*
X-339590D01*
Y117856D01*
X-339054D01*
Y115932D01*
X-339590D01*
Y117856D01*
X-340120D01*
X-341094Y118830D01*
Y133948D01*
X-341016Y134338D01*
X-340795Y134669D01*
X-340464Y134890D01*
X-340074Y134968D01*
X-339684Y134890D01*
D02*
G37*
G36*
X-214004Y116290D02*
X-213905Y115795D01*
X-214004Y115299D01*
X-214284Y114879D01*
X-214704Y114599D01*
X-215193Y114501D01*
X-215106Y115158D01*
X-214676Y116196D01*
X-214283Y116709D01*
X-214004Y116290D01*
D02*
G37*
G36*
X-221724Y116196D02*
X-221294Y115158D01*
X-221207Y114501D01*
X-221695Y114599D01*
X-222116Y114879D01*
X-222396Y115299D01*
X-222495Y115795D01*
X-222396Y116290D01*
X-222117Y116709D01*
X-221724Y116196D01*
D02*
G37*
G36*
X-174742Y114092D02*
X-174411Y113871D01*
X-174190Y113540D01*
X-174112Y113150D01*
Y113098D01*
X-174532D01*
X-175606Y113240D01*
X-176094Y113442D01*
X-176074Y113540D01*
X-175853Y113871D01*
X-175522Y114092D01*
X-175132Y114170D01*
X-174742Y114092D01*
D02*
G37*
G36*
X-258540Y113854D02*
X-257503Y113424D01*
X-256990Y113031D01*
X-257409Y112752D01*
X-257904Y112653D01*
X-258400Y112752D01*
X-258820Y113032D01*
X-259100Y113453D01*
X-259197Y113941D01*
X-258540Y113854D01*
D02*
G37*
G36*
X-266708Y113453D02*
X-266988Y113032D01*
X-267409Y112752D01*
X-267904Y112653D01*
X-268400Y112752D01*
X-268818Y113031D01*
X-268305Y113424D01*
X-267268Y113854D01*
X-266611Y113941D01*
X-266708Y113453D01*
D02*
G37*
G36*
X-530929Y114619D02*
X-530735Y113644D01*
X-530929Y112669D01*
X-531422Y111931D01*
X-531697Y112596D01*
X-531835Y113644D01*
X-531697Y114692D01*
X-531422Y115357D01*
X-530929Y114619D01*
D02*
G37*
G36*
X-339054Y105410D02*
X-339590D01*
Y107964D01*
X-339054D01*
Y105410D01*
D02*
G37*
G36*
X-214704Y106991D02*
X-214284Y106710D01*
X-214004Y106290D01*
X-213905Y105795D01*
X-214004Y105299D01*
X-214154Y105075D01*
X-214333Y105343D01*
X-214440Y105382D01*
X-214625Y105326D01*
X-214676Y105393D01*
X-215106Y106431D01*
X-215180Y106991D01*
X-215193Y107088D01*
X-214704Y106991D01*
D02*
G37*
G36*
X-221294Y106431D02*
X-221724Y105393D01*
X-222117Y104881D01*
X-222396Y105299D01*
X-222495Y105795D01*
X-222396Y106290D01*
X-222116Y106710D01*
X-221695Y106991D01*
X-221207Y107088D01*
X-221294Y106431D01*
D02*
G37*
G36*
X-192330Y99374D02*
X-192548Y99228D01*
X-195716D01*
X-195934Y99374D01*
X-196016Y99496D01*
X-192248D01*
X-192330Y99374D01*
D02*
G37*
G36*
X-214004Y98663D02*
X-213905Y98167D01*
X-214004Y97672D01*
X-214284Y97252D01*
X-214704Y96971D01*
X-215193Y96874D01*
X-215132Y97331D01*
X-215106Y97531D01*
X-214676Y98569D01*
X-214625Y98636D01*
X-214373Y98559D01*
X-214154Y98887D01*
X-214004Y98663D01*
D02*
G37*
G36*
X-221724Y98569D02*
X-221294Y97531D01*
X-221207Y96874D01*
X-221695Y96971D01*
X-222116Y97252D01*
X-222396Y97672D01*
X-222495Y98167D01*
X-222396Y98663D01*
X-222275Y98844D01*
X-221935D01*
X-221724Y98569D01*
D02*
G37*
G36*
X-565356Y94543D02*
X-564960Y94240D01*
X-564665Y93855D01*
X-564610Y93578D01*
X-564688Y93188D01*
X-564909Y92857D01*
X-565239Y92636D01*
X-565630Y92559D01*
X-568630D01*
X-569020Y92636D01*
X-569351Y92857D01*
X-569572Y93188D01*
X-569649Y93578D01*
X-569615Y93750D01*
X-569240Y94240D01*
X-568823Y94559D01*
X-568630Y94598D01*
X-565630D01*
X-565356Y94543D01*
D02*
G37*
G36*
X-440598Y94562D02*
X-440597Y94560D01*
X-440831Y94255D01*
Y92575D01*
X-441018Y92450D01*
X-441507Y92353D01*
X-441420Y93010D01*
X-440990Y94047D01*
X-440831Y94255D01*
Y94717D01*
X-440598Y94562D01*
D02*
G37*
G36*
X-448038Y94047D02*
X-447608Y93010D01*
X-447521Y92353D01*
X-448009Y92450D01*
X-448430Y92730D01*
X-448710Y93151D01*
X-448809Y93646D01*
X-448710Y94142D01*
X-448431Y94560D01*
X-448038Y94047D01*
D02*
G37*
G36*
X-174190Y89286D02*
X-174411Y88955D01*
X-174742Y88734D01*
X-175132Y88656D01*
X-175522Y88734D01*
X-175853Y88955D01*
X-176042Y89238D01*
X-174532Y89538D01*
X-174140D01*
X-174190Y89286D01*
D02*
G37*
G36*
X-339590Y92932D02*
X-339054D01*
Y88392D01*
X-341094D01*
Y105410D01*
X-339590D01*
Y92932D01*
D02*
G37*
G36*
X-214704Y89363D02*
X-214284Y89083D01*
X-214029Y88701D01*
Y87634D01*
X-214283Y87253D01*
X-214676Y87766D01*
X-215106Y88804D01*
X-215193Y89461D01*
X-214704Y89363D01*
D02*
G37*
G36*
X-221294Y88804D02*
X-221724Y87766D01*
X-222117Y87253D01*
X-222396Y87672D01*
X-222495Y88167D01*
X-222396Y88663D01*
X-222116Y89083D01*
X-221695Y89363D01*
X-221207Y89461D01*
X-221294Y88804D01*
D02*
G37*
G36*
X-365054Y117106D02*
Y83948D01*
X-366558D01*
Y118610D01*
X-365054Y117106D01*
D02*
G37*
G36*
X-441018Y84842D02*
X-440598Y84562D01*
X-440318Y84142D01*
X-440219Y83646D01*
X-440318Y83151D01*
X-440597Y82732D01*
X-440990Y83245D01*
X-441420Y84282D01*
X-441507Y84939D01*
X-441018Y84842D01*
D02*
G37*
G36*
X-447608Y84282D02*
X-448038Y83245D01*
X-448431Y82732D01*
X-448710Y83151D01*
X-448809Y83646D01*
X-448710Y84142D01*
X-448430Y84562D01*
X-448009Y84842D01*
X-447521Y84939D01*
X-447608Y84282D01*
D02*
G37*
G36*
X-366558Y81432D02*
X-367094D01*
Y83948D01*
X-366558D01*
Y81432D01*
D02*
G37*
G36*
X-174742Y77618D02*
X-174411Y77397D01*
X-174190Y77066D01*
X-174112Y76676D01*
Y76624D01*
X-174532D01*
X-175606Y76766D01*
X-176094Y76968D01*
X-176074Y77066D01*
X-175853Y77397D01*
X-175522Y77618D01*
X-175132Y77696D01*
X-174742Y77618D01*
D02*
G37*
G36*
X-214029Y78210D02*
Y77142D01*
X-214284Y76760D01*
X-214704Y76480D01*
X-215193Y76382D01*
X-215106Y77040D01*
X-214676Y78077D01*
X-214283Y78590D01*
X-214029Y78210D01*
D02*
G37*
G36*
X-221724Y78077D02*
X-221294Y77040D01*
X-221207Y76382D01*
X-221695Y76480D01*
X-222116Y76760D01*
X-222396Y77181D01*
X-222495Y77676D01*
X-222396Y78172D01*
X-222117Y78590D01*
X-221724Y78077D01*
D02*
G37*
G36*
X-138312Y78172D02*
X-138213Y77676D01*
X-138312Y77180D01*
X-138592Y76760D01*
X-139012Y76480D01*
X-139501Y76382D01*
X-139414Y77040D01*
X-138984Y78077D01*
X-138591Y78590D01*
X-138312Y78172D01*
D02*
G37*
G36*
X-146032Y78077D02*
X-145602Y77040D01*
X-145515Y76382D01*
X-146004Y76480D01*
X-146424Y76760D01*
X-146704Y77180D01*
X-146803Y77676D01*
X-146704Y78172D01*
X-146425Y78590D01*
X-146032Y78077D01*
D02*
G37*
G36*
X-323099Y70803D02*
X-322272Y70250D01*
X-322059Y69932D01*
X-326089D01*
X-325876Y70250D01*
X-325049Y70803D01*
X-324074Y70997D01*
X-323099Y70803D01*
D02*
G37*
G36*
X-339054Y69932D02*
X-339590D01*
Y84964D01*
X-339054D01*
Y69932D01*
D02*
G37*
G36*
X-214704Y68872D02*
X-214284Y68592D01*
X-214004Y68172D01*
X-213905Y67676D01*
X-214004Y67181D01*
X-214283Y66762D01*
X-214676Y67275D01*
X-215106Y68312D01*
X-215193Y68969D01*
X-214704Y68872D01*
D02*
G37*
G36*
X-221294Y68312D02*
X-221724Y67275D01*
X-222117Y66762D01*
X-222396Y67181D01*
X-222495Y67676D01*
X-222396Y68172D01*
X-222116Y68592D01*
X-221695Y68872D01*
X-221207Y68969D01*
X-221294Y68312D01*
D02*
G37*
G36*
X-139012Y68872D02*
X-138592Y68592D01*
X-138312Y68172D01*
X-138213Y67676D01*
X-138312Y67181D01*
X-138591Y66762D01*
X-138984Y67275D01*
X-139414Y68312D01*
X-139501Y68969D01*
X-139012Y68872D01*
D02*
G37*
G36*
X-145602Y68312D02*
X-146032Y67275D01*
X-146425Y66762D01*
X-146704Y67181D01*
X-146803Y67676D01*
X-146704Y68172D01*
X-146424Y68592D01*
X-146004Y68872D01*
X-145515Y68969D01*
X-145602Y68312D01*
D02*
G37*
%LPC*%
G36*
X-560364Y226791D02*
X-560721Y226720D01*
X-561024Y226518D01*
X-561226Y226215D01*
X-561297Y225858D01*
X-561226Y225501D01*
X-561024Y225198D01*
X-560721Y224996D01*
X-560364Y224925D01*
X-560007Y224996D01*
X-559704Y225198D01*
X-559502Y225501D01*
X-559431Y225858D01*
X-559502Y226215D01*
X-559704Y226518D01*
X-560007Y226720D01*
X-560364Y226791D01*
D02*
G37*
%LPD*%
D10*
X-6614Y52577D02*
Y338327D01*
Y357377D01*
X-32014D02*
X-6614D01*
X-32014Y52577D02*
Y357377D01*
Y52577D02*
X-6614D01*
X-366074Y133948D02*
X-340074D01*
X-483574Y244080D02*
X-457324D01*
D11*
X-586498Y55088D02*
X-585356Y53946D01*
X-583071D01*
X-581928Y55088D01*
Y59659D01*
X-583071Y60801D01*
X-585356D01*
X-586498Y59659D01*
X-588784Y60801D02*
X-591069D01*
X-589926D01*
Y53946D01*
X-588784Y55088D01*
X-594497D02*
X-595639Y53946D01*
X-597925D01*
X-599067Y55088D01*
Y56231D01*
X-597925Y57373D01*
X-596782D01*
X-597925D01*
X-599067Y58516D01*
Y59659D01*
X-597925Y60801D01*
X-595639D01*
X-594497Y59659D01*
X-239022Y259661D02*
X-240164Y258518D01*
Y256233D01*
X-239022Y255090D01*
X-234451D01*
X-233308Y256233D01*
Y258518D01*
X-234451Y259661D01*
X-233308Y261946D02*
Y264231D01*
Y263089D01*
X-240164D01*
X-239022Y261946D01*
X-240164Y272230D02*
X-239022Y269944D01*
X-236736Y267659D01*
X-234451D01*
X-233308Y268802D01*
Y271087D01*
X-234451Y272230D01*
X-235594D01*
X-236736Y271087D01*
Y267659D01*
X-232808Y235222D02*
X-239664D01*
Y238650D01*
X-238521Y239793D01*
X-236236D01*
X-235094Y238650D01*
Y235222D01*
Y237507D02*
X-232808Y239793D01*
Y245506D02*
X-239664D01*
X-236236Y242078D01*
Y246649D01*
X-232808Y220023D02*
X-239664D01*
Y223451D01*
X-238521Y224594D01*
X-236236D01*
X-235094Y223451D01*
Y220023D01*
Y222308D02*
X-232808Y224594D01*
X-239664Y231449D02*
X-238521Y229164D01*
X-236236Y226879D01*
X-233951D01*
X-232808Y228022D01*
Y230307D01*
X-233951Y231449D01*
X-235094D01*
X-236236Y230307D01*
Y226879D01*
X-232808Y198812D02*
X-239664D01*
Y202240D01*
X-238521Y203382D01*
X-236236D01*
X-235094Y202240D01*
Y198812D01*
Y201097D02*
X-232808Y203382D01*
Y205667D02*
Y207953D01*
Y206810D01*
X-239664D01*
X-238521Y205667D01*
X-232808Y211381D02*
Y213666D01*
Y212523D01*
X-239664D01*
X-238521Y211381D01*
X-232808Y181028D02*
X-239664D01*
Y184456D01*
X-238521Y185599D01*
X-236236D01*
X-235094Y184456D01*
Y181028D01*
Y183314D02*
X-232808Y185599D01*
X-238521Y187884D02*
X-239664Y189027D01*
Y191312D01*
X-238521Y192454D01*
X-237379D01*
X-236236Y191312D01*
X-235094Y192454D01*
X-233951D01*
X-232808Y191312D01*
Y189027D01*
X-233951Y187884D01*
X-235094D01*
X-236236Y189027D01*
X-237379Y187884D01*
X-238521D01*
X-236236Y189027D02*
Y191312D01*
X-232808Y157531D02*
X-239664D01*
Y160959D01*
X-238521Y162102D01*
X-236236D01*
X-235094Y160959D01*
Y157531D01*
Y159817D02*
X-232808Y162102D01*
Y164387D02*
Y166673D01*
Y165530D01*
X-239664D01*
X-238521Y164387D01*
Y170100D02*
X-239664Y171243D01*
Y173528D01*
X-238521Y174671D01*
X-237379D01*
X-236236Y173528D01*
Y172386D01*
Y173528D01*
X-235094Y174671D01*
X-233951D01*
X-232808Y173528D01*
Y171243D01*
X-233951Y170100D01*
X-141910Y239977D02*
X-135054D01*
Y236549D01*
X-136197Y235406D01*
X-138482D01*
X-139625Y236549D01*
Y239977D01*
Y237691D02*
X-141910Y235406D01*
X-135054Y228550D02*
Y233121D01*
X-138482D01*
X-137339Y230836D01*
Y229693D01*
X-138482Y228550D01*
X-140767D01*
X-141910Y229693D01*
Y231978D01*
X-140767Y233121D01*
X-126993Y178686D02*
Y185541D01*
X-123565D01*
X-122422Y184399D01*
Y182113D01*
X-123565Y180971D01*
X-126993D01*
X-124708D02*
X-122422Y178686D01*
X-120137D02*
X-117852D01*
X-118995D01*
Y185541D01*
X-120137Y184399D01*
X-114424D02*
X-113281Y185541D01*
X-110996D01*
X-109853Y184399D01*
Y179828D01*
X-110996Y178686D01*
X-113281D01*
X-114424Y179828D01*
Y184399D01*
X-123188Y165861D02*
X-124331Y167004D01*
X-126616D01*
X-127759Y165861D01*
Y161291D01*
X-126616Y160148D01*
X-124331D01*
X-123188Y161291D01*
X-120903Y165861D02*
X-119761Y167004D01*
X-117475D01*
X-116333Y165861D01*
Y164719D01*
X-117475Y163576D01*
X-118618D01*
X-117475D01*
X-116333Y162433D01*
Y161291D01*
X-117475Y160148D01*
X-119761D01*
X-120903Y161291D01*
X-114047Y167004D02*
X-109477D01*
Y165861D01*
X-114047Y161291D01*
Y160148D01*
X-124979Y71788D02*
Y78644D01*
X-121551D01*
X-120408Y77501D01*
Y75216D01*
X-121551Y74073D01*
X-124979D01*
X-122694D02*
X-120408Y71788D01*
X-113553D02*
X-118123D01*
X-113553Y76359D01*
Y77501D01*
X-114695Y78644D01*
X-116981D01*
X-118123Y77501D01*
X-106697Y71788D02*
X-111267D01*
X-106697Y76359D01*
Y77501D01*
X-107840Y78644D01*
X-110125D01*
X-111267Y77501D01*
X-142805Y147766D02*
X-135949D01*
Y144338D01*
X-137092Y143195D01*
X-139377D01*
X-140520Y144338D01*
Y147766D01*
Y145480D02*
X-142805Y143195D01*
Y140910D02*
Y138625D01*
Y139767D01*
X-135949D01*
X-137092Y140910D01*
X-141663Y135197D02*
X-142805Y134054D01*
Y131769D01*
X-141663Y130626D01*
X-137092D01*
X-135949Y131769D01*
Y134054D01*
X-137092Y135197D01*
X-138235D01*
X-139377Y134054D01*
Y130626D01*
X-190557Y154898D02*
Y161754D01*
X-187129D01*
X-185986Y160611D01*
Y158326D01*
X-187129Y157184D01*
X-190557D01*
X-188272D02*
X-185986Y154898D01*
X-183701D02*
X-181416D01*
X-182558D01*
Y161754D01*
X-183701Y160611D01*
X-177988Y161754D02*
X-173417D01*
Y160611D01*
X-177988Y156041D01*
Y154898D01*
X-226262Y154306D02*
Y161162D01*
X-222834D01*
X-221691Y160019D01*
Y157734D01*
X-222834Y156591D01*
X-226262D01*
X-223976D02*
X-221691Y154306D01*
X-219406D02*
X-217121D01*
X-218263D01*
Y161162D01*
X-219406Y160019D01*
X-213693D02*
X-212550Y161162D01*
X-210265D01*
X-209122Y160019D01*
Y158877D01*
X-210265Y157734D01*
X-209122Y156591D01*
Y155449D01*
X-210265Y154306D01*
X-212550D01*
X-213693Y155449D01*
Y156591D01*
X-212550Y157734D01*
X-213693Y158877D01*
Y160019D01*
X-212550Y157734D02*
X-210265D01*
X-233060Y124209D02*
X-239916D01*
Y127637D01*
X-238773Y128779D01*
X-236488D01*
X-235345Y127637D01*
Y124209D01*
Y126494D02*
X-233060Y128779D01*
Y135635D02*
Y131065D01*
X-237631Y135635D01*
X-238773D01*
X-239916Y134493D01*
Y132207D01*
X-238773Y131065D01*
Y137921D02*
X-239916Y139063D01*
Y141348D01*
X-238773Y142491D01*
X-234203D01*
X-233060Y141348D01*
Y139063D01*
X-234203Y137921D01*
X-238773D01*
X-233060Y101920D02*
X-239916D01*
Y105348D01*
X-238773Y106491D01*
X-236488D01*
X-235345Y105348D01*
Y101920D01*
Y104206D02*
X-233060Y106491D01*
Y108776D02*
Y111061D01*
Y109919D01*
X-239916D01*
X-238773Y108776D01*
X-239916Y119060D02*
Y114489D01*
X-236488D01*
X-237631Y116775D01*
Y117917D01*
X-236488Y119060D01*
X-234203D01*
X-233060Y117917D01*
Y115632D01*
X-234203Y114489D01*
X-233568Y81918D02*
X-240424D01*
Y85345D01*
X-239281Y86488D01*
X-236996D01*
X-235853Y85345D01*
Y81918D01*
Y84203D02*
X-233568Y86488D01*
Y93344D02*
Y88773D01*
X-238139Y93344D01*
X-239281D01*
X-240424Y92201D01*
Y89916D01*
X-239281Y88773D01*
X-233568Y95629D02*
Y97914D01*
Y96772D01*
X-240424D01*
X-239281Y95629D01*
X-233568Y61280D02*
X-240424D01*
Y64708D01*
X-239281Y65851D01*
X-236996D01*
X-235853Y64708D01*
Y61280D01*
Y63566D02*
X-233568Y65851D01*
Y68136D02*
Y70421D01*
Y69279D01*
X-240424D01*
X-239281Y68136D01*
X-233568Y77277D02*
X-240424D01*
X-236996Y73849D01*
Y78420D01*
X-170433Y70739D02*
X-165863D01*
X-164720Y71881D01*
Y74166D01*
X-165863Y75309D01*
X-170433D01*
X-171576Y74166D01*
Y71881D01*
X-169291Y73024D02*
X-171576Y70739D01*
Y71881D02*
X-170433Y70739D01*
X-171576Y65026D02*
X-164720D01*
X-168148Y68453D01*
Y63883D01*
X-169177Y108093D02*
X-164607D01*
X-163464Y109235D01*
Y111521D01*
X-164607Y112663D01*
X-169177D01*
X-170320Y111521D01*
Y109235D01*
X-168035Y110378D02*
X-170320Y108093D01*
Y109235D02*
X-169177Y108093D01*
X-164607Y105807D02*
X-163464Y104665D01*
Y102380D01*
X-164607Y101237D01*
X-165749D01*
X-166892Y102380D01*
Y103522D01*
Y102380D01*
X-168035Y101237D01*
X-169177D01*
X-170320Y102380D01*
Y104665D01*
X-169177Y105807D01*
X-162941Y189231D02*
Y193801D01*
X-164083Y194944D01*
X-166369D01*
X-167511Y193801D01*
Y189231D01*
X-166369Y188088D01*
X-164083D01*
X-165226Y190373D02*
X-162941Y188088D01*
X-164083D02*
X-162941Y189231D01*
X-156085Y188088D02*
X-160655D01*
X-156085Y192659D01*
Y193801D01*
X-157227Y194944D01*
X-159513D01*
X-160655Y193801D01*
X-163576Y226061D02*
Y230631D01*
X-164719Y231774D01*
X-167004D01*
X-168146Y230631D01*
Y226061D01*
X-167004Y224918D01*
X-164719D01*
X-165861Y227203D02*
X-163576Y224918D01*
X-164719D02*
X-163576Y226061D01*
X-161291Y224918D02*
X-159005D01*
X-160148D01*
Y231774D01*
X-161291Y230631D01*
X-163330Y260669D02*
X-164472Y259527D01*
Y257241D01*
X-163330Y256099D01*
X-158759D01*
X-157616Y257241D01*
Y259527D01*
X-158759Y260669D01*
X-163330Y262954D02*
X-164472Y264097D01*
Y266382D01*
X-163330Y267525D01*
X-162187D01*
X-161044Y266382D01*
Y265240D01*
Y266382D01*
X-159902Y267525D01*
X-158759D01*
X-157616Y266382D01*
Y264097D01*
X-158759Y262954D01*
X-164472Y274381D02*
X-163330Y272096D01*
X-161044Y269810D01*
X-158759D01*
X-157616Y270953D01*
Y273238D01*
X-158759Y274381D01*
X-159902D01*
X-161044Y273238D01*
Y269810D01*
X-131067Y346249D02*
Y339393D01*
X-127639D01*
X-126496Y340535D01*
Y345106D01*
X-127639Y346249D01*
X-131067D01*
X-120783Y339393D02*
Y346249D01*
X-124211Y342821D01*
X-119640D01*
X-175639Y345566D02*
Y338710D01*
X-172211D01*
X-171069Y339853D01*
Y344423D01*
X-172211Y345566D01*
X-175639D01*
X-164213Y338710D02*
X-168783D01*
X-164213Y343281D01*
Y344423D01*
X-165355Y345566D01*
X-167641D01*
X-168783Y344423D01*
X-223908Y344628D02*
Y337772D01*
X-220480D01*
X-219337Y338915D01*
Y343485D01*
X-220480Y344628D01*
X-223908D01*
X-212481D02*
X-217052D01*
Y341200D01*
X-214767Y342343D01*
X-213624D01*
X-212481Y341200D01*
Y338915D01*
X-213624Y337772D01*
X-215909D01*
X-217052Y338915D01*
X-85843Y307659D02*
X-86986Y306516D01*
Y304231D01*
X-85843Y303088D01*
X-81273D01*
X-80130Y304231D01*
Y306516D01*
X-81273Y307659D01*
X-80130Y309944D02*
Y312229D01*
Y311087D01*
X-86986D01*
X-85843Y309944D01*
X-81273Y315657D02*
X-80130Y316800D01*
Y319085D01*
X-81273Y320228D01*
X-85843D01*
X-86986Y319085D01*
Y316800D01*
X-85843Y315657D01*
X-84701D01*
X-83558Y316800D01*
Y320228D01*
X-51942Y332483D02*
X-45086D01*
Y329055D01*
X-46229Y327912D01*
X-48514D01*
X-49657Y329055D01*
Y332483D01*
Y330198D02*
X-51942Y327912D01*
X-46229Y325627D02*
X-45086Y324485D01*
Y322199D01*
X-46229Y321057D01*
X-47371D01*
X-48514Y322199D01*
Y323342D01*
Y322199D01*
X-49657Y321057D01*
X-50799D01*
X-51942Y322199D01*
Y324485D01*
X-50799Y325627D01*
X-46229Y318771D02*
X-45086Y317629D01*
Y315344D01*
X-46229Y314201D01*
X-50799D01*
X-51942Y315344D01*
Y317629D01*
X-50799Y318771D01*
X-46229D01*
X-266840Y101851D02*
X-259984D01*
Y98423D01*
X-261127Y97281D01*
X-263412D01*
X-264555Y98423D01*
Y101851D01*
Y99566D02*
X-266840Y97281D01*
Y90425D02*
Y94995D01*
X-262269Y90425D01*
X-261127D01*
X-259984Y91567D01*
Y93853D01*
X-261127Y94995D01*
X-259984Y83569D02*
Y88139D01*
X-263412D01*
X-262269Y85854D01*
Y84712D01*
X-263412Y83569D01*
X-265697D01*
X-266840Y84712D01*
Y86997D01*
X-265697Y88139D01*
X-299099Y140239D02*
X-300241Y141382D01*
X-302526D01*
X-303669Y140239D01*
Y135669D01*
X-302526Y134526D01*
X-300241D01*
X-299099Y135669D01*
X-292243Y141382D02*
X-294528Y140239D01*
X-296813Y137954D01*
Y135669D01*
X-295671Y134526D01*
X-293386D01*
X-292243Y135669D01*
Y136811D01*
X-293386Y137954D01*
X-296813D01*
X-281131Y69068D02*
X-282273Y70211D01*
X-284558D01*
X-285701Y69068D01*
Y64497D01*
X-284558Y63355D01*
X-282273D01*
X-281131Y64497D01*
X-278845Y70211D02*
X-274275D01*
Y69068D01*
X-278845Y64497D01*
Y63355D01*
X-282371Y140239D02*
X-283513Y141382D01*
X-285799D01*
X-286941Y140239D01*
Y135669D01*
X-285799Y134526D01*
X-283513D01*
X-282371Y135669D01*
X-280085Y140239D02*
X-278943Y141382D01*
X-276658D01*
X-275515Y140239D01*
Y139097D01*
X-276658Y137954D01*
X-275515Y136811D01*
Y135669D01*
X-276658Y134526D01*
X-278943D01*
X-280085Y135669D01*
Y136811D01*
X-278943Y137954D01*
X-280085Y139097D01*
Y140239D01*
X-278943Y137954D02*
X-276658D01*
X-298468Y69178D02*
X-299610Y70320D01*
X-301895D01*
X-303038Y69178D01*
Y64607D01*
X-301895Y63464D01*
X-299610D01*
X-298468Y64607D01*
X-296182D02*
X-295040Y63464D01*
X-292754D01*
X-291612Y64607D01*
Y69178D01*
X-292754Y70320D01*
X-295040D01*
X-296182Y69178D01*
Y68035D01*
X-295040Y66892D01*
X-291612D01*
X-336181Y203326D02*
Y196470D01*
X-332753D01*
X-331611Y197613D01*
Y202183D01*
X-332753Y203326D01*
X-336181D01*
X-329325Y202183D02*
X-328183Y203326D01*
X-325897D01*
X-324755Y202183D01*
Y201041D01*
X-325897Y199898D01*
X-327040D01*
X-325897D01*
X-324755Y198755D01*
Y197613D01*
X-325897Y196470D01*
X-328183D01*
X-329325Y197613D01*
X-396125Y127888D02*
Y122175D01*
X-394982Y121032D01*
X-392697D01*
X-391555Y122175D01*
Y127888D01*
X-384699Y121032D02*
X-389269D01*
X-384699Y125603D01*
Y126745D01*
X-385841Y127888D01*
X-388127D01*
X-389269Y126745D01*
X-428280Y101851D02*
X-421424D01*
Y98423D01*
X-422567Y97281D01*
X-424852D01*
X-425995Y98423D01*
Y101851D01*
Y99566D02*
X-428280Y97281D01*
Y90425D02*
Y94995D01*
X-423709Y90425D01*
X-422567D01*
X-421424Y91567D01*
Y93853D01*
X-422567Y94995D01*
X-421424Y83569D02*
X-422567Y85854D01*
X-424852Y88139D01*
X-427137D01*
X-428280Y86997D01*
Y84712D01*
X-427137Y83569D01*
X-425995D01*
X-424852Y84712D01*
Y88139D01*
X-421567Y105005D02*
X-420424Y106147D01*
Y108433D01*
X-421567Y109575D01*
X-426137D01*
X-427280Y108433D01*
Y106147D01*
X-426137Y105005D01*
X-427280Y102719D02*
Y100434D01*
Y101577D01*
X-420424D01*
X-421567Y102719D01*
Y97006D02*
X-420424Y95864D01*
Y93579D01*
X-421567Y92436D01*
X-426137D01*
X-427280Y93579D01*
Y95864D01*
X-426137Y97006D01*
X-421567D01*
X-586495Y70810D02*
X-585353Y69667D01*
X-583067D01*
X-581925Y70810D01*
Y75381D01*
X-583067Y76523D01*
X-585353D01*
X-586495Y75381D01*
X-588780Y76523D02*
X-591066D01*
X-589923D01*
Y69667D01*
X-588780Y70810D01*
X-597921Y76523D02*
Y69667D01*
X-594494Y73095D01*
X-599064D01*
X-585770Y86039D02*
X-584628Y84896D01*
X-582343D01*
X-581200Y86039D01*
Y90610D01*
X-582343Y91752D01*
X-584628D01*
X-585770Y90610D01*
X-588056Y91752D02*
X-590341D01*
X-589198D01*
Y84896D01*
X-588056Y86039D01*
X-598340Y91752D02*
X-593769D01*
X-598340Y87182D01*
Y86039D01*
X-597197Y84896D01*
X-594912D01*
X-593769Y86039D01*
X-585770Y101768D02*
X-584628Y100626D01*
X-582343D01*
X-581200Y101768D01*
Y106339D01*
X-582343Y107481D01*
X-584628D01*
X-585770Y106339D01*
X-588056Y107481D02*
X-590341D01*
X-589198D01*
Y100626D01*
X-588056Y101768D01*
X-593769Y107481D02*
X-596054D01*
X-594911D01*
Y100626D01*
X-593769Y101768D01*
X-530270Y145184D02*
Y139471D01*
X-529127Y138328D01*
X-526842D01*
X-525700Y139471D01*
Y145184D01*
X-523414Y144041D02*
X-522272Y145184D01*
X-519986D01*
X-518844Y144041D01*
Y142899D01*
X-519986Y141756D01*
X-521129D01*
X-519986D01*
X-518844Y140613D01*
Y139471D01*
X-519986Y138328D01*
X-522272D01*
X-523414Y139471D01*
X-499501Y228796D02*
X-500644Y227653D01*
Y225368D01*
X-499501Y224225D01*
X-494930D01*
X-493788Y225368D01*
Y227653D01*
X-494930Y228796D01*
X-493788Y231081D02*
Y233367D01*
Y232224D01*
X-500644D01*
X-499501Y231081D01*
X-500644Y236794D02*
Y241365D01*
X-499501D01*
X-494930Y236794D01*
X-493788D01*
X-533129Y215842D02*
Y222698D01*
X-529701D01*
X-528558Y221555D01*
Y219270D01*
X-529701Y218127D01*
X-533129D01*
X-530843D02*
X-528558Y215842D01*
X-521702D02*
X-526273D01*
X-521702Y220413D01*
Y221555D01*
X-522845Y222698D01*
X-525130D01*
X-526273Y221555D01*
X-519417D02*
X-518274Y222698D01*
X-515989D01*
X-514846Y221555D01*
Y220413D01*
X-515989Y219270D01*
X-514846Y218127D01*
Y216985D01*
X-515989Y215842D01*
X-518274D01*
X-519417Y216985D01*
Y218127D01*
X-518274Y219270D01*
X-519417Y220413D01*
Y221555D01*
X-518274Y219270D02*
X-515989D01*
X-505477Y159980D02*
Y153124D01*
X-500907D01*
X-494051Y159980D02*
X-496336Y158837D01*
X-498621Y156552D01*
Y154267D01*
X-497479Y153124D01*
X-495194D01*
X-494051Y154267D01*
Y155409D01*
X-495194Y156552D01*
X-498621D01*
X-325831Y351535D02*
X-326974Y352678D01*
X-329259D01*
X-330402Y351535D01*
Y346965D01*
X-329259Y345822D01*
X-326974D01*
X-325831Y346965D01*
X-323546Y345822D02*
X-321261D01*
X-322403D01*
Y352678D01*
X-323546Y351535D01*
X-313262Y352678D02*
X-317833D01*
Y349250D01*
X-315548Y350393D01*
X-314405D01*
X-313262Y349250D01*
Y346965D01*
X-314405Y345822D01*
X-316690D01*
X-317833Y346965D01*
X-556653Y345368D02*
Y339655D01*
X-555510Y338512D01*
X-553225D01*
X-552083Y339655D01*
Y345368D01*
X-546370Y338512D02*
Y345368D01*
X-549797Y341940D01*
X-545227D01*
X-623203Y282884D02*
X-625488D01*
X-624345D01*
Y277171D01*
X-625488Y276028D01*
X-626631D01*
X-627773Y277171D01*
X-616347Y276028D02*
X-620917D01*
X-616347Y280599D01*
Y281741D01*
X-617490Y282884D01*
X-619775D01*
X-620917Y281741D01*
X-73403Y280544D02*
Y287400D01*
X-69975D01*
X-68833Y286257D01*
Y283972D01*
X-69975Y282829D01*
X-73403D01*
X-71118D02*
X-68833Y280544D01*
X-61977D02*
X-66547D01*
X-61977Y285115D01*
Y286257D01*
X-63119Y287400D01*
X-65405D01*
X-66547Y286257D01*
X-59692Y287400D02*
X-55121D01*
Y286257D01*
X-59692Y281687D01*
Y280544D01*
X-81000Y327472D02*
X-87856D01*
Y330900D01*
X-86713Y332043D01*
X-84428D01*
X-83285Y330900D01*
Y327472D01*
Y329758D02*
X-81000Y332043D01*
Y338899D02*
Y334328D01*
X-85571Y338899D01*
X-86713D01*
X-87856Y337756D01*
Y335471D01*
X-86713Y334328D01*
X-82143Y341184D02*
X-81000Y342327D01*
Y344612D01*
X-82143Y345755D01*
X-86713D01*
X-87856Y344612D01*
Y342327D01*
X-86713Y341184D01*
X-85571D01*
X-84428Y342327D01*
Y345755D01*
X-68833Y372998D02*
X-64262D01*
Y371855D01*
X-68833Y367285D01*
Y366142D01*
X-64262D01*
X-61977D02*
X-59692D01*
X-60834D01*
Y372998D01*
X-61977Y371855D01*
X-27188Y370203D02*
X-29473D01*
X-28331D01*
Y364490D01*
X-29473Y363347D01*
X-30616D01*
X-31758Y364490D01*
X-24903Y363347D02*
X-22617D01*
X-23760D01*
Y370203D01*
X-24903Y369060D01*
X-84499Y158773D02*
X-83356Y159916D01*
X-81071D01*
X-79928Y158773D01*
Y154203D01*
X-81071Y153060D01*
X-83356D01*
X-84499Y154203D01*
X-91354Y153060D02*
X-86784D01*
X-91354Y157631D01*
Y158773D01*
X-90212Y159916D01*
X-87926D01*
X-86784Y158773D01*
X-93640D02*
X-94782Y159916D01*
X-97067D01*
X-98210Y158773D01*
Y157631D01*
X-97067Y156488D01*
X-98210Y155345D01*
Y154203D01*
X-97067Y153060D01*
X-94782D01*
X-93640Y154203D01*
Y155345D01*
X-94782Y156488D01*
X-93640Y157631D01*
Y158773D01*
X-94782Y156488D02*
X-97067D01*
X-120647Y363348D02*
Y370204D01*
X-117219D01*
X-116076Y369061D01*
Y366776D01*
X-117219Y365633D01*
X-120647D01*
X-118362D02*
X-116076Y363348D01*
X-113791Y369061D02*
X-112649Y370204D01*
X-110363D01*
X-109221Y369061D01*
Y367919D01*
X-110363Y366776D01*
X-111506D01*
X-110363D01*
X-109221Y365633D01*
Y364491D01*
X-110363Y363348D01*
X-112649D01*
X-113791Y364491D01*
X-102365Y370204D02*
X-104650Y369061D01*
X-106936Y366776D01*
Y364491D01*
X-105793Y363348D01*
X-103508D01*
X-102365Y364491D01*
Y365633D01*
X-103508Y366776D01*
X-106936D01*
X-186321Y251290D02*
Y258146D01*
X-182893D01*
X-181751Y257003D01*
Y254718D01*
X-182893Y253575D01*
X-186321D01*
X-184036D02*
X-181751Y251290D01*
X-174895D02*
X-179465D01*
X-174895Y255860D01*
Y257003D01*
X-176038Y258146D01*
X-178323D01*
X-179465Y257003D01*
X-530451Y161460D02*
X-531594Y162603D01*
X-533879D01*
X-535022Y161460D01*
Y156890D01*
X-533879Y155747D01*
X-531594D01*
X-530451Y156890D01*
X-528166Y155747D02*
X-525880D01*
X-527023D01*
Y162603D01*
X-528166Y161460D01*
X-522453D02*
X-521310Y162603D01*
X-519025D01*
X-517882Y161460D01*
Y160318D01*
X-519025Y159175D01*
X-517882Y158033D01*
Y156890D01*
X-519025Y155747D01*
X-521310D01*
X-522453Y156890D01*
Y158033D01*
X-521310Y159175D01*
X-522453Y160318D01*
Y161460D01*
X-521310Y159175D02*
X-519025D01*
M02*
