G04*
G04 #@! TF.GenerationSoftware,Altium Limited,Altium Designer,24.0.1 (36)*
G04*
G04 Layer_Color=8388736*
%FSLAX44Y44*%
%MOMM*%
G71*
G04*
G04 #@! TF.SameCoordinates,E4FC931E-1C7A-40CD-B5D5-C7D3481EEB9B*
G04*
G04*
G04 #@! TF.FilePolarity,Negative*
G04*
G01*
G75*
G04:AMPARAMS|DCode=34|XSize=1.2032mm|YSize=0.9032mm|CornerRadius=0.2766mm|HoleSize=0mm|Usage=FLASHONLY|Rotation=270.000|XOffset=0mm|YOffset=0mm|HoleType=Round|Shape=RoundedRectangle|*
%AMROUNDEDRECTD34*
21,1,1.2032,0.3500,0,0,270.0*
21,1,0.6500,0.9032,0,0,270.0*
1,1,0.5532,-0.1750,-0.3250*
1,1,0.5532,-0.1750,0.3250*
1,1,0.5532,0.1750,0.3250*
1,1,0.5532,0.1750,-0.3250*
%
%ADD34ROUNDEDRECTD34*%
G04:AMPARAMS|DCode=35|XSize=1.8432mm|YSize=2.4332mm|CornerRadius=0.5116mm|HoleSize=0mm|Usage=FLASHONLY|Rotation=90.000|XOffset=0mm|YOffset=0mm|HoleType=Round|Shape=RoundedRectangle|*
%AMROUNDEDRECTD35*
21,1,1.8432,1.4100,0,0,90.0*
21,1,0.8200,2.4332,0,0,90.0*
1,1,1.0232,0.7050,0.4100*
1,1,1.0232,0.7050,-0.4100*
1,1,1.0232,-0.7050,-0.4100*
1,1,1.0232,-0.7050,0.4100*
%
%ADD35ROUNDEDRECTD35*%
%ADD36R,2.7032X2.2032*%
%ADD37R,2.5032X0.6032*%
%ADD38R,1.4032X1.8532*%
G04:AMPARAMS|DCode=39|XSize=1.2032mm|YSize=0.9032mm|CornerRadius=0.2766mm|HoleSize=0mm|Usage=FLASHONLY|Rotation=180.000|XOffset=0mm|YOffset=0mm|HoleType=Round|Shape=RoundedRectangle|*
%AMROUNDEDRECTD39*
21,1,1.2032,0.3500,0,0,180.0*
21,1,0.6500,0.9032,0,0,180.0*
1,1,0.5532,-0.3250,0.1750*
1,1,0.5532,0.3250,0.1750*
1,1,0.5532,0.3250,-0.1750*
1,1,0.5532,-0.3250,-0.1750*
%
%ADD39ROUNDEDRECTD39*%
G04:AMPARAMS|DCode=40|XSize=1.0032mm|YSize=1.4032mm|CornerRadius=0.2616mm|HoleSize=0mm|Usage=FLASHONLY|Rotation=90.000|XOffset=0mm|YOffset=0mm|HoleType=Round|Shape=RoundedRectangle|*
%AMROUNDEDRECTD40*
21,1,1.0032,0.8800,0,0,90.0*
21,1,0.4800,1.4032,0,0,90.0*
1,1,0.5232,0.4400,0.2400*
1,1,0.5232,0.4400,-0.2400*
1,1,0.5232,-0.4400,-0.2400*
1,1,0.5232,-0.4400,0.2400*
%
%ADD40ROUNDEDRECTD40*%
G04:AMPARAMS|DCode=41|XSize=2.2632mm|YSize=2.2232mm|CornerRadius=0.3541mm|HoleSize=0mm|Usage=FLASHONLY|Rotation=270.000|XOffset=0mm|YOffset=0mm|HoleType=Round|Shape=RoundedRectangle|*
%AMROUNDEDRECTD41*
21,1,2.2632,1.5150,0,0,270.0*
21,1,1.5550,2.2232,0,0,270.0*
1,1,0.7082,-0.7575,-0.7775*
1,1,0.7082,-0.7575,0.7775*
1,1,0.7082,0.7575,0.7775*
1,1,0.7082,0.7575,-0.7775*
%
%ADD41ROUNDEDRECTD41*%
G04:AMPARAMS|DCode=42|XSize=2.2632mm|YSize=2.2232mm|CornerRadius=0.3541mm|HoleSize=0mm|Usage=FLASHONLY|Rotation=0.000|XOffset=0mm|YOffset=0mm|HoleType=Round|Shape=RoundedRectangle|*
%AMROUNDEDRECTD42*
21,1,2.2632,1.5150,0,0,0.0*
21,1,1.5550,2.2232,0,0,0.0*
1,1,0.7082,0.7775,-0.7575*
1,1,0.7082,-0.7775,-0.7575*
1,1,0.7082,-0.7775,0.7575*
1,1,0.7082,0.7775,0.7575*
%
%ADD42ROUNDEDRECTD42*%
%ADD43R,2.9032X1.2032*%
%ADD44O,1.4032X0.5032*%
%ADD45R,2.9032X3.5032*%
%ADD46O,0.5032X1.4032*%
%ADD47R,3.3332X3.3332*%
%ADD48R,4.2032X5.7032*%
%ADD49R,2.2032X4.3032*%
%ADD50R,3.2032X1.2232*%
%ADD51R,7.7032X8.5332*%
%ADD52R,3.2032X1.4382*%
G04:AMPARAMS|DCode=53|XSize=1.0132mm|YSize=1.1032mm|CornerRadius=0.3041mm|HoleSize=0mm|Usage=FLASHONLY|Rotation=0.000|XOffset=0mm|YOffset=0mm|HoleType=Round|Shape=RoundedRectangle|*
%AMROUNDEDRECTD53*
21,1,1.0132,0.4950,0,0,0.0*
21,1,0.4050,1.1032,0,0,0.0*
1,1,0.6082,0.2025,-0.2475*
1,1,0.6082,-0.2025,-0.2475*
1,1,0.6082,-0.2025,0.2475*
1,1,0.6082,0.2025,0.2475*
%
%ADD53ROUNDEDRECTD53*%
%ADD54R,1.7032X1.7032*%
%ADD55C,1.7032*%
%ADD56C,1.1032*%
G36*
X35535Y16116D02*
X30535D01*
Y23866D01*
X35535D01*
Y16116D01*
D02*
G37*
G36*
Y26866D02*
X30535D01*
Y34616D01*
X35535D01*
Y26866D01*
D02*
G37*
G36*
X61535Y16116D02*
X56535D01*
Y23866D01*
X61535D01*
Y16116D01*
D02*
G37*
G36*
Y26866D02*
X56535D01*
Y34616D01*
X61535D01*
Y26866D01*
D02*
G37*
D34*
X32691Y-191118D02*
D03*
X15691D02*
D03*
X-61816Y-87957D02*
D03*
X-79816D02*
D03*
X-23970Y-149754D02*
D03*
X-41970D02*
D03*
X-449091Y-272854D02*
D03*
X-466091D02*
D03*
X-466088Y-257133D02*
D03*
X-449088D02*
D03*
X-466091Y-241396D02*
D03*
X-449091D02*
D03*
X-100162Y-70886D02*
D03*
X-117162D02*
D03*
X-99662Y-87956D02*
D03*
X-117662D02*
D03*
Y-105781D02*
D03*
X-99662D02*
D03*
Y-123605D02*
D03*
X-117662D02*
D03*
Y-141430D02*
D03*
X-99662D02*
D03*
Y-159254D02*
D03*
X-117662D02*
D03*
X-24160Y-167918D02*
D03*
X-41160D02*
D03*
X-41970Y-257298D02*
D03*
X-23970D02*
D03*
X-117662Y-257298D02*
D03*
X-99662D02*
D03*
X-79816Y-183416D02*
D03*
X-61816D02*
D03*
X-99662Y-183924D02*
D03*
X-117662D02*
D03*
Y-201552D02*
D03*
X-99662D02*
D03*
X-117662Y-219179D02*
D03*
X-99662D02*
D03*
X-117662Y-236807D02*
D03*
X-99662D02*
D03*
X-24470Y-69306D02*
D03*
X-41470D02*
D03*
X53160Y-33386D02*
D03*
X35160Y-19221D02*
D03*
X52160D02*
D03*
X35160Y-5055D02*
D03*
X53160D02*
D03*
X-342976Y-225921D02*
D03*
X-325976D02*
D03*
X35160Y-33386D02*
D03*
X-343976Y-241328D02*
D03*
X-325976D02*
D03*
X-466091Y-225667D02*
D03*
X-449091D02*
D03*
X-359760Y-98818D02*
D03*
X-376760D02*
D03*
X-423986Y-99088D02*
D03*
X-405986D02*
D03*
X35160Y9110D02*
D03*
X53160D02*
D03*
D35*
X-417526Y-157194D02*
D03*
Y-126394D02*
D03*
D36*
X-468326Y-75616D02*
D03*
X-523326D02*
D03*
Y-164616D02*
D03*
X-468326D02*
D03*
D37*
Y-136116D02*
D03*
Y-128116D02*
D03*
Y-120116D02*
D03*
Y-112116D02*
D03*
Y-104116D02*
D03*
D38*
X28762Y25366D02*
D03*
X63052D02*
D03*
D39*
X-41644Y-86456D02*
D03*
Y-104457D02*
D03*
Y-181916D02*
D03*
Y-199916D02*
D03*
X-188164Y-222026D02*
D03*
X-170892Y-254026D02*
D03*
Y-222026D02*
D03*
X-188164Y-254026D02*
D03*
X-153366Y-204026D02*
D03*
Y-222026D02*
D03*
X-188164Y-205026D02*
D03*
X-170892Y-237026D02*
D03*
Y-205026D02*
D03*
X-188164Y-237026D02*
D03*
D40*
X-84594Y-237298D02*
D03*
Y-256298D02*
D03*
X-60594Y-246798D02*
D03*
X-84594Y-200824D02*
D03*
Y-219824D02*
D03*
X-60594Y-210324D02*
D03*
X-84594Y-139254D02*
D03*
Y-158254D02*
D03*
X-60594Y-148754D02*
D03*
X-84594Y-102812D02*
D03*
Y-121812D02*
D03*
X-60594Y-112312D02*
D03*
D41*
X-84526Y-43044D02*
D03*
X1568Y-544D02*
D03*
Y-43044D02*
D03*
X-41479Y-544D02*
D03*
Y-43044D02*
D03*
X-84526Y-544D02*
D03*
D42*
X-181646Y-155294D02*
D03*
X-224146D02*
D03*
D43*
X-214036Y-252526D02*
D03*
Y-206526D02*
D03*
Y-229526D02*
D03*
D44*
X-413746Y-226330D02*
D03*
Y-216330D02*
D03*
Y-221330D02*
D03*
Y-231330D02*
D03*
Y-236330D02*
D03*
Y-241330D02*
D03*
Y-246330D02*
D03*
X-361746D02*
D03*
Y-241330D02*
D03*
Y-236330D02*
D03*
Y-226330D02*
D03*
Y-221330D02*
D03*
Y-216330D02*
D03*
D45*
X-273036Y-229526D02*
D03*
D46*
X-402746Y-257330D02*
D03*
X-397746D02*
D03*
X-392746D02*
D03*
X-387746D02*
D03*
X-382746D02*
D03*
X-377746D02*
D03*
X-372746D02*
D03*
Y-205330D02*
D03*
X-377746D02*
D03*
X-382746D02*
D03*
X-387746D02*
D03*
X-392746D02*
D03*
X-397746D02*
D03*
X-402746D02*
D03*
D47*
X-387746Y-231330D02*
D03*
D48*
X-376536Y-137894D02*
D03*
X-266536D02*
D03*
D49*
X-186172Y1806D02*
D03*
Y-85194D02*
D03*
D50*
X-273772Y-65214D02*
D03*
Y-48214D02*
D03*
Y-31214D02*
D03*
Y-14214D02*
D03*
Y2786D02*
D03*
D51*
X-390522Y-31214D02*
D03*
D52*
X-412922Y16611D02*
D03*
Y-79039D02*
D03*
D53*
X-7778Y24959D02*
D03*
X6122D02*
D03*
D54*
X90225Y14703D02*
D03*
D55*
Y-10697D02*
D03*
Y-36097D02*
D03*
Y-61497D02*
D03*
Y-86897D02*
D03*
Y-112297D02*
D03*
Y-137697D02*
D03*
Y-163097D02*
D03*
Y-188497D02*
D03*
Y-213897D02*
D03*
Y-239297D02*
D03*
Y-264697D02*
D03*
D56*
X-493326Y-98116D02*
D03*
Y-142116D02*
D03*
M02*
