G04*
G04 #@! TF.GenerationSoftware,Altium Limited,Altium Designer,24.0.1 (36)*
G04*
G04 Layer_Color=16711935*
%FSLAX44Y44*%
%MOMM*%
G71*
G04*
G04 #@! TF.SameCoordinates,E4E742BE-E936-4CAC-BADB-82586D2B27CE*
G04*
G04*
G04 #@! TF.FilePolarity,Negative*
G04*
G01*
G75*
G04:AMPARAMS|DCode=29|XSize=1.2032mm|YSize=0.9032mm|CornerRadius=0.2766mm|HoleSize=0mm|Usage=FLASHONLY|Rotation=270.000|XOffset=0mm|YOffset=0mm|HoleType=Round|Shape=RoundedRectangle|*
%AMROUNDEDRECTD29*
21,1,1.2032,0.3500,0,0,270.0*
21,1,0.6500,0.9032,0,0,270.0*
1,1,0.5532,-0.1750,-0.3250*
1,1,0.5532,-0.1750,0.3250*
1,1,0.5532,0.1750,0.3250*
1,1,0.5532,0.1750,-0.3250*
%
%ADD29ROUNDEDRECTD29*%
G04:AMPARAMS|DCode=31|XSize=1.2032mm|YSize=0.9032mm|CornerRadius=0.2766mm|HoleSize=0mm|Usage=FLASHONLY|Rotation=180.000|XOffset=0mm|YOffset=0mm|HoleType=Round|Shape=RoundedRectangle|*
%AMROUNDEDRECTD31*
21,1,1.2032,0.3500,0,0,180.0*
21,1,0.6500,0.9032,0,0,180.0*
1,1,0.5532,-0.3250,0.1750*
1,1,0.5532,0.3250,0.1750*
1,1,0.5532,0.3250,-0.1750*
1,1,0.5532,-0.3250,-0.1750*
%
%ADD31ROUNDEDRECTD31*%
G04:AMPARAMS|DCode=33|XSize=2.2632mm|YSize=2.2232mm|CornerRadius=0.3541mm|HoleSize=0mm|Usage=FLASHONLY|Rotation=270.000|XOffset=0mm|YOffset=0mm|HoleType=Round|Shape=RoundedRectangle|*
%AMROUNDEDRECTD33*
21,1,2.2632,1.5150,0,0,270.0*
21,1,1.5550,2.2232,0,0,270.0*
1,1,0.7082,-0.7575,-0.7775*
1,1,0.7082,-0.7575,0.7775*
1,1,0.7082,0.7575,0.7775*
1,1,0.7082,0.7575,-0.7775*
%
%ADD33ROUNDEDRECTD33*%
G04:AMPARAMS|DCode=45|XSize=1.0132mm|YSize=1.1032mm|CornerRadius=0.3041mm|HoleSize=0mm|Usage=FLASHONLY|Rotation=0.000|XOffset=0mm|YOffset=0mm|HoleType=Round|Shape=RoundedRectangle|*
%AMROUNDEDRECTD45*
21,1,1.0132,0.4950,0,0,0.0*
21,1,0.4050,1.1032,0,0,0.0*
1,1,0.6082,0.2025,-0.2475*
1,1,0.6082,-0.2025,-0.2475*
1,1,0.6082,-0.2025,0.2475*
1,1,0.6082,0.2025,0.2475*
%
%ADD45ROUNDEDRECTD45*%
G04:AMPARAMS|DCode=58|XSize=0.25mm|YSize=0.6mm|CornerRadius=0.0525mm|HoleSize=0mm|Usage=FLASHONLY|Rotation=0.000|XOffset=0mm|YOffset=0mm|HoleType=Round|Shape=RoundedRectangle|*
%AMROUNDEDRECTD58*
21,1,0.2500,0.4950,0,0,0.0*
21,1,0.1450,0.6000,0,0,0.0*
1,1,0.1050,0.0725,-0.2475*
1,1,0.1050,-0.0725,-0.2475*
1,1,0.1050,-0.0725,0.2475*
1,1,0.1050,0.0725,0.2475*
%
%ADD58ROUNDEDRECTD58*%
G04:AMPARAMS|DCode=59|XSize=0.6mm|YSize=0.25mm|CornerRadius=0.0525mm|HoleSize=0mm|Usage=FLASHONLY|Rotation=0.000|XOffset=0mm|YOffset=0mm|HoleType=Round|Shape=RoundedRectangle|*
%AMROUNDEDRECTD59*
21,1,0.6000,0.1450,0,0,0.0*
21,1,0.4950,0.2500,0,0,0.0*
1,1,0.1050,0.2475,-0.0725*
1,1,0.1050,-0.2475,-0.0725*
1,1,0.1050,-0.2475,0.0725*
1,1,0.1050,0.2475,0.0725*
%
%ADD59ROUNDEDRECTD59*%
%ADD60R,1.0000X1.0000*%
G04:AMPARAMS|DCode=61|XSize=2.5mm|YSize=0.9mm|CornerRadius=0.225mm|HoleSize=0mm|Usage=FLASHONLY|Rotation=0.000|XOffset=0mm|YOffset=0mm|HoleType=Round|Shape=RoundedRectangle|*
%AMROUNDEDRECTD61*
21,1,2.5000,0.4500,0,0,0.0*
21,1,2.0500,0.9000,0,0,0.0*
1,1,0.4500,1.0250,-0.2250*
1,1,0.4500,-1.0250,-0.2250*
1,1,0.4500,-1.0250,0.2250*
1,1,0.4500,1.0250,0.2250*
%
%ADD61ROUNDEDRECTD61*%
G04:AMPARAMS|DCode=62|XSize=0.9mm|YSize=2.5mm|CornerRadius=0.225mm|HoleSize=0mm|Usage=FLASHONLY|Rotation=0.000|XOffset=0mm|YOffset=0mm|HoleType=Round|Shape=RoundedRectangle|*
%AMROUNDEDRECTD62*
21,1,0.9000,2.0500,0,0,0.0*
21,1,0.4500,2.5000,0,0,0.0*
1,1,0.4500,0.2250,-1.0250*
1,1,0.4500,-0.2250,-1.0250*
1,1,0.4500,-0.2250,1.0250*
1,1,0.4500,0.2250,1.0250*
%
%ADD62ROUNDEDRECTD62*%
G04:AMPARAMS|DCode=63|XSize=1.33mm|YSize=1.33mm|CornerRadius=0.3325mm|HoleSize=0mm|Usage=FLASHONLY|Rotation=0.000|XOffset=0mm|YOffset=0mm|HoleType=Round|Shape=RoundedRectangle|*
%AMROUNDEDRECTD63*
21,1,1.3300,0.6650,0,0,0.0*
21,1,0.6650,1.3300,0,0,0.0*
1,1,0.6650,0.3325,-0.3325*
1,1,0.6650,-0.3325,-0.3325*
1,1,0.6650,-0.3325,0.3325*
1,1,0.6650,0.3325,0.3325*
%
%ADD63ROUNDEDRECTD63*%
%ADD68R,0.8532X1.2032*%
%ADD69R,1.0032X1.0032*%
%ADD70R,1.6032X1.3532*%
G04:AMPARAMS|DCode=71|XSize=0.7032mm|YSize=0.7032mm|CornerRadius=0.2266mm|HoleSize=0mm|Usage=FLASHONLY|Rotation=180.000|XOffset=0mm|YOffset=0mm|HoleType=Round|Shape=RoundedRectangle|*
%AMROUNDEDRECTD71*
21,1,0.7032,0.2500,0,0,180.0*
21,1,0.2500,0.7032,0,0,180.0*
1,1,0.4532,-0.1250,0.1250*
1,1,0.4532,0.1250,0.1250*
1,1,0.4532,0.1250,-0.1250*
1,1,0.4532,-0.1250,-0.1250*
%
%ADD71ROUNDEDRECTD71*%
G36*
X-157239Y178560D02*
X-157177Y178555D01*
X-157114Y178547D01*
X-157052Y178536D01*
X-156991Y178521D01*
X-156931Y178503D01*
X-156872Y178482D01*
X-156814Y178458D01*
X-156757Y178431D01*
X-156702Y178401D01*
X-156648Y178368D01*
X-156597Y178333D01*
X-156547Y178295D01*
X-156499Y178254D01*
X-156454Y178211D01*
X-156410Y178165D01*
X-156369Y178117D01*
X-156331Y178067D01*
X-156296Y178016D01*
X-156263Y177962D01*
X-156233Y177907D01*
X-156206Y177850D01*
X-156182Y177792D01*
X-156161Y177733D01*
X-156143Y177673D01*
X-156128Y177612D01*
X-156117Y177550D01*
X-156109Y177487D01*
X-156104Y177425D01*
X-156102Y177362D01*
Y170062D01*
X-150052D01*
X-149989Y170060D01*
X-149927Y170055D01*
X-149864Y170047D01*
X-149803Y170036D01*
X-149741Y170021D01*
X-149681Y170003D01*
X-149622Y169982D01*
X-149564Y169958D01*
X-149507Y169931D01*
X-149452Y169901D01*
X-149398Y169868D01*
X-149347Y169833D01*
X-149297Y169795D01*
X-149249Y169754D01*
X-149204Y169711D01*
X-149160Y169665D01*
X-149119Y169617D01*
X-149081Y169567D01*
X-149046Y169516D01*
X-149013Y169462D01*
X-148983Y169407D01*
X-148956Y169350D01*
X-148932Y169292D01*
X-148911Y169233D01*
X-148893Y169173D01*
X-148878Y169111D01*
X-148867Y169050D01*
X-148859Y168987D01*
X-148854Y168925D01*
X-148852Y168862D01*
Y137862D01*
X-148854Y137799D01*
X-148859Y137737D01*
X-148867Y137674D01*
X-148878Y137612D01*
X-148893Y137551D01*
X-148911Y137491D01*
X-148932Y137432D01*
X-148956Y137374D01*
X-148983Y137317D01*
X-149013Y137262D01*
X-149046Y137208D01*
X-149081Y137157D01*
X-149119Y137107D01*
X-149160Y137059D01*
X-149204Y137014D01*
X-149249Y136970D01*
X-149297Y136929D01*
X-149347Y136891D01*
X-149398Y136856D01*
X-149452Y136823D01*
X-149507Y136793D01*
X-149564Y136766D01*
X-149622Y136742D01*
X-149681Y136721D01*
X-149741Y136703D01*
X-149803Y136688D01*
X-149864Y136677D01*
X-149927Y136669D01*
X-149989Y136664D01*
X-150052Y136662D01*
X-156102D01*
Y129362D01*
X-156104Y129299D01*
X-156109Y129237D01*
X-156117Y129174D01*
X-156128Y129113D01*
X-156143Y129051D01*
X-156161Y128991D01*
X-156182Y128932D01*
X-156206Y128874D01*
X-156233Y128817D01*
X-156263Y128762D01*
X-156296Y128708D01*
X-156331Y128657D01*
X-156369Y128607D01*
X-156410Y128559D01*
X-156454Y128513D01*
X-156499Y128470D01*
X-156547Y128429D01*
X-156597Y128391D01*
X-156648Y128356D01*
X-156702Y128323D01*
X-156757Y128293D01*
X-156814Y128266D01*
X-156872Y128242D01*
X-156931Y128221D01*
X-156991Y128203D01*
X-157052Y128188D01*
X-157114Y128177D01*
X-157177Y128169D01*
X-157239Y128164D01*
X-157302Y128162D01*
X-158802D01*
X-158865Y128164D01*
X-158927Y128169D01*
X-158990Y128177D01*
X-159052Y128188D01*
X-159113Y128203D01*
X-159173Y128221D01*
X-159232Y128242D01*
X-159290Y128266D01*
X-159347Y128293D01*
X-159402Y128323D01*
X-159456Y128356D01*
X-159507Y128391D01*
X-159557Y128429D01*
X-159605Y128470D01*
X-159650Y128513D01*
X-159694Y128559D01*
X-159735Y128607D01*
X-159773Y128657D01*
X-159808Y128708D01*
X-159841Y128762D01*
X-159871Y128817D01*
X-159898Y128874D01*
X-159922Y128932D01*
X-159943Y128991D01*
X-159961Y129051D01*
X-159976Y129113D01*
X-159987Y129174D01*
X-159995Y129237D01*
X-160000Y129299D01*
X-160002Y129362D01*
Y131662D01*
X-161102D01*
Y129362D01*
X-161104Y129299D01*
X-161109Y129237D01*
X-161117Y129174D01*
X-161128Y129113D01*
X-161143Y129051D01*
X-161161Y128991D01*
X-161182Y128932D01*
X-161206Y128874D01*
X-161233Y128817D01*
X-161263Y128762D01*
X-161296Y128708D01*
X-161331Y128657D01*
X-161369Y128607D01*
X-161410Y128559D01*
X-161453Y128513D01*
X-161499Y128470D01*
X-161547Y128429D01*
X-161597Y128391D01*
X-161648Y128356D01*
X-161702Y128323D01*
X-161757Y128293D01*
X-161814Y128266D01*
X-161872Y128242D01*
X-161931Y128221D01*
X-161991Y128203D01*
X-162052Y128188D01*
X-162114Y128177D01*
X-162177Y128169D01*
X-162239Y128164D01*
X-162302Y128162D01*
X-163802D01*
X-163865Y128164D01*
X-163927Y128169D01*
X-163990Y128177D01*
X-164051Y128188D01*
X-164113Y128203D01*
X-164173Y128221D01*
X-164232Y128242D01*
X-164290Y128266D01*
X-164347Y128293D01*
X-164402Y128323D01*
X-164456Y128356D01*
X-164507Y128391D01*
X-164557Y128429D01*
X-164605Y128470D01*
X-164650Y128513D01*
X-164694Y128559D01*
X-164735Y128607D01*
X-164773Y128657D01*
X-164808Y128708D01*
X-164841Y128762D01*
X-164871Y128817D01*
X-164898Y128874D01*
X-164922Y128932D01*
X-164943Y128991D01*
X-164961Y129051D01*
X-164976Y129113D01*
X-164987Y129174D01*
X-164995Y129237D01*
X-165000Y129299D01*
X-165002Y129362D01*
Y136662D01*
X-171052D01*
X-171115Y136664D01*
X-171177Y136669D01*
X-171240Y136677D01*
X-171301Y136688D01*
X-171363Y136703D01*
X-171423Y136721D01*
X-171482Y136742D01*
X-171540Y136766D01*
X-171597Y136793D01*
X-171652Y136823D01*
X-171706Y136856D01*
X-171757Y136891D01*
X-171807Y136929D01*
X-171855Y136970D01*
X-171901Y137014D01*
X-171944Y137059D01*
X-171985Y137107D01*
X-172023Y137157D01*
X-172058Y137208D01*
X-172091Y137262D01*
X-172121Y137317D01*
X-172148Y137374D01*
X-172172Y137432D01*
X-172193Y137491D01*
X-172211Y137551D01*
X-172226Y137612D01*
X-172237Y137674D01*
X-172245Y137737D01*
X-172250Y137799D01*
X-172252Y137862D01*
Y168862D01*
X-172250Y168925D01*
X-172245Y168987D01*
X-172237Y169050D01*
X-172226Y169111D01*
X-172211Y169173D01*
X-172193Y169233D01*
X-172172Y169292D01*
X-172148Y169350D01*
X-172121Y169407D01*
X-172091Y169462D01*
X-172058Y169516D01*
X-172023Y169567D01*
X-171985Y169617D01*
X-171944Y169665D01*
X-171901Y169711D01*
X-171855Y169754D01*
X-171807Y169795D01*
X-171757Y169833D01*
X-171706Y169868D01*
X-171652Y169901D01*
X-171597Y169931D01*
X-171540Y169958D01*
X-171482Y169982D01*
X-171423Y170003D01*
X-171363Y170021D01*
X-171301Y170036D01*
X-171240Y170047D01*
X-171177Y170055D01*
X-171115Y170060D01*
X-171052Y170062D01*
X-165002D01*
Y177362D01*
X-165000Y177425D01*
X-164995Y177487D01*
X-164987Y177550D01*
X-164976Y177612D01*
X-164961Y177673D01*
X-164943Y177733D01*
X-164922Y177792D01*
X-164898Y177850D01*
X-164871Y177907D01*
X-164841Y177962D01*
X-164808Y178016D01*
X-164773Y178067D01*
X-164735Y178117D01*
X-164694Y178165D01*
X-164650Y178211D01*
X-164605Y178254D01*
X-164557Y178295D01*
X-164507Y178333D01*
X-164456Y178368D01*
X-164402Y178401D01*
X-164347Y178431D01*
X-164290Y178458D01*
X-164232Y178482D01*
X-164173Y178503D01*
X-164113Y178521D01*
X-164051Y178536D01*
X-163990Y178547D01*
X-163927Y178555D01*
X-163865Y178560D01*
X-163802Y178562D01*
X-162302D01*
X-162239Y178560D01*
X-162177Y178555D01*
X-162114Y178547D01*
X-162052Y178536D01*
X-161991Y178521D01*
X-161931Y178503D01*
X-161872Y178482D01*
X-161814Y178458D01*
X-161757Y178431D01*
X-161702Y178401D01*
X-161648Y178368D01*
X-161597Y178333D01*
X-161547Y178295D01*
X-161499Y178254D01*
X-161453Y178211D01*
X-161410Y178165D01*
X-161369Y178117D01*
X-161331Y178067D01*
X-161296Y178016D01*
X-161263Y177962D01*
X-161233Y177907D01*
X-161206Y177850D01*
X-161182Y177792D01*
X-161161Y177733D01*
X-161143Y177673D01*
X-161128Y177612D01*
X-161117Y177550D01*
X-161109Y177487D01*
X-161104Y177425D01*
X-161102Y177362D01*
Y175062D01*
X-160002D01*
Y177362D01*
X-160000Y177425D01*
X-159995Y177487D01*
X-159987Y177550D01*
X-159976Y177612D01*
X-159961Y177673D01*
X-159943Y177733D01*
X-159922Y177792D01*
X-159898Y177850D01*
X-159871Y177907D01*
X-159841Y177962D01*
X-159808Y178016D01*
X-159773Y178067D01*
X-159735Y178117D01*
X-159694Y178165D01*
X-159650Y178211D01*
X-159605Y178254D01*
X-159557Y178295D01*
X-159507Y178333D01*
X-159456Y178368D01*
X-159402Y178401D01*
X-159347Y178431D01*
X-159290Y178458D01*
X-159232Y178482D01*
X-159173Y178503D01*
X-159113Y178521D01*
X-159052Y178536D01*
X-158990Y178547D01*
X-158927Y178555D01*
X-158865Y178560D01*
X-158802Y178562D01*
X-157302D01*
X-157239Y178560D01*
D02*
G37*
G36*
X-152239D02*
X-152177Y178555D01*
X-152114Y178547D01*
X-152052Y178536D01*
X-151991Y178521D01*
X-151931Y178503D01*
X-151872Y178482D01*
X-151814Y178458D01*
X-151757Y178431D01*
X-151702Y178401D01*
X-151648Y178368D01*
X-151597Y178333D01*
X-151547Y178295D01*
X-151499Y178254D01*
X-151454Y178211D01*
X-151410Y178165D01*
X-151369Y178117D01*
X-151331Y178067D01*
X-151296Y178016D01*
X-151263Y177962D01*
X-151233Y177907D01*
X-151206Y177850D01*
X-151182Y177792D01*
X-151161Y177733D01*
X-151143Y177673D01*
X-151128Y177612D01*
X-151117Y177550D01*
X-151109Y177487D01*
X-151104Y177425D01*
X-151102Y177362D01*
Y172362D01*
X-151104Y172299D01*
X-151109Y172237D01*
X-151117Y172174D01*
X-151128Y172113D01*
X-151143Y172051D01*
X-151161Y171991D01*
X-151182Y171932D01*
X-151206Y171874D01*
X-151233Y171817D01*
X-151263Y171762D01*
X-151296Y171708D01*
X-151331Y171657D01*
X-151369Y171607D01*
X-151410Y171559D01*
X-151454Y171514D01*
X-151499Y171470D01*
X-151547Y171429D01*
X-151597Y171391D01*
X-151648Y171356D01*
X-151702Y171323D01*
X-151757Y171293D01*
X-151814Y171266D01*
X-151872Y171242D01*
X-151931Y171221D01*
X-151991Y171203D01*
X-152052Y171188D01*
X-152114Y171177D01*
X-152177Y171169D01*
X-152239Y171164D01*
X-152302Y171162D01*
X-153802D01*
X-153865Y171164D01*
X-153927Y171169D01*
X-153990Y171177D01*
X-154052Y171188D01*
X-154113Y171203D01*
X-154173Y171221D01*
X-154232Y171242D01*
X-154290Y171266D01*
X-154347Y171293D01*
X-154402Y171323D01*
X-154456Y171356D01*
X-154507Y171391D01*
X-154557Y171429D01*
X-154605Y171470D01*
X-154650Y171514D01*
X-154694Y171559D01*
X-154735Y171607D01*
X-154773Y171657D01*
X-154808Y171708D01*
X-154841Y171762D01*
X-154871Y171817D01*
X-154898Y171874D01*
X-154922Y171932D01*
X-154943Y171991D01*
X-154961Y172051D01*
X-154976Y172113D01*
X-154987Y172174D01*
X-154995Y172237D01*
X-155000Y172299D01*
X-155002Y172362D01*
Y177362D01*
X-155000Y177425D01*
X-154995Y177487D01*
X-154987Y177550D01*
X-154976Y177612D01*
X-154961Y177673D01*
X-154943Y177733D01*
X-154922Y177792D01*
X-154898Y177850D01*
X-154871Y177907D01*
X-154841Y177962D01*
X-154808Y178016D01*
X-154773Y178067D01*
X-154735Y178117D01*
X-154694Y178165D01*
X-154650Y178211D01*
X-154605Y178254D01*
X-154557Y178295D01*
X-154507Y178333D01*
X-154456Y178368D01*
X-154402Y178401D01*
X-154347Y178431D01*
X-154290Y178458D01*
X-154232Y178482D01*
X-154173Y178503D01*
X-154113Y178521D01*
X-154052Y178536D01*
X-153990Y178547D01*
X-153927Y178555D01*
X-153865Y178560D01*
X-153802Y178562D01*
X-152302D01*
X-152239Y178560D01*
D02*
G37*
G36*
X-167239D02*
X-167177Y178555D01*
X-167114Y178547D01*
X-167052Y178536D01*
X-166991Y178521D01*
X-166931Y178503D01*
X-166872Y178482D01*
X-166814Y178458D01*
X-166757Y178431D01*
X-166702Y178401D01*
X-166648Y178368D01*
X-166597Y178333D01*
X-166547Y178295D01*
X-166499Y178254D01*
X-166453Y178211D01*
X-166410Y178165D01*
X-166369Y178117D01*
X-166331Y178067D01*
X-166296Y178016D01*
X-166263Y177962D01*
X-166233Y177907D01*
X-166206Y177850D01*
X-166182Y177792D01*
X-166161Y177733D01*
X-166143Y177673D01*
X-166128Y177612D01*
X-166117Y177550D01*
X-166109Y177487D01*
X-166104Y177425D01*
X-166102Y177362D01*
Y172362D01*
X-166104Y172299D01*
X-166109Y172237D01*
X-166117Y172174D01*
X-166128Y172113D01*
X-166143Y172051D01*
X-166161Y171991D01*
X-166182Y171932D01*
X-166206Y171874D01*
X-166233Y171817D01*
X-166263Y171762D01*
X-166296Y171708D01*
X-166331Y171657D01*
X-166369Y171607D01*
X-166410Y171559D01*
X-166453Y171514D01*
X-166499Y171470D01*
X-166547Y171429D01*
X-166597Y171391D01*
X-166648Y171356D01*
X-166702Y171323D01*
X-166757Y171293D01*
X-166814Y171266D01*
X-166872Y171242D01*
X-166931Y171221D01*
X-166991Y171203D01*
X-167052Y171188D01*
X-167114Y171177D01*
X-167177Y171169D01*
X-167239Y171164D01*
X-167302Y171162D01*
X-168802D01*
X-168865Y171164D01*
X-168927Y171169D01*
X-168990Y171177D01*
X-169051Y171188D01*
X-169113Y171203D01*
X-169173Y171221D01*
X-169232Y171242D01*
X-169290Y171266D01*
X-169347Y171293D01*
X-169402Y171323D01*
X-169456Y171356D01*
X-169507Y171391D01*
X-169557Y171429D01*
X-169605Y171470D01*
X-169650Y171514D01*
X-169694Y171559D01*
X-169735Y171607D01*
X-169773Y171657D01*
X-169808Y171708D01*
X-169841Y171762D01*
X-169871Y171817D01*
X-169898Y171874D01*
X-169922Y171932D01*
X-169943Y171991D01*
X-169961Y172051D01*
X-169976Y172113D01*
X-169987Y172174D01*
X-169995Y172237D01*
X-170000Y172299D01*
X-170002Y172362D01*
Y177362D01*
X-170000Y177425D01*
X-169995Y177487D01*
X-169987Y177550D01*
X-169976Y177612D01*
X-169961Y177673D01*
X-169943Y177733D01*
X-169922Y177792D01*
X-169898Y177850D01*
X-169871Y177907D01*
X-169841Y177962D01*
X-169808Y178016D01*
X-169773Y178067D01*
X-169735Y178117D01*
X-169694Y178165D01*
X-169650Y178211D01*
X-169605Y178254D01*
X-169557Y178295D01*
X-169507Y178333D01*
X-169456Y178368D01*
X-169402Y178401D01*
X-169347Y178431D01*
X-169290Y178458D01*
X-169232Y178482D01*
X-169173Y178503D01*
X-169113Y178521D01*
X-169051Y178536D01*
X-168990Y178547D01*
X-168927Y178555D01*
X-168865Y178560D01*
X-168802Y178562D01*
X-167302D01*
X-167239Y178560D01*
D02*
G37*
G36*
X-141489Y172810D02*
X-141427Y172805D01*
X-141364Y172797D01*
X-141302Y172786D01*
X-141241Y172771D01*
X-141181Y172753D01*
X-141122Y172732D01*
X-141064Y172708D01*
X-141007Y172681D01*
X-140952Y172651D01*
X-140898Y172618D01*
X-140847Y172583D01*
X-140797Y172545D01*
X-140749Y172504D01*
X-140703Y172460D01*
X-140660Y172415D01*
X-140619Y172367D01*
X-140581Y172317D01*
X-140546Y172266D01*
X-140513Y172212D01*
X-140483Y172157D01*
X-140456Y172100D01*
X-140432Y172042D01*
X-140411Y171983D01*
X-140393Y171923D01*
X-140378Y171861D01*
X-140367Y171800D01*
X-140359Y171737D01*
X-140354Y171675D01*
X-140352Y171612D01*
Y170112D01*
X-140354Y170049D01*
X-140359Y169987D01*
X-140367Y169924D01*
X-140378Y169862D01*
X-140393Y169801D01*
X-140411Y169741D01*
X-140432Y169682D01*
X-140456Y169624D01*
X-140483Y169567D01*
X-140513Y169512D01*
X-140546Y169458D01*
X-140581Y169407D01*
X-140619Y169357D01*
X-140660Y169309D01*
X-140703Y169263D01*
X-140749Y169220D01*
X-140797Y169179D01*
X-140847Y169141D01*
X-140898Y169106D01*
X-140952Y169073D01*
X-141007Y169043D01*
X-141064Y169016D01*
X-141122Y168992D01*
X-141181Y168971D01*
X-141241Y168953D01*
X-141302Y168938D01*
X-141364Y168927D01*
X-141427Y168919D01*
X-141489Y168914D01*
X-141552Y168912D01*
X-146552D01*
X-146615Y168914D01*
X-146677Y168919D01*
X-146740Y168927D01*
X-146802Y168938D01*
X-146863Y168953D01*
X-146923Y168971D01*
X-146982Y168992D01*
X-147040Y169016D01*
X-147097Y169043D01*
X-147152Y169073D01*
X-147206Y169106D01*
X-147257Y169141D01*
X-147307Y169179D01*
X-147355Y169220D01*
X-147401Y169263D01*
X-147444Y169309D01*
X-147485Y169357D01*
X-147523Y169407D01*
X-147558Y169458D01*
X-147591Y169512D01*
X-147621Y169567D01*
X-147648Y169624D01*
X-147672Y169682D01*
X-147693Y169741D01*
X-147711Y169801D01*
X-147726Y169862D01*
X-147737Y169924D01*
X-147745Y169987D01*
X-147750Y170049D01*
X-147752Y170112D01*
Y171612D01*
X-147750Y171675D01*
X-147745Y171737D01*
X-147737Y171800D01*
X-147726Y171861D01*
X-147711Y171923D01*
X-147693Y171983D01*
X-147672Y172042D01*
X-147648Y172100D01*
X-147621Y172157D01*
X-147591Y172212D01*
X-147558Y172266D01*
X-147523Y172317D01*
X-147485Y172367D01*
X-147444Y172415D01*
X-147401Y172460D01*
X-147355Y172504D01*
X-147307Y172545D01*
X-147257Y172583D01*
X-147206Y172618D01*
X-147152Y172651D01*
X-147097Y172681D01*
X-147040Y172708D01*
X-146982Y172732D01*
X-146923Y172753D01*
X-146863Y172771D01*
X-146802Y172786D01*
X-146740Y172797D01*
X-146677Y172805D01*
X-146615Y172810D01*
X-146552Y172812D01*
X-141552D01*
X-141489Y172810D01*
D02*
G37*
G36*
X-174489D02*
X-174427Y172805D01*
X-174364Y172797D01*
X-174303Y172786D01*
X-174241Y172771D01*
X-174181Y172753D01*
X-174122Y172732D01*
X-174064Y172708D01*
X-174007Y172681D01*
X-173952Y172651D01*
X-173898Y172618D01*
X-173847Y172583D01*
X-173797Y172545D01*
X-173749Y172504D01*
X-173703Y172460D01*
X-173660Y172415D01*
X-173619Y172367D01*
X-173581Y172317D01*
X-173546Y172266D01*
X-173513Y172212D01*
X-173483Y172157D01*
X-173456Y172100D01*
X-173432Y172042D01*
X-173411Y171983D01*
X-173393Y171923D01*
X-173378Y171861D01*
X-173367Y171800D01*
X-173359Y171737D01*
X-173354Y171675D01*
X-173352Y171612D01*
Y170112D01*
X-173354Y170049D01*
X-173359Y169987D01*
X-173367Y169924D01*
X-173378Y169862D01*
X-173393Y169801D01*
X-173411Y169741D01*
X-173432Y169682D01*
X-173456Y169624D01*
X-173483Y169567D01*
X-173513Y169512D01*
X-173546Y169458D01*
X-173581Y169407D01*
X-173619Y169357D01*
X-173660Y169309D01*
X-173703Y169263D01*
X-173749Y169220D01*
X-173797Y169179D01*
X-173847Y169141D01*
X-173898Y169106D01*
X-173952Y169073D01*
X-174007Y169043D01*
X-174064Y169016D01*
X-174122Y168992D01*
X-174181Y168971D01*
X-174241Y168953D01*
X-174303Y168938D01*
X-174364Y168927D01*
X-174427Y168919D01*
X-174489Y168914D01*
X-174552Y168912D01*
X-179552D01*
X-179615Y168914D01*
X-179677Y168919D01*
X-179740Y168927D01*
X-179802Y168938D01*
X-179863Y168953D01*
X-179923Y168971D01*
X-179982Y168992D01*
X-180040Y169016D01*
X-180097Y169043D01*
X-180152Y169073D01*
X-180206Y169106D01*
X-180257Y169141D01*
X-180307Y169179D01*
X-180355Y169220D01*
X-180401Y169263D01*
X-180444Y169309D01*
X-180485Y169357D01*
X-180523Y169407D01*
X-180558Y169458D01*
X-180591Y169512D01*
X-180621Y169567D01*
X-180648Y169624D01*
X-180672Y169682D01*
X-180693Y169741D01*
X-180711Y169801D01*
X-180726Y169862D01*
X-180737Y169924D01*
X-180745Y169987D01*
X-180750Y170049D01*
X-180752Y170112D01*
Y171612D01*
X-180750Y171675D01*
X-180745Y171737D01*
X-180737Y171800D01*
X-180726Y171861D01*
X-180711Y171923D01*
X-180693Y171983D01*
X-180672Y172042D01*
X-180648Y172100D01*
X-180621Y172157D01*
X-180591Y172212D01*
X-180558Y172266D01*
X-180523Y172317D01*
X-180485Y172367D01*
X-180444Y172415D01*
X-180401Y172460D01*
X-180355Y172504D01*
X-180307Y172545D01*
X-180257Y172583D01*
X-180206Y172618D01*
X-180152Y172651D01*
X-180097Y172681D01*
X-180040Y172708D01*
X-179982Y172732D01*
X-179923Y172753D01*
X-179863Y172771D01*
X-179802Y172786D01*
X-179740Y172797D01*
X-179677Y172805D01*
X-179615Y172810D01*
X-179552Y172812D01*
X-174552D01*
X-174489Y172810D01*
D02*
G37*
G36*
X-141489Y167810D02*
X-141427Y167805D01*
X-141364Y167797D01*
X-141302Y167786D01*
X-141241Y167771D01*
X-141181Y167753D01*
X-141122Y167732D01*
X-141064Y167708D01*
X-141007Y167681D01*
X-140952Y167651D01*
X-140898Y167618D01*
X-140847Y167583D01*
X-140797Y167545D01*
X-140749Y167504D01*
X-140703Y167460D01*
X-140660Y167415D01*
X-140619Y167367D01*
X-140581Y167317D01*
X-140546Y167266D01*
X-140513Y167212D01*
X-140483Y167157D01*
X-140456Y167100D01*
X-140432Y167042D01*
X-140411Y166983D01*
X-140393Y166923D01*
X-140378Y166861D01*
X-140367Y166800D01*
X-140359Y166737D01*
X-140354Y166675D01*
X-140352Y166612D01*
Y165112D01*
X-140354Y165049D01*
X-140359Y164987D01*
X-140367Y164924D01*
X-140378Y164862D01*
X-140393Y164801D01*
X-140411Y164741D01*
X-140432Y164682D01*
X-140456Y164624D01*
X-140483Y164567D01*
X-140513Y164512D01*
X-140546Y164458D01*
X-140581Y164407D01*
X-140619Y164357D01*
X-140660Y164309D01*
X-140703Y164263D01*
X-140749Y164220D01*
X-140797Y164179D01*
X-140847Y164141D01*
X-140898Y164106D01*
X-140952Y164073D01*
X-141007Y164043D01*
X-141064Y164016D01*
X-141122Y163992D01*
X-141181Y163971D01*
X-141241Y163953D01*
X-141302Y163938D01*
X-141364Y163927D01*
X-141427Y163919D01*
X-141489Y163914D01*
X-141552Y163912D01*
X-146552D01*
X-146615Y163914D01*
X-146677Y163919D01*
X-146740Y163927D01*
X-146802Y163938D01*
X-146863Y163953D01*
X-146923Y163971D01*
X-146982Y163992D01*
X-147040Y164016D01*
X-147097Y164043D01*
X-147152Y164073D01*
X-147206Y164106D01*
X-147257Y164141D01*
X-147307Y164179D01*
X-147355Y164220D01*
X-147401Y164263D01*
X-147444Y164309D01*
X-147485Y164357D01*
X-147523Y164407D01*
X-147558Y164458D01*
X-147591Y164512D01*
X-147621Y164567D01*
X-147648Y164624D01*
X-147672Y164682D01*
X-147693Y164741D01*
X-147711Y164801D01*
X-147726Y164862D01*
X-147737Y164924D01*
X-147745Y164987D01*
X-147750Y165049D01*
X-147752Y165112D01*
Y166612D01*
X-147750Y166675D01*
X-147745Y166737D01*
X-147737Y166800D01*
X-147726Y166861D01*
X-147711Y166923D01*
X-147693Y166983D01*
X-147672Y167042D01*
X-147648Y167100D01*
X-147621Y167157D01*
X-147591Y167212D01*
X-147558Y167266D01*
X-147523Y167317D01*
X-147485Y167367D01*
X-147444Y167415D01*
X-147401Y167460D01*
X-147355Y167504D01*
X-147307Y167545D01*
X-147257Y167583D01*
X-147206Y167618D01*
X-147152Y167651D01*
X-147097Y167681D01*
X-147040Y167708D01*
X-146982Y167732D01*
X-146923Y167753D01*
X-146863Y167771D01*
X-146802Y167786D01*
X-146740Y167797D01*
X-146677Y167805D01*
X-146615Y167810D01*
X-146552Y167812D01*
X-141552D01*
X-141489Y167810D01*
D02*
G37*
G36*
X-174489D02*
X-174427Y167805D01*
X-174364Y167797D01*
X-174303Y167786D01*
X-174241Y167771D01*
X-174181Y167753D01*
X-174122Y167732D01*
X-174064Y167708D01*
X-174007Y167681D01*
X-173952Y167651D01*
X-173898Y167618D01*
X-173847Y167583D01*
X-173797Y167545D01*
X-173749Y167504D01*
X-173703Y167460D01*
X-173660Y167415D01*
X-173619Y167367D01*
X-173581Y167317D01*
X-173546Y167266D01*
X-173513Y167212D01*
X-173483Y167157D01*
X-173456Y167100D01*
X-173432Y167042D01*
X-173411Y166983D01*
X-173393Y166923D01*
X-173378Y166861D01*
X-173367Y166800D01*
X-173359Y166737D01*
X-173354Y166675D01*
X-173352Y166612D01*
Y165112D01*
X-173354Y165049D01*
X-173359Y164987D01*
X-173367Y164924D01*
X-173378Y164862D01*
X-173393Y164801D01*
X-173411Y164741D01*
X-173432Y164682D01*
X-173456Y164624D01*
X-173483Y164567D01*
X-173513Y164512D01*
X-173546Y164458D01*
X-173581Y164407D01*
X-173619Y164357D01*
X-173660Y164309D01*
X-173703Y164263D01*
X-173749Y164220D01*
X-173797Y164179D01*
X-173847Y164141D01*
X-173898Y164106D01*
X-173952Y164073D01*
X-174007Y164043D01*
X-174064Y164016D01*
X-174122Y163992D01*
X-174181Y163971D01*
X-174241Y163953D01*
X-174303Y163938D01*
X-174364Y163927D01*
X-174427Y163919D01*
X-174489Y163914D01*
X-174552Y163912D01*
X-179552D01*
X-179615Y163914D01*
X-179677Y163919D01*
X-179740Y163927D01*
X-179802Y163938D01*
X-179863Y163953D01*
X-179923Y163971D01*
X-179982Y163992D01*
X-180040Y164016D01*
X-180097Y164043D01*
X-180152Y164073D01*
X-180206Y164106D01*
X-180257Y164141D01*
X-180307Y164179D01*
X-180355Y164220D01*
X-180401Y164263D01*
X-180444Y164309D01*
X-180485Y164357D01*
X-180523Y164407D01*
X-180558Y164458D01*
X-180591Y164512D01*
X-180621Y164567D01*
X-180648Y164624D01*
X-180672Y164682D01*
X-180693Y164741D01*
X-180711Y164801D01*
X-180726Y164862D01*
X-180737Y164924D01*
X-180745Y164987D01*
X-180750Y165049D01*
X-180752Y165112D01*
Y166612D01*
X-180750Y166675D01*
X-180745Y166737D01*
X-180737Y166800D01*
X-180726Y166861D01*
X-180711Y166923D01*
X-180693Y166983D01*
X-180672Y167042D01*
X-180648Y167100D01*
X-180621Y167157D01*
X-180591Y167212D01*
X-180558Y167266D01*
X-180523Y167317D01*
X-180485Y167367D01*
X-180444Y167415D01*
X-180401Y167460D01*
X-180355Y167504D01*
X-180307Y167545D01*
X-180257Y167583D01*
X-180206Y167618D01*
X-180152Y167651D01*
X-180097Y167681D01*
X-180040Y167708D01*
X-179982Y167732D01*
X-179923Y167753D01*
X-179863Y167771D01*
X-179802Y167786D01*
X-179740Y167797D01*
X-179677Y167805D01*
X-179615Y167810D01*
X-179552Y167812D01*
X-174552D01*
X-174489Y167810D01*
D02*
G37*
G36*
X-141489Y162810D02*
X-141427Y162805D01*
X-141364Y162797D01*
X-141302Y162786D01*
X-141241Y162771D01*
X-141181Y162753D01*
X-141122Y162732D01*
X-141064Y162708D01*
X-141007Y162681D01*
X-140952Y162651D01*
X-140898Y162618D01*
X-140847Y162583D01*
X-140797Y162545D01*
X-140749Y162504D01*
X-140703Y162460D01*
X-140660Y162415D01*
X-140619Y162367D01*
X-140581Y162317D01*
X-140546Y162266D01*
X-140513Y162212D01*
X-140483Y162157D01*
X-140456Y162100D01*
X-140432Y162042D01*
X-140411Y161983D01*
X-140393Y161923D01*
X-140378Y161861D01*
X-140367Y161800D01*
X-140359Y161737D01*
X-140354Y161675D01*
X-140352Y161612D01*
Y160112D01*
X-140354Y160049D01*
X-140359Y159987D01*
X-140367Y159924D01*
X-140378Y159862D01*
X-140393Y159801D01*
X-140411Y159741D01*
X-140432Y159682D01*
X-140456Y159624D01*
X-140483Y159567D01*
X-140513Y159512D01*
X-140546Y159458D01*
X-140581Y159407D01*
X-140619Y159357D01*
X-140660Y159309D01*
X-140703Y159263D01*
X-140749Y159220D01*
X-140797Y159179D01*
X-140847Y159141D01*
X-140898Y159106D01*
X-140952Y159073D01*
X-141007Y159043D01*
X-141064Y159016D01*
X-141122Y158992D01*
X-141181Y158971D01*
X-141241Y158953D01*
X-141302Y158938D01*
X-141364Y158927D01*
X-141427Y158919D01*
X-141489Y158914D01*
X-141552Y158912D01*
X-146552D01*
X-146615Y158914D01*
X-146677Y158919D01*
X-146740Y158927D01*
X-146802Y158938D01*
X-146863Y158953D01*
X-146923Y158971D01*
X-146982Y158992D01*
X-147040Y159016D01*
X-147097Y159043D01*
X-147152Y159073D01*
X-147206Y159106D01*
X-147257Y159141D01*
X-147307Y159179D01*
X-147355Y159220D01*
X-147401Y159263D01*
X-147444Y159309D01*
X-147485Y159357D01*
X-147523Y159407D01*
X-147558Y159458D01*
X-147591Y159512D01*
X-147621Y159567D01*
X-147648Y159624D01*
X-147672Y159682D01*
X-147693Y159741D01*
X-147711Y159801D01*
X-147726Y159862D01*
X-147737Y159924D01*
X-147745Y159987D01*
X-147750Y160049D01*
X-147752Y160112D01*
Y161612D01*
X-147750Y161675D01*
X-147745Y161737D01*
X-147737Y161800D01*
X-147726Y161861D01*
X-147711Y161923D01*
X-147693Y161983D01*
X-147672Y162042D01*
X-147648Y162100D01*
X-147621Y162157D01*
X-147591Y162212D01*
X-147558Y162266D01*
X-147523Y162317D01*
X-147485Y162367D01*
X-147444Y162415D01*
X-147401Y162460D01*
X-147355Y162504D01*
X-147307Y162545D01*
X-147257Y162583D01*
X-147206Y162618D01*
X-147152Y162651D01*
X-147097Y162681D01*
X-147040Y162708D01*
X-146982Y162732D01*
X-146923Y162753D01*
X-146863Y162771D01*
X-146802Y162786D01*
X-146740Y162797D01*
X-146677Y162805D01*
X-146615Y162810D01*
X-146552Y162812D01*
X-141552D01*
X-141489Y162810D01*
D02*
G37*
G36*
X-174489D02*
X-174427Y162805D01*
X-174364Y162797D01*
X-174303Y162786D01*
X-174241Y162771D01*
X-174181Y162753D01*
X-174122Y162732D01*
X-174064Y162708D01*
X-174007Y162681D01*
X-173952Y162651D01*
X-173898Y162618D01*
X-173847Y162583D01*
X-173797Y162545D01*
X-173749Y162504D01*
X-173703Y162460D01*
X-173660Y162415D01*
X-173619Y162367D01*
X-173581Y162317D01*
X-173546Y162266D01*
X-173513Y162212D01*
X-173483Y162157D01*
X-173456Y162100D01*
X-173432Y162042D01*
X-173411Y161983D01*
X-173393Y161923D01*
X-173378Y161861D01*
X-173367Y161800D01*
X-173359Y161737D01*
X-173354Y161675D01*
X-173352Y161612D01*
Y160112D01*
X-173354Y160049D01*
X-173359Y159987D01*
X-173367Y159924D01*
X-173378Y159862D01*
X-173393Y159801D01*
X-173411Y159741D01*
X-173432Y159682D01*
X-173456Y159624D01*
X-173483Y159567D01*
X-173513Y159512D01*
X-173546Y159458D01*
X-173581Y159407D01*
X-173619Y159357D01*
X-173660Y159309D01*
X-173703Y159263D01*
X-173749Y159220D01*
X-173797Y159179D01*
X-173847Y159141D01*
X-173898Y159106D01*
X-173952Y159073D01*
X-174007Y159043D01*
X-174064Y159016D01*
X-174122Y158992D01*
X-174181Y158971D01*
X-174241Y158953D01*
X-174303Y158938D01*
X-174364Y158927D01*
X-174427Y158919D01*
X-174489Y158914D01*
X-174552Y158912D01*
X-179552D01*
X-179615Y158914D01*
X-179677Y158919D01*
X-179740Y158927D01*
X-179802Y158938D01*
X-179863Y158953D01*
X-179923Y158971D01*
X-179982Y158992D01*
X-180040Y159016D01*
X-180097Y159043D01*
X-180152Y159073D01*
X-180206Y159106D01*
X-180257Y159141D01*
X-180307Y159179D01*
X-180355Y159220D01*
X-180401Y159263D01*
X-180444Y159309D01*
X-180485Y159357D01*
X-180523Y159407D01*
X-180558Y159458D01*
X-180591Y159512D01*
X-180621Y159567D01*
X-180648Y159624D01*
X-180672Y159682D01*
X-180693Y159741D01*
X-180711Y159801D01*
X-180726Y159862D01*
X-180737Y159924D01*
X-180745Y159987D01*
X-180750Y160049D01*
X-180752Y160112D01*
Y161612D01*
X-180750Y161675D01*
X-180745Y161737D01*
X-180737Y161800D01*
X-180726Y161861D01*
X-180711Y161923D01*
X-180693Y161983D01*
X-180672Y162042D01*
X-180648Y162100D01*
X-180621Y162157D01*
X-180591Y162212D01*
X-180558Y162266D01*
X-180523Y162317D01*
X-180485Y162367D01*
X-180444Y162415D01*
X-180401Y162460D01*
X-180355Y162504D01*
X-180307Y162545D01*
X-180257Y162583D01*
X-180206Y162618D01*
X-180152Y162651D01*
X-180097Y162681D01*
X-180040Y162708D01*
X-179982Y162732D01*
X-179923Y162753D01*
X-179863Y162771D01*
X-179802Y162786D01*
X-179740Y162797D01*
X-179677Y162805D01*
X-179615Y162810D01*
X-179552Y162812D01*
X-174552D01*
X-174489Y162810D01*
D02*
G37*
G36*
X-141489Y157810D02*
X-141427Y157805D01*
X-141364Y157797D01*
X-141302Y157786D01*
X-141241Y157771D01*
X-141181Y157753D01*
X-141122Y157732D01*
X-141064Y157708D01*
X-141007Y157681D01*
X-140952Y157651D01*
X-140898Y157618D01*
X-140847Y157583D01*
X-140797Y157545D01*
X-140749Y157504D01*
X-140703Y157460D01*
X-140660Y157415D01*
X-140619Y157367D01*
X-140581Y157317D01*
X-140546Y157266D01*
X-140513Y157212D01*
X-140483Y157157D01*
X-140456Y157100D01*
X-140432Y157042D01*
X-140411Y156983D01*
X-140393Y156923D01*
X-140378Y156861D01*
X-140367Y156800D01*
X-140359Y156737D01*
X-140354Y156675D01*
X-140352Y156612D01*
Y155112D01*
X-140354Y155049D01*
X-140359Y154987D01*
X-140367Y154924D01*
X-140378Y154862D01*
X-140393Y154801D01*
X-140411Y154741D01*
X-140432Y154682D01*
X-140456Y154624D01*
X-140483Y154567D01*
X-140513Y154512D01*
X-140546Y154458D01*
X-140581Y154407D01*
X-140619Y154357D01*
X-140660Y154309D01*
X-140703Y154263D01*
X-140749Y154220D01*
X-140797Y154179D01*
X-140847Y154141D01*
X-140898Y154106D01*
X-140952Y154073D01*
X-141007Y154043D01*
X-141064Y154016D01*
X-141122Y153992D01*
X-141181Y153971D01*
X-141241Y153953D01*
X-141302Y153938D01*
X-141364Y153927D01*
X-141427Y153919D01*
X-141489Y153914D01*
X-141552Y153912D01*
X-146552D01*
X-146615Y153914D01*
X-146677Y153919D01*
X-146740Y153927D01*
X-146802Y153938D01*
X-146863Y153953D01*
X-146923Y153971D01*
X-146982Y153992D01*
X-147040Y154016D01*
X-147097Y154043D01*
X-147152Y154073D01*
X-147206Y154106D01*
X-147257Y154141D01*
X-147307Y154179D01*
X-147355Y154220D01*
X-147401Y154263D01*
X-147444Y154309D01*
X-147485Y154357D01*
X-147523Y154407D01*
X-147558Y154458D01*
X-147591Y154512D01*
X-147621Y154567D01*
X-147648Y154624D01*
X-147672Y154682D01*
X-147693Y154741D01*
X-147711Y154801D01*
X-147726Y154862D01*
X-147737Y154924D01*
X-147745Y154987D01*
X-147750Y155049D01*
X-147752Y155112D01*
Y156612D01*
X-147750Y156675D01*
X-147745Y156737D01*
X-147737Y156800D01*
X-147726Y156861D01*
X-147711Y156923D01*
X-147693Y156983D01*
X-147672Y157042D01*
X-147648Y157100D01*
X-147621Y157157D01*
X-147591Y157212D01*
X-147558Y157266D01*
X-147523Y157317D01*
X-147485Y157367D01*
X-147444Y157415D01*
X-147401Y157460D01*
X-147355Y157504D01*
X-147307Y157545D01*
X-147257Y157583D01*
X-147206Y157618D01*
X-147152Y157651D01*
X-147097Y157681D01*
X-147040Y157708D01*
X-146982Y157732D01*
X-146923Y157753D01*
X-146863Y157771D01*
X-146802Y157786D01*
X-146740Y157797D01*
X-146677Y157805D01*
X-146615Y157810D01*
X-146552Y157812D01*
X-141552D01*
X-141489Y157810D01*
D02*
G37*
G36*
X-174489D02*
X-174427Y157805D01*
X-174364Y157797D01*
X-174303Y157786D01*
X-174241Y157771D01*
X-174181Y157753D01*
X-174122Y157732D01*
X-174064Y157708D01*
X-174007Y157681D01*
X-173952Y157651D01*
X-173898Y157618D01*
X-173847Y157583D01*
X-173797Y157545D01*
X-173749Y157504D01*
X-173703Y157460D01*
X-173660Y157415D01*
X-173619Y157367D01*
X-173581Y157317D01*
X-173546Y157266D01*
X-173513Y157212D01*
X-173483Y157157D01*
X-173456Y157100D01*
X-173432Y157042D01*
X-173411Y156983D01*
X-173393Y156923D01*
X-173378Y156861D01*
X-173367Y156800D01*
X-173359Y156737D01*
X-173354Y156675D01*
X-173352Y156612D01*
Y155112D01*
X-173354Y155049D01*
X-173359Y154987D01*
X-173367Y154924D01*
X-173378Y154862D01*
X-173393Y154801D01*
X-173411Y154741D01*
X-173432Y154682D01*
X-173456Y154624D01*
X-173483Y154567D01*
X-173513Y154512D01*
X-173546Y154458D01*
X-173581Y154407D01*
X-173619Y154357D01*
X-173660Y154309D01*
X-173703Y154263D01*
X-173749Y154220D01*
X-173797Y154179D01*
X-173847Y154141D01*
X-173898Y154106D01*
X-173952Y154073D01*
X-174007Y154043D01*
X-174064Y154016D01*
X-174122Y153992D01*
X-174181Y153971D01*
X-174241Y153953D01*
X-174303Y153938D01*
X-174364Y153927D01*
X-174427Y153919D01*
X-174489Y153914D01*
X-174552Y153912D01*
X-179552D01*
X-179615Y153914D01*
X-179677Y153919D01*
X-179740Y153927D01*
X-179802Y153938D01*
X-179863Y153953D01*
X-179923Y153971D01*
X-179982Y153992D01*
X-180040Y154016D01*
X-180097Y154043D01*
X-180152Y154073D01*
X-180206Y154106D01*
X-180257Y154141D01*
X-180307Y154179D01*
X-180355Y154220D01*
X-180401Y154263D01*
X-180444Y154309D01*
X-180485Y154357D01*
X-180523Y154407D01*
X-180558Y154458D01*
X-180591Y154512D01*
X-180621Y154567D01*
X-180648Y154624D01*
X-180672Y154682D01*
X-180693Y154741D01*
X-180711Y154801D01*
X-180726Y154862D01*
X-180737Y154924D01*
X-180745Y154987D01*
X-180750Y155049D01*
X-180752Y155112D01*
Y156612D01*
X-180750Y156675D01*
X-180745Y156737D01*
X-180737Y156800D01*
X-180726Y156861D01*
X-180711Y156923D01*
X-180693Y156983D01*
X-180672Y157042D01*
X-180648Y157100D01*
X-180621Y157157D01*
X-180591Y157212D01*
X-180558Y157266D01*
X-180523Y157317D01*
X-180485Y157367D01*
X-180444Y157415D01*
X-180401Y157460D01*
X-180355Y157504D01*
X-180307Y157545D01*
X-180257Y157583D01*
X-180206Y157618D01*
X-180152Y157651D01*
X-180097Y157681D01*
X-180040Y157708D01*
X-179982Y157732D01*
X-179923Y157753D01*
X-179863Y157771D01*
X-179802Y157786D01*
X-179740Y157797D01*
X-179677Y157805D01*
X-179615Y157810D01*
X-179552Y157812D01*
X-174552D01*
X-174489Y157810D01*
D02*
G37*
G36*
X-141489Y152810D02*
X-141427Y152805D01*
X-141364Y152797D01*
X-141302Y152786D01*
X-141241Y152771D01*
X-141181Y152753D01*
X-141122Y152732D01*
X-141064Y152708D01*
X-141007Y152681D01*
X-140952Y152651D01*
X-140898Y152618D01*
X-140847Y152583D01*
X-140797Y152545D01*
X-140749Y152504D01*
X-140703Y152460D01*
X-140660Y152415D01*
X-140619Y152367D01*
X-140581Y152317D01*
X-140546Y152266D01*
X-140513Y152212D01*
X-140483Y152157D01*
X-140456Y152100D01*
X-140432Y152042D01*
X-140411Y151983D01*
X-140393Y151923D01*
X-140378Y151861D01*
X-140367Y151800D01*
X-140359Y151737D01*
X-140354Y151675D01*
X-140352Y151612D01*
Y150112D01*
X-140354Y150049D01*
X-140359Y149987D01*
X-140367Y149924D01*
X-140378Y149862D01*
X-140393Y149801D01*
X-140411Y149741D01*
X-140432Y149682D01*
X-140456Y149624D01*
X-140483Y149567D01*
X-140513Y149512D01*
X-140546Y149458D01*
X-140581Y149407D01*
X-140619Y149357D01*
X-140660Y149309D01*
X-140703Y149263D01*
X-140749Y149220D01*
X-140797Y149179D01*
X-140847Y149141D01*
X-140898Y149106D01*
X-140952Y149073D01*
X-141007Y149043D01*
X-141064Y149016D01*
X-141122Y148992D01*
X-141181Y148971D01*
X-141241Y148953D01*
X-141302Y148938D01*
X-141364Y148927D01*
X-141427Y148919D01*
X-141489Y148914D01*
X-141552Y148912D01*
X-146552D01*
X-146615Y148914D01*
X-146677Y148919D01*
X-146740Y148927D01*
X-146802Y148938D01*
X-146863Y148953D01*
X-146923Y148971D01*
X-146982Y148992D01*
X-147040Y149016D01*
X-147097Y149043D01*
X-147152Y149073D01*
X-147206Y149106D01*
X-147257Y149141D01*
X-147307Y149179D01*
X-147355Y149220D01*
X-147401Y149263D01*
X-147444Y149309D01*
X-147485Y149357D01*
X-147523Y149407D01*
X-147558Y149458D01*
X-147591Y149512D01*
X-147621Y149567D01*
X-147648Y149624D01*
X-147672Y149682D01*
X-147693Y149741D01*
X-147711Y149801D01*
X-147726Y149862D01*
X-147737Y149924D01*
X-147745Y149987D01*
X-147750Y150049D01*
X-147752Y150112D01*
Y151612D01*
X-147750Y151675D01*
X-147745Y151737D01*
X-147737Y151800D01*
X-147726Y151861D01*
X-147711Y151923D01*
X-147693Y151983D01*
X-147672Y152042D01*
X-147648Y152100D01*
X-147621Y152157D01*
X-147591Y152212D01*
X-147558Y152266D01*
X-147523Y152317D01*
X-147485Y152367D01*
X-147444Y152415D01*
X-147401Y152460D01*
X-147355Y152504D01*
X-147307Y152545D01*
X-147257Y152583D01*
X-147206Y152618D01*
X-147152Y152651D01*
X-147097Y152681D01*
X-147040Y152708D01*
X-146982Y152732D01*
X-146923Y152753D01*
X-146863Y152771D01*
X-146802Y152786D01*
X-146740Y152797D01*
X-146677Y152805D01*
X-146615Y152810D01*
X-146552Y152812D01*
X-141552D01*
X-141489Y152810D01*
D02*
G37*
G36*
X-174489D02*
X-174427Y152805D01*
X-174364Y152797D01*
X-174303Y152786D01*
X-174241Y152771D01*
X-174181Y152753D01*
X-174122Y152732D01*
X-174064Y152708D01*
X-174007Y152681D01*
X-173952Y152651D01*
X-173898Y152618D01*
X-173847Y152583D01*
X-173797Y152545D01*
X-173749Y152504D01*
X-173703Y152460D01*
X-173660Y152415D01*
X-173619Y152367D01*
X-173581Y152317D01*
X-173546Y152266D01*
X-173513Y152212D01*
X-173483Y152157D01*
X-173456Y152100D01*
X-173432Y152042D01*
X-173411Y151983D01*
X-173393Y151923D01*
X-173378Y151861D01*
X-173367Y151800D01*
X-173359Y151737D01*
X-173354Y151675D01*
X-173352Y151612D01*
Y150112D01*
X-173354Y150049D01*
X-173359Y149987D01*
X-173367Y149924D01*
X-173378Y149862D01*
X-173393Y149801D01*
X-173411Y149741D01*
X-173432Y149682D01*
X-173456Y149624D01*
X-173483Y149567D01*
X-173513Y149512D01*
X-173546Y149458D01*
X-173581Y149407D01*
X-173619Y149357D01*
X-173660Y149309D01*
X-173703Y149263D01*
X-173749Y149220D01*
X-173797Y149179D01*
X-173847Y149141D01*
X-173898Y149106D01*
X-173952Y149073D01*
X-174007Y149043D01*
X-174064Y149016D01*
X-174122Y148992D01*
X-174181Y148971D01*
X-174241Y148953D01*
X-174303Y148938D01*
X-174364Y148927D01*
X-174427Y148919D01*
X-174489Y148914D01*
X-174552Y148912D01*
X-179552D01*
X-179615Y148914D01*
X-179677Y148919D01*
X-179740Y148927D01*
X-179802Y148938D01*
X-179863Y148953D01*
X-179923Y148971D01*
X-179982Y148992D01*
X-180040Y149016D01*
X-180097Y149043D01*
X-180152Y149073D01*
X-180206Y149106D01*
X-180257Y149141D01*
X-180307Y149179D01*
X-180355Y149220D01*
X-180401Y149263D01*
X-180444Y149309D01*
X-180485Y149357D01*
X-180523Y149407D01*
X-180558Y149458D01*
X-180591Y149512D01*
X-180621Y149567D01*
X-180648Y149624D01*
X-180672Y149682D01*
X-180693Y149741D01*
X-180711Y149801D01*
X-180726Y149862D01*
X-180737Y149924D01*
X-180745Y149987D01*
X-180750Y150049D01*
X-180752Y150112D01*
Y151612D01*
X-180750Y151675D01*
X-180745Y151737D01*
X-180737Y151800D01*
X-180726Y151861D01*
X-180711Y151923D01*
X-180693Y151983D01*
X-180672Y152042D01*
X-180648Y152100D01*
X-180621Y152157D01*
X-180591Y152212D01*
X-180558Y152266D01*
X-180523Y152317D01*
X-180485Y152367D01*
X-180444Y152415D01*
X-180401Y152460D01*
X-180355Y152504D01*
X-180307Y152545D01*
X-180257Y152583D01*
X-180206Y152618D01*
X-180152Y152651D01*
X-180097Y152681D01*
X-180040Y152708D01*
X-179982Y152732D01*
X-179923Y152753D01*
X-179863Y152771D01*
X-179802Y152786D01*
X-179740Y152797D01*
X-179677Y152805D01*
X-179615Y152810D01*
X-179552Y152812D01*
X-174552D01*
X-174489Y152810D01*
D02*
G37*
G36*
X-141489Y147810D02*
X-141427Y147805D01*
X-141364Y147797D01*
X-141302Y147786D01*
X-141241Y147771D01*
X-141181Y147753D01*
X-141122Y147732D01*
X-141064Y147708D01*
X-141007Y147681D01*
X-140952Y147651D01*
X-140898Y147618D01*
X-140847Y147583D01*
X-140797Y147545D01*
X-140749Y147504D01*
X-140703Y147460D01*
X-140660Y147415D01*
X-140619Y147367D01*
X-140581Y147317D01*
X-140546Y147266D01*
X-140513Y147212D01*
X-140483Y147157D01*
X-140456Y147100D01*
X-140432Y147042D01*
X-140411Y146983D01*
X-140393Y146923D01*
X-140378Y146861D01*
X-140367Y146800D01*
X-140359Y146737D01*
X-140354Y146675D01*
X-140352Y146612D01*
Y145112D01*
X-140354Y145049D01*
X-140359Y144987D01*
X-140367Y144924D01*
X-140378Y144862D01*
X-140393Y144801D01*
X-140411Y144741D01*
X-140432Y144682D01*
X-140456Y144624D01*
X-140483Y144567D01*
X-140513Y144512D01*
X-140546Y144458D01*
X-140581Y144407D01*
X-140619Y144357D01*
X-140660Y144309D01*
X-140703Y144263D01*
X-140749Y144220D01*
X-140797Y144179D01*
X-140847Y144141D01*
X-140898Y144106D01*
X-140952Y144073D01*
X-141007Y144043D01*
X-141064Y144016D01*
X-141122Y143992D01*
X-141181Y143971D01*
X-141241Y143953D01*
X-141302Y143938D01*
X-141364Y143927D01*
X-141427Y143919D01*
X-141489Y143914D01*
X-141552Y143912D01*
X-146552D01*
X-146615Y143914D01*
X-146677Y143919D01*
X-146740Y143927D01*
X-146802Y143938D01*
X-146863Y143953D01*
X-146923Y143971D01*
X-146982Y143992D01*
X-147040Y144016D01*
X-147097Y144043D01*
X-147152Y144073D01*
X-147206Y144106D01*
X-147257Y144141D01*
X-147307Y144179D01*
X-147355Y144220D01*
X-147401Y144263D01*
X-147444Y144309D01*
X-147485Y144357D01*
X-147523Y144407D01*
X-147558Y144458D01*
X-147591Y144512D01*
X-147621Y144567D01*
X-147648Y144624D01*
X-147672Y144682D01*
X-147693Y144741D01*
X-147711Y144801D01*
X-147726Y144862D01*
X-147737Y144924D01*
X-147745Y144987D01*
X-147750Y145049D01*
X-147752Y145112D01*
Y146612D01*
X-147750Y146675D01*
X-147745Y146737D01*
X-147737Y146800D01*
X-147726Y146861D01*
X-147711Y146923D01*
X-147693Y146983D01*
X-147672Y147042D01*
X-147648Y147100D01*
X-147621Y147157D01*
X-147591Y147212D01*
X-147558Y147266D01*
X-147523Y147317D01*
X-147485Y147367D01*
X-147444Y147415D01*
X-147401Y147460D01*
X-147355Y147504D01*
X-147307Y147545D01*
X-147257Y147583D01*
X-147206Y147618D01*
X-147152Y147651D01*
X-147097Y147681D01*
X-147040Y147708D01*
X-146982Y147732D01*
X-146923Y147753D01*
X-146863Y147771D01*
X-146802Y147786D01*
X-146740Y147797D01*
X-146677Y147805D01*
X-146615Y147810D01*
X-146552Y147812D01*
X-141552D01*
X-141489Y147810D01*
D02*
G37*
G36*
X-174489D02*
X-174427Y147805D01*
X-174364Y147797D01*
X-174303Y147786D01*
X-174241Y147771D01*
X-174181Y147753D01*
X-174122Y147732D01*
X-174064Y147708D01*
X-174007Y147681D01*
X-173952Y147651D01*
X-173898Y147618D01*
X-173847Y147583D01*
X-173797Y147545D01*
X-173749Y147504D01*
X-173703Y147460D01*
X-173660Y147415D01*
X-173619Y147367D01*
X-173581Y147317D01*
X-173546Y147266D01*
X-173513Y147212D01*
X-173483Y147157D01*
X-173456Y147100D01*
X-173432Y147042D01*
X-173411Y146983D01*
X-173393Y146923D01*
X-173378Y146861D01*
X-173367Y146800D01*
X-173359Y146737D01*
X-173354Y146675D01*
X-173352Y146612D01*
Y145112D01*
X-173354Y145049D01*
X-173359Y144987D01*
X-173367Y144924D01*
X-173378Y144862D01*
X-173393Y144801D01*
X-173411Y144741D01*
X-173432Y144682D01*
X-173456Y144624D01*
X-173483Y144567D01*
X-173513Y144512D01*
X-173546Y144458D01*
X-173581Y144407D01*
X-173619Y144357D01*
X-173660Y144309D01*
X-173703Y144263D01*
X-173749Y144220D01*
X-173797Y144179D01*
X-173847Y144141D01*
X-173898Y144106D01*
X-173952Y144073D01*
X-174007Y144043D01*
X-174064Y144016D01*
X-174122Y143992D01*
X-174181Y143971D01*
X-174241Y143953D01*
X-174303Y143938D01*
X-174364Y143927D01*
X-174427Y143919D01*
X-174489Y143914D01*
X-174552Y143912D01*
X-179552D01*
X-179615Y143914D01*
X-179677Y143919D01*
X-179740Y143927D01*
X-179802Y143938D01*
X-179863Y143953D01*
X-179923Y143971D01*
X-179982Y143992D01*
X-180040Y144016D01*
X-180097Y144043D01*
X-180152Y144073D01*
X-180206Y144106D01*
X-180257Y144141D01*
X-180307Y144179D01*
X-180355Y144220D01*
X-180401Y144263D01*
X-180444Y144309D01*
X-180485Y144357D01*
X-180523Y144407D01*
X-180558Y144458D01*
X-180591Y144512D01*
X-180621Y144567D01*
X-180648Y144624D01*
X-180672Y144682D01*
X-180693Y144741D01*
X-180711Y144801D01*
X-180726Y144862D01*
X-180737Y144924D01*
X-180745Y144987D01*
X-180750Y145049D01*
X-180752Y145112D01*
Y146612D01*
X-180750Y146675D01*
X-180745Y146737D01*
X-180737Y146800D01*
X-180726Y146861D01*
X-180711Y146923D01*
X-180693Y146983D01*
X-180672Y147042D01*
X-180648Y147100D01*
X-180621Y147157D01*
X-180591Y147212D01*
X-180558Y147266D01*
X-180523Y147317D01*
X-180485Y147367D01*
X-180444Y147415D01*
X-180401Y147460D01*
X-180355Y147504D01*
X-180307Y147545D01*
X-180257Y147583D01*
X-180206Y147618D01*
X-180152Y147651D01*
X-180097Y147681D01*
X-180040Y147708D01*
X-179982Y147732D01*
X-179923Y147753D01*
X-179863Y147771D01*
X-179802Y147786D01*
X-179740Y147797D01*
X-179677Y147805D01*
X-179615Y147810D01*
X-179552Y147812D01*
X-174552D01*
X-174489Y147810D01*
D02*
G37*
G36*
X-141489Y142810D02*
X-141427Y142805D01*
X-141364Y142797D01*
X-141302Y142786D01*
X-141241Y142771D01*
X-141181Y142753D01*
X-141122Y142732D01*
X-141064Y142708D01*
X-141007Y142681D01*
X-140952Y142651D01*
X-140898Y142618D01*
X-140847Y142583D01*
X-140797Y142545D01*
X-140749Y142504D01*
X-140703Y142460D01*
X-140660Y142415D01*
X-140619Y142367D01*
X-140581Y142317D01*
X-140546Y142266D01*
X-140513Y142212D01*
X-140483Y142157D01*
X-140456Y142100D01*
X-140432Y142042D01*
X-140411Y141983D01*
X-140393Y141923D01*
X-140378Y141861D01*
X-140367Y141800D01*
X-140359Y141737D01*
X-140354Y141675D01*
X-140352Y141612D01*
Y140112D01*
X-140354Y140049D01*
X-140359Y139987D01*
X-140367Y139924D01*
X-140378Y139862D01*
X-140393Y139801D01*
X-140411Y139741D01*
X-140432Y139682D01*
X-140456Y139624D01*
X-140483Y139567D01*
X-140513Y139512D01*
X-140546Y139458D01*
X-140581Y139407D01*
X-140619Y139357D01*
X-140660Y139309D01*
X-140703Y139263D01*
X-140749Y139220D01*
X-140797Y139179D01*
X-140847Y139141D01*
X-140898Y139106D01*
X-140952Y139073D01*
X-141007Y139043D01*
X-141064Y139016D01*
X-141122Y138992D01*
X-141181Y138971D01*
X-141241Y138953D01*
X-141302Y138938D01*
X-141364Y138927D01*
X-141427Y138919D01*
X-141489Y138914D01*
X-141552Y138912D01*
X-146552D01*
X-146615Y138914D01*
X-146677Y138919D01*
X-146740Y138927D01*
X-146802Y138938D01*
X-146863Y138953D01*
X-146923Y138971D01*
X-146982Y138992D01*
X-147040Y139016D01*
X-147097Y139043D01*
X-147152Y139073D01*
X-147206Y139106D01*
X-147257Y139141D01*
X-147307Y139179D01*
X-147355Y139220D01*
X-147401Y139263D01*
X-147444Y139309D01*
X-147485Y139357D01*
X-147523Y139407D01*
X-147558Y139458D01*
X-147591Y139512D01*
X-147621Y139567D01*
X-147648Y139624D01*
X-147672Y139682D01*
X-147693Y139741D01*
X-147711Y139801D01*
X-147726Y139862D01*
X-147737Y139924D01*
X-147745Y139987D01*
X-147750Y140049D01*
X-147752Y140112D01*
Y141612D01*
X-147750Y141675D01*
X-147745Y141737D01*
X-147737Y141800D01*
X-147726Y141861D01*
X-147711Y141923D01*
X-147693Y141983D01*
X-147672Y142042D01*
X-147648Y142100D01*
X-147621Y142157D01*
X-147591Y142212D01*
X-147558Y142266D01*
X-147523Y142317D01*
X-147485Y142367D01*
X-147444Y142415D01*
X-147401Y142460D01*
X-147355Y142504D01*
X-147307Y142545D01*
X-147257Y142583D01*
X-147206Y142618D01*
X-147152Y142651D01*
X-147097Y142681D01*
X-147040Y142708D01*
X-146982Y142732D01*
X-146923Y142753D01*
X-146863Y142771D01*
X-146802Y142786D01*
X-146740Y142797D01*
X-146677Y142805D01*
X-146615Y142810D01*
X-146552Y142812D01*
X-141552D01*
X-141489Y142810D01*
D02*
G37*
G36*
X-174489D02*
X-174427Y142805D01*
X-174364Y142797D01*
X-174303Y142786D01*
X-174241Y142771D01*
X-174181Y142753D01*
X-174122Y142732D01*
X-174064Y142708D01*
X-174007Y142681D01*
X-173952Y142651D01*
X-173898Y142618D01*
X-173847Y142583D01*
X-173797Y142545D01*
X-173749Y142504D01*
X-173703Y142460D01*
X-173660Y142415D01*
X-173619Y142367D01*
X-173581Y142317D01*
X-173546Y142266D01*
X-173513Y142212D01*
X-173483Y142157D01*
X-173456Y142100D01*
X-173432Y142042D01*
X-173411Y141983D01*
X-173393Y141923D01*
X-173378Y141861D01*
X-173367Y141800D01*
X-173359Y141737D01*
X-173354Y141675D01*
X-173352Y141612D01*
Y140112D01*
X-173354Y140049D01*
X-173359Y139987D01*
X-173367Y139924D01*
X-173378Y139862D01*
X-173393Y139801D01*
X-173411Y139741D01*
X-173432Y139682D01*
X-173456Y139624D01*
X-173483Y139567D01*
X-173513Y139512D01*
X-173546Y139458D01*
X-173581Y139407D01*
X-173619Y139357D01*
X-173660Y139309D01*
X-173703Y139263D01*
X-173749Y139220D01*
X-173797Y139179D01*
X-173847Y139141D01*
X-173898Y139106D01*
X-173952Y139073D01*
X-174007Y139043D01*
X-174064Y139016D01*
X-174122Y138992D01*
X-174181Y138971D01*
X-174241Y138953D01*
X-174303Y138938D01*
X-174364Y138927D01*
X-174427Y138919D01*
X-174489Y138914D01*
X-174552Y138912D01*
X-179552D01*
X-179615Y138914D01*
X-179677Y138919D01*
X-179740Y138927D01*
X-179802Y138938D01*
X-179863Y138953D01*
X-179923Y138971D01*
X-179982Y138992D01*
X-180040Y139016D01*
X-180097Y139043D01*
X-180152Y139073D01*
X-180206Y139106D01*
X-180257Y139141D01*
X-180307Y139179D01*
X-180355Y139220D01*
X-180401Y139263D01*
X-180444Y139309D01*
X-180485Y139357D01*
X-180523Y139407D01*
X-180558Y139458D01*
X-180591Y139512D01*
X-180621Y139567D01*
X-180648Y139624D01*
X-180672Y139682D01*
X-180693Y139741D01*
X-180711Y139801D01*
X-180726Y139862D01*
X-180737Y139924D01*
X-180745Y139987D01*
X-180750Y140049D01*
X-180752Y140112D01*
Y141612D01*
X-180750Y141675D01*
X-180745Y141737D01*
X-180737Y141800D01*
X-180726Y141861D01*
X-180711Y141923D01*
X-180693Y141983D01*
X-180672Y142042D01*
X-180648Y142100D01*
X-180621Y142157D01*
X-180591Y142212D01*
X-180558Y142266D01*
X-180523Y142317D01*
X-180485Y142367D01*
X-180444Y142415D01*
X-180401Y142460D01*
X-180355Y142504D01*
X-180307Y142545D01*
X-180257Y142583D01*
X-180206Y142618D01*
X-180152Y142651D01*
X-180097Y142681D01*
X-180040Y142708D01*
X-179982Y142732D01*
X-179923Y142753D01*
X-179863Y142771D01*
X-179802Y142786D01*
X-179740Y142797D01*
X-179677Y142805D01*
X-179615Y142810D01*
X-179552Y142812D01*
X-174552D01*
X-174489Y142810D01*
D02*
G37*
G36*
X-141489Y137810D02*
X-141427Y137805D01*
X-141364Y137797D01*
X-141302Y137786D01*
X-141241Y137771D01*
X-141181Y137753D01*
X-141122Y137732D01*
X-141064Y137708D01*
X-141007Y137681D01*
X-140952Y137651D01*
X-140898Y137618D01*
X-140847Y137583D01*
X-140797Y137545D01*
X-140749Y137504D01*
X-140703Y137460D01*
X-140660Y137415D01*
X-140619Y137367D01*
X-140581Y137317D01*
X-140546Y137266D01*
X-140513Y137212D01*
X-140483Y137157D01*
X-140456Y137100D01*
X-140432Y137042D01*
X-140411Y136983D01*
X-140393Y136923D01*
X-140378Y136861D01*
X-140367Y136800D01*
X-140359Y136737D01*
X-140354Y136675D01*
X-140352Y136612D01*
Y135112D01*
X-140354Y135049D01*
X-140359Y134987D01*
X-140367Y134924D01*
X-140378Y134862D01*
X-140393Y134801D01*
X-140411Y134741D01*
X-140432Y134682D01*
X-140456Y134624D01*
X-140483Y134567D01*
X-140513Y134512D01*
X-140546Y134458D01*
X-140581Y134407D01*
X-140619Y134357D01*
X-140660Y134309D01*
X-140703Y134263D01*
X-140749Y134220D01*
X-140797Y134179D01*
X-140847Y134141D01*
X-140898Y134106D01*
X-140952Y134073D01*
X-141007Y134043D01*
X-141064Y134016D01*
X-141122Y133992D01*
X-141181Y133971D01*
X-141241Y133953D01*
X-141302Y133938D01*
X-141364Y133927D01*
X-141427Y133919D01*
X-141489Y133914D01*
X-141552Y133912D01*
X-146552D01*
X-146615Y133914D01*
X-146677Y133919D01*
X-146740Y133927D01*
X-146802Y133938D01*
X-146863Y133953D01*
X-146923Y133971D01*
X-146982Y133992D01*
X-147040Y134016D01*
X-147097Y134043D01*
X-147152Y134073D01*
X-147206Y134106D01*
X-147257Y134141D01*
X-147307Y134179D01*
X-147355Y134220D01*
X-147401Y134263D01*
X-147444Y134309D01*
X-147485Y134357D01*
X-147523Y134407D01*
X-147558Y134458D01*
X-147591Y134512D01*
X-147621Y134567D01*
X-147648Y134624D01*
X-147672Y134682D01*
X-147693Y134741D01*
X-147711Y134801D01*
X-147726Y134862D01*
X-147737Y134924D01*
X-147745Y134987D01*
X-147750Y135049D01*
X-147752Y135112D01*
Y136612D01*
X-147750Y136675D01*
X-147745Y136737D01*
X-147737Y136800D01*
X-147726Y136861D01*
X-147711Y136923D01*
X-147693Y136983D01*
X-147672Y137042D01*
X-147648Y137100D01*
X-147621Y137157D01*
X-147591Y137212D01*
X-147558Y137266D01*
X-147523Y137317D01*
X-147485Y137367D01*
X-147444Y137415D01*
X-147401Y137460D01*
X-147355Y137504D01*
X-147307Y137545D01*
X-147257Y137583D01*
X-147206Y137618D01*
X-147152Y137651D01*
X-147097Y137681D01*
X-147040Y137708D01*
X-146982Y137732D01*
X-146923Y137753D01*
X-146863Y137771D01*
X-146802Y137786D01*
X-146740Y137797D01*
X-146677Y137805D01*
X-146615Y137810D01*
X-146552Y137812D01*
X-141552D01*
X-141489Y137810D01*
D02*
G37*
G36*
X-174489D02*
X-174427Y137805D01*
X-174364Y137797D01*
X-174303Y137786D01*
X-174241Y137771D01*
X-174181Y137753D01*
X-174122Y137732D01*
X-174064Y137708D01*
X-174007Y137681D01*
X-173952Y137651D01*
X-173898Y137618D01*
X-173847Y137583D01*
X-173797Y137545D01*
X-173749Y137504D01*
X-173703Y137460D01*
X-173660Y137415D01*
X-173619Y137367D01*
X-173581Y137317D01*
X-173546Y137266D01*
X-173513Y137212D01*
X-173483Y137157D01*
X-173456Y137100D01*
X-173432Y137042D01*
X-173411Y136983D01*
X-173393Y136923D01*
X-173378Y136861D01*
X-173367Y136800D01*
X-173359Y136737D01*
X-173354Y136675D01*
X-173352Y136612D01*
Y135112D01*
X-173354Y135049D01*
X-173359Y134987D01*
X-173367Y134924D01*
X-173378Y134862D01*
X-173393Y134801D01*
X-173411Y134741D01*
X-173432Y134682D01*
X-173456Y134624D01*
X-173483Y134567D01*
X-173513Y134512D01*
X-173546Y134458D01*
X-173581Y134407D01*
X-173619Y134357D01*
X-173660Y134309D01*
X-173703Y134263D01*
X-173749Y134220D01*
X-173797Y134179D01*
X-173847Y134141D01*
X-173898Y134106D01*
X-173952Y134073D01*
X-174007Y134043D01*
X-174064Y134016D01*
X-174122Y133992D01*
X-174181Y133971D01*
X-174241Y133953D01*
X-174303Y133938D01*
X-174364Y133927D01*
X-174427Y133919D01*
X-174489Y133914D01*
X-174552Y133912D01*
X-179552D01*
X-179615Y133914D01*
X-179677Y133919D01*
X-179740Y133927D01*
X-179802Y133938D01*
X-179863Y133953D01*
X-179923Y133971D01*
X-179982Y133992D01*
X-180040Y134016D01*
X-180097Y134043D01*
X-180152Y134073D01*
X-180206Y134106D01*
X-180257Y134141D01*
X-180307Y134179D01*
X-180355Y134220D01*
X-180401Y134263D01*
X-180444Y134309D01*
X-180485Y134357D01*
X-180523Y134407D01*
X-180558Y134458D01*
X-180591Y134512D01*
X-180621Y134567D01*
X-180648Y134624D01*
X-180672Y134682D01*
X-180693Y134741D01*
X-180711Y134801D01*
X-180726Y134862D01*
X-180737Y134924D01*
X-180745Y134987D01*
X-180750Y135049D01*
X-180752Y135112D01*
Y136612D01*
X-180750Y136675D01*
X-180745Y136737D01*
X-180737Y136800D01*
X-180726Y136861D01*
X-180711Y136923D01*
X-180693Y136983D01*
X-180672Y137042D01*
X-180648Y137100D01*
X-180621Y137157D01*
X-180591Y137212D01*
X-180558Y137266D01*
X-180523Y137317D01*
X-180485Y137367D01*
X-180444Y137415D01*
X-180401Y137460D01*
X-180355Y137504D01*
X-180307Y137545D01*
X-180257Y137583D01*
X-180206Y137618D01*
X-180152Y137651D01*
X-180097Y137681D01*
X-180040Y137708D01*
X-179982Y137732D01*
X-179923Y137753D01*
X-179863Y137771D01*
X-179802Y137786D01*
X-179740Y137797D01*
X-179677Y137805D01*
X-179615Y137810D01*
X-179552Y137812D01*
X-174552D01*
X-174489Y137810D01*
D02*
G37*
G36*
X-152239Y135560D02*
X-152177Y135555D01*
X-152114Y135547D01*
X-152052Y135536D01*
X-151991Y135521D01*
X-151931Y135503D01*
X-151872Y135482D01*
X-151814Y135458D01*
X-151757Y135431D01*
X-151702Y135401D01*
X-151648Y135368D01*
X-151597Y135333D01*
X-151547Y135295D01*
X-151499Y135254D01*
X-151454Y135211D01*
X-151410Y135165D01*
X-151369Y135117D01*
X-151331Y135067D01*
X-151296Y135016D01*
X-151263Y134962D01*
X-151233Y134907D01*
X-151206Y134850D01*
X-151182Y134792D01*
X-151161Y134733D01*
X-151143Y134673D01*
X-151128Y134612D01*
X-151117Y134550D01*
X-151109Y134487D01*
X-151104Y134425D01*
X-151102Y134362D01*
Y129362D01*
X-151104Y129299D01*
X-151109Y129237D01*
X-151117Y129174D01*
X-151128Y129113D01*
X-151143Y129051D01*
X-151161Y128991D01*
X-151182Y128932D01*
X-151206Y128874D01*
X-151233Y128817D01*
X-151263Y128762D01*
X-151296Y128708D01*
X-151331Y128657D01*
X-151369Y128607D01*
X-151410Y128559D01*
X-151454Y128513D01*
X-151499Y128470D01*
X-151547Y128429D01*
X-151597Y128391D01*
X-151648Y128356D01*
X-151702Y128323D01*
X-151757Y128293D01*
X-151814Y128266D01*
X-151872Y128242D01*
X-151931Y128221D01*
X-151991Y128203D01*
X-152052Y128188D01*
X-152114Y128177D01*
X-152177Y128169D01*
X-152239Y128164D01*
X-152302Y128162D01*
X-153802D01*
X-153865Y128164D01*
X-153927Y128169D01*
X-153990Y128177D01*
X-154052Y128188D01*
X-154113Y128203D01*
X-154173Y128221D01*
X-154232Y128242D01*
X-154290Y128266D01*
X-154347Y128293D01*
X-154402Y128323D01*
X-154456Y128356D01*
X-154507Y128391D01*
X-154557Y128429D01*
X-154605Y128470D01*
X-154650Y128513D01*
X-154694Y128559D01*
X-154735Y128607D01*
X-154773Y128657D01*
X-154808Y128708D01*
X-154841Y128762D01*
X-154871Y128817D01*
X-154898Y128874D01*
X-154922Y128932D01*
X-154943Y128991D01*
X-154961Y129051D01*
X-154976Y129113D01*
X-154987Y129174D01*
X-154995Y129237D01*
X-155000Y129299D01*
X-155002Y129362D01*
Y134362D01*
X-155000Y134425D01*
X-154995Y134487D01*
X-154987Y134550D01*
X-154976Y134612D01*
X-154961Y134673D01*
X-154943Y134733D01*
X-154922Y134792D01*
X-154898Y134850D01*
X-154871Y134907D01*
X-154841Y134962D01*
X-154808Y135016D01*
X-154773Y135067D01*
X-154735Y135117D01*
X-154694Y135165D01*
X-154650Y135211D01*
X-154605Y135254D01*
X-154557Y135295D01*
X-154507Y135333D01*
X-154456Y135368D01*
X-154402Y135401D01*
X-154347Y135431D01*
X-154290Y135458D01*
X-154232Y135482D01*
X-154173Y135503D01*
X-154113Y135521D01*
X-154052Y135536D01*
X-153990Y135547D01*
X-153927Y135555D01*
X-153865Y135560D01*
X-153802Y135562D01*
X-152302D01*
X-152239Y135560D01*
D02*
G37*
G36*
X-167239D02*
X-167177Y135555D01*
X-167114Y135547D01*
X-167052Y135536D01*
X-166991Y135521D01*
X-166931Y135503D01*
X-166872Y135482D01*
X-166814Y135458D01*
X-166757Y135431D01*
X-166702Y135401D01*
X-166648Y135368D01*
X-166597Y135333D01*
X-166547Y135295D01*
X-166499Y135254D01*
X-166453Y135211D01*
X-166410Y135165D01*
X-166369Y135117D01*
X-166331Y135067D01*
X-166296Y135016D01*
X-166263Y134962D01*
X-166233Y134907D01*
X-166206Y134850D01*
X-166182Y134792D01*
X-166161Y134733D01*
X-166143Y134673D01*
X-166128Y134612D01*
X-166117Y134550D01*
X-166109Y134487D01*
X-166104Y134425D01*
X-166102Y134362D01*
Y129362D01*
X-166104Y129299D01*
X-166109Y129237D01*
X-166117Y129174D01*
X-166128Y129113D01*
X-166143Y129051D01*
X-166161Y128991D01*
X-166182Y128932D01*
X-166206Y128874D01*
X-166233Y128817D01*
X-166263Y128762D01*
X-166296Y128708D01*
X-166331Y128657D01*
X-166369Y128607D01*
X-166410Y128559D01*
X-166453Y128513D01*
X-166499Y128470D01*
X-166547Y128429D01*
X-166597Y128391D01*
X-166648Y128356D01*
X-166702Y128323D01*
X-166757Y128293D01*
X-166814Y128266D01*
X-166872Y128242D01*
X-166931Y128221D01*
X-166991Y128203D01*
X-167052Y128188D01*
X-167114Y128177D01*
X-167177Y128169D01*
X-167239Y128164D01*
X-167302Y128162D01*
X-168802D01*
X-168865Y128164D01*
X-168927Y128169D01*
X-168990Y128177D01*
X-169051Y128188D01*
X-169113Y128203D01*
X-169173Y128221D01*
X-169232Y128242D01*
X-169290Y128266D01*
X-169347Y128293D01*
X-169402Y128323D01*
X-169456Y128356D01*
X-169507Y128391D01*
X-169557Y128429D01*
X-169605Y128470D01*
X-169650Y128513D01*
X-169694Y128559D01*
X-169735Y128607D01*
X-169773Y128657D01*
X-169808Y128708D01*
X-169841Y128762D01*
X-169871Y128817D01*
X-169898Y128874D01*
X-169922Y128932D01*
X-169943Y128991D01*
X-169961Y129051D01*
X-169976Y129113D01*
X-169987Y129174D01*
X-169995Y129237D01*
X-170000Y129299D01*
X-170002Y129362D01*
Y134362D01*
X-170000Y134425D01*
X-169995Y134487D01*
X-169987Y134550D01*
X-169976Y134612D01*
X-169961Y134673D01*
X-169943Y134733D01*
X-169922Y134792D01*
X-169898Y134850D01*
X-169871Y134907D01*
X-169841Y134962D01*
X-169808Y135016D01*
X-169773Y135067D01*
X-169735Y135117D01*
X-169694Y135165D01*
X-169650Y135211D01*
X-169605Y135254D01*
X-169557Y135295D01*
X-169507Y135333D01*
X-169456Y135368D01*
X-169402Y135401D01*
X-169347Y135431D01*
X-169290Y135458D01*
X-169232Y135482D01*
X-169173Y135503D01*
X-169113Y135521D01*
X-169051Y135536D01*
X-168990Y135547D01*
X-168927Y135555D01*
X-168865Y135560D01*
X-168802Y135562D01*
X-167302D01*
X-167239Y135560D01*
D02*
G37*
G36*
X-157239Y309798D02*
X-157177Y309793D01*
X-157114Y309785D01*
X-157052Y309774D01*
X-156991Y309759D01*
X-156931Y309741D01*
X-156872Y309720D01*
X-156814Y309696D01*
X-156757Y309669D01*
X-156702Y309639D01*
X-156648Y309606D01*
X-156597Y309571D01*
X-156547Y309533D01*
X-156499Y309492D01*
X-156454Y309449D01*
X-156410Y309403D01*
X-156369Y309355D01*
X-156331Y309305D01*
X-156296Y309254D01*
X-156263Y309200D01*
X-156233Y309145D01*
X-156206Y309088D01*
X-156182Y309030D01*
X-156161Y308971D01*
X-156143Y308911D01*
X-156128Y308850D01*
X-156117Y308788D01*
X-156109Y308725D01*
X-156104Y308663D01*
X-156102Y308600D01*
Y301300D01*
X-150052D01*
X-149989Y301298D01*
X-149927Y301293D01*
X-149864Y301285D01*
X-149803Y301274D01*
X-149741Y301259D01*
X-149681Y301241D01*
X-149622Y301220D01*
X-149564Y301196D01*
X-149507Y301169D01*
X-149452Y301139D01*
X-149398Y301106D01*
X-149347Y301071D01*
X-149297Y301033D01*
X-149249Y300992D01*
X-149204Y300949D01*
X-149160Y300903D01*
X-149119Y300855D01*
X-149081Y300805D01*
X-149046Y300754D01*
X-149013Y300700D01*
X-148983Y300645D01*
X-148956Y300588D01*
X-148932Y300530D01*
X-148911Y300471D01*
X-148893Y300411D01*
X-148878Y300350D01*
X-148867Y300288D01*
X-148859Y300225D01*
X-148854Y300163D01*
X-148852Y300100D01*
Y269100D01*
X-148854Y269037D01*
X-148859Y268974D01*
X-148867Y268912D01*
X-148878Y268850D01*
X-148893Y268789D01*
X-148911Y268729D01*
X-148932Y268670D01*
X-148956Y268612D01*
X-148983Y268555D01*
X-149013Y268500D01*
X-149046Y268446D01*
X-149081Y268395D01*
X-149119Y268345D01*
X-149160Y268297D01*
X-149204Y268251D01*
X-149249Y268208D01*
X-149297Y268167D01*
X-149347Y268129D01*
X-149398Y268094D01*
X-149452Y268061D01*
X-149507Y268031D01*
X-149564Y268004D01*
X-149622Y267980D01*
X-149681Y267959D01*
X-149741Y267941D01*
X-149803Y267926D01*
X-149864Y267915D01*
X-149927Y267907D01*
X-149989Y267902D01*
X-150052Y267900D01*
X-156102D01*
Y260600D01*
X-156104Y260537D01*
X-156109Y260475D01*
X-156117Y260412D01*
X-156128Y260350D01*
X-156143Y260289D01*
X-156161Y260229D01*
X-156182Y260170D01*
X-156206Y260112D01*
X-156233Y260055D01*
X-156263Y260000D01*
X-156296Y259946D01*
X-156331Y259895D01*
X-156369Y259845D01*
X-156410Y259797D01*
X-156454Y259751D01*
X-156499Y259708D01*
X-156547Y259667D01*
X-156597Y259629D01*
X-156648Y259594D01*
X-156702Y259561D01*
X-156757Y259531D01*
X-156814Y259504D01*
X-156872Y259480D01*
X-156931Y259459D01*
X-156991Y259441D01*
X-157052Y259426D01*
X-157114Y259415D01*
X-157177Y259407D01*
X-157239Y259402D01*
X-157302Y259400D01*
X-158802D01*
X-158865Y259402D01*
X-158927Y259407D01*
X-158990Y259415D01*
X-159052Y259426D01*
X-159113Y259441D01*
X-159173Y259459D01*
X-159232Y259480D01*
X-159290Y259504D01*
X-159347Y259531D01*
X-159402Y259561D01*
X-159456Y259594D01*
X-159507Y259629D01*
X-159557Y259667D01*
X-159605Y259708D01*
X-159650Y259751D01*
X-159694Y259797D01*
X-159735Y259845D01*
X-159773Y259895D01*
X-159808Y259946D01*
X-159841Y260000D01*
X-159871Y260055D01*
X-159898Y260112D01*
X-159922Y260170D01*
X-159943Y260229D01*
X-159961Y260289D01*
X-159976Y260350D01*
X-159987Y260412D01*
X-159995Y260475D01*
X-160000Y260537D01*
X-160002Y260600D01*
Y262900D01*
X-161102D01*
Y260600D01*
X-161104Y260537D01*
X-161109Y260475D01*
X-161117Y260412D01*
X-161128Y260350D01*
X-161143Y260289D01*
X-161161Y260229D01*
X-161182Y260170D01*
X-161206Y260112D01*
X-161233Y260055D01*
X-161263Y260000D01*
X-161296Y259946D01*
X-161331Y259895D01*
X-161369Y259845D01*
X-161410Y259797D01*
X-161453Y259751D01*
X-161499Y259708D01*
X-161547Y259667D01*
X-161597Y259629D01*
X-161648Y259594D01*
X-161702Y259561D01*
X-161757Y259531D01*
X-161814Y259504D01*
X-161872Y259480D01*
X-161931Y259459D01*
X-161991Y259441D01*
X-162052Y259426D01*
X-162114Y259415D01*
X-162177Y259407D01*
X-162239Y259402D01*
X-162302Y259400D01*
X-163802D01*
X-163865Y259402D01*
X-163927Y259407D01*
X-163990Y259415D01*
X-164051Y259426D01*
X-164113Y259441D01*
X-164173Y259459D01*
X-164232Y259480D01*
X-164290Y259504D01*
X-164347Y259531D01*
X-164402Y259561D01*
X-164456Y259594D01*
X-164507Y259629D01*
X-164557Y259667D01*
X-164605Y259708D01*
X-164650Y259751D01*
X-164694Y259797D01*
X-164735Y259845D01*
X-164773Y259895D01*
X-164808Y259946D01*
X-164841Y260000D01*
X-164871Y260055D01*
X-164898Y260112D01*
X-164922Y260170D01*
X-164943Y260229D01*
X-164961Y260289D01*
X-164976Y260350D01*
X-164987Y260412D01*
X-164995Y260475D01*
X-165000Y260537D01*
X-165002Y260600D01*
Y267900D01*
X-171052D01*
X-171115Y267902D01*
X-171177Y267907D01*
X-171240Y267915D01*
X-171301Y267926D01*
X-171363Y267941D01*
X-171423Y267959D01*
X-171482Y267980D01*
X-171540Y268004D01*
X-171597Y268031D01*
X-171652Y268061D01*
X-171706Y268094D01*
X-171757Y268129D01*
X-171807Y268167D01*
X-171855Y268208D01*
X-171901Y268251D01*
X-171944Y268297D01*
X-171985Y268345D01*
X-172023Y268395D01*
X-172058Y268446D01*
X-172091Y268500D01*
X-172121Y268555D01*
X-172148Y268612D01*
X-172172Y268670D01*
X-172193Y268729D01*
X-172211Y268789D01*
X-172226Y268850D01*
X-172237Y268912D01*
X-172245Y268974D01*
X-172250Y269037D01*
X-172252Y269100D01*
Y300100D01*
X-172250Y300163D01*
X-172245Y300225D01*
X-172237Y300288D01*
X-172226Y300350D01*
X-172211Y300411D01*
X-172193Y300471D01*
X-172172Y300530D01*
X-172148Y300588D01*
X-172121Y300645D01*
X-172091Y300700D01*
X-172058Y300754D01*
X-172023Y300805D01*
X-171985Y300855D01*
X-171944Y300903D01*
X-171901Y300949D01*
X-171855Y300992D01*
X-171807Y301033D01*
X-171757Y301071D01*
X-171706Y301106D01*
X-171652Y301139D01*
X-171597Y301169D01*
X-171540Y301196D01*
X-171482Y301220D01*
X-171423Y301241D01*
X-171363Y301259D01*
X-171301Y301274D01*
X-171240Y301285D01*
X-171177Y301293D01*
X-171115Y301298D01*
X-171052Y301300D01*
X-165002D01*
Y308600D01*
X-165000Y308663D01*
X-164995Y308725D01*
X-164987Y308788D01*
X-164976Y308850D01*
X-164961Y308911D01*
X-164943Y308971D01*
X-164922Y309030D01*
X-164898Y309088D01*
X-164871Y309145D01*
X-164841Y309200D01*
X-164808Y309254D01*
X-164773Y309305D01*
X-164735Y309355D01*
X-164694Y309403D01*
X-164650Y309449D01*
X-164605Y309492D01*
X-164557Y309533D01*
X-164507Y309571D01*
X-164456Y309606D01*
X-164402Y309639D01*
X-164347Y309669D01*
X-164290Y309696D01*
X-164232Y309720D01*
X-164173Y309741D01*
X-164113Y309759D01*
X-164051Y309774D01*
X-163990Y309785D01*
X-163927Y309793D01*
X-163865Y309798D01*
X-163802Y309800D01*
X-162302D01*
X-162239Y309798D01*
X-162177Y309793D01*
X-162114Y309785D01*
X-162052Y309774D01*
X-161991Y309759D01*
X-161931Y309741D01*
X-161872Y309720D01*
X-161814Y309696D01*
X-161757Y309669D01*
X-161702Y309639D01*
X-161648Y309606D01*
X-161597Y309571D01*
X-161547Y309533D01*
X-161499Y309492D01*
X-161453Y309449D01*
X-161410Y309403D01*
X-161369Y309355D01*
X-161331Y309305D01*
X-161296Y309254D01*
X-161263Y309200D01*
X-161233Y309145D01*
X-161206Y309088D01*
X-161182Y309030D01*
X-161161Y308971D01*
X-161143Y308911D01*
X-161128Y308850D01*
X-161117Y308788D01*
X-161109Y308725D01*
X-161104Y308663D01*
X-161102Y308600D01*
Y306300D01*
X-160002D01*
Y308600D01*
X-160000Y308663D01*
X-159995Y308725D01*
X-159987Y308788D01*
X-159976Y308850D01*
X-159961Y308911D01*
X-159943Y308971D01*
X-159922Y309030D01*
X-159898Y309088D01*
X-159871Y309145D01*
X-159841Y309200D01*
X-159808Y309254D01*
X-159773Y309305D01*
X-159735Y309355D01*
X-159694Y309403D01*
X-159650Y309449D01*
X-159605Y309492D01*
X-159557Y309533D01*
X-159507Y309571D01*
X-159456Y309606D01*
X-159402Y309639D01*
X-159347Y309669D01*
X-159290Y309696D01*
X-159232Y309720D01*
X-159173Y309741D01*
X-159113Y309759D01*
X-159052Y309774D01*
X-158990Y309785D01*
X-158927Y309793D01*
X-158865Y309798D01*
X-158802Y309800D01*
X-157302D01*
X-157239Y309798D01*
D02*
G37*
G36*
X-152239D02*
X-152177Y309793D01*
X-152114Y309785D01*
X-152052Y309774D01*
X-151991Y309759D01*
X-151931Y309741D01*
X-151872Y309720D01*
X-151814Y309696D01*
X-151757Y309669D01*
X-151702Y309639D01*
X-151648Y309606D01*
X-151597Y309571D01*
X-151547Y309533D01*
X-151499Y309492D01*
X-151454Y309449D01*
X-151410Y309403D01*
X-151369Y309355D01*
X-151331Y309305D01*
X-151296Y309254D01*
X-151263Y309200D01*
X-151233Y309145D01*
X-151206Y309088D01*
X-151182Y309030D01*
X-151161Y308971D01*
X-151143Y308911D01*
X-151128Y308850D01*
X-151117Y308788D01*
X-151109Y308725D01*
X-151104Y308663D01*
X-151102Y308600D01*
Y303600D01*
X-151104Y303537D01*
X-151109Y303475D01*
X-151117Y303412D01*
X-151128Y303351D01*
X-151143Y303289D01*
X-151161Y303229D01*
X-151182Y303170D01*
X-151206Y303112D01*
X-151233Y303055D01*
X-151263Y303000D01*
X-151296Y302946D01*
X-151331Y302895D01*
X-151369Y302845D01*
X-151410Y302797D01*
X-151454Y302752D01*
X-151499Y302708D01*
X-151547Y302667D01*
X-151597Y302629D01*
X-151648Y302594D01*
X-151702Y302561D01*
X-151757Y302531D01*
X-151814Y302504D01*
X-151872Y302480D01*
X-151931Y302459D01*
X-151991Y302441D01*
X-152052Y302426D01*
X-152114Y302415D01*
X-152177Y302407D01*
X-152239Y302402D01*
X-152302Y302400D01*
X-153802D01*
X-153865Y302402D01*
X-153927Y302407D01*
X-153990Y302415D01*
X-154052Y302426D01*
X-154113Y302441D01*
X-154173Y302459D01*
X-154232Y302480D01*
X-154290Y302504D01*
X-154347Y302531D01*
X-154402Y302561D01*
X-154456Y302594D01*
X-154507Y302629D01*
X-154557Y302667D01*
X-154605Y302708D01*
X-154650Y302752D01*
X-154694Y302797D01*
X-154735Y302845D01*
X-154773Y302895D01*
X-154808Y302946D01*
X-154841Y303000D01*
X-154871Y303055D01*
X-154898Y303112D01*
X-154922Y303170D01*
X-154943Y303229D01*
X-154961Y303289D01*
X-154976Y303351D01*
X-154987Y303412D01*
X-154995Y303475D01*
X-155000Y303537D01*
X-155002Y303600D01*
Y308600D01*
X-155000Y308663D01*
X-154995Y308725D01*
X-154987Y308788D01*
X-154976Y308850D01*
X-154961Y308911D01*
X-154943Y308971D01*
X-154922Y309030D01*
X-154898Y309088D01*
X-154871Y309145D01*
X-154841Y309200D01*
X-154808Y309254D01*
X-154773Y309305D01*
X-154735Y309355D01*
X-154694Y309403D01*
X-154650Y309449D01*
X-154605Y309492D01*
X-154557Y309533D01*
X-154507Y309571D01*
X-154456Y309606D01*
X-154402Y309639D01*
X-154347Y309669D01*
X-154290Y309696D01*
X-154232Y309720D01*
X-154173Y309741D01*
X-154113Y309759D01*
X-154052Y309774D01*
X-153990Y309785D01*
X-153927Y309793D01*
X-153865Y309798D01*
X-153802Y309800D01*
X-152302D01*
X-152239Y309798D01*
D02*
G37*
G36*
X-167239D02*
X-167177Y309793D01*
X-167114Y309785D01*
X-167052Y309774D01*
X-166991Y309759D01*
X-166931Y309741D01*
X-166872Y309720D01*
X-166814Y309696D01*
X-166757Y309669D01*
X-166702Y309639D01*
X-166648Y309606D01*
X-166597Y309571D01*
X-166547Y309533D01*
X-166499Y309492D01*
X-166453Y309449D01*
X-166410Y309403D01*
X-166369Y309355D01*
X-166331Y309305D01*
X-166296Y309254D01*
X-166263Y309200D01*
X-166233Y309145D01*
X-166206Y309088D01*
X-166182Y309030D01*
X-166161Y308971D01*
X-166143Y308911D01*
X-166128Y308850D01*
X-166117Y308788D01*
X-166109Y308725D01*
X-166104Y308663D01*
X-166102Y308600D01*
Y303600D01*
X-166104Y303537D01*
X-166109Y303475D01*
X-166117Y303412D01*
X-166128Y303351D01*
X-166143Y303289D01*
X-166161Y303229D01*
X-166182Y303170D01*
X-166206Y303112D01*
X-166233Y303055D01*
X-166263Y303000D01*
X-166296Y302946D01*
X-166331Y302895D01*
X-166369Y302845D01*
X-166410Y302797D01*
X-166453Y302752D01*
X-166499Y302708D01*
X-166547Y302667D01*
X-166597Y302629D01*
X-166648Y302594D01*
X-166702Y302561D01*
X-166757Y302531D01*
X-166814Y302504D01*
X-166872Y302480D01*
X-166931Y302459D01*
X-166991Y302441D01*
X-167052Y302426D01*
X-167114Y302415D01*
X-167177Y302407D01*
X-167239Y302402D01*
X-167302Y302400D01*
X-168802D01*
X-168865Y302402D01*
X-168927Y302407D01*
X-168990Y302415D01*
X-169051Y302426D01*
X-169113Y302441D01*
X-169173Y302459D01*
X-169232Y302480D01*
X-169290Y302504D01*
X-169347Y302531D01*
X-169402Y302561D01*
X-169456Y302594D01*
X-169507Y302629D01*
X-169557Y302667D01*
X-169605Y302708D01*
X-169650Y302752D01*
X-169694Y302797D01*
X-169735Y302845D01*
X-169773Y302895D01*
X-169808Y302946D01*
X-169841Y303000D01*
X-169871Y303055D01*
X-169898Y303112D01*
X-169922Y303170D01*
X-169943Y303229D01*
X-169961Y303289D01*
X-169976Y303351D01*
X-169987Y303412D01*
X-169995Y303475D01*
X-170000Y303537D01*
X-170002Y303600D01*
Y308600D01*
X-170000Y308663D01*
X-169995Y308725D01*
X-169987Y308788D01*
X-169976Y308850D01*
X-169961Y308911D01*
X-169943Y308971D01*
X-169922Y309030D01*
X-169898Y309088D01*
X-169871Y309145D01*
X-169841Y309200D01*
X-169808Y309254D01*
X-169773Y309305D01*
X-169735Y309355D01*
X-169694Y309403D01*
X-169650Y309449D01*
X-169605Y309492D01*
X-169557Y309533D01*
X-169507Y309571D01*
X-169456Y309606D01*
X-169402Y309639D01*
X-169347Y309669D01*
X-169290Y309696D01*
X-169232Y309720D01*
X-169173Y309741D01*
X-169113Y309759D01*
X-169051Y309774D01*
X-168990Y309785D01*
X-168927Y309793D01*
X-168865Y309798D01*
X-168802Y309800D01*
X-167302D01*
X-167239Y309798D01*
D02*
G37*
G36*
X-141489Y304048D02*
X-141427Y304043D01*
X-141364Y304035D01*
X-141302Y304024D01*
X-141241Y304009D01*
X-141181Y303991D01*
X-141122Y303970D01*
X-141064Y303946D01*
X-141007Y303919D01*
X-140952Y303889D01*
X-140898Y303856D01*
X-140847Y303821D01*
X-140797Y303783D01*
X-140749Y303742D01*
X-140703Y303699D01*
X-140660Y303653D01*
X-140619Y303605D01*
X-140581Y303555D01*
X-140546Y303504D01*
X-140513Y303450D01*
X-140483Y303395D01*
X-140456Y303338D01*
X-140432Y303280D01*
X-140411Y303221D01*
X-140393Y303161D01*
X-140378Y303099D01*
X-140367Y303038D01*
X-140359Y302975D01*
X-140354Y302913D01*
X-140352Y302850D01*
Y301350D01*
X-140354Y301287D01*
X-140359Y301224D01*
X-140367Y301162D01*
X-140378Y301101D01*
X-140393Y301039D01*
X-140411Y300979D01*
X-140432Y300920D01*
X-140456Y300862D01*
X-140483Y300805D01*
X-140513Y300750D01*
X-140546Y300696D01*
X-140581Y300645D01*
X-140619Y300595D01*
X-140660Y300547D01*
X-140703Y300501D01*
X-140749Y300458D01*
X-140797Y300417D01*
X-140847Y300379D01*
X-140898Y300344D01*
X-140952Y300311D01*
X-141007Y300281D01*
X-141064Y300254D01*
X-141122Y300230D01*
X-141181Y300209D01*
X-141241Y300191D01*
X-141302Y300176D01*
X-141364Y300165D01*
X-141427Y300157D01*
X-141489Y300152D01*
X-141552Y300150D01*
X-146552D01*
X-146615Y300152D01*
X-146677Y300157D01*
X-146740Y300165D01*
X-146802Y300176D01*
X-146863Y300191D01*
X-146923Y300209D01*
X-146982Y300230D01*
X-147040Y300254D01*
X-147097Y300281D01*
X-147152Y300311D01*
X-147206Y300344D01*
X-147257Y300379D01*
X-147307Y300417D01*
X-147355Y300458D01*
X-147401Y300501D01*
X-147444Y300547D01*
X-147485Y300595D01*
X-147523Y300645D01*
X-147558Y300696D01*
X-147591Y300750D01*
X-147621Y300805D01*
X-147648Y300862D01*
X-147672Y300920D01*
X-147693Y300979D01*
X-147711Y301039D01*
X-147726Y301101D01*
X-147737Y301162D01*
X-147745Y301224D01*
X-147750Y301287D01*
X-147752Y301350D01*
Y302850D01*
X-147750Y302913D01*
X-147745Y302975D01*
X-147737Y303038D01*
X-147726Y303099D01*
X-147711Y303161D01*
X-147693Y303221D01*
X-147672Y303280D01*
X-147648Y303338D01*
X-147621Y303395D01*
X-147591Y303450D01*
X-147558Y303504D01*
X-147523Y303555D01*
X-147485Y303605D01*
X-147444Y303653D01*
X-147401Y303699D01*
X-147355Y303742D01*
X-147307Y303783D01*
X-147257Y303821D01*
X-147206Y303856D01*
X-147152Y303889D01*
X-147097Y303919D01*
X-147040Y303946D01*
X-146982Y303970D01*
X-146923Y303991D01*
X-146863Y304009D01*
X-146802Y304024D01*
X-146740Y304035D01*
X-146677Y304043D01*
X-146615Y304048D01*
X-146552Y304050D01*
X-141552D01*
X-141489Y304048D01*
D02*
G37*
G36*
X-174489D02*
X-174427Y304043D01*
X-174364Y304035D01*
X-174303Y304024D01*
X-174241Y304009D01*
X-174181Y303991D01*
X-174122Y303970D01*
X-174064Y303946D01*
X-174007Y303919D01*
X-173952Y303889D01*
X-173898Y303856D01*
X-173847Y303821D01*
X-173797Y303783D01*
X-173749Y303742D01*
X-173703Y303699D01*
X-173660Y303653D01*
X-173619Y303605D01*
X-173581Y303555D01*
X-173546Y303504D01*
X-173513Y303450D01*
X-173483Y303395D01*
X-173456Y303338D01*
X-173432Y303280D01*
X-173411Y303221D01*
X-173393Y303161D01*
X-173378Y303099D01*
X-173367Y303038D01*
X-173359Y302975D01*
X-173354Y302913D01*
X-173352Y302850D01*
Y301350D01*
X-173354Y301287D01*
X-173359Y301224D01*
X-173367Y301162D01*
X-173378Y301101D01*
X-173393Y301039D01*
X-173411Y300979D01*
X-173432Y300920D01*
X-173456Y300862D01*
X-173483Y300805D01*
X-173513Y300750D01*
X-173546Y300696D01*
X-173581Y300645D01*
X-173619Y300595D01*
X-173660Y300547D01*
X-173703Y300501D01*
X-173749Y300458D01*
X-173797Y300417D01*
X-173847Y300379D01*
X-173898Y300344D01*
X-173952Y300311D01*
X-174007Y300281D01*
X-174064Y300254D01*
X-174122Y300230D01*
X-174181Y300209D01*
X-174241Y300191D01*
X-174303Y300176D01*
X-174364Y300165D01*
X-174427Y300157D01*
X-174489Y300152D01*
X-174552Y300150D01*
X-179552D01*
X-179615Y300152D01*
X-179677Y300157D01*
X-179740Y300165D01*
X-179802Y300176D01*
X-179863Y300191D01*
X-179923Y300209D01*
X-179982Y300230D01*
X-180040Y300254D01*
X-180097Y300281D01*
X-180152Y300311D01*
X-180206Y300344D01*
X-180257Y300379D01*
X-180307Y300417D01*
X-180355Y300458D01*
X-180401Y300501D01*
X-180444Y300547D01*
X-180485Y300595D01*
X-180523Y300645D01*
X-180558Y300696D01*
X-180591Y300750D01*
X-180621Y300805D01*
X-180648Y300862D01*
X-180672Y300920D01*
X-180693Y300979D01*
X-180711Y301039D01*
X-180726Y301101D01*
X-180737Y301162D01*
X-180745Y301224D01*
X-180750Y301287D01*
X-180752Y301350D01*
Y302850D01*
X-180750Y302913D01*
X-180745Y302975D01*
X-180737Y303038D01*
X-180726Y303099D01*
X-180711Y303161D01*
X-180693Y303221D01*
X-180672Y303280D01*
X-180648Y303338D01*
X-180621Y303395D01*
X-180591Y303450D01*
X-180558Y303504D01*
X-180523Y303555D01*
X-180485Y303605D01*
X-180444Y303653D01*
X-180401Y303699D01*
X-180355Y303742D01*
X-180307Y303783D01*
X-180257Y303821D01*
X-180206Y303856D01*
X-180152Y303889D01*
X-180097Y303919D01*
X-180040Y303946D01*
X-179982Y303970D01*
X-179923Y303991D01*
X-179863Y304009D01*
X-179802Y304024D01*
X-179740Y304035D01*
X-179677Y304043D01*
X-179615Y304048D01*
X-179552Y304050D01*
X-174552D01*
X-174489Y304048D01*
D02*
G37*
G36*
X-141489Y299048D02*
X-141427Y299043D01*
X-141364Y299035D01*
X-141302Y299024D01*
X-141241Y299009D01*
X-141181Y298991D01*
X-141122Y298970D01*
X-141064Y298946D01*
X-141007Y298919D01*
X-140952Y298889D01*
X-140898Y298856D01*
X-140847Y298821D01*
X-140797Y298783D01*
X-140749Y298742D01*
X-140703Y298699D01*
X-140660Y298653D01*
X-140619Y298605D01*
X-140581Y298555D01*
X-140546Y298504D01*
X-140513Y298450D01*
X-140483Y298395D01*
X-140456Y298338D01*
X-140432Y298280D01*
X-140411Y298221D01*
X-140393Y298161D01*
X-140378Y298099D01*
X-140367Y298038D01*
X-140359Y297975D01*
X-140354Y297913D01*
X-140352Y297850D01*
Y296350D01*
X-140354Y296287D01*
X-140359Y296225D01*
X-140367Y296162D01*
X-140378Y296101D01*
X-140393Y296039D01*
X-140411Y295979D01*
X-140432Y295920D01*
X-140456Y295862D01*
X-140483Y295805D01*
X-140513Y295750D01*
X-140546Y295696D01*
X-140581Y295645D01*
X-140619Y295595D01*
X-140660Y295547D01*
X-140703Y295501D01*
X-140749Y295458D01*
X-140797Y295417D01*
X-140847Y295379D01*
X-140898Y295344D01*
X-140952Y295311D01*
X-141007Y295281D01*
X-141064Y295254D01*
X-141122Y295230D01*
X-141181Y295209D01*
X-141241Y295191D01*
X-141302Y295176D01*
X-141364Y295165D01*
X-141427Y295157D01*
X-141489Y295152D01*
X-141552Y295150D01*
X-146552D01*
X-146615Y295152D01*
X-146677Y295157D01*
X-146740Y295165D01*
X-146802Y295176D01*
X-146863Y295191D01*
X-146923Y295209D01*
X-146982Y295230D01*
X-147040Y295254D01*
X-147097Y295281D01*
X-147152Y295311D01*
X-147206Y295344D01*
X-147257Y295379D01*
X-147307Y295417D01*
X-147355Y295458D01*
X-147401Y295501D01*
X-147444Y295547D01*
X-147485Y295595D01*
X-147523Y295645D01*
X-147558Y295696D01*
X-147591Y295750D01*
X-147621Y295805D01*
X-147648Y295862D01*
X-147672Y295920D01*
X-147693Y295979D01*
X-147711Y296039D01*
X-147726Y296101D01*
X-147737Y296162D01*
X-147745Y296225D01*
X-147750Y296287D01*
X-147752Y296350D01*
Y297850D01*
X-147750Y297913D01*
X-147745Y297975D01*
X-147737Y298038D01*
X-147726Y298099D01*
X-147711Y298161D01*
X-147693Y298221D01*
X-147672Y298280D01*
X-147648Y298338D01*
X-147621Y298395D01*
X-147591Y298450D01*
X-147558Y298504D01*
X-147523Y298555D01*
X-147485Y298605D01*
X-147444Y298653D01*
X-147401Y298699D01*
X-147355Y298742D01*
X-147307Y298783D01*
X-147257Y298821D01*
X-147206Y298856D01*
X-147152Y298889D01*
X-147097Y298919D01*
X-147040Y298946D01*
X-146982Y298970D01*
X-146923Y298991D01*
X-146863Y299009D01*
X-146802Y299024D01*
X-146740Y299035D01*
X-146677Y299043D01*
X-146615Y299048D01*
X-146552Y299050D01*
X-141552D01*
X-141489Y299048D01*
D02*
G37*
G36*
X-174489D02*
X-174427Y299043D01*
X-174364Y299035D01*
X-174303Y299024D01*
X-174241Y299009D01*
X-174181Y298991D01*
X-174122Y298970D01*
X-174064Y298946D01*
X-174007Y298919D01*
X-173952Y298889D01*
X-173898Y298856D01*
X-173847Y298821D01*
X-173797Y298783D01*
X-173749Y298742D01*
X-173703Y298699D01*
X-173660Y298653D01*
X-173619Y298605D01*
X-173581Y298555D01*
X-173546Y298504D01*
X-173513Y298450D01*
X-173483Y298395D01*
X-173456Y298338D01*
X-173432Y298280D01*
X-173411Y298221D01*
X-173393Y298161D01*
X-173378Y298099D01*
X-173367Y298038D01*
X-173359Y297975D01*
X-173354Y297913D01*
X-173352Y297850D01*
Y296350D01*
X-173354Y296287D01*
X-173359Y296225D01*
X-173367Y296162D01*
X-173378Y296101D01*
X-173393Y296039D01*
X-173411Y295979D01*
X-173432Y295920D01*
X-173456Y295862D01*
X-173483Y295805D01*
X-173513Y295750D01*
X-173546Y295696D01*
X-173581Y295645D01*
X-173619Y295595D01*
X-173660Y295547D01*
X-173703Y295501D01*
X-173749Y295458D01*
X-173797Y295417D01*
X-173847Y295379D01*
X-173898Y295344D01*
X-173952Y295311D01*
X-174007Y295281D01*
X-174064Y295254D01*
X-174122Y295230D01*
X-174181Y295209D01*
X-174241Y295191D01*
X-174303Y295176D01*
X-174364Y295165D01*
X-174427Y295157D01*
X-174489Y295152D01*
X-174552Y295150D01*
X-179552D01*
X-179615Y295152D01*
X-179677Y295157D01*
X-179740Y295165D01*
X-179802Y295176D01*
X-179863Y295191D01*
X-179923Y295209D01*
X-179982Y295230D01*
X-180040Y295254D01*
X-180097Y295281D01*
X-180152Y295311D01*
X-180206Y295344D01*
X-180257Y295379D01*
X-180307Y295417D01*
X-180355Y295458D01*
X-180401Y295501D01*
X-180444Y295547D01*
X-180485Y295595D01*
X-180523Y295645D01*
X-180558Y295696D01*
X-180591Y295750D01*
X-180621Y295805D01*
X-180648Y295862D01*
X-180672Y295920D01*
X-180693Y295979D01*
X-180711Y296039D01*
X-180726Y296101D01*
X-180737Y296162D01*
X-180745Y296225D01*
X-180750Y296287D01*
X-180752Y296350D01*
Y297850D01*
X-180750Y297913D01*
X-180745Y297975D01*
X-180737Y298038D01*
X-180726Y298099D01*
X-180711Y298161D01*
X-180693Y298221D01*
X-180672Y298280D01*
X-180648Y298338D01*
X-180621Y298395D01*
X-180591Y298450D01*
X-180558Y298504D01*
X-180523Y298555D01*
X-180485Y298605D01*
X-180444Y298653D01*
X-180401Y298699D01*
X-180355Y298742D01*
X-180307Y298783D01*
X-180257Y298821D01*
X-180206Y298856D01*
X-180152Y298889D01*
X-180097Y298919D01*
X-180040Y298946D01*
X-179982Y298970D01*
X-179923Y298991D01*
X-179863Y299009D01*
X-179802Y299024D01*
X-179740Y299035D01*
X-179677Y299043D01*
X-179615Y299048D01*
X-179552Y299050D01*
X-174552D01*
X-174489Y299048D01*
D02*
G37*
G36*
X-141489Y294048D02*
X-141427Y294043D01*
X-141364Y294035D01*
X-141302Y294024D01*
X-141241Y294009D01*
X-141181Y293991D01*
X-141122Y293970D01*
X-141064Y293946D01*
X-141007Y293919D01*
X-140952Y293889D01*
X-140898Y293856D01*
X-140847Y293821D01*
X-140797Y293783D01*
X-140749Y293742D01*
X-140703Y293699D01*
X-140660Y293653D01*
X-140619Y293605D01*
X-140581Y293555D01*
X-140546Y293504D01*
X-140513Y293450D01*
X-140483Y293395D01*
X-140456Y293338D01*
X-140432Y293280D01*
X-140411Y293221D01*
X-140393Y293161D01*
X-140378Y293099D01*
X-140367Y293038D01*
X-140359Y292975D01*
X-140354Y292913D01*
X-140352Y292850D01*
Y291350D01*
X-140354Y291287D01*
X-140359Y291225D01*
X-140367Y291162D01*
X-140378Y291101D01*
X-140393Y291039D01*
X-140411Y290979D01*
X-140432Y290920D01*
X-140456Y290862D01*
X-140483Y290805D01*
X-140513Y290750D01*
X-140546Y290696D01*
X-140581Y290645D01*
X-140619Y290595D01*
X-140660Y290547D01*
X-140703Y290501D01*
X-140749Y290458D01*
X-140797Y290417D01*
X-140847Y290379D01*
X-140898Y290344D01*
X-140952Y290311D01*
X-141007Y290281D01*
X-141064Y290254D01*
X-141122Y290230D01*
X-141181Y290209D01*
X-141241Y290191D01*
X-141302Y290176D01*
X-141364Y290165D01*
X-141427Y290157D01*
X-141489Y290152D01*
X-141552Y290150D01*
X-146552D01*
X-146615Y290152D01*
X-146677Y290157D01*
X-146740Y290165D01*
X-146802Y290176D01*
X-146863Y290191D01*
X-146923Y290209D01*
X-146982Y290230D01*
X-147040Y290254D01*
X-147097Y290281D01*
X-147152Y290311D01*
X-147206Y290344D01*
X-147257Y290379D01*
X-147307Y290417D01*
X-147355Y290458D01*
X-147401Y290501D01*
X-147444Y290547D01*
X-147485Y290595D01*
X-147523Y290645D01*
X-147558Y290696D01*
X-147591Y290750D01*
X-147621Y290805D01*
X-147648Y290862D01*
X-147672Y290920D01*
X-147693Y290979D01*
X-147711Y291039D01*
X-147726Y291101D01*
X-147737Y291162D01*
X-147745Y291225D01*
X-147750Y291287D01*
X-147752Y291350D01*
Y292850D01*
X-147750Y292913D01*
X-147745Y292975D01*
X-147737Y293038D01*
X-147726Y293099D01*
X-147711Y293161D01*
X-147693Y293221D01*
X-147672Y293280D01*
X-147648Y293338D01*
X-147621Y293395D01*
X-147591Y293450D01*
X-147558Y293504D01*
X-147523Y293555D01*
X-147485Y293605D01*
X-147444Y293653D01*
X-147401Y293699D01*
X-147355Y293742D01*
X-147307Y293783D01*
X-147257Y293821D01*
X-147206Y293856D01*
X-147152Y293889D01*
X-147097Y293919D01*
X-147040Y293946D01*
X-146982Y293970D01*
X-146923Y293991D01*
X-146863Y294009D01*
X-146802Y294024D01*
X-146740Y294035D01*
X-146677Y294043D01*
X-146615Y294048D01*
X-146552Y294050D01*
X-141552D01*
X-141489Y294048D01*
D02*
G37*
G36*
X-174489D02*
X-174427Y294043D01*
X-174364Y294035D01*
X-174303Y294024D01*
X-174241Y294009D01*
X-174181Y293991D01*
X-174122Y293970D01*
X-174064Y293946D01*
X-174007Y293919D01*
X-173952Y293889D01*
X-173898Y293856D01*
X-173847Y293821D01*
X-173797Y293783D01*
X-173749Y293742D01*
X-173703Y293699D01*
X-173660Y293653D01*
X-173619Y293605D01*
X-173581Y293555D01*
X-173546Y293504D01*
X-173513Y293450D01*
X-173483Y293395D01*
X-173456Y293338D01*
X-173432Y293280D01*
X-173411Y293221D01*
X-173393Y293161D01*
X-173378Y293099D01*
X-173367Y293038D01*
X-173359Y292975D01*
X-173354Y292913D01*
X-173352Y292850D01*
Y291350D01*
X-173354Y291287D01*
X-173359Y291225D01*
X-173367Y291162D01*
X-173378Y291101D01*
X-173393Y291039D01*
X-173411Y290979D01*
X-173432Y290920D01*
X-173456Y290862D01*
X-173483Y290805D01*
X-173513Y290750D01*
X-173546Y290696D01*
X-173581Y290645D01*
X-173619Y290595D01*
X-173660Y290547D01*
X-173703Y290501D01*
X-173749Y290458D01*
X-173797Y290417D01*
X-173847Y290379D01*
X-173898Y290344D01*
X-173952Y290311D01*
X-174007Y290281D01*
X-174064Y290254D01*
X-174122Y290230D01*
X-174181Y290209D01*
X-174241Y290191D01*
X-174303Y290176D01*
X-174364Y290165D01*
X-174427Y290157D01*
X-174489Y290152D01*
X-174552Y290150D01*
X-179552D01*
X-179615Y290152D01*
X-179677Y290157D01*
X-179740Y290165D01*
X-179802Y290176D01*
X-179863Y290191D01*
X-179923Y290209D01*
X-179982Y290230D01*
X-180040Y290254D01*
X-180097Y290281D01*
X-180152Y290311D01*
X-180206Y290344D01*
X-180257Y290379D01*
X-180307Y290417D01*
X-180355Y290458D01*
X-180401Y290501D01*
X-180444Y290547D01*
X-180485Y290595D01*
X-180523Y290645D01*
X-180558Y290696D01*
X-180591Y290750D01*
X-180621Y290805D01*
X-180648Y290862D01*
X-180672Y290920D01*
X-180693Y290979D01*
X-180711Y291039D01*
X-180726Y291101D01*
X-180737Y291162D01*
X-180745Y291225D01*
X-180750Y291287D01*
X-180752Y291350D01*
Y292850D01*
X-180750Y292913D01*
X-180745Y292975D01*
X-180737Y293038D01*
X-180726Y293099D01*
X-180711Y293161D01*
X-180693Y293221D01*
X-180672Y293280D01*
X-180648Y293338D01*
X-180621Y293395D01*
X-180591Y293450D01*
X-180558Y293504D01*
X-180523Y293555D01*
X-180485Y293605D01*
X-180444Y293653D01*
X-180401Y293699D01*
X-180355Y293742D01*
X-180307Y293783D01*
X-180257Y293821D01*
X-180206Y293856D01*
X-180152Y293889D01*
X-180097Y293919D01*
X-180040Y293946D01*
X-179982Y293970D01*
X-179923Y293991D01*
X-179863Y294009D01*
X-179802Y294024D01*
X-179740Y294035D01*
X-179677Y294043D01*
X-179615Y294048D01*
X-179552Y294050D01*
X-174552D01*
X-174489Y294048D01*
D02*
G37*
G36*
X-141489Y289048D02*
X-141427Y289043D01*
X-141364Y289035D01*
X-141302Y289024D01*
X-141241Y289009D01*
X-141181Y288991D01*
X-141122Y288970D01*
X-141064Y288946D01*
X-141007Y288919D01*
X-140952Y288889D01*
X-140898Y288856D01*
X-140847Y288821D01*
X-140797Y288783D01*
X-140749Y288742D01*
X-140703Y288699D01*
X-140660Y288653D01*
X-140619Y288605D01*
X-140581Y288555D01*
X-140546Y288504D01*
X-140513Y288450D01*
X-140483Y288395D01*
X-140456Y288338D01*
X-140432Y288280D01*
X-140411Y288221D01*
X-140393Y288161D01*
X-140378Y288099D01*
X-140367Y288038D01*
X-140359Y287975D01*
X-140354Y287913D01*
X-140352Y287850D01*
Y286350D01*
X-140354Y286287D01*
X-140359Y286224D01*
X-140367Y286162D01*
X-140378Y286101D01*
X-140393Y286039D01*
X-140411Y285979D01*
X-140432Y285920D01*
X-140456Y285862D01*
X-140483Y285805D01*
X-140513Y285750D01*
X-140546Y285696D01*
X-140581Y285645D01*
X-140619Y285595D01*
X-140660Y285547D01*
X-140703Y285501D01*
X-140749Y285458D01*
X-140797Y285417D01*
X-140847Y285379D01*
X-140898Y285344D01*
X-140952Y285311D01*
X-141007Y285281D01*
X-141064Y285254D01*
X-141122Y285230D01*
X-141181Y285209D01*
X-141241Y285191D01*
X-141302Y285176D01*
X-141364Y285165D01*
X-141427Y285157D01*
X-141489Y285152D01*
X-141552Y285150D01*
X-146552D01*
X-146615Y285152D01*
X-146677Y285157D01*
X-146740Y285165D01*
X-146802Y285176D01*
X-146863Y285191D01*
X-146923Y285209D01*
X-146982Y285230D01*
X-147040Y285254D01*
X-147097Y285281D01*
X-147152Y285311D01*
X-147206Y285344D01*
X-147257Y285379D01*
X-147307Y285417D01*
X-147355Y285458D01*
X-147401Y285501D01*
X-147444Y285547D01*
X-147485Y285595D01*
X-147523Y285645D01*
X-147558Y285696D01*
X-147591Y285750D01*
X-147621Y285805D01*
X-147648Y285862D01*
X-147672Y285920D01*
X-147693Y285979D01*
X-147711Y286039D01*
X-147726Y286101D01*
X-147737Y286162D01*
X-147745Y286224D01*
X-147750Y286287D01*
X-147752Y286350D01*
Y287850D01*
X-147750Y287913D01*
X-147745Y287975D01*
X-147737Y288038D01*
X-147726Y288099D01*
X-147711Y288161D01*
X-147693Y288221D01*
X-147672Y288280D01*
X-147648Y288338D01*
X-147621Y288395D01*
X-147591Y288450D01*
X-147558Y288504D01*
X-147523Y288555D01*
X-147485Y288605D01*
X-147444Y288653D01*
X-147401Y288699D01*
X-147355Y288742D01*
X-147307Y288783D01*
X-147257Y288821D01*
X-147206Y288856D01*
X-147152Y288889D01*
X-147097Y288919D01*
X-147040Y288946D01*
X-146982Y288970D01*
X-146923Y288991D01*
X-146863Y289009D01*
X-146802Y289024D01*
X-146740Y289035D01*
X-146677Y289043D01*
X-146615Y289048D01*
X-146552Y289050D01*
X-141552D01*
X-141489Y289048D01*
D02*
G37*
G36*
X-174489D02*
X-174427Y289043D01*
X-174364Y289035D01*
X-174303Y289024D01*
X-174241Y289009D01*
X-174181Y288991D01*
X-174122Y288970D01*
X-174064Y288946D01*
X-174007Y288919D01*
X-173952Y288889D01*
X-173898Y288856D01*
X-173847Y288821D01*
X-173797Y288783D01*
X-173749Y288742D01*
X-173703Y288699D01*
X-173660Y288653D01*
X-173619Y288605D01*
X-173581Y288555D01*
X-173546Y288504D01*
X-173513Y288450D01*
X-173483Y288395D01*
X-173456Y288338D01*
X-173432Y288280D01*
X-173411Y288221D01*
X-173393Y288161D01*
X-173378Y288099D01*
X-173367Y288038D01*
X-173359Y287975D01*
X-173354Y287913D01*
X-173352Y287850D01*
Y286350D01*
X-173354Y286287D01*
X-173359Y286224D01*
X-173367Y286162D01*
X-173378Y286101D01*
X-173393Y286039D01*
X-173411Y285979D01*
X-173432Y285920D01*
X-173456Y285862D01*
X-173483Y285805D01*
X-173513Y285750D01*
X-173546Y285696D01*
X-173581Y285645D01*
X-173619Y285595D01*
X-173660Y285547D01*
X-173703Y285501D01*
X-173749Y285458D01*
X-173797Y285417D01*
X-173847Y285379D01*
X-173898Y285344D01*
X-173952Y285311D01*
X-174007Y285281D01*
X-174064Y285254D01*
X-174122Y285230D01*
X-174181Y285209D01*
X-174241Y285191D01*
X-174303Y285176D01*
X-174364Y285165D01*
X-174427Y285157D01*
X-174489Y285152D01*
X-174552Y285150D01*
X-179552D01*
X-179615Y285152D01*
X-179677Y285157D01*
X-179740Y285165D01*
X-179802Y285176D01*
X-179863Y285191D01*
X-179923Y285209D01*
X-179982Y285230D01*
X-180040Y285254D01*
X-180097Y285281D01*
X-180152Y285311D01*
X-180206Y285344D01*
X-180257Y285379D01*
X-180307Y285417D01*
X-180355Y285458D01*
X-180401Y285501D01*
X-180444Y285547D01*
X-180485Y285595D01*
X-180523Y285645D01*
X-180558Y285696D01*
X-180591Y285750D01*
X-180621Y285805D01*
X-180648Y285862D01*
X-180672Y285920D01*
X-180693Y285979D01*
X-180711Y286039D01*
X-180726Y286101D01*
X-180737Y286162D01*
X-180745Y286224D01*
X-180750Y286287D01*
X-180752Y286350D01*
Y287850D01*
X-180750Y287913D01*
X-180745Y287975D01*
X-180737Y288038D01*
X-180726Y288099D01*
X-180711Y288161D01*
X-180693Y288221D01*
X-180672Y288280D01*
X-180648Y288338D01*
X-180621Y288395D01*
X-180591Y288450D01*
X-180558Y288504D01*
X-180523Y288555D01*
X-180485Y288605D01*
X-180444Y288653D01*
X-180401Y288699D01*
X-180355Y288742D01*
X-180307Y288783D01*
X-180257Y288821D01*
X-180206Y288856D01*
X-180152Y288889D01*
X-180097Y288919D01*
X-180040Y288946D01*
X-179982Y288970D01*
X-179923Y288991D01*
X-179863Y289009D01*
X-179802Y289024D01*
X-179740Y289035D01*
X-179677Y289043D01*
X-179615Y289048D01*
X-179552Y289050D01*
X-174552D01*
X-174489Y289048D01*
D02*
G37*
G36*
X-141489Y284048D02*
X-141427Y284043D01*
X-141364Y284035D01*
X-141302Y284024D01*
X-141241Y284009D01*
X-141181Y283991D01*
X-141122Y283970D01*
X-141064Y283946D01*
X-141007Y283919D01*
X-140952Y283889D01*
X-140898Y283856D01*
X-140847Y283821D01*
X-140797Y283783D01*
X-140749Y283742D01*
X-140703Y283699D01*
X-140660Y283653D01*
X-140619Y283605D01*
X-140581Y283555D01*
X-140546Y283503D01*
X-140513Y283450D01*
X-140483Y283395D01*
X-140456Y283338D01*
X-140432Y283280D01*
X-140411Y283221D01*
X-140393Y283161D01*
X-140378Y283099D01*
X-140367Y283038D01*
X-140359Y282975D01*
X-140354Y282913D01*
X-140352Y282850D01*
Y281350D01*
X-140354Y281287D01*
X-140359Y281225D01*
X-140367Y281162D01*
X-140378Y281101D01*
X-140393Y281039D01*
X-140411Y280979D01*
X-140432Y280920D01*
X-140456Y280862D01*
X-140483Y280805D01*
X-140513Y280750D01*
X-140546Y280696D01*
X-140581Y280645D01*
X-140619Y280595D01*
X-140660Y280547D01*
X-140703Y280501D01*
X-140749Y280458D01*
X-140797Y280417D01*
X-140847Y280379D01*
X-140898Y280344D01*
X-140952Y280311D01*
X-141007Y280281D01*
X-141064Y280254D01*
X-141122Y280230D01*
X-141181Y280209D01*
X-141241Y280191D01*
X-141302Y280176D01*
X-141364Y280165D01*
X-141427Y280157D01*
X-141489Y280152D01*
X-141552Y280150D01*
X-146552D01*
X-146615Y280152D01*
X-146677Y280157D01*
X-146740Y280165D01*
X-146802Y280176D01*
X-146863Y280191D01*
X-146923Y280209D01*
X-146982Y280230D01*
X-147040Y280254D01*
X-147097Y280281D01*
X-147152Y280311D01*
X-147206Y280344D01*
X-147257Y280379D01*
X-147307Y280417D01*
X-147355Y280458D01*
X-147401Y280501D01*
X-147444Y280547D01*
X-147485Y280595D01*
X-147523Y280645D01*
X-147558Y280696D01*
X-147591Y280750D01*
X-147621Y280805D01*
X-147648Y280862D01*
X-147672Y280920D01*
X-147693Y280979D01*
X-147711Y281039D01*
X-147726Y281101D01*
X-147737Y281162D01*
X-147745Y281225D01*
X-147750Y281287D01*
X-147752Y281350D01*
Y282850D01*
X-147750Y282913D01*
X-147745Y282975D01*
X-147737Y283038D01*
X-147726Y283099D01*
X-147711Y283161D01*
X-147693Y283221D01*
X-147672Y283280D01*
X-147648Y283338D01*
X-147621Y283395D01*
X-147591Y283450D01*
X-147558Y283503D01*
X-147523Y283555D01*
X-147485Y283605D01*
X-147444Y283653D01*
X-147401Y283699D01*
X-147355Y283742D01*
X-147307Y283783D01*
X-147257Y283821D01*
X-147206Y283856D01*
X-147152Y283889D01*
X-147097Y283919D01*
X-147040Y283946D01*
X-146982Y283970D01*
X-146923Y283991D01*
X-146863Y284009D01*
X-146802Y284024D01*
X-146740Y284035D01*
X-146677Y284043D01*
X-146615Y284048D01*
X-146552Y284050D01*
X-141552D01*
X-141489Y284048D01*
D02*
G37*
G36*
X-174489D02*
X-174427Y284043D01*
X-174364Y284035D01*
X-174303Y284024D01*
X-174241Y284009D01*
X-174181Y283991D01*
X-174122Y283970D01*
X-174064Y283946D01*
X-174007Y283919D01*
X-173952Y283889D01*
X-173898Y283856D01*
X-173847Y283821D01*
X-173797Y283783D01*
X-173749Y283742D01*
X-173703Y283699D01*
X-173660Y283653D01*
X-173619Y283605D01*
X-173581Y283555D01*
X-173546Y283503D01*
X-173513Y283450D01*
X-173483Y283395D01*
X-173456Y283338D01*
X-173432Y283280D01*
X-173411Y283221D01*
X-173393Y283161D01*
X-173378Y283099D01*
X-173367Y283038D01*
X-173359Y282975D01*
X-173354Y282913D01*
X-173352Y282850D01*
Y281350D01*
X-173354Y281287D01*
X-173359Y281225D01*
X-173367Y281162D01*
X-173378Y281101D01*
X-173393Y281039D01*
X-173411Y280979D01*
X-173432Y280920D01*
X-173456Y280862D01*
X-173483Y280805D01*
X-173513Y280750D01*
X-173546Y280696D01*
X-173581Y280645D01*
X-173619Y280595D01*
X-173660Y280547D01*
X-173703Y280501D01*
X-173749Y280458D01*
X-173797Y280417D01*
X-173847Y280379D01*
X-173898Y280344D01*
X-173952Y280311D01*
X-174007Y280281D01*
X-174064Y280254D01*
X-174122Y280230D01*
X-174181Y280209D01*
X-174241Y280191D01*
X-174303Y280176D01*
X-174364Y280165D01*
X-174427Y280157D01*
X-174489Y280152D01*
X-174552Y280150D01*
X-179552D01*
X-179615Y280152D01*
X-179677Y280157D01*
X-179740Y280165D01*
X-179802Y280176D01*
X-179863Y280191D01*
X-179923Y280209D01*
X-179982Y280230D01*
X-180040Y280254D01*
X-180097Y280281D01*
X-180152Y280311D01*
X-180206Y280344D01*
X-180257Y280379D01*
X-180307Y280417D01*
X-180355Y280458D01*
X-180401Y280501D01*
X-180444Y280547D01*
X-180485Y280595D01*
X-180523Y280645D01*
X-180558Y280696D01*
X-180591Y280750D01*
X-180621Y280805D01*
X-180648Y280862D01*
X-180672Y280920D01*
X-180693Y280979D01*
X-180711Y281039D01*
X-180726Y281101D01*
X-180737Y281162D01*
X-180745Y281225D01*
X-180750Y281287D01*
X-180752Y281350D01*
Y282850D01*
X-180750Y282913D01*
X-180745Y282975D01*
X-180737Y283038D01*
X-180726Y283099D01*
X-180711Y283161D01*
X-180693Y283221D01*
X-180672Y283280D01*
X-180648Y283338D01*
X-180621Y283395D01*
X-180591Y283450D01*
X-180558Y283503D01*
X-180523Y283555D01*
X-180485Y283605D01*
X-180444Y283653D01*
X-180401Y283699D01*
X-180355Y283742D01*
X-180307Y283783D01*
X-180257Y283821D01*
X-180206Y283856D01*
X-180152Y283889D01*
X-180097Y283919D01*
X-180040Y283946D01*
X-179982Y283970D01*
X-179923Y283991D01*
X-179863Y284009D01*
X-179802Y284024D01*
X-179740Y284035D01*
X-179677Y284043D01*
X-179615Y284048D01*
X-179552Y284050D01*
X-174552D01*
X-174489Y284048D01*
D02*
G37*
G36*
X-141489Y279048D02*
X-141427Y279043D01*
X-141364Y279035D01*
X-141302Y279024D01*
X-141241Y279009D01*
X-141181Y278991D01*
X-141122Y278970D01*
X-141064Y278946D01*
X-141007Y278919D01*
X-140952Y278889D01*
X-140898Y278856D01*
X-140847Y278821D01*
X-140797Y278783D01*
X-140749Y278742D01*
X-140703Y278699D01*
X-140660Y278653D01*
X-140619Y278605D01*
X-140581Y278555D01*
X-140546Y278504D01*
X-140513Y278450D01*
X-140483Y278395D01*
X-140456Y278338D01*
X-140432Y278280D01*
X-140411Y278221D01*
X-140393Y278161D01*
X-140378Y278099D01*
X-140367Y278038D01*
X-140359Y277975D01*
X-140354Y277913D01*
X-140352Y277850D01*
Y276350D01*
X-140354Y276287D01*
X-140359Y276224D01*
X-140367Y276162D01*
X-140378Y276101D01*
X-140393Y276039D01*
X-140411Y275979D01*
X-140432Y275920D01*
X-140456Y275862D01*
X-140483Y275805D01*
X-140513Y275750D01*
X-140546Y275696D01*
X-140581Y275645D01*
X-140619Y275595D01*
X-140660Y275547D01*
X-140703Y275501D01*
X-140749Y275458D01*
X-140797Y275417D01*
X-140847Y275379D01*
X-140898Y275344D01*
X-140952Y275311D01*
X-141007Y275281D01*
X-141064Y275254D01*
X-141122Y275230D01*
X-141181Y275209D01*
X-141241Y275191D01*
X-141302Y275176D01*
X-141364Y275165D01*
X-141427Y275157D01*
X-141489Y275152D01*
X-141552Y275150D01*
X-146552D01*
X-146615Y275152D01*
X-146677Y275157D01*
X-146740Y275165D01*
X-146802Y275176D01*
X-146863Y275191D01*
X-146923Y275209D01*
X-146982Y275230D01*
X-147040Y275254D01*
X-147097Y275281D01*
X-147152Y275311D01*
X-147206Y275344D01*
X-147257Y275379D01*
X-147307Y275417D01*
X-147355Y275458D01*
X-147401Y275501D01*
X-147444Y275547D01*
X-147485Y275595D01*
X-147523Y275645D01*
X-147558Y275696D01*
X-147591Y275750D01*
X-147621Y275805D01*
X-147648Y275862D01*
X-147672Y275920D01*
X-147693Y275979D01*
X-147711Y276039D01*
X-147726Y276101D01*
X-147737Y276162D01*
X-147745Y276224D01*
X-147750Y276287D01*
X-147752Y276350D01*
Y277850D01*
X-147750Y277913D01*
X-147745Y277975D01*
X-147737Y278038D01*
X-147726Y278099D01*
X-147711Y278161D01*
X-147693Y278221D01*
X-147672Y278280D01*
X-147648Y278338D01*
X-147621Y278395D01*
X-147591Y278450D01*
X-147558Y278504D01*
X-147523Y278555D01*
X-147485Y278605D01*
X-147444Y278653D01*
X-147401Y278699D01*
X-147355Y278742D01*
X-147307Y278783D01*
X-147257Y278821D01*
X-147206Y278856D01*
X-147152Y278889D01*
X-147097Y278919D01*
X-147040Y278946D01*
X-146982Y278970D01*
X-146923Y278991D01*
X-146863Y279009D01*
X-146802Y279024D01*
X-146740Y279035D01*
X-146677Y279043D01*
X-146615Y279048D01*
X-146552Y279050D01*
X-141552D01*
X-141489Y279048D01*
D02*
G37*
G36*
X-174489D02*
X-174427Y279043D01*
X-174364Y279035D01*
X-174303Y279024D01*
X-174241Y279009D01*
X-174181Y278991D01*
X-174122Y278970D01*
X-174064Y278946D01*
X-174007Y278919D01*
X-173952Y278889D01*
X-173898Y278856D01*
X-173847Y278821D01*
X-173797Y278783D01*
X-173749Y278742D01*
X-173703Y278699D01*
X-173660Y278653D01*
X-173619Y278605D01*
X-173581Y278555D01*
X-173546Y278504D01*
X-173513Y278450D01*
X-173483Y278395D01*
X-173456Y278338D01*
X-173432Y278280D01*
X-173411Y278221D01*
X-173393Y278161D01*
X-173378Y278099D01*
X-173367Y278038D01*
X-173359Y277975D01*
X-173354Y277913D01*
X-173352Y277850D01*
Y276350D01*
X-173354Y276287D01*
X-173359Y276224D01*
X-173367Y276162D01*
X-173378Y276101D01*
X-173393Y276039D01*
X-173411Y275979D01*
X-173432Y275920D01*
X-173456Y275862D01*
X-173483Y275805D01*
X-173513Y275750D01*
X-173546Y275696D01*
X-173581Y275645D01*
X-173619Y275595D01*
X-173660Y275547D01*
X-173703Y275501D01*
X-173749Y275458D01*
X-173797Y275417D01*
X-173847Y275379D01*
X-173898Y275344D01*
X-173952Y275311D01*
X-174007Y275281D01*
X-174064Y275254D01*
X-174122Y275230D01*
X-174181Y275209D01*
X-174241Y275191D01*
X-174303Y275176D01*
X-174364Y275165D01*
X-174427Y275157D01*
X-174489Y275152D01*
X-174552Y275150D01*
X-179552D01*
X-179615Y275152D01*
X-179677Y275157D01*
X-179740Y275165D01*
X-179802Y275176D01*
X-179863Y275191D01*
X-179923Y275209D01*
X-179982Y275230D01*
X-180040Y275254D01*
X-180097Y275281D01*
X-180152Y275311D01*
X-180206Y275344D01*
X-180257Y275379D01*
X-180307Y275417D01*
X-180355Y275458D01*
X-180401Y275501D01*
X-180444Y275547D01*
X-180485Y275595D01*
X-180523Y275645D01*
X-180558Y275696D01*
X-180591Y275750D01*
X-180621Y275805D01*
X-180648Y275862D01*
X-180672Y275920D01*
X-180693Y275979D01*
X-180711Y276039D01*
X-180726Y276101D01*
X-180737Y276162D01*
X-180745Y276224D01*
X-180750Y276287D01*
X-180752Y276350D01*
Y277850D01*
X-180750Y277913D01*
X-180745Y277975D01*
X-180737Y278038D01*
X-180726Y278099D01*
X-180711Y278161D01*
X-180693Y278221D01*
X-180672Y278280D01*
X-180648Y278338D01*
X-180621Y278395D01*
X-180591Y278450D01*
X-180558Y278504D01*
X-180523Y278555D01*
X-180485Y278605D01*
X-180444Y278653D01*
X-180401Y278699D01*
X-180355Y278742D01*
X-180307Y278783D01*
X-180257Y278821D01*
X-180206Y278856D01*
X-180152Y278889D01*
X-180097Y278919D01*
X-180040Y278946D01*
X-179982Y278970D01*
X-179923Y278991D01*
X-179863Y279009D01*
X-179802Y279024D01*
X-179740Y279035D01*
X-179677Y279043D01*
X-179615Y279048D01*
X-179552Y279050D01*
X-174552D01*
X-174489Y279048D01*
D02*
G37*
G36*
X-141489Y274048D02*
X-141427Y274043D01*
X-141364Y274035D01*
X-141302Y274024D01*
X-141241Y274009D01*
X-141181Y273991D01*
X-141122Y273970D01*
X-141064Y273946D01*
X-141007Y273919D01*
X-140952Y273889D01*
X-140898Y273856D01*
X-140847Y273821D01*
X-140797Y273783D01*
X-140749Y273742D01*
X-140703Y273699D01*
X-140660Y273653D01*
X-140619Y273605D01*
X-140581Y273555D01*
X-140546Y273504D01*
X-140513Y273450D01*
X-140483Y273395D01*
X-140456Y273338D01*
X-140432Y273280D01*
X-140411Y273221D01*
X-140393Y273161D01*
X-140378Y273099D01*
X-140367Y273038D01*
X-140359Y272975D01*
X-140354Y272913D01*
X-140352Y272850D01*
Y271350D01*
X-140354Y271287D01*
X-140359Y271225D01*
X-140367Y271162D01*
X-140378Y271101D01*
X-140393Y271039D01*
X-140411Y270979D01*
X-140432Y270920D01*
X-140456Y270862D01*
X-140483Y270805D01*
X-140513Y270750D01*
X-140546Y270696D01*
X-140581Y270645D01*
X-140619Y270595D01*
X-140660Y270547D01*
X-140703Y270501D01*
X-140749Y270458D01*
X-140797Y270417D01*
X-140847Y270379D01*
X-140898Y270344D01*
X-140952Y270311D01*
X-141007Y270281D01*
X-141064Y270254D01*
X-141122Y270230D01*
X-141181Y270209D01*
X-141241Y270191D01*
X-141302Y270176D01*
X-141364Y270165D01*
X-141427Y270157D01*
X-141489Y270152D01*
X-141552Y270150D01*
X-146552D01*
X-146615Y270152D01*
X-146677Y270157D01*
X-146740Y270165D01*
X-146802Y270176D01*
X-146863Y270191D01*
X-146923Y270209D01*
X-146982Y270230D01*
X-147040Y270254D01*
X-147097Y270281D01*
X-147152Y270311D01*
X-147206Y270344D01*
X-147257Y270379D01*
X-147307Y270417D01*
X-147355Y270458D01*
X-147401Y270501D01*
X-147444Y270547D01*
X-147485Y270595D01*
X-147523Y270645D01*
X-147558Y270696D01*
X-147591Y270750D01*
X-147621Y270805D01*
X-147648Y270862D01*
X-147672Y270920D01*
X-147693Y270979D01*
X-147711Y271039D01*
X-147726Y271101D01*
X-147737Y271162D01*
X-147745Y271225D01*
X-147750Y271287D01*
X-147752Y271350D01*
Y272850D01*
X-147750Y272913D01*
X-147745Y272975D01*
X-147737Y273038D01*
X-147726Y273099D01*
X-147711Y273161D01*
X-147693Y273221D01*
X-147672Y273280D01*
X-147648Y273338D01*
X-147621Y273395D01*
X-147591Y273450D01*
X-147558Y273504D01*
X-147523Y273555D01*
X-147485Y273605D01*
X-147444Y273653D01*
X-147401Y273699D01*
X-147355Y273742D01*
X-147307Y273783D01*
X-147257Y273821D01*
X-147206Y273856D01*
X-147152Y273889D01*
X-147097Y273919D01*
X-147040Y273946D01*
X-146982Y273970D01*
X-146923Y273991D01*
X-146863Y274009D01*
X-146802Y274024D01*
X-146740Y274035D01*
X-146677Y274043D01*
X-146615Y274048D01*
X-146552Y274050D01*
X-141552D01*
X-141489Y274048D01*
D02*
G37*
G36*
X-174489D02*
X-174427Y274043D01*
X-174364Y274035D01*
X-174303Y274024D01*
X-174241Y274009D01*
X-174181Y273991D01*
X-174122Y273970D01*
X-174064Y273946D01*
X-174007Y273919D01*
X-173952Y273889D01*
X-173898Y273856D01*
X-173847Y273821D01*
X-173797Y273783D01*
X-173749Y273742D01*
X-173703Y273699D01*
X-173660Y273653D01*
X-173619Y273605D01*
X-173581Y273555D01*
X-173546Y273504D01*
X-173513Y273450D01*
X-173483Y273395D01*
X-173456Y273338D01*
X-173432Y273280D01*
X-173411Y273221D01*
X-173393Y273161D01*
X-173378Y273099D01*
X-173367Y273038D01*
X-173359Y272975D01*
X-173354Y272913D01*
X-173352Y272850D01*
Y271350D01*
X-173354Y271287D01*
X-173359Y271225D01*
X-173367Y271162D01*
X-173378Y271101D01*
X-173393Y271039D01*
X-173411Y270979D01*
X-173432Y270920D01*
X-173456Y270862D01*
X-173483Y270805D01*
X-173513Y270750D01*
X-173546Y270696D01*
X-173581Y270645D01*
X-173619Y270595D01*
X-173660Y270547D01*
X-173703Y270501D01*
X-173749Y270458D01*
X-173797Y270417D01*
X-173847Y270379D01*
X-173898Y270344D01*
X-173952Y270311D01*
X-174007Y270281D01*
X-174064Y270254D01*
X-174122Y270230D01*
X-174181Y270209D01*
X-174241Y270191D01*
X-174303Y270176D01*
X-174364Y270165D01*
X-174427Y270157D01*
X-174489Y270152D01*
X-174552Y270150D01*
X-179552D01*
X-179615Y270152D01*
X-179677Y270157D01*
X-179740Y270165D01*
X-179802Y270176D01*
X-179863Y270191D01*
X-179923Y270209D01*
X-179982Y270230D01*
X-180040Y270254D01*
X-180097Y270281D01*
X-180152Y270311D01*
X-180206Y270344D01*
X-180257Y270379D01*
X-180307Y270417D01*
X-180355Y270458D01*
X-180401Y270501D01*
X-180444Y270547D01*
X-180485Y270595D01*
X-180523Y270645D01*
X-180558Y270696D01*
X-180591Y270750D01*
X-180621Y270805D01*
X-180648Y270862D01*
X-180672Y270920D01*
X-180693Y270979D01*
X-180711Y271039D01*
X-180726Y271101D01*
X-180737Y271162D01*
X-180745Y271225D01*
X-180750Y271287D01*
X-180752Y271350D01*
Y272850D01*
X-180750Y272913D01*
X-180745Y272975D01*
X-180737Y273038D01*
X-180726Y273099D01*
X-180711Y273161D01*
X-180693Y273221D01*
X-180672Y273280D01*
X-180648Y273338D01*
X-180621Y273395D01*
X-180591Y273450D01*
X-180558Y273504D01*
X-180523Y273555D01*
X-180485Y273605D01*
X-180444Y273653D01*
X-180401Y273699D01*
X-180355Y273742D01*
X-180307Y273783D01*
X-180257Y273821D01*
X-180206Y273856D01*
X-180152Y273889D01*
X-180097Y273919D01*
X-180040Y273946D01*
X-179982Y273970D01*
X-179923Y273991D01*
X-179863Y274009D01*
X-179802Y274024D01*
X-179740Y274035D01*
X-179677Y274043D01*
X-179615Y274048D01*
X-179552Y274050D01*
X-174552D01*
X-174489Y274048D01*
D02*
G37*
G36*
X-141489Y269048D02*
X-141427Y269043D01*
X-141364Y269035D01*
X-141302Y269024D01*
X-141241Y269009D01*
X-141181Y268991D01*
X-141122Y268970D01*
X-141064Y268946D01*
X-141007Y268919D01*
X-140952Y268889D01*
X-140898Y268856D01*
X-140847Y268821D01*
X-140797Y268783D01*
X-140749Y268742D01*
X-140703Y268699D01*
X-140660Y268653D01*
X-140619Y268605D01*
X-140581Y268555D01*
X-140546Y268504D01*
X-140513Y268450D01*
X-140483Y268395D01*
X-140456Y268338D01*
X-140432Y268280D01*
X-140411Y268221D01*
X-140393Y268161D01*
X-140378Y268099D01*
X-140367Y268038D01*
X-140359Y267975D01*
X-140354Y267913D01*
X-140352Y267850D01*
Y266350D01*
X-140354Y266287D01*
X-140359Y266225D01*
X-140367Y266162D01*
X-140378Y266101D01*
X-140393Y266039D01*
X-140411Y265979D01*
X-140432Y265920D01*
X-140456Y265862D01*
X-140483Y265805D01*
X-140513Y265750D01*
X-140546Y265696D01*
X-140581Y265645D01*
X-140619Y265595D01*
X-140660Y265547D01*
X-140703Y265501D01*
X-140749Y265458D01*
X-140797Y265417D01*
X-140847Y265379D01*
X-140898Y265344D01*
X-140952Y265311D01*
X-141007Y265281D01*
X-141064Y265254D01*
X-141122Y265230D01*
X-141181Y265209D01*
X-141241Y265191D01*
X-141302Y265176D01*
X-141364Y265165D01*
X-141427Y265157D01*
X-141489Y265152D01*
X-141552Y265150D01*
X-146552D01*
X-146615Y265152D01*
X-146677Y265157D01*
X-146740Y265165D01*
X-146802Y265176D01*
X-146863Y265191D01*
X-146923Y265209D01*
X-146982Y265230D01*
X-147040Y265254D01*
X-147097Y265281D01*
X-147152Y265311D01*
X-147206Y265344D01*
X-147257Y265379D01*
X-147307Y265417D01*
X-147355Y265458D01*
X-147401Y265501D01*
X-147444Y265547D01*
X-147485Y265595D01*
X-147523Y265645D01*
X-147558Y265696D01*
X-147591Y265750D01*
X-147621Y265805D01*
X-147648Y265862D01*
X-147672Y265920D01*
X-147693Y265979D01*
X-147711Y266039D01*
X-147726Y266101D01*
X-147737Y266162D01*
X-147745Y266225D01*
X-147750Y266287D01*
X-147752Y266350D01*
Y267850D01*
X-147750Y267913D01*
X-147745Y267975D01*
X-147737Y268038D01*
X-147726Y268099D01*
X-147711Y268161D01*
X-147693Y268221D01*
X-147672Y268280D01*
X-147648Y268338D01*
X-147621Y268395D01*
X-147591Y268450D01*
X-147558Y268504D01*
X-147523Y268555D01*
X-147485Y268605D01*
X-147444Y268653D01*
X-147401Y268699D01*
X-147355Y268742D01*
X-147307Y268783D01*
X-147257Y268821D01*
X-147206Y268856D01*
X-147152Y268889D01*
X-147097Y268919D01*
X-147040Y268946D01*
X-146982Y268970D01*
X-146923Y268991D01*
X-146863Y269009D01*
X-146802Y269024D01*
X-146740Y269035D01*
X-146677Y269043D01*
X-146615Y269048D01*
X-146552Y269050D01*
X-141552D01*
X-141489Y269048D01*
D02*
G37*
G36*
X-174489D02*
X-174427Y269043D01*
X-174364Y269035D01*
X-174303Y269024D01*
X-174241Y269009D01*
X-174181Y268991D01*
X-174122Y268970D01*
X-174064Y268946D01*
X-174007Y268919D01*
X-173952Y268889D01*
X-173898Y268856D01*
X-173847Y268821D01*
X-173797Y268783D01*
X-173749Y268742D01*
X-173703Y268699D01*
X-173660Y268653D01*
X-173619Y268605D01*
X-173581Y268555D01*
X-173546Y268504D01*
X-173513Y268450D01*
X-173483Y268395D01*
X-173456Y268338D01*
X-173432Y268280D01*
X-173411Y268221D01*
X-173393Y268161D01*
X-173378Y268099D01*
X-173367Y268038D01*
X-173359Y267975D01*
X-173354Y267913D01*
X-173352Y267850D01*
Y266350D01*
X-173354Y266287D01*
X-173359Y266225D01*
X-173367Y266162D01*
X-173378Y266101D01*
X-173393Y266039D01*
X-173411Y265979D01*
X-173432Y265920D01*
X-173456Y265862D01*
X-173483Y265805D01*
X-173513Y265750D01*
X-173546Y265696D01*
X-173581Y265645D01*
X-173619Y265595D01*
X-173660Y265547D01*
X-173703Y265501D01*
X-173749Y265458D01*
X-173797Y265417D01*
X-173847Y265379D01*
X-173898Y265344D01*
X-173952Y265311D01*
X-174007Y265281D01*
X-174064Y265254D01*
X-174122Y265230D01*
X-174181Y265209D01*
X-174241Y265191D01*
X-174303Y265176D01*
X-174364Y265165D01*
X-174427Y265157D01*
X-174489Y265152D01*
X-174552Y265150D01*
X-179552D01*
X-179615Y265152D01*
X-179677Y265157D01*
X-179740Y265165D01*
X-179802Y265176D01*
X-179863Y265191D01*
X-179923Y265209D01*
X-179982Y265230D01*
X-180040Y265254D01*
X-180097Y265281D01*
X-180152Y265311D01*
X-180206Y265344D01*
X-180257Y265379D01*
X-180307Y265417D01*
X-180355Y265458D01*
X-180401Y265501D01*
X-180444Y265547D01*
X-180485Y265595D01*
X-180523Y265645D01*
X-180558Y265696D01*
X-180591Y265750D01*
X-180621Y265805D01*
X-180648Y265862D01*
X-180672Y265920D01*
X-180693Y265979D01*
X-180711Y266039D01*
X-180726Y266101D01*
X-180737Y266162D01*
X-180745Y266225D01*
X-180750Y266287D01*
X-180752Y266350D01*
Y267850D01*
X-180750Y267913D01*
X-180745Y267975D01*
X-180737Y268038D01*
X-180726Y268099D01*
X-180711Y268161D01*
X-180693Y268221D01*
X-180672Y268280D01*
X-180648Y268338D01*
X-180621Y268395D01*
X-180591Y268450D01*
X-180558Y268504D01*
X-180523Y268555D01*
X-180485Y268605D01*
X-180444Y268653D01*
X-180401Y268699D01*
X-180355Y268742D01*
X-180307Y268783D01*
X-180257Y268821D01*
X-180206Y268856D01*
X-180152Y268889D01*
X-180097Y268919D01*
X-180040Y268946D01*
X-179982Y268970D01*
X-179923Y268991D01*
X-179863Y269009D01*
X-179802Y269024D01*
X-179740Y269035D01*
X-179677Y269043D01*
X-179615Y269048D01*
X-179552Y269050D01*
X-174552D01*
X-174489Y269048D01*
D02*
G37*
G36*
X-152239Y266798D02*
X-152177Y266793D01*
X-152114Y266785D01*
X-152052Y266774D01*
X-151991Y266759D01*
X-151931Y266741D01*
X-151872Y266720D01*
X-151814Y266696D01*
X-151757Y266669D01*
X-151702Y266639D01*
X-151648Y266606D01*
X-151597Y266571D01*
X-151547Y266533D01*
X-151499Y266492D01*
X-151454Y266448D01*
X-151410Y266403D01*
X-151369Y266355D01*
X-151331Y266305D01*
X-151296Y266254D01*
X-151263Y266200D01*
X-151233Y266145D01*
X-151206Y266088D01*
X-151182Y266030D01*
X-151161Y265971D01*
X-151143Y265911D01*
X-151128Y265849D01*
X-151117Y265788D01*
X-151109Y265725D01*
X-151104Y265663D01*
X-151102Y265600D01*
Y260600D01*
X-151104Y260537D01*
X-151109Y260475D01*
X-151117Y260412D01*
X-151128Y260350D01*
X-151143Y260289D01*
X-151161Y260229D01*
X-151182Y260170D01*
X-151206Y260112D01*
X-151233Y260055D01*
X-151263Y260000D01*
X-151296Y259946D01*
X-151331Y259895D01*
X-151369Y259845D01*
X-151410Y259797D01*
X-151454Y259751D01*
X-151499Y259708D01*
X-151547Y259667D01*
X-151597Y259629D01*
X-151648Y259594D01*
X-151702Y259561D01*
X-151757Y259531D01*
X-151814Y259504D01*
X-151872Y259480D01*
X-151931Y259459D01*
X-151991Y259441D01*
X-152052Y259426D01*
X-152114Y259415D01*
X-152177Y259407D01*
X-152239Y259402D01*
X-152302Y259400D01*
X-153802D01*
X-153865Y259402D01*
X-153927Y259407D01*
X-153990Y259415D01*
X-154052Y259426D01*
X-154113Y259441D01*
X-154173Y259459D01*
X-154232Y259480D01*
X-154290Y259504D01*
X-154347Y259531D01*
X-154402Y259561D01*
X-154456Y259594D01*
X-154507Y259629D01*
X-154557Y259667D01*
X-154605Y259708D01*
X-154650Y259751D01*
X-154694Y259797D01*
X-154735Y259845D01*
X-154773Y259895D01*
X-154808Y259946D01*
X-154841Y260000D01*
X-154871Y260055D01*
X-154898Y260112D01*
X-154922Y260170D01*
X-154943Y260229D01*
X-154961Y260289D01*
X-154976Y260350D01*
X-154987Y260412D01*
X-154995Y260475D01*
X-155000Y260537D01*
X-155002Y260600D01*
Y265600D01*
X-155000Y265663D01*
X-154995Y265725D01*
X-154987Y265788D01*
X-154976Y265849D01*
X-154961Y265911D01*
X-154943Y265971D01*
X-154922Y266030D01*
X-154898Y266088D01*
X-154871Y266145D01*
X-154841Y266200D01*
X-154808Y266254D01*
X-154773Y266305D01*
X-154735Y266355D01*
X-154694Y266403D01*
X-154650Y266448D01*
X-154605Y266492D01*
X-154557Y266533D01*
X-154507Y266571D01*
X-154456Y266606D01*
X-154402Y266639D01*
X-154347Y266669D01*
X-154290Y266696D01*
X-154232Y266720D01*
X-154173Y266741D01*
X-154113Y266759D01*
X-154052Y266774D01*
X-153990Y266785D01*
X-153927Y266793D01*
X-153865Y266798D01*
X-153802Y266800D01*
X-152302D01*
X-152239Y266798D01*
D02*
G37*
G36*
X-167239D02*
X-167177Y266793D01*
X-167114Y266785D01*
X-167052Y266774D01*
X-166991Y266759D01*
X-166931Y266741D01*
X-166872Y266720D01*
X-166814Y266696D01*
X-166757Y266669D01*
X-166702Y266639D01*
X-166648Y266606D01*
X-166597Y266571D01*
X-166547Y266533D01*
X-166499Y266492D01*
X-166453Y266448D01*
X-166410Y266403D01*
X-166369Y266355D01*
X-166331Y266305D01*
X-166296Y266254D01*
X-166263Y266200D01*
X-166233Y266145D01*
X-166206Y266088D01*
X-166182Y266030D01*
X-166161Y265971D01*
X-166143Y265911D01*
X-166128Y265849D01*
X-166117Y265788D01*
X-166109Y265725D01*
X-166104Y265663D01*
X-166102Y265600D01*
Y260600D01*
X-166104Y260537D01*
X-166109Y260475D01*
X-166117Y260412D01*
X-166128Y260350D01*
X-166143Y260289D01*
X-166161Y260229D01*
X-166182Y260170D01*
X-166206Y260112D01*
X-166233Y260055D01*
X-166263Y260000D01*
X-166296Y259946D01*
X-166331Y259895D01*
X-166369Y259845D01*
X-166410Y259797D01*
X-166453Y259751D01*
X-166499Y259708D01*
X-166547Y259667D01*
X-166597Y259629D01*
X-166648Y259594D01*
X-166702Y259561D01*
X-166757Y259531D01*
X-166814Y259504D01*
X-166872Y259480D01*
X-166931Y259459D01*
X-166991Y259441D01*
X-167052Y259426D01*
X-167114Y259415D01*
X-167177Y259407D01*
X-167239Y259402D01*
X-167302Y259400D01*
X-168802D01*
X-168865Y259402D01*
X-168927Y259407D01*
X-168990Y259415D01*
X-169051Y259426D01*
X-169113Y259441D01*
X-169173Y259459D01*
X-169232Y259480D01*
X-169290Y259504D01*
X-169347Y259531D01*
X-169402Y259561D01*
X-169456Y259594D01*
X-169507Y259629D01*
X-169557Y259667D01*
X-169605Y259708D01*
X-169650Y259751D01*
X-169694Y259797D01*
X-169735Y259845D01*
X-169773Y259895D01*
X-169808Y259946D01*
X-169841Y260000D01*
X-169871Y260055D01*
X-169898Y260112D01*
X-169922Y260170D01*
X-169943Y260229D01*
X-169961Y260289D01*
X-169976Y260350D01*
X-169987Y260412D01*
X-169995Y260475D01*
X-170000Y260537D01*
X-170002Y260600D01*
Y265600D01*
X-170000Y265663D01*
X-169995Y265725D01*
X-169987Y265788D01*
X-169976Y265849D01*
X-169961Y265911D01*
X-169943Y265971D01*
X-169922Y266030D01*
X-169898Y266088D01*
X-169871Y266145D01*
X-169841Y266200D01*
X-169808Y266254D01*
X-169773Y266305D01*
X-169735Y266355D01*
X-169694Y266403D01*
X-169650Y266448D01*
X-169605Y266492D01*
X-169557Y266533D01*
X-169507Y266571D01*
X-169456Y266606D01*
X-169402Y266639D01*
X-169347Y266669D01*
X-169290Y266696D01*
X-169232Y266720D01*
X-169173Y266741D01*
X-169113Y266759D01*
X-169051Y266774D01*
X-168990Y266785D01*
X-168927Y266793D01*
X-168865Y266798D01*
X-168802Y266800D01*
X-167302D01*
X-167239Y266798D01*
D02*
G37*
D29*
X-511306Y119634D02*
D03*
X-493306D02*
D03*
X-544600D02*
D03*
X-562600D02*
D03*
X-530121Y289248D02*
D03*
X-512121D02*
D03*
X-530121Y255957D02*
D03*
X-512121D02*
D03*
X-530121Y239311D02*
D03*
X-512121D02*
D03*
Y272602D02*
D03*
X-530121D02*
D03*
Y222666D02*
D03*
X-512121D02*
D03*
D31*
X-518784Y170052D02*
D03*
Y153052D02*
D03*
X-502324Y170052D02*
D03*
Y153052D02*
D03*
X-485865Y170052D02*
D03*
Y153052D02*
D03*
X-469406D02*
D03*
Y170052D02*
D03*
D33*
X-554411Y159852D02*
D03*
Y202352D02*
D03*
D45*
X-78662Y302098D02*
D03*
X-92562D02*
D03*
X-124988D02*
D03*
X-111088D02*
D03*
X-198469Y271120D02*
D03*
X-212369D02*
D03*
X-198469Y285125D02*
D03*
X-212369D02*
D03*
X-198469Y327146D02*
D03*
X-212369D02*
D03*
X-111088Y316034D02*
D03*
X-124988D02*
D03*
Y343914D02*
D03*
X-111088D02*
D03*
X-78662Y273730D02*
D03*
X-92562D02*
D03*
Y245362D02*
D03*
X-78662D02*
D03*
X-198469Y257114D02*
D03*
X-212369D02*
D03*
X-198469Y299131D02*
D03*
X-212369D02*
D03*
Y214628D02*
D03*
X-198469D02*
D03*
Y313140D02*
D03*
X-212369D02*
D03*
X-120010Y99015D02*
D03*
X-106110D02*
D03*
X-92562Y170860D02*
D03*
X-78662D02*
D03*
X-120010D02*
D03*
X-106110D02*
D03*
Y186614D02*
D03*
X-120010D02*
D03*
X-198469Y186620D02*
D03*
X-212369D02*
D03*
X-198469Y130597D02*
D03*
X-212369D02*
D03*
X-198469Y144602D02*
D03*
X-212369D02*
D03*
X-198469Y158608D02*
D03*
X-212369D02*
D03*
X-198469Y172614D02*
D03*
X-212369D02*
D03*
X-120010Y214628D02*
D03*
X-106110D02*
D03*
X-78662Y142492D02*
D03*
X-92562D02*
D03*
X-198469Y116591D02*
D03*
X-212369D02*
D03*
Y200623D02*
D03*
X-198469D02*
D03*
X-78662Y259546D02*
D03*
X-92562D02*
D03*
X-262234Y92454D02*
D03*
X-248334D02*
D03*
X-78662Y128308D02*
D03*
X-92562D02*
D03*
D58*
X-168052Y131862D02*
D03*
X-153052D02*
D03*
X-168052Y174862D02*
D03*
X-153052D02*
D03*
Y306100D02*
D03*
X-168052D02*
D03*
X-153052Y263100D02*
D03*
X-168052D02*
D03*
D59*
X-177052Y150862D02*
D03*
Y155862D02*
D03*
Y160862D02*
D03*
Y165862D02*
D03*
Y170862D02*
D03*
Y145862D02*
D03*
Y140862D02*
D03*
Y135862D02*
D03*
X-144052Y150862D02*
D03*
Y155862D02*
D03*
Y160862D02*
D03*
Y165862D02*
D03*
Y170862D02*
D03*
Y145862D02*
D03*
Y140862D02*
D03*
Y135862D02*
D03*
Y267100D02*
D03*
Y272100D02*
D03*
Y277100D02*
D03*
Y302100D02*
D03*
Y297100D02*
D03*
Y292100D02*
D03*
Y287100D02*
D03*
Y282100D02*
D03*
X-177052Y267100D02*
D03*
Y272100D02*
D03*
Y277100D02*
D03*
Y302100D02*
D03*
Y297100D02*
D03*
Y292100D02*
D03*
Y287100D02*
D03*
Y282100D02*
D03*
D60*
X-160552Y153362D02*
D03*
Y284600D02*
D03*
D61*
X-448034Y134860D02*
D03*
Y147560D02*
D03*
Y160260D02*
D03*
Y185660D02*
D03*
Y223760D02*
D03*
Y236460D02*
D03*
Y249160D02*
D03*
Y261860D02*
D03*
Y274560D02*
D03*
Y287260D02*
D03*
Y299960D02*
D03*
X-278034D02*
D03*
Y287260D02*
D03*
Y274560D02*
D03*
Y261860D02*
D03*
Y249160D02*
D03*
Y223760D02*
D03*
Y198360D02*
D03*
Y185660D02*
D03*
Y172960D02*
D03*
Y160260D02*
D03*
Y147560D02*
D03*
Y134860D02*
D03*
D62*
X-420184Y309960D02*
D03*
X-407484D02*
D03*
X-394784D02*
D03*
X-382084D02*
D03*
X-369384D02*
D03*
X-331284D02*
D03*
X-318584D02*
D03*
X-305884D02*
D03*
D63*
X-391384Y191510D02*
D03*
X-373034D02*
D03*
X-354684D02*
D03*
X-391384Y209860D02*
D03*
X-373034D02*
D03*
X-354684D02*
D03*
X-391384Y228210D02*
D03*
X-373034Y228460D02*
D03*
X-354684Y228210D02*
D03*
D68*
X-511306Y102358D02*
D03*
X-493526D02*
D03*
X-502416Y77658D02*
D03*
X-562850Y102340D02*
D03*
X-545070D02*
D03*
X-553960Y77640D02*
D03*
D69*
X-497216Y289248D02*
D03*
X-481216D02*
D03*
X-497216Y272602D02*
D03*
X-481216D02*
D03*
X-497216Y255957D02*
D03*
X-481216D02*
D03*
X-497216Y239311D02*
D03*
X-481216D02*
D03*
X-497216Y222666D02*
D03*
X-481216D02*
D03*
D70*
X-148170Y220303D02*
D03*
X-170170D02*
D03*
Y236303D02*
D03*
X-148170D02*
D03*
X-149542Y89065D02*
D03*
X-171542D02*
D03*
Y105065D02*
D03*
X-149542D02*
D03*
D71*
X-143052Y249385D02*
D03*
X-153052D02*
D03*
X-174670Y249385D02*
D03*
X-164670D02*
D03*
X-145042Y118147D02*
D03*
X-155042D02*
D03*
X-176042D02*
D03*
X-166042D02*
D03*
M02*
