G04*
G04 #@! TF.GenerationSoftware,Altium Limited,Altium Designer,24.0.1 (36)*
G04*
G04 Layer_Color=32896*
%FSLAX44Y44*%
%MOMM*%
G71*
G04*
G04 #@! TF.SameCoordinates,11300C1B-94DD-46D1-A2B6-7A041ABCAB01*
G04*
G04*
G04 #@! TF.FilePolarity,Positive*
G04*
G01*
G75*
%ADD12C,0.1524*%
G36*
X-497610Y-49934D02*
X-497512Y-50429D01*
X-497610Y-50925D01*
X-497891Y-51345D01*
X-498311Y-51626D01*
X-498799Y-51723D01*
X-498713Y-51066D01*
X-498283Y-50028D01*
X-497890Y-49516D01*
X-497610Y-49934D01*
D02*
G37*
G36*
X-498311Y-59233D02*
X-497891Y-59514D01*
X-497610Y-59934D01*
X-497512Y-60429D01*
X-497610Y-60925D01*
X-497890Y-61343D01*
X-498283Y-60831D01*
X-498713Y-59793D01*
X-498799Y-59136D01*
X-498311Y-59233D01*
D02*
G37*
G36*
X-455386Y-48970D02*
Y-61945D01*
X-468418D01*
Y-61888D01*
X-455443D01*
Y-48970D01*
X-468418D01*
Y-48913D01*
X-455386D01*
Y-48970D01*
D02*
G37*
G36*
X-471386D02*
X-484361D01*
Y-61888D01*
X-471386D01*
Y-61945D01*
X-484418D01*
Y-61888D01*
Y-48970D01*
Y-48913D01*
X-471386D01*
Y-48970D01*
D02*
G37*
G36*
X-497610Y-66579D02*
X-497512Y-67075D01*
X-497610Y-67570D01*
X-497891Y-67990D01*
X-498311Y-68271D01*
X-498799Y-68368D01*
X-498713Y-67711D01*
X-498283Y-66673D01*
X-497890Y-66161D01*
X-497610Y-66579D01*
D02*
G37*
G36*
X-498311Y-75879D02*
X-497891Y-76159D01*
X-497610Y-76579D01*
X-497512Y-77075D01*
X-497610Y-77570D01*
X-497890Y-77989D01*
X-498283Y-77476D01*
X-498713Y-76438D01*
X-498799Y-75781D01*
X-498311Y-75879D01*
D02*
G37*
G36*
X-455386Y-65616D02*
Y-78591D01*
X-468418D01*
Y-78534D01*
X-455443D01*
Y-65616D01*
X-468418D01*
Y-65559D01*
X-455386D01*
Y-65616D01*
D02*
G37*
G36*
X-471386D02*
X-484361D01*
Y-78534D01*
X-471386D01*
Y-78591D01*
X-484418D01*
Y-78534D01*
Y-65616D01*
Y-65559D01*
X-471386D01*
Y-65616D01*
D02*
G37*
G36*
X-497610Y-83225D02*
X-497512Y-83720D01*
X-497610Y-84216D01*
X-497891Y-84636D01*
X-498311Y-84917D01*
X-498799Y-85014D01*
X-498713Y-84357D01*
X-498283Y-83319D01*
X-497890Y-82807D01*
X-497610Y-83225D01*
D02*
G37*
G36*
X-91866Y-88881D02*
X-91430Y-89062D01*
X-91361Y-89131D01*
X-91148Y-89647D01*
X-91465Y-90412D01*
X-92230Y-90729D01*
X-92289D01*
X-92384Y-90666D01*
X-92619Y-90485D01*
X-92711Y-90447D01*
X-92962Y-90280D01*
X-93257Y-90221D01*
X-93349Y-90183D01*
X-93643Y-90144D01*
X-94132Y-90047D01*
X-94621Y-90144D01*
X-94915Y-90183D01*
X-95007Y-90221D01*
X-95303Y-90280D01*
X-95553Y-90447D01*
X-95645Y-90485D01*
X-95706Y-90532D01*
X-95995Y-90412D01*
X-96313Y-89647D01*
X-95995Y-88881D01*
X-95230Y-88564D01*
X-92632D01*
X-91866Y-88881D01*
D02*
G37*
G36*
X-498311Y-92524D02*
X-497891Y-92805D01*
X-497610Y-93225D01*
X-497512Y-93720D01*
X-497610Y-94216D01*
X-497890Y-94634D01*
X-498283Y-94122D01*
X-498713Y-93084D01*
X-498799Y-92427D01*
X-498311Y-92524D01*
D02*
G37*
G36*
X-455386Y-82261D02*
Y-95236D01*
X-468418D01*
Y-95179D01*
X-455443D01*
Y-82261D01*
X-468418D01*
Y-82204D01*
X-455386D01*
Y-82261D01*
D02*
G37*
G36*
X-471386D02*
X-484361D01*
Y-95179D01*
X-471386D01*
Y-95236D01*
X-484418D01*
Y-95179D01*
Y-82261D01*
Y-82204D01*
X-471386D01*
Y-82261D01*
D02*
G37*
G36*
X-95880Y-95546D02*
X-95693Y-95689D01*
X-95995Y-95564D01*
X-96050Y-95432D01*
X-95880Y-95546D01*
D02*
G37*
G36*
X-91148Y-94799D02*
X-91465Y-95564D01*
X-92230Y-95881D01*
X-92886D01*
X-92711Y-95764D01*
X-92619Y-95726D01*
X-92384Y-95546D01*
X-91969Y-95268D01*
X-91692Y-94854D01*
X-91512Y-94619D01*
X-91474Y-94527D01*
X-91342Y-94330D01*
X-91148Y-94799D01*
D02*
G37*
G36*
X-120589Y-99832D02*
X-120704Y-99880D01*
X-120499Y-99742D01*
X-120294Y-99605D01*
X-120294Y-99605D01*
X-120294Y-99605D01*
X-120589Y-99832D01*
D02*
G37*
G36*
X-158390Y-99880D02*
X-158506Y-99832D01*
X-158801Y-99605D01*
X-158390Y-99880D01*
D02*
G37*
G36*
X-137183Y-99605D02*
X-136887Y-99832D01*
X-136772Y-99880D01*
X-136458Y-100090D01*
X-136364Y-100108D01*
X-138372D01*
Y-101457D01*
X-141341D01*
Y-100108D01*
X-141914D01*
X-141908Y-100079D01*
X-141386Y-99297D01*
X-141383Y-99292D01*
X-137652D01*
X-137183Y-99605D01*
D02*
G37*
G36*
X-497610Y-99870D02*
X-497512Y-100366D01*
X-497610Y-100861D01*
X-497891Y-101281D01*
X-498311Y-101562D01*
X-498799Y-101659D01*
X-498713Y-101002D01*
X-498283Y-99964D01*
X-497890Y-99452D01*
X-497610Y-99870D01*
D02*
G37*
G36*
X-498311Y-109170D02*
X-497891Y-109450D01*
X-497610Y-109870D01*
X-497512Y-110366D01*
X-497610Y-110861D01*
X-497890Y-111280D01*
X-498283Y-110767D01*
X-498713Y-109729D01*
X-498799Y-109072D01*
X-498311Y-109170D01*
D02*
G37*
G36*
X-471386Y-98907D02*
X-484361D01*
Y-111825D01*
X-471386D01*
Y-111882D01*
X-484418D01*
Y-111825D01*
Y-98907D01*
Y-98850D01*
X-471386D01*
Y-98907D01*
D02*
G37*
G36*
X-455386D02*
Y-111723D01*
X-454997Y-111425D01*
X-454361Y-111161D01*
Y-112366D01*
X-454519Y-112748D01*
X-454902Y-112907D01*
X-456260D01*
X-456105Y-112532D01*
X-455624Y-111905D01*
X-455593Y-111882D01*
X-468418D01*
Y-111825D01*
X-455443D01*
Y-98907D01*
X-468418D01*
Y-98850D01*
X-455386D01*
Y-98907D01*
D02*
G37*
G36*
X-454519Y-114629D02*
X-454361Y-115011D01*
Y-116929D01*
X-454997Y-116665D01*
X-455386Y-116367D01*
Y-128527D01*
X-468418D01*
Y-128470D01*
X-455443D01*
Y-115553D01*
X-468418D01*
Y-115495D01*
X-456130D01*
X-456407Y-114828D01*
X-456454Y-114470D01*
X-454902D01*
X-454519Y-114629D01*
D02*
G37*
G36*
X-497610Y-116516D02*
X-497512Y-117011D01*
X-497610Y-117507D01*
X-497891Y-117927D01*
X-498311Y-118208D01*
X-498799Y-118305D01*
X-498713Y-117648D01*
X-498283Y-116610D01*
X-497890Y-116098D01*
X-497610Y-116516D01*
D02*
G37*
G36*
X-498311Y-125815D02*
X-497891Y-126096D01*
X-497610Y-126516D01*
X-497512Y-127011D01*
X-497610Y-127507D01*
X-497890Y-127925D01*
X-498283Y-127413D01*
X-498713Y-126375D01*
X-498799Y-125718D01*
X-498311Y-125815D01*
D02*
G37*
G36*
X-471386Y-115553D02*
X-484361D01*
Y-128470D01*
X-471386D01*
Y-128527D01*
X-484418D01*
Y-115553D01*
Y-115495D01*
X-471386D01*
Y-115553D01*
D02*
G37*
G36*
X-119422Y-131202D02*
X-119422Y-131825D01*
X-119570Y-132410D01*
X-120051D01*
X-120298Y-132640D01*
X-119340D01*
Y-131219D01*
X-119279Y-131194D01*
X-119187Y-131156D01*
X-118801Y-131079D01*
X-118782Y-131077D01*
X-118774Y-131075D01*
Y-132374D01*
X-119091Y-133139D01*
X-119857Y-133457D01*
X-121255D01*
X-121197Y-133166D01*
X-121131Y-133007D01*
X-120692D01*
X-120298Y-132640D01*
X-120051Y-132410D01*
X-120218Y-132566D01*
X-120061Y-132420D01*
X-119422Y-131825D01*
X-119422Y-126163D01*
X-119422Y-131202D01*
D02*
G37*
G36*
X-516930Y-186476D02*
X-516930Y-186477D01*
X-516930Y-136829D01*
X-516930Y-136829D01*
Y-186476D01*
D02*
G37*
G36*
X-414688Y-207567D02*
Y-212067D01*
X-414817Y-213046D01*
X-414848Y-213122D01*
X-415432Y-212360D01*
X-415861Y-211327D01*
X-416007Y-210217D01*
X-415861Y-209107D01*
X-415432Y-208074D01*
X-414751Y-207186D01*
X-414739Y-207177D01*
X-414688Y-207567D01*
D02*
G37*
G36*
X-445728Y-220637D02*
X-445598Y-220691D01*
X-446147Y-220582D01*
X-445728Y-220637D01*
D02*
G37*
G36*
X-454586Y-220691D02*
X-454456Y-220637D01*
X-454037Y-220582D01*
X-454586Y-220691D01*
D02*
G37*
G36*
X-444691Y-221067D02*
X-444356Y-221324D01*
X-444821Y-221012D01*
X-444691Y-221067D01*
D02*
G37*
G36*
X-455828Y-221324D02*
X-455494Y-221067D01*
X-455363Y-221012D01*
X-455828Y-221324D01*
D02*
G37*
G36*
X-478796Y-219548D02*
X-478697Y-220043D01*
X-478796Y-220539D01*
X-479076Y-220959D01*
X-479497Y-221239D01*
X-479985Y-221336D01*
X-479898Y-220679D01*
X-479468Y-219642D01*
X-479075Y-219129D01*
X-478796Y-219548D01*
D02*
G37*
G36*
X-486516Y-219642D02*
X-486086Y-220679D01*
X-485999Y-221336D01*
X-486488Y-221239D01*
X-486908Y-220959D01*
X-487188Y-220539D01*
X-487287Y-220043D01*
X-487188Y-219548D01*
X-486909Y-219129D01*
X-486516Y-219642D01*
D02*
G37*
G36*
X-530090Y-219548D02*
X-529991Y-220043D01*
X-530090Y-220539D01*
X-530370Y-220959D01*
X-530790Y-221239D01*
X-531279Y-221336D01*
X-531192Y-220679D01*
X-530762Y-219642D01*
X-530369Y-219129D01*
X-530090Y-219548D01*
D02*
G37*
G36*
X-537810Y-219642D02*
X-537380Y-220679D01*
X-537293Y-221336D01*
X-537782Y-221239D01*
X-538202Y-220959D01*
X-538482Y-220539D01*
X-538581Y-220043D01*
X-538482Y-219548D01*
X-538203Y-219129D01*
X-537810Y-219642D01*
D02*
G37*
G36*
X-479497Y-228847D02*
X-479076Y-229127D01*
X-478796Y-229547D01*
X-478697Y-230043D01*
X-478796Y-230539D01*
X-479075Y-230957D01*
X-479468Y-230444D01*
X-479898Y-229407D01*
X-479985Y-228750D01*
X-479497Y-228847D01*
D02*
G37*
G36*
X-486086Y-229407D02*
X-486516Y-230444D01*
X-486909Y-230957D01*
X-487188Y-230539D01*
X-487287Y-230043D01*
X-487188Y-229547D01*
X-486908Y-229127D01*
X-486488Y-228847D01*
X-485999Y-228750D01*
X-486086Y-229407D01*
D02*
G37*
G36*
X-530790Y-228847D02*
X-530370Y-229127D01*
X-530090Y-229547D01*
X-529991Y-230043D01*
X-530090Y-230539D01*
X-530369Y-230957D01*
X-530762Y-230444D01*
X-531192Y-229407D01*
X-531279Y-228750D01*
X-530790Y-228847D01*
D02*
G37*
G36*
X-537380Y-229407D02*
X-537810Y-230444D01*
X-538203Y-230957D01*
X-538482Y-230539D01*
X-538581Y-230043D01*
X-538482Y-229547D01*
X-538202Y-229127D01*
X-537782Y-228847D01*
X-537293Y-228750D01*
X-537380Y-229407D01*
D02*
G37*
G36*
X-149762Y-231117D02*
X-149877Y-231070D01*
X-149890Y-231060D01*
Y-231032D01*
X-149762Y-231117D01*
D02*
G37*
G36*
X-159762D02*
X-159877Y-231070D01*
X-160173Y-230843D01*
X-159762Y-231117D01*
D02*
G37*
G36*
X-497257Y-238804D02*
X-497063Y-239779D01*
X-497257Y-240754D01*
X-497758Y-241504D01*
Y-238054D01*
X-497257Y-238804D01*
D02*
G37*
G36*
X-548801Y-238822D02*
X-548607Y-239797D01*
X-548801Y-240772D01*
X-549302Y-241522D01*
Y-238072D01*
X-548801Y-238822D01*
D02*
G37*
G36*
X-551303Y-237564D02*
X-550676Y-238045D01*
X-550195Y-238671D01*
X-550028Y-239075D01*
Y-241294D01*
X-550195Y-241697D01*
X-550610Y-242237D01*
X-551156Y-242346D01*
X-552132Y-242152D01*
X-552958Y-241599D01*
X-553511Y-240772D01*
X-553705Y-239797D01*
X-553511Y-238822D01*
X-552958Y-237995D01*
X-552132Y-237442D01*
X-551770Y-237370D01*
X-551303Y-237564D01*
D02*
G37*
G36*
X-550028Y-254583D02*
X-550187Y-254376D01*
Y-252037D01*
X-550029Y-251654D01*
X-550028Y-251654D01*
Y-254583D01*
D02*
G37*
G36*
Y-255105D02*
Y-256739D01*
X-550187Y-257123D01*
Y-254720D01*
X-550028Y-255105D01*
D02*
G37*
G36*
X-254445Y13622D02*
X-254557Y13608D01*
X-254670D01*
X-254811Y13580D01*
X-255107Y13537D01*
X-255445Y13453D01*
X-255826Y13354D01*
X-256221Y13213D01*
X-256235D01*
X-256249Y13199D01*
X-256320Y13171D01*
X-256432Y13143D01*
X-256559Y13100D01*
X-256686Y13044D01*
X-256813Y13016D01*
X-256926Y12988D01*
X-257010Y12974D01*
X-257052D01*
X-257137Y12988D01*
X-257250Y13044D01*
X-257320Y13072D01*
X-257377Y13128D01*
X-257391Y13143D01*
X-257405Y13157D01*
X-257433Y13199D01*
X-257461Y13255D01*
X-257504Y13326D01*
X-257532Y13411D01*
X-257560Y13509D01*
X-257588Y13636D01*
X-254360D01*
X-254445Y13622D01*
D02*
G37*
G36*
X-249229Y8829D02*
X-249243Y8928D01*
Y9040D01*
X-249271Y9181D01*
X-249285Y9322D01*
X-249313Y9492D01*
X-249398Y9872D01*
X-249511Y10295D01*
X-249680Y10732D01*
X-249793Y10943D01*
X-249905Y11169D01*
X-249919Y11183D01*
X-249934Y11225D01*
X-249976Y11282D01*
X-250032Y11366D01*
X-250103Y11465D01*
X-250187Y11578D01*
X-250272Y11705D01*
X-250385Y11832D01*
X-250653Y12128D01*
X-250963Y12424D01*
X-251329Y12720D01*
X-251738Y12988D01*
X-251752Y13002D01*
X-251794Y13016D01*
X-251851Y13044D01*
X-251935Y13086D01*
X-252048Y13143D01*
X-252175Y13199D01*
X-252316Y13255D01*
X-252485Y13312D01*
X-252654Y13368D01*
X-252852Y13425D01*
X-253260Y13537D01*
X-253712Y13608D01*
X-253951Y13636D01*
X-249229D01*
Y8829D01*
D02*
G37*
G36*
X-347443Y13128D02*
X-347386D01*
X-347231Y13072D01*
X-347161Y13030D01*
X-347090Y12974D01*
X-347076Y12959D01*
X-347048Y12931D01*
X-347006Y12861D01*
X-346949Y12776D01*
X-346893Y12663D01*
X-346836Y12522D01*
X-346794Y12353D01*
X-346752Y12142D01*
Y12128D01*
Y12113D01*
X-346738Y12071D01*
Y12001D01*
Y11902D01*
X-346724Y11775D01*
Y11606D01*
X-346710Y11409D01*
X-346695Y11155D01*
Y10873D01*
X-346681Y10535D01*
Y10154D01*
Y9929D01*
Y9703D01*
X-346667Y9463D01*
Y9210D01*
Y8928D01*
Y8646D01*
Y8335D01*
Y8011D01*
Y7983D01*
Y7927D01*
Y7828D01*
Y7701D01*
Y7546D01*
X-346681Y7363D01*
Y7165D01*
Y6968D01*
X-346695Y6531D01*
X-346724Y6108D01*
X-346738Y5897D01*
X-346752Y5713D01*
X-346766Y5558D01*
X-346794Y5418D01*
Y5403D01*
X-346808Y5347D01*
X-346836Y5262D01*
X-346865Y5164D01*
X-346949Y4952D01*
X-347006Y4854D01*
X-347076Y4783D01*
X-347090D01*
X-347118Y4755D01*
X-347161Y4741D01*
X-347217Y4713D01*
X-347287Y4684D01*
X-347372Y4656D01*
X-347471Y4642D01*
X-347584Y4628D01*
X-347640D01*
X-347696Y4642D01*
X-347781Y4656D01*
X-347851Y4684D01*
X-347936Y4713D01*
X-348021Y4769D01*
X-348091Y4839D01*
X-348105Y4854D01*
X-348133Y4910D01*
X-348190Y4995D01*
X-348232Y5121D01*
X-348288Y5276D01*
X-348345Y5488D01*
X-348387Y5713D01*
X-348415Y5995D01*
X-348443Y8885D01*
Y8913D01*
Y8984D01*
Y9111D01*
Y9266D01*
Y9449D01*
Y9661D01*
Y9886D01*
Y10126D01*
Y10605D01*
X-348429Y10845D01*
Y11056D01*
Y11254D01*
Y11437D01*
X-348415Y11564D01*
Y11662D01*
Y11676D01*
Y11705D01*
X-348401Y11747D01*
Y11818D01*
X-348387Y11973D01*
X-348345Y12170D01*
X-348302Y12381D01*
X-348246Y12579D01*
X-348176Y12776D01*
X-348133Y12847D01*
X-348091Y12917D01*
X-348077Y12931D01*
X-348063Y12959D01*
X-348021Y12988D01*
X-347964Y13030D01*
X-347879Y13072D01*
X-347795Y13114D01*
X-347668Y13128D01*
X-347541Y13143D01*
X-347499D01*
X-347443Y13128D01*
D02*
G37*
G36*
X-257856Y10478D02*
X-257588D01*
Y10492D01*
X-257574Y10535D01*
X-257560Y10591D01*
X-257532Y10690D01*
X-257490Y10788D01*
X-257447Y10901D01*
X-257334Y11183D01*
X-257194Y11493D01*
X-256996Y11803D01*
X-256771Y12113D01*
X-256489Y12381D01*
X-256475Y12395D01*
X-256446Y12410D01*
X-256404Y12438D01*
X-256348Y12480D01*
X-256277Y12536D01*
X-256178Y12593D01*
X-255967Y12720D01*
X-255685Y12832D01*
X-255389Y12945D01*
X-255037Y13016D01*
X-254853Y13044D01*
X-254586D01*
X-254529Y13030D01*
X-254445D01*
X-254360Y13016D01*
X-254149Y12988D01*
X-253909Y12917D01*
X-253641Y12832D01*
X-253373Y12720D01*
X-253105Y12550D01*
X-253091D01*
X-253077Y12522D01*
X-252993Y12466D01*
X-252866Y12353D01*
X-252711Y12198D01*
X-252542Y12015D01*
X-252372Y11789D01*
X-252203Y11536D01*
X-252062Y11254D01*
Y11240D01*
X-252048Y11211D01*
X-252020Y11155D01*
X-252006Y11070D01*
X-251964Y10986D01*
X-251935Y10873D01*
X-251893Y10732D01*
X-251865Y10591D01*
X-251823Y10436D01*
X-251780Y10253D01*
X-251724Y9872D01*
X-251667Y9449D01*
X-251653Y8998D01*
Y8984D01*
Y8942D01*
Y8885D01*
Y8787D01*
X-251667Y8688D01*
Y8561D01*
X-251682Y8420D01*
X-251696Y8265D01*
X-251724Y7913D01*
X-251780Y7546D01*
X-251851Y7151D01*
X-251949Y6771D01*
Y6757D01*
X-251964Y6729D01*
X-251978Y6672D01*
X-252006Y6602D01*
X-252048Y6517D01*
X-252076Y6432D01*
X-252189Y6207D01*
X-252316Y5953D01*
X-252485Y5713D01*
X-252682Y5460D01*
X-252908Y5248D01*
X-252922D01*
X-252936Y5220D01*
X-252978Y5206D01*
X-253035Y5164D01*
X-253176Y5093D01*
X-253373Y4995D01*
X-253613Y4896D01*
X-253909Y4825D01*
X-254247Y4769D01*
X-254614Y4741D01*
X-254755D01*
X-254839Y4755D01*
X-254924D01*
X-255135Y4783D01*
X-255375Y4825D01*
X-255643Y4896D01*
X-255911Y4981D01*
X-256178Y5107D01*
X-256193D01*
X-256207Y5121D01*
X-256249Y5150D01*
X-256305Y5178D01*
X-256446Y5276D01*
X-256644Y5418D01*
X-256869Y5587D01*
X-257123Y5812D01*
X-257405Y6080D01*
X-257701Y6404D01*
Y5629D01*
X-257687Y5615D01*
X-257673Y5601D01*
X-257631Y5558D01*
X-257574Y5502D01*
X-257419Y5361D01*
X-257208Y5178D01*
X-256968Y4995D01*
X-256700Y4797D01*
X-256404Y4614D01*
X-256094Y4459D01*
X-256080D01*
X-256052Y4445D01*
X-256009Y4431D01*
X-255953Y4403D01*
X-255868Y4374D01*
X-255784Y4346D01*
X-255671Y4318D01*
X-255544Y4290D01*
X-255262Y4219D01*
X-254938Y4163D01*
X-254571Y4121D01*
X-254163Y4106D01*
X-254022D01*
X-253923Y4121D01*
X-253796D01*
X-253641Y4135D01*
X-253472Y4149D01*
X-253303Y4177D01*
X-252894Y4247D01*
X-252457Y4346D01*
X-252020Y4487D01*
X-251583Y4684D01*
X-251569Y4699D01*
X-251541Y4713D01*
X-251470Y4741D01*
X-251400Y4797D01*
X-251301Y4854D01*
X-251188Y4924D01*
X-250949Y5107D01*
X-250667Y5347D01*
X-250371Y5643D01*
X-250089Y5981D01*
X-249835Y6362D01*
Y6376D01*
X-249807Y6418D01*
X-249778Y6475D01*
X-249736Y6559D01*
X-249694Y6658D01*
X-249638Y6771D01*
X-249595Y6912D01*
X-249539Y7067D01*
X-249482Y7236D01*
X-249426Y7419D01*
X-249327Y7814D01*
X-249257Y8251D01*
X-249243Y8476D01*
X-249229Y8702D01*
Y4106D01*
Y1357D01*
X-295128D01*
Y2217D01*
X-302262D01*
Y1357D01*
X-350516D01*
Y4135D01*
Y8646D01*
X-350502Y8519D01*
Y8378D01*
X-350488Y8223D01*
X-350473Y8040D01*
X-350417Y7645D01*
X-350346Y7222D01*
X-350248Y6771D01*
X-350121Y6320D01*
Y6306D01*
X-350107Y6291D01*
X-350079Y6207D01*
X-350022Y6066D01*
X-349966Y5897D01*
X-349867Y5713D01*
X-349768Y5516D01*
X-349642Y5319D01*
X-349501Y5135D01*
X-349487Y5121D01*
X-349430Y5065D01*
X-349360Y4981D01*
X-349247Y4868D01*
X-349120Y4755D01*
X-348965Y4628D01*
X-348810Y4515D01*
X-348627Y4403D01*
X-348599Y4388D01*
X-348542Y4360D01*
X-348443Y4318D01*
X-348316Y4276D01*
X-348162Y4219D01*
X-347978Y4177D01*
X-347781Y4149D01*
X-347569Y4135D01*
X-347457D01*
X-347330Y4149D01*
X-347175Y4177D01*
X-346991Y4219D01*
X-346780Y4276D01*
X-346583Y4346D01*
X-346371Y4459D01*
X-346343Y4473D01*
X-346287Y4515D01*
X-346188Y4600D01*
X-346061Y4713D01*
X-345920Y4839D01*
X-345765Y5009D01*
X-345596Y5192D01*
X-345441Y5418D01*
X-345427Y5446D01*
X-345398Y5502D01*
X-345342Y5601D01*
X-345272Y5742D01*
X-345187Y5925D01*
X-345102Y6136D01*
X-345004Y6376D01*
X-344919Y6644D01*
Y6658D01*
X-344905Y6686D01*
X-344891Y6743D01*
X-344877Y6827D01*
X-344849Y6912D01*
X-344835Y7024D01*
X-344806Y7151D01*
X-344778Y7292D01*
X-344722Y7602D01*
X-344679Y7969D01*
X-344651Y8350D01*
X-344637Y8759D01*
Y9012D01*
X-344651Y9139D01*
X-344665Y9294D01*
Y9463D01*
X-344694Y9661D01*
X-344708Y9858D01*
X-344736Y10070D01*
X-344806Y10535D01*
X-344905Y11000D01*
X-345046Y11479D01*
Y11493D01*
X-345060Y11522D01*
X-345088Y11578D01*
X-345117Y11648D01*
X-345145Y11733D01*
X-345187Y11832D01*
X-345300Y12057D01*
X-345441Y12311D01*
X-345624Y12579D01*
X-345835Y12832D01*
X-346075Y13058D01*
X-346089D01*
X-346103Y13086D01*
X-346146Y13114D01*
X-346202Y13143D01*
X-346343Y13227D01*
X-346526Y13340D01*
X-346752Y13439D01*
X-347006Y13523D01*
X-347273Y13580D01*
X-347569Y13608D01*
X-347654D01*
X-347710Y13594D01*
X-347851Y13580D01*
X-348049Y13537D01*
X-348274Y13481D01*
X-348528Y13382D01*
X-348782Y13241D01*
X-349050Y13058D01*
X-349064D01*
X-349078Y13030D01*
X-349162Y12959D01*
X-349289Y12847D01*
X-349430Y12677D01*
X-349599Y12466D01*
X-349768Y12226D01*
X-349924Y11930D01*
X-350065Y11606D01*
Y11592D01*
X-350079Y11550D01*
X-350107Y11479D01*
X-350135Y11380D01*
X-350163Y11268D01*
X-350205Y11127D01*
X-350248Y10972D01*
X-350290Y10788D01*
X-350332Y10605D01*
X-350375Y10394D01*
X-350417Y10168D01*
X-350445Y9929D01*
X-350502Y9421D01*
X-350516Y8871D01*
Y13608D01*
Y13636D01*
X-257856D01*
Y10478D01*
D02*
G37*
G36*
X-249570Y21728D02*
Y23749D01*
X-249593Y23842D01*
X-249617Y24054D01*
X-249687Y24359D01*
X-249828Y24688D01*
X-249993Y25041D01*
X-250251Y25417D01*
X-250392Y25581D01*
X-250580Y25769D01*
X-250604Y25793D01*
X-250627Y25816D01*
X-250698Y25863D01*
X-250792Y25957D01*
X-250933Y26051D01*
X-251097Y26168D01*
X-251285Y26286D01*
X-251544Y26451D01*
X-251802Y26615D01*
X-252131Y26826D01*
X-252507Y27038D01*
X-252930Y27249D01*
X-253376Y27508D01*
X-253893Y27766D01*
X-254457Y28048D01*
X-255091Y28330D01*
Y29387D01*
Y29411D01*
Y29434D01*
Y29575D01*
Y29787D01*
X-255068Y30022D01*
Y30257D01*
X-255044Y30515D01*
X-254997Y30727D01*
X-254950Y30868D01*
Y30891D01*
X-254927Y30914D01*
X-254856Y31056D01*
X-254692Y31220D01*
X-254598Y31314D01*
X-254457Y31408D01*
X-254433D01*
X-254386Y31455D01*
X-254316Y31478D01*
X-254222Y31525D01*
X-253963Y31596D01*
X-253658Y31643D01*
X-253540D01*
X-253400Y31619D01*
X-253235Y31596D01*
X-252836Y31502D01*
X-252648Y31431D01*
X-252460Y31314D01*
X-252436D01*
X-252413Y31267D01*
X-252319Y31173D01*
X-252201Y31032D01*
X-252178Y30938D01*
X-252154Y30844D01*
Y30797D01*
X-252201Y30680D01*
X-252295Y30492D01*
X-252366Y30374D01*
X-252483Y30257D01*
X-252507Y30233D01*
X-252554Y30186D01*
X-252624Y30092D01*
X-252695Y29975D01*
X-252836Y29669D01*
X-252883Y29505D01*
X-252906Y29340D01*
Y29317D01*
Y29246D01*
X-252883Y29152D01*
X-252859Y29011D01*
X-252812Y28870D01*
X-252718Y28706D01*
X-252624Y28542D01*
X-252483Y28401D01*
X-252460Y28377D01*
X-252413Y28354D01*
X-252319Y28283D01*
X-252201Y28213D01*
X-252060Y28142D01*
X-251872Y28095D01*
X-251661Y28048D01*
X-251426Y28025D01*
X-251308D01*
X-251168Y28048D01*
X-251027Y28072D01*
X-250839Y28119D01*
X-250627Y28213D01*
X-250439Y28307D01*
X-250251Y28447D01*
X-250228Y28471D01*
X-250181Y28518D01*
X-250110Y28612D01*
X-250016Y28730D01*
X-249922Y28870D01*
X-249852Y29035D01*
X-249805Y29223D01*
X-249781Y29434D01*
Y29481D01*
Y29575D01*
X-249805Y29716D01*
X-249852Y29928D01*
X-249946Y30163D01*
X-250040Y30421D01*
X-250204Y30680D01*
X-250416Y30961D01*
X-250439Y30985D01*
X-250533Y31079D01*
X-250674Y31220D01*
X-250886Y31384D01*
X-251121Y31549D01*
X-251426Y31737D01*
X-251778Y31925D01*
X-252178Y32089D01*
X-252201D01*
X-252225Y32113D01*
X-252295Y32136D01*
X-252389Y32160D01*
X-252601Y32207D01*
X-252906Y32301D01*
X-253259Y32371D01*
X-253682Y32418D01*
X-254104Y32465D01*
X-254574Y32489D01*
X-259626D01*
X-254809D01*
X-255091Y32465D01*
X-255420Y32418D01*
X-255796Y32324D01*
X-256196Y32230D01*
X-256571Y32066D01*
X-256924Y31854D01*
X-256971Y31831D01*
X-257065Y31737D01*
X-257206Y31619D01*
X-257394Y31455D01*
X-257582Y31243D01*
X-257770Y31009D01*
X-257934Y30750D01*
X-258052Y30468D01*
Y30445D01*
X-258075Y30374D01*
X-258099Y30233D01*
X-258146Y30022D01*
X-258169Y29740D01*
Y29575D01*
X-258193Y29364D01*
Y29152D01*
X-258216Y28894D01*
Y28635D01*
Y28330D01*
Y24265D01*
Y24242D01*
Y24148D01*
Y24030D01*
Y23890D01*
X-258239Y23584D01*
Y23467D01*
X-258263Y23373D01*
Y23349D01*
X-258310Y23279D01*
X-258357Y23185D01*
X-258428Y23091D01*
X-258451D01*
X-258498Y23067D01*
X-258592Y23044D01*
X-258686Y23020D01*
X-258733D01*
X-258874Y23067D01*
X-258944Y23114D01*
X-259062Y23185D01*
X-259156Y23279D01*
X-259273Y23420D01*
X-259626Y23161D01*
X-259602Y23114D01*
X-259532Y23020D01*
X-259414Y22879D01*
X-259273Y22691D01*
X-259085Y22503D01*
X-258897Y22292D01*
X-258686Y22104D01*
X-258451Y21939D01*
X-258428Y21916D01*
X-258357Y21892D01*
X-258216Y21822D01*
X-258052Y21775D01*
X-257864Y21704D01*
X-257629Y21634D01*
X-257370Y21611D01*
X-257088Y21587D01*
X-254292D01*
X-256947D01*
X-256783Y21611D01*
X-256571Y21634D01*
X-256360Y21681D01*
X-256125Y21751D01*
X-255890Y21845D01*
X-255679Y21986D01*
X-255655Y22010D01*
X-255608Y22057D01*
X-255514Y22174D01*
X-255420Y22315D01*
X-255326Y22480D01*
X-255232Y22715D01*
X-255138Y22973D01*
X-255091Y23279D01*
X-255068Y23255D01*
X-254997Y23208D01*
X-254903Y23114D01*
X-254762Y23020D01*
X-254598Y22879D01*
X-254410Y22738D01*
X-254175Y22597D01*
X-253940Y22433D01*
X-253400Y22127D01*
X-252812Y21845D01*
X-252530Y21751D01*
X-252225Y21658D01*
X-251919Y21611D01*
X-251637Y21587D01*
X-251497D01*
X-251332Y21611D01*
X-251121Y21658D01*
X-250886Y21728D01*
X-250627Y21822D01*
X-250392Y21963D01*
X-250157Y22151D01*
X-250134Y22174D01*
X-250063Y22268D01*
X-249969Y22386D01*
X-249875Y22550D01*
X-249758Y22762D01*
X-249664Y23020D01*
X-249593Y23302D01*
X-249570Y23631D01*
Y21587D01*
D01*
Y16818D01*
X-292260D01*
Y17405D01*
Y17217D01*
X-292378D01*
X-292495Y17240D01*
X-292636Y17287D01*
X-292824Y17334D01*
X-292989Y17405D01*
X-293153Y17499D01*
X-293294Y17616D01*
Y17640D01*
X-293341Y17663D01*
X-293365Y17757D01*
X-293412Y17875D01*
X-293458Y18063D01*
X-293482Y18298D01*
X-293529Y18580D01*
Y18956D01*
Y29998D01*
Y30022D01*
Y30045D01*
Y30186D01*
X-293505Y30374D01*
Y30586D01*
X-293458Y30821D01*
X-293412Y31056D01*
X-293341Y31267D01*
X-293247Y31408D01*
X-293224Y31431D01*
X-293200Y31455D01*
X-293130Y31525D01*
X-293036Y31572D01*
X-292895Y31643D01*
X-292730Y31713D01*
X-292519Y31760D01*
X-292260Y31784D01*
Y21822D01*
Y32489D01*
Y32183D01*
X-296654D01*
Y30797D01*
X-296677Y30844D01*
X-296748Y30938D01*
X-296865Y31079D01*
X-297006Y31243D01*
X-297171Y31431D01*
X-297359Y31619D01*
X-297547Y31807D01*
X-297758Y31948D01*
X-297805Y31972D01*
X-297899Y32042D01*
X-298064Y32113D01*
X-298298Y32230D01*
X-298557Y32324D01*
X-298862Y32395D01*
X-299191Y32465D01*
X-299544Y32489D01*
X-299732D01*
X-299967Y32442D01*
X-300249Y32395D01*
X-300554Y32301D01*
X-300907Y32183D01*
X-301282Y31995D01*
X-301635Y31760D01*
X-301682Y31737D01*
X-301799Y31619D01*
X-301964Y31455D01*
X-302175Y31243D01*
X-302410Y30938D01*
X-302645Y30609D01*
X-302880Y30210D01*
X-303092Y29740D01*
Y29716D01*
X-303115Y29693D01*
X-303139Y29622D01*
X-303162Y29528D01*
X-303209Y29411D01*
X-303256Y29270D01*
X-303350Y28917D01*
X-303420Y28518D01*
X-303514Y28048D01*
X-303561Y27531D01*
X-303585Y26991D01*
Y16818D01*
X-325341D01*
Y17240D01*
Y17217D01*
X-325459D01*
X-325576Y17240D01*
X-325717Y17287D01*
X-325905Y17334D01*
X-326070Y17405D01*
X-326234Y17499D01*
X-326375Y17616D01*
Y17640D01*
X-326422Y17663D01*
X-326446Y17757D01*
X-326493Y17875D01*
X-326539Y18063D01*
X-326563Y18298D01*
X-326610Y18580D01*
Y18956D01*
Y29998D01*
Y30022D01*
Y30045D01*
Y30186D01*
X-326586Y30374D01*
Y30586D01*
X-326539Y30821D01*
X-326493Y31056D01*
X-326422Y31267D01*
X-326328Y31408D01*
X-326305Y31431D01*
X-326281Y31455D01*
X-326211Y31525D01*
X-326117Y31572D01*
X-325976Y31643D01*
X-325811Y31713D01*
X-325600Y31760D01*
X-325341Y31784D01*
Y27273D01*
Y32489D01*
Y32183D01*
X-329735D01*
Y30797D01*
X-329758Y30844D01*
X-329829Y30938D01*
X-329946Y31079D01*
X-330087Y31243D01*
X-330252Y31431D01*
X-330440Y31619D01*
X-330628Y31807D01*
X-330839Y31948D01*
X-330886Y31972D01*
X-330980Y32042D01*
X-331144Y32113D01*
X-331380Y32230D01*
X-331638Y32324D01*
X-331943Y32395D01*
X-332272Y32465D01*
X-332625Y32489D01*
X-332813D01*
X-333048Y32442D01*
X-333330Y32395D01*
X-333635Y32301D01*
X-333987Y32183D01*
X-334363Y31995D01*
X-334716Y31760D01*
X-334763Y31737D01*
X-334880Y31619D01*
X-335045Y31455D01*
X-335256Y31243D01*
X-335491Y30938D01*
X-335726Y30609D01*
X-335961Y30210D01*
X-336172Y29740D01*
Y29716D01*
X-336196Y29693D01*
X-336219Y29622D01*
X-336243Y29528D01*
X-336290Y29411D01*
X-336337Y29270D01*
X-336431Y28917D01*
X-336501Y28518D01*
X-336595Y28048D01*
X-336642Y27531D01*
X-336666Y26991D01*
Y26732D01*
X-336642Y26591D01*
Y26427D01*
X-336595Y26051D01*
X-336548Y25605D01*
X-336454Y25111D01*
X-336313Y24594D01*
X-336149Y24101D01*
Y24077D01*
X-336125Y24054D01*
X-336102Y23984D01*
X-336055Y23890D01*
X-335938Y23654D01*
X-335773Y23349D01*
X-335562Y23044D01*
X-335303Y22715D01*
X-335021Y22386D01*
X-334669Y22104D01*
X-334622Y22080D01*
X-334504Y22010D01*
X-334293Y21892D01*
X-334034Y21775D01*
X-333729Y21634D01*
X-333353Y21540D01*
X-332954Y21446D01*
X-332507Y21423D01*
X-332366D01*
X-332202Y21446D01*
X-331990Y21470D01*
X-331732Y21516D01*
X-331474Y21587D01*
X-331191Y21681D01*
X-330910Y21798D01*
X-330886Y21822D01*
X-330816Y21845D01*
X-330698Y21916D01*
X-330557Y22033D01*
X-330369Y22174D01*
X-330181Y22339D01*
X-329970Y22550D01*
X-329735Y22785D01*
Y18885D01*
Y18862D01*
Y18768D01*
Y18627D01*
X-329758Y18462D01*
X-329782Y18086D01*
X-329805Y17922D01*
X-329852Y17804D01*
Y17781D01*
X-329876Y17757D01*
X-329946Y17640D01*
X-330064Y17499D01*
X-330228Y17358D01*
X-330252D01*
X-330275Y17334D01*
X-330369Y17311D01*
X-330463Y17287D01*
X-330628Y17264D01*
X-330816Y17240D01*
X-331027Y17217D01*
X-331309D01*
Y16818D01*
X-336666D01*
Y16818D01*
X-355250D01*
Y21728D01*
X-349588D01*
Y30233D01*
Y22127D01*
X-349706D01*
X-349823Y22151D01*
X-349964Y22174D01*
X-350152Y22221D01*
X-350316Y22292D01*
X-350481Y22386D01*
X-350622Y22527D01*
Y22550D01*
X-350669Y22574D01*
X-350692Y22668D01*
X-350739Y22785D01*
X-350786Y22973D01*
X-350810Y23208D01*
X-350857Y23514D01*
Y23890D01*
Y34744D01*
Y34768D01*
Y34791D01*
Y34909D01*
X-350833Y35097D01*
Y35332D01*
X-350786Y35566D01*
X-350739Y35778D01*
X-350669Y35989D01*
X-350575Y36130D01*
X-350551Y36154D01*
X-350528Y36177D01*
X-350457Y36248D01*
X-350363Y36295D01*
X-350223Y36365D01*
X-350058Y36436D01*
X-349846Y36483D01*
X-349588Y36506D01*
Y36906D01*
X-353982D01*
Y23890D01*
Y23842D01*
Y23702D01*
X-354005Y23514D01*
Y23302D01*
X-354029Y23044D01*
X-354076Y22809D01*
X-354146Y22621D01*
X-354217Y22456D01*
X-354240Y22433D01*
X-354264Y22409D01*
X-354334Y22362D01*
X-354452Y22292D01*
X-354593Y22245D01*
X-354757Y22198D01*
X-354992Y22151D01*
X-355250Y22127D01*
Y36906D01*
X-355013D01*
X-355250D01*
Y36906D01*
X-249570D01*
Y21728D01*
D02*
G37*
G36*
X-255021Y27531D02*
X-254950Y27508D01*
X-254856Y27437D01*
X-254621Y27273D01*
X-254316Y27061D01*
X-253987Y26826D01*
X-253634Y26521D01*
X-253329Y26216D01*
X-253047Y25887D01*
X-253024Y25863D01*
X-252977Y25793D01*
X-252906Y25652D01*
X-252836Y25511D01*
X-252765Y25323D01*
X-252695Y25111D01*
X-252648Y24900D01*
X-252624Y24665D01*
Y24641D01*
Y24571D01*
X-252648Y24477D01*
X-252671Y24359D01*
X-252718Y24218D01*
X-252765Y24054D01*
X-252859Y23913D01*
X-252977Y23749D01*
X-253000D01*
X-253024Y23702D01*
X-253094Y23655D01*
X-253188Y23608D01*
X-253306Y23561D01*
X-253423Y23514D01*
X-253587Y23490D01*
X-253776Y23467D01*
X-253869D01*
X-253987Y23490D01*
X-254151Y23537D01*
X-254339Y23631D01*
X-254574Y23725D01*
X-254809Y23890D01*
X-255091Y24101D01*
Y27578D01*
X-255068D01*
X-255021Y27531D01*
D02*
G37*
G36*
X-298322Y31102D02*
X-298111Y31032D01*
X-297852Y30914D01*
X-297711Y30844D01*
X-297570Y30727D01*
X-297406Y30586D01*
X-297241Y30445D01*
X-297100Y30233D01*
X-296936Y30022D01*
X-296795Y29763D01*
X-296654Y29481D01*
Y23913D01*
X-296677Y23890D01*
X-296701Y23866D01*
X-296748Y23795D01*
X-296818Y23702D01*
X-297006Y23490D01*
X-297265Y23255D01*
X-297594Y22997D01*
X-297923Y22785D01*
X-298111Y22691D01*
X-298322Y22621D01*
X-298510Y22597D01*
X-298721Y22574D01*
X-298815D01*
X-298933Y22597D01*
X-299074Y22644D01*
X-299238Y22738D01*
X-299403Y22832D01*
X-299567Y22997D01*
X-299732Y23208D01*
X-299755Y23255D01*
X-299779Y23302D01*
X-299826Y23396D01*
X-299873Y23490D01*
X-299920Y23631D01*
X-299967Y23795D01*
X-300037Y24007D01*
X-300084Y24218D01*
X-300131Y24477D01*
X-300178Y24759D01*
X-300225Y25088D01*
X-300272Y25464D01*
X-300296Y25840D01*
X-300319Y26286D01*
Y26756D01*
Y26779D01*
Y26873D01*
Y27014D01*
Y27202D01*
X-300296Y27414D01*
Y27672D01*
X-300272Y27931D01*
X-300249Y28236D01*
X-300155Y28847D01*
X-300037Y29458D01*
X-299967Y29740D01*
X-299873Y30022D01*
X-299779Y30257D01*
X-299661Y30468D01*
X-299638Y30492D01*
X-299591Y30562D01*
X-299497Y30680D01*
X-299356Y30797D01*
X-299191Y30914D01*
X-299003Y31032D01*
X-298768Y31102D01*
X-298510Y31126D01*
X-298463D01*
X-298322Y31102D01*
D02*
G37*
G36*
X-331403Y31102D02*
X-331191Y31032D01*
X-330933Y30914D01*
X-330792Y30844D01*
X-330651Y30726D01*
X-330487Y30586D01*
X-330322Y30445D01*
X-330181Y30233D01*
X-330017Y30022D01*
X-329876Y29763D01*
X-329735Y29481D01*
Y23913D01*
X-329758Y23890D01*
X-329782Y23866D01*
X-329829Y23795D01*
X-329899Y23702D01*
X-330087Y23490D01*
X-330346Y23255D01*
X-330675Y22997D01*
X-331004Y22785D01*
X-331191Y22691D01*
X-331403Y22621D01*
X-331591Y22597D01*
X-331802Y22574D01*
X-331896D01*
X-332014Y22597D01*
X-332155Y22644D01*
X-332319Y22738D01*
X-332484Y22832D01*
X-332648Y22997D01*
X-332813Y23208D01*
X-332836Y23255D01*
X-332860Y23302D01*
X-332907Y23396D01*
X-332954Y23490D01*
X-333001Y23631D01*
X-333048Y23795D01*
X-333118Y24007D01*
X-333165Y24218D01*
X-333212Y24477D01*
X-333259Y24759D01*
X-333306Y25088D01*
X-333353Y25464D01*
X-333377Y25840D01*
X-333400Y26286D01*
Y26756D01*
Y26779D01*
Y26873D01*
Y27014D01*
Y27202D01*
X-333377Y27414D01*
Y27672D01*
X-333353Y27931D01*
X-333330Y28236D01*
X-333236Y28847D01*
X-333118Y29458D01*
X-333048Y29740D01*
X-332954Y30022D01*
X-332860Y30257D01*
X-332742Y30468D01*
X-332719Y30492D01*
X-332672Y30562D01*
X-332578Y30680D01*
X-332437Y30797D01*
X-332272Y30914D01*
X-332084Y31032D01*
X-331849Y31102D01*
X-331591Y31126D01*
X-331544D01*
X-331403Y31102D01*
D02*
G37*
G36*
X-303561Y26591D02*
Y26427D01*
X-303514Y26051D01*
X-303467Y25605D01*
X-303373Y25111D01*
X-303232Y24594D01*
X-303068Y24101D01*
Y24077D01*
X-303044Y24054D01*
X-303021Y23984D01*
X-302974Y23890D01*
X-302857Y23655D01*
X-302692Y23349D01*
X-302481Y23044D01*
X-302222Y22715D01*
X-301940Y22386D01*
X-301588Y22104D01*
X-301541Y22080D01*
X-301423Y22010D01*
X-301212Y21892D01*
X-300953Y21775D01*
X-300648Y21634D01*
X-300272Y21540D01*
X-299873Y21446D01*
X-299426Y21423D01*
X-299285D01*
X-299121Y21446D01*
X-298909Y21470D01*
X-298651Y21516D01*
X-298393Y21587D01*
X-298111Y21681D01*
X-297829Y21799D01*
X-297805Y21822D01*
X-297735Y21845D01*
X-297617Y21916D01*
X-297476Y22033D01*
X-297288Y22174D01*
X-297100Y22339D01*
X-296889Y22550D01*
X-296654Y22785D01*
Y18885D01*
Y18862D01*
Y18768D01*
Y18627D01*
X-296677Y18462D01*
X-296701Y18086D01*
X-296724Y17922D01*
X-296771Y17804D01*
Y17781D01*
X-296795Y17757D01*
X-296865Y17640D01*
X-296983Y17499D01*
X-297147Y17358D01*
X-297171D01*
X-297194Y17334D01*
X-297288Y17311D01*
X-297382Y17287D01*
X-297547Y17264D01*
X-297735Y17240D01*
X-297946Y17217D01*
X-298228D01*
Y16818D01*
X-303585D01*
Y26732D01*
X-303561Y26591D01*
D02*
G37*
%LPC*%
G36*
X-281567Y13608D02*
X-281863D01*
X-282004Y13594D01*
X-282173Y13565D01*
X-282357Y13523D01*
X-282568Y13467D01*
X-282794Y13396D01*
X-283005Y13284D01*
X-283033Y13269D01*
X-283104Y13227D01*
X-283202Y13157D01*
X-283329Y13058D01*
X-283484Y12931D01*
X-283625Y12776D01*
X-283780Y12593D01*
X-283907Y12395D01*
X-283921Y12367D01*
X-283964Y12297D01*
X-284006Y12198D01*
X-284076Y12057D01*
X-284133Y11888D01*
X-284175Y11719D01*
X-284217Y11536D01*
X-284232Y11352D01*
Y11338D01*
Y11310D01*
Y11268D01*
X-284217Y11197D01*
Y11113D01*
X-284203Y11014D01*
X-284175Y10788D01*
X-284105Y10507D01*
X-284020Y10210D01*
X-283893Y9872D01*
X-283724Y9534D01*
X-283710Y9520D01*
X-283696Y9477D01*
X-283654Y9407D01*
X-283583Y9308D01*
X-283498Y9181D01*
X-283386Y9026D01*
X-283259Y8843D01*
X-283104Y8632D01*
X-282920Y8406D01*
X-282709Y8152D01*
X-282469Y7856D01*
X-282188Y7560D01*
X-281891Y7222D01*
X-281553Y6870D01*
X-281173Y6489D01*
X-280764Y6080D01*
X-282977D01*
X-283118Y6094D01*
X-283287D01*
X-283428Y6108D01*
X-283569Y6122D01*
X-283668Y6136D01*
X-283682D01*
X-283710Y6151D01*
X-283795Y6179D01*
X-283921Y6249D01*
X-284034Y6334D01*
Y6348D01*
X-284062Y6362D01*
X-284091Y6404D01*
X-284133Y6475D01*
X-284189Y6559D01*
X-284246Y6658D01*
X-284316Y6799D01*
X-284401Y6954D01*
X-284655D01*
X-284133Y4318D01*
X-278790D01*
Y4459D01*
X-278804Y4473D01*
X-278818Y4487D01*
X-278846Y4529D01*
X-278903Y4586D01*
X-279016Y4741D01*
X-279185Y4938D01*
X-279382Y5164D01*
X-279594Y5446D01*
X-279833Y5742D01*
X-280087Y6052D01*
X-280609Y6714D01*
X-280848Y7039D01*
X-281088Y7363D01*
X-281313Y7659D01*
X-281497Y7941D01*
X-281666Y8195D01*
X-281779Y8406D01*
Y8420D01*
X-281807Y8448D01*
X-281821Y8505D01*
X-281863Y8575D01*
X-281906Y8674D01*
X-281948Y8773D01*
X-281990Y8899D01*
X-282047Y9040D01*
X-282131Y9336D01*
X-282216Y9661D01*
X-282272Y10013D01*
X-282300Y10380D01*
Y10394D01*
Y10408D01*
Y10492D01*
X-282272Y10633D01*
X-282244Y10788D01*
X-282188Y10972D01*
X-282117Y11169D01*
X-282004Y11366D01*
X-281863Y11550D01*
X-281849Y11564D01*
X-281779Y11620D01*
X-281694Y11705D01*
X-281567Y11789D01*
X-281412Y11874D01*
X-281229Y11959D01*
X-281017Y12015D01*
X-280792Y12029D01*
X-280693D01*
X-280623Y12015D01*
X-280538Y12001D01*
X-280439Y11973D01*
X-280214Y11902D01*
X-280087Y11846D01*
X-279946Y11775D01*
X-279819Y11691D01*
X-279692Y11592D01*
X-279551Y11465D01*
X-279424Y11324D01*
X-279312Y11169D01*
X-279199Y10986D01*
X-278945Y11070D01*
Y11085D01*
X-278959Y11127D01*
X-278988Y11197D01*
X-279016Y11282D01*
X-279058Y11395D01*
X-279100Y11507D01*
X-279227Y11803D01*
X-279382Y12113D01*
X-279566Y12424D01*
X-279791Y12734D01*
X-279918Y12861D01*
X-280045Y12988D01*
X-280059Y13002D01*
X-280073Y13016D01*
X-280115Y13044D01*
X-280172Y13086D01*
X-280242Y13128D01*
X-280327Y13185D01*
X-280538Y13298D01*
X-280778Y13411D01*
X-281074Y13509D01*
X-281398Y13580D01*
X-281567Y13608D01*
D02*
G37*
G36*
X-336940D02*
X-337236D01*
X-337377Y13594D01*
X-337546Y13565D01*
X-337730Y13523D01*
X-337941Y13467D01*
X-338167Y13396D01*
X-338378Y13284D01*
X-338406Y13269D01*
X-338477Y13227D01*
X-338576Y13157D01*
X-338702Y13058D01*
X-338857Y12931D01*
X-338998Y12776D01*
X-339154Y12593D01*
X-339280Y12395D01*
X-339294Y12367D01*
X-339337Y12297D01*
X-339379Y12198D01*
X-339450Y12057D01*
X-339506Y11888D01*
X-339548Y11719D01*
X-339590Y11536D01*
X-339605Y11352D01*
Y11338D01*
Y11310D01*
Y11268D01*
X-339590Y11197D01*
Y11113D01*
X-339576Y11014D01*
X-339548Y10788D01*
X-339478Y10507D01*
X-339393Y10210D01*
X-339266Y9872D01*
X-339097Y9534D01*
X-339083Y9520D01*
X-339069Y9477D01*
X-339027Y9407D01*
X-338956Y9308D01*
X-338871Y9181D01*
X-338759Y9026D01*
X-338632Y8843D01*
X-338477Y8632D01*
X-338294Y8406D01*
X-338082Y8152D01*
X-337842Y7856D01*
X-337561Y7560D01*
X-337265Y7222D01*
X-336926Y6870D01*
X-336545Y6489D01*
X-336137Y6080D01*
X-338350D01*
X-338491Y6094D01*
X-338660D01*
X-338801Y6108D01*
X-338942Y6122D01*
X-339041Y6136D01*
X-339055D01*
X-339083Y6151D01*
X-339168Y6179D01*
X-339294Y6249D01*
X-339407Y6334D01*
Y6348D01*
X-339435Y6362D01*
X-339464Y6404D01*
X-339506Y6475D01*
X-339562Y6559D01*
X-339619Y6658D01*
X-339689Y6799D01*
X-339774Y6954D01*
X-340028D01*
X-339506Y4318D01*
X-334163D01*
Y4459D01*
X-334177Y4473D01*
X-334191Y4487D01*
X-334220Y4529D01*
X-334276Y4586D01*
X-334389Y4741D01*
X-334558Y4938D01*
X-334755Y5164D01*
X-334967Y5446D01*
X-335206Y5742D01*
X-335460Y6052D01*
X-335982Y6714D01*
X-336221Y7039D01*
X-336461Y7363D01*
X-336687Y7659D01*
X-336870Y7941D01*
X-337039Y8195D01*
X-337152Y8406D01*
Y8420D01*
X-337180Y8448D01*
X-337194Y8505D01*
X-337236Y8575D01*
X-337279Y8674D01*
X-337321Y8773D01*
X-337363Y8899D01*
X-337420Y9040D01*
X-337504Y9336D01*
X-337589Y9661D01*
X-337645Y10013D01*
X-337673Y10380D01*
Y10394D01*
Y10408D01*
Y10492D01*
X-337645Y10633D01*
X-337617Y10788D01*
X-337561Y10972D01*
X-337490Y11169D01*
X-337377Y11366D01*
X-337236Y11550D01*
X-337222Y11564D01*
X-337152Y11620D01*
X-337067Y11705D01*
X-336940Y11789D01*
X-336785Y11874D01*
X-336602Y11959D01*
X-336390Y12015D01*
X-336165Y12029D01*
X-336066D01*
X-335996Y12015D01*
X-335911Y12001D01*
X-335812Y11973D01*
X-335587Y11902D01*
X-335460Y11846D01*
X-335319Y11775D01*
X-335192Y11691D01*
X-335065Y11592D01*
X-334924Y11465D01*
X-334798Y11324D01*
X-334685Y11169D01*
X-334572Y10986D01*
X-334318Y11070D01*
Y11085D01*
X-334332Y11127D01*
X-334361Y11197D01*
X-334389Y11282D01*
X-334431Y11395D01*
X-334473Y11507D01*
X-334600Y11803D01*
X-334755Y12113D01*
X-334939Y12424D01*
X-335164Y12734D01*
X-335291Y12861D01*
X-335418Y12988D01*
X-335432Y13002D01*
X-335446Y13016D01*
X-335488Y13044D01*
X-335545Y13086D01*
X-335615Y13128D01*
X-335700Y13185D01*
X-335911Y13298D01*
X-336151Y13411D01*
X-336447Y13509D01*
X-336771Y13580D01*
X-336940Y13608D01*
D02*
G37*
G36*
X-285627Y13425D02*
X-290138D01*
Y13185D01*
X-289786D01*
X-289701Y13171D01*
X-289532Y13128D01*
X-289447Y13100D01*
X-289377Y13058D01*
X-289349Y13030D01*
X-289307Y12974D01*
X-289250Y12875D01*
X-289236Y12804D01*
X-289222Y12734D01*
Y12706D01*
Y12649D01*
X-289236Y12565D01*
X-289264Y12480D01*
X-289729Y11775D01*
X-290871Y10084D01*
X-291816Y11240D01*
X-291830Y11254D01*
X-291844Y11282D01*
X-291886Y11324D01*
X-291929Y11380D01*
X-292041Y11550D01*
X-292182Y11733D01*
X-292323Y11944D01*
X-292436Y12156D01*
X-292521Y12353D01*
X-292535Y12438D01*
X-292549Y12508D01*
Y12522D01*
Y12536D01*
X-292535Y12621D01*
X-292507Y12734D01*
X-292436Y12847D01*
Y12861D01*
X-292422Y12875D01*
X-292365Y12931D01*
X-292267Y13016D01*
X-292140Y13086D01*
X-292126D01*
X-292112Y13100D01*
X-292055Y13114D01*
X-291999Y13143D01*
X-291914Y13157D01*
X-291816Y13171D01*
X-291689Y13185D01*
X-291548D01*
Y13425D01*
X-294889D01*
Y13185D01*
X-294818D01*
X-294748Y13171D01*
X-294663D01*
X-294452Y13128D01*
X-294353Y13100D01*
X-294254Y13072D01*
X-294240D01*
X-294212Y13058D01*
X-294170Y13030D01*
X-294100Y13002D01*
X-293930Y12889D01*
X-293832Y12818D01*
X-293733Y12734D01*
X-293719Y12720D01*
X-293691Y12692D01*
X-293648Y12635D01*
X-293564Y12550D01*
X-293451Y12424D01*
X-293296Y12240D01*
X-293211Y12142D01*
X-293113Y12015D01*
X-293000Y11888D01*
X-292873Y11733D01*
X-291153Y9661D01*
X-293662Y5939D01*
X-293677Y5925D01*
X-293691Y5897D01*
X-293719Y5854D01*
X-293761Y5784D01*
X-293874Y5629D01*
X-294001Y5446D01*
X-294156Y5248D01*
X-294297Y5051D01*
X-294438Y4896D01*
X-294494Y4825D01*
X-294551Y4783D01*
X-294565Y4769D01*
X-294593Y4755D01*
X-294649Y4713D01*
X-294734Y4684D01*
X-294818Y4642D01*
X-294931Y4600D01*
X-295058Y4572D01*
X-295185Y4557D01*
Y4318D01*
X-290730D01*
Y4557D01*
X-290815D01*
X-290914Y4572D01*
X-291012Y4586D01*
X-291139Y4614D01*
X-291252Y4642D01*
X-291350Y4670D01*
X-291421Y4713D01*
X-291435D01*
X-291449Y4741D01*
X-291506Y4797D01*
X-291548Y4896D01*
X-291576Y4952D01*
Y5009D01*
Y5037D01*
Y5079D01*
X-291548Y5150D01*
X-291520Y5220D01*
Y5234D01*
X-291506Y5262D01*
X-291477Y5319D01*
X-291435Y5389D01*
X-291365Y5502D01*
X-291294Y5629D01*
X-291181Y5798D01*
X-291054Y5981D01*
X-289729Y7941D01*
X-288334Y6249D01*
Y6235D01*
X-288306Y6221D01*
X-288277Y6179D01*
X-288235Y6122D01*
X-288136Y5995D01*
X-288024Y5826D01*
X-287911Y5657D01*
X-287812Y5474D01*
X-287742Y5319D01*
X-287728Y5248D01*
X-287714Y5192D01*
Y5178D01*
Y5164D01*
X-287728Y5079D01*
X-287784Y4966D01*
X-287812Y4910D01*
X-287869Y4839D01*
X-287883D01*
X-287897Y4811D01*
X-287939Y4783D01*
X-287995Y4741D01*
X-288066Y4699D01*
X-288136Y4656D01*
X-288348Y4586D01*
X-288376D01*
X-288418Y4572D01*
X-288545D01*
X-288658Y4557D01*
X-288926D01*
Y4318D01*
X-285430D01*
Y4557D01*
X-285458D01*
X-285529Y4572D01*
X-285641Y4600D01*
X-285782Y4628D01*
X-285923Y4670D01*
X-286078Y4727D01*
X-286233Y4797D01*
X-286374Y4882D01*
X-286402Y4896D01*
X-286459Y4952D01*
X-286558Y5037D01*
X-286698Y5164D01*
X-286882Y5333D01*
X-287093Y5558D01*
X-287220Y5685D01*
X-287347Y5826D01*
X-287488Y5995D01*
X-287629Y6165D01*
X-289433Y8364D01*
X-287121Y11775D01*
Y11789D01*
X-287093Y11818D01*
X-287065Y11860D01*
X-287037Y11916D01*
X-286938Y12043D01*
X-286825Y12212D01*
X-286713Y12381D01*
X-286600Y12536D01*
X-286515Y12649D01*
X-286487Y12692D01*
X-286473Y12720D01*
X-286459Y12734D01*
X-286445Y12762D01*
X-286360Y12847D01*
X-286247Y12945D01*
X-286106Y13030D01*
X-286092D01*
X-286078Y13044D01*
X-286036Y13058D01*
X-285980Y13086D01*
X-285909Y13114D01*
X-285839Y13143D01*
X-285627Y13185D01*
Y13425D01*
D02*
G37*
G36*
X-302445D02*
X-310128D01*
Y10817D01*
X-309846D01*
Y10831D01*
Y10859D01*
X-309832Y10901D01*
Y10972D01*
X-309789Y11127D01*
X-309747Y11324D01*
X-309677Y11550D01*
X-309592Y11775D01*
X-309493Y11987D01*
X-309352Y12170D01*
X-309338Y12184D01*
X-309282Y12240D01*
X-309197Y12325D01*
X-309070Y12424D01*
X-308915Y12522D01*
X-308718Y12621D01*
X-308493Y12720D01*
X-308239Y12790D01*
X-308225D01*
X-308154Y12804D01*
X-308055Y12832D01*
X-307900Y12847D01*
X-307703Y12875D01*
X-307590D01*
X-307449Y12889D01*
X-307294D01*
X-307139Y12903D01*
X-305913D01*
Y9153D01*
X-306279D01*
X-306392Y9167D01*
X-306519Y9181D01*
X-306674Y9196D01*
X-306843Y9224D01*
X-306998Y9266D01*
X-307153Y9322D01*
X-307167Y9336D01*
X-307224Y9365D01*
X-307294Y9407D01*
X-307379Y9463D01*
X-307477Y9548D01*
X-307590Y9661D01*
X-307703Y9787D01*
X-307802Y9929D01*
X-307816Y9943D01*
X-307844Y10013D01*
X-307886Y10112D01*
X-307943Y10239D01*
X-307999Y10408D01*
X-308070Y10619D01*
X-308112Y10845D01*
X-308154Y11113D01*
X-308394D01*
Y6545D01*
X-308154D01*
Y6559D01*
Y6602D01*
X-308140Y6672D01*
X-308126Y6757D01*
X-308098Y6855D01*
X-308084Y6968D01*
X-308013Y7236D01*
X-307915Y7518D01*
X-307802Y7800D01*
X-307717Y7927D01*
X-307647Y8054D01*
X-307548Y8152D01*
X-307449Y8237D01*
X-307421Y8251D01*
X-307351Y8307D01*
X-307238Y8378D01*
X-307083Y8448D01*
X-306885Y8533D01*
X-306674Y8589D01*
X-306434Y8646D01*
X-306181Y8660D01*
X-305913D01*
Y5869D01*
Y5854D01*
Y5840D01*
Y5756D01*
Y5643D01*
X-305927Y5488D01*
Y5347D01*
X-305941Y5192D01*
X-305955Y5065D01*
X-305983Y4981D01*
Y4966D01*
X-305997Y4952D01*
X-306054Y4882D01*
X-306138Y4783D01*
X-306209Y4741D01*
X-306279Y4684D01*
X-306293D01*
X-306322Y4670D01*
X-306378Y4642D01*
X-306434Y4628D01*
X-306533Y4600D01*
X-306632Y4572D01*
X-306744Y4557D01*
X-307196D01*
Y4318D01*
X-302445D01*
Y4557D01*
X-302811D01*
X-302882Y4572D01*
X-302966D01*
X-303178Y4614D01*
X-303277Y4656D01*
X-303375Y4699D01*
X-303389D01*
X-303403Y4713D01*
X-303474Y4769D01*
X-303573Y4868D01*
X-303643Y5009D01*
Y5023D01*
X-303657Y5051D01*
X-303671Y5093D01*
X-303685Y5178D01*
X-303699Y5291D01*
X-303714Y5446D01*
X-303728Y5629D01*
Y5869D01*
Y11874D01*
Y11888D01*
Y11902D01*
Y11987D01*
Y12099D01*
X-303714Y12240D01*
Y12381D01*
X-303699Y12522D01*
X-303671Y12649D01*
X-303643Y12734D01*
Y12748D01*
X-303629Y12762D01*
X-303587Y12847D01*
X-303488Y12945D01*
X-303432Y13002D01*
X-303347Y13044D01*
X-303333D01*
X-303305Y13072D01*
X-303263Y13086D01*
X-303192Y13114D01*
X-303107Y13143D01*
X-302995Y13157D01*
X-302882Y13185D01*
X-302445D01*
Y13425D01*
D02*
G37*
G36*
X-268711D02*
X-271939D01*
X-276422Y7772D01*
Y11691D01*
Y11705D01*
Y11733D01*
Y11775D01*
Y11818D01*
X-276408Y11959D01*
X-276394Y12142D01*
X-276365Y12325D01*
X-276323Y12508D01*
X-276267Y12677D01*
X-276182Y12804D01*
X-276168Y12818D01*
X-276126Y12861D01*
X-276041Y12931D01*
X-275928Y13002D01*
X-275773Y13058D01*
X-275590Y13128D01*
X-275379Y13171D01*
X-275111Y13185D01*
Y13425D01*
X-278113D01*
Y13185D01*
X-278085D01*
X-278015Y13171D01*
X-277916Y13157D01*
X-277789Y13128D01*
X-277535Y13058D01*
X-277409Y13016D01*
X-277324Y12974D01*
X-277310D01*
X-277296Y12945D01*
X-277211Y12889D01*
X-277113Y12762D01*
X-277056Y12692D01*
X-277014Y12593D01*
Y12579D01*
X-277000Y12550D01*
X-276986Y12480D01*
X-276972Y12381D01*
X-276943Y12255D01*
X-276929Y12099D01*
X-276915Y11916D01*
Y11691D01*
Y4106D01*
X-276676D01*
X-270557Y11691D01*
Y5897D01*
Y5883D01*
Y5869D01*
Y5826D01*
Y5770D01*
X-270572Y5629D01*
X-270600Y5474D01*
X-270642Y5291D01*
X-270713Y5107D01*
X-270797Y4952D01*
X-270910Y4825D01*
X-270924Y4811D01*
X-270966Y4783D01*
X-271051Y4741D01*
X-271150Y4699D01*
X-271262Y4642D01*
X-271403Y4600D01*
X-271558Y4572D01*
X-271728Y4557D01*
X-271953D01*
Y4318D01*
X-268725D01*
Y4557D01*
X-268852D01*
X-268979Y4572D01*
X-269134Y4600D01*
X-269303Y4628D01*
X-269486Y4684D01*
X-269641Y4755D01*
X-269768Y4854D01*
X-269782Y4868D01*
X-269810Y4910D01*
X-269867Y4995D01*
X-269923Y5107D01*
X-269965Y5248D01*
X-270022Y5432D01*
X-270050Y5643D01*
X-270064Y5897D01*
Y12325D01*
X-269867Y12565D01*
X-269853Y12579D01*
X-269824Y12621D01*
X-269768Y12692D01*
X-269698Y12762D01*
X-269528Y12917D01*
X-269430Y12988D01*
X-269345Y13044D01*
X-269331D01*
X-269303Y13058D01*
X-269261Y13086D01*
X-269190Y13114D01*
X-269091Y13128D01*
X-268993Y13157D01*
X-268866Y13171D01*
X-268711Y13185D01*
Y13425D01*
D02*
G37*
G36*
X-324013D02*
X-328369D01*
Y13185D01*
X-328130D01*
X-328031Y13171D01*
X-327904D01*
X-327636Y13114D01*
X-327523Y13086D01*
X-327425Y13030D01*
X-327397Y13016D01*
X-327354Y12959D01*
X-327298Y12861D01*
X-327284Y12804D01*
X-327270Y12734D01*
Y12706D01*
Y12649D01*
X-327284Y12550D01*
X-327312Y12438D01*
Y12424D01*
X-327326Y12395D01*
X-327340Y12353D01*
X-327383Y12269D01*
X-327425Y12156D01*
X-327495Y12001D01*
X-327580Y11803D01*
X-327678Y11564D01*
X-329624Y7024D01*
X-331414Y11056D01*
Y11070D01*
X-331428Y11085D01*
X-331471Y11169D01*
X-331527Y11296D01*
X-331598Y11451D01*
X-331668Y11620D01*
X-331724Y11789D01*
X-331781Y11930D01*
X-331823Y12043D01*
Y12057D01*
X-331837Y12085D01*
X-331851Y12128D01*
X-331865Y12198D01*
X-331879Y12325D01*
X-331894Y12466D01*
Y12480D01*
Y12508D01*
X-331879Y12593D01*
X-331851Y12706D01*
X-331781Y12832D01*
Y12847D01*
X-331767Y12861D01*
X-331710Y12917D01*
X-331612Y12988D01*
X-331471Y13058D01*
X-331456D01*
X-331414Y13072D01*
X-331358Y13100D01*
X-331273Y13128D01*
X-331161Y13143D01*
X-331034Y13171D01*
X-330878Y13185D01*
X-330709D01*
Y13425D01*
X-333684D01*
Y13185D01*
X-333656D01*
X-333599Y13171D01*
X-333501Y13128D01*
X-333388Y13086D01*
X-333247Y13016D01*
X-333106Y12917D01*
X-332951Y12804D01*
X-332796Y12649D01*
X-332782Y12635D01*
X-332739Y12579D01*
X-332683Y12480D01*
X-332641Y12410D01*
X-332584Y12325D01*
X-332528Y12226D01*
X-332472Y12113D01*
X-332401Y11987D01*
X-332331Y11832D01*
X-332246Y11676D01*
X-332161Y11479D01*
X-332063Y11282D01*
X-331964Y11056D01*
X-328834Y4106D01*
X-328595D01*
X-325494Y11338D01*
Y11352D01*
X-325465Y11395D01*
X-325437Y11465D01*
X-325409Y11550D01*
X-325353Y11648D01*
X-325310Y11775D01*
X-325183Y12029D01*
X-325056Y12297D01*
X-324930Y12550D01*
X-324873Y12663D01*
X-324817Y12762D01*
X-324775Y12832D01*
X-324732Y12889D01*
X-324718Y12903D01*
X-324690Y12931D01*
X-324648Y12959D01*
X-324577Y13016D01*
X-324478Y13058D01*
X-324352Y13114D01*
X-324197Y13157D01*
X-324013Y13185D01*
Y13425D01*
D02*
G37*
G36*
X-263551Y13608D02*
X-263678D01*
X-266949Y6136D01*
Y6122D01*
X-266963Y6094D01*
X-266991Y6038D01*
X-267033Y5967D01*
X-267061Y5883D01*
X-267118Y5784D01*
X-267216Y5573D01*
X-267343Y5333D01*
X-267470Y5121D01*
X-267597Y4938D01*
X-267668Y4854D01*
X-267724Y4797D01*
X-267738Y4783D01*
X-267766Y4769D01*
X-267823Y4727D01*
X-267893Y4684D01*
X-267978Y4642D01*
X-268090Y4614D01*
X-268217Y4572D01*
X-268372Y4557D01*
Y4318D01*
X-263960D01*
Y4557D01*
X-264228D01*
X-264327Y4572D01*
X-264439D01*
X-264679Y4614D01*
X-264792Y4656D01*
X-264890Y4699D01*
X-264905D01*
X-264919Y4727D01*
X-264975Y4783D01*
X-265017Y4882D01*
X-265046Y4938D01*
Y5009D01*
Y5037D01*
Y5093D01*
X-265031Y5164D01*
X-265003Y5262D01*
Y5276D01*
X-264989Y5305D01*
X-264975Y5347D01*
X-264947Y5418D01*
X-264905Y5502D01*
X-264862Y5615D01*
X-264792Y5770D01*
X-264298Y6912D01*
X-261112D01*
X-260718Y6024D01*
X-260704Y6010D01*
X-260690Y5953D01*
X-260661Y5869D01*
X-260633Y5756D01*
X-260563Y5516D01*
X-260549Y5389D01*
X-260534Y5276D01*
Y5262D01*
Y5220D01*
X-260549Y5150D01*
X-260577Y5065D01*
X-260605Y4966D01*
X-260661Y4882D01*
X-260746Y4783D01*
X-260845Y4713D01*
X-260859D01*
X-260887Y4699D01*
X-260943Y4670D01*
X-261028Y4656D01*
X-261141Y4628D01*
X-261296Y4600D01*
X-261493Y4572D01*
X-261733Y4557D01*
Y4318D01*
X-258702D01*
Y4557D01*
X-258730D01*
X-258787Y4572D01*
X-258871Y4600D01*
X-258984Y4628D01*
X-259111Y4684D01*
X-259252Y4755D01*
X-259379Y4839D01*
X-259505Y4952D01*
X-259520Y4966D01*
X-259562Y5023D01*
X-259632Y5121D01*
X-259731Y5248D01*
X-259844Y5446D01*
X-259900Y5558D01*
X-259971Y5685D01*
X-260055Y5826D01*
X-260126Y5981D01*
X-260210Y6151D01*
X-260295Y6334D01*
X-263551Y13608D01*
D02*
G37*
G36*
X-310720Y13425D02*
X-315048D01*
X-315189Y13411D01*
X-315344Y13396D01*
X-315527Y13382D01*
X-315724Y13368D01*
X-316133Y13312D01*
X-316570Y13241D01*
X-317007Y13128D01*
X-317204Y13058D01*
X-317402Y12974D01*
X-317416D01*
X-317458Y12945D01*
X-317515Y12917D01*
X-317599Y12875D01*
X-317712Y12818D01*
X-317825Y12748D01*
X-318093Y12565D01*
X-318389Y12325D01*
X-318699Y12043D01*
X-318995Y11705D01*
X-319122Y11522D01*
X-319249Y11324D01*
X-319263Y11310D01*
X-319277Y11268D01*
X-319305Y11211D01*
X-319347Y11127D01*
X-319389Y11028D01*
X-319446Y10901D01*
X-319502Y10760D01*
X-319573Y10605D01*
X-319629Y10422D01*
X-319685Y10239D01*
X-319784Y9816D01*
X-319855Y9351D01*
X-319883Y9097D01*
Y8674D01*
X-319869Y8589D01*
Y8491D01*
X-319841Y8251D01*
X-319812Y7983D01*
X-319756Y7687D01*
X-319671Y7377D01*
X-319573Y7067D01*
Y7053D01*
X-319559Y7039D01*
X-319545Y6996D01*
X-319516Y6940D01*
X-319446Y6785D01*
X-319361Y6602D01*
X-319234Y6390D01*
X-319107Y6165D01*
X-318953Y5939D01*
X-318769Y5728D01*
X-318741Y5699D01*
X-318685Y5643D01*
X-318586Y5544D01*
X-318445Y5432D01*
X-318276Y5291D01*
X-318078Y5150D01*
X-317867Y5009D01*
X-317627Y4882D01*
X-317599Y4868D01*
X-317515Y4825D01*
X-317374Y4769D01*
X-317190Y4699D01*
X-316965Y4628D01*
X-316711Y4543D01*
X-316401Y4459D01*
X-316077Y4388D01*
X-316063D01*
X-316006Y4374D01*
X-315907Y4360D01*
X-315767D01*
X-315583Y4346D01*
X-315358Y4332D01*
X-315090Y4318D01*
X-310720D01*
Y4557D01*
X-311157D01*
X-311241Y4572D01*
X-311439Y4600D01*
X-311537Y4628D01*
X-311622Y4670D01*
X-311636D01*
X-311650Y4699D01*
X-311735Y4755D01*
X-311848Y4868D01*
X-311932Y5009D01*
Y5023D01*
X-311946Y5037D01*
X-311960Y5093D01*
X-311975Y5164D01*
Y5276D01*
X-311989Y5432D01*
X-312003Y5629D01*
Y5869D01*
Y11874D01*
Y11888D01*
Y11902D01*
Y11987D01*
Y12099D01*
X-311989Y12240D01*
Y12381D01*
X-311975Y12522D01*
X-311946Y12649D01*
X-311918Y12734D01*
Y12748D01*
X-311904Y12762D01*
X-311862Y12847D01*
X-311763Y12945D01*
X-311707Y13002D01*
X-311622Y13044D01*
X-311608D01*
X-311580Y13072D01*
X-311537Y13086D01*
X-311467Y13114D01*
X-311382Y13143D01*
X-311270Y13157D01*
X-311157Y13185D01*
X-310720D01*
Y13425D01*
D02*
G37*
G36*
X-342424Y6376D02*
X-342509D01*
X-342593Y6362D01*
X-342692Y6334D01*
X-342819Y6291D01*
X-342960Y6235D01*
X-343087Y6151D01*
X-343213Y6038D01*
X-343228Y6024D01*
X-343270Y5981D01*
X-343326Y5911D01*
X-343383Y5812D01*
X-343439Y5699D01*
X-343495Y5573D01*
X-343538Y5418D01*
X-343552Y5248D01*
Y5178D01*
X-343538Y5079D01*
X-343509Y4981D01*
X-343467Y4854D01*
X-343411Y4713D01*
X-343326Y4586D01*
X-343213Y4459D01*
X-343199Y4445D01*
X-343157Y4403D01*
X-343087Y4360D01*
X-342988Y4304D01*
X-342875Y4233D01*
X-342748Y4191D01*
X-342593Y4149D01*
X-342424Y4135D01*
X-342354D01*
X-342255Y4149D01*
X-342156Y4177D01*
X-342029Y4219D01*
X-341888Y4276D01*
X-341761Y4346D01*
X-341634Y4459D01*
X-341620Y4473D01*
X-341578Y4515D01*
X-341536Y4586D01*
X-341479Y4684D01*
X-341409Y4797D01*
X-341367Y4924D01*
X-341324Y5079D01*
X-341310Y5248D01*
Y5333D01*
X-341324Y5418D01*
X-341353Y5516D01*
X-341395Y5643D01*
X-341451Y5784D01*
X-341522Y5911D01*
X-341634Y6038D01*
X-341649Y6052D01*
X-341691Y6094D01*
X-341761Y6151D01*
X-341860Y6207D01*
X-341973Y6263D01*
X-342100Y6320D01*
X-342255Y6362D01*
X-342424Y6376D01*
D02*
G37*
%LPD*%
G36*
X-261338Y7405D02*
X-264087D01*
X-262734Y10507D01*
X-261338Y7405D01*
D02*
G37*
G36*
X-314188Y5812D02*
Y5784D01*
Y5728D01*
Y5629D01*
Y5516D01*
X-314202Y5389D01*
Y5276D01*
X-314216Y5178D01*
X-314230Y5107D01*
X-314244Y5093D01*
X-314272Y5037D01*
X-314329Y4981D01*
X-314413Y4924D01*
X-314427D01*
X-314441Y4910D01*
X-314484Y4896D01*
X-314554Y4882D01*
X-314625Y4854D01*
X-314709Y4839D01*
X-314822Y4825D01*
X-315048D01*
X-315118Y4839D01*
X-315217Y4854D01*
X-315329Y4868D01*
X-315569Y4924D01*
X-315851Y5009D01*
X-316133Y5150D01*
X-316274Y5234D01*
X-316401Y5333D01*
X-316528Y5460D01*
X-316641Y5587D01*
X-316655Y5601D01*
X-316683Y5629D01*
X-316711Y5699D01*
X-316767Y5784D01*
X-316824Y5897D01*
X-316894Y6024D01*
X-316979Y6193D01*
X-317049Y6376D01*
X-317120Y6587D01*
X-317204Y6827D01*
X-317275Y7081D01*
X-317331Y7377D01*
X-317388Y7687D01*
X-317430Y8040D01*
X-317444Y8406D01*
X-317458Y8801D01*
Y8815D01*
Y8885D01*
Y8970D01*
X-317444Y9097D01*
Y9238D01*
X-317430Y9407D01*
X-317416Y9604D01*
X-317388Y9802D01*
X-317331Y10253D01*
X-317233Y10718D01*
X-317092Y11169D01*
X-317007Y11395D01*
X-316908Y11592D01*
Y11606D01*
X-316894Y11634D01*
X-316866Y11676D01*
X-316824Y11719D01*
X-316739Y11860D01*
X-316598Y12043D01*
X-316443Y12226D01*
X-316246Y12410D01*
X-316034Y12579D01*
X-315781Y12706D01*
X-315753Y12720D01*
X-315682Y12734D01*
X-315569Y12776D01*
X-315400Y12818D01*
X-315189Y12847D01*
X-314907Y12889D01*
X-314752Y12903D01*
X-314582D01*
X-314385Y12917D01*
X-314188D01*
Y5812D01*
D02*
G37*
%LPC*%
G36*
X-273159Y36036D02*
X-280137D01*
D01*
X-277646D01*
Y32183D01*
X-280137D01*
D01*
D01*
Y31079D01*
X-277646D01*
Y24618D01*
Y24571D01*
Y24477D01*
Y24312D01*
Y24148D01*
X-277670Y23749D01*
X-277693Y23584D01*
X-277717Y23443D01*
X-277740Y23396D01*
X-277787Y23302D01*
X-277881Y23161D01*
X-278022Y23020D01*
X-278069Y22997D01*
X-278140Y22950D01*
X-278281Y22903D01*
X-278398Y22879D01*
X-278422D01*
X-278516Y22903D01*
X-278680Y22950D01*
X-278845Y23020D01*
X-279056Y23161D01*
X-279291Y23349D01*
X-279550Y23631D01*
X-279667Y23795D01*
X-279785Y23984D01*
X-280137Y23725D01*
Y23702D01*
X-280090Y23631D01*
X-280043Y23537D01*
X-279972Y23396D01*
X-279855Y23232D01*
X-279737Y23044D01*
X-279597Y22856D01*
X-279432Y22668D01*
X-279221Y22456D01*
X-279009Y22268D01*
X-278774Y22080D01*
X-278492Y21916D01*
X-278210Y21775D01*
X-277881Y21681D01*
X-277552Y21611D01*
X-277176Y21587D01*
X-277012D01*
X-276824Y21611D01*
X-276589Y21658D01*
X-276331Y21728D01*
X-276049Y21822D01*
X-275767Y21939D01*
X-275485Y22127D01*
X-275461Y22151D01*
X-275367Y22221D01*
X-275250Y22339D01*
X-275132Y22503D01*
X-274968Y22691D01*
X-274827Y22903D01*
X-274709Y23114D01*
X-274616Y23373D01*
Y23396D01*
X-274592Y23467D01*
Y23584D01*
X-274569Y23772D01*
X-274545Y24030D01*
Y24195D01*
Y24383D01*
X-274522Y24618D01*
Y24853D01*
Y25111D01*
Y25417D01*
Y31079D01*
X-273159D01*
Y22950D01*
Y31478D01*
Y31455D01*
X-273182Y31478D01*
X-273229Y31502D01*
X-273300Y31549D01*
X-273394Y31619D01*
X-273652Y31831D01*
X-273981Y32089D01*
X-274357Y32418D01*
X-274757Y32771D01*
X-275156Y33170D01*
X-275532Y33570D01*
X-275555Y33593D01*
X-275579Y33616D01*
X-275696Y33757D01*
X-275884Y33992D01*
X-276119Y34298D01*
X-276401Y34650D01*
X-276683Y35073D01*
X-276989Y35543D01*
X-277271Y36036D01*
X-273159D01*
D01*
D02*
G37*
G36*
X-343691Y32489D02*
X-348742D01*
X-343926D01*
X-344208Y32465D01*
X-344537Y32418D01*
X-344913Y32324D01*
X-345312Y32230D01*
X-345688Y32066D01*
X-346040Y31854D01*
X-346087Y31831D01*
X-346181Y31737D01*
X-346322Y31619D01*
X-346510Y31455D01*
X-346698Y31243D01*
X-346886Y31009D01*
X-347051Y30750D01*
X-347168Y30468D01*
Y30445D01*
X-347192Y30374D01*
X-347215Y30233D01*
X-347262Y30022D01*
X-347286Y29740D01*
Y29575D01*
X-347309Y29364D01*
Y29152D01*
X-347333Y28894D01*
Y28635D01*
Y28330D01*
Y24265D01*
Y24242D01*
Y24148D01*
Y24030D01*
Y23890D01*
X-347356Y23584D01*
Y23467D01*
X-347380Y23373D01*
Y23349D01*
X-347427Y23279D01*
X-347473Y23185D01*
X-347544Y23091D01*
X-347567D01*
X-347615Y23067D01*
X-347709Y23044D01*
X-347803Y23020D01*
X-347850D01*
X-347990Y23067D01*
X-348061Y23114D01*
X-348178Y23185D01*
X-348272Y23279D01*
X-348390Y23420D01*
X-348742Y23161D01*
X-348719Y23114D01*
X-348648Y23020D01*
X-348531Y22879D01*
X-348390Y22691D01*
X-348202Y22503D01*
X-348014Y22292D01*
X-347803Y22104D01*
X-347567Y21939D01*
X-347544Y21916D01*
X-347473Y21892D01*
X-347333Y21822D01*
X-347168Y21775D01*
X-346980Y21704D01*
X-346745Y21634D01*
X-346487Y21611D01*
X-346205Y21587D01*
X-343409D01*
X-346064D01*
X-345899Y21611D01*
X-345688Y21634D01*
X-345476Y21681D01*
X-345242Y21751D01*
X-345007Y21845D01*
X-344795Y21986D01*
X-344772Y22010D01*
X-344725Y22057D01*
X-344631Y22174D01*
X-344537Y22315D01*
X-344443Y22480D01*
X-344349Y22715D01*
X-344255Y22973D01*
X-344208Y23279D01*
X-344184Y23255D01*
X-344114Y23208D01*
X-344020Y23114D01*
X-343879Y23020D01*
X-343714Y22879D01*
X-343526Y22738D01*
X-343291Y22597D01*
X-343056Y22433D01*
X-342516Y22127D01*
X-341929Y21845D01*
X-341647Y21751D01*
X-341341Y21658D01*
X-341036Y21611D01*
X-340754Y21587D01*
X-340613D01*
X-340448Y21611D01*
X-340237Y21658D01*
X-340002Y21728D01*
X-339744Y21822D01*
X-339509Y21963D01*
X-339274Y22151D01*
X-339250Y22174D01*
X-339180Y22268D01*
X-339086Y22386D01*
X-338992Y22550D01*
X-338874Y22762D01*
X-338780Y23020D01*
X-338710Y23302D01*
X-338686Y23631D01*
Y21658D01*
Y23749D01*
X-338710Y23842D01*
X-338733Y24054D01*
X-338804Y24359D01*
X-338945Y24688D01*
X-339109Y25041D01*
X-339368Y25417D01*
X-339509Y25581D01*
X-339697Y25769D01*
X-339720Y25793D01*
X-339744Y25816D01*
X-339814Y25863D01*
X-339908Y25957D01*
X-340049Y26051D01*
X-340214Y26168D01*
X-340402Y26286D01*
X-340660Y26450D01*
X-340918Y26615D01*
X-341247Y26826D01*
X-341623Y27038D01*
X-342046Y27249D01*
X-342493Y27508D01*
X-343009Y27766D01*
X-343573Y28048D01*
X-344208Y28330D01*
Y29387D01*
Y29411D01*
Y29434D01*
Y29575D01*
Y29787D01*
X-344184Y30022D01*
Y30257D01*
X-344161Y30515D01*
X-344114Y30726D01*
X-344067Y30868D01*
Y30891D01*
X-344043Y30914D01*
X-343973Y31056D01*
X-343808Y31220D01*
X-343714Y31314D01*
X-343573Y31408D01*
X-343550D01*
X-343503Y31455D01*
X-343432Y31478D01*
X-343338Y31525D01*
X-343080Y31596D01*
X-342775Y31643D01*
X-342657D01*
X-342516Y31619D01*
X-342352Y31596D01*
X-341952Y31502D01*
X-341764Y31431D01*
X-341576Y31314D01*
X-341553D01*
X-341529Y31267D01*
X-341435Y31173D01*
X-341318Y31032D01*
X-341294Y30938D01*
X-341271Y30844D01*
Y30797D01*
X-341318Y30680D01*
X-341412Y30492D01*
X-341482Y30374D01*
X-341600Y30257D01*
X-341623Y30233D01*
X-341670Y30186D01*
X-341741Y30092D01*
X-341811Y29975D01*
X-341952Y29669D01*
X-341999Y29505D01*
X-342023Y29340D01*
Y29317D01*
Y29246D01*
X-341999Y29152D01*
X-341976Y29011D01*
X-341929Y28870D01*
X-341835Y28706D01*
X-341741Y28542D01*
X-341600Y28400D01*
X-341576Y28377D01*
X-341529Y28354D01*
X-341435Y28283D01*
X-341318Y28213D01*
X-341177Y28142D01*
X-340989Y28095D01*
X-340778Y28048D01*
X-340542Y28025D01*
X-340425D01*
X-340284Y28048D01*
X-340143Y28072D01*
X-339955Y28119D01*
X-339744Y28213D01*
X-339556Y28307D01*
X-339368Y28447D01*
X-339344Y28471D01*
X-339297Y28518D01*
X-339227Y28612D01*
X-339133Y28730D01*
X-339039Y28870D01*
X-338968Y29035D01*
X-338921Y29223D01*
X-338898Y29434D01*
Y29481D01*
Y29575D01*
X-338921Y29716D01*
X-338968Y29928D01*
X-339062Y30163D01*
X-339156Y30421D01*
X-339321Y30680D01*
X-339532Y30961D01*
X-339556Y30985D01*
X-339650Y31079D01*
X-339791Y31220D01*
X-340002Y31384D01*
X-340237Y31549D01*
X-340542Y31737D01*
X-340895Y31925D01*
X-341294Y32089D01*
X-341318D01*
X-341341Y32113D01*
X-341412Y32136D01*
X-341506Y32160D01*
X-341717Y32207D01*
X-342023Y32301D01*
X-342375Y32371D01*
X-342798Y32418D01*
X-343221Y32465D01*
X-343691Y32489D01*
D02*
G37*
G36*
X-315638Y32489D02*
X-320525D01*
X-320619Y32465D01*
X-320760Y32442D01*
X-320924Y32418D01*
X-321300Y32324D01*
X-321723Y32160D01*
X-322193Y31925D01*
X-322428Y31784D01*
X-322663Y31619D01*
X-322874Y31408D01*
X-323109Y31173D01*
X-323133Y31149D01*
X-323156Y31102D01*
X-323227Y31032D01*
X-323297Y30938D01*
X-323391Y30797D01*
X-323485Y30633D01*
X-323603Y30445D01*
X-323720Y30210D01*
X-323814Y29951D01*
X-323932Y29669D01*
X-324049Y29364D01*
X-324143Y29011D01*
X-324237Y28635D01*
X-324308Y28236D01*
X-324355Y27813D01*
X-324378Y27343D01*
X-318645Y27343D01*
Y27320D01*
Y27249D01*
X-318669Y27132D01*
Y26991D01*
X-318692Y26826D01*
X-318739Y26615D01*
X-318810Y26145D01*
X-318951Y25605D01*
X-319162Y25064D01*
X-319421Y24524D01*
X-319749Y24030D01*
X-319773Y23984D01*
X-319890Y23890D01*
X-320055Y23749D01*
X-320266Y23584D01*
X-320525Y23396D01*
X-320854Y23255D01*
X-321206Y23161D01*
X-321606Y23114D01*
X-321723D01*
X-321841Y23138D01*
X-322005Y23161D01*
X-322193Y23208D01*
X-322381Y23255D01*
X-322592Y23349D01*
X-322804Y23467D01*
X-322827Y23490D01*
X-322898Y23537D01*
X-323015Y23631D01*
X-323156Y23772D01*
X-323344Y23960D01*
X-323532Y24195D01*
X-323744Y24477D01*
X-323979Y24829D01*
X-324378Y24594D01*
Y21423D01*
Y24571D01*
X-324331Y24524D01*
X-324284Y24430D01*
X-324237Y24312D01*
X-324143Y24171D01*
X-324049Y24007D01*
X-323814Y23631D01*
X-323532Y23232D01*
X-323203Y22832D01*
X-322851Y22433D01*
X-322663Y22268D01*
X-322475Y22127D01*
X-322428Y22104D01*
X-322287Y22010D01*
X-322076Y21916D01*
X-321794Y21775D01*
X-321441Y21658D01*
X-321042Y21540D01*
X-320595Y21446D01*
X-320102Y21423D01*
X-320008D01*
X-319890Y21446D01*
X-319726D01*
X-319538Y21470D01*
X-319303Y21516D01*
X-319045Y21563D01*
X-318786Y21658D01*
X-318504Y21751D01*
X-318222Y21869D01*
X-317917Y22010D01*
X-317635Y22174D01*
X-317353Y22386D01*
X-317071Y22621D01*
X-316813Y22903D01*
X-316578Y23208D01*
Y23232D01*
X-316531Y23279D01*
X-316484Y23349D01*
X-316437Y23467D01*
X-316366Y23608D01*
X-316272Y23772D01*
X-316202Y23960D01*
X-316108Y24195D01*
X-316014Y24430D01*
X-315943Y24712D01*
X-315779Y25323D01*
X-315685Y26004D01*
X-315638Y26779D01*
Y23161D01*
Y27038D01*
X-315661Y27202D01*
X-315685Y27437D01*
X-315708Y27696D01*
X-315755Y27978D01*
X-315826Y28283D01*
X-315990Y28941D01*
X-316108Y29293D01*
X-316225Y29646D01*
X-316390Y29975D01*
X-316578Y30304D01*
X-316789Y30633D01*
X-317048Y30938D01*
X-317071Y30961D01*
X-317118Y31009D01*
X-317188Y31079D01*
X-317306Y31173D01*
X-317423Y31290D01*
X-317588Y31431D01*
X-317776Y31572D01*
X-317987Y31713D01*
X-318481Y31995D01*
X-319045Y32254D01*
X-319350Y32348D01*
X-319679Y32418D01*
X-320008Y32465D01*
X-320360Y32489D01*
X-315638D01*
D02*
G37*
G36*
X-281218D02*
X-286293D01*
X-286551Y32442D01*
X-286880Y32395D01*
X-287279Y32324D01*
X-287702Y32183D01*
X-288149Y32019D01*
X-288595Y31784D01*
X-288619D01*
X-288642Y31760D01*
X-288783Y31643D01*
X-288995Y31502D01*
X-289253Y31267D01*
X-289558Y30985D01*
X-289840Y30633D01*
X-290122Y30233D01*
X-290381Y29763D01*
Y29740D01*
X-290404Y29716D01*
X-290428Y29646D01*
X-290475Y29528D01*
X-290522Y29411D01*
X-290569Y29270D01*
X-290686Y28917D01*
X-290804Y28518D01*
X-290898Y28025D01*
X-290968Y27508D01*
X-290992Y26944D01*
Y21423D01*
Y26732D01*
X-290968Y26568D01*
Y26380D01*
X-290945Y26168D01*
X-290898Y25910D01*
X-290851Y25652D01*
X-290710Y25064D01*
X-290522Y24430D01*
X-290240Y23819D01*
X-290052Y23514D01*
X-289864Y23232D01*
X-289840Y23208D01*
X-289793Y23161D01*
X-289723Y23067D01*
X-289605Y22950D01*
X-289464Y22809D01*
X-289300Y22668D01*
X-289112Y22503D01*
X-288877Y22339D01*
X-288619Y22151D01*
X-288337Y21986D01*
X-288031Y21845D01*
X-287702Y21704D01*
X-287350Y21587D01*
X-286950Y21493D01*
X-286551Y21446D01*
X-286105Y21423D01*
X-285870D01*
X-285729Y21446D01*
X-285517Y21470D01*
X-285306Y21516D01*
X-285047Y21563D01*
X-284765Y21634D01*
X-284484Y21704D01*
X-284178Y21822D01*
X-283896Y21963D01*
X-283591Y22127D01*
X-283285Y22315D01*
X-283003Y22527D01*
X-282745Y22785D01*
X-282486Y23067D01*
X-282463Y23091D01*
X-282439Y23138D01*
X-282369Y23232D01*
X-282298Y23349D01*
X-282204Y23514D01*
X-282087Y23702D01*
X-281970Y23913D01*
X-281852Y24172D01*
X-281735Y24430D01*
X-281617Y24735D01*
X-281406Y25370D01*
X-281265Y26098D01*
X-281241Y26497D01*
X-281218Y26897D01*
Y22174D01*
Y26897D01*
Y27108D01*
X-281241Y27273D01*
X-281265Y27461D01*
X-281288Y27696D01*
X-281335Y27954D01*
X-281382Y28213D01*
X-281523Y28823D01*
X-281758Y29481D01*
X-281922Y29810D01*
X-282087Y30163D01*
X-282275Y30468D01*
X-282510Y30797D01*
X-282533Y30821D01*
X-282580Y30868D01*
X-282651Y30961D01*
X-282745Y31056D01*
X-282886Y31196D01*
X-283027Y31337D01*
X-283215Y31478D01*
X-283450Y31643D01*
X-283685Y31807D01*
X-283943Y31948D01*
X-284225Y32089D01*
X-284554Y32230D01*
X-284883Y32324D01*
X-285259Y32418D01*
X-285658Y32465D01*
X-286058Y32489D01*
X-281218D01*
D02*
G37*
G36*
X-251637Y21587D02*
X-254292D01*
X-251637D01*
D01*
D02*
G37*
G36*
X-340754Y21587D02*
D01*
X-343409D01*
X-340754D01*
D02*
G37*
G36*
X-305464Y32489D02*
X-310351D01*
X-310445Y32465D01*
X-310586Y32442D01*
X-310751Y32418D01*
X-311127Y32324D01*
X-311550Y32160D01*
X-312020Y31925D01*
X-312255Y31784D01*
X-312489Y31619D01*
X-312701Y31408D01*
X-312936Y31173D01*
X-312959Y31149D01*
X-312983Y31102D01*
X-313053Y31032D01*
X-313124Y30938D01*
X-313218Y30797D01*
X-313312Y30633D01*
X-313429Y30445D01*
X-313547Y30210D01*
X-313641Y29951D01*
X-313758Y29669D01*
X-313876Y29364D01*
X-313970Y29011D01*
X-314064Y28635D01*
X-314134Y28236D01*
X-314181Y27813D01*
X-314205Y27343D01*
X-308472D01*
Y27320D01*
Y27249D01*
X-308495Y27132D01*
Y26991D01*
X-308519Y26826D01*
X-308566Y26615D01*
X-308636Y26145D01*
X-308777Y25605D01*
X-308989Y25064D01*
X-309247Y24524D01*
X-309576Y24030D01*
X-309600Y23984D01*
X-309717Y23890D01*
X-309881Y23749D01*
X-310093Y23584D01*
X-310351Y23396D01*
X-310680Y23255D01*
X-311033Y23161D01*
X-311432Y23114D01*
X-311550D01*
X-311667Y23138D01*
X-311832Y23161D01*
X-312020Y23208D01*
X-312208Y23255D01*
X-312419Y23349D01*
X-312631Y23467D01*
X-312654Y23490D01*
X-312724Y23537D01*
X-312842Y23631D01*
X-312983Y23772D01*
X-313171Y23960D01*
X-313359Y24195D01*
X-313570Y24477D01*
X-313805Y24829D01*
X-314205Y24594D01*
Y21423D01*
Y24571D01*
X-314158Y24524D01*
X-314111Y24430D01*
X-314064Y24312D01*
X-313970Y24172D01*
X-313876Y24007D01*
X-313641Y23631D01*
X-313359Y23232D01*
X-313030Y22832D01*
X-312677Y22433D01*
X-312489Y22268D01*
X-312302Y22127D01*
X-312255Y22104D01*
X-312114Y22010D01*
X-311902Y21916D01*
X-311620Y21775D01*
X-311268Y21658D01*
X-310868Y21540D01*
X-310422Y21446D01*
X-309928Y21423D01*
X-309835D01*
X-309717Y21446D01*
X-309553D01*
X-309365Y21470D01*
X-309130Y21516D01*
X-308871Y21563D01*
X-308613Y21658D01*
X-308331Y21751D01*
X-308049Y21869D01*
X-307743Y22010D01*
X-307462Y22174D01*
X-307180Y22386D01*
X-306898Y22621D01*
X-306639Y22903D01*
X-306404Y23208D01*
Y23232D01*
X-306357Y23279D01*
X-306310Y23349D01*
X-306263Y23467D01*
X-306193Y23608D01*
X-306099Y23772D01*
X-306028Y23960D01*
X-305934Y24195D01*
X-305840Y24430D01*
X-305770Y24712D01*
X-305606Y25323D01*
X-305511Y26004D01*
X-305464Y26779D01*
Y21563D01*
Y27038D01*
X-305488Y27202D01*
X-305511Y27437D01*
X-305535Y27696D01*
X-305582Y27978D01*
X-305652Y28283D01*
X-305817Y28941D01*
X-305934Y29293D01*
X-306052Y29646D01*
X-306216Y29975D01*
X-306404Y30304D01*
X-306616Y30633D01*
X-306874Y30938D01*
X-306898Y30961D01*
X-306945Y31009D01*
X-307015Y31079D01*
X-307133Y31173D01*
X-307250Y31290D01*
X-307415Y31431D01*
X-307603Y31572D01*
X-307814Y31713D01*
X-308307Y31995D01*
X-308871Y32254D01*
X-309177Y32348D01*
X-309506Y32418D01*
X-309835Y32465D01*
X-310187Y32489D01*
X-305464D01*
D02*
G37*
G36*
X-260707Y32183D02*
X-271984D01*
X-270856D01*
Y24007D01*
Y23984D01*
Y23960D01*
Y23819D01*
X-270880Y23608D01*
Y23349D01*
X-270903Y23091D01*
X-270950Y22856D01*
X-270997Y22644D01*
X-271068Y22480D01*
X-271091D01*
X-271115Y22433D01*
X-271185Y22386D01*
X-271279Y22339D01*
X-271397Y22268D01*
X-271561Y22221D01*
X-271749Y22174D01*
X-271984Y22127D01*
Y21423D01*
Y21728D01*
X-267731D01*
Y23114D01*
X-267708Y23067D01*
X-267614Y22973D01*
X-267450Y22809D01*
X-267262Y22621D01*
X-267027Y22409D01*
X-266792Y22198D01*
X-266510Y21986D01*
X-266228Y21822D01*
X-266204Y21799D01*
X-266087Y21751D01*
X-265946Y21704D01*
X-265734Y21634D01*
X-265499Y21540D01*
X-265218Y21493D01*
X-264889Y21446D01*
X-264560Y21423D01*
X-260707D01*
X-264419D01*
X-264231Y21446D01*
X-264019Y21493D01*
X-263784Y21563D01*
X-263502Y21658D01*
X-263244Y21775D01*
X-262962Y21963D01*
X-262938Y21986D01*
X-262845Y22057D01*
X-262727Y22174D01*
X-262586Y22315D01*
X-262445Y22503D01*
X-262281Y22715D01*
X-262163Y22950D01*
X-262046Y23208D01*
Y23255D01*
X-262022Y23349D01*
X-261975Y23537D01*
X-261952Y23795D01*
X-261905Y24148D01*
X-261858Y24594D01*
Y24829D01*
X-261834Y25111D01*
Y25417D01*
Y25746D01*
Y29904D01*
Y29928D01*
Y29951D01*
Y30092D01*
Y30304D01*
X-261811Y30539D01*
X-261787Y30797D01*
X-261740Y31032D01*
X-261670Y31243D01*
X-261599Y31384D01*
Y31408D01*
X-261552Y31431D01*
X-261505Y31478D01*
X-261411Y31549D01*
X-261294Y31619D01*
X-261129Y31690D01*
X-260942Y31737D01*
X-260707Y31784D01*
Y32183D01*
D02*
G37*
%LPD*%
G36*
X-344137Y27531D02*
X-344067Y27508D01*
X-343973Y27437D01*
X-343738Y27273D01*
X-343432Y27061D01*
X-343103Y26826D01*
X-342751Y26521D01*
X-342446Y26216D01*
X-342164Y25887D01*
X-342140Y25863D01*
X-342093Y25793D01*
X-342023Y25652D01*
X-341952Y25511D01*
X-341882Y25323D01*
X-341811Y25111D01*
X-341764Y24900D01*
X-341741Y24665D01*
Y24641D01*
Y24571D01*
X-341764Y24477D01*
X-341788Y24359D01*
X-341835Y24218D01*
X-341882Y24054D01*
X-341976Y23913D01*
X-342093Y23749D01*
X-342117D01*
X-342140Y23702D01*
X-342211Y23654D01*
X-342305Y23607D01*
X-342422Y23561D01*
X-342540Y23514D01*
X-342704Y23490D01*
X-342892Y23467D01*
X-342986D01*
X-343103Y23490D01*
X-343268Y23537D01*
X-343456Y23631D01*
X-343691Y23725D01*
X-343926Y23890D01*
X-344208Y24101D01*
Y27578D01*
X-344184D01*
X-344137Y27531D01*
D02*
G37*
G36*
X-319984Y31737D02*
X-319867Y31690D01*
X-319702Y31619D01*
X-319538Y31502D01*
X-319373Y31361D01*
X-319233Y31173D01*
X-319209Y31126D01*
X-319139Y30985D01*
X-319021Y30773D01*
X-318927Y30468D01*
X-318810Y30069D01*
X-318692Y29599D01*
X-318622Y29058D01*
X-318598Y28447D01*
Y28072D01*
X-321629D01*
Y28095D01*
Y28142D01*
Y28236D01*
Y28354D01*
Y28518D01*
Y28682D01*
X-321606Y29058D01*
X-321582Y29458D01*
X-321535Y29857D01*
X-321488Y30233D01*
X-321465Y30374D01*
X-321418Y30515D01*
Y30539D01*
X-321394Y30633D01*
X-321347Y30750D01*
X-321277Y30891D01*
X-321089Y31243D01*
X-320948Y31408D01*
X-320807Y31549D01*
X-320760Y31572D01*
X-320642Y31666D01*
X-320454Y31737D01*
X-320196Y31760D01*
X-320102D01*
X-319984Y31737D01*
D02*
G37*
G36*
X-285893Y31690D02*
X-285776Y31666D01*
X-285611Y31596D01*
X-285447Y31525D01*
X-285282Y31408D01*
X-285118Y31267D01*
X-285094Y31243D01*
X-285047Y31173D01*
X-284977Y31056D01*
X-284906Y30891D01*
X-284812Y30680D01*
X-284742Y30374D01*
X-284648Y30022D01*
X-284601Y29575D01*
Y29552D01*
Y29528D01*
Y29434D01*
X-284577Y29340D01*
Y29223D01*
X-284554Y29058D01*
Y28870D01*
Y28659D01*
X-284530Y28424D01*
Y28166D01*
X-284507Y27860D01*
Y27555D01*
X-284484Y27226D01*
Y26850D01*
Y26474D01*
Y26051D01*
Y26028D01*
Y26004D01*
Y25934D01*
Y25840D01*
Y25628D01*
X-284507Y25323D01*
Y24970D01*
X-284554Y24594D01*
X-284624Y23819D01*
Y23795D01*
X-284648Y23678D01*
X-284695Y23537D01*
X-284742Y23373D01*
X-284883Y22973D01*
X-285000Y22762D01*
X-285141Y22597D01*
X-285165Y22574D01*
X-285212Y22527D01*
X-285306Y22480D01*
X-285423Y22409D01*
X-285564Y22315D01*
X-285729Y22268D01*
X-285893Y22221D01*
X-286081Y22198D01*
X-286175D01*
X-286246Y22221D01*
X-286363D01*
X-286645Y22315D01*
X-286786Y22362D01*
X-286903Y22456D01*
X-286927Y22480D01*
X-286974Y22527D01*
X-287044Y22621D01*
X-287138Y22738D01*
X-287232Y22903D01*
X-287350Y23091D01*
X-287420Y23302D01*
X-287491Y23537D01*
Y23561D01*
Y23584D01*
X-287514Y23655D01*
X-287538Y23749D01*
Y23890D01*
X-287561Y24030D01*
X-287585Y24242D01*
X-287608Y24477D01*
X-287632Y24735D01*
X-287655Y25041D01*
X-287679Y25393D01*
Y25793D01*
X-287702Y26216D01*
X-287726Y26709D01*
Y27226D01*
Y27813D01*
Y27837D01*
Y27907D01*
Y28001D01*
Y28119D01*
Y28283D01*
Y28447D01*
X-287702Y28847D01*
X-287679Y29293D01*
X-287632Y29716D01*
X-287561Y30116D01*
X-287538Y30280D01*
X-287491Y30421D01*
Y30445D01*
X-287444Y30539D01*
X-287397Y30680D01*
X-287326Y30821D01*
X-287138Y31173D01*
X-287021Y31337D01*
X-286880Y31478D01*
X-286856D01*
X-286833Y31525D01*
X-286763Y31549D01*
X-286668Y31596D01*
X-286434Y31666D01*
X-286105Y31713D01*
X-286011D01*
X-285893Y31690D01*
D02*
G37*
G36*
X-309811Y31737D02*
X-309694Y31690D01*
X-309529Y31619D01*
X-309365Y31502D01*
X-309200Y31361D01*
X-309059Y31173D01*
X-309036Y31126D01*
X-308965Y30985D01*
X-308848Y30773D01*
X-308754Y30468D01*
X-308636Y30069D01*
X-308519Y29599D01*
X-308448Y29058D01*
X-308425Y28447D01*
Y28072D01*
X-311456D01*
Y28095D01*
Y28142D01*
Y28236D01*
Y28354D01*
Y28518D01*
Y28682D01*
X-311432Y29058D01*
X-311409Y29458D01*
X-311362Y29857D01*
X-311315Y30233D01*
X-311291Y30374D01*
X-311244Y30515D01*
Y30539D01*
X-311221Y30633D01*
X-311174Y30750D01*
X-311103Y30891D01*
X-310915Y31243D01*
X-310774Y31408D01*
X-310633Y31549D01*
X-310586Y31572D01*
X-310469Y31666D01*
X-310281Y31737D01*
X-310023Y31760D01*
X-309928D01*
X-309811Y31737D01*
D02*
G37*
G36*
X-264959Y25041D02*
Y25017D01*
Y24994D01*
Y24853D01*
Y24665D01*
X-264983Y24430D01*
Y24195D01*
X-265006Y23960D01*
X-265030Y23749D01*
X-265053Y23584D01*
Y23561D01*
X-265077Y23537D01*
X-265147Y23420D01*
X-265241Y23255D01*
X-265382Y23114D01*
X-265429Y23091D01*
X-265546Y23044D01*
X-265711Y22973D01*
X-265922Y22950D01*
X-265993D01*
X-266063Y22973D01*
X-266157D01*
X-266392Y23044D01*
X-266651Y23161D01*
X-266674Y23185D01*
X-266721Y23208D01*
X-266815Y23302D01*
X-266956Y23420D01*
X-267121Y23561D01*
X-267285Y23772D01*
X-267497Y24007D01*
X-267731Y24312D01*
Y29904D01*
Y29928D01*
Y29951D01*
Y30092D01*
Y30304D01*
X-267708Y30539D01*
X-267684Y30797D01*
X-267638Y31032D01*
X-267567Y31243D01*
X-267497Y31384D01*
Y31408D01*
X-267450Y31431D01*
X-267403Y31478D01*
X-267309Y31549D01*
X-267191Y31619D01*
X-267027Y31690D01*
X-266839Y31737D01*
X-266604Y31784D01*
Y32183D01*
X-264959D01*
Y25041D01*
D02*
G37*
D12*
X-21529Y-78613D02*
X-16959D01*
X-21478Y-50539D02*
X-16908D01*
X-19193Y-48254D02*
Y-52824D01*
X-24116Y-280286D02*
X-25258Y-281429D01*
X-27544D01*
X-28686Y-280286D01*
Y-275716D01*
X-27544Y-274573D01*
X-25258D01*
X-24116Y-275716D01*
Y-278001D01*
X-26401D01*
X-21830Y-274573D02*
Y-281429D01*
X-17260Y-274573D01*
Y-281429D01*
X-14975D02*
Y-274573D01*
X-11547D01*
X-10404Y-275716D01*
Y-280286D01*
X-11547Y-281429D01*
X-14975D01*
X-24116Y-256156D02*
X-25258Y-257299D01*
X-27544D01*
X-28686Y-256156D01*
Y-251586D01*
X-27544Y-250443D01*
X-25258D01*
X-24116Y-251586D01*
Y-253871D01*
X-26401D01*
X-21830Y-250443D02*
Y-257299D01*
X-17260Y-250443D01*
Y-257299D01*
X-14975D02*
Y-250443D01*
X-11547D01*
X-10404Y-251586D01*
Y-256156D01*
X-11547Y-257299D01*
X-14975D01*
X-10404Y-176023D02*
Y-182879D01*
Y-180594D01*
X-14975Y-176023D01*
X-11547Y-179451D01*
X-14975Y-182879D01*
X-17260Y-176023D02*
Y-182879D01*
X-21830D01*
X-28686D02*
X-24116D01*
X-28686Y-178309D01*
Y-177166D01*
X-27543Y-176023D01*
X-25258D01*
X-24116Y-177166D01*
X-10404Y-150623D02*
Y-157479D01*
Y-155194D01*
X-14975Y-150623D01*
X-11547Y-154051D01*
X-14975Y-157479D01*
X-17260Y-150623D02*
Y-157479D01*
X-21830D01*
X-24116D02*
X-26401D01*
X-25258D01*
Y-150623D01*
X-24116Y-151766D01*
X-10404Y-123953D02*
Y-130809D01*
Y-127381D01*
X-14975D01*
Y-123953D01*
Y-130809D01*
X-21830D02*
X-17260D01*
X-21830Y-126238D01*
Y-125096D01*
X-20688Y-123953D01*
X-18403D01*
X-17260Y-125096D01*
X-10404Y-99569D02*
Y-106425D01*
X-14975D01*
X-21830D02*
X-17260D01*
X-21830Y-101854D01*
Y-100712D01*
X-20688Y-99569D01*
X-18403D01*
X-17260Y-100712D01*
X-10404Y-84075D02*
Y-90931D01*
X-13832D01*
X-14975Y-89788D01*
Y-88646D01*
X-13832Y-87503D01*
X-10404D01*
X-13832D01*
X-14975Y-86361D01*
Y-85218D01*
X-13832Y-84075D01*
X-10404D01*
X-17260Y-90931D02*
Y-86361D01*
X-19545Y-84075D01*
X-21830Y-86361D01*
Y-90931D01*
Y-87503D01*
X-17260D01*
X-24116Y-84075D02*
X-28686D01*
X-26401D01*
Y-90931D01*
X-10404Y-58167D02*
Y-65023D01*
X-13832D01*
X-14975Y-63880D01*
Y-62738D01*
X-13832Y-61595D01*
X-10404D01*
X-13832D01*
X-14975Y-60452D01*
Y-59310D01*
X-13832Y-58167D01*
X-10404D01*
X-17260Y-65023D02*
Y-60452D01*
X-19545Y-58167D01*
X-21830Y-60452D01*
Y-65023D01*
Y-61595D01*
X-17260D01*
X-24116Y-58167D02*
X-28686D01*
X-26401D01*
Y-65023D01*
X-10404Y-1009D02*
Y-7865D01*
X-14975D01*
X-17260D02*
X-19545D01*
X-18403D01*
Y-1009D01*
X-17260Y-2152D01*
X-10404Y-19327D02*
Y-26183D01*
Y-22755D01*
X-14975D01*
Y-19327D01*
Y-26183D01*
X-17260D02*
X-19545D01*
X-18403D01*
Y-19327D01*
X-17260Y-20470D01*
X-464681Y-265133D02*
X-469252D01*
X-466966D01*
Y-271988D01*
X-476107D02*
X-471537D01*
X-476107Y-267418D01*
Y-266275D01*
X-474965Y-265133D01*
X-472679D01*
X-471537Y-266275D01*
X-541197Y-264660D02*
X-545767D01*
X-543482D01*
Y-271516D01*
X-548052D02*
X-550337D01*
X-549195D01*
Y-264660D01*
X-548052Y-265802D01*
X-473917Y-217095D02*
Y-210239D01*
X-477345D01*
X-478488Y-211382D01*
Y-213667D01*
X-477345Y-214810D01*
X-473917D01*
X-476202D02*
X-478488Y-217095D01*
X-485343D02*
X-480773D01*
X-485343Y-212524D01*
Y-211382D01*
X-484201Y-210239D01*
X-481915D01*
X-480773Y-211382D01*
X-491057Y-217095D02*
Y-210239D01*
X-487629Y-213667D01*
X-492199D01*
X-525145Y-215771D02*
Y-208915D01*
X-528573D01*
X-529715Y-210058D01*
Y-212343D01*
X-528573Y-213486D01*
X-525145D01*
X-527430D02*
X-529715Y-215771D01*
X-536571D02*
X-532001D01*
X-536571Y-211200D01*
Y-210058D01*
X-535429Y-208915D01*
X-533143D01*
X-532001Y-210058D01*
X-538857D02*
X-539999Y-208915D01*
X-542285D01*
X-543427Y-210058D01*
Y-211200D01*
X-542285Y-212343D01*
X-541142D01*
X-542285D01*
X-543427Y-213486D01*
Y-214628D01*
X-542285Y-215771D01*
X-539999D01*
X-538857Y-214628D01*
X-571418Y-159383D02*
Y-152527D01*
X-567990D01*
X-566847Y-153670D01*
Y-158240D01*
X-567990Y-159383D01*
X-571418D01*
X-564562Y-152527D02*
X-562277D01*
X-563419D01*
Y-159383D01*
X-564562Y-158240D01*
X-501501Y-159796D02*
X-502644Y-158654D01*
Y-156368D01*
X-501501Y-155226D01*
X-496930D01*
X-495788Y-156368D01*
Y-158654D01*
X-496930Y-159796D01*
X-495788Y-162082D02*
Y-164367D01*
Y-163224D01*
X-502644D01*
X-501501Y-162082D01*
X-484957Y-159796D02*
X-486100Y-158654D01*
Y-156369D01*
X-484957Y-155226D01*
X-480387D01*
X-479244Y-156369D01*
Y-158654D01*
X-480387Y-159796D01*
X-479244Y-166652D02*
Y-162082D01*
X-483814Y-166652D01*
X-484957D01*
X-486100Y-165509D01*
Y-163224D01*
X-484957Y-162082D01*
X-468413Y-159796D02*
X-469556Y-158654D01*
Y-156369D01*
X-468413Y-155226D01*
X-463843D01*
X-462700Y-156369D01*
Y-158654D01*
X-463843Y-159796D01*
X-468413Y-162082D02*
X-469556Y-163224D01*
Y-165509D01*
X-468413Y-166652D01*
X-467271D01*
X-466128Y-165509D01*
Y-164367D01*
Y-165509D01*
X-464985Y-166652D01*
X-463843D01*
X-462700Y-165509D01*
Y-163224D01*
X-463843Y-162082D01*
X-451869Y-159796D02*
X-453012Y-158654D01*
Y-156369D01*
X-451869Y-155226D01*
X-447299D01*
X-446156Y-156369D01*
Y-158654D01*
X-447299Y-159796D01*
X-446156Y-165509D02*
X-453012D01*
X-449584Y-162082D01*
Y-166652D01*
X-518370Y-58381D02*
Y-51526D01*
X-521798D01*
X-522941Y-52668D01*
Y-54953D01*
X-521798Y-56096D01*
X-518370D01*
X-520656D02*
X-522941Y-58381D01*
X-525226Y-57239D02*
X-526369Y-58381D01*
X-528654D01*
X-529797Y-57239D01*
Y-52668D01*
X-528654Y-51526D01*
X-526369D01*
X-525226Y-52668D01*
Y-53811D01*
X-526369Y-54953D01*
X-529797D01*
X-519056Y-91649D02*
Y-84794D01*
X-522484D01*
X-523627Y-85936D01*
Y-88222D01*
X-522484Y-89364D01*
X-519056D01*
X-521342D02*
X-523627Y-91649D01*
X-525912D02*
X-528197D01*
X-527055D01*
Y-84794D01*
X-525912Y-85936D01*
X-518949Y-109237D02*
Y-102381D01*
X-522377D01*
X-523519Y-103524D01*
Y-105809D01*
X-522377Y-106951D01*
X-518949D01*
X-521234D02*
X-523519Y-109237D01*
X-525805D02*
X-528090D01*
X-526947D01*
Y-102381D01*
X-525805Y-103524D01*
X-536088Y-102381D02*
X-533803Y-103524D01*
X-531518Y-105809D01*
Y-108094D01*
X-532660Y-109237D01*
X-534946D01*
X-536088Y-108094D01*
Y-106951D01*
X-534946Y-105809D01*
X-531518D01*
X-518554Y-74650D02*
Y-67794D01*
X-521982D01*
X-523124Y-68937D01*
Y-71222D01*
X-521982Y-72365D01*
X-518554D01*
X-520839D02*
X-523124Y-74650D01*
X-525410Y-67794D02*
X-529980D01*
Y-68937D01*
X-525410Y-73507D01*
Y-74650D01*
X-518520Y-125307D02*
Y-118451D01*
X-521948D01*
X-523090Y-119594D01*
Y-121879D01*
X-521948Y-123022D01*
X-518520D01*
X-520805D02*
X-523090Y-125307D01*
X-525375D02*
X-527661D01*
X-526518D01*
Y-118451D01*
X-525375Y-119594D01*
X-535659Y-125307D02*
X-531088D01*
X-535659Y-120737D01*
Y-119594D01*
X-534516Y-118451D01*
X-532231D01*
X-531088Y-119594D01*
X-443258Y-51964D02*
Y-58820D01*
X-447828D01*
X-450114Y-53107D02*
X-451256Y-51964D01*
X-453542D01*
X-454684Y-53107D01*
Y-54249D01*
X-453542Y-55392D01*
X-452399D01*
X-453542D01*
X-454684Y-56535D01*
Y-57677D01*
X-453542Y-58820D01*
X-451256D01*
X-450114Y-57677D01*
X-443962Y-68239D02*
Y-75095D01*
X-448532D01*
X-455388D02*
X-450818D01*
X-455388Y-70525D01*
Y-69382D01*
X-454245Y-68239D01*
X-451960D01*
X-450818Y-69382D01*
X-444203Y-84139D02*
Y-90995D01*
X-448774D01*
X-451059D02*
X-453344D01*
X-452201D01*
Y-84139D01*
X-451059Y-85282D01*
X-443643Y-102025D02*
Y-108881D01*
X-448213D01*
X-455069Y-102025D02*
X-450498D01*
Y-105453D01*
X-452784Y-104311D01*
X-453926D01*
X-455069Y-105453D01*
Y-107738D01*
X-453926Y-108881D01*
X-451641D01*
X-450498Y-107738D01*
X-444177Y-118792D02*
Y-125648D01*
X-448748D01*
X-454461D02*
Y-118792D01*
X-451033Y-122220D01*
X-455603D01*
X-242021Y-135705D02*
Y-129992D01*
X-240878Y-128849D01*
X-238593D01*
X-237450Y-129992D01*
Y-135705D01*
X-235165Y-128849D02*
X-232880D01*
X-234022D01*
Y-135705D01*
X-235165Y-134562D01*
X-35348Y-218583D02*
Y-211727D01*
X-38776D01*
X-39918Y-212870D01*
Y-215155D01*
X-38776Y-216297D01*
X-35348D01*
X-37633D02*
X-39918Y-218583D01*
X-46774Y-211727D02*
X-42204D01*
Y-215155D01*
X-44489Y-214012D01*
X-45631D01*
X-46774Y-215155D01*
Y-217440D01*
X-45631Y-218583D01*
X-43346D01*
X-42204Y-217440D01*
X-49059Y-218583D02*
X-51345D01*
X-50202D01*
Y-211727D01*
X-49059Y-212870D01*
X-204563Y-255655D02*
Y-248799D01*
X-207991D01*
X-209133Y-249942D01*
Y-252227D01*
X-207991Y-253370D01*
X-204563D01*
X-206848D02*
X-209133Y-255655D01*
X-214847D02*
Y-248799D01*
X-211419Y-252227D01*
X-215989D01*
X-222845Y-255655D02*
X-218275D01*
X-222845Y-251084D01*
Y-249942D01*
X-221702Y-248799D01*
X-219417D01*
X-218275Y-249942D01*
X-34383Y-88269D02*
Y-81413D01*
X-37811D01*
X-38953Y-82556D01*
Y-84841D01*
X-37811Y-85984D01*
X-34383D01*
X-36668D02*
X-38953Y-88269D01*
X-41239Y-82556D02*
X-42381Y-81413D01*
X-44667D01*
X-45809Y-82556D01*
Y-83698D01*
X-44667Y-84841D01*
X-43524D01*
X-44667D01*
X-45809Y-85984D01*
Y-87126D01*
X-44667Y-88269D01*
X-42381D01*
X-41239Y-87126D01*
X-52665Y-81413D02*
X-48095D01*
Y-84841D01*
X-50380Y-83698D01*
X-51522D01*
X-52665Y-84841D01*
Y-87126D01*
X-51522Y-88269D01*
X-49237D01*
X-48095Y-87126D01*
X-164522Y-206287D02*
Y-212000D01*
X-165665Y-213143D01*
X-167950D01*
X-169093Y-212000D01*
Y-206287D01*
X-175949D02*
X-173663Y-207430D01*
X-171378Y-209715D01*
Y-212000D01*
X-172521Y-213143D01*
X-174806D01*
X-175949Y-212000D01*
Y-210857D01*
X-174806Y-209715D01*
X-171378D01*
X-120509Y-267385D02*
X-125079Y-274241D01*
Y-267385D02*
X-120509Y-274241D01*
X-131935D02*
X-127365D01*
X-131935Y-269671D01*
Y-268528D01*
X-130792Y-267385D01*
X-128507D01*
X-127365Y-268528D01*
X-120948Y-134747D02*
X-125518Y-141603D01*
Y-134747D02*
X-120948Y-141603D01*
X-127803D02*
X-130089D01*
X-128946D01*
Y-134747D01*
X-127803Y-135890D01*
X-147847Y-26063D02*
Y-31776D01*
X-148990Y-32919D01*
X-151275D01*
X-152418Y-31776D01*
Y-26063D01*
X-159274D02*
X-154703D01*
Y-29491D01*
X-156988Y-28349D01*
X-158131D01*
X-159274Y-29491D01*
Y-31776D01*
X-158131Y-32919D01*
X-155846D01*
X-154703Y-31776D01*
X-199797Y-146917D02*
Y-140062D01*
X-203225D01*
X-204367Y-141204D01*
Y-143489D01*
X-203225Y-144632D01*
X-199797D01*
X-202082D02*
X-204367Y-146917D01*
X-211223Y-140062D02*
X-208938Y-141204D01*
X-206652Y-143489D01*
Y-145775D01*
X-207795Y-146917D01*
X-210080D01*
X-211223Y-145775D01*
Y-144632D01*
X-210080Y-143489D01*
X-206652D01*
X-213508Y-141204D02*
X-214651Y-140062D01*
X-216936D01*
X-218079Y-141204D01*
Y-145775D01*
X-216936Y-146917D01*
X-214651D01*
X-213508Y-145775D01*
Y-141204D01*
X-199797Y-230991D02*
Y-224135D01*
X-203225D01*
X-204367Y-225278D01*
Y-227563D01*
X-203225Y-228706D01*
X-199797D01*
X-202082D02*
X-204367Y-230991D01*
X-211223Y-224135D02*
X-206652D01*
Y-227563D01*
X-208938Y-226421D01*
X-210080D01*
X-211223Y-227563D01*
Y-229849D01*
X-210080Y-230991D01*
X-207795D01*
X-206652Y-229849D01*
X-213508D02*
X-214651Y-230991D01*
X-216936D01*
X-218079Y-229849D01*
Y-225278D01*
X-216936Y-224135D01*
X-214651D01*
X-213508Y-225278D01*
Y-226421D01*
X-214651Y-227563D01*
X-218079D01*
X-32977Y-203520D02*
Y-196664D01*
X-36405D01*
X-37547Y-197807D01*
Y-200092D01*
X-36405Y-201235D01*
X-32977D01*
X-35262D02*
X-37547Y-203520D01*
X-44403Y-196664D02*
X-39833D01*
Y-200092D01*
X-42118Y-198949D01*
X-43260D01*
X-44403Y-200092D01*
Y-202377D01*
X-43260Y-203520D01*
X-40975D01*
X-39833Y-202377D01*
X-46688Y-197807D02*
X-47831Y-196664D01*
X-50116D01*
X-51259Y-197807D01*
Y-198949D01*
X-50116Y-200092D01*
X-51259Y-201235D01*
Y-202377D01*
X-50116Y-203520D01*
X-47831D01*
X-46688Y-202377D01*
Y-201235D01*
X-47831Y-200092D01*
X-46688Y-198949D01*
Y-197807D01*
X-47831Y-200092D02*
X-50116D01*
X-59713Y-133475D02*
Y-126619D01*
X-63141D01*
X-64283Y-127762D01*
Y-130047D01*
X-63141Y-131190D01*
X-59713D01*
X-61998D02*
X-64283Y-133475D01*
X-71139Y-126619D02*
X-66569D01*
Y-130047D01*
X-68854Y-128904D01*
X-69997D01*
X-71139Y-130047D01*
Y-132332D01*
X-69997Y-133475D01*
X-67711D01*
X-66569Y-132332D01*
X-73425Y-126619D02*
X-77995D01*
Y-127762D01*
X-73425Y-132332D01*
Y-133475D01*
X-199797Y-174857D02*
Y-168001D01*
X-203225D01*
X-204367Y-169144D01*
Y-171429D01*
X-203225Y-172572D01*
X-199797D01*
X-202082D02*
X-204367Y-174857D01*
X-211223Y-168001D02*
X-206652D01*
Y-171429D01*
X-208938Y-170287D01*
X-210080D01*
X-211223Y-171429D01*
Y-173715D01*
X-210080Y-174857D01*
X-207795D01*
X-206652Y-173715D01*
X-218079Y-168001D02*
X-215793Y-169144D01*
X-213508Y-171429D01*
Y-173715D01*
X-214651Y-174857D01*
X-216936D01*
X-218079Y-173715D01*
Y-172572D01*
X-216936Y-171429D01*
X-213508D01*
X-199797Y-188827D02*
Y-181971D01*
X-203225D01*
X-204367Y-183114D01*
Y-185399D01*
X-203225Y-186542D01*
X-199797D01*
X-202082D02*
X-204367Y-188827D01*
X-211223Y-181971D02*
X-206652D01*
Y-185399D01*
X-208938Y-184257D01*
X-210080D01*
X-211223Y-185399D01*
Y-187685D01*
X-210080Y-188827D01*
X-207795D01*
X-206652Y-187685D01*
X-218079Y-181971D02*
X-213508D01*
Y-185399D01*
X-215793Y-184257D01*
X-216936D01*
X-218079Y-185399D01*
Y-187685D01*
X-216936Y-188827D01*
X-214651D01*
X-213508Y-187685D01*
X-199797Y-203051D02*
Y-196196D01*
X-203225D01*
X-204367Y-197338D01*
Y-199623D01*
X-203225Y-200766D01*
X-199797D01*
X-202082D02*
X-204367Y-203051D01*
X-211223Y-196196D02*
X-206652D01*
Y-199623D01*
X-208938Y-198481D01*
X-210080D01*
X-211223Y-199623D01*
Y-201909D01*
X-210080Y-203051D01*
X-207795D01*
X-206652Y-201909D01*
X-216936Y-203051D02*
Y-196196D01*
X-213508Y-199623D01*
X-218079D01*
X-199797Y-217021D02*
Y-210166D01*
X-203225D01*
X-204367Y-211308D01*
Y-213593D01*
X-203225Y-214736D01*
X-199797D01*
X-202082D02*
X-204367Y-217021D01*
X-211223Y-210166D02*
X-206652D01*
Y-213593D01*
X-208938Y-212451D01*
X-210080D01*
X-211223Y-213593D01*
Y-215879D01*
X-210080Y-217021D01*
X-207795D01*
X-206652Y-215879D01*
X-213508Y-211308D02*
X-214651Y-210166D01*
X-216936D01*
X-218079Y-211308D01*
Y-212451D01*
X-216936Y-213593D01*
X-215793D01*
X-216936D01*
X-218079Y-214736D01*
Y-215879D01*
X-216936Y-217021D01*
X-214651D01*
X-213508Y-215879D01*
X-199797Y-160887D02*
Y-154031D01*
X-203225D01*
X-204367Y-155174D01*
Y-157459D01*
X-203225Y-158602D01*
X-199797D01*
X-202082D02*
X-204367Y-160887D01*
X-211223Y-154031D02*
X-206652D01*
Y-157459D01*
X-208938Y-156317D01*
X-210080D01*
X-211223Y-157459D01*
Y-159745D01*
X-210080Y-160887D01*
X-207795D01*
X-206652Y-159745D01*
X-218079Y-160887D02*
X-213508D01*
X-218079Y-156317D01*
Y-155174D01*
X-216936Y-154031D01*
X-214651D01*
X-213508Y-155174D01*
X-59713Y-161747D02*
Y-154891D01*
X-63141D01*
X-64283Y-156034D01*
Y-158319D01*
X-63141Y-159462D01*
X-59713D01*
X-61998D02*
X-64283Y-161747D01*
X-71139Y-154891D02*
X-66569D01*
Y-158319D01*
X-68854Y-157177D01*
X-69997D01*
X-71139Y-158319D01*
Y-160604D01*
X-69997Y-161747D01*
X-67711D01*
X-66569Y-160604D01*
X-73425Y-156034D02*
X-74567Y-154891D01*
X-76852D01*
X-77995Y-156034D01*
Y-160604D01*
X-76852Y-161747D01*
X-74567D01*
X-73425Y-160604D01*
Y-156034D01*
X-84685Y-187179D02*
Y-180323D01*
X-88113D01*
X-89256Y-181466D01*
Y-183751D01*
X-88113Y-184894D01*
X-84685D01*
X-86970D02*
X-89256Y-187179D01*
X-94969D02*
Y-180323D01*
X-91541Y-183751D01*
X-96111D01*
X-98397Y-186036D02*
X-99539Y-187179D01*
X-101825D01*
X-102967Y-186036D01*
Y-181466D01*
X-101825Y-180323D01*
X-99539D01*
X-98397Y-181466D01*
Y-182608D01*
X-99539Y-183751D01*
X-102967D01*
X-32552Y-175331D02*
Y-168475D01*
X-35980D01*
X-37122Y-169618D01*
Y-171903D01*
X-35980Y-173046D01*
X-32552D01*
X-34837D02*
X-37122Y-175331D01*
X-42835D02*
Y-168475D01*
X-39407Y-171903D01*
X-43978D01*
X-46263Y-169618D02*
X-47406Y-168475D01*
X-49691D01*
X-50834Y-169618D01*
Y-170760D01*
X-49691Y-171903D01*
X-50834Y-173046D01*
Y-174188D01*
X-49691Y-175331D01*
X-47406D01*
X-46263Y-174188D01*
Y-173046D01*
X-47406Y-171903D01*
X-46263Y-170760D01*
Y-169618D01*
X-47406Y-171903D02*
X-49691D01*
X-85366Y-259851D02*
Y-252995D01*
X-88794D01*
X-89937Y-254137D01*
Y-256423D01*
X-88794Y-257565D01*
X-85366D01*
X-87651D02*
X-89937Y-259851D01*
X-95650D02*
Y-252995D01*
X-92222Y-256423D01*
X-96792D01*
X-99078Y-252995D02*
X-103648D01*
Y-254137D01*
X-99078Y-258708D01*
Y-259851D01*
X-199852Y-34421D02*
Y-27565D01*
X-203280D01*
X-204423Y-28708D01*
Y-30993D01*
X-203280Y-32136D01*
X-199852D01*
X-202138D02*
X-204423Y-34421D01*
X-210136D02*
Y-27565D01*
X-206708Y-30993D01*
X-211279D01*
X-218134Y-27565D02*
X-215849Y-28708D01*
X-213564Y-30993D01*
Y-33278D01*
X-214706Y-34421D01*
X-216992D01*
X-218134Y-33278D01*
Y-32136D01*
X-216992Y-30993D01*
X-213564D01*
X-199716Y-132947D02*
Y-126091D01*
X-203144D01*
X-204287Y-127234D01*
Y-129520D01*
X-203144Y-130662D01*
X-199716D01*
X-202001D02*
X-204287Y-132947D01*
X-210000D02*
Y-126091D01*
X-206572Y-129520D01*
X-211142D01*
X-217998Y-126091D02*
X-213428D01*
Y-129520D01*
X-215713Y-128377D01*
X-216856D01*
X-217998Y-129520D01*
Y-131805D01*
X-216856Y-132947D01*
X-214570D01*
X-213428Y-131805D01*
X-199852Y-48645D02*
Y-41789D01*
X-203280D01*
X-204423Y-42932D01*
Y-45217D01*
X-203280Y-46360D01*
X-199852D01*
X-202138D02*
X-204423Y-48645D01*
X-210136D02*
Y-41789D01*
X-206708Y-45217D01*
X-211279D01*
X-213564Y-42932D02*
X-214706Y-41789D01*
X-216992D01*
X-218134Y-42932D01*
Y-47502D01*
X-216992Y-48645D01*
X-214706D01*
X-213564Y-47502D01*
Y-42932D01*
X-199852Y-90047D02*
Y-83191D01*
X-203280D01*
X-204423Y-84334D01*
Y-86619D01*
X-203280Y-87762D01*
X-199852D01*
X-202138D02*
X-204423Y-90047D01*
X-206708Y-84334D02*
X-207851Y-83191D01*
X-210136D01*
X-211279Y-84334D01*
Y-85476D01*
X-210136Y-86619D01*
X-208993D01*
X-210136D01*
X-211279Y-87762D01*
Y-88904D01*
X-210136Y-90047D01*
X-207851D01*
X-206708Y-88904D01*
X-213564Y-83191D02*
X-218134D01*
Y-84334D01*
X-213564Y-88904D01*
Y-90047D01*
X-167884Y-229070D02*
X-169026Y-227927D01*
Y-225642D01*
X-167884Y-224500D01*
X-163313D01*
X-162171Y-225642D01*
Y-227927D01*
X-163313Y-229070D01*
X-167884Y-231355D02*
X-169026Y-232498D01*
Y-234783D01*
X-167884Y-235926D01*
X-166741D01*
X-165598Y-234783D01*
Y-233641D01*
Y-234783D01*
X-164456Y-235926D01*
X-163313D01*
X-162171Y-234783D01*
Y-232498D01*
X-163313Y-231355D01*
X-169026Y-242782D02*
Y-238211D01*
X-165598D01*
X-166741Y-240497D01*
Y-241639D01*
X-165598Y-242782D01*
X-163313D01*
X-162171Y-241639D01*
Y-239354D01*
X-163313Y-238211D01*
X-119027Y-228631D02*
X-120170Y-227488D01*
Y-225203D01*
X-119027Y-224061D01*
X-114457D01*
X-113314Y-225203D01*
Y-227488D01*
X-114457Y-228631D01*
X-119027Y-230917D02*
X-120170Y-232059D01*
Y-234344D01*
X-119027Y-235487D01*
X-117885D01*
X-116742Y-234344D01*
Y-233202D01*
Y-234344D01*
X-115599Y-235487D01*
X-114457D01*
X-113314Y-234344D01*
Y-232059D01*
X-114457Y-230917D01*
X-113314Y-241200D02*
X-120170D01*
X-116742Y-237772D01*
Y-242343D01*
X-63865Y-141274D02*
X-62723Y-140132D01*
X-60437D01*
X-59295Y-141274D01*
Y-145845D01*
X-60437Y-146987D01*
X-62723D01*
X-63865Y-145845D01*
X-66150Y-141274D02*
X-67293Y-140132D01*
X-69578D01*
X-70721Y-141274D01*
Y-142417D01*
X-69578Y-143560D01*
X-68436D01*
X-69578D01*
X-70721Y-144702D01*
Y-145845D01*
X-69578Y-146987D01*
X-67293D01*
X-66150Y-145845D01*
X-73006Y-141274D02*
X-74149Y-140132D01*
X-76434D01*
X-77577Y-141274D01*
Y-142417D01*
X-76434Y-143560D01*
X-75292D01*
X-76434D01*
X-77577Y-144702D01*
Y-145845D01*
X-76434Y-146987D01*
X-74149D01*
X-73006Y-145845D01*
X-36777Y-154678D02*
X-35634Y-153536D01*
X-33349D01*
X-32206Y-154678D01*
Y-159249D01*
X-33349Y-160391D01*
X-35634D01*
X-36777Y-159249D01*
X-39062Y-154678D02*
X-40205Y-153536D01*
X-42490D01*
X-43633Y-154678D01*
Y-155821D01*
X-42490Y-156964D01*
X-41347D01*
X-42490D01*
X-43633Y-158106D01*
Y-159249D01*
X-42490Y-160391D01*
X-40205D01*
X-39062Y-159249D01*
X-50489Y-160391D02*
X-45918D01*
X-50489Y-155821D01*
Y-154678D01*
X-49346Y-153536D01*
X-47061D01*
X-45918Y-154678D01*
X-38163Y-185060D02*
X-37020Y-183917D01*
X-34735D01*
X-33593Y-185060D01*
Y-189630D01*
X-34735Y-190773D01*
X-37020D01*
X-38163Y-189630D01*
X-40448Y-185060D02*
X-41591Y-183917D01*
X-43876D01*
X-45019Y-185060D01*
Y-186202D01*
X-43876Y-187345D01*
X-42733D01*
X-43876D01*
X-45019Y-188488D01*
Y-189630D01*
X-43876Y-190773D01*
X-41591D01*
X-40448Y-189630D01*
X-47304Y-190773D02*
X-49589D01*
X-48447D01*
Y-183917D01*
X-47304Y-185060D01*
X-74133Y-249675D02*
X-72990Y-250817D01*
Y-253102D01*
X-74133Y-254245D01*
X-78703D01*
X-79846Y-253102D01*
Y-250817D01*
X-78703Y-249675D01*
X-74133Y-247389D02*
X-72990Y-246247D01*
Y-243962D01*
X-74133Y-242819D01*
X-75275D01*
X-76418Y-243962D01*
Y-245104D01*
Y-243962D01*
X-77561Y-242819D01*
X-78703D01*
X-79846Y-243962D01*
Y-246247D01*
X-78703Y-247389D01*
X-74133Y-240534D02*
X-72990Y-239391D01*
Y-237106D01*
X-74133Y-235963D01*
X-78703D01*
X-79846Y-237106D01*
Y-239391D01*
X-78703Y-240534D01*
X-74133D01*
X-89334Y-200967D02*
X-88192Y-199824D01*
X-85907D01*
X-84764Y-200967D01*
Y-205538D01*
X-85907Y-206680D01*
X-88192D01*
X-89334Y-205538D01*
X-96190Y-206680D02*
X-91620D01*
X-96190Y-202110D01*
Y-200967D01*
X-95048Y-199824D01*
X-92762D01*
X-91620Y-200967D01*
X-98476Y-205538D02*
X-99618Y-206680D01*
X-101903D01*
X-103046Y-205538D01*
Y-200967D01*
X-101903Y-199824D01*
X-99618D01*
X-98476Y-200967D01*
Y-202110D01*
X-99618Y-203252D01*
X-103046D01*
X-162006Y-97101D02*
X-160863Y-98244D01*
Y-100529D01*
X-162006Y-101672D01*
X-166576D01*
X-167719Y-100529D01*
Y-98244D01*
X-166576Y-97101D01*
X-167719Y-90246D02*
Y-94816D01*
X-163148Y-90246D01*
X-162006D01*
X-160863Y-91388D01*
Y-93673D01*
X-162006Y-94816D01*
X-160863Y-87960D02*
Y-83390D01*
X-162006D01*
X-166576Y-87960D01*
X-167719D01*
X-112858Y-97405D02*
X-111715Y-98547D01*
Y-100833D01*
X-112858Y-101975D01*
X-117429D01*
X-118571Y-100833D01*
Y-98547D01*
X-117429Y-97405D01*
X-118571Y-90549D02*
Y-95119D01*
X-114001Y-90549D01*
X-112858D01*
X-111715Y-91692D01*
Y-93977D01*
X-112858Y-95119D01*
X-111715Y-83693D02*
X-112858Y-85978D01*
X-115143Y-88264D01*
X-117429D01*
X-118571Y-87121D01*
Y-84836D01*
X-117429Y-83693D01*
X-116286D01*
X-115143Y-84836D01*
Y-88264D01*
X-71036Y-12103D02*
X-69893Y-10960D01*
X-67608D01*
X-66465Y-12103D01*
Y-16673D01*
X-67608Y-17816D01*
X-69893D01*
X-71036Y-16673D01*
X-77891Y-17816D02*
X-73321D01*
X-77891Y-13245D01*
Y-12103D01*
X-76749Y-10960D01*
X-74464D01*
X-73321Y-12103D01*
X-84747Y-10960D02*
X-80177D01*
Y-14388D01*
X-82462Y-13245D01*
X-83605D01*
X-84747Y-14388D01*
Y-16673D01*
X-83605Y-17816D01*
X-81319D01*
X-80177Y-16673D01*
X-38953Y-110496D02*
X-37811Y-109353D01*
X-35526D01*
X-34383Y-110496D01*
Y-115066D01*
X-35526Y-116209D01*
X-37811D01*
X-38953Y-115066D01*
X-45809Y-116209D02*
X-41239D01*
X-45809Y-111638D01*
Y-110496D01*
X-44667Y-109353D01*
X-42381D01*
X-41239Y-110496D01*
X-51522Y-116209D02*
Y-109353D01*
X-48095Y-112781D01*
X-52665D01*
X-38953Y-54616D02*
X-37811Y-53473D01*
X-35526D01*
X-34383Y-54616D01*
Y-59186D01*
X-35526Y-60329D01*
X-37811D01*
X-38953Y-59186D01*
X-45809Y-60329D02*
X-41239D01*
X-45809Y-55758D01*
Y-54616D01*
X-44667Y-53473D01*
X-42381D01*
X-41239Y-54616D01*
X-48095D02*
X-49237Y-53473D01*
X-51522D01*
X-52665Y-54616D01*
Y-55758D01*
X-51522Y-56901D01*
X-50380D01*
X-51522D01*
X-52665Y-58044D01*
Y-59186D01*
X-51522Y-60329D01*
X-49237D01*
X-48095Y-59186D01*
X-88656Y-107497D02*
X-87514Y-106354D01*
X-85228D01*
X-84086Y-107497D01*
Y-112067D01*
X-85228Y-113210D01*
X-87514D01*
X-88656Y-112067D01*
X-95512Y-113210D02*
X-90941D01*
X-95512Y-108639D01*
Y-107497D01*
X-94369Y-106354D01*
X-92084D01*
X-90941Y-107497D01*
X-102368Y-113210D02*
X-97797D01*
X-102368Y-108639D01*
Y-107497D01*
X-101225Y-106354D01*
X-98940D01*
X-97797Y-107497D01*
X-90709Y-72018D02*
X-89566Y-70876D01*
X-87281D01*
X-86138Y-72018D01*
Y-76589D01*
X-87281Y-77731D01*
X-89566D01*
X-90709Y-76589D01*
X-97564Y-77731D02*
X-92994D01*
X-97564Y-73161D01*
Y-72018D01*
X-96422Y-70876D01*
X-94136D01*
X-92994Y-72018D01*
X-99850Y-77731D02*
X-102135D01*
X-100992D01*
Y-70876D01*
X-99850Y-72018D01*
X-35296Y-228003D02*
X-34153Y-226860D01*
X-31868D01*
X-30725Y-228003D01*
Y-232573D01*
X-31868Y-233716D01*
X-34153D01*
X-35296Y-232573D01*
X-42152Y-233716D02*
X-37581D01*
X-42152Y-229145D01*
Y-228003D01*
X-41009Y-226860D01*
X-38724D01*
X-37581Y-228003D01*
X-44437D02*
X-45580Y-226860D01*
X-47865D01*
X-49008Y-228003D01*
Y-232573D01*
X-47865Y-233716D01*
X-45580D01*
X-44437Y-232573D01*
Y-228003D01*
X-34383Y-102239D02*
Y-95383D01*
X-37811D01*
X-38953Y-96526D01*
Y-98811D01*
X-37811Y-99954D01*
X-34383D01*
X-36668D02*
X-38953Y-102239D01*
X-41239Y-96526D02*
X-42381Y-95383D01*
X-44667D01*
X-45809Y-96526D01*
Y-97668D01*
X-44667Y-98811D01*
X-43524D01*
X-44667D01*
X-45809Y-99954D01*
Y-101096D01*
X-44667Y-102239D01*
X-42381D01*
X-41239Y-101096D01*
X-48095Y-102239D02*
X-50380D01*
X-49237D01*
Y-95383D01*
X-48095Y-96526D01*
X-34383Y-74299D02*
Y-67443D01*
X-37811D01*
X-38953Y-68586D01*
Y-70871D01*
X-37811Y-72014D01*
X-34383D01*
X-36668D02*
X-38953Y-74299D01*
X-44667D02*
Y-67443D01*
X-41239Y-70871D01*
X-45809D01*
X-51522Y-74299D02*
Y-67443D01*
X-48095Y-70871D01*
X-52665D01*
X-66640Y-3573D02*
Y3282D01*
X-70068D01*
X-71210Y2140D01*
Y-145D01*
X-70068Y-1288D01*
X-66640D01*
X-68925D02*
X-71210Y-3573D01*
X-76923D02*
Y3282D01*
X-73495Y-145D01*
X-78066D01*
X-80351Y2140D02*
X-81494Y3282D01*
X-83779D01*
X-84922Y2140D01*
Y997D01*
X-83779Y-145D01*
X-82637D01*
X-83779D01*
X-84922Y-1288D01*
Y-2431D01*
X-83779Y-3573D01*
X-81494D01*
X-80351Y-2431D01*
X-66986Y-31527D02*
Y-24671D01*
X-70414D01*
X-71556Y-25814D01*
Y-28099D01*
X-70414Y-29242D01*
X-66986D01*
X-69271D02*
X-71556Y-31527D01*
X-73842Y-25814D02*
X-74984Y-24671D01*
X-77270D01*
X-78412Y-25814D01*
Y-26957D01*
X-77270Y-28099D01*
X-76127D01*
X-77270D01*
X-78412Y-29242D01*
Y-30385D01*
X-77270Y-31527D01*
X-74984D01*
X-73842Y-30385D01*
X-84125Y-31527D02*
Y-24671D01*
X-80697Y-28099D01*
X-85268D01*
X-199852Y-21213D02*
Y-14357D01*
X-203280D01*
X-204423Y-15500D01*
Y-17785D01*
X-203280Y-18928D01*
X-199852D01*
X-202138D02*
X-204423Y-21213D01*
X-210136D02*
Y-14357D01*
X-206708Y-17785D01*
X-211279D01*
X-213564Y-21213D02*
X-215849D01*
X-214706D01*
Y-14357D01*
X-213564Y-15500D01*
X-199852Y-62109D02*
Y-55253D01*
X-203280D01*
X-204423Y-56396D01*
Y-58681D01*
X-203280Y-59824D01*
X-199852D01*
X-202138D02*
X-204423Y-62109D01*
X-206708Y-56396D02*
X-207851Y-55253D01*
X-210136D01*
X-211279Y-56396D01*
Y-57538D01*
X-210136Y-58681D01*
X-208993D01*
X-210136D01*
X-211279Y-59824D01*
Y-60966D01*
X-210136Y-62109D01*
X-207851D01*
X-206708Y-60966D01*
X-213564D02*
X-214706Y-62109D01*
X-216992D01*
X-218134Y-60966D01*
Y-56396D01*
X-216992Y-55253D01*
X-214706D01*
X-213564Y-56396D01*
Y-57538D01*
X-214706Y-58681D01*
X-218134D01*
X-199852Y-76331D02*
Y-69475D01*
X-203280D01*
X-204423Y-70618D01*
Y-72903D01*
X-203280Y-74046D01*
X-199852D01*
X-202138D02*
X-204423Y-76331D01*
X-206708Y-70618D02*
X-207851Y-69475D01*
X-210136D01*
X-211279Y-70618D01*
Y-71760D01*
X-210136Y-72903D01*
X-208993D01*
X-210136D01*
X-211279Y-74046D01*
Y-75188D01*
X-210136Y-76331D01*
X-207851D01*
X-206708Y-75188D01*
X-213564Y-70618D02*
X-214706Y-69475D01*
X-216992D01*
X-218134Y-70618D01*
Y-71760D01*
X-216992Y-72903D01*
X-218134Y-74046D01*
Y-75188D01*
X-216992Y-76331D01*
X-214706D01*
X-213564Y-75188D01*
Y-74046D01*
X-214706Y-72903D01*
X-213564Y-71760D01*
Y-70618D01*
X-214706Y-72903D02*
X-216992D01*
X-90065Y-56005D02*
Y-49149D01*
X-93493D01*
X-94636Y-50292D01*
Y-52577D01*
X-93493Y-53720D01*
X-90065D01*
X-92351D02*
X-94636Y-56005D01*
X-96921Y-50292D02*
X-98064Y-49149D01*
X-100349D01*
X-101492Y-50292D01*
Y-51434D01*
X-100349Y-52577D01*
X-99206D01*
X-100349D01*
X-101492Y-53720D01*
Y-54862D01*
X-100349Y-56005D01*
X-98064D01*
X-96921Y-54862D01*
X-103777Y-50292D02*
X-104920Y-49149D01*
X-107205D01*
X-108347Y-50292D01*
Y-51434D01*
X-107205Y-52577D01*
X-106062D01*
X-107205D01*
X-108347Y-53720D01*
Y-54862D01*
X-107205Y-56005D01*
X-104920D01*
X-103777Y-54862D01*
X-34383Y-46359D02*
Y-39503D01*
X-37811D01*
X-38953Y-40646D01*
Y-42931D01*
X-37811Y-44074D01*
X-34383D01*
X-36668D02*
X-38953Y-46359D01*
X-41239Y-40646D02*
X-42381Y-39503D01*
X-44667D01*
X-45809Y-40646D01*
Y-41788D01*
X-44667Y-42931D01*
X-43524D01*
X-44667D01*
X-45809Y-44074D01*
Y-45216D01*
X-44667Y-46359D01*
X-42381D01*
X-41239Y-45216D01*
X-52665Y-46359D02*
X-48095D01*
X-52665Y-41788D01*
Y-40646D01*
X-51522Y-39503D01*
X-49237D01*
X-48095Y-40646D01*
X-457672Y-211970D02*
X-464528D01*
Y-215398D01*
X-463385Y-216540D01*
X-461100D01*
X-459957Y-215398D01*
Y-211970D01*
Y-214255D02*
X-457672Y-216540D01*
X-463385Y-218826D02*
X-464528Y-219968D01*
Y-222253D01*
X-463385Y-223396D01*
X-462243D01*
X-461100Y-222253D01*
Y-221111D01*
Y-222253D01*
X-459957Y-223396D01*
X-458815D01*
X-457672Y-222253D01*
Y-219968D01*
X-458815Y-218826D01*
X-463200Y-252201D02*
X-464342Y-251059D01*
Y-248773D01*
X-463200Y-247631D01*
X-458629D01*
X-457487Y-248773D01*
Y-251059D01*
X-458629Y-252201D01*
X-464342Y-259057D02*
Y-254486D01*
X-460914D01*
X-462057Y-256772D01*
Y-257914D01*
X-460914Y-259057D01*
X-458629D01*
X-457487Y-257914D01*
Y-255629D01*
X-458629Y-254486D01*
M02*
