G04*
G04 #@! TF.GenerationSoftware,Altium Limited,Altium Designer,24.0.1 (36)*
G04*
G04 Layer_Physical_Order=2*
G04 Layer_Color=16711680*
%FSLAX44Y44*%
%MOMM*%
G71*
G04*
G04 #@! TF.SameCoordinates,E4FC931E-1C7A-40CD-B5D5-C7D3481EEB9B*
G04*
G04*
G04 #@! TF.FilePolarity,Positive*
G04*
G01*
G75*
%ADD10C,0.2000*%
%ADD11C,0.2540*%
G04:AMPARAMS|DCode=14|XSize=1mm|YSize=0.7mm|CornerRadius=0.175mm|HoleSize=0mm|Usage=FLASHONLY|Rotation=270.000|XOffset=0mm|YOffset=0mm|HoleType=Round|Shape=RoundedRectangle|*
%AMROUNDEDRECTD14*
21,1,1.0000,0.3500,0,0,270.0*
21,1,0.6500,0.7000,0,0,270.0*
1,1,0.3500,-0.1750,-0.3250*
1,1,0.3500,-0.1750,0.3250*
1,1,0.3500,0.1750,0.3250*
1,1,0.3500,0.1750,-0.3250*
%
%ADD14ROUNDEDRECTD14*%
G04:AMPARAMS|DCode=19|XSize=1mm|YSize=0.7mm|CornerRadius=0.175mm|HoleSize=0mm|Usage=FLASHONLY|Rotation=180.000|XOffset=0mm|YOffset=0mm|HoleType=Round|Shape=RoundedRectangle|*
%AMROUNDEDRECTD19*
21,1,1.0000,0.3500,0,0,180.0*
21,1,0.6500,0.7000,0,0,180.0*
1,1,0.3500,-0.3250,0.1750*
1,1,0.3500,0.3250,0.1750*
1,1,0.3500,0.3250,-0.1750*
1,1,0.3500,-0.3250,-0.1750*
%
%ADD19ROUNDEDRECTD19*%
G04:AMPARAMS|DCode=21|XSize=2.06mm|YSize=2.02mm|CornerRadius=0.2525mm|HoleSize=0mm|Usage=FLASHONLY|Rotation=270.000|XOffset=0mm|YOffset=0mm|HoleType=Round|Shape=RoundedRectangle|*
%AMROUNDEDRECTD21*
21,1,2.0600,1.5150,0,0,270.0*
21,1,1.5550,2.0200,0,0,270.0*
1,1,0.5050,-0.7575,-0.7775*
1,1,0.5050,-0.7575,0.7775*
1,1,0.5050,0.7575,0.7775*
1,1,0.5050,0.7575,-0.7775*
%
%ADD21ROUNDEDRECTD21*%
G04:AMPARAMS|DCode=33|XSize=0.81mm|YSize=0.9mm|CornerRadius=0.2025mm|HoleSize=0mm|Usage=FLASHONLY|Rotation=0.000|XOffset=0mm|YOffset=0mm|HoleType=Round|Shape=RoundedRectangle|*
%AMROUNDEDRECTD33*
21,1,0.8100,0.4950,0,0,0.0*
21,1,0.4050,0.9000,0,0,0.0*
1,1,0.4050,0.2025,-0.2475*
1,1,0.4050,-0.2025,-0.2475*
1,1,0.4050,-0.2025,0.2475*
1,1,0.4050,0.2025,0.2475*
%
%ADD33ROUNDEDRECTD33*%
%ADD58C,0.5080*%
%ADD59C,0.3810*%
%ADD60C,0.7620*%
%ADD61R,1.5000X1.5000*%
%ADD62C,1.5000*%
%ADD63C,0.9000*%
%ADD64C,0.4570*%
G04:AMPARAMS|DCode=65|XSize=0.25mm|YSize=0.6mm|CornerRadius=0.0525mm|HoleSize=0mm|Usage=FLASHONLY|Rotation=0.000|XOffset=0mm|YOffset=0mm|HoleType=Round|Shape=RoundedRectangle|*
%AMROUNDEDRECTD65*
21,1,0.2500,0.4950,0,0,0.0*
21,1,0.1450,0.6000,0,0,0.0*
1,1,0.1050,0.0725,-0.2475*
1,1,0.1050,-0.0725,-0.2475*
1,1,0.1050,-0.0725,0.2475*
1,1,0.1050,0.0725,0.2475*
%
%ADD65ROUNDEDRECTD65*%
G04:AMPARAMS|DCode=66|XSize=0.6mm|YSize=0.25mm|CornerRadius=0.0525mm|HoleSize=0mm|Usage=FLASHONLY|Rotation=0.000|XOffset=0mm|YOffset=0mm|HoleType=Round|Shape=RoundedRectangle|*
%AMROUNDEDRECTD66*
21,1,0.6000,0.1450,0,0,0.0*
21,1,0.4950,0.2500,0,0,0.0*
1,1,0.1050,0.2475,-0.0725*
1,1,0.1050,-0.2475,-0.0725*
1,1,0.1050,-0.2475,0.0725*
1,1,0.1050,0.2475,0.0725*
%
%ADD66ROUNDEDRECTD66*%
%ADD67R,1.0000X1.0000*%
G04:AMPARAMS|DCode=68|XSize=2.5mm|YSize=0.9mm|CornerRadius=0.225mm|HoleSize=0mm|Usage=FLASHONLY|Rotation=0.000|XOffset=0mm|YOffset=0mm|HoleType=Round|Shape=RoundedRectangle|*
%AMROUNDEDRECTD68*
21,1,2.5000,0.4500,0,0,0.0*
21,1,2.0500,0.9000,0,0,0.0*
1,1,0.4500,1.0250,-0.2250*
1,1,0.4500,-1.0250,-0.2250*
1,1,0.4500,-1.0250,0.2250*
1,1,0.4500,1.0250,0.2250*
%
%ADD68ROUNDEDRECTD68*%
G04:AMPARAMS|DCode=69|XSize=0.9mm|YSize=2.5mm|CornerRadius=0.225mm|HoleSize=0mm|Usage=FLASHONLY|Rotation=0.000|XOffset=0mm|YOffset=0mm|HoleType=Round|Shape=RoundedRectangle|*
%AMROUNDEDRECTD69*
21,1,0.9000,2.0500,0,0,0.0*
21,1,0.4500,2.5000,0,0,0.0*
1,1,0.4500,0.2250,-1.0250*
1,1,0.4500,-0.2250,-1.0250*
1,1,0.4500,-0.2250,1.0250*
1,1,0.4500,0.2250,1.0250*
%
%ADD69ROUNDEDRECTD69*%
G04:AMPARAMS|DCode=70|XSize=1.33mm|YSize=1.33mm|CornerRadius=0.3325mm|HoleSize=0mm|Usage=FLASHONLY|Rotation=0.000|XOffset=0mm|YOffset=0mm|HoleType=Round|Shape=RoundedRectangle|*
%AMROUNDEDRECTD70*
21,1,1.3300,0.6650,0,0,0.0*
21,1,0.6650,1.3300,0,0,0.0*
1,1,0.6650,0.3325,-0.3325*
1,1,0.6650,-0.3325,-0.3325*
1,1,0.6650,-0.3325,0.3325*
1,1,0.6650,0.3325,0.3325*
%
%ADD70ROUNDEDRECTD70*%
%ADD71R,0.6500X1.0000*%
%ADD72R,0.8000X0.8000*%
%ADD73R,1.4000X1.1500*%
G04:AMPARAMS|DCode=74|XSize=0.5mm|YSize=0.5mm|CornerRadius=0.125mm|HoleSize=0mm|Usage=FLASHONLY|Rotation=180.000|XOffset=0mm|YOffset=0mm|HoleType=Round|Shape=RoundedRectangle|*
%AMROUNDEDRECTD74*
21,1,0.5000,0.2500,0,0,180.0*
21,1,0.2500,0.5000,0,0,180.0*
1,1,0.2500,-0.1250,0.1250*
1,1,0.2500,0.1250,0.1250*
1,1,0.2500,0.1250,-0.1250*
1,1,0.2500,-0.1250,-0.1250*
%
%ADD74ROUNDEDRECTD74*%
G36*
X106949Y-327384D02*
X-7561D01*
X-8367Y-326403D01*
X-8195Y-325538D01*
X-7830Y-319974D01*
X-8195Y-314410D01*
X-9283Y-308940D01*
X-11075Y-303660D01*
X-13542Y-298658D01*
X-16640Y-294022D01*
X-20317Y-289829D01*
X-24509Y-286152D01*
X-29146Y-283054D01*
X-34147Y-280588D01*
X-39428Y-278795D01*
X-44897Y-277708D01*
X-50462Y-277343D01*
X-56026Y-277708D01*
X-61495Y-278795D01*
X-66776Y-280588D01*
X-71777Y-283054D01*
X-76414Y-286152D01*
X-80606Y-289829D01*
X-84283Y-294022D01*
X-87381Y-298658D01*
X-89848Y-303660D01*
X-91640Y-308940D01*
X-92728Y-314410D01*
X-93093Y-319974D01*
X-92728Y-325538D01*
X-92556Y-326403D01*
X-93362Y-327384D01*
X-167872D01*
Y-269974D01*
X-168069Y-268983D01*
X-168630Y-268143D01*
X-169471Y-267581D01*
X-170462Y-267384D01*
X-320462D01*
X-321453Y-267581D01*
X-322293Y-268143D01*
X-322854Y-268983D01*
X-323051Y-269974D01*
Y-327384D01*
X-357561D01*
X-358367Y-326403D01*
X-358195Y-325538D01*
X-357830Y-319974D01*
X-358195Y-314410D01*
X-359283Y-308940D01*
X-361075Y-303660D01*
X-363542Y-298658D01*
X-366640Y-294022D01*
X-370317Y-289829D01*
X-374509Y-286152D01*
X-379146Y-283054D01*
X-384147Y-280588D01*
X-389428Y-278795D01*
X-394897Y-277708D01*
X-400462Y-277343D01*
X-406026Y-277708D01*
X-411495Y-278795D01*
X-416776Y-280588D01*
X-421777Y-283054D01*
X-426414Y-286152D01*
X-430606Y-289829D01*
X-434283Y-294022D01*
X-437381Y-298658D01*
X-439848Y-303660D01*
X-441640Y-308940D01*
X-442728Y-314410D01*
X-443093Y-319974D01*
X-442728Y-325538D01*
X-442556Y-326403D01*
X-443362Y-327384D01*
X-487872D01*
Y-289974D01*
Y-279974D01*
X-488069Y-278983D01*
X-488630Y-278143D01*
X-498630Y-268143D01*
X-499470Y-267581D01*
X-500462Y-267384D01*
X-537872D01*
Y27436D01*
X-500462D01*
X-499470Y27633D01*
X-498630Y28195D01*
X-488630Y38195D01*
X-488069Y39035D01*
X-487872Y40026D01*
Y87436D01*
X-443362D01*
X-442556Y86454D01*
X-442728Y85590D01*
X-443093Y80026D01*
X-442728Y74461D01*
X-441640Y68992D01*
X-439848Y63712D01*
X-437381Y58710D01*
X-434283Y54074D01*
X-430606Y49881D01*
X-426414Y46204D01*
X-421777Y43106D01*
X-416776Y40640D01*
X-411495Y38847D01*
X-406026Y37759D01*
X-400462Y37395D01*
X-394897Y37759D01*
X-389428Y38847D01*
X-384147Y40640D01*
X-379146Y43106D01*
X-374509Y46204D01*
X-370317Y49881D01*
X-366640Y54074D01*
X-363542Y58710D01*
X-361075Y63712D01*
X-359283Y68992D01*
X-358195Y74461D01*
X-357830Y80026D01*
X-358195Y85590D01*
X-358307Y86156D01*
X-357502Y87138D01*
X-93421D01*
X-92616Y86156D01*
X-92728Y85590D01*
X-93093Y80026D01*
X-92728Y74461D01*
X-91640Y68992D01*
X-89848Y63712D01*
X-87381Y58710D01*
X-84283Y54074D01*
X-80606Y49881D01*
X-76414Y46204D01*
X-71777Y43106D01*
X-66776Y40640D01*
X-61495Y38847D01*
X-56026Y37759D01*
X-50462Y37395D01*
X-44897Y37759D01*
X-39428Y38847D01*
X-34147Y40640D01*
X-29146Y43106D01*
X-24509Y46204D01*
X-20317Y49881D01*
X-16640Y54074D01*
X-13542Y58710D01*
X-11075Y63712D01*
X-9283Y68992D01*
X-8195Y74461D01*
X-7830Y80026D01*
X-8195Y85590D01*
X-8367Y86454D01*
X-7561Y87436D01*
X106949D01*
Y-327384D01*
D02*
G37*
%LPC*%
G36*
X98995Y23473D02*
X81454D01*
Y5933D01*
X98995D01*
Y23473D01*
D02*
G37*
G36*
X91379Y-1927D02*
X89070D01*
X86839Y-2525D01*
X84840Y-3679D01*
X83207Y-5312D01*
X82052Y-7312D01*
X81454Y-9542D01*
Y-11852D01*
X82052Y-14082D01*
X83207Y-16082D01*
X84840Y-17715D01*
X86839Y-18869D01*
X89070Y-19467D01*
X91379D01*
X93610Y-18869D01*
X95609Y-17715D01*
X97242Y-16082D01*
X98397Y-14082D01*
X98995Y-11852D01*
Y-9542D01*
X98397Y-7312D01*
X97242Y-5312D01*
X95609Y-3679D01*
X93610Y-2525D01*
X91379Y-1927D01*
D02*
G37*
G36*
Y-27327D02*
X89070D01*
X86839Y-27925D01*
X84840Y-29079D01*
X83207Y-30712D01*
X82052Y-32712D01*
X81454Y-34943D01*
Y-37252D01*
X82052Y-39482D01*
X83207Y-41482D01*
X84840Y-43115D01*
X86839Y-44269D01*
X89070Y-44867D01*
X91379D01*
X93610Y-44269D01*
X95609Y-43115D01*
X97242Y-41482D01*
X98397Y-39482D01*
X98995Y-37252D01*
Y-34943D01*
X98397Y-32712D01*
X97242Y-30712D01*
X95609Y-29079D01*
X93610Y-27925D01*
X91379Y-27327D01*
D02*
G37*
G36*
X-400832Y-33361D02*
X-404332D01*
X-405907Y-33674D01*
X-407242Y-34567D01*
X-408134Y-35902D01*
X-408447Y-37476D01*
Y-43976D01*
X-408134Y-45551D01*
X-407242Y-46886D01*
X-405907Y-47778D01*
X-404332Y-48091D01*
X-400832D01*
X-399257Y-47778D01*
X-397922Y-46886D01*
X-397030Y-45551D01*
X-396717Y-43976D01*
Y-43376D01*
X-396503Y-43371D01*
X-396381Y-43316D01*
X-394345D01*
X-394222Y-43371D01*
X-393963Y-43377D01*
Y-47012D01*
X-381391D01*
Y-34440D01*
X-393963D01*
Y-38075D01*
X-394222Y-38082D01*
X-394345Y-38137D01*
X-396381D01*
X-396503Y-38082D01*
X-396717Y-38077D01*
Y-37476D01*
X-397030Y-35902D01*
X-397922Y-34567D01*
X-399257Y-33674D01*
X-400832Y-33361D01*
D02*
G37*
G36*
X-147356Y48022D02*
X-282150D01*
X-283141Y47825D01*
X-283981Y47263D01*
X-340327Y-9083D01*
X-340888Y-9923D01*
X-341085Y-10914D01*
Y-22803D01*
X-341140Y-22925D01*
X-341145Y-23139D01*
X-348746D01*
X-350516Y-23491D01*
X-352016Y-24494D01*
X-353018Y-25994D01*
X-353371Y-27764D01*
Y-32264D01*
X-353018Y-34034D01*
X-352016Y-35534D01*
X-351725Y-35729D01*
Y-36999D01*
X-352016Y-37194D01*
X-352573Y-38027D01*
X-354130Y-38266D01*
X-356672Y-35724D01*
Y-17918D01*
X-321864Y16890D01*
X-321735Y16941D01*
X-321568Y17104D01*
X-321439Y17223D01*
X-321284Y17350D01*
X-320527D01*
X-319136Y17927D01*
X-318071Y18992D01*
X-317494Y20383D01*
Y21890D01*
X-318071Y23281D01*
X-319136Y24346D01*
X-320527Y24922D01*
X-322033D01*
X-323425Y24346D01*
X-324490Y23281D01*
X-325066Y21890D01*
Y21138D01*
X-325329Y20831D01*
X-325475Y20681D01*
X-325527Y20552D01*
X-361093Y-15014D01*
X-361655Y-15854D01*
X-361852Y-16845D01*
Y-36796D01*
X-361655Y-37787D01*
X-361093Y-38628D01*
X-355176Y-44545D01*
X-354335Y-45107D01*
X-353627Y-45248D01*
X-353376Y-45358D01*
X-353292Y-45360D01*
X-353018Y-46734D01*
X-352016Y-48234D01*
X-351725Y-48429D01*
Y-49699D01*
X-352016Y-49894D01*
X-353018Y-51394D01*
X-353061Y-51609D01*
X-354439Y-52027D01*
X-358074Y-48392D01*
Y-45379D01*
X-358271Y-44388D01*
X-358832Y-43547D01*
X-363484Y-38895D01*
X-364325Y-38334D01*
X-365032Y-38193D01*
X-365282Y-38082D01*
X-365391Y-38080D01*
Y-34440D01*
X-377963D01*
Y-47012D01*
X-365391D01*
Y-45973D01*
X-364218Y-45487D01*
X-363253Y-46451D01*
Y-49465D01*
X-363056Y-50456D01*
X-362495Y-51296D01*
X-356525Y-57267D01*
X-355684Y-57828D01*
X-354693Y-58025D01*
X-353706D01*
X-353583Y-58080D01*
X-353286Y-58087D01*
X-353018Y-59434D01*
X-352016Y-60934D01*
X-351725Y-61129D01*
Y-62399D01*
X-352016Y-62594D01*
X-352761Y-63709D01*
X-354207Y-64058D01*
X-362725Y-55541D01*
X-363565Y-54979D01*
X-364556Y-54782D01*
X-365010D01*
X-365132Y-54728D01*
X-365391Y-54721D01*
Y-51086D01*
X-377963D01*
Y-63658D01*
X-365391D01*
Y-61859D01*
X-364218Y-61373D01*
X-355624Y-69967D01*
X-354784Y-70528D01*
X-353793Y-70725D01*
X-353706D01*
X-353583Y-70780D01*
X-353286Y-70787D01*
X-353018Y-72134D01*
X-352016Y-73634D01*
X-351725Y-73829D01*
Y-75099D01*
X-352016Y-75294D01*
X-353018Y-76794D01*
X-353295Y-78184D01*
X-353583Y-78191D01*
X-353706Y-78246D01*
X-354537D01*
X-360597Y-72186D01*
X-361437Y-71625D01*
X-362428Y-71428D01*
X-365010D01*
X-365132Y-71373D01*
X-365391Y-71367D01*
Y-67731D01*
X-377963D01*
Y-80303D01*
X-365391D01*
Y-76668D01*
X-365132Y-76662D01*
X-365010Y-76607D01*
X-363501D01*
X-357441Y-82667D01*
X-356601Y-83228D01*
X-355610Y-83425D01*
X-353706D01*
X-353583Y-83480D01*
X-353286Y-83487D01*
X-353018Y-84834D01*
X-352016Y-86334D01*
X-351725Y-86529D01*
Y-87799D01*
X-352016Y-87994D01*
X-353018Y-89494D01*
X-353295Y-90884D01*
X-353583Y-90891D01*
X-353706Y-90946D01*
X-356127D01*
X-358241Y-88832D01*
X-359081Y-88270D01*
X-360072Y-88073D01*
X-365010D01*
X-365132Y-88019D01*
X-365391Y-88012D01*
Y-84377D01*
X-377963D01*
Y-96949D01*
X-365391D01*
Y-93314D01*
X-365132Y-93307D01*
X-365010Y-93253D01*
X-361145D01*
X-359031Y-95367D01*
X-358191Y-95928D01*
X-357200Y-96125D01*
X-353706D01*
X-353583Y-96180D01*
X-353286Y-96187D01*
X-353018Y-97534D01*
X-352016Y-99034D01*
X-351725Y-99229D01*
Y-100499D01*
X-352016Y-100694D01*
X-353018Y-102194D01*
X-353295Y-103584D01*
X-353583Y-103591D01*
X-353706Y-103646D01*
X-359464D01*
X-360455Y-103843D01*
X-361295Y-104404D01*
X-361609Y-104719D01*
X-365010D01*
X-365132Y-104664D01*
X-365391Y-104657D01*
Y-101022D01*
X-377963D01*
Y-113594D01*
X-365391D01*
Y-109959D01*
X-365132Y-109953D01*
X-365010Y-109898D01*
X-360537D01*
X-359546Y-109701D01*
X-358705Y-109140D01*
X-358391Y-108825D01*
X-353706D01*
X-353583Y-108880D01*
X-353286Y-108887D01*
X-353018Y-110234D01*
X-352016Y-111734D01*
X-350516Y-112737D01*
X-348746Y-113089D01*
X-328246D01*
X-326476Y-112737D01*
X-324975Y-111734D01*
X-323973Y-110234D01*
X-323621Y-108464D01*
Y-103964D01*
X-323973Y-102194D01*
X-324975Y-100694D01*
X-325267Y-100499D01*
Y-99229D01*
X-324975Y-99034D01*
X-323973Y-97534D01*
X-323621Y-95764D01*
Y-91264D01*
X-323973Y-89494D01*
X-324975Y-87994D01*
X-325267Y-87799D01*
Y-86529D01*
X-324975Y-86334D01*
X-323973Y-84834D01*
X-323621Y-83064D01*
Y-78564D01*
X-323973Y-76794D01*
X-324975Y-75294D01*
X-325267Y-75099D01*
Y-73829D01*
X-324975Y-73634D01*
X-323973Y-72134D01*
X-323621Y-70364D01*
Y-65864D01*
X-323973Y-64094D01*
X-324975Y-62594D01*
X-325267Y-62399D01*
Y-61129D01*
X-324975Y-60934D01*
X-323973Y-59434D01*
X-323621Y-57664D01*
Y-53164D01*
X-323973Y-51394D01*
X-324975Y-49894D01*
X-325267Y-49699D01*
Y-48429D01*
X-324975Y-48234D01*
X-323973Y-46734D01*
X-323621Y-44964D01*
Y-40464D01*
X-323973Y-38694D01*
X-324975Y-37194D01*
X-325267Y-36999D01*
Y-35729D01*
X-324975Y-35534D01*
X-323973Y-34034D01*
X-323621Y-32264D01*
Y-27764D01*
X-323973Y-25994D01*
X-324975Y-24494D01*
X-326476Y-23491D01*
X-328246Y-23139D01*
X-335846D01*
X-335851Y-22925D01*
X-335906Y-22803D01*
Y-11987D01*
X-281077Y42842D01*
X-148428D01*
X-129917Y24331D01*
Y-23678D01*
X-129946Y-23722D01*
X-129923Y-23835D01*
X-129971Y-23941D01*
X-129986Y-24381D01*
X-129988Y-24399D01*
X-130901Y-25312D01*
X-131477Y-26703D01*
Y-28210D01*
X-130901Y-29601D01*
X-130470Y-30032D01*
X-130440Y-30457D01*
X-130437Y-30671D01*
X-130382Y-30799D01*
Y-38710D01*
X-130185Y-39701D01*
X-129624Y-40541D01*
X-123962Y-46203D01*
X-123122Y-46764D01*
X-122131Y-46961D01*
X-109587D01*
X-109465Y-47016D01*
X-109251Y-47021D01*
Y-47324D01*
X-108917Y-49006D01*
X-107964Y-50432D01*
X-106895Y-51146D01*
X-106840Y-51325D01*
Y-52378D01*
X-106895Y-52557D01*
X-107964Y-53271D01*
X-108917Y-54697D01*
X-109216Y-56204D01*
X-109465Y-56210D01*
X-109587Y-56265D01*
X-131151D01*
X-136664Y-50751D01*
X-136672Y-50709D01*
X-136779Y-50635D01*
X-136826Y-50513D01*
X-136870Y-50466D01*
X-136458Y-49471D01*
Y-47964D01*
X-137034Y-46573D01*
X-137565Y-46042D01*
X-137596Y-45638D01*
X-137599Y-45429D01*
X-137654Y-45301D01*
Y24604D01*
X-137851Y25595D01*
X-138412Y26435D01*
X-150604Y38627D01*
X-151445Y39189D01*
X-152436Y39386D01*
X-264624D01*
X-265615Y39189D01*
X-266455Y38627D01*
X-299777Y5305D01*
X-300338Y4465D01*
X-300535Y3474D01*
Y-4804D01*
X-300590Y-4926D01*
X-300597Y-5219D01*
X-301965Y-5491D01*
X-303466Y-6494D01*
X-304468Y-7994D01*
X-304820Y-9764D01*
Y-30264D01*
X-304468Y-32034D01*
X-303466Y-33534D01*
X-301965Y-34537D01*
X-300196Y-34889D01*
X-295696D01*
X-293926Y-34537D01*
X-292425Y-33534D01*
X-292231Y-33243D01*
X-290961D01*
X-290766Y-33534D01*
X-289265Y-34537D01*
X-287496Y-34889D01*
X-282996D01*
X-281226Y-34537D01*
X-279725Y-33534D01*
X-279531Y-33243D01*
X-278261D01*
X-278066Y-33534D01*
X-276565Y-34537D01*
X-274796Y-34889D01*
X-270296D01*
X-268526Y-34537D01*
X-267025Y-33534D01*
X-266831Y-33243D01*
X-265561D01*
X-265366Y-33534D01*
X-263865Y-34537D01*
X-262096Y-34889D01*
X-257596D01*
X-255826Y-34537D01*
X-254325Y-33534D01*
X-253323Y-32034D01*
X-252971Y-30264D01*
Y-9764D01*
X-253323Y-7994D01*
X-254325Y-6494D01*
X-255826Y-5491D01*
X-257596Y-5139D01*
X-262096D01*
X-263865Y-5491D01*
X-265366Y-6494D01*
X-265561Y-6785D01*
X-266831D01*
X-267025Y-6494D01*
X-268526Y-5491D01*
X-270296Y-5139D01*
X-274796D01*
X-276565Y-5491D01*
X-278066Y-6494D01*
X-278261Y-6785D01*
X-279531D01*
X-279725Y-6494D01*
X-281226Y-5491D01*
X-282996Y-5139D01*
X-287496D01*
X-289265Y-5491D01*
X-290766Y-6494D01*
X-290961Y-6785D01*
X-292231D01*
X-292425Y-6494D01*
X-293926Y-5491D01*
X-295294Y-5219D01*
X-295301Y-4926D01*
X-295356Y-4804D01*
Y2401D01*
X-263551Y34206D01*
X-153508D01*
X-142833Y23531D01*
Y-45301D01*
X-142888Y-45429D01*
X-142891Y-45661D01*
X-142899Y-45838D01*
X-142918Y-46038D01*
X-143453Y-46573D01*
X-144030Y-47964D01*
Y-49471D01*
X-143453Y-50862D01*
X-142673Y-51643D01*
X-142636Y-51825D01*
X-142075Y-52665D01*
X-141234Y-53506D01*
X-141152Y-53628D01*
X-141031Y-53709D01*
X-134054Y-60686D01*
X-133214Y-61247D01*
X-132223Y-61444D01*
X-109587D01*
X-109465Y-61499D01*
X-109216Y-61505D01*
X-108917Y-63011D01*
X-107964Y-64437D01*
X-106895Y-65152D01*
X-106840Y-65331D01*
Y-66384D01*
X-106895Y-66563D01*
X-107964Y-67277D01*
X-108917Y-68703D01*
X-109251Y-70385D01*
Y-70725D01*
X-109482Y-71908D01*
X-109599Y-71962D01*
X-134327D01*
X-146850Y-59439D01*
Y2335D01*
X-147047Y3327D01*
X-147608Y4167D01*
X-161726Y18284D01*
X-162566Y18846D01*
X-163557Y19043D01*
X-213760D01*
X-214751Y18846D01*
X-215591Y18284D01*
X-216106Y17769D01*
X-216228Y17724D01*
X-216475Y17495D01*
X-216725Y17598D01*
X-218231D01*
X-219623Y17022D01*
X-220688Y15957D01*
X-221264Y14565D01*
Y13059D01*
X-220688Y11667D01*
X-219623Y10602D01*
X-218231Y10026D01*
X-216725D01*
X-215333Y10602D01*
X-214268Y11667D01*
X-213900Y12557D01*
X-213347Y13127D01*
X-213296Y13255D01*
X-212687Y13863D01*
X-164629D01*
X-152029Y1263D01*
Y-60512D01*
X-151832Y-61503D01*
X-151271Y-62343D01*
X-137231Y-76383D01*
X-136391Y-76945D01*
X-135400Y-77142D01*
X-109486D01*
X-109361Y-77196D01*
X-108930Y-77205D01*
X-108785Y-77215D01*
X-107964Y-78443D01*
X-106538Y-79396D01*
X-105484Y-79606D01*
X-105475Y-79943D01*
X-105421Y-80066D01*
Y-82453D01*
X-115408Y-92440D01*
X-181646D01*
X-182637Y-92637D01*
X-183477Y-93199D01*
X-190680Y-100402D01*
X-191241Y-101242D01*
X-191438Y-102233D01*
Y-112719D01*
X-191241Y-113710D01*
X-190680Y-114550D01*
X-184239Y-120991D01*
X-183399Y-121553D01*
X-182408Y-121750D01*
X-160559D01*
X-158840Y-123469D01*
X-159366Y-124739D01*
X-178746D01*
X-180515Y-125091D01*
X-182016Y-126094D01*
X-183018Y-127594D01*
X-183370Y-129364D01*
Y-133864D01*
X-183018Y-135634D01*
X-182016Y-137134D01*
X-181724Y-137329D01*
Y-138599D01*
X-182016Y-138794D01*
X-183018Y-140294D01*
X-183291Y-141662D01*
X-183583Y-141670D01*
X-183706Y-141724D01*
X-217567D01*
X-218558Y-141921D01*
X-219398Y-142483D01*
X-341614Y-264699D01*
X-344642D01*
X-345028Y-263429D01*
X-344658Y-263182D01*
X-221470Y-139994D01*
X-220909Y-139154D01*
X-220712Y-138163D01*
Y-70761D01*
X-184177Y-34226D01*
X-182686Y-34532D01*
X-182016Y-35534D01*
X-181724Y-35729D01*
Y-36999D01*
X-182016Y-37194D01*
X-183018Y-38694D01*
X-183370Y-40464D01*
Y-44964D01*
X-183018Y-46734D01*
X-182016Y-48234D01*
X-181724Y-48429D01*
Y-49699D01*
X-182016Y-49894D01*
X-183018Y-51394D01*
X-183291Y-52762D01*
X-183583Y-52770D01*
X-183706Y-52824D01*
X-188915D01*
X-189905Y-53021D01*
X-190746Y-53583D01*
X-215481Y-78318D01*
X-216042Y-79158D01*
X-216239Y-80149D01*
Y-110322D01*
X-216042Y-111313D01*
X-215481Y-112153D01*
X-198033Y-129601D01*
X-197981Y-129731D01*
X-197445Y-130279D01*
X-197044Y-131246D01*
X-195979Y-132311D01*
X-194587Y-132887D01*
X-193081D01*
X-191690Y-132311D01*
X-190625Y-131246D01*
X-190048Y-129854D01*
Y-128348D01*
X-190625Y-126957D01*
X-191690Y-125892D01*
X-193081Y-125315D01*
X-194587D01*
X-194807Y-125406D01*
X-194891Y-125336D01*
X-195040Y-125192D01*
X-195167Y-125142D01*
X-211060Y-109249D01*
Y-81222D01*
X-187842Y-58004D01*
X-183706D01*
X-183583Y-58058D01*
X-183291Y-58066D01*
X-183018Y-59434D01*
X-182016Y-60934D01*
X-181724Y-61129D01*
Y-62399D01*
X-182016Y-62594D01*
X-183018Y-64094D01*
X-183295Y-65484D01*
X-183583Y-65491D01*
X-183706Y-65546D01*
X-187576D01*
X-188567Y-65743D01*
X-189407Y-66304D01*
X-205321Y-82218D01*
X-205882Y-83058D01*
X-206079Y-84049D01*
Y-99488D01*
X-206134Y-99615D01*
X-206137Y-99848D01*
X-206145Y-100024D01*
X-206164Y-100224D01*
X-206699Y-100759D01*
X-207276Y-102151D01*
Y-103657D01*
X-206699Y-105049D01*
X-205634Y-106114D01*
X-204243Y-106690D01*
X-202736D01*
X-201345Y-106114D01*
X-200280Y-105049D01*
X-199704Y-103657D01*
Y-102151D01*
X-200280Y-100759D01*
X-200811Y-100228D01*
X-200842Y-99824D01*
X-200845Y-99615D01*
X-200900Y-99488D01*
Y-85121D01*
X-186503Y-70725D01*
X-183706D01*
X-183583Y-70780D01*
X-183286Y-70787D01*
X-183018Y-72134D01*
X-182016Y-73634D01*
X-181724Y-73829D01*
Y-75099D01*
X-182016Y-75294D01*
X-183018Y-76794D01*
X-183370Y-78564D01*
Y-83064D01*
X-183018Y-84834D01*
X-182016Y-86334D01*
X-180515Y-87337D01*
X-178746Y-87689D01*
X-158246D01*
X-156476Y-87337D01*
X-154975Y-86334D01*
X-153973Y-84834D01*
X-153621Y-83064D01*
Y-78564D01*
X-153973Y-76794D01*
X-154975Y-75294D01*
X-155267Y-75099D01*
Y-73829D01*
X-154975Y-73634D01*
X-153973Y-72134D01*
X-153621Y-70364D01*
Y-65864D01*
X-153973Y-64094D01*
X-154975Y-62594D01*
X-155267Y-62399D01*
Y-61129D01*
X-154975Y-60934D01*
X-153973Y-59434D01*
X-153621Y-57664D01*
Y-53164D01*
X-153973Y-51394D01*
X-154975Y-49894D01*
X-155267Y-49699D01*
Y-48429D01*
X-154975Y-48234D01*
X-153973Y-46734D01*
X-153621Y-44964D01*
Y-40464D01*
X-153973Y-38694D01*
X-154975Y-37194D01*
X-155267Y-36999D01*
Y-35729D01*
X-154975Y-35534D01*
X-153973Y-34034D01*
X-153621Y-32264D01*
Y-27764D01*
X-153973Y-25994D01*
X-154975Y-24494D01*
X-156476Y-23491D01*
X-158246Y-23139D01*
X-178746D01*
X-180515Y-23491D01*
X-182016Y-24494D01*
X-183018Y-25994D01*
X-183295Y-27384D01*
X-183583Y-27391D01*
X-183753Y-27466D01*
X-184639Y-27643D01*
X-185480Y-28204D01*
X-188334Y-31058D01*
X-189504Y-30433D01*
X-189471Y-30264D01*
Y-9764D01*
X-189823Y-7994D01*
X-190825Y-6494D01*
X-192326Y-5491D01*
X-194024Y-5153D01*
X-194030Y-4926D01*
X-194084Y-4803D01*
Y-4214D01*
X-194281Y-3223D01*
X-194843Y-2383D01*
X-203340Y6115D01*
X-203393Y6245D01*
X-203904Y6768D01*
X-204354Y7854D01*
X-205419Y8919D01*
X-206811Y9496D01*
X-208317D01*
X-209709Y8919D01*
X-210774Y7854D01*
X-211350Y6463D01*
Y4957D01*
X-210774Y3565D01*
X-209709Y2500D01*
X-208317Y1924D01*
X-206811D01*
X-206640Y1994D01*
X-206552Y1919D01*
X-206402Y1775D01*
X-206275Y1725D01*
X-200356Y-4194D01*
X-200359Y-4588D01*
X-200659Y-5687D01*
X-201866Y-6494D01*
X-202061Y-6785D01*
X-203331D01*
X-203525Y-6494D01*
X-205026Y-5491D01*
X-206796Y-5139D01*
X-211296D01*
X-213065Y-5491D01*
X-214566Y-6494D01*
X-214761Y-6785D01*
X-216031D01*
X-216225Y-6494D01*
X-217726Y-5491D01*
X-219496Y-5139D01*
X-223996D01*
X-225765Y-5491D01*
X-227266Y-6494D01*
X-228268Y-7994D01*
X-228620Y-9764D01*
Y-30264D01*
X-228268Y-32034D01*
X-227266Y-33534D01*
X-225765Y-34537D01*
X-223996Y-34889D01*
X-219496D01*
X-217726Y-34537D01*
X-216225Y-33534D01*
X-216031Y-33243D01*
X-214761D01*
X-214566Y-33534D01*
X-213065Y-34537D01*
X-212494Y-34650D01*
X-212484Y-35099D01*
X-212429Y-35223D01*
Y-39855D01*
X-233515Y-60941D01*
X-234076Y-61781D01*
X-234273Y-62772D01*
Y-78152D01*
X-234328Y-78280D01*
X-234331Y-78512D01*
X-234339Y-78689D01*
X-234358Y-78888D01*
X-234893Y-79423D01*
X-235470Y-80815D01*
Y-82321D01*
X-234893Y-83713D01*
X-233828Y-84778D01*
X-232437Y-85354D01*
X-230931D01*
X-229539Y-84778D01*
X-228474Y-83713D01*
X-227898Y-82321D01*
Y-80815D01*
X-228474Y-79423D01*
X-229005Y-78892D01*
X-229036Y-78488D01*
X-229039Y-78280D01*
X-229094Y-78152D01*
Y-63845D01*
X-208008Y-42759D01*
X-207447Y-41919D01*
X-207250Y-40928D01*
Y-35224D01*
X-207195Y-35102D01*
X-207190Y-34889D01*
X-206796D01*
X-205026Y-34537D01*
X-203525Y-33534D01*
X-203331Y-33243D01*
X-202061D01*
X-201866Y-33534D01*
X-200365Y-34537D01*
X-198596Y-34889D01*
X-194096D01*
X-193927Y-34855D01*
X-193301Y-36026D01*
X-225133Y-67857D01*
X-225694Y-68698D01*
X-225891Y-69689D01*
Y-137091D01*
X-347562Y-258761D01*
X-387342D01*
Y-256612D01*
X-383483D01*
X-381997Y-256317D01*
X-380737Y-255475D01*
X-360493Y-235231D01*
X-356872D01*
X-355297Y-234918D01*
X-353962Y-234026D01*
X-353070Y-232691D01*
X-352757Y-231116D01*
Y-227616D01*
X-353070Y-226041D01*
X-353091Y-226009D01*
X-353086Y-225818D01*
X-352451Y-224681D01*
X-352175Y-224667D01*
X-352117Y-224639D01*
X-334336D01*
X-332849Y-224343D01*
X-331589Y-223501D01*
X-309424Y-201336D01*
X-308582Y-200075D01*
X-308286Y-198589D01*
Y-181075D01*
X-308582Y-179588D01*
X-309424Y-178328D01*
X-320785Y-166967D01*
X-322045Y-166125D01*
X-323532Y-165829D01*
X-323946D01*
X-323973Y-165694D01*
X-324975Y-164194D01*
X-326476Y-163191D01*
X-328246Y-162839D01*
X-348746D01*
X-350516Y-163191D01*
X-352016Y-164194D01*
X-353018Y-165694D01*
X-353371Y-167464D01*
Y-170231D01*
X-354641Y-170757D01*
X-356258Y-169139D01*
X-357099Y-168577D01*
X-358090Y-168380D01*
X-413405Y-168380D01*
X-414492Y-167296D01*
Y-35901D01*
X-414689Y-34910D01*
X-415251Y-34070D01*
X-416018Y-33302D01*
X-416859Y-32741D01*
X-417850Y-32543D01*
X-425870D01*
X-426861Y-32741D01*
X-427701Y-33302D01*
X-428536Y-34137D01*
X-429098Y-34978D01*
X-429295Y-35969D01*
X-429296Y-145612D01*
X-429647Y-145921D01*
X-430566Y-146423D01*
X-431275Y-146282D01*
X-454711D01*
X-455702Y-146479D01*
X-456542Y-147041D01*
X-458637Y-149136D01*
X-459198Y-149976D01*
X-459395Y-150967D01*
Y-180549D01*
X-459198Y-181540D01*
X-458637Y-182381D01*
X-457037Y-183980D01*
X-456197Y-184542D01*
X-455206Y-184739D01*
X-434604D01*
X-433613Y-184542D01*
X-432773Y-183980D01*
X-430469Y-181676D01*
X-429296Y-182162D01*
Y-183573D01*
X-429296Y-183573D01*
X-429296Y-183573D01*
X-429210Y-184005D01*
X-429099Y-184564D01*
X-429099Y-184564D01*
Y-184564D01*
X-428886Y-184882D01*
X-428537Y-185404D01*
X-428537Y-185404D01*
X-428537Y-185404D01*
X-427563Y-186378D01*
X-427183Y-186632D01*
X-426723Y-186939D01*
X-426723Y-186939D01*
X-426723Y-186939D01*
X-426360Y-187012D01*
X-425732Y-187136D01*
X-377212Y-187136D01*
X-370986D01*
X-368045Y-190077D01*
Y-196304D01*
X-367848Y-197295D01*
X-367287Y-198135D01*
X-366250Y-199171D01*
X-365410Y-199733D01*
X-364419Y-199930D01*
X-355787D01*
X-354796Y-199733D01*
X-353956Y-199171D01*
X-353036Y-198252D01*
X-352475Y-197412D01*
X-352278Y-196421D01*
Y-189622D01*
X-352164Y-189504D01*
X-327314D01*
X-326323Y-189307D01*
X-325482Y-188745D01*
X-324164Y-187427D01*
X-323603Y-186587D01*
X-323406Y-185596D01*
Y-179232D01*
X-323603Y-178241D01*
X-324164Y-177401D01*
X-324872Y-176693D01*
X-324975Y-175234D01*
X-324943Y-175185D01*
X-323679Y-175061D01*
X-316055Y-182684D01*
Y-196980D01*
X-335945Y-216869D01*
X-352116D01*
X-352175Y-216841D01*
X-352401Y-216829D01*
X-353046Y-215620D01*
X-353045Y-215507D01*
X-352816Y-215165D01*
X-352503Y-213590D01*
Y-210090D01*
X-352816Y-208515D01*
X-353708Y-207180D01*
X-355043Y-206288D01*
X-356618Y-205975D01*
X-363118D01*
X-364692Y-206288D01*
X-366027Y-207180D01*
X-366919Y-208515D01*
X-367233Y-210090D01*
Y-213590D01*
X-366919Y-215165D01*
X-366027Y-216500D01*
X-364692Y-217392D01*
X-363752Y-217579D01*
Y-220480D01*
X-363755Y-220484D01*
X-363752Y-220501D01*
Y-221007D01*
X-363756Y-221024D01*
X-363752Y-221029D01*
Y-223577D01*
X-364946Y-223814D01*
X-366281Y-224706D01*
X-367173Y-226041D01*
X-367487Y-227616D01*
Y-231116D01*
X-367467Y-231217D01*
X-385093Y-248843D01*
X-387342D01*
Y-245030D01*
X-398414D01*
Y-258761D01*
X-411162D01*
X-419420Y-250503D01*
X-420261Y-249941D01*
X-421252Y-249744D01*
X-438504D01*
X-438626Y-249690D01*
X-438886Y-249683D01*
Y-245048D01*
X-449958D01*
Y-258216D01*
X-451228Y-258743D01*
X-466104Y-243867D01*
Y-208775D01*
X-456207Y-198878D01*
X-456078Y-198827D01*
X-455911Y-198664D01*
X-455782Y-198545D01*
X-455627Y-198418D01*
X-454870D01*
X-453478Y-197841D01*
X-452413Y-196776D01*
X-451837Y-195385D01*
Y-193879D01*
X-452413Y-192487D01*
X-453478Y-191422D01*
X-454870Y-190846D01*
X-456376D01*
X-457768Y-191422D01*
X-458833Y-192487D01*
X-459409Y-193879D01*
Y-194630D01*
X-459672Y-194937D01*
X-459818Y-195087D01*
X-459870Y-195216D01*
X-470524Y-205871D01*
X-471086Y-206711D01*
X-471283Y-207702D01*
Y-244939D01*
X-471086Y-245930D01*
X-470524Y-246770D01*
X-448175Y-269120D01*
X-448102Y-269169D01*
X-448487Y-270439D01*
X-457801D01*
X-478060Y-250180D01*
Y-205563D01*
X-463793Y-191295D01*
X-463664Y-191244D01*
X-463497Y-191081D01*
X-463367Y-190962D01*
X-463213Y-190835D01*
X-462456D01*
X-461064Y-190258D01*
X-459999Y-189193D01*
X-459423Y-187802D01*
Y-186296D01*
X-459999Y-184904D01*
X-461064Y-183839D01*
X-462456Y-183263D01*
X-463962D01*
X-465353Y-183839D01*
X-466418Y-184904D01*
X-466995Y-186296D01*
Y-187047D01*
X-467258Y-187354D01*
X-467404Y-187504D01*
X-467455Y-187633D01*
X-482481Y-202659D01*
X-483043Y-203499D01*
X-483240Y-204490D01*
Y-251019D01*
X-483799Y-251405D01*
X-484468Y-251587D01*
X-503847Y-232208D01*
X-503847Y-134226D01*
X-501995Y-132374D01*
X-466057Y-132374D01*
X-458657Y-139753D01*
X-458657Y-139753D01*
X-458654Y-139756D01*
X-458240Y-140032D01*
X-457817Y-140315D01*
X-457815Y-140315D01*
X-457813Y-140316D01*
X-457320Y-140413D01*
X-456826Y-140512D01*
X-435041D01*
X-434050Y-140315D01*
X-433210Y-139753D01*
X-432003Y-138546D01*
X-431442Y-137706D01*
X-431245Y-136715D01*
X-431245Y-90285D01*
X-431442Y-89293D01*
X-432003Y-88453D01*
X-433504Y-86952D01*
X-434344Y-86391D01*
X-435336Y-86194D01*
X-479856Y-86194D01*
X-480847Y-86391D01*
X-481687Y-86952D01*
X-482583Y-87848D01*
X-483144Y-88688D01*
X-483341Y-89679D01*
Y-107440D01*
X-483962Y-108063D01*
X-516305Y-108240D01*
X-516794Y-108340D01*
X-517288Y-108440D01*
X-517291Y-108442D01*
X-517295Y-108442D01*
X-517713Y-108725D01*
X-518127Y-109003D01*
X-519146Y-110028D01*
X-519420Y-110441D01*
X-519697Y-110851D01*
X-519700Y-110861D01*
X-519705Y-110870D01*
X-519800Y-111355D01*
X-519900Y-111841D01*
X-520575Y-236807D01*
X-520574Y-236814D01*
X-520575Y-236821D01*
X-520478Y-237310D01*
X-520383Y-237799D01*
X-520379Y-237805D01*
X-520378Y-237812D01*
X-520101Y-238227D01*
X-519827Y-238642D01*
X-519821Y-238646D01*
X-519817Y-238652D01*
X-482268Y-276201D01*
Y-300102D01*
X-482071Y-301092D01*
X-481510Y-301933D01*
X-481509Y-301933D01*
X-480147Y-303295D01*
X-479307Y-303857D01*
X-478316Y-304054D01*
X-457263D01*
X-456273Y-303857D01*
X-456272Y-303857D01*
X-456272Y-303857D01*
X-455850Y-303575D01*
X-455432Y-303295D01*
X-453944Y-301808D01*
X-453944Y-301807D01*
X-453944Y-301807D01*
X-453665Y-301390D01*
X-453383Y-300967D01*
X-453383Y-300967D01*
X-453383Y-300967D01*
X-453186Y-299976D01*
X-453186Y-283942D01*
X-453383Y-282951D01*
X-453944Y-282111D01*
X-459208Y-276847D01*
X-459026Y-276177D01*
X-458641Y-275618D01*
X-334926D01*
X-333935Y-275421D01*
X-333095Y-274860D01*
X-217839Y-159604D01*
X-183706D01*
X-183583Y-159658D01*
X-183291Y-159666D01*
X-183018Y-161034D01*
X-182016Y-162534D01*
X-181724Y-162729D01*
Y-163999D01*
X-182016Y-164194D01*
X-183018Y-165694D01*
X-183370Y-167464D01*
Y-171964D01*
X-183018Y-173734D01*
X-182016Y-175234D01*
X-181724Y-175429D01*
Y-176699D01*
X-182016Y-176894D01*
X-183018Y-178394D01*
X-183295Y-179784D01*
X-183583Y-179791D01*
X-183706Y-179846D01*
X-185178D01*
X-186169Y-180043D01*
X-187009Y-180604D01*
X-198008Y-191603D01*
X-198569Y-192443D01*
X-198766Y-193434D01*
Y-240284D01*
X-198569Y-241275D01*
X-198008Y-242115D01*
X-184557Y-255567D01*
X-183717Y-256128D01*
X-182726Y-256325D01*
X-152791D01*
X-135805Y-273311D01*
X-134965Y-273872D01*
X-133974Y-274069D01*
X37039D01*
X38031Y-273872D01*
X38871Y-273311D01*
X68083Y-244098D01*
X68644Y-243258D01*
X68842Y-242267D01*
Y16343D01*
X68644Y17334D01*
X68083Y18174D01*
X56456Y29800D01*
X55616Y30362D01*
X54625Y30559D01*
X29999D01*
X29473Y31829D01*
X30159Y32514D01*
X30735Y33906D01*
Y35412D01*
X30159Y36804D01*
X29094Y37868D01*
X27702Y38445D01*
X26196D01*
X24871Y37896D01*
X-35659D01*
X-36897Y37650D01*
X-37948Y36948D01*
X-49081Y25815D01*
X-56330D01*
X-57655Y26364D01*
X-59161D01*
X-60552Y25788D01*
X-61617Y24723D01*
X-62194Y23331D01*
Y21825D01*
X-61617Y20433D01*
X-60552Y19368D01*
X-59161Y18792D01*
X-57655D01*
X-56330Y19341D01*
X-47740D01*
X-46501Y19587D01*
X-45451Y20289D01*
X-34564Y31176D01*
X-33885Y31078D01*
X-33569Y29995D01*
X-33563Y29749D01*
X-55416Y7896D01*
X-81112D01*
X-82103Y7699D01*
X-82220Y7620D01*
X-95147D01*
X-96033Y7444D01*
X-96784Y6942D01*
X-99690Y4036D01*
X-99830Y3981D01*
X-99944Y3871D01*
X-100806Y4042D01*
X-104856D01*
X-106538Y3708D01*
X-107964Y2755D01*
X-108917Y1329D01*
X-109251Y-353D01*
Y-5303D01*
X-108917Y-6985D01*
X-107964Y-8411D01*
X-106895Y-9125D01*
X-106840Y-9305D01*
Y-10357D01*
X-106895Y-10536D01*
X-107964Y-11251D01*
X-108917Y-12677D01*
X-109251Y-14359D01*
Y-19309D01*
X-108917Y-20991D01*
X-107964Y-22417D01*
X-106893Y-23133D01*
X-106837Y-23318D01*
Y-24359D01*
X-106893Y-24544D01*
X-107964Y-25260D01*
X-108832Y-26559D01*
X-109217Y-26778D01*
X-110132Y-27055D01*
X-115355Y-21832D01*
Y27022D01*
X-115300Y27150D01*
X-115297Y27382D01*
X-115290Y27559D01*
X-115271Y27758D01*
X-114735Y28293D01*
X-114159Y29685D01*
Y31191D01*
X-114735Y32583D01*
X-115800Y33648D01*
X-117192Y34224D01*
X-118698D01*
X-120090Y33648D01*
X-121154Y32583D01*
X-121731Y31191D01*
Y29685D01*
X-121154Y28293D01*
X-120623Y27762D01*
X-120592Y27359D01*
X-120589Y27150D01*
X-120535Y27022D01*
Y-22905D01*
X-120338Y-23896D01*
X-119776Y-24736D01*
X-111838Y-32674D01*
X-110998Y-33235D01*
X-110007Y-33433D01*
X-109587D01*
X-109465Y-33487D01*
X-109216Y-33493D01*
X-108917Y-35000D01*
X-107964Y-36426D01*
X-106895Y-37140D01*
X-106840Y-37319D01*
Y-38372D01*
X-106895Y-38551D01*
X-107964Y-39266D01*
X-108917Y-40692D01*
X-109121Y-41719D01*
X-109464Y-41727D01*
X-109587Y-41782D01*
X-121058D01*
X-125203Y-37637D01*
Y-30975D01*
X-125150Y-30864D01*
X-125160Y-30837D01*
X-125148Y-30810D01*
X-125145Y-30591D01*
X-125123Y-30242D01*
X-124482Y-29601D01*
X-123905Y-28210D01*
Y-26703D01*
X-124482Y-25312D01*
X-124654Y-25140D01*
X-124681Y-24698D01*
X-124683Y-24477D01*
X-124737Y-24348D01*
Y25404D01*
X-124935Y26395D01*
X-125496Y27235D01*
X-145524Y47263D01*
X-146364Y47825D01*
X-147356Y48022D01*
D02*
G37*
G36*
X-400832Y-50007D02*
X-404332D01*
X-405907Y-50320D01*
X-407242Y-51212D01*
X-408134Y-52547D01*
X-408447Y-54122D01*
Y-60622D01*
X-408134Y-62197D01*
X-407242Y-63532D01*
X-405907Y-64424D01*
X-404332Y-64737D01*
X-400832D01*
X-399257Y-64424D01*
X-397922Y-63532D01*
X-397030Y-62197D01*
X-396717Y-60622D01*
Y-60022D01*
X-396503Y-60016D01*
X-396381Y-59962D01*
X-394345D01*
X-394222Y-60016D01*
X-393963Y-60023D01*
Y-63658D01*
X-381391D01*
Y-51086D01*
X-393963D01*
Y-54721D01*
X-394222Y-54728D01*
X-394345Y-54782D01*
X-396381D01*
X-396503Y-54728D01*
X-396717Y-54722D01*
Y-54122D01*
X-397030Y-52547D01*
X-397922Y-51212D01*
X-399257Y-50320D01*
X-400832Y-50007D01*
D02*
G37*
G36*
X91379Y-52727D02*
X89070D01*
X86839Y-53325D01*
X84840Y-54479D01*
X83207Y-56112D01*
X82052Y-58112D01*
X81454Y-60342D01*
Y-62652D01*
X82052Y-64882D01*
X83207Y-66882D01*
X84840Y-68515D01*
X86839Y-69669D01*
X89070Y-70267D01*
X91379D01*
X93610Y-69669D01*
X95609Y-68515D01*
X97242Y-66882D01*
X98397Y-64882D01*
X98995Y-62652D01*
Y-60342D01*
X98397Y-58112D01*
X97242Y-56112D01*
X95609Y-54479D01*
X93610Y-53325D01*
X91379Y-52727D01*
D02*
G37*
G36*
X-400832Y-66652D02*
X-404332D01*
X-405907Y-66966D01*
X-407242Y-67858D01*
X-408134Y-69193D01*
X-408447Y-70767D01*
Y-77267D01*
X-408134Y-78842D01*
X-407242Y-80177D01*
X-405907Y-81069D01*
X-404332Y-81382D01*
X-400832D01*
X-399257Y-81069D01*
X-397922Y-80177D01*
X-397030Y-78842D01*
X-396717Y-77267D01*
Y-76667D01*
X-396503Y-76662D01*
X-396381Y-76607D01*
X-394345D01*
X-394222Y-76662D01*
X-393963Y-76668D01*
Y-80303D01*
X-381391D01*
Y-67731D01*
X-393963D01*
Y-71367D01*
X-394222Y-71373D01*
X-394345Y-71428D01*
X-396381D01*
X-396503Y-71373D01*
X-396717Y-71368D01*
Y-70767D01*
X-397030Y-69193D01*
X-397922Y-67858D01*
X-399257Y-66966D01*
X-400832Y-66652D01*
D02*
G37*
G36*
X91379Y-78127D02*
X89070D01*
X86839Y-78725D01*
X84840Y-79879D01*
X83207Y-81512D01*
X82052Y-83512D01*
X81454Y-85743D01*
Y-88052D01*
X82052Y-90282D01*
X83207Y-92282D01*
X84840Y-93915D01*
X86839Y-95069D01*
X89070Y-95667D01*
X91379D01*
X93610Y-95069D01*
X95609Y-93915D01*
X97242Y-92282D01*
X98397Y-90282D01*
X98995Y-88052D01*
Y-85743D01*
X98397Y-83512D01*
X97242Y-81512D01*
X95609Y-79879D01*
X93610Y-78725D01*
X91379Y-78127D01*
D02*
G37*
G36*
X-400832Y-83298D02*
X-404332D01*
X-405907Y-83611D01*
X-407242Y-84503D01*
X-408134Y-85838D01*
X-408447Y-87413D01*
Y-93913D01*
X-408134Y-95488D01*
X-407242Y-96823D01*
X-405907Y-97715D01*
X-404332Y-98028D01*
X-400832D01*
X-399257Y-97715D01*
X-397922Y-96823D01*
X-397030Y-95488D01*
X-396717Y-93913D01*
Y-93313D01*
X-396503Y-93307D01*
X-396381Y-93253D01*
X-394345D01*
X-394222Y-93307D01*
X-393963Y-93314D01*
Y-96949D01*
X-381391D01*
Y-84377D01*
X-393963D01*
Y-88012D01*
X-394222Y-88019D01*
X-394345Y-88073D01*
X-396381D01*
X-396503Y-88019D01*
X-396717Y-88013D01*
Y-87413D01*
X-397030Y-85838D01*
X-397922Y-84503D01*
X-399257Y-83611D01*
X-400832Y-83298D01*
D02*
G37*
G36*
X-492432Y-91330D02*
X-494219D01*
X-495945Y-91792D01*
X-497492Y-92686D01*
X-498756Y-93949D01*
X-499649Y-95497D01*
X-500112Y-97223D01*
Y-99009D01*
X-499649Y-100735D01*
X-498756Y-102283D01*
X-497492Y-103546D01*
X-495945Y-104440D01*
X-494219Y-104902D01*
X-492432D01*
X-490706Y-104440D01*
X-489159Y-103546D01*
X-487895Y-102283D01*
X-487002Y-100735D01*
X-486540Y-99009D01*
Y-97223D01*
X-487002Y-95497D01*
X-487895Y-93949D01*
X-489159Y-92686D01*
X-490706Y-91792D01*
X-492432Y-91330D01*
D02*
G37*
G36*
X-400832Y-99943D02*
X-404332D01*
X-405907Y-100257D01*
X-407242Y-101149D01*
X-408134Y-102484D01*
X-408447Y-104058D01*
Y-110558D01*
X-408134Y-112133D01*
X-407242Y-113468D01*
X-405907Y-114360D01*
X-404332Y-114674D01*
X-400832D01*
X-399257Y-114360D01*
X-397922Y-113468D01*
X-397030Y-112133D01*
X-396717Y-110558D01*
Y-109958D01*
X-396503Y-109953D01*
X-396381Y-109898D01*
X-394345D01*
X-394222Y-109953D01*
X-393963Y-109959D01*
Y-113594D01*
X-381391D01*
Y-101022D01*
X-393963D01*
Y-104657D01*
X-394222Y-104664D01*
X-394345Y-104719D01*
X-396381D01*
X-396503Y-104664D01*
X-396717Y-104659D01*
Y-104058D01*
X-397030Y-102484D01*
X-397922Y-101149D01*
X-399257Y-100257D01*
X-400832Y-99943D01*
D02*
G37*
G36*
X91379Y-103527D02*
X89070D01*
X86839Y-104125D01*
X84840Y-105279D01*
X83207Y-106912D01*
X82052Y-108912D01*
X81454Y-111143D01*
Y-113452D01*
X82052Y-115682D01*
X83207Y-117682D01*
X84840Y-119315D01*
X86839Y-120469D01*
X89070Y-121067D01*
X91379D01*
X93610Y-120469D01*
X95609Y-119315D01*
X97242Y-117682D01*
X98397Y-115682D01*
X98995Y-113452D01*
Y-111143D01*
X98397Y-108912D01*
X97242Y-106912D01*
X95609Y-105279D01*
X93610Y-104125D01*
X91379Y-103527D01*
D02*
G37*
G36*
X-222246Y28650D02*
X-223753D01*
X-225144Y28074D01*
X-226209Y27009D01*
X-226507Y26289D01*
X-242800Y9996D01*
X-243502Y8946D01*
X-243749Y7707D01*
Y-37039D01*
X-270755Y-64045D01*
X-288229D01*
X-289468Y-64292D01*
X-290518Y-64993D01*
X-307047Y-81522D01*
X-307749Y-82572D01*
X-307996Y-83811D01*
Y-133834D01*
X-315260Y-141098D01*
X-323813D01*
X-323973Y-140294D01*
X-324975Y-138794D01*
X-326476Y-137791D01*
X-328246Y-137439D01*
X-348746D01*
X-350516Y-137791D01*
X-352016Y-138794D01*
X-353018Y-140294D01*
X-353371Y-142064D01*
Y-146564D01*
X-353018Y-148334D01*
X-352016Y-149834D01*
X-350516Y-150837D01*
X-348746Y-151189D01*
X-328246D01*
X-326476Y-150837D01*
X-324975Y-149834D01*
X-323973Y-148334D01*
X-323821Y-147573D01*
X-313919D01*
X-312680Y-147326D01*
X-311630Y-146624D01*
X-302469Y-137464D01*
X-301768Y-136414D01*
X-301521Y-135175D01*
Y-85152D01*
X-286888Y-70519D01*
X-269414D01*
X-268175Y-70273D01*
X-267125Y-69571D01*
X-238222Y-40669D01*
X-237521Y-39618D01*
X-237274Y-38379D01*
Y6366D01*
X-222562Y21078D01*
X-222246D01*
X-220855Y21654D01*
X-219790Y22719D01*
X-219214Y24111D01*
Y25617D01*
X-219790Y27009D01*
X-220855Y28074D01*
X-222246Y28650D01*
D02*
G37*
G36*
X91379Y-128927D02*
X89070D01*
X86839Y-129525D01*
X84840Y-130679D01*
X83207Y-132312D01*
X82052Y-134312D01*
X81454Y-136543D01*
Y-138852D01*
X82052Y-141082D01*
X83207Y-143082D01*
X84840Y-144715D01*
X86839Y-145869D01*
X89070Y-146467D01*
X91379D01*
X93610Y-145869D01*
X95609Y-144715D01*
X97242Y-143082D01*
X98397Y-141082D01*
X98995Y-138852D01*
Y-136543D01*
X98397Y-134312D01*
X97242Y-132312D01*
X95609Y-130679D01*
X93610Y-129525D01*
X91379Y-128927D01*
D02*
G37*
G36*
X-492432Y-135330D02*
X-494219D01*
X-495945Y-135793D01*
X-497492Y-136686D01*
X-498756Y-137949D01*
X-499649Y-139497D01*
X-500112Y-141223D01*
Y-143009D01*
X-499649Y-144735D01*
X-498756Y-146283D01*
X-497492Y-147546D01*
X-495945Y-148440D01*
X-494219Y-148902D01*
X-492432D01*
X-490706Y-148440D01*
X-489159Y-147546D01*
X-487895Y-146283D01*
X-487002Y-144735D01*
X-486540Y-143009D01*
Y-141223D01*
X-487002Y-139497D01*
X-487895Y-137949D01*
X-489159Y-136686D01*
X-490706Y-135793D01*
X-492432Y-135330D01*
D02*
G37*
G36*
X91379Y-154327D02*
X89070D01*
X86839Y-154925D01*
X84840Y-156079D01*
X83207Y-157712D01*
X82052Y-159712D01*
X81454Y-161943D01*
Y-164252D01*
X82052Y-166482D01*
X83207Y-168482D01*
X84840Y-170115D01*
X86839Y-171269D01*
X89070Y-171867D01*
X91379D01*
X93610Y-171269D01*
X95609Y-170115D01*
X97242Y-168482D01*
X98397Y-166482D01*
X98995Y-164252D01*
Y-161943D01*
X98397Y-159712D01*
X97242Y-157712D01*
X95609Y-156079D01*
X93610Y-154925D01*
X91379Y-154327D01*
D02*
G37*
G36*
Y-179727D02*
X89070D01*
X86839Y-180325D01*
X84840Y-181479D01*
X83207Y-183112D01*
X82052Y-185112D01*
X81454Y-187342D01*
Y-189652D01*
X82052Y-191882D01*
X83207Y-193882D01*
X84840Y-195515D01*
X86839Y-196669D01*
X89070Y-197267D01*
X91379D01*
X93610Y-196669D01*
X95609Y-195515D01*
X97242Y-193882D01*
X98397Y-191882D01*
X98995Y-189652D01*
Y-187342D01*
X98397Y-185112D01*
X97242Y-183112D01*
X95609Y-181479D01*
X93610Y-180325D01*
X91379Y-179727D01*
D02*
G37*
G36*
Y-205127D02*
X89070D01*
X86839Y-205725D01*
X84840Y-206879D01*
X83207Y-208512D01*
X82052Y-210512D01*
X81454Y-212743D01*
Y-215052D01*
X82052Y-217282D01*
X83207Y-219282D01*
X84840Y-220915D01*
X86839Y-222069D01*
X89070Y-222667D01*
X91379D01*
X93610Y-222069D01*
X95609Y-220915D01*
X97242Y-219282D01*
X98397Y-217282D01*
X98995Y-215052D01*
Y-212743D01*
X98397Y-210512D01*
X97242Y-208512D01*
X95609Y-206879D01*
X93610Y-205725D01*
X91379Y-205127D01*
D02*
G37*
G36*
X-381293Y-190805D02*
X-382799D01*
X-384191Y-191381D01*
X-384722Y-191913D01*
X-385126Y-191944D01*
X-385335Y-191947D01*
X-385462Y-192001D01*
X-427248D01*
X-428239Y-192198D01*
X-429079Y-192760D01*
X-436893Y-200573D01*
X-437454Y-201413D01*
X-437651Y-202404D01*
Y-202641D01*
X-437706Y-202764D01*
X-437715Y-203155D01*
X-438386Y-203288D01*
X-439721Y-204180D01*
X-440613Y-205515D01*
X-440927Y-207090D01*
Y-213590D01*
X-440613Y-215165D01*
X-439721Y-216500D01*
X-438386Y-217392D01*
X-436811Y-217705D01*
X-433312D01*
X-432687Y-217581D01*
X-432061Y-218751D01*
X-433126Y-219816D01*
X-433247Y-219861D01*
X-433772Y-220348D01*
X-441068D01*
Y-234920D01*
X-429996D01*
Y-224105D01*
X-429527Y-223619D01*
X-429477Y-223492D01*
X-414818Y-208832D01*
X-414733Y-208810D01*
X-414692Y-208738D01*
X-414616Y-208708D01*
X-414461Y-208558D01*
X-414242Y-208368D01*
X-413134D01*
X-411742Y-207792D01*
X-410677Y-206726D01*
X-410101Y-205335D01*
Y-204226D01*
X-409910Y-204007D01*
X-409761Y-203853D01*
X-409730Y-203776D01*
X-409659Y-203736D01*
X-409636Y-203651D01*
X-408510Y-202525D01*
X-406236D01*
X-405851Y-203795D01*
X-406427Y-204180D01*
X-407319Y-205515D01*
X-407633Y-207090D01*
Y-213590D01*
X-407319Y-215165D01*
X-406427Y-216500D01*
X-405652Y-217018D01*
Y-220330D01*
X-407304D01*
Y-234902D01*
X-396232D01*
Y-220330D01*
X-397883D01*
Y-217018D01*
X-397108Y-216500D01*
X-396216Y-215165D01*
X-395902Y-213590D01*
Y-207090D01*
X-396216Y-205515D01*
X-397108Y-204180D01*
X-397684Y-203795D01*
X-397299Y-202525D01*
X-389385D01*
X-388372Y-203620D01*
X-388427Y-204180D01*
X-389319Y-205515D01*
X-389633Y-207090D01*
Y-213590D01*
X-389319Y-215165D01*
X-388427Y-216500D01*
X-387092Y-217392D01*
X-385518Y-217705D01*
X-382018D01*
X-380443Y-217392D01*
X-379108Y-216500D01*
X-378455Y-215523D01*
X-377185Y-215908D01*
Y-220322D01*
X-378452Y-220330D01*
Y-220330D01*
X-389524D01*
Y-234902D01*
X-378452D01*
Y-229613D01*
X-378204Y-229447D01*
X-372764Y-224007D01*
X-372203Y-223167D01*
X-372006Y-222176D01*
Y-201568D01*
X-372203Y-200577D01*
X-372764Y-199737D01*
X-377759Y-194742D01*
X-377812Y-194612D01*
X-377977Y-194444D01*
X-378242Y-194158D01*
X-378260Y-194135D01*
Y-193838D01*
X-378837Y-192446D01*
X-379902Y-191381D01*
X-381293Y-190805D01*
D02*
G37*
G36*
X-451312Y-202975D02*
X-454812D01*
X-456386Y-203288D01*
X-457721Y-204180D01*
X-458613Y-205515D01*
X-458927Y-207090D01*
Y-213590D01*
X-458613Y-215165D01*
X-457721Y-216500D01*
X-457196Y-216851D01*
Y-220348D01*
X-458848D01*
Y-234920D01*
X-447776D01*
Y-220348D01*
X-449427D01*
Y-217185D01*
X-448402Y-216500D01*
X-447510Y-215165D01*
X-447197Y-213590D01*
Y-207090D01*
X-447510Y-205515D01*
X-448402Y-204180D01*
X-449737Y-203288D01*
X-451312Y-202975D01*
D02*
G37*
%LPD*%
G36*
X-391616Y-43266D02*
X-391642Y-43025D01*
X-391719Y-42809D01*
X-391848Y-42619D01*
X-392028Y-42454D01*
X-392259Y-42314D01*
X-392542Y-42200D01*
X-392876Y-42111D01*
X-393261Y-42047D01*
X-393698Y-42009D01*
X-394187Y-41996D01*
Y-39456D01*
X-393698Y-39444D01*
X-393261Y-39406D01*
X-392876Y-39342D01*
X-392542Y-39253D01*
X-392259Y-39139D01*
X-392028Y-38999D01*
X-391848Y-38834D01*
X-391719Y-38644D01*
X-391642Y-38428D01*
X-391616Y-38186D01*
Y-43266D01*
D02*
G37*
G36*
X-399084Y-38428D02*
X-399007Y-38644D01*
X-398878Y-38834D01*
X-398698Y-38999D01*
X-398467Y-39139D01*
X-398184Y-39253D01*
X-397850Y-39342D01*
X-397464Y-39406D01*
X-397027Y-39444D01*
X-396539Y-39456D01*
Y-41996D01*
X-397027Y-42009D01*
X-397464Y-42047D01*
X-397850Y-42111D01*
X-398184Y-42200D01*
X-398467Y-42314D01*
X-398698Y-42454D01*
X-398878Y-42619D01*
X-399007Y-42809D01*
X-399084Y-43025D01*
X-399109Y-43266D01*
Y-38186D01*
X-399084Y-38428D01*
D02*
G37*
G36*
X-116408Y28732D02*
X-116464Y28637D01*
X-116514Y28523D01*
X-116556Y28389D01*
X-116593Y28235D01*
X-116622Y28061D01*
X-116662Y27654D01*
X-116672Y27421D01*
X-116675Y27167D01*
X-119215D01*
X-119218Y27421D01*
X-119268Y28061D01*
X-119297Y28235D01*
X-119333Y28389D01*
X-119376Y28523D01*
X-119426Y28637D01*
X-119482Y28732D01*
X-119544Y28806D01*
X-116345D01*
X-116408Y28732D01*
D02*
G37*
G36*
X-321303Y18852D02*
X-321400Y18843D01*
X-321506Y18816D01*
X-321622Y18770D01*
X-321747Y18706D01*
X-321882Y18622D01*
X-322025Y18521D01*
X-322341Y18261D01*
X-322513Y18103D01*
X-322695Y17926D01*
X-324491Y19722D01*
X-324314Y19903D01*
X-323896Y20391D01*
X-323794Y20535D01*
X-323711Y20670D01*
X-323646Y20795D01*
X-323601Y20910D01*
X-323573Y21017D01*
X-323565Y21114D01*
X-321303Y18852D01*
D02*
G37*
G36*
X-214333Y14085D02*
X-215316Y13072D01*
X-216695Y15959D01*
X-216596Y15935D01*
X-216488Y15934D01*
X-216371Y15955D01*
X-216244Y15997D01*
X-216108Y16062D01*
X-215964Y16149D01*
X-215810Y16257D01*
X-215647Y16388D01*
X-215293Y16716D01*
X-214333Y14085D01*
D02*
G37*
G36*
X-19466Y11406D02*
X-19492Y11646D01*
X-19569Y11861D01*
X-19698Y12051D01*
X-19879Y12215D01*
X-20111Y12354D01*
X-20396Y12468D01*
X-20731Y12557D01*
X-21119Y12620D01*
X-21558Y12658D01*
X-22049Y12670D01*
Y15210D01*
X-21558Y15223D01*
X-21119Y15261D01*
X-20731Y15324D01*
X-20396Y15412D01*
X-20111Y15526D01*
X-19879Y15665D01*
X-19698Y15830D01*
X-19569Y16019D01*
X-19492Y16234D01*
X-19466Y16474D01*
Y11406D01*
D02*
G37*
G36*
X-205360Y6338D02*
X-205325Y6288D01*
X-205271Y6222D01*
X-204998Y5921D01*
X-204375Y5283D01*
X-205448Y2764D01*
X-205629Y2939D01*
X-205965Y3223D01*
X-206119Y3333D01*
X-206265Y3421D01*
X-206401Y3488D01*
X-206529Y3532D01*
X-206648Y3555D01*
X-206758Y3557D01*
X-206859Y3536D01*
X-205377Y6371D01*
X-205360Y6338D01*
D02*
G37*
G36*
X-24616Y3636D02*
X-24672Y3542D01*
X-24721Y3428D01*
X-24764Y3293D01*
X-24800Y3139D01*
X-24830Y2966D01*
X-24869Y2558D01*
X-24879Y2325D01*
X-24883Y2072D01*
X-27423D01*
X-27426Y2325D01*
X-27475Y2966D01*
X-27505Y3139D01*
X-27541Y3293D01*
X-27584Y3428D01*
X-27634Y3542D01*
X-27689Y3636D01*
X-27752Y3711D01*
X-24553D01*
X-24616Y3636D01*
D02*
G37*
G36*
X-97461Y1578D02*
X-97840Y1185D01*
X-98436Y478D01*
X-98652Y166D01*
X-98813Y-120D01*
X-98920Y-380D01*
X-98973Y-612D01*
X-98971Y-817D01*
X-98914Y-996D01*
X-98803Y-1148D01*
X-101601Y1650D01*
X-101449Y1539D01*
X-101270Y1482D01*
X-101065Y1480D01*
X-100833Y1533D01*
X-100574Y1640D01*
X-100288Y1801D01*
X-99975Y2017D01*
X-99635Y2288D01*
X-99269Y2613D01*
X-98875Y2992D01*
X-97461Y1578D01*
D02*
G37*
G36*
X-296663Y-5460D02*
X-296625Y-5907D01*
X-296562Y-6301D01*
X-296473Y-6643D01*
X-296360Y-6932D01*
X-296220Y-7168D01*
X-296056Y-7352D01*
X-295867Y-7484D01*
X-295652Y-7562D01*
X-295411Y-7589D01*
X-300480D01*
X-300240Y-7562D01*
X-300025Y-7484D01*
X-299835Y-7352D01*
X-299671Y-7168D01*
X-299532Y-6932D01*
X-299418Y-6643D01*
X-299329Y-6301D01*
X-299266Y-5907D01*
X-299228Y-5460D01*
X-299216Y-4961D01*
X-296676D01*
X-296663Y-5460D01*
D02*
G37*
G36*
X-195391Y-5455D02*
X-195353Y-5896D01*
X-195290Y-6285D01*
X-195201Y-6621D01*
X-195086Y-6904D01*
X-194947Y-7135D01*
X-194782Y-7313D01*
X-194591Y-7438D01*
X-194375Y-7511D01*
X-194134Y-7531D01*
X-199208Y-7654D01*
X-198968Y-7621D01*
X-198753Y-7537D01*
X-198563Y-7399D01*
X-198399Y-7208D01*
X-198260Y-6965D01*
X-198146Y-6670D01*
X-198058Y-6322D01*
X-197994Y-5921D01*
X-197957Y-5467D01*
X-197944Y-4961D01*
X-195404D01*
X-195391Y-5455D01*
D02*
G37*
G36*
X-22084Y11296D02*
X-21835Y11290D01*
X-21536Y9783D01*
X-20583Y8357D01*
X-19157Y7404D01*
X-17475Y7070D01*
X-13425D01*
X-11743Y7404D01*
X-10317Y8357D01*
X-10136Y8628D01*
X-8431Y8893D01*
X-8190Y8701D01*
Y-8701D01*
X-8431Y-8893D01*
X-10136Y-8628D01*
X-10317Y-8357D01*
X-11743Y-7404D01*
X-13425Y-7070D01*
X-17475D01*
X-17969Y-7168D01*
X-17996Y-7146D01*
X-18479Y-6679D01*
X-18607Y-6629D01*
X-23563Y-1673D01*
Y1926D01*
X-23508Y2054D01*
X-23505Y2286D01*
X-23498Y2463D01*
X-23478Y2663D01*
X-22943Y3198D01*
X-22367Y4589D01*
Y6095D01*
X-22943Y7487D01*
X-24008Y8552D01*
X-25399Y9128D01*
X-26906D01*
X-28297Y8552D01*
X-29362Y7487D01*
X-29939Y6095D01*
Y4589D01*
X-29362Y3198D01*
X-28831Y2667D01*
X-28800Y2263D01*
X-28797Y2054D01*
X-28742Y1926D01*
Y-2745D01*
X-28545Y-3737D01*
X-27984Y-4577D01*
X-22480Y-10080D01*
X-22608Y-10756D01*
X-22652Y-10831D01*
X-23089Y-11351D01*
X-39808D01*
X-40799Y-11548D01*
X-41639Y-12109D01*
X-45345Y-15815D01*
X-45906Y-16655D01*
X-46103Y-17646D01*
Y-19264D01*
X-46265Y-19372D01*
X-46887Y-20302D01*
X-47105Y-21399D01*
Y-26349D01*
X-46887Y-27446D01*
X-46265Y-28376D01*
X-45335Y-28997D01*
X-44239Y-29215D01*
X-42789D01*
X-41692Y-28997D01*
X-41118Y-28614D01*
X-40909Y-28611D01*
X-40008Y-28926D01*
X-39753Y-29112D01*
X-39636Y-29696D01*
X-39015Y-30626D01*
X-38085Y-31247D01*
X-36989Y-31465D01*
X-32039D01*
X-30942Y-31247D01*
X-30012Y-30626D01*
X-29904Y-30464D01*
X-22206D01*
X-22084Y-30518D01*
X-21836Y-30525D01*
X-21536Y-32033D01*
X-20583Y-33459D01*
X-19752Y-34014D01*
X-20137Y-35284D01*
X-29904D01*
X-30012Y-35122D01*
X-30942Y-34501D01*
X-32039Y-34283D01*
X-36989D01*
X-38085Y-34501D01*
X-39015Y-35122D01*
X-39636Y-36052D01*
X-39855Y-37149D01*
Y-38599D01*
X-39636Y-39696D01*
X-39183Y-40374D01*
X-39636Y-41052D01*
X-39855Y-42149D01*
Y-43599D01*
X-39636Y-44696D01*
X-39183Y-45374D01*
X-39636Y-46052D01*
X-39855Y-47149D01*
Y-48599D01*
X-39636Y-49696D01*
X-39183Y-50374D01*
X-39636Y-51052D01*
X-39855Y-52149D01*
Y-53599D01*
X-39636Y-54696D01*
X-39183Y-55374D01*
X-39636Y-56052D01*
X-39855Y-57149D01*
Y-58599D01*
X-39636Y-59696D01*
X-39183Y-60374D01*
X-39636Y-61052D01*
X-39753Y-61636D01*
X-40008Y-61822D01*
X-40909Y-62137D01*
X-41118Y-62134D01*
X-41692Y-61751D01*
X-42789Y-61533D01*
X-44239D01*
X-45335Y-61751D01*
X-46265Y-62372D01*
X-46887Y-63302D01*
X-47105Y-64399D01*
Y-69349D01*
X-46887Y-70446D01*
X-46265Y-71376D01*
X-45708Y-71748D01*
X-45652Y-72028D01*
X-45150Y-72779D01*
X-39053Y-78876D01*
X-39008Y-79004D01*
X-38982Y-79016D01*
X-38971Y-79043D01*
X-38515Y-79513D01*
X-38369Y-79679D01*
Y-81839D01*
X-38094Y-83219D01*
X-37313Y-84389D01*
X-36143Y-85170D01*
X-34764Y-85444D01*
X-32264D01*
X-32060Y-85404D01*
X-31976Y-85485D01*
X-31835Y-85541D01*
X-31065Y-86311D01*
Y-100081D01*
X-32464Y-101481D01*
X-32598Y-101530D01*
X-32711Y-101635D01*
X-47918D01*
Y-115715D01*
X-80368D01*
Y-111329D01*
X-80566Y-110338D01*
X-81127Y-109498D01*
X-82297Y-108328D01*
X-83138Y-107766D01*
X-84129Y-107569D01*
X-92110D01*
X-93101Y-107766D01*
X-93941Y-108328D01*
X-94812Y-109198D01*
X-95374Y-110038D01*
X-95571Y-111030D01*
X-95872Y-111070D01*
X-96841Y-111045D01*
X-97698Y-109763D01*
X-99124Y-108810D01*
X-100178Y-108600D01*
X-100187Y-108263D01*
X-100241Y-108140D01*
Y-103347D01*
X-68895Y-72001D01*
X-67722Y-72487D01*
Y-75388D01*
X-67776Y-75505D01*
X-67797Y-76032D01*
X-68931Y-76790D01*
X-69713Y-77959D01*
X-69987Y-79339D01*
Y-81839D01*
X-69713Y-83219D01*
X-68931Y-84389D01*
X-69351Y-85635D01*
X-69918D01*
Y-101707D01*
X-51346D01*
Y-85635D01*
X-57981D01*
X-57988Y-85375D01*
X-58042Y-85253D01*
Y-85089D01*
X-58239Y-84098D01*
X-58801Y-83258D01*
X-59791Y-82268D01*
X-59836Y-82146D01*
X-60277Y-81672D01*
Y-79339D01*
X-60551Y-77959D01*
X-61333Y-76790D01*
X-62472Y-76029D01*
X-62480Y-75935D01*
X-62488Y-75533D01*
X-62542Y-75408D01*
Y-71750D01*
X-61309Y-71371D01*
X-61265Y-71376D01*
X-60335Y-71997D01*
X-59239Y-72215D01*
X-57789D01*
X-56692Y-71997D01*
X-55762Y-71376D01*
X-55141Y-70446D01*
X-54922Y-69349D01*
Y-64399D01*
X-55141Y-63302D01*
X-55762Y-62372D01*
X-56692Y-61751D01*
X-57789Y-61533D01*
X-59239D01*
X-60335Y-61751D01*
X-60909Y-62134D01*
X-61119Y-62137D01*
X-62019Y-61822D01*
X-62275Y-61636D01*
X-62391Y-61052D01*
X-62844Y-60374D01*
X-62391Y-59696D01*
X-62172Y-58599D01*
Y-57149D01*
X-62391Y-56052D01*
X-62844Y-55374D01*
X-62391Y-54696D01*
X-62172Y-53599D01*
Y-52149D01*
X-62391Y-51052D01*
X-62844Y-50374D01*
X-62391Y-49696D01*
X-62172Y-48599D01*
Y-47149D01*
X-62391Y-46052D01*
X-62844Y-45374D01*
X-62391Y-44696D01*
X-62172Y-43599D01*
Y-42149D01*
X-62391Y-41052D01*
X-62844Y-40374D01*
X-62391Y-39696D01*
X-62172Y-38599D01*
Y-37149D01*
X-62391Y-36052D01*
X-62844Y-35374D01*
X-62391Y-34696D01*
X-62172Y-33599D01*
Y-32149D01*
X-62391Y-31052D01*
X-62844Y-30374D01*
X-62391Y-29696D01*
X-62275Y-29112D01*
X-62019Y-28926D01*
X-61119Y-28611D01*
X-60909Y-28614D01*
X-60335Y-28997D01*
X-59239Y-29215D01*
X-57789D01*
X-56692Y-28997D01*
X-55762Y-28376D01*
X-55141Y-27446D01*
X-54922Y-26349D01*
Y-21399D01*
X-55141Y-20302D01*
X-55762Y-19372D01*
X-55924Y-19264D01*
Y-10859D01*
X-33714Y11351D01*
X-22206D01*
X-22084Y11296D01*
D02*
G37*
G36*
X-87636Y-6503D02*
X-87559Y-6935D01*
X-87467Y-7213D01*
X-86443D01*
X-86674Y-7239D01*
X-86881Y-7318D01*
X-87064Y-7449D01*
X-87222Y-7632D01*
X-87240Y-7664D01*
X-87026Y-7926D01*
X-86747Y-8154D01*
X-86416Y-8332D01*
X-86035Y-8459D01*
X-85604Y-8535D01*
X-85121Y-8561D01*
Y-11101D01*
X-85604Y-11126D01*
X-86035Y-11202D01*
X-86416Y-11329D01*
X-86747Y-11507D01*
X-87026Y-11736D01*
X-87240Y-11998D01*
X-87222Y-12030D01*
X-87064Y-12213D01*
X-86881Y-12344D01*
X-86674Y-12422D01*
X-86443Y-12448D01*
X-87467D01*
X-87559Y-12726D01*
X-87636Y-13158D01*
X-87661Y-13641D01*
X-88456Y-12448D01*
X-91419D01*
X-91188Y-12422D01*
X-90981Y-12344D01*
X-90798Y-12213D01*
X-90640Y-12030D01*
X-90506Y-11794D01*
X-90396Y-11506D01*
X-90311Y-11166D01*
X-90250Y-10773D01*
X-90213Y-10328D01*
X-90201Y-9831D01*
X-90213Y-9334D01*
X-90250Y-8888D01*
X-90311Y-8496D01*
X-90396Y-8156D01*
X-90506Y-7868D01*
X-90640Y-7632D01*
X-90798Y-7449D01*
X-90981Y-7318D01*
X-91188Y-7239D01*
X-91419Y-7213D01*
X-88456D01*
X-87661Y-6021D01*
X-87636Y-6503D01*
D02*
G37*
G36*
X-18918Y-8166D02*
X-17994Y-8949D01*
X-17585Y-9235D01*
X-17211Y-9450D01*
X-16873Y-9594D01*
X-16570Y-9667D01*
X-16302Y-9670D01*
X-16071Y-9601D01*
X-15874Y-9462D01*
X-19466Y-12969D01*
Y-16474D01*
X-19492Y-16234D01*
X-19569Y-16019D01*
X-19698Y-15830D01*
X-19879Y-15665D01*
X-20111Y-15526D01*
X-20396Y-15412D01*
X-20731Y-15324D01*
X-21119Y-15261D01*
X-21558Y-15223D01*
X-22049Y-15210D01*
Y-12670D01*
X-21558Y-12658D01*
X-21119Y-12620D01*
X-20731Y-12557D01*
X-20396Y-12468D01*
X-20111Y-12354D01*
X-19879Y-12215D01*
X-19698Y-12051D01*
X-19569Y-11861D01*
X-19492Y-11646D01*
X-19490Y-11635D01*
X-19690Y-11286D01*
X-19975Y-10878D01*
X-20331Y-10433D01*
X-21258Y-9436D01*
X-19434Y-7668D01*
X-18918Y-8166D01*
D02*
G37*
G36*
X3500Y17662D02*
Y-17917D01*
X2475Y-18942D01*
X-5204D01*
X-5600Y-18546D01*
Y17254D01*
X-4414Y18440D01*
X2722D01*
X3500Y17662D01*
D02*
G37*
G36*
X-101825Y-18143D02*
X-101807Y-18366D01*
X-101777Y-18576D01*
X-101735Y-18774D01*
X-101681Y-18960D01*
X-101615Y-19133D01*
X-101537Y-19294D01*
X-101447Y-19442D01*
X-101345Y-19578D01*
X-101231Y-19702D01*
X-104431D01*
X-104317Y-19578D01*
X-104215Y-19442D01*
X-104125Y-19294D01*
X-104047Y-19133D01*
X-103981Y-18960D01*
X-103927Y-18774D01*
X-103885Y-18576D01*
X-103855Y-18366D01*
X-103837Y-18143D01*
X-103831Y-17908D01*
X-101831D01*
X-101825Y-18143D01*
D02*
G37*
G36*
X-337213Y-23449D02*
X-337175Y-23886D01*
X-337111Y-24272D01*
X-337022Y-24606D01*
X-336908Y-24889D01*
X-336768Y-25120D01*
X-336603Y-25300D01*
X-336413Y-25429D01*
X-336197Y-25506D01*
X-335956Y-25531D01*
X-341036D01*
X-340794Y-25506D01*
X-340578Y-25429D01*
X-340388Y-25300D01*
X-340223Y-25120D01*
X-340083Y-24889D01*
X-339969Y-24606D01*
X-339880Y-24272D01*
X-339816Y-23886D01*
X-339778Y-23449D01*
X-339766Y-22961D01*
X-337226D01*
X-337213Y-23449D01*
D02*
G37*
G36*
X-126057Y-24488D02*
X-126055Y-24745D01*
X-126006Y-25558D01*
X-125983Y-25709D01*
X-125957Y-25839D01*
X-125926Y-25947D01*
X-125891Y-26034D01*
X-125852Y-26100D01*
X-129010Y-25591D01*
X-128932Y-25522D01*
X-128862Y-25433D01*
X-128800Y-25324D01*
X-128746Y-25194D01*
X-128701Y-25044D01*
X-128663Y-24873D01*
X-128634Y-24682D01*
X-128614Y-24471D01*
X-128597Y-23988D01*
X-126057Y-24488D01*
D02*
G37*
G36*
X-19466Y-30408D02*
X-19492Y-30168D01*
X-19569Y-29953D01*
X-19698Y-29763D01*
X-19879Y-29599D01*
X-20112Y-29460D01*
X-20396Y-29346D01*
X-20731Y-29258D01*
X-21119Y-29195D01*
X-21558Y-29157D01*
X-22049Y-29144D01*
Y-26604D01*
X-21558Y-26591D01*
X-21119Y-26553D01*
X-20731Y-26490D01*
X-20395Y-26402D01*
X-20111Y-26288D01*
X-19879Y-26149D01*
X-19698Y-25985D01*
X-19569Y-25795D01*
X-19491Y-25580D01*
X-19465Y-25340D01*
X-19466Y-30408D01*
D02*
G37*
G36*
X-126166Y-29158D02*
X-126234Y-29232D01*
X-126294Y-29325D01*
X-126348Y-29439D01*
X-126394Y-29573D01*
X-126433Y-29726D01*
X-126466Y-29899D01*
X-126491Y-30092D01*
X-126519Y-30538D01*
X-126523Y-30791D01*
X-129063Y-30655D01*
X-129066Y-30401D01*
X-129111Y-29760D01*
X-129137Y-29586D01*
X-129170Y-29432D01*
X-129209Y-29298D01*
X-129254Y-29184D01*
X-129305Y-29090D01*
X-129362Y-29016D01*
X-126166Y-29158D01*
D02*
G37*
G36*
X-180917Y-32569D02*
X-180944Y-32329D01*
X-181023Y-32114D01*
X-181154Y-31925D01*
X-181339Y-31760D01*
X-181576Y-31621D01*
X-181865Y-31508D01*
X-182207Y-31419D01*
X-182602Y-31356D01*
X-183049Y-31318D01*
X-183549Y-31305D01*
Y-28765D01*
X-183050Y-28753D01*
X-182603Y-28715D01*
X-182210Y-28652D01*
X-181869Y-28563D01*
X-181580Y-28449D01*
X-181344Y-28310D01*
X-181160Y-28146D01*
X-181029Y-27956D01*
X-180951Y-27741D01*
X-180925Y-27501D01*
X-180917Y-32569D01*
D02*
G37*
G36*
X-106847Y-33377D02*
X-106873Y-33137D01*
X-106950Y-32922D01*
X-107079Y-32732D01*
X-107260Y-32568D01*
X-107493Y-32429D01*
X-107777Y-32315D01*
X-108112Y-32227D01*
X-108500Y-32163D01*
X-108939Y-32125D01*
X-109430Y-32113D01*
Y-29573D01*
X-108939Y-29560D01*
X-108500Y-29522D01*
X-108112Y-29459D01*
X-107777Y-29371D01*
X-107493Y-29257D01*
X-107260Y-29118D01*
X-107079Y-28953D01*
X-106950Y-28764D01*
X-106873Y-28549D01*
X-106847Y-28309D01*
Y-33377D01*
D02*
G37*
G36*
X-84882Y-29188D02*
X-84813Y-29365D01*
X-84698Y-29521D01*
X-84534Y-29657D01*
X-84324Y-29772D01*
X-84065Y-29866D01*
X-83760Y-29939D01*
X-83407Y-29991D01*
X-83007Y-30022D01*
X-82559Y-30033D01*
Y-32573D01*
X-83013Y-32583D01*
X-83420Y-32614D01*
X-83779Y-32666D01*
X-84090Y-32739D01*
X-84354Y-32832D01*
X-84571Y-32946D01*
X-84740Y-33081D01*
X-84861Y-33237D01*
X-84935Y-33413D01*
X-84962Y-33610D01*
X-84903Y-28989D01*
X-84882Y-29188D01*
D02*
G37*
G36*
X-207300Y-32497D02*
X-207541Y-32508D01*
X-207757Y-32574D01*
X-207947Y-32695D01*
X-208112Y-32870D01*
X-208252Y-33100D01*
X-208366Y-33384D01*
X-208455Y-33723D01*
X-208519Y-34117D01*
X-208557Y-34564D01*
X-208570Y-35067D01*
X-211110D01*
X-211122Y-34533D01*
X-211160Y-34054D01*
X-211222Y-33629D01*
X-211310Y-33259D01*
X-211423Y-32943D01*
X-211561Y-32682D01*
X-211724Y-32476D01*
X-211912Y-32324D01*
X-212125Y-32227D01*
X-212363Y-32184D01*
X-207300Y-32497D01*
D02*
G37*
G36*
X20831Y-39190D02*
X20420Y-39578D01*
X19745Y-40323D01*
X19480Y-40679D01*
X19264Y-41026D01*
X19097Y-41362D01*
X18979Y-41688D01*
X18909Y-42004D01*
X18888Y-42309D01*
X18915Y-42604D01*
X17866Y-36744D01*
X17941Y-36999D01*
X18062Y-37180D01*
X18228Y-37284D01*
X18440Y-37314D01*
X18698Y-37268D01*
X19001Y-37148D01*
X19350Y-36951D01*
X19744Y-36680D01*
X20185Y-36334D01*
X20670Y-35912D01*
X20831Y-39190D01*
D02*
G37*
G36*
X-367714Y-38548D02*
X-367641Y-38738D01*
X-367520Y-38907D01*
X-367351Y-39053D01*
X-367133Y-39176D01*
X-366866Y-39277D01*
X-366551Y-39355D01*
X-366188Y-39411D01*
X-365776Y-39445D01*
X-365316Y-39456D01*
Y-41996D01*
X-365776Y-42008D01*
X-366188Y-42041D01*
X-366551Y-42097D01*
X-366866Y-42176D01*
X-367133Y-42277D01*
X-367351Y-42400D01*
X-367520Y-42546D01*
X-367641Y-42714D01*
X-367714Y-42905D01*
X-367738Y-43118D01*
Y-38334D01*
X-367714Y-38548D01*
D02*
G37*
G36*
X11970Y-44116D02*
X11944Y-43874D01*
X11867Y-43658D01*
X11738Y-43468D01*
X11558Y-43303D01*
X11327Y-43163D01*
X11044Y-43049D01*
X10710Y-42960D01*
X10325Y-42896D01*
X9888Y-42858D01*
X9399Y-42846D01*
Y-40306D01*
X9888Y-40293D01*
X10325Y-40255D01*
X10710Y-40191D01*
X11044Y-40103D01*
X11327Y-39988D01*
X11558Y-39848D01*
X11738Y-39683D01*
X11867Y-39493D01*
X11944Y-39277D01*
X11970Y-39036D01*
Y-44116D01*
D02*
G37*
G36*
X-350962Y-45044D02*
X-350985Y-44842D01*
X-351057Y-44662D01*
X-351176Y-44503D01*
X-351343Y-44366D01*
X-351557Y-44249D01*
X-351819Y-44154D01*
X-352129Y-44079D01*
X-352486Y-44026D01*
X-352892Y-43995D01*
X-353344Y-43984D01*
Y-41444D01*
X-352892Y-41433D01*
X-352486Y-41402D01*
X-352129Y-41349D01*
X-351819Y-41274D01*
X-351557Y-41179D01*
X-351343Y-41062D01*
X-351176Y-40925D01*
X-351057Y-40766D01*
X-350985Y-40586D01*
X-350962Y-40384D01*
Y-45044D01*
D02*
G37*
G36*
X-106859Y-46911D02*
X-106880Y-46670D01*
X-106953Y-46454D01*
X-107079Y-46264D01*
X-107257Y-46099D01*
X-107488Y-45959D01*
X-107772Y-45845D01*
X-108107Y-45756D01*
X-108496Y-45692D01*
X-108936Y-45654D01*
X-109430Y-45641D01*
Y-43101D01*
X-108926Y-43089D01*
X-108474Y-43051D01*
X-108075Y-42988D01*
X-107729Y-42899D01*
X-107435Y-42785D01*
X-107193Y-42646D01*
X-107004Y-42482D01*
X-106868Y-42292D01*
X-106783Y-42077D01*
X-106752Y-41837D01*
X-106859Y-46911D01*
D02*
G37*
G36*
X-138970Y-45700D02*
X-138921Y-46341D01*
X-138891Y-46514D01*
X-138855Y-46668D01*
X-138812Y-46802D01*
X-138763Y-46917D01*
X-138707Y-47011D01*
X-138644Y-47086D01*
X-141843D01*
X-141781Y-47011D01*
X-141725Y-46917D01*
X-141675Y-46802D01*
X-141632Y-46668D01*
X-141596Y-46514D01*
X-141566Y-46341D01*
X-141527Y-45933D01*
X-141517Y-45700D01*
X-141514Y-45447D01*
X-138974D01*
X-138970Y-45700D01*
D02*
G37*
G36*
X-84889Y-42555D02*
X-84812Y-42770D01*
X-84683Y-42959D01*
X-84502Y-43124D01*
X-84270Y-43263D01*
X-83985Y-43376D01*
X-83650Y-43465D01*
X-83262Y-43528D01*
X-82823Y-43566D01*
X-82332Y-43579D01*
Y-46119D01*
X-82823Y-46131D01*
X-83262Y-46169D01*
X-83650Y-46232D01*
X-83985Y-46321D01*
X-84270Y-46435D01*
X-84502Y-46574D01*
X-84683Y-46738D01*
X-84812Y-46928D01*
X-84889Y-47143D01*
X-84915Y-47383D01*
Y-42315D01*
X-84889Y-42555D01*
D02*
G37*
G36*
X-138569Y-50293D02*
X-138582Y-50368D01*
X-138571Y-50457D01*
X-138536Y-50559D01*
X-138477Y-50675D01*
X-138395Y-50804D01*
X-138289Y-50946D01*
X-138158Y-51102D01*
X-137827Y-51455D01*
X-140010Y-52864D01*
X-141511Y-50619D01*
X-138532Y-50231D01*
X-138569Y-50293D01*
D02*
G37*
G36*
X3703Y-58075D02*
X4543Y-58636D01*
X5534Y-58833D01*
X10220D01*
X10342Y-58888D01*
X10591Y-58894D01*
X10891Y-60401D01*
X11843Y-61827D01*
X13059Y-62639D01*
X13172Y-63315D01*
Y-63356D01*
X13059Y-64033D01*
X11843Y-64845D01*
X10891Y-66271D01*
X10556Y-67953D01*
Y-72903D01*
X10891Y-74585D01*
X11843Y-76011D01*
X13059Y-76823D01*
X13172Y-77499D01*
Y-77540D01*
X13059Y-78217D01*
X11843Y-79029D01*
X10891Y-80455D01*
X10556Y-82137D01*
Y-87087D01*
X10578Y-87196D01*
X10203Y-87628D01*
X9653Y-88196D01*
X9635Y-88241D01*
X9591Y-88263D01*
X9557Y-88368D01*
X5991Y-91935D01*
X-6264D01*
X-6942Y-90665D01*
X-6454Y-89934D01*
X-6141Y-88359D01*
Y-81859D01*
X-6454Y-80284D01*
X-7346Y-78949D01*
X-8176Y-78395D01*
X-8297Y-78304D01*
X-8321Y-78225D01*
X-8371Y-77689D01*
X-8300Y-77009D01*
X-8268Y-76922D01*
X-7097Y-76140D01*
X-6205Y-74805D01*
X-5892Y-73230D01*
Y-66730D01*
X-6205Y-65155D01*
X-7097Y-63820D01*
X-7873Y-63302D01*
Y-60785D01*
X-7971Y-60289D01*
Y-60032D01*
X-8070Y-59795D01*
X-8168Y-59299D01*
X-8449Y-58878D01*
X-8548Y-58641D01*
X-8730Y-58459D01*
X-9010Y-58039D01*
X-9431Y-57758D01*
X-9613Y-57576D01*
X-9850Y-57477D01*
X-10271Y-57196D01*
X-10767Y-57098D01*
X-11004Y-56999D01*
X-11261D01*
X-11757Y-56901D01*
X-12253Y-56999D01*
X-12510D01*
X-12748Y-57098D01*
X-13244Y-57196D01*
X-13664Y-57477D01*
X-13902Y-57576D01*
X-14084Y-57758D01*
X-14250Y-57868D01*
X-14645Y-57898D01*
X-14856Y-57900D01*
X-14985Y-57955D01*
X-17758D01*
X-23428Y-52285D01*
X-22942Y-51111D01*
X-21402D01*
X-19650Y-52863D01*
X-19387Y-53039D01*
X-18642Y-53784D01*
X-17251Y-54360D01*
X-15745D01*
X-14353Y-53784D01*
X-13288Y-52719D01*
X-12712Y-51327D01*
Y-49821D01*
X-13288Y-48429D01*
X-14353Y-47364D01*
X-15340Y-46956D01*
X-15476Y-46734D01*
X-14763Y-45464D01*
X-8908D01*
X3703Y-58075D01*
D02*
G37*
G36*
X-82594Y-54313D02*
X-83171Y-54908D01*
X-84095Y-55974D01*
X-84442Y-56444D01*
X-84711Y-56872D01*
X-84904Y-57259D01*
X-85019Y-57604D01*
X-85057Y-57907D01*
X-85019Y-58168D01*
X-84903Y-58388D01*
X-88014Y-54376D01*
X-87841Y-54538D01*
X-87629Y-54626D01*
X-87378Y-54640D01*
X-87088Y-54580D01*
X-86759Y-54445D01*
X-86392Y-54237D01*
X-85986Y-53955D01*
X-85542Y-53598D01*
X-84537Y-52664D01*
X-82594Y-54313D01*
D02*
G37*
G36*
X-180921Y-57948D02*
X-180947Y-57708D01*
X-181026Y-57493D01*
X-181157Y-57303D01*
X-181341Y-57139D01*
X-181578Y-57000D01*
X-181867Y-56886D01*
X-182208Y-56798D01*
X-182603Y-56735D01*
X-183049Y-56697D01*
X-183549Y-56684D01*
Y-54144D01*
X-183049Y-54131D01*
X-182603Y-54093D01*
X-182208Y-54030D01*
X-181867Y-53942D01*
X-181578Y-53828D01*
X-181341Y-53689D01*
X-181157Y-53525D01*
X-181026Y-53335D01*
X-180947Y-53120D01*
X-180921Y-52880D01*
Y-57948D01*
D02*
G37*
G36*
X-350917Y-57969D02*
X-350943Y-57729D01*
X-351023Y-57514D01*
X-351155Y-57325D01*
X-351339Y-57160D01*
X-351576Y-57021D01*
X-351865Y-56908D01*
X-352207Y-56819D01*
X-352602Y-56756D01*
X-353049Y-56718D01*
X-353549Y-56705D01*
Y-54165D01*
X-353050Y-54153D01*
X-352603Y-54115D01*
X-352210Y-54052D01*
X-351869Y-53963D01*
X-351580Y-53849D01*
X-351344Y-53710D01*
X-351161Y-53546D01*
X-351030Y-53356D01*
X-350951Y-53141D01*
X-350925Y-52901D01*
X-350917Y-57969D01*
D02*
G37*
G36*
X12961Y-58778D02*
X12935Y-58538D01*
X12857Y-58323D01*
X12728Y-58133D01*
X12547Y-57969D01*
X12315Y-57830D01*
X12031Y-57716D01*
X11695Y-57627D01*
X11308Y-57564D01*
X10869Y-57526D01*
X10378Y-57514D01*
Y-54974D01*
X10869Y-54961D01*
X11308Y-54923D01*
X11695Y-54860D01*
X12031Y-54771D01*
X12315Y-54658D01*
X12547Y-54519D01*
X12728Y-54354D01*
X12857Y-54165D01*
X12935Y-53950D01*
X12961Y-53710D01*
Y-58778D01*
D02*
G37*
G36*
X-367713Y-55073D02*
X-367635Y-55289D01*
X-367507Y-55480D01*
X-367327Y-55645D01*
X-367096Y-55784D01*
X-366813Y-55899D01*
X-366479Y-55988D01*
X-366093Y-56051D01*
X-365656Y-56089D01*
X-365168Y-56102D01*
Y-58642D01*
X-365656Y-58655D01*
X-366093Y-58693D01*
X-366479Y-58756D01*
X-366813Y-58845D01*
X-367096Y-58959D01*
X-367327Y-59099D01*
X-367507Y-59264D01*
X-367635Y-59455D01*
X-367713Y-59671D01*
X-367738Y-59912D01*
Y-54832D01*
X-367713Y-55073D01*
D02*
G37*
G36*
X-106847Y-61389D02*
X-106873Y-61148D01*
X-106950Y-60933D01*
X-107079Y-60744D01*
X-107260Y-60580D01*
X-107493Y-60440D01*
X-107777Y-60327D01*
X-108112Y-60238D01*
X-108500Y-60175D01*
X-108939Y-60137D01*
X-109430Y-60124D01*
Y-57584D01*
X-108939Y-57572D01*
X-108500Y-57534D01*
X-108112Y-57471D01*
X-107777Y-57382D01*
X-107493Y-57268D01*
X-107260Y-57129D01*
X-107079Y-56965D01*
X-106950Y-56775D01*
X-106873Y-56561D01*
X-106847Y-56320D01*
Y-61389D01*
D02*
G37*
G36*
X-13549Y-62204D02*
X-13620Y-62130D01*
X-13712Y-62064D01*
X-13824Y-62005D01*
X-13956Y-61954D01*
X-14108Y-61912D01*
X-14280Y-61877D01*
X-14472Y-61849D01*
X-14916Y-61818D01*
X-15168Y-61814D01*
X-14842Y-59274D01*
X-14587Y-59272D01*
X-13772Y-59211D01*
X-13619Y-59184D01*
X-13486Y-59151D01*
X-13374Y-59113D01*
X-13282Y-59071D01*
X-13211Y-59023D01*
X-13549Y-62204D01*
D02*
G37*
G36*
X19270Y-60647D02*
X19055Y-60727D01*
X18866Y-60860D01*
X18701Y-61048D01*
X18562Y-61288D01*
X18449Y-61582D01*
X18360Y-61929D01*
X18297Y-62330D01*
X18259Y-62785D01*
X18246Y-63292D01*
X15706D01*
X15694Y-62785D01*
X15656Y-62330D01*
X15593Y-61929D01*
X15504Y-61582D01*
X15390Y-61288D01*
X15251Y-61048D01*
X15087Y-60860D01*
X14897Y-60727D01*
X14683Y-60647D01*
X14442Y-60620D01*
X19511D01*
X19270Y-60647D01*
D02*
G37*
G36*
X18259Y-63887D02*
X18297Y-64341D01*
X18360Y-64742D01*
X18449Y-65089D01*
X18562Y-65383D01*
X18701Y-65624D01*
X18866Y-65811D01*
X19055Y-65944D01*
X19270Y-66025D01*
X19511Y-66051D01*
X14442D01*
X14683Y-66025D01*
X14897Y-65944D01*
X15087Y-65811D01*
X15251Y-65624D01*
X15390Y-65383D01*
X15504Y-65089D01*
X15593Y-64742D01*
X15656Y-64341D01*
X15694Y-63887D01*
X15706Y-63379D01*
X18246D01*
X18259Y-63887D01*
D02*
G37*
G36*
X44090Y-37289D02*
X44090Y-57643D01*
X38395Y-63338D01*
X27959D01*
X26967Y-63535D01*
X26127Y-64096D01*
X24995Y-65228D01*
X24434Y-66069D01*
X24375Y-66362D01*
X23080D01*
X23062Y-66271D01*
X22109Y-64845D01*
X20894Y-64033D01*
X20780Y-63356D01*
Y-63315D01*
X20894Y-62639D01*
X22109Y-61827D01*
X23062Y-60401D01*
X23397Y-58719D01*
Y-53769D01*
X23062Y-52087D01*
X22109Y-50661D01*
X20684Y-49708D01*
X19722Y-49517D01*
X19454Y-48168D01*
X20102Y-47736D01*
X20994Y-46400D01*
X21307Y-44826D01*
Y-40645D01*
X21402Y-40541D01*
X21774Y-40190D01*
X21797Y-40138D01*
X21849Y-40114D01*
X21883Y-40018D01*
X27328Y-35100D01*
X27452Y-35061D01*
X27452Y-35060D01*
X27452Y-35060D01*
X27618Y-34921D01*
X41722D01*
X44090Y-37289D01*
D02*
G37*
G36*
X-32224Y-64105D02*
X-32438Y-64183D01*
X-32627Y-64313D01*
X-32791Y-64494D01*
X-32929Y-64728D01*
X-33042Y-65013D01*
X-33130Y-65351D01*
X-33193Y-65740D01*
X-33231Y-66181D01*
X-33244Y-66674D01*
X-35784D01*
X-35796Y-66181D01*
X-35834Y-65740D01*
X-35897Y-65351D01*
X-35985Y-65013D01*
X-36098Y-64728D01*
X-36237Y-64494D01*
X-36400Y-64313D01*
X-36589Y-64183D01*
X-36803Y-64105D01*
X-37042Y-64079D01*
X-31985D01*
X-32224Y-64105D01*
D02*
G37*
G36*
X-66704Y-64104D02*
X-66945Y-64122D01*
X-67161Y-64193D01*
X-67351Y-64317D01*
X-67516Y-64494D01*
X-67656Y-64724D01*
X-67770Y-65008D01*
X-67859Y-65345D01*
X-67923Y-65735D01*
X-67961Y-66178D01*
X-67974Y-66674D01*
X-70514Y-66164D01*
X-70512Y-65738D01*
X-70395Y-63988D01*
X-70367Y-63977D01*
X-66704Y-64104D01*
D02*
G37*
G36*
X-82594Y-68319D02*
X-83171Y-68914D01*
X-84095Y-69980D01*
X-84442Y-70450D01*
X-84711Y-70878D01*
X-84904Y-71265D01*
X-85019Y-71609D01*
X-85057Y-71913D01*
X-85019Y-72174D01*
X-84903Y-72394D01*
X-88014Y-68382D01*
X-87841Y-68544D01*
X-87629Y-68632D01*
X-87378Y-68646D01*
X-87088Y-68585D01*
X-86759Y-68451D01*
X-86392Y-68243D01*
X-85986Y-67961D01*
X-85542Y-67604D01*
X-84537Y-66670D01*
X-82594Y-68319D01*
D02*
G37*
G36*
X-59641Y-69589D02*
X-59670Y-69389D01*
X-59747Y-69211D01*
X-59873Y-69053D01*
X-60047Y-68917D01*
X-60269Y-68801D01*
X-60540Y-68707D01*
X-60859Y-68633D01*
X-61226Y-68581D01*
X-61642Y-68549D01*
X-62106Y-68539D01*
Y-65999D01*
X-61653Y-65988D01*
X-61248Y-65956D01*
X-60891Y-65903D01*
X-60583Y-65829D01*
X-60322Y-65733D01*
X-60110Y-65616D01*
X-59946Y-65478D01*
X-59830Y-65319D01*
X-59763Y-65139D01*
X-59743Y-64937D01*
X-59641Y-69589D01*
D02*
G37*
G36*
X-180917Y-70669D02*
X-180944Y-70429D01*
X-181023Y-70214D01*
X-181154Y-70025D01*
X-181339Y-69860D01*
X-181576Y-69721D01*
X-181865Y-69608D01*
X-182207Y-69519D01*
X-182602Y-69456D01*
X-183049Y-69418D01*
X-183549Y-69405D01*
Y-66865D01*
X-183050Y-66853D01*
X-182603Y-66815D01*
X-182210Y-66752D01*
X-181869Y-66663D01*
X-181580Y-66549D01*
X-181344Y-66410D01*
X-181160Y-66246D01*
X-181029Y-66056D01*
X-180951Y-65841D01*
X-180925Y-65601D01*
X-180917Y-70669D01*
D02*
G37*
G36*
X-350917D02*
X-350943Y-70429D01*
X-351023Y-70214D01*
X-351155Y-70025D01*
X-351339Y-69860D01*
X-351576Y-69721D01*
X-351865Y-69608D01*
X-352207Y-69519D01*
X-352602Y-69456D01*
X-353049Y-69418D01*
X-353549Y-69405D01*
Y-66865D01*
X-353050Y-66853D01*
X-352603Y-66815D01*
X-352210Y-66752D01*
X-351869Y-66663D01*
X-351580Y-66549D01*
X-351344Y-66410D01*
X-351161Y-66246D01*
X-351030Y-66056D01*
X-350951Y-65841D01*
X-350925Y-65601D01*
X-350917Y-70669D01*
D02*
G37*
G36*
X-42430Y-69749D02*
X-42447Y-69798D01*
X-42463Y-69873D01*
X-42476Y-69974D01*
X-42497Y-70258D01*
X-42514Y-71143D01*
X-44514D01*
X-44515Y-70881D01*
X-44580Y-69798D01*
X-44597Y-69749D01*
X-44617Y-69728D01*
X-42410D01*
X-42430Y-69749D01*
D02*
G37*
G36*
X-367713Y-71719D02*
X-367635Y-71935D01*
X-367507Y-72125D01*
X-367327Y-72290D01*
X-367096Y-72430D01*
X-366813Y-72544D01*
X-366479Y-72633D01*
X-366093Y-72697D01*
X-365656Y-72735D01*
X-365168Y-72747D01*
Y-75287D01*
X-365656Y-75300D01*
X-366093Y-75338D01*
X-366479Y-75402D01*
X-366813Y-75491D01*
X-367096Y-75605D01*
X-367327Y-75745D01*
X-367507Y-75910D01*
X-367635Y-76100D01*
X-367713Y-76316D01*
X-367738Y-76557D01*
Y-71477D01*
X-367713Y-71719D01*
D02*
G37*
G36*
X-106294Y-76773D02*
X-106439Y-76592D01*
X-106619Y-76431D01*
X-106834Y-76288D01*
X-107085Y-76164D01*
X-107372Y-76060D01*
X-107693Y-75974D01*
X-108050Y-75908D01*
X-108442Y-75860D01*
X-108870Y-75831D01*
X-109333Y-75822D01*
X-109430Y-73282D01*
X-108914Y-73269D01*
X-108456Y-73231D01*
X-108055Y-73168D01*
X-107712Y-73079D01*
X-107426Y-72965D01*
X-107198Y-72825D01*
X-107027Y-72660D01*
X-106914Y-72469D01*
X-106858Y-72253D01*
X-106859Y-72012D01*
X-106294Y-76773D01*
D02*
G37*
G36*
X-63853Y-76007D02*
X-63785Y-76798D01*
X-63724Y-77140D01*
X-63647Y-77448D01*
X-63553Y-77720D01*
X-63441Y-77958D01*
X-63312Y-78160D01*
X-63166Y-78328D01*
X-63003Y-78460D01*
X-67261D01*
X-67098Y-78328D01*
X-66952Y-78160D01*
X-66823Y-77958D01*
X-66711Y-77720D01*
X-66617Y-77448D01*
X-66539Y-77140D01*
X-66479Y-76798D01*
X-66436Y-76420D01*
X-66402Y-75560D01*
X-63862D01*
X-63853Y-76007D01*
D02*
G37*
G36*
X-100537Y-77263D02*
X-100752Y-77343D01*
X-100942Y-77477D01*
X-101106Y-77664D01*
X-101245Y-77905D01*
X-101359Y-78198D01*
X-101447Y-78546D01*
X-101510Y-78947D01*
X-101548Y-79401D01*
X-101561Y-79909D01*
X-104101D01*
X-104114Y-79401D01*
X-104152Y-78947D01*
X-104215Y-78546D01*
X-104303Y-78198D01*
X-104417Y-77905D01*
X-104556Y-77664D01*
X-104720Y-77477D01*
X-104910Y-77343D01*
X-105125Y-77263D01*
X-105365Y-77236D01*
X-100297D01*
X-100537Y-77263D01*
D02*
G37*
G36*
X-230410Y-78551D02*
X-230361Y-79191D01*
X-230331Y-79365D01*
X-230295Y-79519D01*
X-230252Y-79653D01*
X-230203Y-79767D01*
X-230147Y-79862D01*
X-230084Y-79936D01*
X-233283D01*
X-233221Y-79862D01*
X-233165Y-79767D01*
X-233115Y-79653D01*
X-233072Y-79519D01*
X-233036Y-79365D01*
X-233006Y-79191D01*
X-232967Y-78784D01*
X-232957Y-78551D01*
X-232954Y-78298D01*
X-230414D01*
X-230410Y-78551D01*
D02*
G37*
G36*
X-36071Y-77157D02*
X-35320Y-77797D01*
X-34994Y-78027D01*
X-34701Y-78195D01*
X-34441Y-78303D01*
X-34214Y-78350D01*
X-34020Y-78336D01*
X-33859Y-78262D01*
X-33732Y-78126D01*
X-35977Y-81477D01*
X-35897Y-81294D01*
X-35879Y-81077D01*
X-35924Y-80824D01*
X-36031Y-80537D01*
X-36201Y-80215D01*
X-36433Y-79858D01*
X-36728Y-79467D01*
X-37504Y-78580D01*
X-37986Y-78085D01*
X-36497Y-76745D01*
X-36071Y-77157D01*
D02*
G37*
G36*
X-350917Y-83369D02*
X-350943Y-83129D01*
X-351023Y-82914D01*
X-351155Y-82725D01*
X-351339Y-82560D01*
X-351576Y-82421D01*
X-351865Y-82308D01*
X-352207Y-82219D01*
X-352602Y-82156D01*
X-353049Y-82118D01*
X-353549Y-82105D01*
Y-79565D01*
X-353050Y-79553D01*
X-352603Y-79515D01*
X-352210Y-79452D01*
X-351869Y-79363D01*
X-351580Y-79249D01*
X-351344Y-79110D01*
X-351161Y-78946D01*
X-351030Y-78756D01*
X-350951Y-78541D01*
X-350925Y-78301D01*
X-350917Y-83369D01*
D02*
G37*
G36*
X-31161Y-80407D02*
X-31214Y-80589D01*
X-31211Y-80799D01*
X-31152Y-81039D01*
X-31035Y-81307D01*
X-30863Y-81605D01*
X-30633Y-81931D01*
X-30347Y-82286D01*
X-29606Y-83083D01*
X-31020Y-84497D01*
X-31433Y-84098D01*
X-32172Y-83469D01*
X-32498Y-83240D01*
X-32796Y-83067D01*
X-33064Y-82951D01*
X-33303Y-82892D01*
X-33514Y-82889D01*
X-33696Y-82942D01*
X-33849Y-83052D01*
X-31051Y-80254D01*
X-31161Y-80407D01*
D02*
G37*
G36*
X-62810Y-79685D02*
X-62878Y-79917D01*
X-62875Y-80185D01*
X-62800Y-80489D01*
X-62654Y-80830D01*
X-62435Y-81207D01*
X-62145Y-81621D01*
X-61783Y-82072D01*
X-60842Y-83083D01*
X-62639Y-84879D01*
X-63162Y-84373D01*
X-64100Y-83576D01*
X-64514Y-83286D01*
X-64891Y-83067D01*
X-65232Y-82921D01*
X-65537Y-82846D01*
X-65805Y-82843D01*
X-66036Y-82912D01*
X-66231Y-83052D01*
X-62669Y-79490D01*
X-62810Y-79685D01*
D02*
G37*
G36*
X-59349Y-85894D02*
X-59311Y-86326D01*
X-59248Y-86707D01*
X-59159Y-87037D01*
X-59044Y-87317D01*
X-58905Y-87545D01*
X-58740Y-87723D01*
X-58549Y-87850D01*
X-58333Y-87926D01*
X-58092Y-87952D01*
X-63172D01*
X-62931Y-87926D01*
X-62715Y-87850D01*
X-62524Y-87723D01*
X-62359Y-87545D01*
X-62220Y-87317D01*
X-62105Y-87037D01*
X-62016Y-86707D01*
X-61953Y-86326D01*
X-61915Y-85894D01*
X-61902Y-85412D01*
X-59362D01*
X-59349Y-85894D01*
D02*
G37*
G36*
X16060Y-89090D02*
X15886Y-88928D01*
X15674Y-88840D01*
X15423Y-88826D01*
X15133Y-88886D01*
X14805Y-89021D01*
X14438Y-89229D01*
X14032Y-89511D01*
X13587Y-89868D01*
X12582Y-90802D01*
X10639Y-89153D01*
X11217Y-88558D01*
X12141Y-87492D01*
X12487Y-87022D01*
X12757Y-86594D01*
X12949Y-86207D01*
X13064Y-85863D01*
X13103Y-85559D01*
X13064Y-85298D01*
X12948Y-85078D01*
X16060Y-89090D01*
D02*
G37*
G36*
X22688Y-90678D02*
X23048Y-90979D01*
X23980Y-92374D01*
X25660Y-93497D01*
X26464Y-93656D01*
X26534Y-93825D01*
X26337Y-94816D01*
Y-102766D01*
X26534Y-103757D01*
X27095Y-104597D01*
X28120Y-105622D01*
X28960Y-106183D01*
X29952Y-106381D01*
X38496D01*
X39160Y-107044D01*
Y-134467D01*
X38695Y-134932D01*
X29447D01*
X28830Y-134008D01*
Y-132502D01*
X28253Y-131111D01*
X27188Y-130046D01*
X25797Y-129469D01*
X24683D01*
X24627Y-129433D01*
X24528Y-129358D01*
X24419Y-129266D01*
X24276Y-129129D01*
X24138Y-129077D01*
X18306Y-123245D01*
Y-114994D01*
X18130Y-114108D01*
X17628Y-113357D01*
X9051Y-104780D01*
X8300Y-104278D01*
X7414Y-104102D01*
X-7789D01*
X-10146Y-101745D01*
X-10199Y-101608D01*
X-10335Y-101465D01*
X-10428Y-101356D01*
X-10502Y-101256D01*
X-10539Y-101200D01*
Y-100087D01*
X-11115Y-98695D01*
X-11426Y-98384D01*
X-10900Y-97114D01*
X7064D01*
X8055Y-96917D01*
X8895Y-96356D01*
X13396Y-91854D01*
X13518Y-91809D01*
X14060Y-91305D01*
X14951Y-91482D01*
X19001D01*
X20684Y-91147D01*
X21539Y-90576D01*
X22688Y-90678D01*
D02*
G37*
G36*
X-367713Y-88364D02*
X-367635Y-88580D01*
X-367507Y-88771D01*
X-367327Y-88936D01*
X-367096Y-89075D01*
X-366813Y-89190D01*
X-366479Y-89279D01*
X-366093Y-89342D01*
X-365656Y-89380D01*
X-365168Y-89393D01*
Y-91933D01*
X-365656Y-91946D01*
X-366093Y-91984D01*
X-366479Y-92047D01*
X-366813Y-92136D01*
X-367096Y-92250D01*
X-367327Y-92390D01*
X-367507Y-92555D01*
X-367635Y-92746D01*
X-367713Y-92962D01*
X-367738Y-93203D01*
Y-88123D01*
X-367713Y-88364D01*
D02*
G37*
G36*
X-350917Y-96069D02*
X-350943Y-95829D01*
X-351023Y-95614D01*
X-351155Y-95425D01*
X-351339Y-95260D01*
X-351576Y-95121D01*
X-351865Y-95008D01*
X-352207Y-94919D01*
X-352602Y-94856D01*
X-353049Y-94818D01*
X-353549Y-94805D01*
Y-92265D01*
X-353050Y-92253D01*
X-352603Y-92215D01*
X-352210Y-92152D01*
X-351869Y-92063D01*
X-351580Y-91949D01*
X-351344Y-91810D01*
X-351161Y-91646D01*
X-351030Y-91456D01*
X-350951Y-91242D01*
X-350925Y-91001D01*
X-350917Y-96069D01*
D02*
G37*
G36*
X-202216Y-99887D02*
X-202167Y-100527D01*
X-202137Y-100701D01*
X-202101Y-100855D01*
X-202058Y-100989D01*
X-202009Y-101103D01*
X-201953Y-101198D01*
X-201890Y-101272D01*
X-205089D01*
X-205026Y-101198D01*
X-204970Y-101103D01*
X-204921Y-100989D01*
X-204878Y-100855D01*
X-204842Y-100701D01*
X-204812Y-100527D01*
X-204773Y-100120D01*
X-204763Y-99887D01*
X-204760Y-99634D01*
X-202220D01*
X-202216Y-99887D01*
D02*
G37*
G36*
X-12033Y-101031D02*
X-12009Y-101199D01*
X-11967Y-101368D01*
X-11909Y-101536D01*
X-11833Y-101705D01*
X-11740Y-101875D01*
X-11630Y-102044D01*
X-11502Y-102214D01*
X-11357Y-102385D01*
X-11195Y-102555D01*
X-12609Y-103969D01*
X-12780Y-103807D01*
X-12950Y-103663D01*
X-13120Y-103535D01*
X-13290Y-103425D01*
X-13459Y-103332D01*
X-13628Y-103256D01*
X-13797Y-103197D01*
X-13966Y-103156D01*
X-14134Y-103132D01*
X-14302Y-103125D01*
X-12040Y-100863D01*
X-12033Y-101031D01*
D02*
G37*
G36*
X-30248Y-103952D02*
X-30644Y-104362D01*
X-31267Y-105097D01*
X-31493Y-105422D01*
X-31662Y-105719D01*
X-31776Y-105988D01*
X-31832Y-106229D01*
Y-106441D01*
X-31776Y-106625D01*
X-31662Y-106780D01*
X-34491Y-103952D01*
X-34335Y-104065D01*
X-34151Y-104121D01*
X-33939D01*
X-33699Y-104065D01*
X-33430Y-103952D01*
X-33133Y-103782D01*
X-32808Y-103556D01*
X-32454Y-103273D01*
X-31662Y-102537D01*
X-30248Y-103952D01*
D02*
G37*
G36*
X-156040Y-103941D02*
X-155962Y-104156D01*
X-155831Y-104346D01*
X-155647Y-104510D01*
X-155411Y-104649D01*
X-155122Y-104763D01*
X-154781Y-104852D01*
X-154388Y-104915D01*
X-153941Y-104953D01*
X-153443Y-104965D01*
Y-107505D01*
X-153942Y-107518D01*
X-154389Y-107556D01*
X-154784Y-107619D01*
X-155126Y-107708D01*
X-155415Y-107821D01*
X-155652Y-107960D01*
X-155837Y-108125D01*
X-155968Y-108314D01*
X-156048Y-108529D01*
X-156074Y-108769D01*
X-156066Y-103701D01*
X-156040Y-103941D01*
D02*
G37*
G36*
X-350917Y-108769D02*
X-350943Y-108529D01*
X-351023Y-108314D01*
X-351155Y-108125D01*
X-351339Y-107960D01*
X-351576Y-107821D01*
X-351865Y-107708D01*
X-352207Y-107619D01*
X-352602Y-107556D01*
X-353049Y-107518D01*
X-353549Y-107505D01*
Y-104965D01*
X-353050Y-104953D01*
X-352603Y-104915D01*
X-352210Y-104852D01*
X-351869Y-104763D01*
X-351580Y-104649D01*
X-351344Y-104510D01*
X-351161Y-104346D01*
X-351030Y-104156D01*
X-350951Y-103941D01*
X-350925Y-103701D01*
X-350917Y-108769D01*
D02*
G37*
G36*
X-367713Y-105010D02*
X-367635Y-105226D01*
X-367507Y-105416D01*
X-367327Y-105581D01*
X-367096Y-105721D01*
X-366813Y-105835D01*
X-366479Y-105924D01*
X-366093Y-105988D01*
X-365656Y-106026D01*
X-365168Y-106038D01*
Y-108578D01*
X-365656Y-108591D01*
X-366093Y-108629D01*
X-366479Y-108693D01*
X-366813Y-108782D01*
X-367096Y-108896D01*
X-367327Y-109036D01*
X-367507Y-109201D01*
X-367635Y-109391D01*
X-367713Y-109607D01*
X-367738Y-109848D01*
Y-104768D01*
X-367713Y-105010D01*
D02*
G37*
G36*
X-101548Y-108805D02*
X-101510Y-109259D01*
X-101447Y-109660D01*
X-101359Y-110007D01*
X-101245Y-110301D01*
X-101106Y-110542D01*
X-100942Y-110729D01*
X-100752Y-110863D01*
X-100537Y-110943D01*
X-100297Y-110969D01*
X-105365D01*
X-105125Y-110943D01*
X-104910Y-110863D01*
X-104720Y-110729D01*
X-104556Y-110542D01*
X-104417Y-110301D01*
X-104303Y-110007D01*
X-104215Y-109660D01*
X-104152Y-109259D01*
X-104114Y-108805D01*
X-104101Y-108297D01*
X-101561D01*
X-101548Y-108805D01*
D02*
G37*
G36*
X-11303Y-117973D02*
X-11485Y-118157D01*
X-12013Y-118749D01*
X-10938Y-119824D01*
X-11136Y-119686D01*
X-11376Y-119627D01*
X-11659Y-119645D01*
X-11985Y-119741D01*
X-12353Y-119915D01*
X-12764Y-120167D01*
X-13217Y-120496D01*
X-13713Y-120904D01*
X-14833Y-121953D01*
X-15272Y-121514D01*
X-17387Y-120915D01*
X-17212Y-120734D01*
X-16930Y-120399D01*
X-16822Y-120246D01*
X-16737Y-120103D01*
X-16674Y-119969D01*
X-16633Y-119844D01*
X-16615Y-119729D01*
X-16620Y-119624D01*
X-16647Y-119528D01*
X-16201Y-119716D01*
X-16065Y-119576D01*
X-15172Y-118541D01*
X-14842Y-118088D01*
X-14591Y-117677D01*
X-14417Y-117309D01*
X-14320Y-116983D01*
X-14302Y-116700D01*
X-14362Y-116460D01*
X-14500Y-116262D01*
X-13424Y-117337D01*
X-13975Y-116432D01*
X-13871Y-116447D01*
X-13759Y-116440D01*
X-13639Y-116413D01*
X-13510Y-116364D01*
X-13372Y-116295D01*
X-13225Y-116204D01*
X-13070Y-116092D01*
X-12906Y-115959D01*
X-12552Y-115631D01*
X-11303Y-117973D01*
D02*
G37*
G36*
X-125753Y-115786D02*
X-125809Y-115881D01*
X-125858Y-115995D01*
X-125901Y-116129D01*
X-125937Y-116283D01*
X-125967Y-116457D01*
X-126006Y-116864D01*
X-126016Y-117097D01*
X-126020Y-117351D01*
X-128560D01*
X-128563Y-117097D01*
X-128612Y-116457D01*
X-128642Y-116283D01*
X-128678Y-116129D01*
X-128721Y-115995D01*
X-128771Y-115881D01*
X-128827Y-115786D01*
X-128889Y-115712D01*
X-125690D01*
X-125753Y-115786D01*
D02*
G37*
G36*
X-22034Y-105744D02*
X-21070Y-106708D01*
Y-118900D01*
X-32882Y-130712D01*
X-81448D01*
X-84588Y-133851D01*
X-91797D01*
X-92981Y-132668D01*
Y-111030D01*
X-92110Y-110159D01*
X-84129D01*
X-82958Y-111329D01*
Y-117836D01*
X-82490Y-118305D01*
X-30468D01*
X-29826Y-117707D01*
X-29346D01*
X-29197Y-117122D01*
X-29198Y-116499D01*
X-29198Y-106697D01*
X-28245Y-105744D01*
X-22034Y-105744D01*
D02*
G37*
G36*
X-138707Y-116802D02*
X-138763Y-116897D01*
X-138812Y-117011D01*
X-138855Y-117145D01*
X-138891Y-117299D01*
X-138921Y-117473D01*
X-138960Y-117880D01*
X-138970Y-118113D01*
X-138974Y-118367D01*
X-141514D01*
X-141517Y-118113D01*
X-141566Y-117473D01*
X-141596Y-117299D01*
X-141632Y-117145D01*
X-141675Y-117011D01*
X-141725Y-116897D01*
X-141781Y-116802D01*
X-141843Y-116728D01*
X-138644D01*
X-138707Y-116802D01*
D02*
G37*
G36*
X-3146Y-119783D02*
Y-137143D01*
X-4416Y-137669D01*
X-4963Y-137122D01*
X-6355Y-136545D01*
X-7861D01*
X-7961Y-136587D01*
X-8447Y-136490D01*
X-12497D01*
X-14179Y-136825D01*
X-15605Y-137778D01*
X-16557Y-139204D01*
X-16764Y-140240D01*
X-17105Y-140248D01*
X-17227Y-140303D01*
X-39770D01*
X-40761Y-140500D01*
X-41602Y-141061D01*
X-45345Y-144805D01*
X-45906Y-145645D01*
X-46103Y-146636D01*
Y-150502D01*
X-46265Y-150610D01*
X-46887Y-151540D01*
X-47226Y-152612D01*
X-47264D01*
Y-152612D01*
Y-160612D01*
X-40514D01*
X-40487Y-160613D01*
X-40461Y-160615D01*
X-40435Y-160618D01*
X-40410Y-160623D01*
X-40384Y-160629D01*
X-40359Y-160637D01*
X-40334Y-160645D01*
X-40310Y-160655D01*
X-40287Y-160667D01*
X-40264Y-160679D01*
X-40241Y-160693D01*
X-40220Y-160707D01*
X-40199Y-160723D01*
X-40179Y-160741D01*
X-40160Y-160758D01*
X-40142Y-160777D01*
X-40125Y-160797D01*
X-40117Y-160808D01*
X-40014Y-160911D01*
Y-161111D01*
X-40014Y-161112D01*
Y-192112D01*
X-40014Y-192113D01*
Y-192319D01*
X-40151Y-192456D01*
X-40160Y-192466D01*
X-40170Y-192475D01*
X-40179Y-192484D01*
X-40181Y-192485D01*
X-40199Y-192501D01*
X-40220Y-192517D01*
X-40241Y-192531D01*
X-40264Y-192545D01*
X-40287Y-192558D01*
X-40310Y-192569D01*
X-40334Y-192579D01*
X-40359Y-192588D01*
X-40384Y-192595D01*
X-40406Y-192600D01*
X-40429Y-192612D01*
X-40513D01*
X-40514Y-192612D01*
X-47264D01*
Y-200612D01*
X-47264Y-200613D01*
Y-201307D01*
X-47105Y-201466D01*
X-46383Y-202437D01*
X-46265Y-202614D01*
X-45897Y-202859D01*
X-45887Y-203078D01*
X-45828Y-203201D01*
Y-203817D01*
X-45652Y-204703D01*
X-45150Y-205454D01*
X-40467Y-210137D01*
X-40417Y-210270D01*
X-40319Y-210376D01*
X-40359Y-210577D01*
Y-213077D01*
X-40084Y-214457D01*
X-39303Y-215627D01*
X-38133Y-216408D01*
X-36754Y-216682D01*
X-34254D01*
X-34050Y-216642D01*
X-33965Y-216723D01*
X-33825Y-216779D01*
X-30638Y-219966D01*
Y-231636D01*
X-30718Y-232873D01*
X-49290D01*
Y-248945D01*
X-50370Y-249402D01*
X-92949D01*
X-96073Y-246279D01*
Y-218246D01*
X-94803Y-217861D01*
X-94064Y-218966D01*
X-92638Y-219919D01*
X-90956Y-220254D01*
X-86906D01*
X-85224Y-219919D01*
X-83798Y-218966D01*
X-82845Y-217540D01*
X-82541Y-216012D01*
X-82527Y-216012D01*
X-82276Y-215901D01*
X-81568Y-215760D01*
X-80728Y-215199D01*
X-74490Y-208961D01*
X-73928Y-208120D01*
X-73731Y-207129D01*
Y-200154D01*
X-71066Y-197489D01*
X-69989Y-197703D01*
X-67565D01*
X-67078Y-198876D01*
X-68335Y-200133D01*
X-68896Y-200973D01*
X-69093Y-201964D01*
Y-206626D01*
X-69147Y-206743D01*
X-69168Y-207270D01*
X-70303Y-208028D01*
X-71084Y-209198D01*
X-71359Y-210577D01*
Y-213077D01*
X-71084Y-214457D01*
X-70303Y-215627D01*
X-70723Y-216873D01*
X-71290D01*
Y-232945D01*
X-52718D01*
Y-216873D01*
X-59353D01*
X-59359Y-216614D01*
X-59414Y-216491D01*
Y-216327D01*
X-59611Y-215336D01*
X-60172Y-214496D01*
X-61162Y-213506D01*
X-61207Y-213384D01*
X-61648Y-212910D01*
Y-210577D01*
X-61923Y-209198D01*
X-62704Y-208028D01*
X-63843Y-207267D01*
X-63851Y-207173D01*
X-63859Y-206771D01*
X-63914Y-206646D01*
Y-203037D01*
X-62996Y-202119D01*
X-61437Y-202356D01*
X-61265Y-202614D01*
X-60335Y-203235D01*
X-59239Y-203453D01*
X-57789D01*
X-56692Y-203235D01*
X-55762Y-202614D01*
X-55141Y-201684D01*
X-54922Y-200587D01*
X-54764Y-200428D01*
Y-192612D01*
X-61742D01*
X-61992Y-192362D01*
Y-192257D01*
X-61996Y-192241D01*
X-62003Y-192216D01*
X-62007Y-192190D01*
X-62011Y-192164D01*
X-62013Y-192138D01*
X-62014Y-192112D01*
Y-161112D01*
X-62013Y-161086D01*
X-62011Y-161060D01*
X-62007Y-161034D01*
X-62003Y-161008D01*
X-61996Y-160983D01*
X-61992Y-160967D01*
Y-160924D01*
X-61965Y-160897D01*
X-61959Y-160885D01*
X-61947Y-160862D01*
X-61933Y-160840D01*
X-61918Y-160818D01*
X-61902Y-160797D01*
X-61885Y-160777D01*
X-61867Y-160758D01*
X-61848Y-160741D01*
X-61828Y-160723D01*
X-61807Y-160707D01*
X-61786Y-160693D01*
X-61764Y-160679D01*
X-61741Y-160667D01*
X-61729Y-160661D01*
X-61680Y-160612D01*
X-54764D01*
Y-152796D01*
X-54922Y-152637D01*
X-55141Y-151540D01*
X-55762Y-150610D01*
X-55924Y-150502D01*
Y-142666D01*
X-51456Y-138199D01*
X-30285D01*
X-29294Y-138002D01*
X-28454Y-137440D01*
X-14016Y-123002D01*
X-13893Y-122956D01*
X-12997Y-122117D01*
X-12497Y-122216D01*
X-8447D01*
X-6765Y-121882D01*
X-5339Y-120929D01*
X-4416Y-119548D01*
X-4320Y-119529D01*
X-3146Y-119783D01*
D02*
G37*
G36*
X-195813Y-126356D02*
X-195477Y-126640D01*
X-195323Y-126750D01*
X-195178Y-126837D01*
X-195042Y-126902D01*
X-194915Y-126946D01*
X-194797Y-126967D01*
X-194688Y-126967D01*
X-194589Y-126944D01*
X-196006Y-129812D01*
X-196020Y-129788D01*
X-196054Y-129746D01*
X-196177Y-129609D01*
X-196998Y-128770D01*
X-195994Y-126181D01*
X-195813Y-126356D01*
D02*
G37*
G36*
X23499Y-130288D02*
X23669Y-130433D01*
X23839Y-130560D01*
X24009Y-130670D01*
X24178Y-130764D01*
X24347Y-130839D01*
X24516Y-130898D01*
X24685Y-130939D01*
X24853Y-130963D01*
X25021Y-130970D01*
X22759Y-133232D01*
X22752Y-133064D01*
X22728Y-132896D01*
X22686Y-132728D01*
X22628Y-132559D01*
X22552Y-132390D01*
X22459Y-132220D01*
X22349Y-132051D01*
X22221Y-131881D01*
X22076Y-131711D01*
X21914Y-131540D01*
X23329Y-130126D01*
X23499Y-130288D01*
D02*
G37*
G36*
X-98928Y-130131D02*
X-98985Y-130374D01*
X-98973Y-130651D01*
X-98893Y-130960D01*
X-98745Y-131303D01*
X-98528Y-131679D01*
X-98243Y-132088D01*
X-97889Y-132530D01*
X-96976Y-133513D01*
X-98522Y-135559D01*
X-99043Y-135056D01*
X-99970Y-134270D01*
X-100377Y-133987D01*
X-100745Y-133778D01*
X-101075Y-133641D01*
X-101368Y-133578D01*
X-101622Y-133589D01*
X-101839Y-133673D01*
X-102017Y-133830D01*
X-98803Y-129921D01*
X-98928Y-130131D01*
D02*
G37*
G36*
X-156154Y-132729D02*
X-156226Y-132958D01*
X-156226Y-133222D01*
X-156157Y-133521D01*
X-156017Y-133855D01*
X-155807Y-134224D01*
X-155527Y-134628D01*
X-155176Y-135067D01*
X-154264Y-136050D01*
X-156060Y-137846D01*
X-156569Y-137354D01*
X-157482Y-136583D01*
X-157886Y-136302D01*
X-158255Y-136092D01*
X-158589Y-135953D01*
X-158888Y-135883D01*
X-159152Y-135884D01*
X-159381Y-135955D01*
X-159575Y-136097D01*
X-156013Y-132535D01*
X-156154Y-132729D01*
D02*
G37*
G36*
X-433834Y-90285D02*
X-433834Y-136715D01*
X-435041Y-137922D01*
X-456826D01*
X-464986Y-129784D01*
X-503068Y-129784D01*
X-506437Y-133153D01*
X-506437Y-233281D01*
X-455775Y-283942D01*
X-455775Y-299976D01*
X-457263Y-301464D01*
X-478316D01*
X-479678Y-300102D01*
Y-275128D01*
X-517985Y-236821D01*
X-517310Y-111855D01*
X-516291Y-110829D01*
X-482879Y-110647D01*
X-480752Y-108509D01*
Y-89679D01*
X-479856Y-88783D01*
X-435336Y-88783D01*
X-433834Y-90285D01*
D02*
G37*
G36*
X-7920Y-142467D02*
X-8018Y-142443D01*
X-8126Y-142441D01*
X-8242Y-142460D01*
X-8368Y-142502D01*
X-8504Y-142566D01*
X-8648Y-142653D01*
X-8802Y-142761D01*
X-8965Y-142892D01*
X-9318Y-143220D01*
X-10233Y-140542D01*
X-9260Y-139562D01*
X-7920Y-142467D01*
D02*
G37*
G36*
X-92803Y-137668D02*
X-91876Y-138455D01*
X-91470Y-138737D01*
X-91103Y-138945D01*
X-90774Y-139079D01*
X-90484Y-139139D01*
X-90233Y-139126D01*
X-90021Y-139038D01*
X-89847Y-138876D01*
X-92959Y-142888D01*
X-92838Y-142673D01*
X-92785Y-142426D01*
X-92800Y-142147D01*
X-92881Y-141836D01*
X-93030Y-141492D01*
X-93246Y-141117D01*
X-93530Y-140710D01*
X-93881Y-140271D01*
X-94786Y-139296D01*
X-93326Y-137163D01*
X-92803Y-137668D01*
D02*
G37*
G36*
X-14500Y-145433D02*
X-14521Y-145191D01*
X-14594Y-144976D01*
X-14720Y-144785D01*
X-14898Y-144620D01*
X-15129Y-144480D01*
X-15412Y-144366D01*
X-15748Y-144277D01*
X-16136Y-144214D01*
X-16577Y-144176D01*
X-17070Y-144163D01*
Y-141623D01*
X-16566Y-141610D01*
X-16115Y-141572D01*
X-15717Y-141509D01*
X-15370Y-141420D01*
X-15076Y-141307D01*
X-14835Y-141168D01*
X-14646Y-141003D01*
X-14510Y-140814D01*
X-14426Y-140599D01*
X-14394Y-140359D01*
X-14500Y-145433D01*
D02*
G37*
G36*
X-106847Y-145888D02*
X-106873Y-145648D01*
X-106950Y-145433D01*
X-107079Y-145243D01*
X-107260Y-145079D01*
X-107493Y-144940D01*
X-107777Y-144826D01*
X-108112Y-144738D01*
X-108500Y-144675D01*
X-108939Y-144637D01*
X-109430Y-144624D01*
Y-142084D01*
X-108939Y-142071D01*
X-108500Y-142034D01*
X-108112Y-141970D01*
X-107777Y-141882D01*
X-107492Y-141768D01*
X-107260Y-141629D01*
X-107079Y-141465D01*
X-106950Y-141275D01*
X-106873Y-141060D01*
X-106847Y-140820D01*
Y-145888D01*
D02*
G37*
G36*
X-180921Y-146848D02*
X-180947Y-146608D01*
X-181026Y-146393D01*
X-181157Y-146203D01*
X-181341Y-146039D01*
X-181578Y-145900D01*
X-181867Y-145786D01*
X-182208Y-145698D01*
X-182603Y-145635D01*
X-183049Y-145597D01*
X-183549Y-145584D01*
Y-143044D01*
X-183049Y-143031D01*
X-182603Y-142993D01*
X-182208Y-142930D01*
X-181867Y-142842D01*
X-181578Y-142728D01*
X-181341Y-142589D01*
X-181157Y-142425D01*
X-181026Y-142235D01*
X-180947Y-142020D01*
X-180921Y-141780D01*
Y-146848D01*
D02*
G37*
G36*
X-85023Y-144035D02*
X-85077Y-144282D01*
X-85062Y-144562D01*
X-84981Y-144873D01*
X-84832Y-145216D01*
X-84615Y-145591D01*
X-84332Y-145998D01*
X-83981Y-146438D01*
X-83076Y-147413D01*
X-84537Y-149545D01*
X-85058Y-149040D01*
X-85986Y-148254D01*
X-86392Y-147971D01*
X-86759Y-147763D01*
X-87088Y-147629D01*
X-87378Y-147569D01*
X-87629Y-147583D01*
X-87841Y-147670D01*
X-88014Y-147832D01*
X-84903Y-143821D01*
X-85023Y-144035D01*
D02*
G37*
G36*
X8547Y-111144D02*
Y-148841D01*
X7521Y-149866D01*
X400Y-149866D01*
X-556Y-148910D01*
Y-110530D01*
X-179Y-110152D01*
X7554Y-110152D01*
X8547Y-111144D01*
D02*
G37*
G36*
X13677Y-115953D02*
Y-124204D01*
X13854Y-125089D01*
X14355Y-125840D01*
X20865Y-132350D01*
X20918Y-132487D01*
X21054Y-132630D01*
X21147Y-132739D01*
X21221Y-132839D01*
X21258Y-132895D01*
Y-134008D01*
X21834Y-135400D01*
X22899Y-136465D01*
X23772Y-136827D01*
X24370Y-137999D01*
X24396Y-138311D01*
X24237Y-139114D01*
Y-153874D01*
X23995Y-154067D01*
X22290Y-153801D01*
X22109Y-153531D01*
X20684Y-152578D01*
X19001Y-152243D01*
X14951D01*
X13269Y-152578D01*
X11843Y-153531D01*
X11574Y-153934D01*
X9369D01*
X8602Y-152759D01*
X8728Y-152115D01*
X9353Y-151698D01*
X10378Y-150672D01*
X10939Y-149832D01*
X11136Y-148841D01*
Y-115071D01*
X12310Y-114585D01*
X13677Y-115953D01*
D02*
G37*
G36*
X-107642Y-150612D02*
X-107605Y-150670D01*
X-107550Y-150743D01*
X-107385Y-150938D01*
X-106959Y-151387D01*
X-106670Y-151666D01*
X-105742Y-152453D01*
X-105336Y-152735D01*
X-104968Y-152944D01*
X-104639Y-153079D01*
X-104348Y-153140D01*
X-104096Y-153128D01*
X-103882Y-153042D01*
X-103706Y-152882D01*
X-106859Y-156852D01*
X-106737Y-156639D01*
X-106682Y-156393D01*
X-106695Y-156115D01*
X-106776Y-155805D01*
X-106925Y-155462D01*
X-107142Y-155086D01*
X-107426Y-154679D01*
X-107778Y-154238D01*
X-108189Y-153795D01*
X-108311Y-153691D01*
X-108466Y-153581D01*
X-108612Y-153492D01*
X-108749Y-153424D01*
X-108878Y-153378D01*
X-108997Y-153354D01*
X-109108Y-153350D01*
X-109210Y-153369D01*
X-107660Y-150570D01*
X-107642Y-150612D01*
D02*
G37*
G36*
X-180921Y-159548D02*
X-180947Y-159308D01*
X-181026Y-159093D01*
X-181157Y-158903D01*
X-181341Y-158739D01*
X-181578Y-158600D01*
X-181867Y-158486D01*
X-182208Y-158398D01*
X-182603Y-158335D01*
X-183049Y-158297D01*
X-183549Y-158284D01*
Y-155744D01*
X-183049Y-155731D01*
X-182603Y-155694D01*
X-182208Y-155630D01*
X-181867Y-155542D01*
X-181578Y-155428D01*
X-181341Y-155289D01*
X-181157Y-155125D01*
X-181026Y-154935D01*
X-180947Y-154720D01*
X-180921Y-154480D01*
Y-159548D01*
D02*
G37*
G36*
X-85023Y-158041D02*
X-85077Y-158288D01*
X-85062Y-158567D01*
X-84981Y-158878D01*
X-84832Y-159222D01*
X-84615Y-159597D01*
X-84332Y-160004D01*
X-83981Y-160443D01*
X-83076Y-161418D01*
X-84537Y-163550D01*
X-85058Y-163046D01*
X-85986Y-162260D01*
X-86392Y-161977D01*
X-86759Y-161769D01*
X-87088Y-161635D01*
X-87378Y-161574D01*
X-87629Y-161588D01*
X-87841Y-161676D01*
X-88014Y-161838D01*
X-84903Y-157826D01*
X-85023Y-158041D01*
D02*
G37*
G36*
X-145147Y-164153D02*
X-145144Y-164407D01*
X-145101Y-165049D01*
X-145076Y-165223D01*
X-145045Y-165377D01*
X-145008Y-165511D01*
X-144966Y-165624D01*
X-144918Y-165718D01*
X-144864Y-165791D01*
X-148056Y-165578D01*
X-147986Y-165505D01*
X-147923Y-165412D01*
X-147868Y-165299D01*
X-147820Y-165166D01*
X-147779Y-165013D01*
X-147746Y-164840D01*
X-147720Y-164647D01*
X-147690Y-164202D01*
X-147687Y-163949D01*
X-145147Y-164153D01*
D02*
G37*
G36*
X20831Y-169899D02*
X20424Y-170284D01*
X19754Y-171024D01*
X19490Y-171380D01*
X19275Y-171726D01*
X19107Y-172062D01*
X18987Y-172389D01*
X18915Y-172707D01*
X18891Y-173015D01*
X18915Y-173313D01*
X17951Y-167376D01*
X18022Y-167635D01*
X18139Y-167819D01*
X18301Y-167928D01*
X18508Y-167962D01*
X18761Y-167920D01*
X19060Y-167804D01*
X19404Y-167612D01*
X19793Y-167346D01*
X20228Y-167004D01*
X20709Y-166586D01*
X20831Y-169899D01*
D02*
G37*
G36*
X-155992Y-167707D02*
X-155919Y-167922D01*
X-155794Y-168112D01*
X-155616Y-168276D01*
X-155385Y-168415D01*
X-155101Y-168529D01*
X-154766Y-168617D01*
X-154377Y-168680D01*
X-153936Y-168718D01*
X-153443Y-168731D01*
Y-171271D01*
X-153947Y-171284D01*
X-154400Y-171322D01*
X-154800Y-171385D01*
X-155147Y-171473D01*
X-155442Y-171587D01*
X-155684Y-171726D01*
X-155874Y-171890D01*
X-156011Y-172080D01*
X-156095Y-172295D01*
X-156127Y-172535D01*
X-156013Y-167467D01*
X-155992Y-167707D01*
D02*
G37*
G36*
X-84879Y-169303D02*
X-84809Y-169481D01*
X-84692Y-169637D01*
X-84528Y-169773D01*
X-84317Y-169888D01*
X-84059Y-169982D01*
X-83754Y-170055D01*
X-83403Y-170107D01*
X-83004Y-170138D01*
X-82559Y-170149D01*
Y-172689D01*
X-83004Y-172699D01*
X-83403Y-172731D01*
X-83754Y-172783D01*
X-84059Y-172856D01*
X-84317Y-172950D01*
X-84528Y-173064D01*
X-84692Y-173200D01*
X-84809Y-173357D01*
X-84879Y-173534D01*
X-84903Y-173732D01*
Y-169105D01*
X-84879Y-169303D01*
D02*
G37*
G36*
X-106847Y-173900D02*
X-106873Y-173660D01*
X-106950Y-173445D01*
X-107079Y-173255D01*
X-107260Y-173091D01*
X-107493Y-172952D01*
X-107777Y-172838D01*
X-108112Y-172750D01*
X-108500Y-172686D01*
X-108939Y-172648D01*
X-109430Y-172636D01*
Y-170096D01*
X-108939Y-170083D01*
X-108500Y-170045D01*
X-108112Y-169982D01*
X-107777Y-169893D01*
X-107493Y-169780D01*
X-107260Y-169641D01*
X-107079Y-169476D01*
X-106950Y-169287D01*
X-106873Y-169072D01*
X-106847Y-168832D01*
Y-173900D01*
D02*
G37*
G36*
X11970Y-175354D02*
X11944Y-175112D01*
X11867Y-174897D01*
X11738Y-174706D01*
X11558Y-174541D01*
X11327Y-174401D01*
X11044Y-174287D01*
X10710Y-174198D01*
X10325Y-174135D01*
X9888Y-174096D01*
X9399Y-174084D01*
Y-171544D01*
X9888Y-171531D01*
X10325Y-171493D01*
X10710Y-171429D01*
X11044Y-171341D01*
X11327Y-171226D01*
X11558Y-171087D01*
X11738Y-170921D01*
X11867Y-170731D01*
X11944Y-170515D01*
X11970Y-170274D01*
Y-175354D01*
D02*
G37*
G36*
X-430427Y-149720D02*
Y-177972D01*
X-434604Y-182149D01*
X-455206D01*
X-456806Y-180549D01*
Y-150967D01*
X-454711Y-148872D01*
X-431275D01*
X-430427Y-149720D01*
D02*
G37*
G36*
X-180917Y-184969D02*
X-180944Y-184729D01*
X-181023Y-184514D01*
X-181154Y-184325D01*
X-181339Y-184160D01*
X-181576Y-184021D01*
X-181865Y-183908D01*
X-182207Y-183819D01*
X-182602Y-183756D01*
X-183049Y-183718D01*
X-183549Y-183705D01*
Y-181165D01*
X-183050Y-181153D01*
X-182603Y-181115D01*
X-182210Y-181052D01*
X-181869Y-180963D01*
X-181580Y-180849D01*
X-181344Y-180710D01*
X-181160Y-180546D01*
X-181029Y-180356D01*
X-180951Y-180142D01*
X-180925Y-179901D01*
X-180917Y-184969D01*
D02*
G37*
G36*
X-136651Y-183690D02*
X-136163Y-184108D01*
X-136019Y-184210D01*
X-135885Y-184293D01*
X-135759Y-184358D01*
X-135644Y-184404D01*
X-135537Y-184431D01*
X-135440Y-184439D01*
X-137703Y-186701D01*
X-137711Y-186604D01*
X-137738Y-186498D01*
X-137784Y-186382D01*
X-137848Y-186257D01*
X-137932Y-186123D01*
X-138034Y-185979D01*
X-138294Y-185663D01*
X-138451Y-185491D01*
X-138628Y-185309D01*
X-136832Y-183513D01*
X-136651Y-183690D01*
D02*
G37*
G36*
X-84889Y-183078D02*
X-84812Y-183293D01*
X-84683Y-183482D01*
X-84502Y-183646D01*
X-84270Y-183785D01*
X-83985Y-183899D01*
X-83650Y-183988D01*
X-83262Y-184051D01*
X-82823Y-184089D01*
X-82332Y-184102D01*
Y-186642D01*
X-82823Y-186654D01*
X-83262Y-186692D01*
X-83650Y-186755D01*
X-83985Y-186844D01*
X-84270Y-186957D01*
X-84502Y-187097D01*
X-84683Y-187261D01*
X-84812Y-187451D01*
X-84889Y-187665D01*
X-84915Y-187906D01*
Y-182838D01*
X-84889Y-183078D01*
D02*
G37*
G36*
X-106847Y-187906D02*
X-106873Y-187665D01*
X-106950Y-187451D01*
X-107079Y-187261D01*
X-107260Y-187097D01*
X-107493Y-186957D01*
X-107777Y-186844D01*
X-108112Y-186755D01*
X-108500Y-186692D01*
X-108939Y-186654D01*
X-109430Y-186642D01*
Y-184102D01*
X-108939Y-184089D01*
X-108500Y-184051D01*
X-108112Y-183988D01*
X-107777Y-183899D01*
X-107493Y-183785D01*
X-107260Y-183646D01*
X-107079Y-183482D01*
X-106950Y-183293D01*
X-106873Y-183078D01*
X-106847Y-182838D01*
Y-187906D01*
D02*
G37*
G36*
X-139664Y-186140D02*
X-139613Y-186269D01*
X-139450Y-186436D01*
X-139331Y-186565D01*
X-139204Y-186720D01*
Y-187477D01*
X-138627Y-188869D01*
X-137562Y-189934D01*
X-136171Y-190510D01*
X-134664D01*
X-133273Y-189934D01*
X-132208Y-188869D01*
X-131632Y-187477D01*
Y-185971D01*
X-131898Y-185328D01*
X-130821Y-184609D01*
X-114221Y-201209D01*
X-113381Y-201770D01*
X-112390Y-201967D01*
X-109587D01*
X-109465Y-202022D01*
X-109216Y-202028D01*
X-108917Y-203534D01*
X-108134Y-204706D01*
X-108435Y-205614D01*
X-108696Y-205977D01*
X-141679Y-205977D01*
X-142670Y-206174D01*
X-143511Y-206735D01*
X-144460Y-207684D01*
X-145021Y-208525D01*
X-145219Y-209516D01*
Y-225396D01*
X-146489Y-226040D01*
X-146806Y-225828D01*
X-147798Y-225630D01*
X-185290D01*
X-186281Y-225828D01*
X-186281Y-225828D01*
X-186281Y-225828D01*
X-186704Y-226110D01*
X-187122Y-226389D01*
X-187122Y-226389D01*
X-187122Y-226389D01*
X-187577Y-226844D01*
X-187856Y-227262D01*
X-188138Y-227684D01*
X-188138Y-227684D01*
X-188138Y-227684D01*
X-188228Y-228138D01*
X-188335Y-228675D01*
Y-241283D01*
X-188138Y-242274D01*
X-187577Y-243114D01*
X-186839Y-243851D01*
X-185999Y-244412D01*
X-185008Y-244609D01*
X-147937D01*
X-146946Y-244412D01*
X-146105Y-243851D01*
X-144972Y-243934D01*
X-144638Y-244101D01*
X-121599Y-267141D01*
X-121589Y-268675D01*
X-121747Y-268890D01*
X-132901D01*
X-149887Y-251904D01*
X-150727Y-251343D01*
X-151718Y-251145D01*
X-181653D01*
X-193587Y-239212D01*
Y-194507D01*
X-184513Y-185432D01*
X-183148Y-185781D01*
X-183018Y-186434D01*
X-182016Y-187934D01*
X-180515Y-188937D01*
X-178746Y-189289D01*
X-158246D01*
X-156476Y-188937D01*
X-154975Y-187934D01*
X-153973Y-186434D01*
X-153621Y-184664D01*
Y-180164D01*
X-153973Y-178394D01*
X-154975Y-176894D01*
X-155267Y-176699D01*
Y-175429D01*
X-154975Y-175234D01*
X-153973Y-173734D01*
X-153955Y-173645D01*
X-152577Y-173227D01*
X-139664Y-186140D01*
D02*
G37*
G36*
X12961Y-190016D02*
X12935Y-189776D01*
X12857Y-189561D01*
X12728Y-189371D01*
X12547Y-189207D01*
X12315Y-189068D01*
X12031Y-188954D01*
X11695Y-188865D01*
X11308Y-188802D01*
X10869Y-188764D01*
X10378Y-188752D01*
Y-186212D01*
X10869Y-186199D01*
X11308Y-186161D01*
X11695Y-186098D01*
X12031Y-186009D01*
X12315Y-185896D01*
X12547Y-185757D01*
X12728Y-185592D01*
X12857Y-185403D01*
X12935Y-185188D01*
X12961Y-184948D01*
Y-190016D01*
D02*
G37*
G36*
X-463232Y-189333D02*
X-463329Y-189342D01*
X-463435Y-189369D01*
X-463551Y-189415D01*
X-463676Y-189479D01*
X-463810Y-189563D01*
X-463954Y-189665D01*
X-464270Y-189925D01*
X-464442Y-190083D01*
X-464623Y-190259D01*
X-466419Y-188463D01*
X-466243Y-188282D01*
X-465825Y-187794D01*
X-465723Y-187650D01*
X-465639Y-187516D01*
X-465575Y-187390D01*
X-465529Y-187275D01*
X-465502Y-187168D01*
X-465494Y-187071D01*
X-463232Y-189333D01*
D02*
G37*
G36*
X19270Y-191885D02*
X19055Y-191965D01*
X18866Y-192098D01*
X18701Y-192285D01*
X18562Y-192526D01*
X18449Y-192820D01*
X18360Y-193167D01*
X18297Y-193568D01*
X18259Y-194023D01*
X18246Y-194530D01*
X15706D01*
X15694Y-194023D01*
X15656Y-193568D01*
X15593Y-193167D01*
X15504Y-192820D01*
X15390Y-192526D01*
X15251Y-192285D01*
X15087Y-192098D01*
X14897Y-191965D01*
X14683Y-191885D01*
X14442Y-191858D01*
X19511D01*
X19270Y-191885D01*
D02*
G37*
G36*
X28013Y-166203D02*
X39952Y-166203D01*
X41794Y-168045D01*
X41794Y-194576D01*
X27912Y-194576D01*
X26921Y-194773D01*
X26081Y-195334D01*
X24995Y-196420D01*
X24434Y-197260D01*
X24371Y-197577D01*
X23076D01*
X23062Y-197509D01*
X22109Y-196083D01*
X20894Y-195271D01*
X20780Y-194594D01*
Y-194553D01*
X20894Y-193877D01*
X22109Y-193065D01*
X23062Y-191639D01*
X23397Y-189957D01*
Y-185007D01*
X23062Y-183325D01*
X22109Y-181899D01*
X20684Y-180946D01*
X19722Y-180755D01*
X19454Y-179406D01*
X20102Y-178974D01*
X20994Y-177638D01*
X21307Y-176064D01*
Y-171356D01*
X21407Y-171246D01*
X21774Y-170899D01*
X21794Y-170855D01*
X21837Y-170835D01*
X21875Y-170734D01*
X26727Y-166352D01*
X26737Y-166351D01*
X26767Y-166315D01*
X26878Y-166215D01*
X27002Y-166176D01*
X27169Y-166036D01*
X28013Y-166203D01*
D02*
G37*
G36*
X-83076Y-196965D02*
X-83493Y-197399D01*
X-84170Y-198218D01*
X-84431Y-198602D01*
X-84640Y-198969D01*
X-84796Y-199320D01*
X-84901Y-199654D01*
X-84953Y-199972D01*
X-84954Y-200273D01*
X-84903Y-200557D01*
X-86463Y-194988D01*
X-86365Y-195226D01*
X-86223Y-195385D01*
X-86039Y-195467D01*
X-85812Y-195470D01*
X-85542Y-195395D01*
X-85229Y-195242D01*
X-84874Y-195011D01*
X-84476Y-194701D01*
X-84035Y-194314D01*
X-83552Y-193848D01*
X-83076Y-196965D01*
D02*
G37*
G36*
X50916Y20487D02*
X51907Y19496D01*
Y-201258D01*
X47000Y-206166D01*
X27997Y-206166D01*
X26826Y-204995D01*
Y-198251D01*
X27912Y-197166D01*
X43238Y-197166D01*
X44384Y-196020D01*
X44384Y-166973D01*
X41025Y-163614D01*
X28110Y-163614D01*
X28058Y-163640D01*
X27638Y-163902D01*
X27174Y-164236D01*
X26118Y-165123D01*
X24933Y-162771D01*
X25423Y-162311D01*
X26204Y-161471D01*
X26495Y-161090D01*
X26720Y-160736D01*
X26826Y-160515D01*
Y-139114D01*
X28418Y-137522D01*
X39767D01*
X41750Y-135540D01*
Y-105972D01*
X39569Y-103791D01*
X29952D01*
X28926Y-102766D01*
Y-94816D01*
X31219Y-92523D01*
X43825D01*
X44384Y-91965D01*
X44384Y-76362D01*
X42950Y-74928D01*
X27347D01*
X26826Y-74407D01*
X26826Y-67060D01*
X27959Y-65928D01*
X39468D01*
X46680Y-58716D01*
X46680Y-36216D01*
X42795Y-32331D01*
X30239D01*
X30260Y-32354D01*
X30231Y-32331D01*
X28871D01*
X28525Y-32509D01*
X28096Y-32779D01*
X27627Y-33119D01*
X26568Y-34008D01*
X24934Y-32060D01*
X25450Y-31578D01*
X26266Y-30706D01*
X26565Y-30318D01*
X26793Y-29961D01*
X26826Y-29891D01*
Y-23615D01*
X27066Y-23376D01*
X40673D01*
X41025Y-23024D01*
Y957D01*
X39747Y2235D01*
X11580D01*
X11255Y2560D01*
Y19471D01*
X12271Y20487D01*
X50916Y20487D01*
D02*
G37*
G36*
X18259Y-195125D02*
X18297Y-195579D01*
X18360Y-195980D01*
X18449Y-196327D01*
X18562Y-196621D01*
X18701Y-196862D01*
X18866Y-197049D01*
X19055Y-197183D01*
X19270Y-197263D01*
X19511Y-197289D01*
X14442D01*
X14683Y-197263D01*
X14897Y-197183D01*
X15087Y-197049D01*
X15251Y-196862D01*
X15390Y-196621D01*
X15504Y-196327D01*
X15593Y-195980D01*
X15656Y-195579D01*
X15694Y-195125D01*
X15706Y-194617D01*
X18246D01*
X18259Y-195125D01*
D02*
G37*
G36*
X-417082Y-35901D02*
Y-168370D01*
X-414476Y-170970D01*
X-358090Y-170970D01*
X-351146Y-177914D01*
X-327314D01*
X-325996Y-179232D01*
Y-185596D01*
X-327314Y-186914D01*
X-353264D01*
X-354868Y-188576D01*
Y-196421D01*
X-355787Y-197340D01*
X-364419D01*
X-365456Y-196304D01*
Y-189004D01*
X-369913Y-184547D01*
X-377212D01*
X-425732Y-184547D01*
X-426706Y-183573D01*
X-426705Y-35969D01*
X-425870Y-35133D01*
X-417850D01*
X-417082Y-35901D01*
D02*
G37*
G36*
X-455646Y-196917D02*
X-455743Y-196925D01*
X-455849Y-196952D01*
X-455965Y-196998D01*
X-456090Y-197062D01*
X-456225Y-197146D01*
X-456368Y-197248D01*
X-456684Y-197508D01*
X-456856Y-197666D01*
X-457038Y-197842D01*
X-458834Y-196046D01*
X-458657Y-195865D01*
X-458239Y-195377D01*
X-458137Y-195233D01*
X-458054Y-195099D01*
X-457989Y-194974D01*
X-457943Y-194858D01*
X-457916Y-194751D01*
X-457908Y-194655D01*
X-455646Y-196917D01*
D02*
G37*
G36*
X-59719Y-200640D02*
X-59745Y-200401D01*
X-59823Y-200187D01*
X-59952Y-199999D01*
X-60134Y-199835D01*
X-60367Y-199697D01*
X-60653Y-199583D01*
X-60990Y-199495D01*
X-61380Y-199432D01*
X-61821Y-199395D01*
X-62314Y-199382D01*
Y-196842D01*
X-61821Y-196829D01*
X-61380Y-196792D01*
X-60990Y-196729D01*
X-60653Y-196641D01*
X-60367Y-196528D01*
X-60134Y-196389D01*
X-59952Y-196225D01*
X-59823Y-196037D01*
X-59745Y-195823D01*
X-59719Y-195584D01*
Y-200640D01*
D02*
G37*
G36*
X-106847Y-201911D02*
X-106873Y-201671D01*
X-106950Y-201456D01*
X-107079Y-201267D01*
X-107260Y-201102D01*
X-107493Y-200963D01*
X-107777Y-200850D01*
X-108112Y-200761D01*
X-108500Y-200698D01*
X-108939Y-200660D01*
X-109430Y-200647D01*
Y-198107D01*
X-108939Y-198095D01*
X-108500Y-198057D01*
X-108112Y-197994D01*
X-107777Y-197905D01*
X-107493Y-197791D01*
X-107260Y-197652D01*
X-107079Y-197488D01*
X-106950Y-197298D01*
X-106873Y-197083D01*
X-106847Y-196843D01*
Y-201911D01*
D02*
G37*
G36*
X-42430Y-200994D02*
X-42447Y-201061D01*
X-42463Y-201167D01*
X-42476Y-201313D01*
X-42509Y-202287D01*
X-42514Y-203008D01*
X-44514D01*
X-44617Y-200965D01*
X-42410D01*
X-42430Y-200994D01*
D02*
G37*
G36*
X63662Y15270D02*
Y-241194D01*
X35967Y-268890D01*
X21699D01*
X21540Y-268675D01*
X21550Y-267141D01*
X22450Y-266241D01*
X23011Y-265401D01*
X23208Y-264410D01*
Y-220045D01*
X23128Y-219642D01*
X23078Y-219233D01*
X23030Y-219149D01*
X23011Y-219054D01*
X22984Y-219013D01*
Y-213064D01*
X22670Y-211489D01*
X21778Y-210154D01*
X20769Y-209479D01*
X20721Y-208761D01*
X20771Y-208272D01*
X20826Y-208106D01*
X22109Y-207249D01*
X23062Y-205823D01*
X23084Y-205712D01*
X24379D01*
X24434Y-205986D01*
X24995Y-206826D01*
X26166Y-207997D01*
X27006Y-208558D01*
X27997Y-208755D01*
X47000Y-208755D01*
X47991Y-208558D01*
X48831Y-207997D01*
X53739Y-203089D01*
X54300Y-202249D01*
X54497Y-201258D01*
Y19496D01*
X54300Y20487D01*
X53739Y21328D01*
X52748Y22318D01*
X51908Y22880D01*
X50916Y23077D01*
X12271Y23077D01*
X11280Y22880D01*
X10440Y22319D01*
X9424Y21302D01*
X8863Y20462D01*
X8665Y19471D01*
Y2560D01*
X8863Y1569D01*
X9215Y1042D01*
X9424Y729D01*
X9749Y404D01*
X10062Y195D01*
X10589Y-157D01*
X11580Y-354D01*
X38435D01*
Y-20786D01*
X27066D01*
X27065Y-20786D01*
X27065Y-20786D01*
X26528Y-20893D01*
X26075Y-20983D01*
X26075Y-20983D01*
X26074Y-20983D01*
X25652Y-21265D01*
X25234Y-21544D01*
X25234Y-21544D01*
X25234Y-21544D01*
X24995Y-21784D01*
X24716Y-22202D01*
X24434Y-22624D01*
X24434Y-22624D01*
X24434Y-22624D01*
X24275Y-23422D01*
X23541Y-23602D01*
X22977Y-23591D01*
X22109Y-22293D01*
X20684Y-21340D01*
X19001Y-21005D01*
X14951D01*
X13269Y-21340D01*
X11843Y-22293D01*
X11574Y-22696D01*
X4654D01*
X3829Y-21436D01*
X3950Y-21011D01*
X4306Y-20773D01*
X5331Y-19748D01*
X5893Y-18908D01*
X6090Y-17917D01*
Y17662D01*
X5893Y18653D01*
X5331Y19494D01*
X4553Y20271D01*
X3713Y20833D01*
X2722Y21030D01*
X-4414D01*
X-5405Y20833D01*
X-6245Y20271D01*
X-7431Y19085D01*
X-7993Y18245D01*
X-8046Y17979D01*
X-9341D01*
X-9364Y18097D01*
X-10317Y19523D01*
X-11743Y20476D01*
X-13425Y20811D01*
X-14546D01*
X-14791Y21403D01*
X-15856Y22468D01*
X-17248Y23045D01*
X-18754D01*
X-20146Y22468D01*
X-21211Y21403D01*
X-21787Y20012D01*
Y18506D01*
X-21562Y17964D01*
X-21835Y16591D01*
X-22084Y16585D01*
X-22206Y16530D01*
X-34787D01*
X-35778Y16333D01*
X-36618Y15771D01*
X-60345Y-7955D01*
X-60906Y-8795D01*
X-61103Y-9786D01*
Y-19264D01*
X-61265Y-19372D01*
X-61887Y-20302D01*
X-62105Y-21399D01*
Y-24318D01*
X-62210Y-24411D01*
X-63375Y-24880D01*
X-63942Y-24501D01*
X-65039Y-24283D01*
X-69989D01*
X-71085Y-24501D01*
X-71906Y-25049D01*
X-72437Y-24923D01*
X-73176Y-24573D01*
Y-14382D01*
X-73373Y-13391D01*
X-73934Y-12551D01*
X-78485Y-8000D01*
X-79326Y-7438D01*
X-80317Y-7241D01*
X-81605D01*
X-82643Y-5971D01*
X-82510Y-5303D01*
Y-353D01*
X-82845Y1329D01*
X-83107Y1722D01*
X-82963Y1991D01*
X-82103Y2913D01*
X-81112Y2716D01*
X-54344D01*
X-53352Y2913D01*
X-52512Y3475D01*
X-30608Y25379D01*
X53553D01*
X63662Y15270D01*
D02*
G37*
G36*
X-65225Y-207245D02*
X-65156Y-208036D01*
X-65096Y-208378D01*
X-65019Y-208686D01*
X-64924Y-208958D01*
X-64812Y-209196D01*
X-64684Y-209398D01*
X-64538Y-209566D01*
X-64374Y-209698D01*
X-68633D01*
X-68470Y-209566D01*
X-68323Y-209398D01*
X-68195Y-209196D01*
X-68083Y-208958D01*
X-67988Y-208686D01*
X-67911Y-208378D01*
X-67851Y-208036D01*
X-67808Y-207658D01*
X-67774Y-206798D01*
X-65234D01*
X-65225Y-207245D01*
D02*
G37*
G36*
X-37584Y-208319D02*
X-36845Y-208947D01*
X-36519Y-209176D01*
X-36222Y-209349D01*
X-35953Y-209465D01*
X-35714Y-209525D01*
X-35503Y-209528D01*
X-35321Y-209474D01*
X-35169Y-209364D01*
X-37966Y-212162D01*
X-37856Y-212009D01*
X-37803Y-211828D01*
X-37806Y-211617D01*
X-37866Y-211378D01*
X-37982Y-211109D01*
X-38154Y-210812D01*
X-38384Y-210486D01*
X-38670Y-210131D01*
X-39411Y-209334D01*
X-37997Y-207920D01*
X-37584Y-208319D01*
D02*
G37*
G36*
X-15190Y-210058D02*
X-14248Y-210858D01*
X-13835Y-211148D01*
X-13460Y-211364D01*
X-13123Y-211507D01*
X-12825Y-211576D01*
X-12564Y-211571D01*
X-12342Y-211493D01*
X-12159Y-211341D01*
X-15478Y-215145D01*
X-15348Y-214939D01*
X-15288Y-214699D01*
X-15297Y-214425D01*
X-15376Y-214117D01*
X-15524Y-213775D01*
X-15741Y-213399D01*
X-16028Y-212989D01*
X-16384Y-212544D01*
X-17305Y-211553D01*
X-15718Y-209548D01*
X-15190Y-210058D01*
D02*
G37*
G36*
X-84879Y-211252D02*
X-84809Y-211430D01*
X-84692Y-211586D01*
X-84528Y-211722D01*
X-84317Y-211836D01*
X-84059Y-211930D01*
X-83754Y-212003D01*
X-83403Y-212056D01*
X-83004Y-212087D01*
X-82559Y-212097D01*
Y-214637D01*
X-83004Y-214648D01*
X-83403Y-214679D01*
X-83754Y-214731D01*
X-84059Y-214804D01*
X-84317Y-214898D01*
X-84528Y-215013D01*
X-84692Y-215149D01*
X-84809Y-215305D01*
X-84879Y-215483D01*
X-84903Y-215681D01*
Y-211054D01*
X-84879Y-211252D01*
D02*
G37*
G36*
X-33151Y-211645D02*
X-33204Y-211827D01*
X-33201Y-212037D01*
X-33142Y-212277D01*
X-33025Y-212545D01*
X-32853Y-212843D01*
X-32623Y-213169D01*
X-32338Y-213524D01*
X-31596Y-214321D01*
X-33010Y-215735D01*
X-33423Y-215336D01*
X-34162Y-214707D01*
X-34488Y-214478D01*
X-34786Y-214305D01*
X-35054Y-214189D01*
X-35294Y-214130D01*
X-35504Y-214126D01*
X-35686Y-214180D01*
X-35839Y-214290D01*
X-33041Y-211492D01*
X-33151Y-211645D01*
D02*
G37*
G36*
X-64181Y-210923D02*
X-64250Y-211155D01*
X-64247Y-211423D01*
X-64172Y-211727D01*
X-64025Y-212068D01*
X-63807Y-212445D01*
X-63516Y-212859D01*
X-63154Y-213310D01*
X-62214Y-214321D01*
X-64010Y-216117D01*
X-64534Y-215611D01*
X-65471Y-214814D01*
X-65885Y-214524D01*
X-66263Y-214305D01*
X-66604Y-214159D01*
X-66908Y-214084D01*
X-67176Y-214081D01*
X-67407Y-214149D01*
X-67602Y-214290D01*
X-64041Y-210728D01*
X-64181Y-210923D01*
D02*
G37*
G36*
X-60721Y-217132D02*
X-60683Y-217564D01*
X-60619Y-217945D01*
X-60530Y-218275D01*
X-60416Y-218555D01*
X-60276Y-218783D01*
X-60111Y-218961D01*
X-59921Y-219088D01*
X-59705Y-219164D01*
X-59464Y-219190D01*
X-64544D01*
X-64302Y-219164D01*
X-64086Y-219088D01*
X-63896Y-218961D01*
X-63731Y-218783D01*
X-63591Y-218555D01*
X-63477Y-218275D01*
X-63388Y-217945D01*
X-63324Y-217564D01*
X-63286Y-217132D01*
X-63274Y-216650D01*
X-60734D01*
X-60721Y-217132D01*
D02*
G37*
G36*
X-19123Y-190603D02*
X-19160Y-190788D01*
X-18865Y-192275D01*
X-18022Y-193535D01*
X-16762Y-194377D01*
X-15276Y-194673D01*
X-6349D01*
X-1379Y-199644D01*
Y-204432D01*
X-1065Y-206006D01*
X-173Y-207341D01*
X1162Y-208234D01*
X2736Y-208547D01*
X5118D01*
X11253Y-214683D01*
Y-219013D01*
X11226Y-219054D01*
X11207Y-219149D01*
X11159Y-219233D01*
X11109Y-219642D01*
X11029Y-220045D01*
Y-223869D01*
X266D01*
X-725Y-224067D01*
X-1566Y-224628D01*
X-2457Y-225519D01*
X-3018Y-226360D01*
X-3099Y-226763D01*
X-4312Y-226800D01*
X-4398Y-226784D01*
X-5339Y-225376D01*
X-6765Y-224423D01*
X-7700Y-224237D01*
X-7968Y-222889D01*
X-7346Y-222473D01*
X-6454Y-221138D01*
X-6140Y-219564D01*
Y-213064D01*
X-6454Y-211489D01*
X-7346Y-210154D01*
X-8681Y-209262D01*
X-10256Y-208949D01*
X-13756D01*
X-14255Y-209048D01*
X-14266Y-209039D01*
X-14762Y-208559D01*
X-14829Y-208533D01*
X-14865Y-208470D01*
X-14955Y-208444D01*
X-18342Y-205057D01*
Y-196656D01*
X-18539Y-195665D01*
X-19101Y-194825D01*
X-25954Y-187972D01*
X-25428Y-186702D01*
X-23024D01*
X-19123Y-190603D01*
D02*
G37*
G36*
X-357277Y-214099D02*
X-357124Y-214963D01*
X-356870Y-215725D01*
X-356515Y-216385D01*
X-356058Y-216944D01*
X-355499Y-217401D01*
X-354838Y-217757D01*
X-354076Y-218011D01*
X-353213Y-218163D01*
X-352248Y-218214D01*
Y-223294D01*
X-353213Y-223345D01*
X-354076Y-223497D01*
X-354838Y-223751D01*
X-355499Y-224107D01*
X-356058Y-224564D01*
X-356515Y-225123D01*
X-356870Y-225783D01*
X-357124Y-226545D01*
X-357277Y-227409D01*
X-357328Y-228374D01*
X-362408Y-220754D01*
X-357328Y-213134D01*
X-357277Y-214099D01*
D02*
G37*
G36*
X-14344Y-225273D02*
X-13416Y-226060D01*
X-13010Y-226342D01*
X-12643Y-226550D01*
X-12315Y-226684D01*
X-12025Y-226745D01*
X-11774Y-226731D01*
X-11562Y-226643D01*
X-11388Y-226481D01*
X-14500Y-230493D01*
X-14384Y-230273D01*
X-14345Y-230012D01*
X-14384Y-229708D01*
X-14499Y-229363D01*
X-14691Y-228977D01*
X-14961Y-228549D01*
X-15307Y-228079D01*
X-15731Y-227567D01*
X-16809Y-226418D01*
X-14866Y-224769D01*
X-14344Y-225273D01*
D02*
G37*
G36*
X-147614Y-228404D02*
Y-241697D01*
X-147937Y-242020D01*
X-185008D01*
X-185745Y-241283D01*
Y-228675D01*
X-185290Y-228220D01*
X-147798D01*
X-147614Y-228404D01*
D02*
G37*
G36*
X-33051Y-239669D02*
X-33012Y-239720D01*
X-32945Y-239764D01*
X-32852Y-239803D01*
X-32733Y-239835D01*
X-32587Y-239862D01*
X-32415Y-239883D01*
X-31990Y-239906D01*
X-31738Y-239909D01*
Y-241909D01*
X-31990Y-241912D01*
X-32587Y-241957D01*
X-32733Y-241983D01*
X-32852Y-242016D01*
X-32945Y-242054D01*
X-33012Y-242099D01*
X-33051Y-242149D01*
X-33065Y-242205D01*
Y-239613D01*
X-33051Y-239669D01*
D02*
G37*
G36*
X-441207Y-250035D02*
X-441130Y-250251D01*
X-441001Y-250442D01*
X-440821Y-250607D01*
X-440590Y-250746D01*
X-440307Y-250861D01*
X-439973Y-250950D01*
X-439587Y-251013D01*
X-439150Y-251051D01*
X-438662Y-251064D01*
Y-253604D01*
X-439150Y-253617D01*
X-439587Y-253655D01*
X-439973Y-253718D01*
X-440307Y-253807D01*
X-440590Y-253922D01*
X-440821Y-254061D01*
X-441001Y-254226D01*
X-441130Y-254417D01*
X-441207Y-254633D01*
X-441232Y-254874D01*
Y-249794D01*
X-441207Y-250035D01*
D02*
G37*
G36*
X-99988Y-208566D02*
X-98663Y-209891D01*
Y-247351D01*
X-94022Y-251992D01*
X-1254Y-251992D01*
X-626Y-251364D01*
Y-227351D01*
X266Y-226459D01*
X13053D01*
X13618Y-225894D01*
Y-220045D01*
X14888Y-219406D01*
X15632Y-219903D01*
X17118Y-220198D01*
X18605Y-219903D01*
X19348Y-219406D01*
X20618Y-220045D01*
Y-264410D01*
X19719Y-265309D01*
X-119768D01*
X-142961Y-242116D01*
X-142961Y-233020D01*
X-142629Y-232687D01*
Y-209516D01*
X-141679Y-208566D01*
X-99988Y-208566D01*
D02*
G37*
%LPC*%
G36*
X-19466Y-11684D02*
Y-12965D01*
X-19335Y-12789D01*
X-19263Y-12561D01*
X-19263Y-12296D01*
X-19334Y-11996D01*
X-19466Y-11684D01*
D02*
G37*
G36*
X-138540Y-234674D02*
X-139531Y-234871D01*
X-140371Y-235433D01*
X-140627Y-235688D01*
X-141188Y-236529D01*
X-141385Y-237520D01*
X-141188Y-238511D01*
X-140627Y-239351D01*
X-139787Y-239912D01*
X-138796Y-240109D01*
X-137804Y-239912D01*
X-136964Y-239351D01*
X-136709Y-239095D01*
X-136147Y-238255D01*
X-135950Y-237264D01*
X-136147Y-236273D01*
X-136709Y-235433D01*
X-137549Y-234871D01*
X-138540Y-234674D01*
D02*
G37*
%LPD*%
G36*
X-391616Y-59912D02*
X-391642Y-59671D01*
X-391719Y-59455D01*
X-391848Y-59264D01*
X-392028Y-59099D01*
X-392259Y-58959D01*
X-392542Y-58845D01*
X-392876Y-58756D01*
X-393261Y-58693D01*
X-393698Y-58655D01*
X-394187Y-58642D01*
Y-56102D01*
X-393698Y-56089D01*
X-393261Y-56051D01*
X-392876Y-55988D01*
X-392542Y-55899D01*
X-392259Y-55784D01*
X-392028Y-55645D01*
X-391848Y-55480D01*
X-391719Y-55289D01*
X-391642Y-55073D01*
X-391616Y-54832D01*
Y-59912D01*
D02*
G37*
G36*
X-399084Y-55073D02*
X-399007Y-55289D01*
X-398878Y-55480D01*
X-398698Y-55645D01*
X-398467Y-55784D01*
X-398184Y-55899D01*
X-397850Y-55988D01*
X-397464Y-56051D01*
X-397027Y-56089D01*
X-396539Y-56102D01*
Y-58642D01*
X-397027Y-58655D01*
X-397464Y-58693D01*
X-397850Y-58756D01*
X-398184Y-58845D01*
X-398467Y-58959D01*
X-398698Y-59099D01*
X-398878Y-59264D01*
X-399007Y-59455D01*
X-399084Y-59671D01*
X-399109Y-59912D01*
Y-54832D01*
X-399084Y-55073D01*
D02*
G37*
G36*
X-391616Y-76557D02*
X-391642Y-76316D01*
X-391719Y-76100D01*
X-391848Y-75910D01*
X-392028Y-75745D01*
X-392259Y-75605D01*
X-392542Y-75491D01*
X-392876Y-75402D01*
X-393261Y-75338D01*
X-393698Y-75300D01*
X-394187Y-75287D01*
Y-72747D01*
X-393698Y-72735D01*
X-393261Y-72697D01*
X-392876Y-72633D01*
X-392542Y-72544D01*
X-392259Y-72430D01*
X-392028Y-72290D01*
X-391848Y-72125D01*
X-391719Y-71935D01*
X-391642Y-71719D01*
X-391616Y-71477D01*
Y-76557D01*
D02*
G37*
G36*
X-399084Y-71719D02*
X-399007Y-71935D01*
X-398878Y-72125D01*
X-398698Y-72290D01*
X-398467Y-72430D01*
X-398184Y-72544D01*
X-397850Y-72633D01*
X-397464Y-72697D01*
X-397027Y-72735D01*
X-396539Y-72747D01*
Y-75287D01*
X-397027Y-75300D01*
X-397464Y-75338D01*
X-397850Y-75402D01*
X-398184Y-75491D01*
X-398467Y-75605D01*
X-398698Y-75745D01*
X-398878Y-75910D01*
X-399007Y-76100D01*
X-399084Y-76316D01*
X-399109Y-76557D01*
Y-71477D01*
X-399084Y-71719D01*
D02*
G37*
G36*
X-391616Y-93203D02*
X-391642Y-92962D01*
X-391719Y-92746D01*
X-391848Y-92555D01*
X-392028Y-92390D01*
X-392259Y-92250D01*
X-392542Y-92136D01*
X-392876Y-92047D01*
X-393261Y-91984D01*
X-393698Y-91946D01*
X-394187Y-91933D01*
Y-89393D01*
X-393698Y-89380D01*
X-393261Y-89342D01*
X-392876Y-89279D01*
X-392542Y-89190D01*
X-392259Y-89075D01*
X-392028Y-88936D01*
X-391848Y-88771D01*
X-391719Y-88580D01*
X-391642Y-88364D01*
X-391616Y-88123D01*
Y-93203D01*
D02*
G37*
G36*
X-399084Y-88364D02*
X-399007Y-88580D01*
X-398878Y-88771D01*
X-398698Y-88936D01*
X-398467Y-89075D01*
X-398184Y-89190D01*
X-397850Y-89279D01*
X-397464Y-89342D01*
X-397027Y-89380D01*
X-396539Y-89393D01*
Y-91933D01*
X-397027Y-91946D01*
X-397464Y-91984D01*
X-397850Y-92047D01*
X-398184Y-92136D01*
X-398467Y-92250D01*
X-398698Y-92390D01*
X-398878Y-92555D01*
X-399007Y-92746D01*
X-399084Y-92962D01*
X-399109Y-93203D01*
Y-88123D01*
X-399084Y-88364D01*
D02*
G37*
G36*
X-391616Y-109848D02*
X-391642Y-109607D01*
X-391719Y-109391D01*
X-391848Y-109201D01*
X-392028Y-109036D01*
X-392259Y-108896D01*
X-392542Y-108782D01*
X-392876Y-108693D01*
X-393261Y-108629D01*
X-393698Y-108591D01*
X-394187Y-108578D01*
Y-106038D01*
X-393698Y-106026D01*
X-393261Y-105988D01*
X-392876Y-105924D01*
X-392542Y-105835D01*
X-392259Y-105721D01*
X-392028Y-105581D01*
X-391848Y-105416D01*
X-391719Y-105226D01*
X-391642Y-105010D01*
X-391616Y-104768D01*
Y-109848D01*
D02*
G37*
G36*
X-399084Y-105010D02*
X-399007Y-105226D01*
X-398878Y-105416D01*
X-398698Y-105581D01*
X-398467Y-105721D01*
X-398184Y-105835D01*
X-397850Y-105924D01*
X-397464Y-105988D01*
X-397027Y-106026D01*
X-396539Y-106038D01*
Y-108578D01*
X-397027Y-108591D01*
X-397464Y-108629D01*
X-397850Y-108693D01*
X-398184Y-108782D01*
X-398467Y-108896D01*
X-398698Y-109036D01*
X-398878Y-109201D01*
X-399007Y-109391D01*
X-399084Y-109607D01*
X-399109Y-109848D01*
Y-104768D01*
X-399084Y-105010D01*
D02*
G37*
G36*
X-383678Y-196190D02*
X-383753Y-196128D01*
X-383847Y-196072D01*
X-383961Y-196022D01*
X-384095Y-195980D01*
X-384249Y-195943D01*
X-384423Y-195914D01*
X-384830Y-195874D01*
X-385064Y-195864D01*
X-385317Y-195861D01*
Y-193321D01*
X-385064Y-193318D01*
X-384423Y-193268D01*
X-384249Y-193239D01*
X-384095Y-193202D01*
X-383961Y-193160D01*
X-383847Y-193110D01*
X-383753Y-193054D01*
X-383678Y-192992D01*
Y-196190D01*
D02*
G37*
G36*
X-379764Y-194356D02*
X-379727Y-194444D01*
X-379673Y-194545D01*
X-379601Y-194657D01*
X-379510Y-194780D01*
X-379277Y-195063D01*
X-378971Y-195393D01*
X-378792Y-195576D01*
X-380264Y-197696D01*
X-380445Y-197521D01*
X-380781Y-197230D01*
X-380937Y-197115D01*
X-381083Y-197020D01*
X-381222Y-196946D01*
X-381351Y-196891D01*
X-381472Y-196856D01*
X-381585Y-196842D01*
X-381689Y-196848D01*
X-379783Y-194279D01*
X-379764Y-194356D01*
D02*
G37*
G36*
X-410747Y-202896D02*
X-410923Y-203077D01*
X-411215Y-203413D01*
X-411332Y-203568D01*
X-411428Y-203715D01*
X-411506Y-203853D01*
X-411563Y-203982D01*
X-411601Y-204102D01*
X-411619Y-204214D01*
X-411617Y-204317D01*
X-414106Y-202307D01*
X-414022Y-202291D01*
X-413927Y-202256D01*
X-413821Y-202204D01*
X-413705Y-202133D01*
X-413577Y-202045D01*
X-413289Y-201814D01*
X-412957Y-201510D01*
X-412775Y-201332D01*
X-410747Y-202896D01*
D02*
G37*
G36*
X-382496Y-204170D02*
X-382434Y-205131D01*
X-382410Y-205234D01*
X-382384Y-205308D01*
X-382353Y-205352D01*
X-382319Y-205367D01*
X-385216D01*
X-385182Y-205352D01*
X-385152Y-205308D01*
X-385125Y-205234D01*
X-385102Y-205131D01*
X-385082Y-204998D01*
X-385054Y-204643D01*
X-385038Y-203889D01*
X-382498D01*
X-382496Y-204170D01*
D02*
G37*
G36*
X-433779Y-203325D02*
X-433741Y-203797D01*
X-433679Y-204214D01*
X-433591Y-204575D01*
X-433478Y-204881D01*
X-433340Y-205131D01*
X-433178Y-205325D01*
X-432990Y-205464D01*
X-432777Y-205547D01*
X-432538Y-205575D01*
X-437585D01*
X-437346Y-205547D01*
X-437133Y-205464D01*
X-436946Y-205325D01*
X-436783Y-205131D01*
X-436645Y-204881D01*
X-436532Y-204575D01*
X-436444Y-204214D01*
X-436382Y-203797D01*
X-436344Y-203325D01*
X-436332Y-202797D01*
X-433792D01*
X-433779Y-203325D01*
D02*
G37*
G36*
X-414152Y-206852D02*
X-414255Y-206850D01*
X-414366Y-206868D01*
X-414487Y-206905D01*
X-414616Y-206963D01*
X-414754Y-207040D01*
X-414900Y-207137D01*
X-415055Y-207253D01*
X-415392Y-207546D01*
X-415573Y-207721D01*
X-417137Y-205693D01*
X-416958Y-205511D01*
X-416655Y-205180D01*
X-416424Y-204892D01*
X-416335Y-204764D01*
X-416265Y-204647D01*
X-416212Y-204541D01*
X-416178Y-204446D01*
X-416161Y-204362D01*
X-414152Y-206852D01*
D02*
G37*
G36*
X-430516Y-222665D02*
X-431019Y-223185D01*
X-431809Y-224119D01*
X-432096Y-224532D01*
X-432312Y-224910D01*
X-432456Y-225251D01*
X-432528Y-225556D01*
Y-225826D01*
X-432456Y-226059D01*
X-432312Y-226257D01*
X-435904Y-222665D01*
X-435707Y-222808D01*
X-435473Y-222880D01*
X-435204D01*
X-434898Y-222808D01*
X-434557Y-222665D01*
X-434180Y-222449D01*
X-433767Y-222162D01*
X-433318Y-221802D01*
X-432312Y-220868D01*
X-430516Y-222665D01*
D02*
G37*
D10*
X-17509Y15999D02*
X-15450Y13940D01*
X-18001Y19259D02*
X-17509Y18767D01*
Y15999D02*
Y18767D01*
X-51165Y-174910D02*
X-49311D01*
X-47014Y-170759D02*
X-40367Y-164112D01*
X-49311Y-174910D02*
X-47014Y-172612D01*
Y-170759D01*
X-31738Y-240909D02*
X-28324Y-237495D01*
X-35504Y-211827D02*
X-28324Y-219007D01*
Y-237495D02*
Y-219007D01*
X15992Y-124204D02*
X25044Y-133255D01*
X15992Y-124204D02*
Y-114994D01*
X-8748Y-106416D02*
X7414D01*
X15992Y-114994D01*
X-14325Y-100840D02*
X-8748Y-106416D01*
X-57531Y-33816D02*
X-56589Y-32874D01*
X-34514D01*
X-58227Y-33816D02*
X-57531D01*
X-102831Y-21334D02*
Y-16834D01*
X-43514Y-71143D02*
X-35412Y-79244D01*
X-43514Y-71143D02*
Y-66874D01*
X-35412Y-79244D02*
X-34859D01*
X-33514Y-80589D01*
X-37382Y-109671D02*
X-28750Y-101039D01*
X-33514Y-80589D02*
X-28750Y-85353D01*
Y-101039D02*
Y-85353D01*
X-38632Y-109671D02*
X-37382D01*
X-40004Y-240909D02*
X-31738D01*
X-43514Y-203817D02*
Y-198112D01*
Y-203817D02*
X-35504Y-211827D01*
X-102831Y-2378D02*
X-95147Y5306D01*
X-81112D01*
X-102831Y-2828D02*
Y-2378D01*
D11*
X-20064Y-75326D02*
Y-66286D01*
X-12006Y-85109D02*
Y-83384D01*
X-20064Y-75326D02*
X-12006Y-83384D01*
X-40367Y-164112D02*
X-34514D01*
X-146417Y-167161D02*
Y-145693D01*
X-146568Y-167313D02*
X-146417Y-167161D01*
X-160496Y-131614D02*
X-146417Y-145693D01*
X-458874Y-273029D02*
X-334926D01*
X-480650Y-251252D02*
Y-204490D01*
Y-251252D02*
X-458874Y-273029D01*
X-22947Y-88328D02*
X-16751Y-94525D01*
X7064D01*
X13746Y-87842D01*
X-22947Y-88328D02*
Y-80990D01*
X-34514Y-69424D02*
X-22947Y-80990D01*
X-34514Y-69424D02*
Y-62874D01*
X-18830Y-60544D02*
X-11998D01*
X-26501Y-52874D02*
X-18830Y-60544D01*
X-34514Y-52874D02*
X-26501D01*
X-11998Y-60544D02*
X-11757Y-60785D01*
X17192Y-40765D02*
X28851Y-30234D01*
X15442Y-41576D02*
X17192Y-40765D01*
X28851Y-30234D02*
X30876Y-27876D01*
X-54344Y5306D02*
X-31681Y27969D01*
X54625D02*
X66252Y16343D01*
X-31681Y27969D02*
X54625D01*
X-334926Y-273029D02*
X-218912Y-157014D01*
X-421252Y-252334D02*
X-412235Y-261350D01*
X-346489D02*
X-223302Y-138163D01*
X-412235Y-261350D02*
X-346489D01*
X-446344Y-267289D02*
X-340541D01*
X-468693Y-244939D02*
X-446344Y-267289D01*
X-340541D02*
X-217567Y-144314D01*
X-480650Y-204490D02*
X-463209Y-187049D01*
X-383988Y-227616D02*
X-380035D01*
X-374595Y-222176D01*
Y-201568D01*
X-381470Y-194693D02*
X-374595Y-201568D01*
X-427248Y-194591D02*
X-382046D01*
X-435062Y-202404D02*
X-427248Y-194591D01*
X-435062Y-210340D02*
Y-202404D01*
X-468693Y-207702D02*
X-455623Y-194632D01*
X-468693Y-244939D02*
Y-207702D01*
X-194870Y-129101D02*
X-193834D01*
X-213650Y-110322D02*
X-194870Y-129101D01*
X-213650Y-110322D02*
Y-80149D01*
X-168496Y-131614D02*
X-160496D01*
X-409583Y-199935D02*
X-387721D01*
X-435532Y-225884D02*
X-409583Y-199935D01*
X-435532Y-227634D02*
Y-225884D01*
X-122434Y-106235D02*
X-115529Y-113141D01*
Y-137297D02*
X-109472Y-143354D01*
X-115529Y-137297D02*
Y-113141D01*
X-28456Y-57894D02*
X-20064Y-66286D01*
X-60632Y-93671D02*
Y-85089D01*
X-62004Y-224909D02*
Y-216327D01*
X-66504Y-211827D02*
X-62004Y-216327D01*
X-66504Y-211827D02*
Y-201964D01*
X-13702Y-227729D02*
X-13660D01*
X-10472Y-230959D02*
Y-230918D01*
X-20833Y-220597D02*
X-13702Y-227729D01*
X-13660D02*
X-10472Y-230918D01*
X-20833Y-220597D02*
Y-215491D01*
X-31084Y-194112D02*
X-26360Y-198835D01*
Y-209964D02*
X-20833Y-215491D01*
X-26360Y-209964D02*
Y-198835D01*
X-12006Y-216314D02*
Y-215056D01*
X-20932Y-206129D02*
Y-196656D01*
Y-206129D02*
X-12006Y-215056D01*
X-127691Y-27456D02*
X-127327Y-27092D01*
X-127793Y-27558D02*
X-127691Y-27456D01*
X-140244Y-48717D02*
Y24604D01*
Y-50834D02*
Y-48717D01*
X66252Y-242267D02*
Y16343D01*
X37039Y-271479D02*
X66252Y-242267D01*
X-133974Y-271479D02*
X37039D01*
X-151718Y-253735D02*
X-133974Y-271479D01*
X-13772Y-118646D02*
X-10472Y-115346D01*
X-30285Y-135609D02*
X-13930Y-119255D01*
X-14538Y-118646D02*
X-13772D01*
X-15450Y-13940D02*
Y-13448D01*
X-16864Y-13940D02*
X-15450D01*
X-39808D02*
X-16864D01*
X-26153Y-2745D02*
Y5342D01*
Y-2745D02*
X-15450Y-13448D01*
X-43514Y-23874D02*
Y-17646D01*
X-39808Y-13940D01*
X-34787Y13940D02*
X-15450D01*
X-58514Y-9786D02*
X-34787Y13940D01*
X-58514Y-23874D02*
Y-9786D01*
X-81112Y5306D02*
X-54344D01*
X-52529Y-135609D02*
X-30285D01*
X-135400Y-74552D02*
X-104523D01*
X-102831Y-72860D01*
X-149439Y-60512D02*
X-135400Y-74552D01*
X-102831Y-83525D02*
Y-72860D01*
X-8226Y-140331D02*
X-7108D01*
X-10743Y-142848D02*
X-8226Y-140331D01*
X-207564Y5710D02*
X-206597D01*
X-196674Y-4214D01*
X-39770Y-142893D02*
X-10743D01*
X-43514Y-146636D02*
X-39770Y-142893D01*
X-43514Y-155112D02*
Y-146636D01*
X-359262Y-16845D02*
X-321280Y21137D01*
X-359262Y-36796D02*
Y-16845D01*
X-65132Y-80589D02*
X-60632Y-85089D01*
X-65132Y-80589D02*
Y-70295D01*
X-34514Y-169112D02*
X-204D01*
X3498Y-172814D01*
X-163557Y16453D02*
X-149439Y2335D01*
X-213760Y16453D02*
X-163557D01*
X-149439Y-60512D02*
Y2335D01*
X-216401Y13812D02*
X-213760Y16453D01*
X-217478Y13812D02*
X-216401D01*
X-196674Y-19729D02*
Y-4214D01*
Y-19729D02*
X-196368Y-20035D01*
X-127793Y-38710D02*
X-122131Y-44371D01*
X-127793Y-38710D02*
Y-27558D01*
X-122131Y-44371D02*
X-103308D01*
X-127327Y-27092D02*
Y25404D01*
X-147356Y45432D02*
X-127327Y25404D01*
X-88931Y-9831D02*
X-80317D01*
X-88931D02*
Y-2828D01*
Y-16834D02*
Y-9831D01*
X-80317D02*
X-75765Y-14382D01*
Y-28552D02*
Y-14382D01*
Y-28552D02*
X-71444Y-32874D01*
X-117945Y-22905D02*
Y30438D01*
Y-22905D02*
X-110007Y-30843D01*
X-4491Y-174112D02*
X8879Y-187482D01*
X16976D01*
X-34514Y-174112D02*
X-4491D01*
X-58514Y-141594D02*
X-52529Y-135609D01*
X-58514Y-155112D02*
Y-141594D01*
X-21952Y-184112D02*
X-15276Y-190788D01*
X-34514Y-184112D02*
X-21952D01*
X-353344Y-42714D02*
X-338496D01*
X-359262Y-36796D02*
X-353344Y-42714D01*
X-139361Y-172407D02*
X-112390Y-199377D01*
X-159487Y-119160D02*
X-139361Y-139286D01*
Y-172407D02*
Y-139286D01*
X-140244Y-127117D02*
Y-115096D01*
X-133340Y-164672D02*
Y-134021D01*
X-140244Y-127117D02*
X-133340Y-134021D01*
X-110007Y-30843D02*
X-102831D01*
X-282150Y45432D02*
X-147356D01*
X-338496Y-10914D02*
X-282150Y45432D01*
X-264624Y36796D02*
X-152436D01*
X-297946Y3474D02*
X-264624Y36796D01*
X-152436D02*
X-140244Y24604D01*
Y-50834D02*
X-132223Y-58854D01*
X-102831D01*
X-133340Y-164672D02*
X-112640Y-185371D01*
X-102831D01*
X-209840Y-40928D02*
Y-20807D01*
X-209068Y-20035D01*
X-231684Y-62772D02*
X-209840Y-40928D01*
X-231684Y-81568D02*
Y-62772D01*
X-152141Y-170001D02*
X-135418Y-186724D01*
X-168209Y-170001D02*
X-152141D01*
X-102831Y-157360D02*
Y-157318D01*
X-109863Y-151179D02*
X-108970D01*
X-102831Y-157318D01*
X-127290Y-155332D02*
Y-114080D01*
Y-155332D02*
X-111256Y-171366D01*
X-112390Y-199377D02*
X-102831D01*
X-168496Y-169714D02*
X-168209Y-170001D01*
X-111256Y-171366D02*
X-102831D01*
X-168518Y-106235D02*
X-122434D01*
X-182408Y-119160D02*
X-159487D01*
X-69244Y-68687D02*
Y-62894D01*
X-102831Y-102274D02*
X-69244Y-68687D01*
Y-62894D02*
X-69224Y-62874D01*
X-223302Y-69689D02*
X-183648Y-30035D01*
X-223302Y-138163D02*
Y-69689D01*
X-168517Y-30036D02*
X-168496Y-30014D01*
X-183648Y-30035D02*
X-168518D01*
X-188915Y-55414D02*
X-168496D01*
X-213650Y-80149D02*
X-188915Y-55414D01*
X-203490Y-102904D02*
Y-84049D01*
X-187576Y-68135D02*
X-168518D01*
X-203490Y-84049D02*
X-187576Y-68135D01*
X-103308Y-44371D02*
X-102831Y-44849D01*
X-196177Y-240284D02*
X-182726Y-253735D01*
X-196177Y-240284D02*
Y-193434D01*
X-182726Y-253735D02*
X-151718D01*
X-69224Y-62874D02*
X-67514D01*
X-79097Y-63026D02*
Y-58853D01*
X-73118Y-52874D02*
X-67514D01*
X-79097Y-58853D02*
X-73118Y-52874D01*
X-88931Y-58854D02*
Y-58813D01*
X-85742Y-55624D02*
X-85701D01*
X-77951Y-47874D02*
X-67514D01*
X-88931Y-58813D02*
X-85742Y-55624D01*
X-85701D02*
X-77951Y-47874D01*
X-88931Y-72819D02*
X-85742Y-69630D01*
X-85701D01*
X-79097Y-63026D01*
X-88931Y-72860D02*
Y-72819D01*
X-109472Y-143354D02*
X-102831D01*
X-102831Y-143354D01*
X-82559Y-213367D02*
X-76321Y-207129D01*
Y-199081D02*
X-71352Y-194112D01*
X-76321Y-207129D02*
Y-199081D01*
X-88931Y-213383D02*
X-88915Y-213367D01*
X-82559D01*
X-88931Y-185371D02*
X-82249D01*
X-75990Y-179112D02*
X-67514D01*
X-82249Y-185371D02*
X-75990Y-179112D01*
X-88931Y-171366D02*
X-88878Y-171419D01*
X-82559D02*
X-79886Y-174092D01*
X-69244D01*
X-88878Y-171419D02*
X-82559D01*
X-88931Y-157360D02*
X-77179Y-169112D01*
X-67514D01*
X-76490Y-160816D02*
Y-155795D01*
Y-160816D02*
X-73194Y-164112D01*
X-67514D01*
X-88931Y-143354D02*
X-76490Y-155795D01*
X-102831Y-129454D02*
X-88931Y-143354D01*
X-102831Y-129454D02*
Y-129352D01*
X-114336Y-95030D02*
X-102831Y-83525D01*
X-181646Y-95030D02*
X-114336D01*
X-71444Y-32874D02*
X-67514D01*
X-88931Y-30843D02*
X-88471Y-31303D01*
X-82559D01*
X-75988Y-37874D01*
X-67514D01*
X-102831Y-115346D02*
Y-102274D01*
X-217567Y-144314D02*
X-168496D01*
X-218912Y-157014D02*
X-168496D01*
X-188848Y-112719D02*
Y-102233D01*
X-181646Y-95030D01*
X-188848Y-112719D02*
X-182408Y-119160D01*
X-196177Y-193434D02*
X-185178Y-182435D01*
X-168518D01*
X-65132Y-70295D02*
X-62106Y-67269D01*
X-58534D02*
X-58514Y-67249D01*
X-62106Y-67269D02*
X-58534D01*
X-58514Y-67249D02*
Y-66874D01*
X-354693Y-55435D02*
X-338518D01*
X-365316Y-40726D02*
X-360663Y-45379D01*
X-371677Y-40726D02*
X-365316D01*
X-360663Y-49465D02*
Y-45379D01*
Y-49465D02*
X-354693Y-55435D01*
X-353793Y-68135D02*
X-338518D01*
X-364556Y-57372D02*
X-353793Y-68135D01*
X-371677Y-57372D02*
X-364556D01*
X-355610Y-80835D02*
X-338518D01*
X-362428Y-74017D02*
X-355610Y-80835D01*
X-371677Y-74017D02*
X-362428D01*
X-371677Y-90663D02*
X-360072D01*
X-357200Y-93535D01*
X-338518D01*
X-360537Y-107308D02*
X-359464Y-106235D01*
X-338518D01*
X-371677Y-107308D02*
X-360537D01*
X-402582Y-40726D02*
X-387677D01*
X-402582Y-57372D02*
X-387677D01*
X-402582Y-74017D02*
X-387677D01*
X-402582Y-90663D02*
X-387677D01*
X-402582Y-107308D02*
X-387677D01*
X-383768Y-210340D02*
Y-203889D01*
X-387721Y-199935D02*
X-383768Y-203889D01*
X-444422Y-252334D02*
X-421252D01*
X16976Y-84653D02*
Y-84612D01*
X13746Y-87842D02*
X13788D01*
X16976Y-84653D01*
X-71352Y-194112D02*
X-67514D01*
X-88931Y-199377D02*
X-87285D01*
X-72020Y-184112D02*
X-67514D01*
X-87285Y-199377D02*
X-72020Y-184112D01*
X-66504Y-201964D02*
X-62652Y-198112D01*
X3498Y-172814D02*
X15442D01*
X15695Y-172826D02*
X17192Y-171474D01*
X28851Y-160943D01*
X30876Y-159114D01*
X16976Y-201666D02*
Y-187482D01*
X-34514Y-194112D02*
X-31084D01*
X-7835Y-42874D02*
X5534Y-56244D01*
X16976D01*
Y-70428D02*
Y-56244D01*
X-34514Y-189112D02*
X-28476D01*
X-20932Y-196656D01*
X-204Y-37874D02*
X3498Y-41576D01*
X15442D01*
X-34514Y-42874D02*
X-7835D01*
X-138796Y-237520D02*
X-138540Y-237264D01*
X-34514Y-37874D02*
X-204D01*
X-34494Y-57894D02*
X-28456D01*
X-34514Y-57874D02*
X-34494Y-57894D01*
X-34514Y-27874D02*
X-15450D01*
X-79016Y-42874D02*
X-67514D01*
X-88931Y-44849D02*
X-80991D01*
X-79016Y-42874D01*
X-62652Y-198112D02*
X-58514D01*
X-297946Y-20014D02*
Y3474D01*
X-338496Y-30014D02*
Y-10914D01*
D14*
X-3Y-10D02*
D03*
X-17003D02*
D03*
X15442Y-41576D02*
D03*
X32442D02*
D03*
X-11757Y-69980D02*
D03*
X5243D02*
D03*
X-12006Y-85109D02*
D03*
X4994D02*
D03*
X32429Y-98792D02*
D03*
X15429D02*
D03*
X4981Y-129385D02*
D03*
X-12019D02*
D03*
X32426Y-143031D02*
D03*
X15426D02*
D03*
X15442Y-172814D02*
D03*
X32442D02*
D03*
X4486Y-201182D02*
D03*
X-12514D02*
D03*
X-12006Y-216314D02*
D03*
X4994D02*
D03*
X17118Y-216314D02*
D03*
X34118D02*
D03*
X-401768Y-210340D02*
D03*
X-383768D02*
D03*
X-435062D02*
D03*
X-453062D02*
D03*
X-420582Y-40726D02*
D03*
X-402582D02*
D03*
X-420582Y-74017D02*
D03*
X-402582D02*
D03*
X-420582Y-90663D02*
D03*
X-402582D02*
D03*
Y-57372D02*
D03*
X-420582D02*
D03*
Y-107308D02*
D03*
X-402582D02*
D03*
D19*
X-359868Y-211840D02*
D03*
Y-193840D02*
D03*
X-409245Y-159922D02*
D03*
Y-176922D02*
D03*
X-392786Y-159922D02*
D03*
Y-176922D02*
D03*
X-376327Y-159922D02*
D03*
Y-176922D02*
D03*
X-359868D02*
D03*
Y-159922D02*
D03*
X-360122Y-229366D02*
D03*
Y-246366D02*
D03*
D21*
X-444873Y-170122D02*
D03*
Y-127622D02*
D03*
D33*
X16976Y-201666D02*
D03*
X30876D02*
D03*
Y-27876D02*
D03*
X16976D02*
D03*
X-15450D02*
D03*
X-1550D02*
D03*
X-88931Y-58854D02*
D03*
X-102831D02*
D03*
X-88931Y-44849D02*
D03*
X-102831D02*
D03*
X-88931Y-2828D02*
D03*
X-102831D02*
D03*
X-1550Y-13940D02*
D03*
X-15450D02*
D03*
Y13940D02*
D03*
X-1550D02*
D03*
X30876Y-56244D02*
D03*
X16976D02*
D03*
Y-84612D02*
D03*
X30876D02*
D03*
X-88931Y-72860D02*
D03*
X-102831D02*
D03*
X-88931Y-30843D02*
D03*
X-102831D02*
D03*
Y-115346D02*
D03*
X-88931D02*
D03*
Y-16834D02*
D03*
X-102831D02*
D03*
X-10472Y-230959D02*
D03*
X3428D02*
D03*
X16976Y-159114D02*
D03*
X30876D02*
D03*
X-10472D02*
D03*
X3428D02*
D03*
Y-143361D02*
D03*
X-10472D02*
D03*
X-88931Y-143354D02*
D03*
X-102831D02*
D03*
X-88931Y-199377D02*
D03*
X-102831D02*
D03*
X-88931Y-185371D02*
D03*
X-102831D02*
D03*
X-88931Y-171366D02*
D03*
X-102831D02*
D03*
X-88931Y-157360D02*
D03*
X-102831D02*
D03*
X-10472Y-115346D02*
D03*
X3428D02*
D03*
X30876Y-187482D02*
D03*
X16976D02*
D03*
X-88931Y-213383D02*
D03*
X-102831D02*
D03*
Y-129352D02*
D03*
X-88931D02*
D03*
X30876Y-70428D02*
D03*
X16976D02*
D03*
X-152696Y-237520D02*
D03*
X-138796D02*
D03*
D58*
X-11757Y-69980D02*
Y-60785D01*
X-11863Y-70086D02*
X-11757Y-69980D01*
X-362582Y-231779D02*
X-359952Y-229150D01*
X-392966Y-252728D02*
X-383483D01*
X-359868Y-229112D02*
Y-220754D01*
X-362582Y-231826D02*
Y-231779D01*
X-383483Y-252728D02*
X-362582Y-231826D01*
X-11863Y-74944D02*
Y-70086D01*
X4486Y-201182D02*
Y-199942D01*
X1997Y-197452D02*
X4486Y-199942D01*
X-4740Y-190788D02*
X1923Y-197452D01*
X-15276Y-190788D02*
X-4740D01*
X1923Y-197452D02*
X1997D01*
X4486Y-202422D02*
X6976Y-204912D01*
X6976D02*
X17118Y-215054D01*
X6976Y-204912D02*
X6976D01*
X17118Y-216314D02*
Y-215054D01*
X-323532Y-169714D02*
X-312171Y-181075D01*
X-334336Y-220754D02*
X-312171Y-198589D01*
Y-181075D01*
X-359868Y-220754D02*
Y-211840D01*
Y-220754D02*
X-334336D01*
X-338496Y-169714D02*
X-323532D01*
X-401768Y-227616D02*
Y-210340D01*
X-453312Y-227634D02*
Y-210590D01*
D59*
X-34514Y-159112D02*
X-34513Y-159113D01*
X-10472D01*
X-58408Y22578D02*
X-47740D01*
X-35659Y34659D02*
X26949D01*
X-47740Y22578D02*
X-35659Y34659D01*
X-223354Y24864D02*
X-223000D01*
X-240511Y7707D02*
X-223354Y24864D01*
X-20061Y-47874D02*
X-17361Y-50574D01*
X-34514Y-47874D02*
X-20061D01*
X-17361Y-50574D02*
X-16498D01*
X-304758Y-83811D02*
X-288229Y-67282D01*
X-313919Y-144335D02*
X-304758Y-135175D01*
Y-83811D01*
X-269414Y-67282D02*
X-240511Y-38379D01*
X-288229Y-67282D02*
X-269414D01*
X-240511Y-38379D02*
Y7707D01*
X-338518Y-144335D02*
X-313919D01*
X-13632Y-179112D02*
X-11206Y-181538D01*
X-10343D01*
X-34514Y-179112D02*
X-13632D01*
D60*
X27643Y-88296D02*
X30931Y-85007D01*
Y-85006D01*
X27643Y-88711D02*
Y-88296D01*
X30931Y-85006D02*
X31116Y-85191D01*
X37809D01*
X-1550Y-27876D02*
X16976D01*
X3428Y-159114D02*
X16976D01*
D61*
X90225Y14703D02*
D03*
D62*
Y-10697D02*
D03*
Y-36097D02*
D03*
Y-61497D02*
D03*
Y-86897D02*
D03*
Y-112297D02*
D03*
Y-137697D02*
D03*
Y-163097D02*
D03*
Y-188497D02*
D03*
Y-213897D02*
D03*
Y-239297D02*
D03*
Y-264697D02*
D03*
D63*
X-493326Y-98116D02*
D03*
Y-142116D02*
D03*
D64*
X-18001Y19259D02*
D03*
X1364Y-72828D02*
D03*
X2109Y-82476D02*
D03*
X58733Y-80428D02*
D03*
X58649Y-95926D02*
D03*
X92921Y82249D02*
D03*
X86571Y69549D02*
D03*
X92921Y56849D02*
D03*
X86571Y-286051D02*
D03*
X92921Y-298751D02*
D03*
X86571Y-311451D02*
D03*
X80221Y82249D02*
D03*
X73871Y69549D02*
D03*
X80221Y56849D02*
D03*
Y31449D02*
D03*
X73871Y18749D02*
D03*
Y-6651D02*
D03*
X80221Y-19351D02*
D03*
X73871Y-32051D02*
D03*
Y-82851D02*
D03*
X80221Y-95551D02*
D03*
Y-120951D02*
D03*
Y-146351D02*
D03*
Y-171751D02*
D03*
X73871Y-184451D02*
D03*
X80221Y-197151D02*
D03*
X73871Y-209851D02*
D03*
X80221Y-222551D02*
D03*
X73871Y-235251D02*
D03*
X80221Y-247951D02*
D03*
X73871Y-260651D02*
D03*
X80221Y-273351D02*
D03*
X73871Y-286051D02*
D03*
X80221Y-298751D02*
D03*
X73871Y-311451D02*
D03*
X67521Y82249D02*
D03*
X61171Y69549D02*
D03*
X67521Y56849D02*
D03*
X61171Y-260651D02*
D03*
X67521Y-273351D02*
D03*
X61171Y-286051D02*
D03*
X67521Y-298751D02*
D03*
X61171Y-311451D02*
D03*
X54821Y82249D02*
D03*
X48471Y69549D02*
D03*
X54821Y56849D02*
D03*
Y-273351D02*
D03*
X48471Y-286051D02*
D03*
X54821Y-298751D02*
D03*
X48471Y-311451D02*
D03*
X42121Y82249D02*
D03*
X35771Y69549D02*
D03*
X42121Y56849D02*
D03*
Y-222551D02*
D03*
X35771Y-235251D02*
D03*
Y-260651D02*
D03*
Y-286051D02*
D03*
X42121Y-298751D02*
D03*
X35771Y-311451D02*
D03*
X29421Y82249D02*
D03*
X23071Y69549D02*
D03*
X29421Y56849D02*
D03*
X23071Y-6651D02*
D03*
Y-286051D02*
D03*
X29421Y-298751D02*
D03*
X23071Y-311451D02*
D03*
X16721Y82249D02*
D03*
X10371Y69549D02*
D03*
X16721Y56849D02*
D03*
X10371Y-286051D02*
D03*
X16721Y-298751D02*
D03*
X10371Y-311451D02*
D03*
X4021Y82249D02*
D03*
X-2329Y69549D02*
D03*
X4021Y56849D02*
D03*
X-2329Y-286051D02*
D03*
X4021Y-298751D02*
D03*
X-2329Y-311451D02*
D03*
X-8679Y56849D02*
D03*
X-15029Y-286051D02*
D03*
X-8679Y-298751D02*
D03*
X-59479Y31449D02*
D03*
X-78529Y44149D02*
D03*
X-72179Y31449D02*
D03*
X-91229Y18749D02*
D03*
Y-286051D02*
D03*
X-97579Y82249D02*
D03*
X-103929Y69549D02*
D03*
X-97579Y56849D02*
D03*
Y31449D02*
D03*
X-103929Y18749D02*
D03*
Y-286051D02*
D03*
X-97579Y-298751D02*
D03*
X-103929Y-311451D02*
D03*
X-110279Y82249D02*
D03*
X-116629Y69549D02*
D03*
X-110279Y56849D02*
D03*
Y31449D02*
D03*
X-116629Y-286051D02*
D03*
X-110279Y-298751D02*
D03*
X-116629Y-311451D02*
D03*
X-122979Y82249D02*
D03*
X-129329Y69549D02*
D03*
X-122979Y56849D02*
D03*
X-129329Y-286051D02*
D03*
X-122979Y-298751D02*
D03*
X-129329Y-311451D02*
D03*
X-135679Y82249D02*
D03*
X-142029Y69549D02*
D03*
X-135679Y56849D02*
D03*
X-142029Y-286051D02*
D03*
X-135679Y-298751D02*
D03*
X-142029Y-311451D02*
D03*
X-148379Y82249D02*
D03*
X-154729Y69549D02*
D03*
X-148379Y56849D02*
D03*
X-154729Y18749D02*
D03*
X-148379Y-70151D02*
D03*
Y-247951D02*
D03*
X-154729Y-260651D02*
D03*
X-148379Y-273351D02*
D03*
X-154729Y-286051D02*
D03*
X-148379Y-298751D02*
D03*
X-154729Y-311451D02*
D03*
X-161079Y82249D02*
D03*
X-167429Y69549D02*
D03*
X-161079Y56849D02*
D03*
Y-273351D02*
D03*
Y-298751D02*
D03*
X-173779Y82249D02*
D03*
X-180129Y69549D02*
D03*
X-173779Y56849D02*
D03*
X-180129Y-260651D02*
D03*
X-186479Y82249D02*
D03*
X-192829Y69549D02*
D03*
X-186479Y56849D02*
D03*
Y-44751D02*
D03*
Y-171751D02*
D03*
X-199179Y82249D02*
D03*
X-205529Y69549D02*
D03*
X-199179Y56849D02*
D03*
X-211879Y82249D02*
D03*
X-218229Y69549D02*
D03*
X-211879Y56849D02*
D03*
X-224579Y82249D02*
D03*
X-230929Y69549D02*
D03*
X-224579Y56849D02*
D03*
Y6049D02*
D03*
X-230929Y-6651D02*
D03*
Y-32051D02*
D03*
Y-260651D02*
D03*
X-237279Y82249D02*
D03*
X-243629Y69549D02*
D03*
X-237279Y56849D02*
D03*
X-243629Y-82851D02*
D03*
X-237279Y-247951D02*
D03*
X-243629Y-260651D02*
D03*
X-249979Y82249D02*
D03*
X-256329Y69549D02*
D03*
X-249979Y56849D02*
D03*
Y6049D02*
D03*
Y-19351D02*
D03*
X-256329Y-82851D02*
D03*
Y-260651D02*
D03*
X-262679Y82249D02*
D03*
X-269029Y69549D02*
D03*
X-262679Y56849D02*
D03*
X-269029Y-260651D02*
D03*
X-275379Y82249D02*
D03*
X-281729Y69549D02*
D03*
X-275379Y56849D02*
D03*
X-281729Y-82851D02*
D03*
Y-260651D02*
D03*
X-288079Y82249D02*
D03*
X-294429Y69549D02*
D03*
X-288079Y56849D02*
D03*
X-294429Y44149D02*
D03*
Y-260651D02*
D03*
X-300779Y82249D02*
D03*
X-307129Y69549D02*
D03*
X-300779Y56849D02*
D03*
X-307129Y44149D02*
D03*
Y-159051D02*
D03*
Y-260651D02*
D03*
X-313479Y82249D02*
D03*
X-319829Y69549D02*
D03*
X-313479Y56849D02*
D03*
X-319829Y44149D02*
D03*
X-313479Y31449D02*
D03*
X-319829Y-32051D02*
D03*
Y-57451D02*
D03*
Y-82851D02*
D03*
Y-108251D02*
D03*
Y-133651D02*
D03*
X-326179Y82249D02*
D03*
X-332529Y69549D02*
D03*
X-326179Y56849D02*
D03*
X-332529Y44149D02*
D03*
X-326179Y31449D02*
D03*
X-332529Y18749D02*
D03*
X-326179Y-120951D02*
D03*
X-332529Y-133651D02*
D03*
Y-286051D02*
D03*
Y-311451D02*
D03*
X-338879Y82249D02*
D03*
X-345229Y69549D02*
D03*
X-338879Y56849D02*
D03*
X-345229Y44149D02*
D03*
X-338879Y31449D02*
D03*
X-345229Y18749D02*
D03*
X-338879Y-120951D02*
D03*
X-345229Y-286051D02*
D03*
X-338879Y-298751D02*
D03*
X-345229Y-311451D02*
D03*
X-351579Y82249D02*
D03*
Y56849D02*
D03*
X-357929Y44149D02*
D03*
X-351579Y31449D02*
D03*
X-357929Y18749D02*
D03*
Y-286051D02*
D03*
X-351579Y-298751D02*
D03*
X-370629Y44149D02*
D03*
X-364279Y31449D02*
D03*
X-370629Y18749D02*
D03*
Y-286051D02*
D03*
X-376979Y31449D02*
D03*
X-383329Y18749D02*
D03*
X-389679Y31449D02*
D03*
X-402379D02*
D03*
Y-120951D02*
D03*
X-415079Y31449D02*
D03*
X-434129Y44149D02*
D03*
X-427779Y31449D02*
D03*
X-434129Y18749D02*
D03*
Y-6651D02*
D03*
Y-32051D02*
D03*
Y-57451D02*
D03*
Y-82851D02*
D03*
Y-286051D02*
D03*
X-446829Y69549D02*
D03*
X-440479Y56849D02*
D03*
X-446829Y44149D02*
D03*
X-440479Y31449D02*
D03*
X-446829Y18749D02*
D03*
X-440479Y6049D02*
D03*
X-446829Y-6651D02*
D03*
X-440479Y-19351D02*
D03*
X-446829Y-32051D02*
D03*
X-440479Y-44751D02*
D03*
X-446829Y-57451D02*
D03*
X-440479Y-70151D02*
D03*
X-446829Y-82851D02*
D03*
X-440479Y-298751D02*
D03*
X-446829Y-311451D02*
D03*
X-453179Y82249D02*
D03*
X-459529Y69549D02*
D03*
X-453179Y56849D02*
D03*
X-459529Y44149D02*
D03*
X-453179Y31449D02*
D03*
X-459529Y18749D02*
D03*
X-453179Y6049D02*
D03*
X-459529Y-6651D02*
D03*
X-453179Y-19351D02*
D03*
X-459529Y-32051D02*
D03*
X-453179Y-44751D02*
D03*
X-459529Y-57451D02*
D03*
Y-311451D02*
D03*
X-465879Y82249D02*
D03*
X-472229Y69549D02*
D03*
X-465879Y56849D02*
D03*
X-472229Y44149D02*
D03*
X-465879Y31449D02*
D03*
X-472229Y18749D02*
D03*
X-465879Y6049D02*
D03*
X-472229Y-6651D02*
D03*
X-465879Y-19351D02*
D03*
X-472229Y-32051D02*
D03*
X-465879Y-44751D02*
D03*
X-472229Y-57451D02*
D03*
Y-184451D02*
D03*
Y-311451D02*
D03*
X-478579Y82249D02*
D03*
Y56849D02*
D03*
Y31449D02*
D03*
X-484929Y18749D02*
D03*
X-478579Y6049D02*
D03*
X-484929Y-6651D02*
D03*
X-478579Y-19351D02*
D03*
X-484929Y-32051D02*
D03*
X-478579Y-44751D02*
D03*
X-484929Y-57451D02*
D03*
Y-82851D02*
D03*
X-478579Y-146351D02*
D03*
X-484929Y-159051D02*
D03*
Y-184451D02*
D03*
X-497629Y18749D02*
D03*
X-491279Y6049D02*
D03*
X-497629Y-6651D02*
D03*
X-491279Y-19351D02*
D03*
X-497629Y-32051D02*
D03*
X-491279Y-44751D02*
D03*
X-497629Y-57451D02*
D03*
X-491279Y-70151D02*
D03*
X-497629Y-82851D02*
D03*
X-491279Y-171751D02*
D03*
X-510329Y18749D02*
D03*
X-503979Y6049D02*
D03*
X-510329Y-6651D02*
D03*
X-503979Y-19351D02*
D03*
X-510329Y-32051D02*
D03*
X-503979Y-44751D02*
D03*
X-510329Y-57451D02*
D03*
X-503979Y-70151D02*
D03*
Y-95551D02*
D03*
X-510329Y-260651D02*
D03*
X-523029Y18749D02*
D03*
X-516679Y6049D02*
D03*
X-523029Y-6651D02*
D03*
X-516679Y-19351D02*
D03*
X-523029Y-32051D02*
D03*
X-516679Y-44751D02*
D03*
X-523029Y-57451D02*
D03*
X-516679Y-95551D02*
D03*
X-523029Y-108251D02*
D03*
Y-133651D02*
D03*
Y-209851D02*
D03*
Y-235251D02*
D03*
X-516679Y-247951D02*
D03*
X-523029Y-260651D02*
D03*
X-529379Y6049D02*
D03*
Y-19351D02*
D03*
Y-44751D02*
D03*
Y-95551D02*
D03*
Y-120951D02*
D03*
Y-146351D02*
D03*
Y-197151D02*
D03*
Y-222551D02*
D03*
Y-247951D02*
D03*
X-3981Y-208658D02*
D03*
X1494Y-217233D02*
D03*
X-14358Y-198166D02*
D03*
X-46660Y-167918D02*
D03*
X-34295Y-229365D02*
D03*
X-48111Y-229238D02*
D03*
X-36165Y-95857D02*
D03*
X-45544Y-95740D02*
D03*
X-72126Y-101741D02*
D03*
X-72285Y-110479D02*
D03*
X-15522Y-129458D02*
D03*
X18926Y-143243D02*
D03*
X-146568Y-167313D02*
D03*
X-391555Y-221567D02*
D03*
X18110Y-95437D02*
D03*
X7021Y-63451D02*
D03*
X-84404Y-224357D02*
D03*
X-72964Y-240222D02*
D03*
X-73227Y-226602D02*
D03*
X25044Y-133255D02*
D03*
X-1573Y-59200D02*
D03*
X27643Y-88711D02*
D03*
X42075Y-39030D02*
D03*
X-11757Y-60785D02*
D03*
X-51333Y-60469D02*
D03*
X20682Y5505D02*
D03*
X-102831Y-21334D02*
D03*
X-474689Y-235899D02*
D03*
X-382046Y-194591D02*
D03*
X37809Y-85191D02*
D03*
X-455623Y-194632D02*
D03*
X-463209Y-187049D02*
D03*
X-462591Y-225481D02*
D03*
X-424079Y-223669D02*
D03*
X-462712Y-241219D02*
D03*
X-526390Y-180392D02*
D03*
X-11863Y-74944D02*
D03*
X-520344Y-254169D02*
D03*
X-492285Y-225742D02*
D03*
X-193834Y-129101D02*
D03*
X-409172Y-180296D02*
D03*
X-460974Y-286686D02*
D03*
X-466419Y-295414D02*
D03*
X-472985Y-286606D02*
D03*
X-14325Y-100840D02*
D03*
X-51108Y-215437D02*
D03*
X-157027Y-194988D02*
D03*
X-241006Y-213256D02*
D03*
X-287308Y-175654D02*
D03*
X-199476Y-174598D02*
D03*
X-190375Y-165207D02*
D03*
X-408382Y-118769D02*
D03*
X-408860Y-129133D02*
D03*
X-409168Y-141508D02*
D03*
X-410749Y-82497D02*
D03*
X-466409Y-144700D02*
D03*
X-413887Y-204582D02*
D03*
X-14538Y-118646D02*
D03*
X-7354Y-128970D02*
D03*
X17963Y11801D02*
D03*
X-26153Y5342D02*
D03*
X-58408Y22578D02*
D03*
X17306Y-222992D02*
D03*
X3196Y-237038D02*
D03*
X-51165Y-174910D02*
D03*
X-116492Y-66609D02*
D03*
X-7108Y-140331D02*
D03*
X-382341Y-239950D02*
D03*
X-399418Y-239639D02*
D03*
X-207564Y5710D02*
D03*
X15634Y-135068D02*
D03*
X-223000Y24864D02*
D03*
X26949Y34659D02*
D03*
X-321280Y21137D02*
D03*
X-16498Y-50574D02*
D03*
X-34488Y-127158D02*
D03*
X-50970Y-192106D02*
D03*
X-58227Y-33816D02*
D03*
Y-44992D02*
D03*
X-140244Y-48717D02*
D03*
X-58227Y-56168D02*
D03*
X14268Y18091D02*
D03*
X-217478Y13812D02*
D03*
X-127691Y-27456D02*
D03*
X-363260Y-99342D02*
D03*
X-117945Y30438D02*
D03*
X-10343Y-181538D02*
D03*
X-24954Y-111076D02*
D03*
X-28549Y-121655D02*
D03*
X29807Y-183413D02*
D03*
X15447Y-237019D02*
D03*
X36480Y-172241D02*
D03*
X38652Y-191785D02*
D03*
X37618Y-216314D02*
D03*
X-140244Y-115096D02*
D03*
X-135418Y-186724D02*
D03*
X-231684Y-81568D02*
D03*
X-109863Y-151179D02*
D03*
X-127290Y-114080D02*
D03*
X-203490Y-102904D02*
D03*
X-449361Y-177116D02*
D03*
X-182125Y-233000D02*
D03*
X-166544D02*
D03*
X-151135D02*
D03*
X-441979Y-113795D02*
D03*
X-477709Y-95930D02*
D03*
X-441979D02*
D03*
X-448693Y-155057D02*
D03*
X-459844Y-95930D02*
D03*
X-434668Y-155540D02*
D03*
X-434919Y-177393D02*
D03*
X-421574Y-177878D02*
D03*
X-367269Y-177384D02*
D03*
X-382677D02*
D03*
X-398259D02*
D03*
D65*
X-58514Y-198112D02*
D03*
X-43514D02*
D03*
X-58514Y-155112D02*
D03*
X-43514D02*
D03*
Y-23874D02*
D03*
X-58514D02*
D03*
X-43514Y-66874D02*
D03*
X-58514D02*
D03*
D66*
X-67514Y-179112D02*
D03*
Y-174112D02*
D03*
Y-169112D02*
D03*
Y-164112D02*
D03*
Y-159112D02*
D03*
Y-184112D02*
D03*
Y-189112D02*
D03*
Y-194112D02*
D03*
X-34514Y-179112D02*
D03*
Y-174112D02*
D03*
Y-169112D02*
D03*
Y-164112D02*
D03*
Y-159112D02*
D03*
Y-184112D02*
D03*
Y-189112D02*
D03*
Y-194112D02*
D03*
Y-62874D02*
D03*
Y-57874D02*
D03*
Y-52874D02*
D03*
Y-27874D02*
D03*
Y-32874D02*
D03*
Y-37874D02*
D03*
Y-42874D02*
D03*
Y-47874D02*
D03*
X-67514Y-62874D02*
D03*
Y-57874D02*
D03*
Y-52874D02*
D03*
Y-27874D02*
D03*
Y-32874D02*
D03*
Y-37874D02*
D03*
Y-42874D02*
D03*
Y-47874D02*
D03*
D67*
X-51014Y-176612D02*
D03*
Y-45374D02*
D03*
D68*
X-338496Y-195114D02*
D03*
Y-182414D02*
D03*
Y-169714D02*
D03*
Y-144314D02*
D03*
Y-106214D02*
D03*
Y-93514D02*
D03*
Y-80814D02*
D03*
Y-68114D02*
D03*
Y-55414D02*
D03*
Y-42714D02*
D03*
Y-30014D02*
D03*
X-168496D02*
D03*
Y-42714D02*
D03*
Y-55414D02*
D03*
Y-68114D02*
D03*
Y-80814D02*
D03*
Y-106214D02*
D03*
Y-131614D02*
D03*
Y-144314D02*
D03*
Y-157014D02*
D03*
Y-169714D02*
D03*
Y-182414D02*
D03*
Y-195114D02*
D03*
D69*
X-310646Y-20014D02*
D03*
X-297946D02*
D03*
X-285246D02*
D03*
X-272546D02*
D03*
X-259846D02*
D03*
X-221746D02*
D03*
X-209046D02*
D03*
X-196346D02*
D03*
D70*
X-281846Y-138464D02*
D03*
X-263496D02*
D03*
X-245146D02*
D03*
X-281846Y-120114D02*
D03*
X-263496D02*
D03*
X-245146D02*
D03*
X-281846Y-101764D02*
D03*
X-263496Y-101514D02*
D03*
X-245146Y-101764D02*
D03*
D71*
X-401768Y-227616D02*
D03*
X-383988D02*
D03*
X-392878Y-252316D02*
D03*
X-453312Y-227634D02*
D03*
X-435532D02*
D03*
X-444422Y-252334D02*
D03*
D72*
X-387677Y-40726D02*
D03*
X-371677D02*
D03*
X-387677Y-57372D02*
D03*
X-371677D02*
D03*
X-387677Y-74017D02*
D03*
X-371677D02*
D03*
X-387677Y-90663D02*
D03*
X-371677D02*
D03*
X-387677Y-107308D02*
D03*
X-371677D02*
D03*
D73*
X-38632Y-109671D02*
D03*
X-60632D02*
D03*
Y-93671D02*
D03*
X-38632D02*
D03*
X-40004Y-240909D02*
D03*
X-62004D02*
D03*
Y-224909D02*
D03*
X-40004D02*
D03*
D74*
X-33514Y-80589D02*
D03*
X-43514D02*
D03*
X-65132Y-80589D02*
D03*
X-55132D02*
D03*
X-35504Y-211827D02*
D03*
X-45504D02*
D03*
X-66504D02*
D03*
X-56504D02*
D03*
M02*
