G04*
G04 #@! TF.GenerationSoftware,Altium Limited,Altium Designer,24.0.1 (36)*
G04*
G04 Layer_Color=65535*
%FSLAX44Y44*%
%MOMM*%
G71*
G04*
G04 #@! TF.SameCoordinates,11300C1B-94DD-46D1-A2B6-7A041ABCAB01*
G04*
G04*
G04 #@! TF.FilePolarity,Positive*
G04*
G01*
G75*
%ADD10C,0.2540*%
%ADD11C,0.2000*%
%ADD12C,0.1524*%
G36*
X-52946Y17764D02*
Y17764D01*
X-53066Y17884D01*
X-53066Y17884D01*
X-52946Y17764D01*
D02*
G37*
G36*
X-408582Y5650D02*
X-408884Y4921D01*
X-409365Y4294D01*
X-409926Y3863D01*
X-413083D01*
X-413644Y4294D01*
X-414125Y4921D01*
X-414427Y5650D01*
X-414461Y5903D01*
X-408549D01*
X-408582Y5650D01*
D02*
G37*
G36*
X-485630Y3863D02*
X-486046D01*
X-486436Y3941D01*
X-486767Y4162D01*
X-486988Y4493D01*
X-487066Y4883D01*
X-486988Y5273D01*
X-486767Y5604D01*
X-486436Y5825D01*
X-486046Y5903D01*
X-485630D01*
Y3863D01*
D02*
G37*
G36*
X-50116Y-11304D02*
X-50260Y-11089D01*
X-50359Y-10593D01*
X-50260Y-10098D01*
X-50116Y-9882D01*
Y-11304D01*
D02*
G37*
G36*
Y-15469D02*
X-50260Y-15254D01*
X-50359Y-14758D01*
X-50260Y-14263D01*
X-50116Y-14047D01*
Y-15469D01*
D02*
G37*
G36*
Y-25469D02*
X-50260Y-25254D01*
X-50359Y-24758D01*
X-50260Y-24263D01*
X-50116Y-24047D01*
Y-25469D01*
D02*
G37*
G36*
X-406186Y-35051D02*
X-408226D01*
Y-22097D01*
X-406186D01*
Y-35051D01*
D02*
G37*
G36*
X-50116Y-43800D02*
X-50260Y-43584D01*
X-50359Y-43089D01*
X-50260Y-42593D01*
X-50116Y-42378D01*
Y-43800D01*
D02*
G37*
G36*
X-149756Y-51226D02*
X-149964Y-51139D01*
X-150591Y-50659D01*
X-151051Y-50059D01*
Y-46979D01*
X-150591Y-46379D01*
X-149964Y-45898D01*
X-149756Y-45812D01*
Y-51226D01*
D02*
G37*
G36*
X-69309Y-48479D02*
Y-51909D01*
X-70604Y-50614D01*
Y-47184D01*
X-69309Y-48479D01*
D02*
G37*
G36*
X-50116Y-53096D02*
X-50353Y-53059D01*
X-50260Y-52593D01*
X-50116Y-52378D01*
Y-53096D01*
D02*
G37*
G36*
X-41838Y-53435D02*
X-41860Y-53543D01*
X-42371D01*
X-42623Y-53291D01*
X-42802Y-52858D01*
Y-52471D01*
X-41838Y-53435D01*
D02*
G37*
G36*
X-45529Y-52220D02*
X-45227Y-52949D01*
X-45124Y-53733D01*
X-45209Y-54384D01*
X-49064D01*
X-49560Y-54285D01*
X-49980Y-54005D01*
X-49981Y-54003D01*
X-49588Y-53490D01*
X-49158Y-52453D01*
X-49071Y-51795D01*
X-49064Y-51794D01*
X-45855D01*
X-45529Y-52220D01*
D02*
G37*
G36*
X-149756Y-62402D02*
X-149964Y-62316D01*
X-150591Y-61835D01*
X-151051Y-61235D01*
Y-58155D01*
X-150591Y-57555D01*
X-149964Y-57074D01*
X-149756Y-56988D01*
Y-62402D01*
D02*
G37*
G36*
X-89546Y-73198D02*
X-89193Y-73659D01*
X-91405D01*
X-90632Y-73142D01*
X-89828Y-72982D01*
X-89546Y-73198D01*
D02*
G37*
G36*
X-422981Y-97737D02*
X-476456D01*
X-474417Y-95697D01*
X-422981D01*
Y-97737D01*
D02*
G37*
G36*
X-485630D02*
X-486046D01*
X-486436Y-97659D01*
X-486767Y-97438D01*
X-486988Y-97107D01*
X-487066Y-96717D01*
X-486988Y-96327D01*
X-486767Y-95996D01*
X-486436Y-95775D01*
X-486046Y-95697D01*
X-485630D01*
Y-97737D01*
D02*
G37*
G36*
X-202334Y-97835D02*
X-202121Y-98908D01*
X-202382Y-98856D01*
X-202802Y-98575D01*
X-203082Y-98155D01*
X-203181Y-97659D01*
X-203082Y-97164D01*
X-202932Y-96939D01*
X-202334Y-97835D01*
D02*
G37*
G36*
X-422981Y-101617D02*
X-438010D01*
X-438400Y-101539D01*
X-438731Y-101318D01*
X-438952Y-100987D01*
X-439030Y-100597D01*
X-438952Y-100207D01*
X-438731Y-99876D01*
X-438400Y-99655D01*
X-438010Y-99577D01*
X-422981D01*
Y-101617D01*
D02*
G37*
G36*
X-463870Y-99655D02*
X-463539Y-99876D01*
X-463318Y-100207D01*
X-463241Y-100597D01*
Y-106479D01*
X-464120Y-106115D01*
X-465234Y-105968D01*
X-465280D01*
Y-100597D01*
X-465202Y-100207D01*
X-464981Y-99876D01*
X-464650Y-99655D01*
X-464260Y-99577D01*
X-463870Y-99655D01*
D02*
G37*
G36*
X-202334Y-107484D02*
X-202932Y-108379D01*
X-203057Y-108193D01*
X-203082Y-108155D01*
X-203181Y-107659D01*
X-203082Y-107164D01*
X-203057Y-107126D01*
X-202802Y-106744D01*
X-202382Y-106463D01*
X-202121Y-106411D01*
X-202334Y-107484D01*
D02*
G37*
G36*
X-459236Y-109541D02*
X-459984D01*
X-460374Y-109463D01*
X-460705Y-109242D01*
X-460926Y-108911D01*
X-461004Y-108521D01*
X-460926Y-108131D01*
X-460705Y-107800D01*
X-460374Y-107579D01*
X-459984Y-107501D01*
X-459236D01*
X-459236Y-109541D01*
D02*
G37*
G36*
X-501295Y-107875D02*
X-501293Y-107877D01*
X-501400Y-108017D01*
Y-109777D01*
X-501715Y-109987D01*
X-502203Y-110084D01*
X-502116Y-109427D01*
X-501686Y-108390D01*
X-501400Y-108017D01*
Y-107805D01*
X-501295Y-107875D01*
D02*
G37*
G36*
X-508734Y-108390D02*
X-508304Y-109427D01*
X-508217Y-110084D01*
X-508706Y-109987D01*
X-509126Y-109707D01*
X-509406Y-109286D01*
X-509505Y-108791D01*
X-509406Y-108295D01*
X-509127Y-107877D01*
X-508734Y-108390D01*
D02*
G37*
G36*
X-173843Y-111370D02*
X-174818Y-111564D01*
X-175793Y-111370D01*
X-176402Y-110963D01*
X-173234D01*
X-173843Y-111370D01*
D02*
G37*
G36*
X-194690Y-114988D02*
X-194591Y-115484D01*
X-194678Y-115921D01*
X-194690Y-115979D01*
X-194715Y-116017D01*
X-194970Y-116399D01*
X-195390Y-116680D01*
X-195651Y-116732D01*
X-195438Y-115659D01*
X-194840Y-114764D01*
X-194690Y-114988D01*
D02*
G37*
G36*
X-202334Y-115659D02*
X-202121Y-116732D01*
X-202382Y-116680D01*
X-202802Y-116399D01*
X-203057Y-116017D01*
X-203082Y-115979D01*
X-203181Y-115484D01*
X-203082Y-114988D01*
X-203057Y-114950D01*
X-202932Y-114764D01*
X-202334Y-115659D01*
D02*
G37*
G36*
X-459236Y-119541D02*
X-459984D01*
X-460374Y-119463D01*
X-460705Y-119242D01*
X-460926Y-118911D01*
X-461004Y-118521D01*
X-460926Y-118131D01*
X-460705Y-117800D01*
X-460374Y-117579D01*
X-459984Y-117501D01*
X-459236D01*
X-459236Y-119541D01*
D02*
G37*
G36*
X-508304Y-118155D02*
X-508734Y-119192D01*
X-509127Y-119705D01*
X-509406Y-119286D01*
X-509505Y-118791D01*
X-509406Y-118295D01*
X-509126Y-117875D01*
X-508706Y-117595D01*
X-508217Y-117498D01*
X-508304Y-118155D01*
D02*
G37*
G36*
X-501715Y-117595D02*
X-501400Y-117805D01*
Y-119565D01*
X-501293Y-119705D01*
X-501295Y-119707D01*
X-501400Y-119777D01*
Y-119565D01*
X-501686Y-119192D01*
X-502116Y-118155D01*
X-502203Y-117498D01*
X-501715Y-117595D01*
D02*
G37*
G36*
X-201902Y-124254D02*
X-201963Y-124721D01*
X-202391Y-124294D01*
X-202382Y-124288D01*
X-202211Y-124254D01*
X-201893Y-124190D01*
X-201902Y-124254D01*
D02*
G37*
G36*
X-195561D02*
X-195390Y-124288D01*
X-194970Y-124568D01*
X-194884Y-124697D01*
X-195120Y-124934D01*
X-195757D01*
X-195792Y-124847D01*
X-195870Y-124254D01*
X-195879Y-124190D01*
X-195561Y-124254D01*
D02*
G37*
G36*
X-200304Y-126779D02*
X-201886D01*
X-202382Y-126680D01*
X-202802Y-126399D01*
X-202803Y-126397D01*
X-202502Y-126006D01*
X-201243Y-125839D01*
X-200304Y-126779D01*
D02*
G37*
G36*
X-155428Y-132573D02*
X-155097Y-132794D01*
X-154876Y-133125D01*
X-154798Y-133515D01*
Y-133567D01*
X-155218D01*
X-156292Y-133425D01*
X-156780Y-133223D01*
X-156760Y-133125D01*
X-156539Y-132794D01*
X-156208Y-132573D01*
X-155818Y-132495D01*
X-155428Y-132573D01*
D02*
G37*
G36*
X-195390Y-132112D02*
X-195098Y-132307D01*
X-195035Y-132480D01*
X-195101Y-132566D01*
X-195362Y-132907D01*
X-195792Y-133945D01*
X-195815Y-134117D01*
X-195879Y-134602D01*
X-195886Y-134603D01*
X-200717D01*
Y-132013D01*
X-195886D01*
X-195390Y-132112D01*
D02*
G37*
G36*
X-174021Y-143067D02*
X-175615D01*
X-174818Y-142908D01*
X-174021Y-143067D01*
D02*
G37*
G36*
X-194690Y-143804D02*
X-194840Y-144028D01*
X-195035Y-143736D01*
X-194676D01*
X-194690Y-143804D01*
D02*
G37*
G36*
X-195879Y-142015D02*
X-195792Y-142672D01*
X-195362Y-143710D01*
X-195343Y-143736D01*
X-195671D01*
X-196322Y-144386D01*
X-196325Y-144603D01*
X-201476D01*
Y-142013D01*
X-195886D01*
X-195879Y-142015D01*
D02*
G37*
G36*
X-173843Y-147812D02*
X-174818Y-148006D01*
X-175793Y-147812D01*
X-176402Y-147406D01*
X-173234D01*
X-173843Y-147812D01*
D02*
G37*
G36*
X-202827Y-150570D02*
X-203038D01*
X-202932Y-150413D01*
X-202827Y-150570D01*
D02*
G37*
G36*
X-201019Y-151697D02*
X-202115Y-151442D01*
X-202410Y-150731D01*
X-202533Y-150570D01*
X-202222D01*
X-201490Y-149838D01*
X-199160D01*
X-201019Y-151697D01*
D02*
G37*
G36*
X-194690Y-150637D02*
X-194591Y-151133D01*
X-194690Y-151628D01*
X-194970Y-152048D01*
X-195390Y-152329D01*
X-195879Y-152426D01*
X-195792Y-151769D01*
X-195362Y-150731D01*
X-194969Y-150219D01*
X-194690Y-150637D01*
D02*
G37*
G36*
X-154798Y-156957D02*
X-154876Y-157347D01*
X-155097Y-157678D01*
X-155428Y-157899D01*
X-155818Y-157977D01*
X-156208Y-157899D01*
X-156539Y-157678D01*
X-156760Y-157347D01*
X-156780Y-157249D01*
X-156292Y-157047D01*
X-155218Y-156905D01*
X-154798D01*
Y-156957D01*
D02*
G37*
G36*
X-118998Y-158961D02*
X-118899Y-159457D01*
X-118998Y-159953D01*
X-119278Y-160373D01*
X-119698Y-160653D01*
X-120187Y-160751D01*
X-120100Y-160093D01*
X-119670Y-159056D01*
X-119277Y-158543D01*
X-118998Y-158961D01*
D02*
G37*
G36*
X-126718Y-159056D02*
X-126288Y-160093D01*
X-126201Y-160751D01*
X-126690Y-160653D01*
X-127110Y-160373D01*
X-127390Y-159953D01*
X-127489Y-159457D01*
X-127390Y-158961D01*
X-127111Y-158543D01*
X-126718Y-159056D01*
D02*
G37*
G36*
X-195390Y-159936D02*
X-194970Y-160217D01*
X-194690Y-160637D01*
X-194591Y-161133D01*
X-194690Y-161628D01*
X-194969Y-162046D01*
X-195362Y-161534D01*
X-195792Y-160496D01*
X-195879Y-159839D01*
X-195390Y-159936D01*
D02*
G37*
G36*
X-202756Y-168105D02*
X-202758Y-168143D01*
X-202823Y-168073D01*
X-202803Y-168043D01*
X-202756Y-168105D01*
D02*
G37*
G36*
X-522729Y-168080D02*
X-522452Y-168495D01*
X-522752Y-168104D01*
X-523144Y-167803D01*
X-522729Y-168080D01*
D02*
G37*
G36*
X-522066Y-169073D02*
X-522063Y-169090D01*
Y-169235D01*
X-522234Y-168822D01*
X-522066Y-169073D01*
D02*
G37*
G36*
X-155428Y-169015D02*
X-155097Y-169236D01*
X-154876Y-169567D01*
X-154798Y-169957D01*
Y-170009D01*
X-155218D01*
X-156292Y-169867D01*
X-156780Y-169665D01*
X-156760Y-169567D01*
X-156539Y-169236D01*
X-156208Y-169015D01*
X-155818Y-168937D01*
X-155428Y-169015D01*
D02*
G37*
G36*
X-194690Y-168461D02*
X-194591Y-168957D01*
X-194690Y-169452D01*
X-194970Y-169873D01*
X-195390Y-170153D01*
X-195879Y-170250D01*
X-195792Y-169593D01*
X-195362Y-168556D01*
X-194969Y-168043D01*
X-194690Y-168461D01*
D02*
G37*
G36*
X-119698Y-168261D02*
X-119278Y-168541D01*
X-118998Y-168962D01*
X-118899Y-169457D01*
X-118998Y-169953D01*
X-119277Y-170371D01*
X-119670Y-169858D01*
X-120100Y-168821D01*
X-120187Y-168164D01*
X-119698Y-168261D01*
D02*
G37*
G36*
X-126288Y-168821D02*
X-126718Y-169858D01*
X-127111Y-170371D01*
X-127390Y-169953D01*
X-127489Y-169457D01*
X-127390Y-168962D01*
X-127110Y-168541D01*
X-126690Y-168261D01*
X-126201Y-168164D01*
X-126288Y-168821D01*
D02*
G37*
G36*
X-522063Y-171396D02*
X-522066Y-171414D01*
X-522234Y-171664D01*
X-522063Y-171252D01*
Y-171396D01*
D02*
G37*
G36*
X-522729Y-172406D02*
X-523144Y-172683D01*
X-522752Y-172383D01*
X-522452Y-171992D01*
X-522729Y-172406D01*
D02*
G37*
G36*
X-195390Y-177761D02*
X-194970Y-178041D01*
X-194690Y-178461D01*
X-194591Y-178957D01*
X-194690Y-179452D01*
X-194969Y-179871D01*
X-195362Y-179358D01*
X-195792Y-178321D01*
X-195879Y-177663D01*
X-195390Y-177761D01*
D02*
G37*
G36*
X-201980Y-178321D02*
X-202410Y-179358D01*
X-202803Y-179871D01*
X-203082Y-179452D01*
X-203181Y-178957D01*
X-203082Y-178461D01*
X-202802Y-178041D01*
X-202382Y-177761D01*
X-201893Y-177663D01*
X-201980Y-178321D01*
D02*
G37*
G36*
X-506463Y-185951D02*
X-506480Y-185949D01*
X-506969Y-186014D01*
X-506508Y-185922D01*
X-506463Y-185951D01*
D02*
G37*
G36*
X-507901Y-186316D02*
X-507651Y-186149D01*
X-507355Y-186090D01*
X-507901Y-186316D01*
D02*
G37*
G36*
X-508620Y-186835D02*
X-508920Y-187227D01*
X-508643Y-186812D01*
X-508228Y-186535D01*
X-508620Y-186835D01*
D02*
G37*
G36*
X-509365Y-188100D02*
X-509306Y-187805D01*
X-509139Y-187554D01*
X-509365Y-188100D01*
D02*
G37*
G36*
X-509450Y-188552D02*
X-509454Y-188547D01*
X-509442Y-188486D01*
X-509450Y-188552D01*
D02*
G37*
G36*
X-156844Y-192624D02*
X-156745Y-193119D01*
X-156844Y-193615D01*
X-157125Y-194035D01*
X-157544Y-194315D01*
X-158033Y-194412D01*
X-157946Y-193755D01*
X-157516Y-192718D01*
X-157123Y-192205D01*
X-156844Y-192624D01*
D02*
G37*
G36*
X-164564Y-192718D02*
X-164134Y-193755D01*
X-164047Y-194412D01*
X-164536Y-194315D01*
X-164956Y-194035D01*
X-165211Y-193652D01*
Y-193618D01*
X-165242Y-193587D01*
X-165335Y-193119D01*
X-165236Y-192624D01*
X-164957Y-192205D01*
X-164564Y-192718D01*
D02*
G37*
G36*
X-463241Y-199480D02*
X-465280D01*
Y-185673D01*
X-463241D01*
Y-199480D01*
D02*
G37*
G36*
X-128067Y-202599D02*
X-128161Y-202612D01*
X-128144Y-202522D01*
X-128067Y-202599D01*
D02*
G37*
G36*
X-136372Y-201423D02*
X-135952Y-201703D01*
X-135672Y-202124D01*
X-135575Y-202612D01*
X-136232Y-202525D01*
X-137269Y-202095D01*
X-137782Y-201702D01*
X-137364Y-201423D01*
X-136868Y-201324D01*
X-136372Y-201423D01*
D02*
G37*
G36*
X-157544Y-201923D02*
X-157125Y-202203D01*
X-156844Y-202623D01*
X-156745Y-203119D01*
X-156844Y-203615D01*
X-157123Y-204033D01*
X-157516Y-203520D01*
X-157946Y-202483D01*
X-158033Y-201826D01*
X-157544Y-201923D01*
D02*
G37*
G36*
X-164134Y-202483D02*
X-164564Y-203520D01*
X-164957Y-204033D01*
X-165211Y-203653D01*
Y-202585D01*
X-164956Y-202203D01*
X-164536Y-201923D01*
X-164047Y-201826D01*
X-164134Y-202483D01*
D02*
G37*
G36*
X-358241Y-204597D02*
X-358318Y-204987D01*
X-358539Y-205318D01*
X-358870Y-205539D01*
X-359260Y-205617D01*
X-412602D01*
X-414642Y-203577D01*
X-360280D01*
Y-200151D01*
X-358241Y-200151D01*
Y-204597D01*
D02*
G37*
G36*
X-423545Y-205617D02*
X-450468D01*
X-452508Y-203577D01*
X-425584D01*
X-423545Y-205617D01*
D02*
G37*
G36*
X-127504Y-208713D02*
X-126467Y-209143D01*
X-125954Y-209536D01*
X-126372Y-209815D01*
X-126868Y-209914D01*
X-127364Y-209815D01*
X-127784Y-209535D01*
X-128064Y-209114D01*
X-128161Y-208626D01*
X-127504Y-208713D01*
D02*
G37*
G36*
X-135672Y-209114D02*
X-135952Y-209535D01*
X-136372Y-209815D01*
X-136868Y-209914D01*
X-137364Y-209815D01*
X-137782Y-209536D01*
X-137269Y-209143D01*
X-136232Y-208713D01*
X-135575Y-208626D01*
X-135672Y-209114D01*
D02*
G37*
G36*
X-346370Y-209787D02*
X-346039Y-210008D01*
X-345818Y-210339D01*
X-345741Y-210729D01*
Y-217858D01*
X-347780D01*
Y-210729D01*
X-347702Y-210339D01*
X-347481Y-210008D01*
X-347150Y-209787D01*
X-346760Y-209709D01*
X-346370Y-209787D01*
D02*
G37*
G36*
X-154798Y-218527D02*
X-154876Y-218917D01*
X-155097Y-219248D01*
X-155428Y-219469D01*
X-155818Y-219547D01*
X-156208Y-219469D01*
X-156539Y-219248D01*
X-156760Y-218917D01*
X-156780Y-218819D01*
X-156292Y-218617D01*
X-155218Y-218475D01*
X-154798D01*
Y-218527D01*
D02*
G37*
G36*
X-501612Y-220553D02*
X-503451D01*
Y-222224D01*
X-504111Y-222311D01*
X-504894Y-222208D01*
X-505490Y-221961D01*
Y-219533D01*
X-505412Y-219143D01*
X-505191Y-218812D01*
X-504860Y-218591D01*
X-504470Y-218513D01*
X-501612D01*
Y-220553D01*
D02*
G37*
G36*
X-238095Y-223533D02*
X-237676Y-223812D01*
X-238189Y-224205D01*
X-239226Y-224635D01*
X-239883Y-224722D01*
X-239786Y-224233D01*
X-239506Y-223813D01*
X-239086Y-223533D01*
X-238590Y-223434D01*
X-238095Y-223533D01*
D02*
G37*
G36*
X-248095D02*
X-247674Y-223813D01*
X-247394Y-224233D01*
X-247297Y-224722D01*
X-247954Y-224635D01*
X-248992Y-224205D01*
X-249504Y-223812D01*
X-249086Y-223533D01*
X-248590Y-223434D01*
X-248095Y-223533D01*
D02*
G37*
G36*
X-347244Y-225297D02*
X-347780D01*
Y-225213D01*
X-347244D01*
Y-225297D01*
D02*
G37*
G36*
X-255726Y-225787D02*
X-255395Y-226008D01*
X-255174Y-226339D01*
X-255153Y-226446D01*
X-255528Y-226821D01*
X-257136D01*
Y-226729D01*
X-257058Y-226339D01*
X-256837Y-226008D01*
X-256506Y-225787D01*
X-256116Y-225709D01*
X-255726Y-225787D01*
D02*
G37*
G36*
X-265726D02*
X-265395Y-226008D01*
X-265174Y-226339D01*
X-265096Y-226729D01*
Y-226821D01*
X-267136D01*
Y-226729D01*
X-267058Y-226339D01*
X-266837Y-226008D01*
X-266506Y-225787D01*
X-266116Y-225709D01*
X-265726Y-225787D01*
D02*
G37*
G36*
X-272998D02*
X-272667Y-226008D01*
X-272446Y-226339D01*
X-272369Y-226729D01*
Y-226821D01*
X-274408D01*
Y-226729D01*
X-274330Y-226339D01*
X-274109Y-226008D01*
X-273778Y-225787D01*
X-273388Y-225709D01*
X-272998Y-225787D01*
D02*
G37*
G36*
X-282998D02*
X-282667Y-226008D01*
X-282446Y-226339D01*
X-282369Y-226729D01*
Y-226821D01*
X-284408D01*
Y-226729D01*
X-284330Y-226339D01*
X-284109Y-226008D01*
X-283778Y-225787D01*
X-283388Y-225709D01*
X-282998Y-225787D01*
D02*
G37*
G36*
X-320370Y-209787D02*
X-320039Y-210008D01*
X-319818Y-210339D01*
X-319741Y-210729D01*
Y-213713D01*
X-320276D01*
Y-226821D01*
X-319741D01*
Y-228745D01*
X-320276D01*
Y-226821D01*
X-320806D01*
X-321780Y-225847D01*
Y-210729D01*
X-321702Y-210339D01*
X-321481Y-210008D01*
X-321150Y-209787D01*
X-320760Y-209709D01*
X-320370Y-209787D01*
D02*
G37*
G36*
X-194690Y-228387D02*
X-194591Y-228882D01*
X-194690Y-229378D01*
X-194970Y-229798D01*
X-195390Y-230079D01*
X-195879Y-230176D01*
X-195792Y-229519D01*
X-195362Y-228481D01*
X-194969Y-227968D01*
X-194690Y-228387D01*
D02*
G37*
G36*
X-202410Y-228481D02*
X-201980Y-229519D01*
X-201893Y-230176D01*
X-202382Y-230079D01*
X-202802Y-229798D01*
X-203082Y-229378D01*
X-203181Y-228882D01*
X-203082Y-228387D01*
X-202803Y-227968D01*
X-202410Y-228481D01*
D02*
G37*
G36*
X-155428Y-230585D02*
X-155097Y-230806D01*
X-154876Y-231137D01*
X-154798Y-231527D01*
Y-231579D01*
X-155218D01*
X-156292Y-231437D01*
X-156780Y-231235D01*
X-156760Y-231137D01*
X-156539Y-230806D01*
X-156208Y-230585D01*
X-155818Y-230507D01*
X-155428Y-230585D01*
D02*
G37*
G36*
X-239226Y-230823D02*
X-238189Y-231253D01*
X-237676Y-231646D01*
X-238095Y-231925D01*
X-238590Y-232024D01*
X-239086Y-231925D01*
X-239506Y-231645D01*
X-239786Y-231224D01*
X-239883Y-230736D01*
X-239226Y-230823D01*
D02*
G37*
G36*
X-247394Y-231224D02*
X-247674Y-231645D01*
X-248095Y-231925D01*
X-248590Y-232024D01*
X-249086Y-231925D01*
X-249504Y-231646D01*
X-248992Y-231253D01*
X-247954Y-230823D01*
X-247297Y-230736D01*
X-247394Y-231224D01*
D02*
G37*
G36*
X-511615Y-230058D02*
X-511421Y-231033D01*
X-511615Y-232008D01*
X-512108Y-232745D01*
X-512383Y-232081D01*
X-512521Y-231033D01*
X-512383Y-229985D01*
X-512108Y-229321D01*
X-511615Y-230058D01*
D02*
G37*
G36*
X-319741Y-239267D02*
X-320276D01*
Y-236713D01*
X-319741D01*
Y-239267D01*
D02*
G37*
G36*
X-195390Y-237686D02*
X-194970Y-237967D01*
X-194690Y-238387D01*
X-194591Y-238882D01*
X-194690Y-239378D01*
X-194840Y-239602D01*
X-195019Y-239334D01*
X-195126Y-239295D01*
X-195311Y-239351D01*
X-195362Y-239284D01*
X-195792Y-238246D01*
X-195866Y-237686D01*
X-195879Y-237589D01*
X-195390Y-237686D01*
D02*
G37*
G36*
X-201980Y-238246D02*
X-202410Y-239284D01*
X-202803Y-239796D01*
X-203082Y-239378D01*
X-203181Y-238882D01*
X-203082Y-238387D01*
X-202802Y-237967D01*
X-202382Y-237686D01*
X-201893Y-237589D01*
X-201980Y-238246D01*
D02*
G37*
G36*
X-173016Y-245303D02*
X-173234Y-245450D01*
X-176402D01*
X-176620Y-245303D01*
X-176702Y-245181D01*
X-172934D01*
X-173016Y-245303D01*
D02*
G37*
G36*
X-194690Y-246014D02*
X-194591Y-246510D01*
X-194690Y-247005D01*
X-194970Y-247425D01*
X-195390Y-247706D01*
X-195879Y-247803D01*
X-195819Y-247346D01*
X-195792Y-247146D01*
X-195362Y-246108D01*
X-195311Y-246041D01*
X-195059Y-246118D01*
X-194840Y-245790D01*
X-194690Y-246014D01*
D02*
G37*
G36*
X-202410Y-246108D02*
X-201980Y-247146D01*
X-201893Y-247803D01*
X-202382Y-247706D01*
X-202802Y-247425D01*
X-203082Y-247005D01*
X-203181Y-246510D01*
X-203082Y-246014D01*
X-202961Y-245833D01*
X-202621D01*
X-202410Y-246108D01*
D02*
G37*
G36*
X-546042Y-250134D02*
X-545646Y-250437D01*
X-545351Y-250822D01*
X-545296Y-251099D01*
X-545374Y-251489D01*
X-545595Y-251820D01*
X-545926Y-252041D01*
X-546316Y-252118D01*
X-549316D01*
X-549706Y-252041D01*
X-550037Y-251820D01*
X-550258Y-251489D01*
X-550335Y-251099D01*
X-550301Y-250927D01*
X-549926Y-250437D01*
X-549509Y-250118D01*
X-549316Y-250079D01*
X-546316D01*
X-546042Y-250134D01*
D02*
G37*
G36*
X-421284Y-250115D02*
X-421283Y-250117D01*
X-421517Y-250422D01*
Y-252102D01*
X-421704Y-252227D01*
X-422193Y-252324D01*
X-422106Y-251667D01*
X-421676Y-250630D01*
X-421517Y-250422D01*
Y-249960D01*
X-421284Y-250115D01*
D02*
G37*
G36*
X-428724Y-250630D02*
X-428294Y-251667D01*
X-428207Y-252324D01*
X-428696Y-252227D01*
X-429116Y-251947D01*
X-429396Y-251527D01*
X-429495Y-251031D01*
X-429396Y-250536D01*
X-429117Y-250117D01*
X-428724Y-250630D01*
D02*
G37*
G36*
X-154876Y-255391D02*
X-155097Y-255722D01*
X-155428Y-255943D01*
X-155818Y-256021D01*
X-156208Y-255943D01*
X-156539Y-255722D01*
X-156728Y-255439D01*
X-155218Y-255139D01*
X-154826D01*
X-154876Y-255391D01*
D02*
G37*
G36*
X-320276Y-251745D02*
X-319741D01*
Y-256285D01*
X-321780D01*
Y-239267D01*
X-320276D01*
Y-251745D01*
D02*
G37*
G36*
X-195390Y-255313D02*
X-194970Y-255594D01*
X-194715Y-255976D01*
Y-257043D01*
X-194969Y-257423D01*
X-195362Y-256911D01*
X-195792Y-255873D01*
X-195879Y-255216D01*
X-195390Y-255313D01*
D02*
G37*
G36*
X-201980Y-255873D02*
X-202410Y-256911D01*
X-202803Y-257423D01*
X-203082Y-257005D01*
X-203181Y-256510D01*
X-203082Y-256014D01*
X-202802Y-255594D01*
X-202382Y-255313D01*
X-201893Y-255216D01*
X-201980Y-255873D01*
D02*
G37*
G36*
X-345741Y-227571D02*
Y-260729D01*
X-347244D01*
Y-226067D01*
X-345741Y-227571D01*
D02*
G37*
G36*
X-421704Y-259835D02*
X-421284Y-260115D01*
X-421004Y-260535D01*
X-420905Y-261031D01*
X-421004Y-261527D01*
X-421283Y-261945D01*
X-421676Y-261432D01*
X-422106Y-260395D01*
X-422193Y-259737D01*
X-421704Y-259835D01*
D02*
G37*
G36*
X-428294Y-260395D02*
X-428724Y-261432D01*
X-429117Y-261945D01*
X-429396Y-261527D01*
X-429495Y-261031D01*
X-429396Y-260535D01*
X-429116Y-260115D01*
X-428696Y-259835D01*
X-428207Y-259737D01*
X-428294Y-260395D01*
D02*
G37*
G36*
X-347244Y-263245D02*
X-347780D01*
Y-260729D01*
X-347244D01*
Y-263245D01*
D02*
G37*
G36*
X-155428Y-267059D02*
X-155097Y-267280D01*
X-154876Y-267611D01*
X-154798Y-268001D01*
Y-268053D01*
X-155218D01*
X-156292Y-267911D01*
X-156780Y-267709D01*
X-156760Y-267611D01*
X-156539Y-267280D01*
X-156208Y-267059D01*
X-155818Y-266981D01*
X-155428Y-267059D01*
D02*
G37*
G36*
X-194715Y-266467D02*
Y-267535D01*
X-194970Y-267917D01*
X-195390Y-268197D01*
X-195879Y-268294D01*
X-195792Y-267637D01*
X-195362Y-266600D01*
X-194969Y-266087D01*
X-194715Y-266467D01*
D02*
G37*
G36*
X-202410Y-266600D02*
X-201980Y-267637D01*
X-201893Y-268294D01*
X-202382Y-268197D01*
X-202802Y-267917D01*
X-203082Y-267496D01*
X-203181Y-267001D01*
X-203082Y-266506D01*
X-202803Y-266087D01*
X-202410Y-266600D01*
D02*
G37*
G36*
X-118998Y-266506D02*
X-118899Y-267001D01*
X-118998Y-267496D01*
X-119278Y-267917D01*
X-119698Y-268197D01*
X-120187Y-268295D01*
X-120100Y-267637D01*
X-119670Y-266600D01*
X-119277Y-266087D01*
X-118998Y-266506D01*
D02*
G37*
G36*
X-126718Y-266600D02*
X-126288Y-267637D01*
X-126201Y-268295D01*
X-126690Y-268197D01*
X-127110Y-267917D01*
X-127390Y-267496D01*
X-127489Y-267001D01*
X-127390Y-266506D01*
X-127111Y-266087D01*
X-126718Y-266600D01*
D02*
G37*
G36*
X-303785Y-273874D02*
X-302958Y-274427D01*
X-302745Y-274745D01*
X-306775D01*
X-306562Y-274427D01*
X-305735Y-273874D01*
X-304760Y-273680D01*
X-303785Y-273874D01*
D02*
G37*
G36*
X-319741Y-274745D02*
X-320276D01*
Y-259713D01*
X-319741D01*
Y-274745D01*
D02*
G37*
G36*
X-195390Y-275805D02*
X-194970Y-276085D01*
X-194690Y-276505D01*
X-194591Y-277001D01*
X-194690Y-277496D01*
X-194969Y-277915D01*
X-195362Y-277402D01*
X-195792Y-276365D01*
X-195879Y-275707D01*
X-195390Y-275805D01*
D02*
G37*
G36*
X-201980Y-276365D02*
X-202410Y-277402D01*
X-202803Y-277915D01*
X-203082Y-277496D01*
X-203181Y-277001D01*
X-203082Y-276505D01*
X-202802Y-276085D01*
X-202382Y-275805D01*
X-201893Y-275707D01*
X-201980Y-276365D01*
D02*
G37*
G36*
X-119698Y-275805D02*
X-119278Y-276085D01*
X-118998Y-276506D01*
X-118899Y-277001D01*
X-118998Y-277496D01*
X-119277Y-277915D01*
X-119670Y-277402D01*
X-120100Y-276365D01*
X-120187Y-275708D01*
X-119698Y-275805D01*
D02*
G37*
G36*
X-126288Y-276365D02*
X-126718Y-277402D01*
X-127111Y-277915D01*
X-127390Y-277496D01*
X-127489Y-277001D01*
X-127390Y-276506D01*
X-127110Y-276085D01*
X-126690Y-275805D01*
X-126201Y-275708D01*
X-126288Y-276365D01*
D02*
G37*
D10*
X-538814Y-118819D02*
G03*
X-538814Y-118819I-2236J0D01*
G01*
D11*
X-12700Y-292100D02*
X12700D01*
X-12700D02*
Y12700D01*
X12700D01*
Y-6350D02*
Y12700D01*
Y-292100D02*
Y-6350D01*
X-629050Y-172819D02*
Y-95819D01*
X-346760Y-210729D02*
X-320760D01*
X-464260Y-100597D02*
X-438010D01*
D12*
X11938Y64388D02*
X9653D01*
X10795D01*
Y58675D01*
X9653Y57532D01*
X8510D01*
X7368Y58675D01*
X14223Y57532D02*
X16509D01*
X15366D01*
Y64388D01*
X14223Y63245D01*
X-614396Y-68726D02*
X-616681D01*
X-615539D01*
Y-74439D01*
X-616681Y-75581D01*
X-617824D01*
X-618967Y-74439D01*
X-607540Y-75581D02*
X-612111D01*
X-607540Y-71011D01*
Y-69868D01*
X-608683Y-68726D01*
X-610968D01*
X-612111Y-69868D01*
X-567184Y-289589D02*
X-566042Y-290731D01*
X-563757D01*
X-562614Y-289589D01*
Y-285018D01*
X-563757Y-283876D01*
X-566042D01*
X-567184Y-285018D01*
X-569470Y-283876D02*
X-571755D01*
X-570612D01*
Y-290731D01*
X-569470Y-289589D01*
X-575183D02*
X-576326Y-290731D01*
X-578611D01*
X-579753Y-289589D01*
Y-288446D01*
X-578611Y-287303D01*
X-577468D01*
X-578611D01*
X-579753Y-286161D01*
Y-285018D01*
X-578611Y-283876D01*
X-576326D01*
X-575183Y-285018D01*
X-219708Y-85016D02*
X-220850Y-86159D01*
Y-88444D01*
X-219708Y-89587D01*
X-215137D01*
X-213995Y-88444D01*
Y-86159D01*
X-215137Y-85016D01*
X-213995Y-82731D02*
Y-80446D01*
Y-81588D01*
X-220850D01*
X-219708Y-82731D01*
X-220850Y-72447D02*
X-219708Y-74733D01*
X-217422Y-77018D01*
X-215137D01*
X-213995Y-75875D01*
Y-73590D01*
X-215137Y-72447D01*
X-216280D01*
X-217422Y-73590D01*
Y-77018D01*
X-213494Y-109455D02*
X-220350D01*
Y-106027D01*
X-219208Y-104884D01*
X-216922D01*
X-215780Y-106027D01*
Y-109455D01*
Y-107170D02*
X-213494Y-104884D01*
Y-99171D02*
X-220350D01*
X-216922Y-102599D01*
Y-98028D01*
X-213494Y-124654D02*
X-220350D01*
Y-121226D01*
X-219208Y-120083D01*
X-216922D01*
X-215780Y-121226D01*
Y-124654D01*
Y-122369D02*
X-213494Y-120083D01*
X-220350Y-113228D02*
X-219208Y-115513D01*
X-216922Y-117798D01*
X-214637D01*
X-213494Y-116655D01*
Y-114370D01*
X-214637Y-113228D01*
X-215780D01*
X-216922Y-114370D01*
Y-117798D01*
X-213494Y-145865D02*
X-220350D01*
Y-142437D01*
X-219208Y-141295D01*
X-216922D01*
X-215780Y-142437D01*
Y-145865D01*
Y-143580D02*
X-213494Y-141295D01*
Y-139010D02*
Y-136724D01*
Y-137867D01*
X-220350D01*
X-219208Y-139010D01*
X-213494Y-133296D02*
Y-131011D01*
Y-132154D01*
X-220350D01*
X-219208Y-133296D01*
X-213494Y-163649D02*
X-220350D01*
Y-160221D01*
X-219208Y-159078D01*
X-216922D01*
X-215780Y-160221D01*
Y-163649D01*
Y-161364D02*
X-213494Y-159078D01*
X-219208Y-156793D02*
X-220350Y-155650D01*
Y-153365D01*
X-219208Y-152222D01*
X-218065D01*
X-216922Y-153365D01*
X-215780Y-152222D01*
X-214637D01*
X-213494Y-153365D01*
Y-155650D01*
X-214637Y-156793D01*
X-215780D01*
X-216922Y-155650D01*
X-218065Y-156793D01*
X-219208D01*
X-216922Y-155650D02*
Y-153365D01*
X-213494Y-187146D02*
X-220350D01*
Y-183718D01*
X-219208Y-182575D01*
X-216922D01*
X-215780Y-183718D01*
Y-187146D01*
Y-184860D02*
X-213494Y-182575D01*
Y-180290D02*
Y-178004D01*
Y-179147D01*
X-220350D01*
X-219208Y-180290D01*
Y-174576D02*
X-220350Y-173434D01*
Y-171149D01*
X-219208Y-170006D01*
X-218065D01*
X-216922Y-171149D01*
Y-172291D01*
Y-171149D01*
X-215780Y-170006D01*
X-214637D01*
X-213494Y-171149D01*
Y-173434D01*
X-214637Y-174576D01*
X-122596Y-104700D02*
X-115740D01*
Y-108128D01*
X-116883Y-109271D01*
X-119168D01*
X-120311Y-108128D01*
Y-104700D01*
Y-106986D02*
X-122596Y-109271D01*
X-115740Y-116127D02*
Y-111556D01*
X-119168D01*
X-118025Y-113841D01*
Y-114984D01*
X-119168Y-116127D01*
X-121453D01*
X-122596Y-114984D01*
Y-112699D01*
X-121453Y-111556D01*
X-107679Y-165991D02*
Y-159136D01*
X-104251D01*
X-103109Y-160278D01*
Y-162563D01*
X-104251Y-163706D01*
X-107679D01*
X-105394D02*
X-103109Y-165991D01*
X-100823D02*
X-98538D01*
X-99681D01*
Y-159136D01*
X-100823Y-160278D01*
X-95110D02*
X-93967Y-159136D01*
X-91682D01*
X-90540Y-160278D01*
Y-164849D01*
X-91682Y-165991D01*
X-93967D01*
X-95110Y-164849D01*
Y-160278D01*
X-103875Y-178816D02*
X-105017Y-177673D01*
X-107303D01*
X-108445Y-178816D01*
Y-183386D01*
X-107303Y-184529D01*
X-105017D01*
X-103875Y-183386D01*
X-101589Y-178816D02*
X-100447Y-177673D01*
X-98161D01*
X-97019Y-178816D01*
Y-179958D01*
X-98161Y-181101D01*
X-99304D01*
X-98161D01*
X-97019Y-182244D01*
Y-183386D01*
X-98161Y-184529D01*
X-100447D01*
X-101589Y-183386D01*
X-94733Y-177673D02*
X-90163D01*
Y-178816D01*
X-94733Y-183386D01*
Y-184529D01*
X-105665Y-272889D02*
Y-266033D01*
X-102237D01*
X-101095Y-267176D01*
Y-269461D01*
X-102237Y-270604D01*
X-105665D01*
X-103380D02*
X-101095Y-272889D01*
X-94239D02*
X-98809D01*
X-94239Y-268318D01*
Y-267176D01*
X-95381Y-266033D01*
X-97667D01*
X-98809Y-267176D01*
X-87383Y-272889D02*
X-91953D01*
X-87383Y-268318D01*
Y-267176D01*
X-88526Y-266033D01*
X-90811D01*
X-91953Y-267176D01*
X-123491Y-196911D02*
X-116635D01*
Y-200339D01*
X-117778Y-201482D01*
X-120063D01*
X-121206Y-200339D01*
Y-196911D01*
Y-199197D02*
X-123491Y-201482D01*
Y-203767D02*
Y-206052D01*
Y-204910D01*
X-116635D01*
X-117778Y-203767D01*
X-122349Y-209480D02*
X-123491Y-210623D01*
Y-212908D01*
X-122349Y-214051D01*
X-117778D01*
X-116635Y-212908D01*
Y-210623D01*
X-117778Y-209480D01*
X-118921D01*
X-120063Y-210623D01*
Y-214051D01*
X-171243Y-189779D02*
Y-182923D01*
X-167815D01*
X-166672Y-184065D01*
Y-186351D01*
X-167815Y-187493D01*
X-171243D01*
X-168958D02*
X-166672Y-189779D01*
X-164387D02*
X-162102D01*
X-163244D01*
Y-182923D01*
X-164387Y-184065D01*
X-158674Y-182923D02*
X-154103D01*
Y-184065D01*
X-158674Y-188636D01*
Y-189779D01*
X-206948Y-190371D02*
Y-183515D01*
X-203520D01*
X-202377Y-184658D01*
Y-186943D01*
X-203520Y-188086D01*
X-206948D01*
X-204662D02*
X-202377Y-190371D01*
X-200092D02*
X-197807D01*
X-198949D01*
Y-183515D01*
X-200092Y-184658D01*
X-194379D02*
X-193236Y-183515D01*
X-190951D01*
X-189808Y-184658D01*
Y-185800D01*
X-190951Y-186943D01*
X-189808Y-188086D01*
Y-189228D01*
X-190951Y-190371D01*
X-193236D01*
X-194379Y-189228D01*
Y-188086D01*
X-193236Y-186943D01*
X-194379Y-185800D01*
Y-184658D01*
X-193236Y-186943D02*
X-190951D01*
X-213746Y-220468D02*
X-220602D01*
Y-217040D01*
X-219459Y-215898D01*
X-217174D01*
X-216031Y-217040D01*
Y-220468D01*
Y-218183D02*
X-213746Y-215898D01*
Y-209042D02*
Y-213612D01*
X-218317Y-209042D01*
X-219459D01*
X-220602Y-210184D01*
Y-212470D01*
X-219459Y-213612D01*
Y-206756D02*
X-220602Y-205614D01*
Y-203329D01*
X-219459Y-202186D01*
X-214889D01*
X-213746Y-203329D01*
Y-205614D01*
X-214889Y-206756D01*
X-219459D01*
X-213746Y-242757D02*
X-220602D01*
Y-239329D01*
X-219459Y-238186D01*
X-217174D01*
X-216031Y-239329D01*
Y-242757D01*
Y-240471D02*
X-213746Y-238186D01*
Y-235901D02*
Y-233616D01*
Y-234758D01*
X-220602D01*
X-219459Y-235901D01*
X-220602Y-225617D02*
Y-230188D01*
X-217174D01*
X-218317Y-227903D01*
Y-226760D01*
X-217174Y-225617D01*
X-214889D01*
X-213746Y-226760D01*
Y-229045D01*
X-214889Y-230188D01*
X-214254Y-262759D02*
X-221110D01*
Y-259331D01*
X-219967Y-258189D01*
X-217682D01*
X-216539Y-259331D01*
Y-262759D01*
Y-260474D02*
X-214254Y-258189D01*
Y-251333D02*
Y-255904D01*
X-218825Y-251333D01*
X-219967D01*
X-221110Y-252476D01*
Y-254761D01*
X-219967Y-255904D01*
X-214254Y-249048D02*
Y-246763D01*
Y-247905D01*
X-221110D01*
X-219967Y-249048D01*
X-214254Y-283397D02*
X-221110D01*
Y-279969D01*
X-219967Y-278826D01*
X-217682D01*
X-216539Y-279969D01*
Y-283397D01*
Y-281112D02*
X-214254Y-278826D01*
Y-276541D02*
Y-274256D01*
Y-275398D01*
X-221110D01*
X-219967Y-276541D01*
X-214254Y-267400D02*
X-221110D01*
X-217682Y-270828D01*
Y-266257D01*
X-151119Y-273938D02*
X-146549D01*
X-145406Y-272796D01*
Y-270511D01*
X-146549Y-269368D01*
X-151119D01*
X-152262Y-270511D01*
Y-272796D01*
X-149977Y-271653D02*
X-152262Y-273938D01*
Y-272796D02*
X-151119Y-273938D01*
X-152262Y-279652D02*
X-145406D01*
X-148834Y-276224D01*
Y-280794D01*
X-149863Y-236584D02*
X-145293D01*
X-144150Y-235442D01*
Y-233157D01*
X-145293Y-232014D01*
X-149863D01*
X-151006Y-233157D01*
Y-235442D01*
X-148721Y-234299D02*
X-151006Y-236584D01*
Y-235442D02*
X-149863Y-236584D01*
X-145293Y-238870D02*
X-144150Y-240012D01*
Y-242297D01*
X-145293Y-243440D01*
X-146435D01*
X-147578Y-242297D01*
Y-241155D01*
Y-242297D01*
X-148721Y-243440D01*
X-149863D01*
X-151006Y-242297D01*
Y-240012D01*
X-149863Y-238870D01*
X-143627Y-155446D02*
Y-150876D01*
X-144769Y-149733D01*
X-147055D01*
X-148197Y-150876D01*
Y-155446D01*
X-147055Y-156589D01*
X-144769D01*
X-145912Y-154304D02*
X-143627Y-156589D01*
X-144769D02*
X-143627Y-155446D01*
X-136771Y-156589D02*
X-141341D01*
X-136771Y-152018D01*
Y-150876D01*
X-137914Y-149733D01*
X-140199D01*
X-141341Y-150876D01*
X-144262Y-118616D02*
Y-114046D01*
X-145405Y-112903D01*
X-147690D01*
X-148833Y-114046D01*
Y-118616D01*
X-147690Y-119759D01*
X-145405D01*
X-146547Y-117474D02*
X-144262Y-119759D01*
X-145405D02*
X-144262Y-118616D01*
X-141977Y-119759D02*
X-139691D01*
X-140834D01*
Y-112903D01*
X-141977Y-114046D01*
X-144016Y-84008D02*
X-145158Y-85150D01*
Y-87436D01*
X-144016Y-88578D01*
X-139445D01*
X-138302Y-87436D01*
Y-85150D01*
X-139445Y-84008D01*
X-144016Y-81722D02*
X-145158Y-80580D01*
Y-78295D01*
X-144016Y-77152D01*
X-142873D01*
X-141730Y-78295D01*
Y-79437D01*
Y-78295D01*
X-140588Y-77152D01*
X-139445D01*
X-138302Y-78295D01*
Y-80580D01*
X-139445Y-81722D01*
X-145158Y-70296D02*
X-144016Y-72582D01*
X-141730Y-74867D01*
X-139445D01*
X-138302Y-73724D01*
Y-71439D01*
X-139445Y-70296D01*
X-140588D01*
X-141730Y-71439D01*
Y-74867D01*
X-111753Y1572D02*
Y-5284D01*
X-108325D01*
X-107182Y-4142D01*
Y429D01*
X-108325Y1572D01*
X-111753D01*
X-101469Y-5284D02*
Y1572D01*
X-104897Y-1856D01*
X-100326D01*
X-156325Y889D02*
Y-5967D01*
X-152897D01*
X-151755Y-4824D01*
Y-254D01*
X-152897Y889D01*
X-156325D01*
X-144899Y-5967D02*
X-149469D01*
X-144899Y-1396D01*
Y-254D01*
X-146041Y889D01*
X-148327D01*
X-149469Y-254D01*
X-204594Y-49D02*
Y-6905D01*
X-201166D01*
X-200023Y-5762D01*
Y-1192D01*
X-201166Y-49D01*
X-204594D01*
X-193168D02*
X-197738D01*
Y-3477D01*
X-195453Y-2334D01*
X-194310D01*
X-193168Y-3477D01*
Y-5762D01*
X-194310Y-6905D01*
X-196595D01*
X-197738Y-5762D01*
X-66529Y-37018D02*
X-67672Y-38161D01*
Y-40446D01*
X-66529Y-41589D01*
X-61959D01*
X-60816Y-40446D01*
Y-38161D01*
X-61959Y-37018D01*
X-60816Y-34733D02*
Y-32448D01*
Y-33590D01*
X-67672D01*
X-66529Y-34733D01*
X-61959Y-29020D02*
X-60816Y-27877D01*
Y-25592D01*
X-61959Y-24449D01*
X-66529D01*
X-67672Y-25592D01*
Y-27877D01*
X-66529Y-29020D01*
X-65387D01*
X-64244Y-27877D01*
Y-24449D01*
X-32628Y-12194D02*
X-25772D01*
Y-15622D01*
X-26915Y-16765D01*
X-29200D01*
X-30343Y-15622D01*
Y-12194D01*
Y-14479D02*
X-32628Y-16765D01*
X-26915Y-19050D02*
X-25772Y-20192D01*
Y-22478D01*
X-26915Y-23620D01*
X-28057D01*
X-29200Y-22478D01*
Y-21335D01*
Y-22478D01*
X-30343Y-23620D01*
X-31485D01*
X-32628Y-22478D01*
Y-20192D01*
X-31485Y-19050D01*
X-26915Y-25905D02*
X-25772Y-27048D01*
Y-29333D01*
X-26915Y-30476D01*
X-31485D01*
X-32628Y-29333D01*
Y-27048D01*
X-31485Y-25905D01*
X-26915D01*
X-247526Y-242826D02*
X-240670D01*
Y-246254D01*
X-241813Y-247397D01*
X-244098D01*
X-245241Y-246254D01*
Y-242826D01*
Y-245111D02*
X-247526Y-247397D01*
Y-254252D02*
Y-249682D01*
X-242955Y-254252D01*
X-241813D01*
X-240670Y-253110D01*
Y-250824D01*
X-241813Y-249682D01*
X-240670Y-261108D02*
Y-256537D01*
X-244098D01*
X-242955Y-258823D01*
Y-259965D01*
X-244098Y-261108D01*
X-246383D01*
X-247526Y-259965D01*
Y-257680D01*
X-246383Y-256537D01*
X-279785Y-204438D02*
X-280927Y-203295D01*
X-283213D01*
X-284355Y-204438D01*
Y-209008D01*
X-283213Y-210151D01*
X-280927D01*
X-279785Y-209008D01*
X-272929Y-203295D02*
X-275214Y-204438D01*
X-277499Y-206723D01*
Y-209008D01*
X-276357Y-210151D01*
X-274072D01*
X-272929Y-209008D01*
Y-207866D01*
X-274072Y-206723D01*
X-277499D01*
X-261817Y-275609D02*
X-262959Y-274466D01*
X-265244D01*
X-266387Y-275609D01*
Y-280180D01*
X-265244Y-281322D01*
X-262959D01*
X-261817Y-280180D01*
X-259531Y-274466D02*
X-254961D01*
Y-275609D01*
X-259531Y-280180D01*
Y-281322D01*
X-263057Y-204438D02*
X-264199Y-203295D01*
X-266485D01*
X-267627Y-204438D01*
Y-209008D01*
X-266485Y-210151D01*
X-264199D01*
X-263057Y-209008D01*
X-260772Y-204438D02*
X-259629Y-203295D01*
X-257344D01*
X-256201Y-204438D01*
Y-205580D01*
X-257344Y-206723D01*
X-256201Y-207866D01*
Y-209008D01*
X-257344Y-210151D01*
X-259629D01*
X-260772Y-209008D01*
Y-207866D01*
X-259629Y-206723D01*
X-260772Y-205580D01*
Y-204438D01*
X-259629Y-206723D02*
X-257344D01*
X-279154Y-275499D02*
X-280296Y-274357D01*
X-282582D01*
X-283724Y-275499D01*
Y-280070D01*
X-282582Y-281213D01*
X-280296D01*
X-279154Y-280070D01*
X-276868D02*
X-275726Y-281213D01*
X-273440D01*
X-272298Y-280070D01*
Y-275499D01*
X-273440Y-274357D01*
X-275726D01*
X-276868Y-275499D01*
Y-276642D01*
X-275726Y-277785D01*
X-272298D01*
X-316867Y-141351D02*
Y-148207D01*
X-313439D01*
X-312297Y-147064D01*
Y-142494D01*
X-313439Y-141351D01*
X-316867D01*
X-310011Y-142494D02*
X-308869Y-141351D01*
X-306583D01*
X-305441Y-142494D01*
Y-143636D01*
X-306583Y-144779D01*
X-307726D01*
X-306583D01*
X-305441Y-145922D01*
Y-147064D01*
X-306583Y-148207D01*
X-308869D01*
X-310011Y-147064D01*
X-376811Y-216789D02*
Y-222502D01*
X-375669Y-223645D01*
X-373383D01*
X-372241Y-222502D01*
Y-216789D01*
X-365385Y-223645D02*
X-369955D01*
X-365385Y-219074D01*
Y-217932D01*
X-366527Y-216789D01*
X-368813D01*
X-369955Y-217932D01*
X-408966Y-242826D02*
X-402110D01*
Y-246254D01*
X-403253Y-247397D01*
X-405538D01*
X-406681Y-246254D01*
Y-242826D01*
Y-245111D02*
X-408966Y-247397D01*
Y-254252D02*
Y-249682D01*
X-404395Y-254252D01*
X-403253D01*
X-402110Y-253110D01*
Y-250824D01*
X-403253Y-249682D01*
X-402110Y-261108D02*
X-403253Y-258823D01*
X-405538Y-256537D01*
X-407823D01*
X-408966Y-257680D01*
Y-259965D01*
X-407823Y-261108D01*
X-406681D01*
X-405538Y-259965D01*
Y-256537D01*
X-402253Y-239672D02*
X-401110Y-238529D01*
Y-236244D01*
X-402253Y-235102D01*
X-406823D01*
X-407966Y-236244D01*
Y-238529D01*
X-406823Y-239672D01*
X-407966Y-241957D02*
Y-244243D01*
Y-243100D01*
X-401110D01*
X-402253Y-241957D01*
Y-247671D02*
X-401110Y-248813D01*
Y-251098D01*
X-402253Y-252241D01*
X-406823D01*
X-407966Y-251098D01*
Y-248813D01*
X-406823Y-247671D01*
X-402253D01*
X-567181Y-273867D02*
X-566039Y-275010D01*
X-563753D01*
X-562611Y-273867D01*
Y-269296D01*
X-563753Y-268154D01*
X-566039D01*
X-567181Y-269296D01*
X-569467Y-268154D02*
X-571752D01*
X-570609D01*
Y-275010D01*
X-569467Y-273867D01*
X-578607Y-268154D02*
Y-275010D01*
X-575180Y-271582D01*
X-579750D01*
X-566457Y-258638D02*
X-565314Y-259781D01*
X-563029D01*
X-561886Y-258638D01*
Y-254067D01*
X-563029Y-252925D01*
X-565314D01*
X-566457Y-254067D01*
X-568742Y-252925D02*
X-571027D01*
X-569884D01*
Y-259781D01*
X-568742Y-258638D01*
X-579025Y-252925D02*
X-574455D01*
X-579025Y-257495D01*
Y-258638D01*
X-577883Y-259781D01*
X-575598D01*
X-574455Y-258638D01*
X-566457Y-242909D02*
X-565314Y-244051D01*
X-563029D01*
X-561886Y-242909D01*
Y-238338D01*
X-563029Y-237195D01*
X-565314D01*
X-566457Y-238338D01*
X-568742Y-237195D02*
X-571027D01*
X-569884D01*
Y-244051D01*
X-568742Y-242909D01*
X-574455Y-237195D02*
X-576740D01*
X-575598D01*
Y-244051D01*
X-574455Y-242909D01*
X-510956Y-199493D02*
Y-205206D01*
X-509813Y-206349D01*
X-507528D01*
X-506385Y-205206D01*
Y-199493D01*
X-504100Y-200636D02*
X-502958Y-199493D01*
X-500672D01*
X-499530Y-200636D01*
Y-201778D01*
X-500672Y-202921D01*
X-501815D01*
X-500672D01*
X-499530Y-204064D01*
Y-205206D01*
X-500672Y-206349D01*
X-502958D01*
X-504100Y-205206D01*
X-480187Y-115881D02*
X-481330Y-117024D01*
Y-119309D01*
X-480187Y-120451D01*
X-475616D01*
X-474474Y-119309D01*
Y-117024D01*
X-475616Y-115881D01*
X-474474Y-113596D02*
Y-111311D01*
Y-112453D01*
X-481330D01*
X-480187Y-113596D01*
X-481330Y-107883D02*
Y-103312D01*
X-480187D01*
X-475616Y-107883D01*
X-474474D01*
X-513815Y-128835D02*
Y-121979D01*
X-510387D01*
X-509244Y-123122D01*
Y-125407D01*
X-510387Y-126550D01*
X-513815D01*
X-511529D02*
X-509244Y-128835D01*
X-502388D02*
X-506959D01*
X-502388Y-124264D01*
Y-123122D01*
X-503531Y-121979D01*
X-505816D01*
X-506959Y-123122D01*
X-500103D02*
X-498960Y-121979D01*
X-496675D01*
X-495533Y-123122D01*
Y-124264D01*
X-496675Y-125407D01*
X-495533Y-126550D01*
Y-127692D01*
X-496675Y-128835D01*
X-498960D01*
X-500103Y-127692D01*
Y-126550D01*
X-498960Y-125407D01*
X-500103Y-124264D01*
Y-123122D01*
X-498960Y-125407D02*
X-496675D01*
X-486163Y-184697D02*
Y-191553D01*
X-481593D01*
X-474737Y-184697D02*
X-477022Y-185840D01*
X-479308Y-188125D01*
Y-190410D01*
X-478165Y-191553D01*
X-475880D01*
X-474737Y-190410D01*
Y-189268D01*
X-475880Y-188125D01*
X-479308D01*
X-306517Y6858D02*
X-307660Y8001D01*
X-309945D01*
X-311088Y6858D01*
Y2288D01*
X-309945Y1145D01*
X-307660D01*
X-306517Y2288D01*
X-304232Y1145D02*
X-301947D01*
X-303089D01*
Y8001D01*
X-304232Y6858D01*
X-293948Y8001D02*
X-298519D01*
Y4573D01*
X-296234Y5716D01*
X-295091D01*
X-293948Y4573D01*
Y2288D01*
X-295091Y1145D01*
X-297376D01*
X-298519Y2288D01*
X-537339Y691D02*
Y-5022D01*
X-536197Y-6165D01*
X-533911D01*
X-532769Y-5022D01*
Y691D01*
X-527056Y-6165D02*
Y691D01*
X-530483Y-2737D01*
X-525913D01*
X-54089Y-64133D02*
Y-57277D01*
X-50661D01*
X-49519Y-58420D01*
Y-60705D01*
X-50661Y-61848D01*
X-54089D01*
X-51804D02*
X-49519Y-64133D01*
X-42663D02*
X-47233D01*
X-42663Y-59562D01*
Y-58420D01*
X-43805Y-57277D01*
X-46091D01*
X-47233Y-58420D01*
X-40377Y-57277D02*
X-35807D01*
Y-58420D01*
X-40377Y-62990D01*
Y-64133D01*
X-61686Y-17205D02*
X-68542D01*
Y-13777D01*
X-67399Y-12634D01*
X-65114D01*
X-63972Y-13777D01*
Y-17205D01*
Y-14919D02*
X-61686Y-12634D01*
Y-5778D02*
Y-10349D01*
X-66257Y-5778D01*
X-67399D01*
X-68542Y-6921D01*
Y-9206D01*
X-67399Y-10349D01*
X-62829Y-3493D02*
X-61686Y-2350D01*
Y-65D01*
X-62829Y1078D01*
X-67399D01*
X-68542Y-65D01*
Y-2350D01*
X-67399Y-3493D01*
X-66257D01*
X-65114Y-2350D01*
Y1078D01*
X-49519Y28321D02*
X-44948D01*
Y27178D01*
X-49519Y22608D01*
Y21465D01*
X-44948D01*
X-42663D02*
X-40377D01*
X-41520D01*
Y28321D01*
X-42663Y27178D01*
X-65185Y-185904D02*
X-64042Y-184761D01*
X-61757D01*
X-60614Y-185904D01*
Y-190474D01*
X-61757Y-191617D01*
X-64042D01*
X-65185Y-190474D01*
X-72040Y-191617D02*
X-67470D01*
X-72040Y-187046D01*
Y-185904D01*
X-70898Y-184761D01*
X-68612D01*
X-67470Y-185904D01*
X-74326D02*
X-75468Y-184761D01*
X-77754D01*
X-78896Y-185904D01*
Y-187046D01*
X-77754Y-188189D01*
X-78896Y-189332D01*
Y-190474D01*
X-77754Y-191617D01*
X-75468D01*
X-74326Y-190474D01*
Y-189332D01*
X-75468Y-188189D01*
X-74326Y-187046D01*
Y-185904D01*
X-75468Y-188189D02*
X-77754D01*
X-101333Y18671D02*
Y25527D01*
X-97905D01*
X-96763Y24384D01*
Y22099D01*
X-97905Y20956D01*
X-101333D01*
X-99048D02*
X-96763Y18671D01*
X-94477Y24384D02*
X-93335Y25527D01*
X-91049D01*
X-89907Y24384D01*
Y23242D01*
X-91049Y22099D01*
X-92192D01*
X-91049D01*
X-89907Y20956D01*
Y19814D01*
X-91049Y18671D01*
X-93335D01*
X-94477Y19814D01*
X-83051Y25527D02*
X-85336Y24384D01*
X-87621Y22099D01*
Y19814D01*
X-86479Y18671D01*
X-84194D01*
X-83051Y19814D01*
Y20956D01*
X-84194Y22099D01*
X-87621D01*
X-167007Y-93387D02*
Y-86531D01*
X-163579D01*
X-162437Y-87674D01*
Y-89959D01*
X-163579Y-91102D01*
X-167007D01*
X-164722D02*
X-162437Y-93387D01*
X-155581D02*
X-160151D01*
X-155581Y-88817D01*
Y-87674D01*
X-156723Y-86531D01*
X-159009D01*
X-160151Y-87674D01*
X-511137Y-183216D02*
X-512280Y-182074D01*
X-514565D01*
X-515708Y-183216D01*
Y-187787D01*
X-514565Y-188930D01*
X-512280D01*
X-511137Y-187787D01*
X-508852Y-188930D02*
X-506567D01*
X-507709D01*
Y-182074D01*
X-508852Y-183216D01*
X-503139D02*
X-501996Y-182074D01*
X-499711D01*
X-498568Y-183216D01*
Y-184359D01*
X-499711Y-185502D01*
X-498568Y-186644D01*
Y-187787D01*
X-499711Y-188930D01*
X-501996D01*
X-503139Y-187787D01*
Y-186644D01*
X-501996Y-185502D01*
X-503139Y-184359D01*
Y-183216D01*
X-501996Y-185502D02*
X-499711D01*
M02*
