G04*
G04 #@! TF.GenerationSoftware,Altium Limited,Altium Designer,24.0.1 (36)*
G04*
G04 Layer_Color=8388736*
%FSLAX44Y44*%
%MOMM*%
G71*
G04*
G04 #@! TF.SameCoordinates,E4E742BE-E936-4CAC-BADB-82586D2B27CE*
G04*
G04*
G04 #@! TF.FilePolarity,Positive*
G04*
G01*
G75*
%ADD11C,0.1524*%
%ADD46C,0.2540*%
D11*
X-707119Y164039D02*
X-722355D01*
X-714737Y156422D01*
Y166579D01*
X-707119Y181814D02*
Y171657D01*
X-717276Y181814D01*
X-719815D01*
X-722355Y179275D01*
Y174196D01*
X-719815Y171657D01*
X-707119Y186892D02*
X-709659D01*
Y189431D01*
X-707119D01*
Y186892D01*
X-719815Y199588D02*
X-722355Y202127D01*
Y207206D01*
X-719815Y209745D01*
X-709659D01*
X-707119Y207206D01*
Y202127D01*
X-709659Y199588D01*
X-719815D01*
Y214823D02*
X-722355Y217362D01*
Y222441D01*
X-719815Y224980D01*
X-709659D01*
X-707119Y222441D01*
Y217362D01*
X-709659Y214823D01*
X-719815D01*
X-707119Y230058D02*
X-717276D01*
Y232597D01*
X-714737Y235137D01*
X-707119D01*
X-714737D01*
X-717276Y237676D01*
X-714737Y240215D01*
X-707119D01*
Y245293D02*
X-717276D01*
Y247832D01*
X-714737Y250372D01*
X-707119D01*
X-714737D01*
X-717276Y252911D01*
X-714737Y255450D01*
X-707119D01*
X-368421Y489814D02*
X-373500Y487275D01*
X-378578Y482197D01*
Y477118D01*
X-376039Y474579D01*
X-370960D01*
X-368421Y477118D01*
Y479658D01*
X-370960Y482197D01*
X-378578D01*
X-353186Y489814D02*
X-363343D01*
Y482197D01*
X-358265Y484736D01*
X-355725D01*
X-353186Y482197D01*
Y477118D01*
X-355725Y474579D01*
X-360804D01*
X-363343Y477118D01*
X-348108Y474579D02*
Y477118D01*
X-345569D01*
Y474579D01*
X-348108D01*
X-335412Y487275D02*
X-332873Y489814D01*
X-327794D01*
X-325255Y487275D01*
Y477118D01*
X-327794Y474579D01*
X-332873D01*
X-335412Y477118D01*
Y487275D01*
X-320177D02*
X-317638Y489814D01*
X-312559D01*
X-310020Y487275D01*
Y477118D01*
X-312559Y474579D01*
X-317638D01*
X-320177Y477118D01*
Y487275D01*
X-304942Y474579D02*
Y484736D01*
X-302403D01*
X-299863Y482197D01*
Y474579D01*
Y482197D01*
X-297324Y484736D01*
X-294785Y482197D01*
Y474579D01*
X-289707D02*
Y484736D01*
X-287167D01*
X-284628Y482197D01*
Y474579D01*
Y482197D01*
X-282089Y484736D01*
X-279550Y482197D01*
Y474579D01*
D46*
X-716261Y420000D02*
X-711181Y404760D01*
X-721341D02*
X-716261Y420000D01*
X-721341Y15240D02*
X-716261Y0D01*
X-711181Y15240D01*
X-716261Y259514D02*
Y420000D01*
Y0D02*
Y152358D01*
X-718801Y420000D02*
X-602540D01*
X-718801Y0D02*
X-602540D01*
X-650000Y483721D02*
X-634760Y488801D01*
X-650000Y483721D02*
X-634760Y478641D01*
X-15240D02*
X0Y483721D01*
X-15240Y488801D02*
X0Y483721D01*
X-650000D02*
X-382642D01*
X-275486D02*
X0D01*
X-650000Y362540D02*
Y486261D01*
X0Y422540D02*
Y486261D01*
M02*
