M48
;Layer_Color=9474304
;FILE_FORMAT=4:4
METRIC,LZ
;TYPE=PLATED
T01F00S00C0.3000
T02F00S00C0.9000
;TYPE=NON_PLATED
T03F00S00C0.9000
%
T01
X-00562453Y-00326154
X-00549753
X-00537053
X-00530704Y-00313454
X-00524353Y-00300754
X-00551198Y-00301389
X-00563209Y-00301309
X-00556643Y-00310117
X-00552937Y-00255921
X-00552816Y-00240184
X-00564913Y-00250602
X-0058251Y-00240445
X-00613254Y-00249954
X-00606903Y-00262654
X-00610569Y-00268872
X-00613254Y-00275354
X-00600554
X-00619604Y-00262654
Y-00237254
X-00613254Y-00224554
X-00619604Y-00211854
X-00616615Y-00195095
X-00619604Y-00161054
X-00613254Y-00148354
X-00568803Y-00161054
X-00556633Y-00159403
X-00538917Y-0016976
X-00524892Y-00170243
X-00525144Y-00192096
X-00511799Y-00192581
X-00499396Y-00194999
X-00504111Y-00219285
X-00514304Y-00238372
X-00545848Y-00209335
X-00553433Y-00201752
X-00562453Y-00199154
X-00575154
X-00581503Y-00186454
X-00575154Y-00173754
X-00539585Y-00191819
X-00499392Y-00156211
X-00488483Y-00192087
X-00472901
X-00457493
X-00472271Y-00209294
X-00481779Y-0023627
X-00489642Y-00254342
X-00472565Y-00254653
X-00460854Y-00300754
X-00448153
X-00435453
X-00422753
X-00429104Y-00313454
X-00441804
X-00435453Y-00326154
X-00422753
X-00397354Y-00275354
X-00384654
X-00371954
X-00359254
X-00346553
X-00333853
X-00321153
X-00327504Y-00262654
X-00331231Y-00227959
X-0027235Y-00247703
X-00256768
X-0024136
X-00238603Y-00262654
X-00244953Y-00275354
X-00238603Y-00288054
X-00251304
X-00244953Y-00300754
X-00232253
X-00219554
X-00206854
X-00194153
X-00181453
X-00187803Y-00313454
X-00200504
X-00213204
X-00225903
X-00238603
X-00251304
X-00244953Y-00326154
X-00232253
X-00219554
X-00206854
X-00194153
X-00163188Y-00254925
X-00163452Y-00241305
X-00174628Y-0023906
X-00138336Y-00243941
X-00124519Y-00244068
X-00141332Y-0023014
X-00141195Y-0020681
X-00141389Y-00189613
X-00136884Y-00182621
X-00100567Y-00196241
X-00104583Y-00212869
X-00097332Y-00155035
X-00200087Y-00165882
X-00236793Y-00182016
X-00225642Y-00201427
X-00247251Y-00209691
X-00276703Y-00186454
X-00280599Y-0017991
X-002897Y-00189301
X-00377532Y-00190357
X-00397354Y-00173754
X-00410053Y-00148354
X-00422753
X-00270354Y-00275354
X-00105253Y-00300754
X-00098904Y-00313454
X-00086203
X-00073503
X-00060803
X-00048103
X-00035403
X-00022703
X-00010003
X00002697
X-00003654Y-00300754
X-00016353
X-00029053
X-00041754
X-00054454
X-00067154
X-00079854
X-00092554
Y-00326154
X-00079854
X-00067154
X-00054454
X-00041754
X-00029053
X-00016353
X-00003654
X-00010003Y-00288054
X-00022703
X-00035403
X-00029053Y-00275354
X-00016353
X-00010003Y-00262654
X-00016353Y-00249954
X-00010003Y-00237254
X-00016353Y-00224554
X-00010003Y-00211854
X-00016353Y-00199154
X-00010003Y-00186454
Y-00161054
X-00071298Y-00157946
X-00074591Y-0014977
X-00065181Y-00147958
X-00053744Y-00186945
X-00060418Y-00198116
X-00051573Y-00206488
X-00052606Y-00231017
X-00048103Y-00237254
X-00054454Y-00249954
X-00074777Y-00251722
X-00087028Y-00251741
X-0008873Y-00231936
X-00094205Y-00223361
X-00072919Y-00237695
X-00054454Y-00275354
X-00052416Y-00099894
X-00062582Y-00103414
X-00072115Y-0011014
X-00088115Y-00097179
X-0008886Y-00087531
X-00083203Y-00078154
X-00091798Y-00073903
X-00048149Y-00053733
X-00016353Y-00046754
X-00010003Y-00034054
X-00016353Y-00021354
Y00004046
X-00010003Y00016746
Y00042146
X00002697
X-00003654Y00054846
X-00016353
X-00029053
X-00041754
X-00054454
X-00067154
X-00079854
X-00092554
X-00086203Y00067546
X-00073503
X-00060803
X-00048103
X-00035403
X-00022703
X-00010003
X00002697
X-00022703Y00042146
X-00035403
X-00048103
X-00060803
X-00073503
X-00086203
X-00063275Y00019956
X-00075957Y00003388
X-00072261Y-00002902
X-00069542Y-00009198
X-00067154Y-00021354
X-00031491Y-00095131
X-00031576Y-00110629
X-00010003Y-00110254
X-00016353Y-00097554
X-00010003Y-00135654
X-00097578Y-00143673
X-00105746Y-00144161
X-00104763Y-00133349
X-00118774Y-00136358
X-00124712Y-00141861
X-00115178Y-00125779
X-00104549Y-00115543
X-00126389Y-0011056
X-00135768Y-00110443
X-00162351Y-00116444
X-00162509Y-00125182
X-00217514Y-00128783
X-00230468Y-00129799
X-00238603Y-00084854
X-00230468Y-0006342
X-00217916Y-00042159
X-00193055Y-00036037
X-00194153Y00004046
X-00181453
X-00187803Y00016746
X-00200504
X-00208169Y00015735
X-00213204Y00042146
X-00200504
X-00187803
X-00194153Y00054846
X-00206854
X-00219554
X-00232253
X-00244953
X-00257654
X-00270354
X-00283053
X-00295753
X-00308454
X-00321153
X-00333853
X-00346553
X-00359254
X-00371954
X-00384654
X-00397354
X-00410053
X-00422753
X-00435453
X-00429104Y00067546
X-00416404
X-00403703
X-00391003
X-00378303
X-00365603
X-00352904
X-00340204
X-00327504
X-00314804
X-00302104
X-00289403
X-00276703
X-00264004
X-00251304
X-00238603
X-00225903
X-00213204
X-00200504
X-00187803
X-00168754Y00029446
X-00162404Y00016746
X-00149704
X-00148632Y00007875
X-00108225Y00004556
X-00116377Y-0000936
X-00106722Y-00065277
X-00101982Y-00075488
X-00102088Y-00089647
X-00141558Y-00075171
X-00148451Y-00070871
Y-00059695
Y-00048519
X-00206716Y-00081312
X-00276703Y-00059454
X-00321153Y-00046754
Y-00021354
X-00314804Y-00008654
X-00307703Y-00000891
X-00313224Y00010161
X-00314804Y00042146
X-00302104
X-00289403
X-00276703
X-00264004
X-00251304
X-00238603
X-00225903
X-00244953Y00004046
X-00297789Y-00008993
X-00340204Y-00008654
Y-00034054
X-00333853Y-00097554
X-00346553
X-00371954
X-00410053
Y-00072154
Y-00046754
X-00411505Y00006434
X-00422753Y00004046
X-00435453
X-00448153
X-00460854
X-00473554
X-00467203Y00016746
X-00454504
X-00441804
X-00429104
X-00416404
X-00403703
X-00397354Y00029446
X-00384654
X-00378303Y00042146
X-00365603
X-00352904
X-00340204
X-00327504
X-00391003
X-00403703
X-00416404
X-00429104
X-00441804
X-00435453Y00029446
X-00422753
X-00410053
X-00448153
X-00460854
X-00479903Y00016746
X-00492603
X-00441804Y00067546
X-00453484Y-00114045
X-00429104Y-00135654
X-00416404
X-00410053Y-00122954
X-00492603Y-00135654
X-00321908Y-00096271
X-00293714Y-00117607
X-00284059Y-00143804
X-00098904Y00042146
X-00505303Y00016746
X-00518004
X-00530704
X-00543404
X-00556104
X-00568803
X-00562453Y00029446
X-00549753
X-00537053
X-00524353
X-00530704Y00042146
X-00543404
X-00556104
X-00568803
X-00562453Y00054846
X-00549753
X-00537053
X-00543404Y00067546
X-00556104
X-00568803
X-00562453Y00004046
X-00549753
X-00537053
X-00524353
X-00530704Y-00008654
X-00543404
X-00556104
X-00568803
X-00581503
X-00594203
X-00606903
X-00619604
X-00613254Y00004046
X-00600554
X-00587854
X-00575154
Y-00021354
X-00562453
X-00549753
X-00537053
X-00524353
X-00530704Y-00034054
X-00543404
X-00556104
X-00568803
X-00581503
X-00594203
X-00606903
X-00619604
X-00613254Y-00021354
X-00600554
X-00587854
Y-00046754
X-00575154
X-00562453
X-00549753
X-00537053
X-00524353
X-00530704Y-00059454
X-00543404
X-00556104
X-00568803
X-00581503
X-00594203
X-00606903
X-00619604
X-00613254Y-00046754
X-00600554
Y-00072154
X-00587854
X-00575154
X-00562453
X-00549753
X-00537053
X-00524353
X-00530704Y-00084854
X-00524353Y-00097554
X-00537053
X-00532203Y-00110633
Y-00128498
X-00550068Y-00110633
X-00567934
X-00575154Y-00097554
X-00587854
X-00581503Y-00084854
X-00594203
Y-00110254
X-00606903
X-00619604
X-00613254Y-00122954
X-00619604Y-00135654
X-00613254Y-00072154
X-00500973Y-000972
X-00498607Y-00133471
X-00499085Y-00143836
T02
X0Y-002794
Y-00254
Y-002286
Y-002032
Y-001778
Y-001524
Y-00127
Y-001016
Y-000762
Y-000508
Y-000254
Y0
T03
X-0058355Y-00156819
Y-00112819
M30
