M48
;Layer_Color=9474304
;FILE_FORMAT=4:4
METRIC,LZ
;TYPE=PLATED
T01F00S00C0.3000
T02F00S00C0.9000
;TYPE=NON_PLATED
T03F00S00C0.9000
%
T01
X-00581767Y00018523
X-00569067
X-00556367
X-00550017Y00031223
X-00543667Y00043923
X-00570512Y00043288
X-00582523Y00043368
X-00575957Y0003456
X-00572251Y00088755
X-0057213Y00104493
X-00584227Y00094075
X-00601824Y00104232
X-00632567Y00094723
X-00626217Y00082023
X-00629883Y00075805
X-00632567Y00069323
X-00619867
X-00638917Y00082023
Y00107423
X-00632567Y00120123
X-00638917Y00132823
X-00635929Y00149582
X-00638917Y00183623
X-00632567Y00196323
X-00588117Y00183623
X-00575947Y00185274
X-00558231Y00174916
X-00544206Y00174434
X-00544458Y00152582
X-00531112Y00152096
X-0051871Y00149678
X-00523425Y00125392
X-00533618Y00106305
X-00565161Y00135342
X-00572747Y00142925
X-00581767Y00145523
X-00594467
X-00600817Y00158223
X-00594467Y00170923
X-00558899Y00152858
X-00518706Y00188466
X-00507797Y0015259
X-00492215
X-00476807
X-00491585Y00135383
X-00501093Y00108407
X-00508956Y00090335
X-00491879Y00090024
X-00480167Y00043923
X-00467467
X-00454767
X-00442067
X-00448417Y00031223
X-00461117
X-00454767Y00018523
X-00442067
X-00416667Y00069323
X-00403967
X-00391267
X-00378567
X-00365867
X-00353167
X-00340467
X-00346817Y00082023
X-00350544Y00116718
X-00291664Y00096974
X-00276082
X-00260674
X-00257917Y00082023
X-00264267Y00069323
X-00257917Y00056623
X-00270617
X-00264267Y00043923
X-00251567
X-00238867
X-00226167
X-00213467
X-00200767
X-00207117Y00031223
X-00219817
X-00232517
X-00245217
X-00257917
X-00270617
X-00264267Y00018523
X-00251567
X-00238867
X-00226167
X-00213467
X-00182502Y00089752
X-00182766Y00103372
X-00193942Y00105617
X-00157649Y00100736
X-00143833Y00100609
X-00160646Y00114537
X-00160508Y00137867
X-00160703Y00155064
X-00156198Y00162056
X-00119881Y00148436
X-00123896Y00131808
X-00116646Y00189643
X-00219401Y00178795
X-00256107Y00162661
X-00244956Y0014325
X-00266565Y00134986
X-00296017Y00158223
X-00299913Y00164767
X-00309014Y00155376
X-00396846Y0015432
X-00416667Y00170923
X-00429367Y00196323
X-00442067
X-00289667Y00069323
X-00124567Y00043923
X-00118217Y00031223
X-00105517
X-00092817
X-00080117
X-00067417
X-00054717
X-00042017
X-00029317
X-00016617
X-00022967Y00043923
X-00035667
X-00048367
X-00061067
X-00073767
X-00086467
X-00099167
X-00111867
Y00018523
X-00099167
X-00086467
X-00073767
X-00061067
X-00048367
X-00035667
X-00022967
X-00029317Y00056623
X-00042017
X-00054717
X-00048367Y00069323
X-00035667
X-00029317Y00082023
X-00035667Y00094723
X-00029317Y00107423
X-00035667Y00120123
X-00029317Y00132823
X-00035667Y00145523
X-00029317Y00158223
Y00183623
X-00090612Y00186731
X-00093904Y00194907
X-00084495Y00196719
X-00073058Y00157732
X-00079732Y00146561
X-00070887Y00138189
X-0007192Y0011366
X-00067417Y00107423
X-00073767Y00094723
X-00094091Y00092955
X-00106342Y00092936
X-00108044Y00112741
X-00113519Y00121316
X-00092233Y00106982
X-00073767Y00069323
X-0007173Y00244783
X-00081896Y00241263
X-00091429Y00234537
X-00107429Y00247498
X-00108174Y00257146
X-00102517Y00266523
X-00111112Y00270774
X-00067463Y00290944
X-00035667Y00297923
X-00029317Y00310623
X-00035667Y00323323
Y00348723
X-00029317Y00361423
Y00386823
X-00016617
X-00022967Y00399523
X-00035667
X-00048367
X-00061067
X-00073767
X-00086467
X-00099167
X-00111867
X-00105517Y00412223
X-00092817
X-00080117
X-00067417
X-00054717
X-00042017
X-00029317
X-00016617
X-00042017Y00386823
X-00054717
X-00067417
X-00080117
X-00092817
X-00105517
X-00082589Y00364633
X-0009527Y00348065
X-00091575Y00341775
X-00088856Y00335479
X-00086467Y00323323
X-00050805Y00249546
X-0005089Y00234048
X-00029317Y00234423
X-00035667Y00247123
X-00029317Y00209023
X-00116892Y00201004
X-0012506Y00200516
X-00124077Y00211328
X-00138088Y00208319
X-00144026Y00202816
X-00134492Y00218898
X-00123863Y00229134
X-00145703Y00234117
X-00155082Y00234234
X-00181665Y00228233
X-00181823Y00219495
X-00236828Y00215894
X-00249782Y00214878
X-00257917Y00259823
X-00249782Y00281257
X-0023723Y00302518
X-00212369Y0030864
X-00213467Y00348723
X-00200767
X-00207117Y00361423
X-00219817
X-00227483Y00360412
X-00232517Y00386823
X-00219817
X-00207117
X-00213467Y00399523
X-00226167
X-00238867
X-00251567
X-00264267
X-00276967
X-00289667
X-00302367
X-00315067
X-00327767
X-00340467
X-00353167
X-00365867
X-00378567
X-00391267
X-00403967
X-00416667
X-00429367
X-00442067
X-00454767
X-00448417Y00412223
X-00435717
X-00423017
X-00410317
X-00397617
X-00384917
X-00372217
X-00359517
X-00346817
X-00334117
X-00321417
X-00308717
X-00296017
X-00283317
X-00270617
X-00257917
X-00245217
X-00232517
X-00219817
X-00207117
X-00188067Y00374123
X-00181717Y00361423
X-00169017
X-00167946Y00352552
X-00127539Y00349233
X-00135691Y00335316
X-00126036Y002794
X-00121296Y00269189
X-00121402Y0025503
X-00160872Y00269506
X-00167765Y00273806
Y00284982
Y00296158
X-0022603Y00263365
X-00296017Y00285223
X-00340467Y00297923
Y00323323
X-00334117Y00336023
X-00327016Y00343786
X-00332538Y00354838
X-00334117Y00386823
X-00321417
X-00308717
X-00296017
X-00283317
X-00270617
X-00257917
X-00245217
X-00264267Y00348723
X-00317102Y00335684
X-00359517Y00336023
Y00310623
X-00353167Y00247123
X-00365867
X-00391267
X-00429367
Y00272523
Y00297923
X-00430819Y00351111
X-00442067Y00348723
X-00454767
X-00467467
X-00480167
X-00492867
X-00486517Y00361423
X-00473817
X-00461117
X-00448417
X-00435717
X-00423017
X-00416667Y00374123
X-00403967
X-00397617Y00386823
X-00384917
X-00372217
X-00359517
X-00346817
X-00410317
X-00423017
X-00435717
X-00448417
X-00461117
X-00454767Y00374123
X-00442067
X-00429367
X-00467467
X-00480167
X-00499217Y00361423
X-00511917
X-00461117Y00412223
X-00472798Y00230632
X-00448417Y00209023
X-00435717
X-00429367Y00221723
X-00511917Y00209023
X-00341222Y00248406
X-00313028Y0022707
X-00303373Y00200873
X-00118217Y00386823
X-00524617Y00361423
X-00537317
X-00550017
X-00562717
X-00575417
X-00588117
X-00581767Y00374123
X-00569067
X-00556367
X-00543667
X-00550017Y00386823
X-00562717
X-00575417
X-00588117
X-00581767Y00399523
X-00569067
X-00556367
X-00562717Y00412223
X-00575417
X-00588117
X-00581767Y00348723
X-00569067
X-00556367
X-00543667
X-00550017Y00336023
X-00562717
X-00575417
X-00588117
X-00600817
X-00613517
X-00626217
X-00638917
X-00632567Y00348723
X-00619867
X-00607167
X-00594467
Y00323323
X-00581767
X-00569067
X-00556367
X-00543667
X-00550017Y00310623
X-00562717
X-00575417
X-00588117
X-00600817
X-00613517
X-00626217
X-00638917
X-00632567Y00323323
X-00619867
X-00607167
Y00297923
X-00594467
X-00581767
X-00569067
X-00556367
X-00543667
X-00550017Y00285223
X-00562717
X-00575417
X-00588117
X-00600817
X-00613517
X-00626217
X-00638917
X-00632567Y00297923
X-00619867
Y00272523
X-00607167
X-00594467
X-00581767
X-00569067
X-00556367
X-00543667
X-00550017Y00259823
X-00543667Y00247123
X-00556367
X-00551517Y00234044
Y00216179
X-00569382Y00234044
X-00587248
X-00594467Y00247123
X-00607167
X-00600817Y00259823
X-00613517
Y00234423
X-00626217
X-00638917
X-00632567Y00221723
X-00638917Y00209023
X-00632567Y00272523
X-00520287Y00247477
X-00517921Y00211206
X-00518399Y00200841
T02
X-00019314Y00065277
Y00090677
Y00116077
Y00141477
Y00166877
Y00192277
Y00217677
Y00243077
Y00268477
Y00293877
Y00319277
Y00344677
T03
X-00602864Y00187858
Y00231858
M30
