M48
;Layer_Color=9474304
;FILE_FORMAT=4:4
METRIC,LZ
;TYPE=PLATED
T01F00S00C0.3000
T02F00S00C0.9000
;TYPE=NON_PLATED
T03F00S00C0.9000
%
T01
X00018233Y00018523
X00030933
X00043633
X00049983Y00031223
X00056333Y00043923
X00029488Y00043288
X00017477Y00043368
X00024043Y0003456
X00027749Y00088755
X00027871Y00104493
X00015773Y00094075
X-00001824Y00104232
X-00032567Y00094723
X-00026217Y00082023
X-00029883Y00075805
X-00032567Y00069323
X-00019867
X-00038917Y00082023
Y00107423
X-00032567Y00120123
X-00038917Y00132823
X-00035929Y00149581
X-00038917Y00183623
X-00032567Y00196323
X00011883Y00183623
X00024053Y00185273
X00041769Y00174916
X00055794Y00174434
X00055542Y00152581
X00068888Y00152096
X0008129Y00149677
X00076575Y00125392
X00066382Y00106305
X00034839Y00135342
X00027253Y00142925
X00018233Y00145523
X00005533
X-00000817Y00158223
X00005533Y00170923
X00041101Y00152858
X00081294Y00188466
X00092203Y0015259
X00107785
X00123193
X00108415Y00135383
X00098907Y00108407
X00091044Y00090335
X00108121Y00090024
X00119833Y00043923
X00132533
X00145233
X00157933
X00151583Y00031223
X00138883
X00145233Y00018523
X00157933
X00183333Y00069323
X00196033
X00208733
X00221433
X00234133
X00246833
X00259533
X00253183Y00082023
X00249456Y00116718
X00308337Y00096974
X00323918
X00339326
X00342083Y00082023
X00335733Y00069323
X00342083Y00056623
X00329383
X00335733Y00043923
X00348433
X00361133
X00373833
X00386533
X00399233
X00392883Y00031223
X00380183
X00367483
X00354783
X00342083
X00329383
X00335733Y00018523
X00348433
X00361133
X00373833
X00386533
X00417498Y00089752
X00417234Y00103372
X00406058Y00105617
X00442351Y00100736
X00456167Y00100609
X00439354Y00114537
X00439492Y00137867
X00439297Y00155064
X00443802Y00162056
X00480119Y00148436
X00476104Y00131808
X00483354Y00189642
X00380599Y00178795
X00343893Y00162661
X00355044Y0014325
X00333435Y00134986
X00303983Y00158223
X00300087Y00164767
X00290986Y00155376
X00203154Y0015432
X00183333Y00170923
X00170633Y00196323
X00157933
X00310333Y00069323
X00475433Y00043923
X00481783Y00031223
X00494483
X00507183
X00519883
X00532583
X00545283
X00557983
X00570683
X00583383
X00577033Y00043923
X00564333
X00551633
X00538933
X00526233
X00513533
X00500833
X00488133
Y00018523
X00500833
X00513533
X00526233
X00538933
X00551633
X00564333
X00577033
X00570683Y00056623
X00557983
X00545283
X00551633Y00069323
X00564333
X00570683Y00082023
X00564333Y00094723
X00570683Y00107423
X00564333Y00120123
X00570683Y00132823
X00564333Y00145523
X00570683Y00158223
Y00183623
X00509388Y00186731
X00506096Y00194906
X00515505Y00196719
X00526942Y00157732
X00520268Y00146561
X00529113Y00138189
X0052808Y0011366
X00532583Y00107423
X00526233Y00094723
X00505909Y00092955
X00493658Y00092936
X00491956Y00112741
X00486481Y00121316
X00507767Y00106982
X00526233Y00069323
X0052827Y00244783
X00518104Y00241263
X00508572Y00234537
X00492571Y00247498
X00491826Y00257146
X00497483Y00266523
X00488889Y00270774
X00532537Y00290944
X00564333Y00297923
X00570683Y00310623
X00564333Y00323323
Y00348723
X00570683Y00361423
Y00386823
X00583383
X00577033Y00399523
X00564333
X00551633
X00538933
X00526233
X00513533
X00500833
X00488133
X00494483Y00412223
X00507183
X00519883
X00532583
X00545283
X00557983
X00570683
X00583383
X00557983Y00386823
X00545283
X00532583
X00519883
X00507183
X00494483
X00517411Y00364633
X0050473Y00348065
X00508425Y00341775
X00511144Y00335479
X00513533Y00323323
X00549195Y00249546
X00549111Y00234048
X00570683Y00234423
X00564333Y00247123
X00570683Y00209023
X00483108Y00201003
X0047494Y00200516
X00475923Y00211327
X00461912Y00208319
X00455974Y00202816
X00465508Y00218898
X00476137Y00229134
X00454297Y00234117
X00444918Y00234234
X00418335Y00228233
X00418177Y00219494
X00363172Y00215894
X00350218Y00214878
X00342083Y00259823
X00350218Y00281257
X0036277Y00302518
X00387631Y0030864
X00386533Y00348723
X00399233
X00392883Y00361423
X00380183
X00372517Y00360412
X00367483Y00386823
X00380183
X00392883
X00386533Y00399523
X00373833
X00361133
X00348433
X00335733
X00323033
X00310333
X00297633
X00284933
X00272233
X00259533
X00246833
X00234133
X00221433
X00208733
X00196033
X00183333
X00170633
X00157933
X00145233
X00151583Y00412223
X00164283
X00176983
X00189683
X00202383
X00215083
X00227783
X00240483
X00253183
X00265883
X00278583
X00291283
X00303983
X00316683
X00329383
X00342083
X00354783
X00367483
X00380183
X00392883
X00411933Y00374123
X00418283Y00361423
X00430983
X00432054Y00352552
X00472461Y00349233
X00464309Y00335316
X00473964Y002794
X00478704Y00269189
X00478598Y0025503
X00439128Y00269505
X00432235Y00273806
Y00284982
Y00296158
X0037397Y00263365
X00303983Y00285223
X00259533Y00297923
Y00323323
X00265883Y00336023
X00272984Y00343786
X00267462Y00354838
X00265883Y00386823
X00278583
X00291283
X00303983
X00316683
X00329383
X00342083
X00354783
X00335733Y00348723
X00282898Y00335684
X00240483Y00336023
Y00310623
X00246833Y00247123
X00234133
X00208733
X00170633
Y00272523
Y00297923
X00169182Y0035111
X00157933Y00348723
X00145233
X00132533
X00119833
X00107133
X00113483Y00361423
X00126183
X00138883
X00151583
X00164283
X00176983
X00183333Y00374123
X00196033
X00202383Y00386823
X00215083
X00227783
X00240483
X00253183
X00189683
X00176983
X00164283
X00151583
X00138883
X00145233Y00374123
X00157933
X00170633
X00132533
X00119833
X00100783Y00361423
X00088083
X00138883Y00412223
X00127202Y00230632
X00151583Y00209023
X00164283
X00170633Y00221723
X00088083Y00209023
X00258778Y00248406
X00286972Y0022707
X00296627Y00200873
X00481783Y00386823
X00075383Y00361423
X00062683
X00049983
X00037283
X00024583
X00011883
X00018233Y00374123
X00030933
X00043633
X00056333
X00049983Y00386823
X00037283
X00024583
X00011883
X00018233Y00399523
X00030933
X00043633
X00037283Y00412223
X00024583
X00011883
X00018233Y00348723
X00030933
X00043633
X00056333
X00049983Y00336023
X00037283
X00024583
X00011883
X-00000817
X-00013517
X-00026217
X-00038917
X-00032567Y00348723
X-00019867
X-00007167
X00005533
Y00323323
X00018233
X00030933
X00043633
X00056333
X00049983Y00310623
X00037283
X00024583
X00011883
X-00000817
X-00013517
X-00026217
X-00038917
X-00032567Y00323323
X-00019867
X-00007167
Y00297923
X00005533
X00018233
X00030933
X00043633
X00056333
X00049983Y00285223
X00037283
X00024583
X00011883
X-00000817
X-00013517
X-00026217
X-00038917
X-00032567Y00297923
X-00019867
Y00272523
X-00007167
X00005533
X00018233
X00030933
X00043633
X00056333
X00049983Y00259823
X00056333Y00247123
X00043633
X00048483Y00234044
Y00216179
X00030618Y00234044
X00012753
X00005533Y00247123
X-00007167
X-00000817Y00259823
X-00013517
Y00234423
X-00026217
X-00038917
X-00032567Y00221723
X-00038917Y00209023
X-00032567Y00272523
X00079713Y00247477
X00082079Y00211205
X00081601Y00200841
T02
X00580686Y00065277
Y00090677
Y00116077
Y00141477
Y00166877
Y00192277
Y00217677
Y00243077
Y00268477
Y00293877
Y00319277
Y00344677
T03
X-00002864Y00187858
Y00231858
M30
