M48
;Layer_Color=9474304
;FILE_FORMAT=4:4
METRIC,LZ
;TYPE=PLATED
T01F00S00C0.3000
T02F00S00C0.9000
;TYPE=NON_PLATED
T03F00S00C0.9000
%
T01
X-00472229Y-00311451
X-00459529
X-00446829
X-00440479Y-00298751
X-00434129Y-00286051
X-00460974Y-00286686
X-00472985Y-00286606
X-00466419Y-00295414
X-00462712Y-00241219
X-00462591Y-00225481
X-00474689Y-00235899
X-00492285Y-00225742
X-00523029Y-00235251
X-00516679Y-00247951
X-00520344Y-00254169
X-00523029Y-00260651
X-00510329
X-00529379Y-00247951
Y-00222551
X-00523029Y-00209851
X-00529379Y-00197151
X-0052639Y-00180392
X-00529379Y-00146351
X-00523029Y-00133651
X-00478579Y-00146351
X-00466409Y-001447
X-00448693Y-00155057
X-00434668Y-0015554
X-00434919Y-00177393
X-00421574Y-00177878
X-00409172Y-00180296
X-00413887Y-00204582
X-00424079Y-00223669
X-00455623Y-00194632
X-00463209Y-00187049
X-00472229Y-00184451
X-00484929
X-00491279Y-00171751
X-00484929Y-00159051
X-00449361Y-00177116
X-00409168Y-00141508
X-00398259Y-00177384
X-00382677
X-00367269
X-00382046Y-00194591
X-00391555Y-00221567
X-00399418Y-00239639
X-00382341Y-0023995
X-00370629Y-00286051
X-00357929
X-00345229
X-00332529
X-00338879Y-00298751
X-00351579
X-00345229Y-00311451
X-00332529
X-00307129Y-00260651
X-00294429
X-00281729
X-00269029
X-00256329
X-00243629
X-00230929
X-00237279Y-00247951
X-00241006Y-00213256
X-00182125Y-00233
X-00166544
X-00151135
X-00148379Y-00247951
X-00154729Y-00260651
X-00148379Y-00273351
X-00161079
X-00154729Y-00286051
X-00142029
X-00129329
X-00116629
X-00103929
X-00091229
X-00097579Y-00298751
X-00110279
X-00122979
X-00135679
X-00148379
X-00161079
X-00154729Y-00311451
X-00142029
X-00129329
X-00116629
X-00103929
X-00072964Y-00240222
X-00073227Y-00226602
X-00084404Y-00224357
X-00048111Y-00229238
X-00034295Y-00229365
X-00051108Y-00215437
X-0005097Y-00192106
X-00051165Y-0017491
X-0004666Y-00167918
X-00010343Y-00181538
X-00014358Y-00198166
X-00007108Y-00140331
X-00109863Y-00151179
X-00146568Y-00167313
X-00135418Y-00186724
X-00157027Y-00194988
X-00186479Y-00171751
X-00190375Y-00165207
X-00199476Y-00174598
X-00287308Y-00175654
X-00307129Y-00159051
X-00319829Y-00133651
X-00332529
X-00180129Y-00260651
X-00015029Y-00286051
X-00008679Y-00298751
X00004021
X00016721
X00029421
X00042121
X00054821
X00067521
X00080221
X00092921
X00086571Y-00286051
X00073871
X00061171
X00048471
X00035771
X00023071
X00010371
X-00002329
Y-00311451
X00010371
X00023071
X00035771
X00048471
X00061171
X00073871
X00086571
X00080221Y-00273351
X00067521
X00054821
X00061171Y-00260651
X00073871
X00080221Y-00247951
X00073871Y-00235251
X00080221Y-00222551
X00073871Y-00209851
X00080221Y-00197151
X00073871Y-00184451
X00080221Y-00171751
Y-00146351
X00018926Y-00143243
X00015634Y-00135068
X00025044Y-00133255
X0003648Y-00172241
X00029807Y-00183413
X00038652Y-00191785
X00037618Y-00216314
X00042121Y-00222551
X00035771Y-00235251
X00015447Y-00237019
X00003196Y-00237038
X00001494Y-00217233
X-00003981Y-00208658
X00017306Y-00222992
X00035771Y-00260651
X00037809Y-00085191
X00027643Y-00088711
X0001811Y-00095437
X00002109Y-00082476
X00001364Y-00072828
X00007021Y-00063451
X-00001573Y-000592
X00042075Y-0003903
X00073871Y-00032051
X00080221Y-00019351
X00073871Y-00006651
Y00018749
X00080221Y00031449
Y00056849
X00092921
X00086571Y00069549
X00073871
X00061171
X00048471
X00035771
X00023071
X00010371
X-00002329
X00004021Y00082249
X00016721
X00029421
X00042121
X00054821
X00067521
X00080221
X00092921
X00067521Y00056849
X00054821
X00042121
X00029421
X00016721
X00004021
X00026949Y00034659
X00014268Y00018091
X00017963Y00011801
X00020682Y00005505
X00023071Y-00006651
X00058733Y-00080428
X00058649Y-00095926
X00080221Y-00095551
X00073871Y-00082851
X00080221Y-00120951
X-00007354Y-0012897
X-00015522Y-00129458
X-00014538Y-00118646
X-00028549Y-00121655
X-00034488Y-00127158
X-00024954Y-00111076
X-00014325Y-0010084
X-00036165Y-00095857
X-00045544Y-0009574
X-00072126Y-00101741
X-00072285Y-00110479
X-0012729Y-0011408
X-00140244Y-00115096
X-00148379Y-00070151
X-00140244Y-00048717
X-00127691Y-00027456
X-00102831Y-00021334
X-00103929Y00018749
X-00091229
X-00097579Y00031449
X-00110279
X-00117945Y00030438
X-00122979Y00056849
X-00110279
X-00097579
X-00103929Y00069549
X-00116629
X-00129329
X-00142029
X-00154729
X-00167429
X-00180129
X-00192829
X-00205529
X-00218229
X-00230929
X-00243629
X-00256329
X-00269029
X-00281729
X-00294429
X-00307129
X-00319829
X-00332529
X-00345229
X-00338879Y00082249
X-00326179
X-00313479
X-00300779
X-00288079
X-00275379
X-00262679
X-00249979
X-00237279
X-00224579
X-00211879
X-00199179
X-00186479
X-00173779
X-00161079
X-00148379
X-00135679
X-00122979
X-00110279
X-00097579
X-00078529Y00044149
X-00072179Y00031449
X-00059479
X-00058408Y00022578
X-00018001Y00019259
X-00026153Y00005342
X-00016498Y-00050574
X-00011757Y-00060785
X-00011863Y-00074944
X-00051333Y-00060469
X-00058227Y-00056168
Y-00044992
Y-00033816
X-00116492Y-00066609
X-00186479Y-00044751
X-00230929Y-00032051
Y-00006651
X-00224579Y00006049
X-00217478Y00013812
X-00223Y00024864
X-00224579Y00056849
X-00211879
X-00199179
X-00186479
X-00173779
X-00161079
X-00148379
X-00135679
X-00154729Y00018749
X-00207564Y0000571
X-00249979Y00006049
Y-00019351
X-00243629Y-00082851
X-00256329
X-00281729
X-00319829
Y-00057451
Y-00032051
X-0032128Y00021137
X-00332529Y00018749
X-00345229
X-00357929
X-00370629
X-00383329
X-00376979Y00031449
X-00364279
X-00351579
X-00338879
X-00326179
X-00313479
X-00307129Y00044149
X-00294429
X-00288079Y00056849
X-00275379
X-00262679
X-00249979
X-00237279
X-00300779
X-00313479
X-00326179
X-00338879
X-00351579
X-00345229Y00044149
X-00332529
X-00319829
X-00357929
X-00370629
X-00389679Y00031449
X-00402379
X-00351579Y00082249
X-0036326Y-00099342
X-00338879Y-00120951
X-00326179
X-00319829Y-00108251
X-00402379Y-00120951
X-00231684Y-00081568
X-0020349Y-00102904
X-00193834Y-00129101
X-00008679Y00056849
X-00415079Y00031449
X-00427779
X-00440479
X-00453179
X-00465879
X-00478579
X-00472229Y00044149
X-00459529
X-00446829
X-00434129
X-00440479Y00056849
X-00453179
X-00465879
X-00478579
X-00472229Y00069549
X-00459529
X-00446829
X-00453179Y00082249
X-00465879
X-00478579
X-00472229Y00018749
X-00459529
X-00446829
X-00434129
X-00440479Y00006049
X-00453179
X-00465879
X-00478579
X-00491279
X-00503979
X-00516679
X-00529379
X-00523029Y00018749
X-00510329
X-00497629
X-00484929
Y-00006651
X-00472229
X-00459529
X-00446829
X-00434129
X-00440479Y-00019351
X-00453179
X-00465879
X-00478579
X-00491279
X-00503979
X-00516679
X-00529379
X-00523029Y-00006651
X-00510329
X-00497629
Y-00032051
X-00484929
X-00472229
X-00459529
X-00446829
X-00434129
X-00440479Y-00044751
X-00453179
X-00465879
X-00478579
X-00491279
X-00503979
X-00516679
X-00529379
X-00523029Y-00032051
X-00510329
Y-00057451
X-00497629
X-00484929
X-00472229
X-00459529
X-00446829
X-00434129
X-00440479Y-00070151
X-00434129Y-00082851
X-00446829
X-00441979Y-0009593
Y-00113795
X-00459844Y-0009593
X-00477709
X-00484929Y-00082851
X-00497629
X-00491279Y-00070151
X-00503979
Y-00095551
X-00516679
X-00529379
X-00523029Y-00108251
X-00529379Y-00120951
X-00523029Y-00057451
X-00410749Y-00082497
X-00408382Y-00118769
X-0040886Y-00129133
T02
X00090225Y-00264697
Y-00239297
Y-00213897
Y-00188497
Y-00163097
Y-00137697
Y-00112297
Y-00086897
Y-00061497
Y-00036097
Y-00010697
Y00014703
T03
X-00493326Y-00142116
Y-00098116
M30
